<?xml version="1.0" standalone="no"?>
 <!DOCTYPE svg PUBLIC "-//W3C//DTD SVG 1.1//EN" 
 "http://www.w3.org/Graphics/SVG/1.1/DTD/svg11.dtd"> 
<svg xmlns="http://www.w3.org/2000/svg" version="1.1" 
    width="5.07746cm" height="5.04444cm" viewBox="0 0 19990 19860 ">
<title>SVG Picture created as 2016-B.Cu.svg date 2016/12/09 11:11:19 </title>
  <desc>Picture generated by PCBNEW </desc>
<g style="fill:#000000; fill-opacity:1;stroke:#000000; stroke-opacity:1;
stroke-linecap:round; stroke-linejoin:round; "
 transform="translate(0 0) scale(1 1)">
</g>
<g style="fill:#000000; fill-opacity:0.0; 
stroke:#000000; stroke-width:-0.000393701; stroke-opacity:1; 
stroke-linecap:round; stroke-linejoin:round;">
</g>
<g style="fill:#000000; fill-opacity:0.0; 
stroke:#000000; stroke-width:118.11; stroke-opacity:1; 
stroke-linecap:round; stroke-linejoin:round;">
<path d="M7321 4260
L7321 4738
L7293 4794
L7264 4822
L7208 4850
L7096 4850
L7039 4822
L7011 4794
L6983 4738
L6983 4260
" />
<path d="M6674 4260
L6730 4372
" />
<path d="M6449 4822
L6393 4850
L6280 4850
L6224 4822
L6196 4766
L6196 4738
L6224 4682
L6280 4654
L6364 4654
L6421 4625
L6449 4569
L6449 4541
L6421 4485
L6364 4457
L6280 4457
L6224 4485
" />
</g>
<g style="fill:#000000; fill-opacity:0.0; 
stroke:#000000; stroke-width:59.0551; stroke-opacity:1; 
stroke-linecap:round; stroke-linejoin:round;">
<path d="M12087 11965
L8150 11965
" />
<path d="M12087 8028
L12087 11965
" />
<path d="M8150 8028
L12087 8028
" />
<path d="M8150 11965
L8150 8028
" />
<path d="M19961 19839
L276 19839
" />
<path d="M19961 154
L19961 19839
" />
<path d="M276 154
L19961 154
" />
<path d="M276 19839
L276 154
" />
</g>
<g style="fill:#000000; fill-opacity:1.0; 
stroke:#000000; stroke-width:0; stroke-opacity:1; 
stroke-linecap:round; stroke-linejoin:round;">
<circle cx="13328.7" cy="11003" r="295.5" /> 
</g>
<g style="fill:#000000; fill-opacity:1.0; 
stroke:#000000; stroke-width:39.3701; stroke-opacity:1; 
stroke-linecap:round; stroke-linejoin:round;">
</g>
<g style="fill:#000000; fill-opacity:1.0; 
stroke:#000000; stroke-width:0; stroke-opacity:1; 
stroke-linecap:round; stroke-linejoin:round;">
<circle cx="13328.7" cy="9081.05" r="295.5" /> 
</g>
<g style="fill:#000000; fill-opacity:1.0; 
stroke:#000000; stroke-width:39.3701; stroke-opacity:1; 
stroke-linecap:round; stroke-linejoin:round;">
</g>
<g style="fill:#000000; fill-opacity:1.0; 
stroke:#000000; stroke-width:0; stroke-opacity:1; 
stroke-linecap:round; stroke-linejoin:round;">
<polyline style="fill-rule:evenodd;"
points="7174,13529
6682,13529
6682,12938
7174,12938
7174,13529
" /> 
<polyline style="fill-rule:evenodd;"
points="7174,12545
6682,12545
6682,11954
7174,11954
7174,12545
" /> 
<polyline style="fill-rule:evenodd;"
points="3174,14529
2682,14529
2682,13938
3174,13938
3174,14529
" /> 
<polyline style="fill-rule:evenodd;"
points="3174,13545
2682,13545
2682,12954
3174,12954
3174,13545
" /> 
<polyline style="fill-rule:evenodd;"
points="12682,11754
13174,11754
13174,12345
12682,12345
12682,11754
" /> 
<polyline style="fill-rule:evenodd;"
points="12682,12738
13174,12738
13174,13329
12682,13329
12682,12738
" /> 
<polyline style="fill-rule:evenodd;"
points="13074,8429
12582,8429
12582,7838
13074,7838
13074,8429
" /> 
<polyline style="fill-rule:evenodd;"
points="13074,7445
12582,7445
12582,6854
13074,6854
13074,7445
" /> 
<polyline style="fill-rule:evenodd;"
points="13840,15252
13840,15036
14470,15036
14470,15252
13840,15252
" /> 
<polyline style="fill-rule:evenodd;"
points="13840,14937
13840,14721
14470,14721
14470,14937
13840,14937
" /> 
<polyline style="fill-rule:evenodd;"
points="13840,14622
13840,14406
14470,14406
14470,14622
13840,14622
" /> 
<polyline style="fill-rule:evenodd;"
points="13840,14307
13840,14091
14470,14091
14470,14307
13840,14307
" /> 
<polyline style="fill-rule:evenodd;"
points="13840,13992
13840,13776
14470,13776
14470,13992
13840,13992
" /> 
<polyline style="fill-rule:evenodd;"
points="13840,13677
13840,13461
14470,13461
14470,13677
13840,13677
" /> 
<polyline style="fill-rule:evenodd;"
points="13840,13362
13840,13146
14470,13146
14470,13362
13840,13362
" /> 
<polyline style="fill-rule:evenodd;"
points="13840,13047
13840,12831
14470,12831
14470,13047
13840,13047
" /> 
<polyline style="fill-rule:evenodd;"
points="14618,12053
14834,12053
14834,12683
14618,12683
14618,12053
" /> 
<polyline style="fill-rule:evenodd;"
points="14932,12053
15149,12053
15149,12683
14932,12683
14932,12053
" /> 
<polyline style="fill-rule:evenodd;"
points="15247,12053
15464,12053
15464,12683
15247,12683
15247,12053
" /> 
<polyline style="fill-rule:evenodd;"
points="15562,12053
15779,12053
15779,12683
15562,12683
15562,12053
" /> 
<polyline style="fill-rule:evenodd;"
points="15877,12053
16094,12053
16094,12683
15877,12683
15877,12053
" /> 
<polyline style="fill-rule:evenodd;"
points="16192,12053
16409,12053
16409,12683
16192,12683
16192,12053
" /> 
<polyline style="fill-rule:evenodd;"
points="16507,12053
16724,12053
16724,12683
16507,12683
16507,12053
" /> 
<polyline style="fill-rule:evenodd;"
points="16822,12053
17039,12053
17039,12683
16822,12683
16822,12053
" /> 
<polyline style="fill-rule:evenodd;"
points="17186,13047
17186,12831
17816,12831
17816,13047
17186,13047
" /> 
<polyline style="fill-rule:evenodd;"
points="17186,13362
17186,13146
17816,13146
17816,13362
17186,13362
" /> 
<polyline style="fill-rule:evenodd;"
points="17186,13677
17186,13461
17816,13461
17816,13677
17186,13677
" /> 
<polyline style="fill-rule:evenodd;"
points="17186,13992
17186,13776
17816,13776
17816,13992
17186,13992
" /> 
<polyline style="fill-rule:evenodd;"
points="17186,14307
17186,14091
17816,14091
17816,14307
17186,14307
" /> 
<polyline style="fill-rule:evenodd;"
points="17186,14622
17186,14406
17816,14406
17816,14622
17186,14622
" /> 
<polyline style="fill-rule:evenodd;"
points="17186,14937
17186,14721
17816,14721
17816,14937
17186,14937
" /> 
<polyline style="fill-rule:evenodd;"
points="17186,15252
17186,15036
17816,15036
17816,15252
17186,15252
" /> 
<polyline style="fill-rule:evenodd;"
points="16822,15400
17039,15400
17039,16030
16822,16030
16822,15400
" /> 
<polyline style="fill-rule:evenodd;"
points="16507,15400
16724,15400
16724,16030
16507,16030
16507,15400
" /> 
<polyline style="fill-rule:evenodd;"
points="16192,15400
16409,15400
16409,16030
16192,16030
16192,15400
" /> 
<polyline style="fill-rule:evenodd;"
points="15877,15400
16094,15400
16094,16030
15877,16030
15877,15400
" /> 
<polyline style="fill-rule:evenodd;"
points="15562,15400
15779,15400
15779,16030
15562,16030
15562,15400
" /> 
<polyline style="fill-rule:evenodd;"
points="15247,15400
15464,15400
15464,16030
15247,16030
15247,15400
" /> 
<polyline style="fill-rule:evenodd;"
points="14932,15400
15149,15400
15149,16030
14932,16030
14932,15400
" /> 
<polyline style="fill-rule:evenodd;"
points="14618,15400
14834,15400
14834,16030
14618,16030
14618,15400
" /> 
<polyline style="fill-rule:evenodd;"
points="11188,12792
11868,12792
11868,13592
11188,13592
11188,12792
" /> 
</g>
<g style="fill:#000000; fill-opacity:1.0; 
stroke:#000000; stroke-width:680; stroke-opacity:1; 
stroke-linecap:round; stroke-linejoin:round;">
</g>
<g style="fill:#000000; fill-opacity:0.0; 
stroke:#000000; stroke-width:680; stroke-opacity:1; 
stroke-linecap:round; stroke-linejoin:round;">
<path d="M10528 13132
L10528 13252
" />
<path d="M9528 13132
L9528 13252
" />
<path d="M8528 13132
L8528 13252
" />
</g>
<g style="fill:#000000; fill-opacity:0.0; 
stroke:#000000; stroke-width:0; stroke-opacity:1; 
stroke-linecap:round; stroke-linejoin:round;">
</g>
<g style="fill:#000000; fill-opacity:1.0; 
stroke:#000000; stroke-width:0; stroke-opacity:1; 
stroke-linecap:round; stroke-linejoin:round;">
<polyline style="fill-rule:evenodd;"
points="12768,5642
12088,5642
12088,4842
12768,4842
12768,5642
" /> 
</g>
<g style="fill:#000000; fill-opacity:1.0; 
stroke:#000000; stroke-width:680; stroke-opacity:1; 
stroke-linecap:round; stroke-linejoin:round;">
</g>
<g style="fill:#000000; fill-opacity:0.0; 
stroke:#000000; stroke-width:680; stroke-opacity:1; 
stroke-linecap:round; stroke-linejoin:round;">
<path d="M13428 5302
L13428 5182
" />
<path d="M14428 5302
L14428 5182
" />
</g>
<g style="fill:#000000; fill-opacity:0.0; 
stroke:#000000; stroke-width:0; stroke-opacity:1; 
stroke-linecap:round; stroke-linejoin:round;">
</g>
<g style="fill:#000000; fill-opacity:1.0; 
stroke:#000000; stroke-width:0; stroke-opacity:1; 
stroke-linecap:round; stroke-linejoin:round;">
<polyline style="fill-rule:evenodd;"
points="17878,2782
17878,2102
18678,2102
18678,2782
17878,2782
" /> 
</g>
<g style="fill:#000000; fill-opacity:1.0; 
stroke:#000000; stroke-width:680; stroke-opacity:1; 
stroke-linecap:round; stroke-linejoin:round;">
</g>
<g style="fill:#000000; fill-opacity:0.0; 
stroke:#000000; stroke-width:680; stroke-opacity:1; 
stroke-linecap:round; stroke-linejoin:round;">
<path d="M18218 3442
L18338 3442
" />
<path d="M18218 4442
L18338 4442
" />
</g>
<g style="fill:#000000; fill-opacity:0.0; 
stroke:#000000; stroke-width:0; stroke-opacity:1; 
stroke-linecap:round; stroke-linejoin:round;">
</g>
<g style="fill:#000000; fill-opacity:1.0; 
stroke:#000000; stroke-width:0; stroke-opacity:1; 
stroke-linecap:round; stroke-linejoin:round;">
<polyline style="fill-rule:evenodd;"
points="8884,15818
8372,15818
8372,15228
8884,15228
8884,15818
" /> 
<polyline style="fill-rule:evenodd;"
points="8884,14755
8372,14755
8372,14165
8884,14165
8884,14755
" /> 
<polyline style="fill-rule:evenodd;"
points="9884,15818
9372,15818
9372,15228
9884,15228
9884,15818
" /> 
<polyline style="fill-rule:evenodd;"
points="9884,14755
9372,14755
9372,14165
9884,14165
9884,14755
" /> 
<polyline style="fill-rule:evenodd;"
points="10884,15818
10372,15818
10372,15228
10884,15228
10884,15818
" /> 
<polyline style="fill-rule:evenodd;"
points="10884,14755
10372,14755
10372,14165
10884,14165
10884,14755
" /> 
<polyline style="fill-rule:evenodd;"
points="18084,10068
17572,10068
17572,9478
18084,9478
18084,10068
" /> 
<polyline style="fill-rule:evenodd;"
points="18084,9005
17572,9005
17572,8415
18084,8415
18084,9005
" /> 
<polyline style="fill-rule:evenodd;"
points="4568,6001
4056,6001
4056,5410
4568,5410
4568,6001
" /> 
<polyline style="fill-rule:evenodd;"
points="4568,4938
4056,4938
4056,4347
4568,4347
4568,4938
" /> 
<polyline style="fill-rule:evenodd;"
points="15501,5797
15501,5286
16092,5286
16092,5797
15501,5797
" /> 
<polyline style="fill-rule:evenodd;"
points="16564,5797
16564,5286
17155,5286
17155,5797
16564,5797
" /> 
<polyline style="fill-rule:evenodd;"
points="15501,4797
15501,4286
16092,4286
16092,4797
15501,4797
" /> 
<polyline style="fill-rule:evenodd;"
points="16564,4797
16564,4286
17155,4286
17155,4797
16564,4797
" /> 
<polyline style="fill-rule:evenodd;"
points="3655,1086
3655,1597
3064,1597
3064,1086
3655,1086
" /> 
<polyline style="fill-rule:evenodd;"
points="2592,1086
2592,1597
2001,1597
2001,1086
2592,1086
" /> 
<polyline style="fill-rule:evenodd;"
points="17155,2086
17155,2597
16564,2597
16564,2086
17155,2086
" /> 
<polyline style="fill-rule:evenodd;"
points="16092,2086
16092,2597
15501,2597
15501,2086
16092,2086
" /> 
<polyline style="fill-rule:evenodd;"
points="17155,3286
17155,3797
16564,3797
16564,3286
17155,3286
" /> 
<polyline style="fill-rule:evenodd;"
points="16092,3286
16092,3797
15501,3797
15501,3286
16092,3286
" /> 
<polyline style="fill-rule:evenodd;"
points="7372,14165
7884,14165
7884,14755
7372,14755
7372,14165
" /> 
<polyline style="fill-rule:evenodd;"
points="7372,15228
7884,15228
7884,15818
7372,15818
7372,15228
" /> 
<polyline style="fill-rule:evenodd;"
points="1516,5508
1005,5508
1005,4918
1516,4918
1516,5508
" /> 
<polyline style="fill-rule:evenodd;"
points="1516,4445
1005,4445
1005,3855
1516,3855
1516,4445
" /> 
<polyline style="fill-rule:evenodd;"
points="1938,3032
1938,2352
2618,2352
2618,3032
1938,3032
" /> 
</g>
<g style="fill:#000000; fill-opacity:1.0; 
stroke:#000000; stroke-width:680; stroke-opacity:1; 
stroke-linecap:round; stroke-linejoin:round;">
</g>
<g style="fill:#000000; fill-opacity:0.0; 
stroke:#000000; stroke-width:680; stroke-opacity:1; 
stroke-linecap:round; stroke-linejoin:round;">
<path d="M3278 2692
L3278 2692
" />
<path d="M2278 3692
L2278 3692
" />
<path d="M3278 3692
L3278 3692
" />
<path d="M2278 4692
L2278 4692
" />
<path d="M3278 4692
L3278 4692
" />
<path d="M2278 5692
L2278 5692
" />
<path d="M3278 5692
L3278 5692
" />
</g>
<g style="fill:#000000; fill-opacity:1.0; 
stroke:#000000; stroke-width:0; stroke-opacity:1; 
stroke-linecap:round; stroke-linejoin:round;">
<circle cx="1316.46" cy="10266.9" r="334.646" /> 
</g>
<g style="fill:#000000; fill-opacity:1.0; 
stroke:#000000; stroke-width:39.3701; stroke-opacity:1; 
stroke-linecap:round; stroke-linejoin:round;">
</g>
<g style="fill:#000000; fill-opacity:1.0; 
stroke:#000000; stroke-width:0; stroke-opacity:1; 
stroke-linecap:round; stroke-linejoin:round;">
<circle cx="3678.66" cy="10266.9" r="334.646" /> 
</g>
<g style="fill:#000000; fill-opacity:1.0; 
stroke:#000000; stroke-width:39.3701; stroke-opacity:1; 
stroke-linecap:round; stroke-linejoin:round;">
</g>
<g style="fill:#000000; fill-opacity:1.0; 
stroke:#000000; stroke-width:0; stroke-opacity:1; 
stroke-linecap:round; stroke-linejoin:round;">
<circle cx="1316.46" cy="8692.05" r="334.646" /> 
</g>
<g style="fill:#000000; fill-opacity:1.0; 
stroke:#000000; stroke-width:39.3701; stroke-opacity:1; 
stroke-linecap:round; stroke-linejoin:round;">
</g>
<g style="fill:#000000; fill-opacity:1.0; 
stroke:#000000; stroke-width:0; stroke-opacity:1; 
stroke-linecap:round; stroke-linejoin:round;">
<circle cx="3678.66" cy="8692.05" r="334.646" /> 
</g>
<g style="fill:#000000; fill-opacity:1.0; 
stroke:#000000; stroke-width:39.3701; stroke-opacity:1; 
stroke-linecap:round; stroke-linejoin:round;">
</g>
<g style="fill:#000000; fill-opacity:1.0; 
stroke:#000000; stroke-width:0; stroke-opacity:1; 
stroke-linecap:round; stroke-linejoin:round;">
<polyline style="fill-rule:evenodd;"
points="4078,15217
4078,14767
4278,14767
4278,15217
4078,15217
" /> 
<polyline style="fill-rule:evenodd;"
points="4578,15217
4578,14767
4778,14767
4778,15217
4578,15217
" /> 
<polyline style="fill-rule:evenodd;"
points="5078,15217
5078,14767
5278,14767
5278,15217
5078,15217
" /> 
<polyline style="fill-rule:evenodd;"
points="5578,15217
5578,14767
5778,14767
5778,15217
5578,15217
" /> 
<polyline style="fill-rule:evenodd;"
points="5578,12717
5578,12267
5778,12267
5778,12717
5578,12717
" /> 
<polyline style="fill-rule:evenodd;"
points="5078,12717
5078,12267
5278,12267
5278,12717
5078,12717
" /> 
<polyline style="fill-rule:evenodd;"
points="4578,12717
4578,12267
4778,12267
4778,12717
4578,12717
" /> 
<polyline style="fill-rule:evenodd;"
points="4078,12717
4078,12267
4278,12267
4278,12717
4078,12717
" /> 
<polyline style="fill-rule:evenodd;"
points="16868,10402
16868,11082
16188,11082
16188,10402
16868,10402
" /> 
</g>
<g style="fill:#000000; fill-opacity:1.0; 
stroke:#000000; stroke-width:680; stroke-opacity:1; 
stroke-linecap:round; stroke-linejoin:round;">
</g>
<g style="fill:#000000; fill-opacity:0.0; 
stroke:#000000; stroke-width:680; stroke-opacity:1; 
stroke-linecap:round; stroke-linejoin:round;">
<path d="M15528 10742
L15528 10742
" />
<path d="M16528 9742
L16528 9742
" />
<path d="M15528 9742
L15528 9742
" />
<path d="M16528 8742
L16528 8742
" />
<path d="M15528 8742
L15528 8742
" />
</g>
<g style="fill:#000000; fill-opacity:0.0; 
stroke:#000000; stroke-width:0; stroke-opacity:1; 
stroke-linecap:round; stroke-linejoin:round;">
</g>
<g style="fill:#000000; fill-opacity:1.0; 
stroke:#000000; stroke-width:0; stroke-opacity:1; 
stroke-linecap:round; stroke-linejoin:round;">
<polyline style="fill-rule:evenodd;"
points="12613,760
13243,760
13243,1548
12613,1548
12613,760
" /> 
<polyline style="fill-rule:evenodd;"
points="12613,2335
13243,2335
13243,3123
12613,3123
12613,2335
" /> 
<polyline style="fill-rule:evenodd;"
points="14013,760
14643,760
14643,1548
14013,1548
14013,760
" /> 
<polyline style="fill-rule:evenodd;"
points="14013,2335
14643,2335
14643,3123
14013,3123
14013,2335
" /> 
<polyline style="fill-rule:evenodd;"
points="11984,15818
11472,15818
11472,15228
11984,15228
11984,15818
" /> 
<polyline style="fill-rule:evenodd;"
points="11984,14755
11472,14755
11472,14165
11984,14165
11984,14755
" /> 
<polyline style="fill-rule:evenodd;"
points="13801,7597
13801,7086
14392,7086
14392,7597
13801,7597
" /> 
<polyline style="fill-rule:evenodd;"
points="14864,7597
14864,7086
15455,7086
15455,7597
14864,7597
" /> 
<polyline style="fill-rule:evenodd;"
points="8888,19142
8888,18342
9568,18342
9568,19142
8888,19142
" /> 
</g>
<g style="fill:#000000; fill-opacity:1.0; 
stroke:#000000; stroke-width:680; stroke-opacity:1; 
stroke-linecap:round; stroke-linejoin:round;">
</g>
<g style="fill:#000000; fill-opacity:0.0; 
stroke:#000000; stroke-width:680; stroke-opacity:1; 
stroke-linecap:round; stroke-linejoin:round;">
<path d="M10228 18682
L10228 18802
" />
<path d="M11228 18682
L11228 18802
" />
<path d="M12228 18682
L12228 18802
" />
<path d="M13228 18682
L13228 18802
" />
</g>
<g style="fill:#000000; fill-opacity:0.0; 
stroke:#000000; stroke-width:0; stroke-opacity:1; 
stroke-linecap:round; stroke-linejoin:round;">
</g>
<g style="fill:#000000; fill-opacity:1.0; 
stroke:#000000; stroke-width:0; stroke-opacity:1; 
stroke-linecap:round; stroke-linejoin:round;">
<polyline style="fill-rule:evenodd;"
points="4220,19058
3420,19058
3420,18258
4220,18258
4220,19058
" /> 
</g>
<g style="fill:#000000; fill-opacity:1.0; 
stroke:#000000; stroke-width:800; stroke-opacity:1; 
stroke-linecap:round; stroke-linejoin:round;">
</g>
<g style="fill:#000000; fill-opacity:0.0; 
stroke:#000000; stroke-width:800; stroke-opacity:1; 
stroke-linecap:round; stroke-linejoin:round;">
<path d="M4820 18658
L4820 18658
" />
</g>
<g style="fill:#000000; fill-opacity:0.0; 
stroke:#000000; stroke-width:0; stroke-opacity:1; 
stroke-linecap:round; stroke-linejoin:round;">
</g>
<g style="fill:#000000; fill-opacity:1.0; 
stroke:#000000; stroke-width:0; stroke-opacity:1; 
stroke-linecap:round; stroke-linejoin:round;">
<polyline style="fill-rule:evenodd;"
points="1845,18258
2645,18258
2645,19058
1845,19058
1845,18258
" /> 
</g>
<g style="fill:#000000; fill-opacity:1.0; 
stroke:#000000; stroke-width:800; stroke-opacity:1; 
stroke-linecap:round; stroke-linejoin:round;">
</g>
<g style="fill:#000000; fill-opacity:0.0; 
stroke:#000000; stroke-width:800; stroke-opacity:1; 
stroke-linecap:round; stroke-linejoin:round;">
<path d="M1245 18658
L1245 18658
" />
</g>
<g style="fill:#000000; fill-opacity:0.0; 
stroke:#000000; stroke-width:0; stroke-opacity:1; 
stroke-linecap:round; stroke-linejoin:round;">
</g>
<g style="fill:#000000; fill-opacity:1.0; 
stroke:#000000; stroke-width:0; stroke-opacity:1; 
stroke-linecap:round; stroke-linejoin:round;">
<polyline style="fill-rule:evenodd;"
points="3288,16847
3288,16532
3603,16532
3603,16847
3288,16847
" /> 
<polyline style="fill-rule:evenodd;"
points="4036,16847
4036,16532
4351,16532
4351,16847
4036,16847
" /> 
<polyline style="fill-rule:evenodd;"
points="3662,17634
3662,17319
3977,17319
3977,17634
3662,17634
" /> 
<polyline style="fill-rule:evenodd;"
points="1319,16847
1319,16532
1634,16532
1634,16847
1319,16847
" /> 
<polyline style="fill-rule:evenodd;"
points="2068,16847
2068,16532
2383,16532
2383,16847
2068,16847
" /> 
<polyline style="fill-rule:evenodd;"
points="1693,17634
1693,17319
2008,17319
2008,17634
1693,17634
" /> 
<polyline style="fill-rule:evenodd;"
points="13655,16686
13655,17197
13064,17197
13064,16686
13655,16686
" /> 
<polyline style="fill-rule:evenodd;"
points="12592,16686
12592,17197
12001,17197
12001,16686
12592,16686
" /> 
<polyline style="fill-rule:evenodd;"
points="12505,17586
12505,18097
11914,18097
11914,17586
12505,17586
" /> 
<polyline style="fill-rule:evenodd;"
points="11442,17586
11442,18097
10851,18097
10851,17586
11442,17586
" /> 
<circle cx="17628.7" cy="17942" r="393.5" /> 
</g>
<g style="fill:#000000; fill-opacity:1.0; 
stroke:#000000; stroke-width:39.3701; stroke-opacity:1; 
stroke-linecap:round; stroke-linejoin:round;">
</g>
<g style="fill:#000000; fill-opacity:1.0; 
stroke:#000000; stroke-width:0; stroke-opacity:1; 
stroke-linecap:round; stroke-linejoin:round;">
<circle cx="14628.7" cy="17942" r="393.5" /> 
</g>
<g style="fill:#000000; fill-opacity:1.0; 
stroke:#000000; stroke-width:39.3701; stroke-opacity:1; 
stroke-linecap:round; stroke-linejoin:round;">
</g>
<g style="fill:#000000; fill-opacity:1.0; 
stroke:#000000; stroke-width:0; stroke-opacity:1; 
stroke-linecap:round; stroke-linejoin:round;">
<circle cx="17378.7" cy="16692" r="393.5" /> 
</g>
<g style="fill:#000000; fill-opacity:1.0; 
stroke:#000000; stroke-width:39.3701; stroke-opacity:1; 
stroke-linecap:round; stroke-linejoin:round;">
</g>
<g style="fill:#000000; fill-opacity:1.0; 
stroke:#000000; stroke-width:0; stroke-opacity:1; 
stroke-linecap:round; stroke-linejoin:round;">
<circle cx="14378.7" cy="16692" r="393.5" /> 
</g>
<g style="fill:#000000; fill-opacity:1.0; 
stroke:#000000; stroke-width:39.3701; stroke-opacity:1; 
stroke-linecap:round; stroke-linejoin:round;">
</g>
<g style="fill:#000000; fill-opacity:1.0; 
stroke:#000000; stroke-width:0; stroke-opacity:1; 
stroke-linecap:round; stroke-linejoin:round;">
<polyline style="fill-rule:evenodd;"
points="3583,11631
3583,11119
4174,11119
4174,11631
3583,11631
" /> 
<polyline style="fill-rule:evenodd;"
points="4646,11631
4646,11119
5237,11119
5237,11631
4646,11631
" /> 
<circle cx="6477.48" cy="16198" r="196.85" /> 
</g>
<g style="fill:#000000; fill-opacity:1.0; 
stroke:#000000; stroke-width:39.3701; stroke-opacity:1; 
stroke-linecap:round; stroke-linejoin:round;">
</g>
<g style="fill:#000000; fill-opacity:1.0; 
stroke:#000000; stroke-width:0; stroke-opacity:1; 
stroke-linecap:round; stroke-linejoin:round;">
<circle cx="6477.48" cy="14032.6" r="196.85" /> 
</g>
<g style="fill:#000000; fill-opacity:1.0; 
stroke:#000000; stroke-width:39.3701; stroke-opacity:1; 
stroke-linecap:round; stroke-linejoin:round;">
</g>
<g style="fill:#000000; fill-opacity:1.0; 
stroke:#000000; stroke-width:0; stroke-opacity:1; 
stroke-linecap:round; stroke-linejoin:round;">
<circle cx="1064.09" cy="14721.6" r="196.85" /> 
</g>
<g style="fill:#000000; fill-opacity:1.0; 
stroke:#000000; stroke-width:39.3701; stroke-opacity:1; 
stroke-linecap:round; stroke-linejoin:round;">
</g>
<g style="fill:#000000; fill-opacity:1.0; 
stroke:#000000; stroke-width:0; stroke-opacity:1; 
stroke-linecap:round; stroke-linejoin:round;">
<circle cx="18386.9" cy="14721.6" r="196.85" /> 
</g>
<g style="fill:#000000; fill-opacity:1.0; 
stroke:#000000; stroke-width:39.3701; stroke-opacity:1; 
stroke-linecap:round; stroke-linejoin:round;">
</g>
<g style="fill:#000000; fill-opacity:1.0; 
stroke:#000000; stroke-width:0; stroke-opacity:1; 
stroke-linecap:round; stroke-linejoin:round;">
<circle cx="18386.9" cy="15509" r="196.85" /> 
</g>
<g style="fill:#000000; fill-opacity:1.0; 
stroke:#000000; stroke-width:39.3701; stroke-opacity:1; 
stroke-linecap:round; stroke-linejoin:round;">
</g>
<g style="fill:#000000; fill-opacity:1.0; 
stroke:#000000; stroke-width:0; stroke-opacity:1; 
stroke-linecap:round; stroke-linejoin:round;">
<circle cx="1064.09" cy="15509" r="196.85" /> 
</g>
<g style="fill:#000000; fill-opacity:1.0; 
stroke:#000000; stroke-width:39.3701; stroke-opacity:1; 
stroke-linecap:round; stroke-linejoin:round;">
</g>
<g style="fill:#000000; fill-opacity:1.0; 
stroke:#000000; stroke-width:160; stroke-opacity:1; 
stroke-linecap:round; stroke-linejoin:round;">
</g>
<g style="fill:#000000; fill-opacity:0.0; 
stroke:#000000; stroke-width:160; stroke-opacity:1; 
stroke-linecap:round; stroke-linejoin:round;">
<path d="M3820 19150
L4115 19445
" />
<path d="M4115 19445
L5690 19445
" />
<path d="M5690 19445
L6477 18658
" />
<path d="M6477 18658
L6477 16197
" />
<path d="M3820 18658
L3820 19150
" />
<path d="M6928 13581
L6928 13234
" />
<path d="M6477 14032
L6928 13581
" />
<path d="M5678 12492
L5678 9122
" />
<path d="M13428 4743
L13428 5242
" />
<path d="M12973 4288
L13428 4743
" />
<path d="M10512 4288
L12973 4288
" />
<path d="M5678 9122
L10512 4288
" />
<path d="M2245 18658
L3820 18658
" />
<path d="M8528 13192
L8378 13192
" />
<path d="M6928 13234
L6420 13234
" />
<path d="M6420 13234
L5678 12492
" />
<path d="M8528 13192
L6970 13192
" />
<path d="M6970 13192
L6928 13234
" />
<path d="M8150 942
L3918 942
" />
<path d="M3918 942
L3721 745
" />
<path d="M4678 12492
L4678 12135
" />
<path d="M3032 9505
L2278 8751
" />
<path d="M4115 9505
L3032 9505
" />
<path d="M4410 9800
L4115 9505
" />
<path d="M4410 11867
L4410 9800
" />
<path d="M4678 12135
L4410 11867
" />
<path d="M5178 12492
L4678 12492
" />
<path d="M12928 1154
L12367 1154
" />
<path d="M768 4721
L1260 5213
" />
<path d="M768 1827
L768 4721
" />
<path d="M1851 745
L768 1827
" />
<path d="M3721 745
L1851 745
" />
<path d="M8741 1532
L8150 942
" />
<path d="M11989 1532
L8741 1532
" />
<path d="M12367 1154
L11989 1532
" />
<path d="M1260 5213
L1800 5213
" />
<path d="M1800 5213
L2278 5692
" />
<path d="M2278 8751
L2278 5692
" />
<path d="M7628 14460
L5410 14460
" />
<path d="M5178 14692
L5178 14992
" />
<path d="M5410 14460
L5178 14692
" />
<path d="M12297 16942
L10410 16942
" />
<path d="M10410 16942
L10228 17123
" />
<path d="M11147 17842
L10278 17842
" />
<path d="M10278 17842
L10228 17792
" />
<path d="M8628 15523
L8628 15460
" />
<path d="M8628 15460
L7628 14460
" />
<path d="M14155 14199
L13321 14199
" />
<path d="M9160 14992
L8628 15523
" />
<path d="M12528 14992
L9160 14992
" />
<path d="M13321 14199
L12528 14992
" />
<path d="M10228 18742
L10228 17792
" />
<path d="M10228 17792
L10228 17123
" />
<path d="M10228 17123
L8628 15523
" />
<path d="M15986 12368
L15986 12784
" />
<path d="M14928 13242
L14601 13569
" />
<path d="M15528 13242
L14928 13242
" />
<path d="M15986 12784
L15528 13242
" />
<path d="M15986 12368
L15986 11699
" />
<path d="M15528 11242
L15528 10742
" />
<path d="M15986 11699
L15528 11242
" />
<path d="M14155 14199
L14671 14199
" />
<path d="M14828 13742
L14656 13569
" />
<path d="M14656 13569
L14601 13569
" />
<path d="M14601 13569
L14155 13569
" />
<path d="M2928 14234
L4678 14234
" />
<path d="M4686 14242
L4678 14242
" />
<path d="M4678 14234
L4686 14242
" />
<path d="M4678 12492
L4678 14242
" />
<path d="M4678 14242
L4678 14992
" />
<path d="M5178 14992
L4678 14992
" />
<path d="M14328 1154
L12928 1154
" />
<path d="M17828 9773
L17660 9773
" />
<path d="M17660 9773
L17128 9242
" />
<path d="M17128 9242
L15328 9242
" />
<path d="M15328 9242
L15028 9542
" />
<path d="M15028 9542
L15028 10242
" />
<path d="M15028 10242
L15528 10742
" />
<path d="M14671 14199
L14828 14042
" />
<path d="M14828 14042
L14828 13742
" />
<path d="M12928 12049
L12928 11403
" />
<path d="M12928 11403
L13328 11003
" />
<path d="M14155 13254
L13641 13254
" />
<path d="M13528 12649
L12928 12049
" />
<path d="M13528 13142
L13528 12649
" />
<path d="M13641 13254
L13528 13142
" />
<path d="M13328 9081
L13328 8634
" />
<path d="M13328 8634
L12828 8134
" />
<path d="M14155 12939
L14155 9907
" />
<path d="M14155 9907
L13328 9081
" />
<path d="M16931 12368
L16931 11144
" />
<path d="M16931 11144
L16528 10742
" />
<path d="M16528 9742
L16628 9742
" />
<path d="M16628 9742
L17501 10615
" />
<path d="M17501 10615
L17501 12939
" />
<path d="M16616 12368
L16616 11729
" />
<path d="M16028 10242
L15528 9742
" />
<path d="M16028 11142
L16028 10242
" />
<path d="M16616 11729
L16028 11142
" />
<path d="M17378 18542
L18011 18542
" />
<path d="M15671 16834
L17378 18542
" />
<path d="M15671 15715
L15671 16834
" />
<path d="M18780 9662
L17828 8710
" />
<path d="M18780 17772
L18780 9662
" />
<path d="M18011 18542
L18780 17772
" />
<path d="M17828 8710
L16560 8710
" />
<path d="M16560 8710
L16528 8742
" />
<path d="M4312 4642
L4312 2516
" />
<path d="M12519 2320
L12928 2729
" />
<path d="M8347 2320
L12519 2320
" />
<path d="M7757 1729
L8347 2320
" />
<path d="M5099 1729
L7757 1729
" />
<path d="M4312 2516
L5099 1729
" />
<path d="M15797 3542
L15797 4542
" />
<path d="M15797 3542
L13741 3542
" />
<path d="M13741 3542
L12928 2729
" />
<path d="M15797 5542
L15828 5542
" />
<path d="M15828 5542
L16328 5042
" />
<path d="M16328 5042
L16328 2873
" />
<path d="M16328 2873
L15797 2342
" />
<path d="M3360 1342
L7928 1342
" />
<path d="M15397 1942
L15797 2342
" />
<path d="M8528 1942
L15397 1942
" />
<path d="M7928 1342
L8528 1942
" />
<path d="M14328 2729
L15409 2729
" />
<path d="M15409 2729
L15797 2342
" />
<path d="M10628 15523
L10810 15523
" />
<path d="M10810 15523
L11378 16092
" />
<path d="M11378 16092
L13207 16092
" />
<path d="M13207 16092
L14155 15144
" />
<path d="M14628 11092
L14628 6542
" />
<path d="M12428 5942
L12428 5242
" />
<path d="M12778 6292
L12428 5942
" />
<path d="M14378 6292
L12778 6292
" />
<path d="M14628 6542
L14378 6292
" />
<path d="M15356 12368
L15356 11819
" />
<path d="M15356 11819
L14628 11092
" />
<path d="M12428 5492
L12428 5242
" />
<path d="M1064 14721
L1477 14721
" />
<path d="M17501 14829
L18279 14829
" />
<path d="M18279 14829
L18386 14721
" />
<path d="M1477 14721
L3445 16689
" />
<path d="M1064 15508
L1064 16276
" />
<path d="M18022 15144
L18386 15508
" />
<path d="M17501 15144
L18022 15144
" />
<path d="M1064 16276
L1477 16689
" />
<path d="M17628 16692
L16628 16692
" />
<path d="M16301 16364
L16301 15715
" />
<path d="M16628 16692
L16301 16364
" />
<path d="M17628 17942
L17228 17942
" />
<path d="M15986 16699
L15986 15715
" />
<path d="M17228 17942
L15986 16699
" />
<path d="M17278 18842
L18203 18842
" />
<path d="M15356 16919
L17278 18842
" />
<path d="M15356 15715
L15356 16919
" />
<path d="M19075 7757
L16860 5542
" />
<path d="M19075 17969
L19075 7757
" />
<path d="M18203 18842
L19075 17969
" />
<path d="M17178 19192
L18345 19192
" />
<path d="M15041 17054
L17178 19192
" />
<path d="M15041 15715
L15041 17054
" />
<path d="M19371 7053
L16860 4542
" />
<path d="M19371 18166
L19371 7053
" />
<path d="M18345 19192
L19371 18166
" />
<path d="M14726 15715
L14055 15715
" />
<path d="M10497 16392
L9628 15523
" />
<path d="M13378 16392
L10497 16392
" />
<path d="M14055 15715
L13378 16392
" />
<path d="M9628 15523
L9628 15542
" />
<path d="M10528 13192
L10528 14360
" />
<path d="M10528 14360
L10628 14460
" />
<path d="M9528 13192
L9528 14360
" />
<path d="M9528 14360
L9628 14460
" />
<path d="M8628 14460
L9628 14460
" />
<path d="M18278 2442
L16960 2442
" />
<path d="M16960 2442
L16860 2342
" />
<path d="M18278 3442
L16960 3442
" />
<path d="M16960 3442
L16860 3542
" />
<path d="M3278 5692
L4298 5692
" />
<path d="M4298 5692
L4312 5705
" />
<path d="M4312 5705
L3328 5742
" />
<path d="M3328 5742
L3278 5692
" />
<path d="M2278 2692
L2278 1360
" />
<path d="M2278 1360
L2297 1342
" />
<path d="M7628 15523
L3047 15523
" />
<path d="M1316 9560
L1316 8692
" />
<path d="M1949 10194
L1316 9560
" />
<path d="M1949 14426
L1949 10194
" />
<path d="M3047 15523
L1949 14426
" />
<path d="M7628 15523
L7628 15792
" />
<path d="M1316 8692
L1316 8979
" />
<path d="M1260 4150
L1820 4150
" />
<path d="M1820 4150
L2278 3692
" />
<path d="M2247 3660
L2278 3692
" />
<path d="M3678 8692
L3628 8692
" />
<path d="M3628 8692
L2778 7842
" />
<path d="M2778 7842
L2778 5192
" />
<path d="M2778 5192
L2278 4692
" />
<path d="M14378 16692
L14378 16842
" />
<path d="M14378 16842
L15228 17692
" />
<path d="M15228 17692
L15228 18542
" />
<path d="M15228 18542
L14378 19392
" />
<path d="M14378 19392
L12878 19392
" />
<path d="M12878 19392
L12228 18742
" />
<path d="M12210 17842
L12210 18723
" />
<path d="M12210 18723
L12228 18742
" />
<path d="M13228 18742
L13828 18742
" />
<path d="M13828 18742
L14628 17942
" />
<path d="M13328 18642
L13228 18742
" />
<path d="M13228 18742
L13228 17073
" />
<path d="M13228 17073
L13360 16942
" />
<path d="M3820 17476
L4606 17476
" />
<path d="M4820 17690
L4820 18658
" />
<path d="M4606 17476
L4820 17690
" />
<path d="M1851 17476
L1458 17476
" />
<path d="M1245 17690
L1245 18658
" />
<path d="M1458 17476
L1245 17690
" />
</g>
<g style="fill:#000000; fill-opacity:1.0; 
stroke:#000000; stroke-width:100; stroke-opacity:1; 
stroke-linecap:round; stroke-linejoin:round;">
<polyline style="fill-rule:evenodd;"
points="19762,19640
14388,19640
14474,19623
14555,19568
15405,18718
15459,18637
15478,18542
15478,17845
17001,19368
17082,19423
17178,19442
18345,19442
18441,19423
18522,19368
19547,18343
19602,18262
19621,18166
19621,7053
19602,6957
19547,6876
17328,4657
17328,4583
17645,4583
17646,4589
17746,4797
17918,4950
18136,5026
18228,4969
18228,4492
18328,4492
18328,4969
18421,5026
18638,4950
18810,4797
18910,4589
18911,4583
18863,4492
18328,4492
18228,4492
17693,4492
17645,4583
17328,4583
17328,4286
17316,4223
17279,4165
17222,4126
17155,4112
16578,4112
16578,3971
17155,3971
17218,3959
17276,3922
17315,3865
17328,3797
17328,3692
17772,3692
17846,3802
17999,3904
17918,3933
17746,4086
17646,4294
17645,4300
17693,4392
18228,4392
18228,4384
18328,4384
18328,4392
18863,4392
18911,4300
18910,4294
18810,4086
18638,3933
18557,3904
18710,3802
18821,3637
18859,3442
18821,3246
18710,3081
18544,2970
18467,2955
18678,2955
18741,2943
18799,2906
18838,2849
18851,2782
18851,2102
18840,2039
18802,1981
18746,1942
18678,1928
17878,1928
17815,1940
17757,1977
17718,2034
17705,2102
17705,2192
17328,2192
17328,2086
17316,2023
17279,1965
17222,1926
17155,1912
16564,1912
16501,1924
16444,1961
16405,2018
16391,2086
16391,2582
16265,2457
16265,2086
16253,2023
16216,1965
16159,1926
16092,1912
15721,1912
15573,1765
15492,1711
15397,1692
14734,1692
14764,1672
14803,1615
14816,1548
14816,760
14805,697
14767,640
14711,601
14643,587
14013,587
13950,599
13892,636
13854,693
13840,760
13840,904
13416,904
13416,760
13405,697
13367,640
13311,601
13243,587
12613,587
12550,599
12492,636
12454,693
12440,760
12440,904
12367,904
12271,923
12190,977
11885,1282
8844,1282
8327,765
8246,711
8150,692
4021,692
3898,568
3817,514
3721,495
1851,495
1755,514
1674,568
592,1651
537,1732
518,1827
518,4721
537,4817
592,4898
831,5138
831,5508
843,5571
880,5629
937,5668
1005,5682
1516,5682
1579,5670
1637,5633
1676,5576
1690,5508
1690,5463
1696,5463
1786,5553
1758,5692
1797,5887
1908,6052
2028,6133
2028,8751
2047,8846
2101,8927
2855,9681
2936,9736
3032,9755
4011,9755
4160,9903
4160,10111
4106,9981
3964,9839
3779,9762
3578,9762
3393,9838
3251,9980
3174,10166
3173,10366
3250,10552
3392,10694
3577,10771
3778,10771
3964,10694
4106,10553
4160,10422
4160,10869
3991,10869
3929,10931
3929,11325
3936,11325
3936,11425
3929,11425
3929,11818
3991,11881
4163,11881
4179,11962
4233,12044
4248,12059
4228,12079
4228,12442
4236,12442
4236,12542
4228,12542
4228,12904
4291,12967
4328,12967
4420,12928
4428,12920
4428,13984
3348,13984
3348,13938
3336,13875
3298,13818
3250,13784
3316,13757
3386,13686
3424,13594
3424,13362
3362,13299
2978,13299
2978,13307
2878,13307
2878,13299
2495,13299
2432,13362
2432,13594
2470,13686
2540,13757
2607,13784
2561,13814
2522,13871
2509,13938
2509,14529
2521,14592
2558,14650
2615,14689
2682,14702
3174,14702
3237,14690
3295,14653
3334,14596
3348,14529
3348,14484
4428,14484
4428,14685
4428,14685
4402,14646
4346,14607
4278,14593
4078,14593
4015,14605
3957,14642
3918,14699
3905,14767
3905,15217
3915,15273
3150,15273
2199,14322
2199,12904
2432,12904
2432,13137
2495,13199
2878,13199
2878,12767
2978,12767
2978,13199
3362,13199
3424,13137
3424,12904
3386,12813
3316,12742
3224,12704
3041,12704
2978,12767
2878,12767
2816,12704
2632,12704
2540,12742
2470,12813
2432,12904
2199,12904
2199,12604
3828,12604
3828,12766
3866,12858
3937,12928
4028,12967
4066,12967
4128,12904
4128,12542
3891,12542
3828,12604
2199,12604
2199,12217
3828,12217
3828,12379
3891,12442
4128,12442
4128,12079
4066,12017
4028,12017
3937,12055
3866,12125
3828,12217
2199,12217
2199,11487
3333,11487
3333,11680
3371,11772
3442,11842
3534,11881
3766,11881
3829,11818
3829,11425
3396,11425
3333,11487
2199,11487
2199,11069
3333,11069
3333,11262
3396,11325
3829,11325
3829,10931
3766,10869
3534,10869
3442,10907
3371,10977
3333,11069
2199,11069
2199,10194
2199,10194
2180,10098
2126,10017
1566,9456
1566,9134
1601,9120
1744,8978
1821,8792
1821,8592
1744,8406
1602,8264
1417,8187
1216,8187
1030,8263
888,8405
811,8591
811,8791
888,8977
1030,9119
1066,9134
1066,9560
1085,9656
1139,9737
1179,9777
1030,9838
888,9980
811,10166
811,10366
888,10552
1030,10694
1215,10771
1416,10771
1601,10694
1699,10597
1699,14426
1718,14521
1773,14603
2870,15700
2951,15754
3047,15773
7199,15773
7199,15818
7211,15881
7248,15939
7305,15978
7372,15992
7486,15992
7532,16023
7628,16042
7724,16023
7770,15992
7884,15992
7947,15980
8005,15943
8044,15886
8057,15818
8057,15243
8199,15384
8199,15818
8211,15881
8248,15939
8305,15978
8372,15992
8743,15992
9978,17227
9978,18236
9868,18310
9757,18475
9741,18553
9741,18342
9730,18279
9692,18221
9636,18182
9568,18168
8888,18168
8825,18180
8767,18217
8728,18274
8715,18342
8715,19142
8727,19205
8764,19262
8821,19301
8888,19315
9568,19315
9631,19303
9689,19266
9728,19209
9741,19142
9741,18930
9757,19008
9868,19173
10033,19284
10228,19323
10423,19284
10589,19173
10691,19020
10720,19102
10873,19273
11081,19373
11087,19374
11178,19327
11178,18792
11170,18792
11170,18692
11178,18692
11178,18684
11278,18684
11278,18692
11286,18692
11286,18792
11278,18792
11278,19327
11370,19374
11376,19373
11583,19273
11737,19102
11765,19020
11868,19173
12033,19284
12228,19323
12418,19285
12701,19568
12782,19623
12869,19640
5840,19640
5866,19622
6654,18835
6708,18754
6727,18658
6727,16466
6788,16406
6844,16271
6844,16125
6788,15990
6685,15887
6550,15831
6404,15831
6269,15886
6166,15989
6110,16124
6110,16270
6166,16405
6227,16466
6227,18555
5586,19195
5038,19195
5223,19072
5346,18887
5390,18669
5390,18647
5346,18429
5223,18244
5070,18142
5070,17690
5070,17690
5050,17594
4996,17513
4783,17300
4702,17245
4606,17226
4119,17226
4101,17198
4044,17159
3977,17145
3662,17145
3599,17157
3541,17195
3502,17251
3489,17319
3489,17634
3501,17697
3538,17755
3595,17793
3662,17807
3977,17807
4040,17795
4098,17758
4120,17726
4503,17726
4570,17793
4570,18142
4416,18244
4393,18279
4393,18258
4381,18195
4344,18137
4287,18098
4220,18085
3420,18085
3357,18097
3299,18134
3260,18191
3246,18258
3246,18408
2818,18408
2818,18258
2806,18195
2769,18137
2712,18098
2645,18085
1845,18085
1782,18097
1724,18134
1685,18191
1671,18258
1671,18279
1648,18244
1495,18142
1495,17793
1555,17733
1569,17755
1626,17793
1693,17807
2008,17807
2071,17795
2129,17758
2168,17701
2182,17634
2182,17319
2170,17256
2133,17198
2076,17159
2008,17145
1693,17145
1630,17157
1573,17195
1551,17226
1458,17226
1458,17226
1362,17245
1281,17300
1068,17513
1014,17594
995,17690
995,18142
842,18244
718,18429
675,18647
675,18669
718,18887
842,19072
1027,19196
1245,19239
1463,19196
1648,19072
1671,19037
1671,19058
1683,19121
1720,19179
1777,19218
1845,19231
2645,19231
2708,19220
2766,19182
2804,19126
2818,19058
2818,18908
3246,18908
3246,19058
3258,19121
3295,19179
3352,19218
3420,19231
3586,19231
3589,19246
3643,19327
3938,19622
3964,19640
476,19640
476,15581
697,15581
752,15716
814,15777
814,16276
833,16372
887,16453
1146,16712
1146,16847
1158,16910
1195,16968
1252,17006
1319,17020
1634,17020
1697,17008
1755,16971
1794,16914
1808,16847
1808,16802
1818,16802
1818,16897
1856,16988
1926,17059
2018,17097
2113,17097
2175,17034
2175,16739
2275,16739
2275,17034
2338,17097
2432,17097
2524,17059
2594,16988
2633,16897
2633,16802
2570,16739
2275,16739
2175,16739
1880,16739
1818,16802
1808,16802
1808,16532
1798,16482
1818,16482
1818,16577
1880,16639
2175,16639
2175,16344
2275,16344
2275,16639
2570,16639
2633,16577
2633,16482
2594,16390
2524,16320
2432,16282
2338,16282
2275,16344
2175,16344
2113,16282
2018,16282
1926,16320
1856,16390
1818,16482
1798,16482
1796,16469
1759,16411
1702,16372
1634,16358
1500,16358
1314,16172
1314,15777
1374,15717
1430,15582
1431,15436
1375,15301
1272,15198
1137,15142
991,15142
856,15197
753,15300
697,15435
697,15581
476,15581
476,14794
697,14794
752,14929
856,15032
990,15088
1136,15088
1271,15032
1332,14971
1374,14971
3115,16712
3115,16847
3127,16910
3164,16968
3221,17006
3288,17020
3603,17020
3666,17008
3724,16971
3763,16914
3776,16847
3776,16802
3786,16802
3786,16897
3824,16988
3894,17059
3986,17097
4081,17097
4144,17034
4144,16739
4244,16739
4244,17034
4306,17097
4401,17097
4493,17059
4563,16988
4601,16897
4601,16802
4539,16739
4244,16739
4144,16739
3849,16739
3786,16802
3776,16802
3776,16532
3767,16482
3786,16482
3786,16577
3849,16639
4144,16639
4144,16344
4244,16344
4244,16639
4539,16639
4601,16577
4601,16482
4563,16390
4493,16320
4401,16282
4306,16282
4244,16344
4144,16344
4081,16282
3986,16282
3894,16320
3824,16390
3786,16482
3767,16482
3764,16469
3727,16411
3670,16372
3603,16358
3468,16358
1654,14544
1573,14490
1477,14471
1332,14471
1272,14410
1137,14354
991,14354
856,14410
753,14513
697,14648
697,14794
476,14794
476,354
19762,354
19762,19640
" /> 
<polyline style="fill-rule:evenodd;"
points="16822,12857
17013,12857
17013,13047
17023,13098
17013,13146
17013,13362
17023,13413
17013,13461
17013,13677
17023,13728
17013,13776
17013,13992
17023,14043
17013,14091
17013,14307
17023,14358
17013,14406
17013,14622
17023,14673
17013,14721
17013,14937
17023,14988
17013,15036
17013,15226
16822,15226
16771,15236
16724,15226
16507,15226
16456,15236
16409,15226
16192,15226
16141,15236
16094,15226
15877,15226
15826,15236
15779,15226
15562,15226
15511,15236
15464,15226
15247,15226
15196,15236
15149,15226
14932,15226
14881,15236
14834,15226
14643,15226
14643,15036
14634,14985
14643,14937
14643,14802
14682,14764
14720,14672
14720,14626
14657,14564
14542,14564
14537,14561
14470,14547
13840,14547
13777,14559
13770,14564
13652,14564
13590,14626
13590,14672
13628,14764
13667,14802
13667,14937
13676,14988
13667,15036
13667,15252
13671,15274
13104,15842
12234,15842
12234,15636
12172,15573
11778,15573
11778,15581
11678,15581
11678,15573
11285,15573
11249,15609
11057,15417
11057,15242
11222,15242
11222,15411
11285,15473
11678,15473
11678,15465
11778,15465
11778,15473
12172,15473
12234,15411
12234,15242
12528,15242
12624,15223
12705,15168
13424,14449
13638,14449
13652,14464
13768,14464
13773,14467
13840,14481
14470,14481
14533,14469
14540,14464
14657,14464
14673,14449
14766,14430
14847,14376
15005,14218
15059,14137
15078,14042
15078,13742
15078,13742
15059,13646
15026,13596
15005,13565
15005,13565
14982,13542
15032,13492
15528,13492
15624,13473
15705,13418
16162,12961
16217,12880
16221,12857
16409,12857
16460,12847
16507,12857
16724,12857
16775,12847
16822,12857
" /> 
<polyline style="fill-rule:evenodd;"
points="13112,4780
13068,4810
12957,4975
12941,5053
12941,4842
12930,4779
12892,4721
12836,4682
12768,4668
12088,4668
12025,4680
11967,4717
11928,4774
11915,4842
11915,5642
11927,5705
11964,5762
12021,5801
12088,5815
12178,5815
12178,5942
12197,6037
12251,6118
12601,6468
12682,6523
12778,6542
14275,6542
14378,6645
14378,6836
14209,6836
14147,6898
14147,7292
14155,7292
14155,7392
14147,7392
14147,7785
14209,7847
14378,7847
14378,9800
14352,9762
14332,9731
14332,9731
13788,9187
13794,9174
13794,8988
13723,8817
13592,8686
13578,8680
13578,8634
13559,8538
13505,8457
13248,8200
13248,7838
13236,7775
13198,7718
13150,7684
13216,7657
13286,7586
13324,7494
13324,7454
13551,7454
13551,7647
13589,7739
13660,7809
13752,7847
13984,7847
14047,7785
14047,7392
13614,7392
13551,7454
13324,7454
13324,7262
13262,7199
12878,7199
12878,7207
12778,7207
12778,7199
12395,7199
12332,7262
12332,7494
12370,7586
12440,7657
12507,7684
12461,7714
12422,7771
12409,7838
12409,8429
12421,8492
12458,8550
12515,8589
12582,8602
12943,8602
13046,8705
12934,8817
12863,8988
12863,9173
12933,9344
13064,9475
13235,9546
13420,9546
13434,9540
13905,10011
13905,12658
13840,12658
13778,12669
13778,12649
13759,12554
13759,12554
13718,12492
13705,12473
13705,12473
13348,12115
13348,11754
13336,11691
13298,11633
13242,11594
13178,11582
13178,11506
13222,11462
13235,11468
13420,11468
13592,11397
13723,11267
13794,11096
13794,10910
13723,10739
13592,10608
13421,10537
13236,10537
13065,10608
12934,10739
12863,10910
12863,11095
12868,11109
12751,11226
12697,11307
12678,11403
12678,11582
12619,11593
12561,11630
12522,11687
12509,11754
12509,12345
12521,12408
12558,12466
12607,12499
12540,12526
12470,12597
12432,12689
12432,12921
12495,12984
12878,12984
12878,12976
12978,12976
12978,12984
12986,12984
12986,13084
12978,13084
12978,13516
13041,13579
13224,13579
13316,13541
13386,13471
13421,13388
13464,13431
13545,13485
13641,13504
13667,13504
13667,13596
13628,13634
13590,13726
13590,13772
13652,13834
13768,13834
13773,13837
13840,13851
14213,13851
14213,13917
13840,13917
13777,13929
13770,13934
13652,13934
13638,13949
13321,13949
13225,13968
13144,14022
12425,14742
12234,14742
12234,14573
12172,14510
11778,14510
11778,14518
11678,14518
11678,14510
11285,14510
11222,14573
11222,14742
11057,14742
11057,14165
11048,14115
11222,14115
11222,14348
11285,14410
11678,14410
11678,13977
11778,13977
11778,14410
12172,14410
12234,14348
12234,14115
12196,14023
12126,13953
12034,13915
11841,13915
11778,13977
11678,13977
11616,13915
11423,13915
11331,13953
11260,14023
11222,14115
11048,14115
11046,14102
11008,14044
10952,14005
10884,13991
10778,13991
10778,13697
10889,13623
10938,13549
10938,13641
10976,13733
11047,13803
11138,13842
11416,13842
11478,13779
11478,13242
11578,13242
11578,13779
11641,13842
11918,13842
12010,13803
12080,13733
12118,13641
12118,13304
12056,13242
11578,13242
11478,13242
11470,13242
11470,13146
12432,13146
12432,13379
12470,13471
12540,13541
12632,13579
12816,13579
12878,13516
12878,13084
12495,13084
12432,13146
11470,13146
11470,13142
11478,13142
11478,12604
11578,12604
11578,13142
12056,13142
12118,13079
12118,12742
12080,12650
12010,12580
11918,12542
11641,12542
11578,12604
11478,12604
11416,12542
11138,12542
11047,12580
10976,12650
10938,12742
10938,12834
10889,12760
10723,12649
10528,12610
10333,12649
10168,12760
10057,12925
10028,13070
9999,12925
9889,12760
9723,12649
9528,12610
9333,12649
9168,12760
9057,12925
9028,13070
8999,12925
8889,12760
8723,12649
8528,12610
8333,12649
8168,12760
8057,12925
8054,12942
7348,12942
7348,12938
7336,12875
7298,12818
7250,12784
7316,12757
7386,12686
7424,12594
7424,12362
7362,12299
6978,12299
6978,12307
6878,12307
6878,12299
6495,12299
6432,12362
6432,12594
6470,12686
6540,12757
6607,12784
6561,12814
6522,12871
6509,12938
6509,12969
5951,12411
5951,12267
5940,12204
5928,12186
5928,11904
6432,11904
6432,12137
6495,12199
6878,12199
6878,11767
6978,11767
6978,12199
7362,12199
7424,12137
7424,11904
7386,11813
7316,11742
7224,11704
7041,11704
6978,11767
6878,11767
6816,11704
6632,11704
6540,11742
6470,11813
6432,11904
5928,11904
5928,9226
7126,8028
7951,8028
7951,11965
7966,12042
8009,12106
8074,12150
8150,12165
12087,12165
12164,12150
12228,12106
12272,12042
12287,11965
12287,8028
12272,7952
12228,7887
12164,7844
12087,7829
8150,7829
8074,7844
8009,7887
7966,7952
7951,8028
7126,8028
8350,6804
12332,6804
12332,7037
12395,7099
12778,7099
12778,6667
12878,6667
12878,7099
13262,7099
13324,7037
13324,7036
13551,7036
13551,7229
13614,7292
14047,7292
14047,6898
13984,6836
13752,6836
13660,6874
13589,6944
13551,7036
13324,7036
13324,6804
13286,6713
13216,6642
13124,6604
12941,6604
12878,6667
12778,6667
12716,6604
12532,6604
12440,6642
12370,6713
12332,6804
8350,6804
10616,4538
12869,4538
13112,4780
" /> 
<polyline style="fill-rule:evenodd;"
points="2905,1018
2891,1086
2891,1597
2903,1660
2940,1718
2997,1757
3064,1771
3655,1771
3718,1759
3776,1722
3815,1665
3828,1597
3828,1592
4883,1592
4135,2340
4081,2421
4062,2516
4062,4174
4056,4174
3993,4186
3935,4223
3896,4280
3882,4347
3882,4938
3894,5001
3931,5058
3988,5097
4056,5111
4568,5111
4631,5099
4688,5062
4727,5005
4741,4938
4741,4347
4729,4284
4692,4226
4635,4187
4568,4174
4562,4174
4562,3823
5854,3823
5854,5226
7690,5226
7690,3823
5854,3823
4562,3823
4562,2620
5203,1979
7653,1979
8170,2496
8251,2550
8347,2570
12415,2570
12440,2594
12440,3123
12452,3186
12489,3244
12546,3282
12613,3296
13142,3296
13564,3718
13645,3773
13741,3792
15328,3792
15328,3797
15340,3860
15377,3918
15434,3957
15501,3971
15547,3971
15547,4112
15501,4112
15438,4124
15381,4161
15342,4218
15328,4286
15328,4797
15340,4860
15377,4918
15434,4957
15501,4971
16045,4971
15904,5112
15501,5112
15438,5124
15381,5161
15342,5218
15328,5286
15328,5797
15340,5860
15377,5918
15434,5957
15501,5971
16092,5971
16155,5959
16213,5922
16252,5865
16265,5797
16265,5458
16391,5332
16391,5797
16403,5860
16440,5918
16497,5957
16564,5971
16935,5971
18825,7861
18825,9354
18257,8786
18257,8415
18246,8352
18208,8294
18152,8255
18084,8241
17572,8241
17509,8253
17451,8291
17413,8347
17399,8415
17399,8460
16952,8460
16899,8381
16733,8270
16538,8232
16518,8232
16323,8270
16158,8381
16067,8517
16033,8436
15878,8266
15670,8169
15578,8216
15578,8692
15586,8692
15586,8792
15578,8792
15578,8799
15478,8799
15478,8792
15003,8792
14955,8883
15023,9047
15093,9123
14878,9338
14878,8600
14955,8600
15003,8692
15478,8692
15478,8216
15387,8169
15178,8266
15023,8436
14955,8600
14878,8600
14878,7847
15047,7847
15110,7785
15110,7392
15210,7392
15210,7785
15272,7847
15505,7847
15597,7809
15667,7739
15705,7647
15705,7454
15642,7392
15210,7392
15110,7392
15102,7392
15102,7292
15110,7292
15110,6898
15210,6898
15210,7292
15642,7292
15705,7229
15705,7036
15667,6944
15597,6874
15505,6836
15272,6836
15210,6898
15110,6898
15047,6836
14878,6836
14878,6542
14878,6542
14859,6446
14805,6365
14555,6115
14474,6061
14378,6042
12882,6042
12678,5838
12678,5815
12768,5815
12831,5803
12889,5766
12928,5709
12941,5642
12941,5430
12957,5508
13068,5673
13233,5784
13428,5823
13623,5784
13789,5673
13891,5520
13920,5602
14073,5773
14281,5873
14287,5874
14378,5827
14378,5292
14478,5292
14478,5827
14570,5874
14576,5873
14783,5773
14937,5602
15013,5384
14956,5292
14478,5292
14378,5292
14370,5292
14370,5192
14378,5192
14378,4656
14478,4656
14478,5192
14956,5192
15013,5099
14937,4882
14783,4710
14576,4610
14570,4609
14478,4656
14378,4656
14287,4609
14281,4610
14073,4710
13920,4882
13891,4963
13789,4810
13676,4735
13659,4647
13605,4566
13150,4111
13069,4057
12973,4038
10512,4038
10417,4057
10336,4111
5501,8945
5447,9027
5428,9122
5428,10956
5378,10907
5287,10869
5054,10869
4992,10931
4992,11325
4999,11325
4999,11425
4992,11425
4992,11818
5054,11881
5287,11881
5378,11842
5428,11793
5428,12185
5428,12185
5402,12146
5346,12107
5278,12093
5078,12093
5015,12105
4957,12142
4928,12185
4928,12135
4921,12098
4909,12039
4887,12007
4855,11958
4855,11958
4777,11881
4829,11881
4892,11818
4892,11425
4884,11425
4884,11325
4892,11325
4892,10931
4829,10869
4660,10869
4660,9800
4641,9704
4587,9623
4292,9328
4210,9274
4115,9255
3136,9255
2528,8647
2528,7842
2547,7937
2601,8018
3174,8591
3174,8591
3173,8791
3250,8977
3392,9119
3577,9196
3778,9196
3964,9120
4106,8978
4183,8792
4183,8592
4106,8406
3964,8264
3779,8187
3578,8187
3507,8216
3028,7738
3028,6133
3073,6163
3268,6202
3288,6202
3483,6163
3649,6052
3698,5978
3882,5971
3882,6001
3894,6064
3931,6121
3988,6160
4056,6174
4568,6174
4631,6162
4688,6125
4727,6068
4741,6001
4741,5410
4729,5347
4692,5289
4635,5250
4568,5237
4056,5237
3993,5249
3935,5286
3896,5343
3882,5410
3882,5442
3723,5442
3649,5331
3483,5220
3338,5192
3483,5163
3649,5052
3759,4887
3798,4692
3759,4496
3649,4331
3483,4220
3338,4192
3483,4163
3649,4052
3759,3887
3798,3692
3759,3496
3649,3331
3496,3229
3628,3167
3783,2997
3851,2833
3803,2742
3328,2742
3328,2749
3228,2749
3228,2742
3220,2742
3220,2642
3228,2642
3228,2166
3328,2166
3328,2642
3803,2642
3851,2550
3783,2386
3628,2216
3420,2119
3328,2166
3228,2166
3137,2119
2928,2216
2791,2366
2791,2352
2780,2289
2742,2231
2686,2192
2618,2178
2528,2178
2528,1771
2592,1771
2655,1759
2713,1722
2752,1665
2765,1597
2765,1086
2753,1023
2735,995
2921,995
2905,1018
" /> 
</g>
<g style="fill:#FFFFFF; fill-opacity:1.0; 
stroke:#FFFFFF; stroke-width:100; stroke-opacity:1; 
stroke-linecap:round; stroke-linejoin:round;">
</g>
<g style="fill:#FFFFFF; fill-opacity:1.0; 
stroke:#FFFFFF; stroke-width:0; stroke-opacity:1; 
stroke-linecap:round; stroke-linejoin:round;">
<circle cx="6477.48" cy="16198" r="75" /> 
</g>
<g style="fill:#FFFFFF; fill-opacity:1.0; 
stroke:#FFFFFF; stroke-width:39.3701; stroke-opacity:1; 
stroke-linecap:round; stroke-linejoin:round;">
</g>
<g style="fill:#FFFFFF; fill-opacity:1.0; 
stroke:#FFFFFF; stroke-width:0; stroke-opacity:1; 
stroke-linecap:round; stroke-linejoin:round;">
<circle cx="6477.48" cy="14032.6" r="75" /> 
</g>
<g style="fill:#FFFFFF; fill-opacity:1.0; 
stroke:#FFFFFF; stroke-width:39.3701; stroke-opacity:1; 
stroke-linecap:round; stroke-linejoin:round;">
</g>
<g style="fill:#FFFFFF; fill-opacity:1.0; 
stroke:#FFFFFF; stroke-width:0; stroke-opacity:1; 
stroke-linecap:round; stroke-linejoin:round;">
<circle cx="1064.09" cy="14721.6" r="75" /> 
</g>
<g style="fill:#FFFFFF; fill-opacity:1.0; 
stroke:#FFFFFF; stroke-width:39.3701; stroke-opacity:1; 
stroke-linecap:round; stroke-linejoin:round;">
</g>
<g style="fill:#FFFFFF; fill-opacity:1.0; 
stroke:#FFFFFF; stroke-width:0; stroke-opacity:1; 
stroke-linecap:round; stroke-linejoin:round;">
<circle cx="18386.9" cy="14721.6" r="75" /> 
</g>
<g style="fill:#FFFFFF; fill-opacity:1.0; 
stroke:#FFFFFF; stroke-width:39.3701; stroke-opacity:1; 
stroke-linecap:round; stroke-linejoin:round;">
</g>
<g style="fill:#FFFFFF; fill-opacity:1.0; 
stroke:#FFFFFF; stroke-width:0; stroke-opacity:1; 
stroke-linecap:round; stroke-linejoin:round;">
<circle cx="18386.9" cy="15509" r="75" /> 
</g>
<g style="fill:#FFFFFF; fill-opacity:1.0; 
stroke:#FFFFFF; stroke-width:39.3701; stroke-opacity:1; 
stroke-linecap:round; stroke-linejoin:round;">
</g>
<g style="fill:#FFFFFF; fill-opacity:1.0; 
stroke:#FFFFFF; stroke-width:0; stroke-opacity:1; 
stroke-linecap:round; stroke-linejoin:round;">
<circle cx="1064.09" cy="15509" r="75" /> 
</g>
<g style="fill:#FFFFFF; fill-opacity:1.0; 
stroke:#FFFFFF; stroke-width:39.3701; stroke-opacity:1; 
stroke-linecap:round; stroke-linejoin:round;">
</g>
<g style="fill:#FFFFFF; fill-opacity:1.0; 
stroke:#FFFFFF; stroke-width:0; stroke-opacity:1; 
stroke-linecap:round; stroke-linejoin:round;">
<circle cx="13328.7" cy="11003" r="157.5" /> 
</g>
<g style="fill:#FFFFFF; fill-opacity:1.0; 
stroke:#FFFFFF; stroke-width:39.3701; stroke-opacity:1; 
stroke-linecap:round; stroke-linejoin:round;">
</g>
<g style="fill:#FFFFFF; fill-opacity:1.0; 
stroke:#FFFFFF; stroke-width:0; stroke-opacity:1; 
stroke-linecap:round; stroke-linejoin:round;">
<circle cx="13328.7" cy="9081.05" r="157.5" /> 
</g>
<g style="fill:#FFFFFF; fill-opacity:1.0; 
stroke:#FFFFFF; stroke-width:39.3701; stroke-opacity:1; 
stroke-linecap:round; stroke-linejoin:round;">
</g>
<g style="fill:#FFFFFF; fill-opacity:1.0; 
stroke:#FFFFFF; stroke-width:0; stroke-opacity:1; 
stroke-linecap:round; stroke-linejoin:round;">
<circle cx="11528.7" cy="13192" r="200" /> 
</g>
<g style="fill:#FFFFFF; fill-opacity:1.0; 
stroke:#FFFFFF; stroke-width:39.3701; stroke-opacity:1; 
stroke-linecap:round; stroke-linejoin:round;">
</g>
<g style="fill:#FFFFFF; fill-opacity:1.0; 
stroke:#FFFFFF; stroke-width:0; stroke-opacity:1; 
stroke-linecap:round; stroke-linejoin:round;">
<circle cx="10528.7" cy="13192" r="200" /> 
</g>
<g style="fill:#FFFFFF; fill-opacity:1.0; 
stroke:#FFFFFF; stroke-width:39.3701; stroke-opacity:1; 
stroke-linecap:round; stroke-linejoin:round;">
</g>
<g style="fill:#FFFFFF; fill-opacity:1.0; 
stroke:#FFFFFF; stroke-width:0; stroke-opacity:1; 
stroke-linecap:round; stroke-linejoin:round;">
<circle cx="9528.66" cy="13192" r="200" /> 
</g>
<g style="fill:#FFFFFF; fill-opacity:1.0; 
stroke:#FFFFFF; stroke-width:39.3701; stroke-opacity:1; 
stroke-linecap:round; stroke-linejoin:round;">
</g>
<g style="fill:#FFFFFF; fill-opacity:1.0; 
stroke:#FFFFFF; stroke-width:0; stroke-opacity:1; 
stroke-linecap:round; stroke-linejoin:round;">
<circle cx="8528.66" cy="13192" r="200" /> 
</g>
<g style="fill:#FFFFFF; fill-opacity:1.0; 
stroke:#FFFFFF; stroke-width:39.3701; stroke-opacity:1; 
stroke-linecap:round; stroke-linejoin:round;">
</g>
<g style="fill:#FFFFFF; fill-opacity:1.0; 
stroke:#FFFFFF; stroke-width:0; stroke-opacity:1; 
stroke-linecap:round; stroke-linejoin:round;">
<circle cx="12428.7" cy="5242.05" r="200" /> 
</g>
<g style="fill:#FFFFFF; fill-opacity:1.0; 
stroke:#FFFFFF; stroke-width:39.3701; stroke-opacity:1; 
stroke-linecap:round; stroke-linejoin:round;">
</g>
<g style="fill:#FFFFFF; fill-opacity:1.0; 
stroke:#FFFFFF; stroke-width:0; stroke-opacity:1; 
stroke-linecap:round; stroke-linejoin:round;">
<circle cx="13428.7" cy="5242.05" r="200" /> 
</g>
<g style="fill:#FFFFFF; fill-opacity:1.0; 
stroke:#FFFFFF; stroke-width:39.3701; stroke-opacity:1; 
stroke-linecap:round; stroke-linejoin:round;">
</g>
<g style="fill:#FFFFFF; fill-opacity:1.0; 
stroke:#FFFFFF; stroke-width:0; stroke-opacity:1; 
stroke-linecap:round; stroke-linejoin:round;">
<circle cx="14428.7" cy="5242.05" r="200" /> 
</g>
<g style="fill:#FFFFFF; fill-opacity:1.0; 
stroke:#FFFFFF; stroke-width:39.3701; stroke-opacity:1; 
stroke-linecap:round; stroke-linejoin:round;">
</g>
<g style="fill:#FFFFFF; fill-opacity:1.0; 
stroke:#FFFFFF; stroke-width:0; stroke-opacity:1; 
stroke-linecap:round; stroke-linejoin:round;">
<circle cx="18278.7" cy="2442.05" r="200" /> 
</g>
<g style="fill:#FFFFFF; fill-opacity:1.0; 
stroke:#FFFFFF; stroke-width:39.3701; stroke-opacity:1; 
stroke-linecap:round; stroke-linejoin:round;">
</g>
<g style="fill:#FFFFFF; fill-opacity:1.0; 
stroke:#FFFFFF; stroke-width:0; stroke-opacity:1; 
stroke-linecap:round; stroke-linejoin:round;">
<circle cx="18278.7" cy="3442.05" r="200" /> 
</g>
<g style="fill:#FFFFFF; fill-opacity:1.0; 
stroke:#FFFFFF; stroke-width:39.3701; stroke-opacity:1; 
stroke-linecap:round; stroke-linejoin:round;">
</g>
<g style="fill:#FFFFFF; fill-opacity:1.0; 
stroke:#FFFFFF; stroke-width:0; stroke-opacity:1; 
stroke-linecap:round; stroke-linejoin:round;">
<circle cx="18278.7" cy="4442.05" r="200" /> 
</g>
<g style="fill:#FFFFFF; fill-opacity:1.0; 
stroke:#FFFFFF; stroke-width:39.3701; stroke-opacity:1; 
stroke-linecap:round; stroke-linejoin:round;">
</g>
<g style="fill:#FFFFFF; fill-opacity:1.0; 
stroke:#FFFFFF; stroke-width:0; stroke-opacity:1; 
stroke-linecap:round; stroke-linejoin:round;">
<circle cx="2278.66" cy="2692.05" r="200" /> 
</g>
<g style="fill:#FFFFFF; fill-opacity:1.0; 
stroke:#FFFFFF; stroke-width:39.3701; stroke-opacity:1; 
stroke-linecap:round; stroke-linejoin:round;">
</g>
<g style="fill:#FFFFFF; fill-opacity:1.0; 
stroke:#FFFFFF; stroke-width:0; stroke-opacity:1; 
stroke-linecap:round; stroke-linejoin:round;">
<circle cx="3278.66" cy="2692.05" r="200" /> 
</g>
<g style="fill:#FFFFFF; fill-opacity:1.0; 
stroke:#FFFFFF; stroke-width:39.3701; stroke-opacity:1; 
stroke-linecap:round; stroke-linejoin:round;">
</g>
<g style="fill:#FFFFFF; fill-opacity:1.0; 
stroke:#FFFFFF; stroke-width:0; stroke-opacity:1; 
stroke-linecap:round; stroke-linejoin:round;">
<circle cx="2278.66" cy="3692.05" r="200" /> 
</g>
<g style="fill:#FFFFFF; fill-opacity:1.0; 
stroke:#FFFFFF; stroke-width:39.3701; stroke-opacity:1; 
stroke-linecap:round; stroke-linejoin:round;">
</g>
<g style="fill:#FFFFFF; fill-opacity:1.0; 
stroke:#FFFFFF; stroke-width:0; stroke-opacity:1; 
stroke-linecap:round; stroke-linejoin:round;">
<circle cx="3278.66" cy="3692.05" r="200" /> 
</g>
<g style="fill:#FFFFFF; fill-opacity:1.0; 
stroke:#FFFFFF; stroke-width:39.3701; stroke-opacity:1; 
stroke-linecap:round; stroke-linejoin:round;">
</g>
<g style="fill:#FFFFFF; fill-opacity:1.0; 
stroke:#FFFFFF; stroke-width:0; stroke-opacity:1; 
stroke-linecap:round; stroke-linejoin:round;">
<circle cx="2278.66" cy="4692.05" r="200" /> 
</g>
<g style="fill:#FFFFFF; fill-opacity:1.0; 
stroke:#FFFFFF; stroke-width:39.3701; stroke-opacity:1; 
stroke-linecap:round; stroke-linejoin:round;">
</g>
<g style="fill:#FFFFFF; fill-opacity:1.0; 
stroke:#FFFFFF; stroke-width:0; stroke-opacity:1; 
stroke-linecap:round; stroke-linejoin:round;">
<circle cx="3278.66" cy="4692.05" r="200" /> 
</g>
<g style="fill:#FFFFFF; fill-opacity:1.0; 
stroke:#FFFFFF; stroke-width:39.3701; stroke-opacity:1; 
stroke-linecap:round; stroke-linejoin:round;">
</g>
<g style="fill:#FFFFFF; fill-opacity:1.0; 
stroke:#FFFFFF; stroke-width:0; stroke-opacity:1; 
stroke-linecap:round; stroke-linejoin:round;">
<circle cx="2278.66" cy="5692.05" r="200" /> 
</g>
<g style="fill:#FFFFFF; fill-opacity:1.0; 
stroke:#FFFFFF; stroke-width:39.3701; stroke-opacity:1; 
stroke-linecap:round; stroke-linejoin:round;">
</g>
<g style="fill:#FFFFFF; fill-opacity:1.0; 
stroke:#FFFFFF; stroke-width:0; stroke-opacity:1; 
stroke-linecap:round; stroke-linejoin:round;">
<circle cx="3278.66" cy="5692.05" r="200" /> 
</g>
<g style="fill:#FFFFFF; fill-opacity:1.0; 
stroke:#FFFFFF; stroke-width:39.3701; stroke-opacity:1; 
stroke-linecap:round; stroke-linejoin:round;">
</g>
<g style="fill:#FFFFFF; fill-opacity:1.0; 
stroke:#FFFFFF; stroke-width:0; stroke-opacity:1; 
stroke-linecap:round; stroke-linejoin:round;">
<circle cx="1316.46" cy="10266.9" r="196.85" /> 
</g>
<g style="fill:#FFFFFF; fill-opacity:1.0; 
stroke:#FFFFFF; stroke-width:39.3701; stroke-opacity:1; 
stroke-linecap:round; stroke-linejoin:round;">
</g>
<g style="fill:#FFFFFF; fill-opacity:1.0; 
stroke:#FFFFFF; stroke-width:0; stroke-opacity:1; 
stroke-linecap:round; stroke-linejoin:round;">
<circle cx="3678.66" cy="10266.9" r="196.85" /> 
</g>
<g style="fill:#FFFFFF; fill-opacity:1.0; 
stroke:#FFFFFF; stroke-width:39.3701; stroke-opacity:1; 
stroke-linecap:round; stroke-linejoin:round;">
</g>
<g style="fill:#FFFFFF; fill-opacity:1.0; 
stroke:#FFFFFF; stroke-width:0; stroke-opacity:1; 
stroke-linecap:round; stroke-linejoin:round;">
<circle cx="1316.46" cy="8692.05" r="196.85" /> 
</g>
<g style="fill:#FFFFFF; fill-opacity:1.0; 
stroke:#FFFFFF; stroke-width:39.3701; stroke-opacity:1; 
stroke-linecap:round; stroke-linejoin:round;">
</g>
<g style="fill:#FFFFFF; fill-opacity:1.0; 
stroke:#FFFFFF; stroke-width:0; stroke-opacity:1; 
stroke-linecap:round; stroke-linejoin:round;">
<circle cx="3678.66" cy="8692.05" r="196.85" /> 
</g>
<g style="fill:#FFFFFF; fill-opacity:1.0; 
stroke:#FFFFFF; stroke-width:39.3701; stroke-opacity:1; 
stroke-linecap:round; stroke-linejoin:round;">
</g>
<g style="fill:#FFFFFF; fill-opacity:1.0; 
stroke:#FFFFFF; stroke-width:0; stroke-opacity:1; 
stroke-linecap:round; stroke-linejoin:round;">
<circle cx="16528.7" cy="10742" r="200" /> 
</g>
<g style="fill:#FFFFFF; fill-opacity:1.0; 
stroke:#FFFFFF; stroke-width:39.3701; stroke-opacity:1; 
stroke-linecap:round; stroke-linejoin:round;">
</g>
<g style="fill:#FFFFFF; fill-opacity:1.0; 
stroke:#FFFFFF; stroke-width:0; stroke-opacity:1; 
stroke-linecap:round; stroke-linejoin:round;">
<circle cx="15528.7" cy="10742" r="200" /> 
</g>
<g style="fill:#FFFFFF; fill-opacity:1.0; 
stroke:#FFFFFF; stroke-width:39.3701; stroke-opacity:1; 
stroke-linecap:round; stroke-linejoin:round;">
</g>
<g style="fill:#FFFFFF; fill-opacity:1.0; 
stroke:#FFFFFF; stroke-width:0; stroke-opacity:1; 
stroke-linecap:round; stroke-linejoin:round;">
<circle cx="16528.7" cy="9742.05" r="200" /> 
</g>
<g style="fill:#FFFFFF; fill-opacity:1.0; 
stroke:#FFFFFF; stroke-width:39.3701; stroke-opacity:1; 
stroke-linecap:round; stroke-linejoin:round;">
</g>
<g style="fill:#FFFFFF; fill-opacity:1.0; 
stroke:#FFFFFF; stroke-width:0; stroke-opacity:1; 
stroke-linecap:round; stroke-linejoin:round;">
<circle cx="15528.7" cy="9742.05" r="200" /> 
</g>
<g style="fill:#FFFFFF; fill-opacity:1.0; 
stroke:#FFFFFF; stroke-width:39.3701; stroke-opacity:1; 
stroke-linecap:round; stroke-linejoin:round;">
</g>
<g style="fill:#FFFFFF; fill-opacity:1.0; 
stroke:#FFFFFF; stroke-width:0; stroke-opacity:1; 
stroke-linecap:round; stroke-linejoin:round;">
<circle cx="16528.7" cy="8742.05" r="200" /> 
</g>
<g style="fill:#FFFFFF; fill-opacity:1.0; 
stroke:#FFFFFF; stroke-width:39.3701; stroke-opacity:1; 
stroke-linecap:round; stroke-linejoin:round;">
</g>
<g style="fill:#FFFFFF; fill-opacity:1.0; 
stroke:#FFFFFF; stroke-width:0; stroke-opacity:1; 
stroke-linecap:round; stroke-linejoin:round;">
<circle cx="15528.7" cy="8742.05" r="200" /> 
</g>
<g style="fill:#FFFFFF; fill-opacity:1.0; 
stroke:#FFFFFF; stroke-width:39.3701; stroke-opacity:1; 
stroke-linecap:round; stroke-linejoin:round;">
</g>
<g style="fill:#FFFFFF; fill-opacity:1.0; 
stroke:#FFFFFF; stroke-width:0; stroke-opacity:1; 
stroke-linecap:round; stroke-linejoin:round;">
<circle cx="9228.66" cy="18742" r="200" /> 
</g>
<g style="fill:#FFFFFF; fill-opacity:1.0; 
stroke:#FFFFFF; stroke-width:39.3701; stroke-opacity:1; 
stroke-linecap:round; stroke-linejoin:round;">
</g>
<g style="fill:#FFFFFF; fill-opacity:1.0; 
stroke:#FFFFFF; stroke-width:0; stroke-opacity:1; 
stroke-linecap:round; stroke-linejoin:round;">
<circle cx="10228.7" cy="18742" r="200" /> 
</g>
<g style="fill:#FFFFFF; fill-opacity:1.0; 
stroke:#FFFFFF; stroke-width:39.3701; stroke-opacity:1; 
stroke-linecap:round; stroke-linejoin:round;">
</g>
<g style="fill:#FFFFFF; fill-opacity:1.0; 
stroke:#FFFFFF; stroke-width:0; stroke-opacity:1; 
stroke-linecap:round; stroke-linejoin:round;">
<circle cx="11228.7" cy="18742" r="200" /> 
</g>
<g style="fill:#FFFFFF; fill-opacity:1.0; 
stroke:#FFFFFF; stroke-width:39.3701; stroke-opacity:1; 
stroke-linecap:round; stroke-linejoin:round;">
</g>
<g style="fill:#FFFFFF; fill-opacity:1.0; 
stroke:#FFFFFF; stroke-width:0; stroke-opacity:1; 
stroke-linecap:round; stroke-linejoin:round;">
<circle cx="12228.7" cy="18742" r="200" /> 
</g>
<g style="fill:#FFFFFF; fill-opacity:1.0; 
stroke:#FFFFFF; stroke-width:39.3701; stroke-opacity:1; 
stroke-linecap:round; stroke-linejoin:round;">
</g>
<g style="fill:#FFFFFF; fill-opacity:1.0; 
stroke:#FFFFFF; stroke-width:0; stroke-opacity:1; 
stroke-linecap:round; stroke-linejoin:round;">
<circle cx="13228.7" cy="18742" r="200" /> 
</g>
<g style="fill:#FFFFFF; fill-opacity:1.0; 
stroke:#FFFFFF; stroke-width:39.3701; stroke-opacity:1; 
stroke-linecap:round; stroke-linejoin:round;">
</g>
<g style="fill:#FFFFFF; fill-opacity:1.0; 
stroke:#FFFFFF; stroke-width:0; stroke-opacity:1; 
stroke-linecap:round; stroke-linejoin:round;">
<circle cx="3820" cy="18658.6" r="200" /> 
</g>
<g style="fill:#FFFFFF; fill-opacity:1.0; 
stroke:#FFFFFF; stroke-width:39.3701; stroke-opacity:1; 
stroke-linecap:round; stroke-linejoin:round;">
</g>
<g style="fill:#FFFFFF; fill-opacity:1.0; 
stroke:#FFFFFF; stroke-width:0; stroke-opacity:1; 
stroke-linecap:round; stroke-linejoin:round;">
<circle cx="4820" cy="18658.6" r="200" /> 
</g>
<g style="fill:#FFFFFF; fill-opacity:1.0; 
stroke:#FFFFFF; stroke-width:39.3701; stroke-opacity:1; 
stroke-linecap:round; stroke-linejoin:round;">
</g>
<g style="fill:#FFFFFF; fill-opacity:1.0; 
stroke:#FFFFFF; stroke-width:0; stroke-opacity:1; 
stroke-linecap:round; stroke-linejoin:round;">
<circle cx="2245.2" cy="18658.6" r="200" /> 
</g>
<g style="fill:#FFFFFF; fill-opacity:1.0; 
stroke:#FFFFFF; stroke-width:39.3701; stroke-opacity:1; 
stroke-linecap:round; stroke-linejoin:round;">
</g>
<g style="fill:#FFFFFF; fill-opacity:1.0; 
stroke:#FFFFFF; stroke-width:0; stroke-opacity:1; 
stroke-linecap:round; stroke-linejoin:round;">
<circle cx="1245.2" cy="18658.6" r="200" /> 
</g>
<g style="fill:#FFFFFF; fill-opacity:1.0; 
stroke:#FFFFFF; stroke-width:39.3701; stroke-opacity:1; 
stroke-linecap:round; stroke-linejoin:round;">
</g>
<g style="fill:#FFFFFF; fill-opacity:1.0; 
stroke:#FFFFFF; stroke-width:0; stroke-opacity:1; 
stroke-linecap:round; stroke-linejoin:round;">
<circle cx="17628.7" cy="17942" r="197" /> 
</g>
<g style="fill:#FFFFFF; fill-opacity:1.0; 
stroke:#FFFFFF; stroke-width:39.3701; stroke-opacity:1; 
stroke-linecap:round; stroke-linejoin:round;">
</g>
<g style="fill:#FFFFFF; fill-opacity:1.0; 
stroke:#FFFFFF; stroke-width:0; stroke-opacity:1; 
stroke-linecap:round; stroke-linejoin:round;">
<circle cx="14628.7" cy="17942" r="197" /> 
</g>
<g style="fill:#FFFFFF; fill-opacity:1.0; 
stroke:#FFFFFF; stroke-width:39.3701; stroke-opacity:1; 
stroke-linecap:round; stroke-linejoin:round;">
</g>
<g style="fill:#FFFFFF; fill-opacity:1.0; 
stroke:#FFFFFF; stroke-width:0; stroke-opacity:1; 
stroke-linecap:round; stroke-linejoin:round;">
<circle cx="17378.7" cy="16692" r="197" /> 
</g>
<g style="fill:#FFFFFF; fill-opacity:1.0; 
stroke:#FFFFFF; stroke-width:39.3701; stroke-opacity:1; 
stroke-linecap:round; stroke-linejoin:round;">
</g>
<g style="fill:#FFFFFF; fill-opacity:1.0; 
stroke:#FFFFFF; stroke-width:0; stroke-opacity:1; 
stroke-linecap:round; stroke-linejoin:round;">
<circle cx="14378.7" cy="16692" r="197" /> 
</g>
<g style="fill:#FFFFFF; fill-opacity:1.0; 
stroke:#FFFFFF; stroke-width:39.3701; stroke-opacity:1; 
stroke-linecap:round; stroke-linejoin:round;">
</g>
<g style="fill:#000000; fill-opacity:1.0; 
stroke:#000000; stroke-width:39.3701; stroke-opacity:1; 
stroke-linecap:round; stroke-linejoin:round;">
</g> 
</svg>
