G04 #@! TF.GenerationSoftware,KiCad,Pcbnew,5.0.2-bee76a0~70~ubuntu18.04.1*
G04 #@! TF.CreationDate,2019-11-03T21:10:50+01:00*
G04 #@! TF.ProjectId,puzzlebox,70757a7a-6c65-4626-9f78-2e6b69636164,rev?*
G04 #@! TF.SameCoordinates,Original*
G04 #@! TF.FileFunction,Paste,Top*
G04 #@! TF.FilePolarity,Positive*
%FSLAX46Y46*%
G04 Gerber Fmt 4.6, Leading zero omitted, Abs format (unit mm)*
G04 Created by KiCad (PCBNEW 5.0.2-bee76a0~70~ubuntu18.04.1) date So 03 Nov 2019 21:10:50 CET*
%MOMM*%
%LPD*%
G01*
G04 APERTURE LIST*
%ADD10C,0.100000*%
%ADD11C,0.975000*%
%ADD12C,1.250000*%
%ADD13R,0.900000X1.200000*%
%ADD14R,1.300000X0.250000*%
%ADD15R,0.250000X1.300000*%
%ADD16R,2.500000X1.000000*%
%ADD17R,1.000000X1.800000*%
%ADD18R,0.650000X1.060000*%
%ADD19R,0.600000X1.550000*%
%ADD20R,0.350000X0.500000*%
%ADD21R,0.375000X0.350000*%
%ADD22R,0.350000X0.375000*%
%ADD23R,0.800000X1.900000*%
%ADD24R,1.900000X0.800000*%
%ADD25R,4.500000X2.000000*%
G04 APERTURE END LIST*
D10*
G04 #@! TO.C,C1*
G36*
X75553242Y-86423174D02*
X75576903Y-86426684D01*
X75600107Y-86432496D01*
X75622629Y-86440554D01*
X75644253Y-86450782D01*
X75664770Y-86463079D01*
X75683983Y-86477329D01*
X75701707Y-86493393D01*
X75717771Y-86511117D01*
X75732021Y-86530330D01*
X75744318Y-86550847D01*
X75754546Y-86572471D01*
X75762604Y-86594993D01*
X75768416Y-86618197D01*
X75771926Y-86641858D01*
X75773100Y-86665750D01*
X75773100Y-87578250D01*
X75771926Y-87602142D01*
X75768416Y-87625803D01*
X75762604Y-87649007D01*
X75754546Y-87671529D01*
X75744318Y-87693153D01*
X75732021Y-87713670D01*
X75717771Y-87732883D01*
X75701707Y-87750607D01*
X75683983Y-87766671D01*
X75664770Y-87780921D01*
X75644253Y-87793218D01*
X75622629Y-87803446D01*
X75600107Y-87811504D01*
X75576903Y-87817316D01*
X75553242Y-87820826D01*
X75529350Y-87822000D01*
X75041850Y-87822000D01*
X75017958Y-87820826D01*
X74994297Y-87817316D01*
X74971093Y-87811504D01*
X74948571Y-87803446D01*
X74926947Y-87793218D01*
X74906430Y-87780921D01*
X74887217Y-87766671D01*
X74869493Y-87750607D01*
X74853429Y-87732883D01*
X74839179Y-87713670D01*
X74826882Y-87693153D01*
X74816654Y-87671529D01*
X74808596Y-87649007D01*
X74802784Y-87625803D01*
X74799274Y-87602142D01*
X74798100Y-87578250D01*
X74798100Y-86665750D01*
X74799274Y-86641858D01*
X74802784Y-86618197D01*
X74808596Y-86594993D01*
X74816654Y-86572471D01*
X74826882Y-86550847D01*
X74839179Y-86530330D01*
X74853429Y-86511117D01*
X74869493Y-86493393D01*
X74887217Y-86477329D01*
X74906430Y-86463079D01*
X74926947Y-86450782D01*
X74948571Y-86440554D01*
X74971093Y-86432496D01*
X74994297Y-86426684D01*
X75017958Y-86423174D01*
X75041850Y-86422000D01*
X75529350Y-86422000D01*
X75553242Y-86423174D01*
X75553242Y-86423174D01*
G37*
D11*
X75285600Y-87122000D03*
D10*
G36*
X77428242Y-86423174D02*
X77451903Y-86426684D01*
X77475107Y-86432496D01*
X77497629Y-86440554D01*
X77519253Y-86450782D01*
X77539770Y-86463079D01*
X77558983Y-86477329D01*
X77576707Y-86493393D01*
X77592771Y-86511117D01*
X77607021Y-86530330D01*
X77619318Y-86550847D01*
X77629546Y-86572471D01*
X77637604Y-86594993D01*
X77643416Y-86618197D01*
X77646926Y-86641858D01*
X77648100Y-86665750D01*
X77648100Y-87578250D01*
X77646926Y-87602142D01*
X77643416Y-87625803D01*
X77637604Y-87649007D01*
X77629546Y-87671529D01*
X77619318Y-87693153D01*
X77607021Y-87713670D01*
X77592771Y-87732883D01*
X77576707Y-87750607D01*
X77558983Y-87766671D01*
X77539770Y-87780921D01*
X77519253Y-87793218D01*
X77497629Y-87803446D01*
X77475107Y-87811504D01*
X77451903Y-87817316D01*
X77428242Y-87820826D01*
X77404350Y-87822000D01*
X76916850Y-87822000D01*
X76892958Y-87820826D01*
X76869297Y-87817316D01*
X76846093Y-87811504D01*
X76823571Y-87803446D01*
X76801947Y-87793218D01*
X76781430Y-87780921D01*
X76762217Y-87766671D01*
X76744493Y-87750607D01*
X76728429Y-87732883D01*
X76714179Y-87713670D01*
X76701882Y-87693153D01*
X76691654Y-87671529D01*
X76683596Y-87649007D01*
X76677784Y-87625803D01*
X76674274Y-87602142D01*
X76673100Y-87578250D01*
X76673100Y-86665750D01*
X76674274Y-86641858D01*
X76677784Y-86618197D01*
X76683596Y-86594993D01*
X76691654Y-86572471D01*
X76701882Y-86550847D01*
X76714179Y-86530330D01*
X76728429Y-86511117D01*
X76744493Y-86493393D01*
X76762217Y-86477329D01*
X76781430Y-86463079D01*
X76801947Y-86450782D01*
X76823571Y-86440554D01*
X76846093Y-86432496D01*
X76869297Y-86426684D01*
X76892958Y-86423174D01*
X76916850Y-86422000D01*
X77404350Y-86422000D01*
X77428242Y-86423174D01*
X77428242Y-86423174D01*
G37*
D11*
X77160600Y-87122000D03*
G04 #@! TD*
D10*
G04 #@! TO.C,C2*
G36*
X75608642Y-90487174D02*
X75632303Y-90490684D01*
X75655507Y-90496496D01*
X75678029Y-90504554D01*
X75699653Y-90514782D01*
X75720170Y-90527079D01*
X75739383Y-90541329D01*
X75757107Y-90557393D01*
X75773171Y-90575117D01*
X75787421Y-90594330D01*
X75799718Y-90614847D01*
X75809946Y-90636471D01*
X75818004Y-90658993D01*
X75823816Y-90682197D01*
X75827326Y-90705858D01*
X75828500Y-90729750D01*
X75828500Y-91642250D01*
X75827326Y-91666142D01*
X75823816Y-91689803D01*
X75818004Y-91713007D01*
X75809946Y-91735529D01*
X75799718Y-91757153D01*
X75787421Y-91777670D01*
X75773171Y-91796883D01*
X75757107Y-91814607D01*
X75739383Y-91830671D01*
X75720170Y-91844921D01*
X75699653Y-91857218D01*
X75678029Y-91867446D01*
X75655507Y-91875504D01*
X75632303Y-91881316D01*
X75608642Y-91884826D01*
X75584750Y-91886000D01*
X75097250Y-91886000D01*
X75073358Y-91884826D01*
X75049697Y-91881316D01*
X75026493Y-91875504D01*
X75003971Y-91867446D01*
X74982347Y-91857218D01*
X74961830Y-91844921D01*
X74942617Y-91830671D01*
X74924893Y-91814607D01*
X74908829Y-91796883D01*
X74894579Y-91777670D01*
X74882282Y-91757153D01*
X74872054Y-91735529D01*
X74863996Y-91713007D01*
X74858184Y-91689803D01*
X74854674Y-91666142D01*
X74853500Y-91642250D01*
X74853500Y-90729750D01*
X74854674Y-90705858D01*
X74858184Y-90682197D01*
X74863996Y-90658993D01*
X74872054Y-90636471D01*
X74882282Y-90614847D01*
X74894579Y-90594330D01*
X74908829Y-90575117D01*
X74924893Y-90557393D01*
X74942617Y-90541329D01*
X74961830Y-90527079D01*
X74982347Y-90514782D01*
X75003971Y-90504554D01*
X75026493Y-90496496D01*
X75049697Y-90490684D01*
X75073358Y-90487174D01*
X75097250Y-90486000D01*
X75584750Y-90486000D01*
X75608642Y-90487174D01*
X75608642Y-90487174D01*
G37*
D11*
X75341000Y-91186000D03*
D10*
G36*
X77483642Y-90487174D02*
X77507303Y-90490684D01*
X77530507Y-90496496D01*
X77553029Y-90504554D01*
X77574653Y-90514782D01*
X77595170Y-90527079D01*
X77614383Y-90541329D01*
X77632107Y-90557393D01*
X77648171Y-90575117D01*
X77662421Y-90594330D01*
X77674718Y-90614847D01*
X77684946Y-90636471D01*
X77693004Y-90658993D01*
X77698816Y-90682197D01*
X77702326Y-90705858D01*
X77703500Y-90729750D01*
X77703500Y-91642250D01*
X77702326Y-91666142D01*
X77698816Y-91689803D01*
X77693004Y-91713007D01*
X77684946Y-91735529D01*
X77674718Y-91757153D01*
X77662421Y-91777670D01*
X77648171Y-91796883D01*
X77632107Y-91814607D01*
X77614383Y-91830671D01*
X77595170Y-91844921D01*
X77574653Y-91857218D01*
X77553029Y-91867446D01*
X77530507Y-91875504D01*
X77507303Y-91881316D01*
X77483642Y-91884826D01*
X77459750Y-91886000D01*
X76972250Y-91886000D01*
X76948358Y-91884826D01*
X76924697Y-91881316D01*
X76901493Y-91875504D01*
X76878971Y-91867446D01*
X76857347Y-91857218D01*
X76836830Y-91844921D01*
X76817617Y-91830671D01*
X76799893Y-91814607D01*
X76783829Y-91796883D01*
X76769579Y-91777670D01*
X76757282Y-91757153D01*
X76747054Y-91735529D01*
X76738996Y-91713007D01*
X76733184Y-91689803D01*
X76729674Y-91666142D01*
X76728500Y-91642250D01*
X76728500Y-90729750D01*
X76729674Y-90705858D01*
X76733184Y-90682197D01*
X76738996Y-90658993D01*
X76747054Y-90636471D01*
X76757282Y-90614847D01*
X76769579Y-90594330D01*
X76783829Y-90575117D01*
X76799893Y-90557393D01*
X76817617Y-90541329D01*
X76836830Y-90527079D01*
X76857347Y-90514782D01*
X76878971Y-90504554D01*
X76901493Y-90496496D01*
X76924697Y-90490684D01*
X76948358Y-90487174D01*
X76972250Y-90486000D01*
X77459750Y-90486000D01*
X77483642Y-90487174D01*
X77483642Y-90487174D01*
G37*
D11*
X77216000Y-91186000D03*
G04 #@! TD*
D10*
G04 #@! TO.C,C3*
G36*
X77453642Y-88480574D02*
X77477303Y-88484084D01*
X77500507Y-88489896D01*
X77523029Y-88497954D01*
X77544653Y-88508182D01*
X77565170Y-88520479D01*
X77584383Y-88534729D01*
X77602107Y-88550793D01*
X77618171Y-88568517D01*
X77632421Y-88587730D01*
X77644718Y-88608247D01*
X77654946Y-88629871D01*
X77663004Y-88652393D01*
X77668816Y-88675597D01*
X77672326Y-88699258D01*
X77673500Y-88723150D01*
X77673500Y-89635650D01*
X77672326Y-89659542D01*
X77668816Y-89683203D01*
X77663004Y-89706407D01*
X77654946Y-89728929D01*
X77644718Y-89750553D01*
X77632421Y-89771070D01*
X77618171Y-89790283D01*
X77602107Y-89808007D01*
X77584383Y-89824071D01*
X77565170Y-89838321D01*
X77544653Y-89850618D01*
X77523029Y-89860846D01*
X77500507Y-89868904D01*
X77477303Y-89874716D01*
X77453642Y-89878226D01*
X77429750Y-89879400D01*
X76942250Y-89879400D01*
X76918358Y-89878226D01*
X76894697Y-89874716D01*
X76871493Y-89868904D01*
X76848971Y-89860846D01*
X76827347Y-89850618D01*
X76806830Y-89838321D01*
X76787617Y-89824071D01*
X76769893Y-89808007D01*
X76753829Y-89790283D01*
X76739579Y-89771070D01*
X76727282Y-89750553D01*
X76717054Y-89728929D01*
X76708996Y-89706407D01*
X76703184Y-89683203D01*
X76699674Y-89659542D01*
X76698500Y-89635650D01*
X76698500Y-88723150D01*
X76699674Y-88699258D01*
X76703184Y-88675597D01*
X76708996Y-88652393D01*
X76717054Y-88629871D01*
X76727282Y-88608247D01*
X76739579Y-88587730D01*
X76753829Y-88568517D01*
X76769893Y-88550793D01*
X76787617Y-88534729D01*
X76806830Y-88520479D01*
X76827347Y-88508182D01*
X76848971Y-88497954D01*
X76871493Y-88489896D01*
X76894697Y-88484084D01*
X76918358Y-88480574D01*
X76942250Y-88479400D01*
X77429750Y-88479400D01*
X77453642Y-88480574D01*
X77453642Y-88480574D01*
G37*
D11*
X77186000Y-89179400D03*
D10*
G36*
X75578642Y-88480574D02*
X75602303Y-88484084D01*
X75625507Y-88489896D01*
X75648029Y-88497954D01*
X75669653Y-88508182D01*
X75690170Y-88520479D01*
X75709383Y-88534729D01*
X75727107Y-88550793D01*
X75743171Y-88568517D01*
X75757421Y-88587730D01*
X75769718Y-88608247D01*
X75779946Y-88629871D01*
X75788004Y-88652393D01*
X75793816Y-88675597D01*
X75797326Y-88699258D01*
X75798500Y-88723150D01*
X75798500Y-89635650D01*
X75797326Y-89659542D01*
X75793816Y-89683203D01*
X75788004Y-89706407D01*
X75779946Y-89728929D01*
X75769718Y-89750553D01*
X75757421Y-89771070D01*
X75743171Y-89790283D01*
X75727107Y-89808007D01*
X75709383Y-89824071D01*
X75690170Y-89838321D01*
X75669653Y-89850618D01*
X75648029Y-89860846D01*
X75625507Y-89868904D01*
X75602303Y-89874716D01*
X75578642Y-89878226D01*
X75554750Y-89879400D01*
X75067250Y-89879400D01*
X75043358Y-89878226D01*
X75019697Y-89874716D01*
X74996493Y-89868904D01*
X74973971Y-89860846D01*
X74952347Y-89850618D01*
X74931830Y-89838321D01*
X74912617Y-89824071D01*
X74894893Y-89808007D01*
X74878829Y-89790283D01*
X74864579Y-89771070D01*
X74852282Y-89750553D01*
X74842054Y-89728929D01*
X74833996Y-89706407D01*
X74828184Y-89683203D01*
X74824674Y-89659542D01*
X74823500Y-89635650D01*
X74823500Y-88723150D01*
X74824674Y-88699258D01*
X74828184Y-88675597D01*
X74833996Y-88652393D01*
X74842054Y-88629871D01*
X74852282Y-88608247D01*
X74864579Y-88587730D01*
X74878829Y-88568517D01*
X74894893Y-88550793D01*
X74912617Y-88534729D01*
X74931830Y-88520479D01*
X74952347Y-88508182D01*
X74973971Y-88497954D01*
X74996493Y-88489896D01*
X75019697Y-88484084D01*
X75043358Y-88480574D01*
X75067250Y-88479400D01*
X75554750Y-88479400D01*
X75578642Y-88480574D01*
X75578642Y-88480574D01*
G37*
D11*
X75311000Y-89179400D03*
G04 #@! TD*
D10*
G04 #@! TO.C,C4*
G36*
X77483642Y-94678174D02*
X77507303Y-94681684D01*
X77530507Y-94687496D01*
X77553029Y-94695554D01*
X77574653Y-94705782D01*
X77595170Y-94718079D01*
X77614383Y-94732329D01*
X77632107Y-94748393D01*
X77648171Y-94766117D01*
X77662421Y-94785330D01*
X77674718Y-94805847D01*
X77684946Y-94827471D01*
X77693004Y-94849993D01*
X77698816Y-94873197D01*
X77702326Y-94896858D01*
X77703500Y-94920750D01*
X77703500Y-95833250D01*
X77702326Y-95857142D01*
X77698816Y-95880803D01*
X77693004Y-95904007D01*
X77684946Y-95926529D01*
X77674718Y-95948153D01*
X77662421Y-95968670D01*
X77648171Y-95987883D01*
X77632107Y-96005607D01*
X77614383Y-96021671D01*
X77595170Y-96035921D01*
X77574653Y-96048218D01*
X77553029Y-96058446D01*
X77530507Y-96066504D01*
X77507303Y-96072316D01*
X77483642Y-96075826D01*
X77459750Y-96077000D01*
X76972250Y-96077000D01*
X76948358Y-96075826D01*
X76924697Y-96072316D01*
X76901493Y-96066504D01*
X76878971Y-96058446D01*
X76857347Y-96048218D01*
X76836830Y-96035921D01*
X76817617Y-96021671D01*
X76799893Y-96005607D01*
X76783829Y-95987883D01*
X76769579Y-95968670D01*
X76757282Y-95948153D01*
X76747054Y-95926529D01*
X76738996Y-95904007D01*
X76733184Y-95880803D01*
X76729674Y-95857142D01*
X76728500Y-95833250D01*
X76728500Y-94920750D01*
X76729674Y-94896858D01*
X76733184Y-94873197D01*
X76738996Y-94849993D01*
X76747054Y-94827471D01*
X76757282Y-94805847D01*
X76769579Y-94785330D01*
X76783829Y-94766117D01*
X76799893Y-94748393D01*
X76817617Y-94732329D01*
X76836830Y-94718079D01*
X76857347Y-94705782D01*
X76878971Y-94695554D01*
X76901493Y-94687496D01*
X76924697Y-94681684D01*
X76948358Y-94678174D01*
X76972250Y-94677000D01*
X77459750Y-94677000D01*
X77483642Y-94678174D01*
X77483642Y-94678174D01*
G37*
D11*
X77216000Y-95377000D03*
D10*
G36*
X75608642Y-94678174D02*
X75632303Y-94681684D01*
X75655507Y-94687496D01*
X75678029Y-94695554D01*
X75699653Y-94705782D01*
X75720170Y-94718079D01*
X75739383Y-94732329D01*
X75757107Y-94748393D01*
X75773171Y-94766117D01*
X75787421Y-94785330D01*
X75799718Y-94805847D01*
X75809946Y-94827471D01*
X75818004Y-94849993D01*
X75823816Y-94873197D01*
X75827326Y-94896858D01*
X75828500Y-94920750D01*
X75828500Y-95833250D01*
X75827326Y-95857142D01*
X75823816Y-95880803D01*
X75818004Y-95904007D01*
X75809946Y-95926529D01*
X75799718Y-95948153D01*
X75787421Y-95968670D01*
X75773171Y-95987883D01*
X75757107Y-96005607D01*
X75739383Y-96021671D01*
X75720170Y-96035921D01*
X75699653Y-96048218D01*
X75678029Y-96058446D01*
X75655507Y-96066504D01*
X75632303Y-96072316D01*
X75608642Y-96075826D01*
X75584750Y-96077000D01*
X75097250Y-96077000D01*
X75073358Y-96075826D01*
X75049697Y-96072316D01*
X75026493Y-96066504D01*
X75003971Y-96058446D01*
X74982347Y-96048218D01*
X74961830Y-96035921D01*
X74942617Y-96021671D01*
X74924893Y-96005607D01*
X74908829Y-95987883D01*
X74894579Y-95968670D01*
X74882282Y-95948153D01*
X74872054Y-95926529D01*
X74863996Y-95904007D01*
X74858184Y-95880803D01*
X74854674Y-95857142D01*
X74853500Y-95833250D01*
X74853500Y-94920750D01*
X74854674Y-94896858D01*
X74858184Y-94873197D01*
X74863996Y-94849993D01*
X74872054Y-94827471D01*
X74882282Y-94805847D01*
X74894579Y-94785330D01*
X74908829Y-94766117D01*
X74924893Y-94748393D01*
X74942617Y-94732329D01*
X74961830Y-94718079D01*
X74982347Y-94705782D01*
X75003971Y-94695554D01*
X75026493Y-94687496D01*
X75049697Y-94681684D01*
X75073358Y-94678174D01*
X75097250Y-94677000D01*
X75584750Y-94677000D01*
X75608642Y-94678174D01*
X75608642Y-94678174D01*
G37*
D11*
X75341000Y-95377000D03*
G04 #@! TD*
D10*
G04 #@! TO.C,C5*
G36*
X89380142Y-86127674D02*
X89403803Y-86131184D01*
X89427007Y-86136996D01*
X89449529Y-86145054D01*
X89471153Y-86155282D01*
X89491670Y-86167579D01*
X89510883Y-86181829D01*
X89528607Y-86197893D01*
X89544671Y-86215617D01*
X89558921Y-86234830D01*
X89571218Y-86255347D01*
X89581446Y-86276971D01*
X89589504Y-86299493D01*
X89595316Y-86322697D01*
X89598826Y-86346358D01*
X89600000Y-86370250D01*
X89600000Y-86857750D01*
X89598826Y-86881642D01*
X89595316Y-86905303D01*
X89589504Y-86928507D01*
X89581446Y-86951029D01*
X89571218Y-86972653D01*
X89558921Y-86993170D01*
X89544671Y-87012383D01*
X89528607Y-87030107D01*
X89510883Y-87046171D01*
X89491670Y-87060421D01*
X89471153Y-87072718D01*
X89449529Y-87082946D01*
X89427007Y-87091004D01*
X89403803Y-87096816D01*
X89380142Y-87100326D01*
X89356250Y-87101500D01*
X88443750Y-87101500D01*
X88419858Y-87100326D01*
X88396197Y-87096816D01*
X88372993Y-87091004D01*
X88350471Y-87082946D01*
X88328847Y-87072718D01*
X88308330Y-87060421D01*
X88289117Y-87046171D01*
X88271393Y-87030107D01*
X88255329Y-87012383D01*
X88241079Y-86993170D01*
X88228782Y-86972653D01*
X88218554Y-86951029D01*
X88210496Y-86928507D01*
X88204684Y-86905303D01*
X88201174Y-86881642D01*
X88200000Y-86857750D01*
X88200000Y-86370250D01*
X88201174Y-86346358D01*
X88204684Y-86322697D01*
X88210496Y-86299493D01*
X88218554Y-86276971D01*
X88228782Y-86255347D01*
X88241079Y-86234830D01*
X88255329Y-86215617D01*
X88271393Y-86197893D01*
X88289117Y-86181829D01*
X88308330Y-86167579D01*
X88328847Y-86155282D01*
X88350471Y-86145054D01*
X88372993Y-86136996D01*
X88396197Y-86131184D01*
X88419858Y-86127674D01*
X88443750Y-86126500D01*
X89356250Y-86126500D01*
X89380142Y-86127674D01*
X89380142Y-86127674D01*
G37*
D11*
X88900000Y-86614000D03*
D10*
G36*
X89380142Y-84252674D02*
X89403803Y-84256184D01*
X89427007Y-84261996D01*
X89449529Y-84270054D01*
X89471153Y-84280282D01*
X89491670Y-84292579D01*
X89510883Y-84306829D01*
X89528607Y-84322893D01*
X89544671Y-84340617D01*
X89558921Y-84359830D01*
X89571218Y-84380347D01*
X89581446Y-84401971D01*
X89589504Y-84424493D01*
X89595316Y-84447697D01*
X89598826Y-84471358D01*
X89600000Y-84495250D01*
X89600000Y-84982750D01*
X89598826Y-85006642D01*
X89595316Y-85030303D01*
X89589504Y-85053507D01*
X89581446Y-85076029D01*
X89571218Y-85097653D01*
X89558921Y-85118170D01*
X89544671Y-85137383D01*
X89528607Y-85155107D01*
X89510883Y-85171171D01*
X89491670Y-85185421D01*
X89471153Y-85197718D01*
X89449529Y-85207946D01*
X89427007Y-85216004D01*
X89403803Y-85221816D01*
X89380142Y-85225326D01*
X89356250Y-85226500D01*
X88443750Y-85226500D01*
X88419858Y-85225326D01*
X88396197Y-85221816D01*
X88372993Y-85216004D01*
X88350471Y-85207946D01*
X88328847Y-85197718D01*
X88308330Y-85185421D01*
X88289117Y-85171171D01*
X88271393Y-85155107D01*
X88255329Y-85137383D01*
X88241079Y-85118170D01*
X88228782Y-85097653D01*
X88218554Y-85076029D01*
X88210496Y-85053507D01*
X88204684Y-85030303D01*
X88201174Y-85006642D01*
X88200000Y-84982750D01*
X88200000Y-84495250D01*
X88201174Y-84471358D01*
X88204684Y-84447697D01*
X88210496Y-84424493D01*
X88218554Y-84401971D01*
X88228782Y-84380347D01*
X88241079Y-84359830D01*
X88255329Y-84340617D01*
X88271393Y-84322893D01*
X88289117Y-84306829D01*
X88308330Y-84292579D01*
X88328847Y-84280282D01*
X88350471Y-84270054D01*
X88372993Y-84261996D01*
X88396197Y-84256184D01*
X88419858Y-84252674D01*
X88443750Y-84251500D01*
X89356250Y-84251500D01*
X89380142Y-84252674D01*
X89380142Y-84252674D01*
G37*
D11*
X88900000Y-84739000D03*
G04 #@! TD*
D10*
G04 #@! TO.C,C6*
G36*
X75608642Y-92569974D02*
X75632303Y-92573484D01*
X75655507Y-92579296D01*
X75678029Y-92587354D01*
X75699653Y-92597582D01*
X75720170Y-92609879D01*
X75739383Y-92624129D01*
X75757107Y-92640193D01*
X75773171Y-92657917D01*
X75787421Y-92677130D01*
X75799718Y-92697647D01*
X75809946Y-92719271D01*
X75818004Y-92741793D01*
X75823816Y-92764997D01*
X75827326Y-92788658D01*
X75828500Y-92812550D01*
X75828500Y-93725050D01*
X75827326Y-93748942D01*
X75823816Y-93772603D01*
X75818004Y-93795807D01*
X75809946Y-93818329D01*
X75799718Y-93839953D01*
X75787421Y-93860470D01*
X75773171Y-93879683D01*
X75757107Y-93897407D01*
X75739383Y-93913471D01*
X75720170Y-93927721D01*
X75699653Y-93940018D01*
X75678029Y-93950246D01*
X75655507Y-93958304D01*
X75632303Y-93964116D01*
X75608642Y-93967626D01*
X75584750Y-93968800D01*
X75097250Y-93968800D01*
X75073358Y-93967626D01*
X75049697Y-93964116D01*
X75026493Y-93958304D01*
X75003971Y-93950246D01*
X74982347Y-93940018D01*
X74961830Y-93927721D01*
X74942617Y-93913471D01*
X74924893Y-93897407D01*
X74908829Y-93879683D01*
X74894579Y-93860470D01*
X74882282Y-93839953D01*
X74872054Y-93818329D01*
X74863996Y-93795807D01*
X74858184Y-93772603D01*
X74854674Y-93748942D01*
X74853500Y-93725050D01*
X74853500Y-92812550D01*
X74854674Y-92788658D01*
X74858184Y-92764997D01*
X74863996Y-92741793D01*
X74872054Y-92719271D01*
X74882282Y-92697647D01*
X74894579Y-92677130D01*
X74908829Y-92657917D01*
X74924893Y-92640193D01*
X74942617Y-92624129D01*
X74961830Y-92609879D01*
X74982347Y-92597582D01*
X75003971Y-92587354D01*
X75026493Y-92579296D01*
X75049697Y-92573484D01*
X75073358Y-92569974D01*
X75097250Y-92568800D01*
X75584750Y-92568800D01*
X75608642Y-92569974D01*
X75608642Y-92569974D01*
G37*
D11*
X75341000Y-93268800D03*
D10*
G36*
X77483642Y-92569974D02*
X77507303Y-92573484D01*
X77530507Y-92579296D01*
X77553029Y-92587354D01*
X77574653Y-92597582D01*
X77595170Y-92609879D01*
X77614383Y-92624129D01*
X77632107Y-92640193D01*
X77648171Y-92657917D01*
X77662421Y-92677130D01*
X77674718Y-92697647D01*
X77684946Y-92719271D01*
X77693004Y-92741793D01*
X77698816Y-92764997D01*
X77702326Y-92788658D01*
X77703500Y-92812550D01*
X77703500Y-93725050D01*
X77702326Y-93748942D01*
X77698816Y-93772603D01*
X77693004Y-93795807D01*
X77684946Y-93818329D01*
X77674718Y-93839953D01*
X77662421Y-93860470D01*
X77648171Y-93879683D01*
X77632107Y-93897407D01*
X77614383Y-93913471D01*
X77595170Y-93927721D01*
X77574653Y-93940018D01*
X77553029Y-93950246D01*
X77530507Y-93958304D01*
X77507303Y-93964116D01*
X77483642Y-93967626D01*
X77459750Y-93968800D01*
X76972250Y-93968800D01*
X76948358Y-93967626D01*
X76924697Y-93964116D01*
X76901493Y-93958304D01*
X76878971Y-93950246D01*
X76857347Y-93940018D01*
X76836830Y-93927721D01*
X76817617Y-93913471D01*
X76799893Y-93897407D01*
X76783829Y-93879683D01*
X76769579Y-93860470D01*
X76757282Y-93839953D01*
X76747054Y-93818329D01*
X76738996Y-93795807D01*
X76733184Y-93772603D01*
X76729674Y-93748942D01*
X76728500Y-93725050D01*
X76728500Y-92812550D01*
X76729674Y-92788658D01*
X76733184Y-92764997D01*
X76738996Y-92741793D01*
X76747054Y-92719271D01*
X76757282Y-92697647D01*
X76769579Y-92677130D01*
X76783829Y-92657917D01*
X76799893Y-92640193D01*
X76817617Y-92624129D01*
X76836830Y-92609879D01*
X76857347Y-92597582D01*
X76878971Y-92587354D01*
X76901493Y-92579296D01*
X76924697Y-92573484D01*
X76948358Y-92569974D01*
X76972250Y-92568800D01*
X77459750Y-92568800D01*
X77483642Y-92569974D01*
X77483642Y-92569974D01*
G37*
D11*
X77216000Y-93268800D03*
G04 #@! TD*
D10*
G04 #@! TO.C,C7*
G36*
X89010642Y-96583174D02*
X89034303Y-96586684D01*
X89057507Y-96592496D01*
X89080029Y-96600554D01*
X89101653Y-96610782D01*
X89122170Y-96623079D01*
X89141383Y-96637329D01*
X89159107Y-96653393D01*
X89175171Y-96671117D01*
X89189421Y-96690330D01*
X89201718Y-96710847D01*
X89211946Y-96732471D01*
X89220004Y-96754993D01*
X89225816Y-96778197D01*
X89229326Y-96801858D01*
X89230500Y-96825750D01*
X89230500Y-97738250D01*
X89229326Y-97762142D01*
X89225816Y-97785803D01*
X89220004Y-97809007D01*
X89211946Y-97831529D01*
X89201718Y-97853153D01*
X89189421Y-97873670D01*
X89175171Y-97892883D01*
X89159107Y-97910607D01*
X89141383Y-97926671D01*
X89122170Y-97940921D01*
X89101653Y-97953218D01*
X89080029Y-97963446D01*
X89057507Y-97971504D01*
X89034303Y-97977316D01*
X89010642Y-97980826D01*
X88986750Y-97982000D01*
X88499250Y-97982000D01*
X88475358Y-97980826D01*
X88451697Y-97977316D01*
X88428493Y-97971504D01*
X88405971Y-97963446D01*
X88384347Y-97953218D01*
X88363830Y-97940921D01*
X88344617Y-97926671D01*
X88326893Y-97910607D01*
X88310829Y-97892883D01*
X88296579Y-97873670D01*
X88284282Y-97853153D01*
X88274054Y-97831529D01*
X88265996Y-97809007D01*
X88260184Y-97785803D01*
X88256674Y-97762142D01*
X88255500Y-97738250D01*
X88255500Y-96825750D01*
X88256674Y-96801858D01*
X88260184Y-96778197D01*
X88265996Y-96754993D01*
X88274054Y-96732471D01*
X88284282Y-96710847D01*
X88296579Y-96690330D01*
X88310829Y-96671117D01*
X88326893Y-96653393D01*
X88344617Y-96637329D01*
X88363830Y-96623079D01*
X88384347Y-96610782D01*
X88405971Y-96600554D01*
X88428493Y-96592496D01*
X88451697Y-96586684D01*
X88475358Y-96583174D01*
X88499250Y-96582000D01*
X88986750Y-96582000D01*
X89010642Y-96583174D01*
X89010642Y-96583174D01*
G37*
D11*
X88743000Y-97282000D03*
D10*
G36*
X87135642Y-96583174D02*
X87159303Y-96586684D01*
X87182507Y-96592496D01*
X87205029Y-96600554D01*
X87226653Y-96610782D01*
X87247170Y-96623079D01*
X87266383Y-96637329D01*
X87284107Y-96653393D01*
X87300171Y-96671117D01*
X87314421Y-96690330D01*
X87326718Y-96710847D01*
X87336946Y-96732471D01*
X87345004Y-96754993D01*
X87350816Y-96778197D01*
X87354326Y-96801858D01*
X87355500Y-96825750D01*
X87355500Y-97738250D01*
X87354326Y-97762142D01*
X87350816Y-97785803D01*
X87345004Y-97809007D01*
X87336946Y-97831529D01*
X87326718Y-97853153D01*
X87314421Y-97873670D01*
X87300171Y-97892883D01*
X87284107Y-97910607D01*
X87266383Y-97926671D01*
X87247170Y-97940921D01*
X87226653Y-97953218D01*
X87205029Y-97963446D01*
X87182507Y-97971504D01*
X87159303Y-97977316D01*
X87135642Y-97980826D01*
X87111750Y-97982000D01*
X86624250Y-97982000D01*
X86600358Y-97980826D01*
X86576697Y-97977316D01*
X86553493Y-97971504D01*
X86530971Y-97963446D01*
X86509347Y-97953218D01*
X86488830Y-97940921D01*
X86469617Y-97926671D01*
X86451893Y-97910607D01*
X86435829Y-97892883D01*
X86421579Y-97873670D01*
X86409282Y-97853153D01*
X86399054Y-97831529D01*
X86390996Y-97809007D01*
X86385184Y-97785803D01*
X86381674Y-97762142D01*
X86380500Y-97738250D01*
X86380500Y-96825750D01*
X86381674Y-96801858D01*
X86385184Y-96778197D01*
X86390996Y-96754993D01*
X86399054Y-96732471D01*
X86409282Y-96710847D01*
X86421579Y-96690330D01*
X86435829Y-96671117D01*
X86451893Y-96653393D01*
X86469617Y-96637329D01*
X86488830Y-96623079D01*
X86509347Y-96610782D01*
X86530971Y-96600554D01*
X86553493Y-96592496D01*
X86576697Y-96586684D01*
X86600358Y-96583174D01*
X86624250Y-96582000D01*
X87111750Y-96582000D01*
X87135642Y-96583174D01*
X87135642Y-96583174D01*
G37*
D11*
X86868000Y-97282000D03*
G04 #@! TD*
D10*
G04 #@! TO.C,C8*
G36*
X106525142Y-104826674D02*
X106548803Y-104830184D01*
X106572007Y-104835996D01*
X106594529Y-104844054D01*
X106616153Y-104854282D01*
X106636670Y-104866579D01*
X106655883Y-104880829D01*
X106673607Y-104896893D01*
X106689671Y-104914617D01*
X106703921Y-104933830D01*
X106716218Y-104954347D01*
X106726446Y-104975971D01*
X106734504Y-104998493D01*
X106740316Y-105021697D01*
X106743826Y-105045358D01*
X106745000Y-105069250D01*
X106745000Y-105556750D01*
X106743826Y-105580642D01*
X106740316Y-105604303D01*
X106734504Y-105627507D01*
X106726446Y-105650029D01*
X106716218Y-105671653D01*
X106703921Y-105692170D01*
X106689671Y-105711383D01*
X106673607Y-105729107D01*
X106655883Y-105745171D01*
X106636670Y-105759421D01*
X106616153Y-105771718D01*
X106594529Y-105781946D01*
X106572007Y-105790004D01*
X106548803Y-105795816D01*
X106525142Y-105799326D01*
X106501250Y-105800500D01*
X105588750Y-105800500D01*
X105564858Y-105799326D01*
X105541197Y-105795816D01*
X105517993Y-105790004D01*
X105495471Y-105781946D01*
X105473847Y-105771718D01*
X105453330Y-105759421D01*
X105434117Y-105745171D01*
X105416393Y-105729107D01*
X105400329Y-105711383D01*
X105386079Y-105692170D01*
X105373782Y-105671653D01*
X105363554Y-105650029D01*
X105355496Y-105627507D01*
X105349684Y-105604303D01*
X105346174Y-105580642D01*
X105345000Y-105556750D01*
X105345000Y-105069250D01*
X105346174Y-105045358D01*
X105349684Y-105021697D01*
X105355496Y-104998493D01*
X105363554Y-104975971D01*
X105373782Y-104954347D01*
X105386079Y-104933830D01*
X105400329Y-104914617D01*
X105416393Y-104896893D01*
X105434117Y-104880829D01*
X105453330Y-104866579D01*
X105473847Y-104854282D01*
X105495471Y-104844054D01*
X105517993Y-104835996D01*
X105541197Y-104830184D01*
X105564858Y-104826674D01*
X105588750Y-104825500D01*
X106501250Y-104825500D01*
X106525142Y-104826674D01*
X106525142Y-104826674D01*
G37*
D11*
X106045000Y-105313000D03*
D10*
G36*
X106525142Y-106701674D02*
X106548803Y-106705184D01*
X106572007Y-106710996D01*
X106594529Y-106719054D01*
X106616153Y-106729282D01*
X106636670Y-106741579D01*
X106655883Y-106755829D01*
X106673607Y-106771893D01*
X106689671Y-106789617D01*
X106703921Y-106808830D01*
X106716218Y-106829347D01*
X106726446Y-106850971D01*
X106734504Y-106873493D01*
X106740316Y-106896697D01*
X106743826Y-106920358D01*
X106745000Y-106944250D01*
X106745000Y-107431750D01*
X106743826Y-107455642D01*
X106740316Y-107479303D01*
X106734504Y-107502507D01*
X106726446Y-107525029D01*
X106716218Y-107546653D01*
X106703921Y-107567170D01*
X106689671Y-107586383D01*
X106673607Y-107604107D01*
X106655883Y-107620171D01*
X106636670Y-107634421D01*
X106616153Y-107646718D01*
X106594529Y-107656946D01*
X106572007Y-107665004D01*
X106548803Y-107670816D01*
X106525142Y-107674326D01*
X106501250Y-107675500D01*
X105588750Y-107675500D01*
X105564858Y-107674326D01*
X105541197Y-107670816D01*
X105517993Y-107665004D01*
X105495471Y-107656946D01*
X105473847Y-107646718D01*
X105453330Y-107634421D01*
X105434117Y-107620171D01*
X105416393Y-107604107D01*
X105400329Y-107586383D01*
X105386079Y-107567170D01*
X105373782Y-107546653D01*
X105363554Y-107525029D01*
X105355496Y-107502507D01*
X105349684Y-107479303D01*
X105346174Y-107455642D01*
X105345000Y-107431750D01*
X105345000Y-106944250D01*
X105346174Y-106920358D01*
X105349684Y-106896697D01*
X105355496Y-106873493D01*
X105363554Y-106850971D01*
X105373782Y-106829347D01*
X105386079Y-106808830D01*
X105400329Y-106789617D01*
X105416393Y-106771893D01*
X105434117Y-106755829D01*
X105453330Y-106741579D01*
X105473847Y-106729282D01*
X105495471Y-106719054D01*
X105517993Y-106710996D01*
X105541197Y-106705184D01*
X105564858Y-106701674D01*
X105588750Y-106700500D01*
X106501250Y-106700500D01*
X106525142Y-106701674D01*
X106525142Y-106701674D01*
G37*
D11*
X106045000Y-107188000D03*
G04 #@! TD*
D10*
G04 #@! TO.C,C9*
G36*
X91529842Y-68439974D02*
X91553503Y-68443484D01*
X91576707Y-68449296D01*
X91599229Y-68457354D01*
X91620853Y-68467582D01*
X91641370Y-68479879D01*
X91660583Y-68494129D01*
X91678307Y-68510193D01*
X91694371Y-68527917D01*
X91708621Y-68547130D01*
X91720918Y-68567647D01*
X91731146Y-68589271D01*
X91739204Y-68611793D01*
X91745016Y-68634997D01*
X91748526Y-68658658D01*
X91749700Y-68682550D01*
X91749700Y-69595050D01*
X91748526Y-69618942D01*
X91745016Y-69642603D01*
X91739204Y-69665807D01*
X91731146Y-69688329D01*
X91720918Y-69709953D01*
X91708621Y-69730470D01*
X91694371Y-69749683D01*
X91678307Y-69767407D01*
X91660583Y-69783471D01*
X91641370Y-69797721D01*
X91620853Y-69810018D01*
X91599229Y-69820246D01*
X91576707Y-69828304D01*
X91553503Y-69834116D01*
X91529842Y-69837626D01*
X91505950Y-69838800D01*
X91018450Y-69838800D01*
X90994558Y-69837626D01*
X90970897Y-69834116D01*
X90947693Y-69828304D01*
X90925171Y-69820246D01*
X90903547Y-69810018D01*
X90883030Y-69797721D01*
X90863817Y-69783471D01*
X90846093Y-69767407D01*
X90830029Y-69749683D01*
X90815779Y-69730470D01*
X90803482Y-69709953D01*
X90793254Y-69688329D01*
X90785196Y-69665807D01*
X90779384Y-69642603D01*
X90775874Y-69618942D01*
X90774700Y-69595050D01*
X90774700Y-68682550D01*
X90775874Y-68658658D01*
X90779384Y-68634997D01*
X90785196Y-68611793D01*
X90793254Y-68589271D01*
X90803482Y-68567647D01*
X90815779Y-68547130D01*
X90830029Y-68527917D01*
X90846093Y-68510193D01*
X90863817Y-68494129D01*
X90883030Y-68479879D01*
X90903547Y-68467582D01*
X90925171Y-68457354D01*
X90947693Y-68449296D01*
X90970897Y-68443484D01*
X90994558Y-68439974D01*
X91018450Y-68438800D01*
X91505950Y-68438800D01*
X91529842Y-68439974D01*
X91529842Y-68439974D01*
G37*
D11*
X91262200Y-69138800D03*
D10*
G36*
X89654842Y-68439974D02*
X89678503Y-68443484D01*
X89701707Y-68449296D01*
X89724229Y-68457354D01*
X89745853Y-68467582D01*
X89766370Y-68479879D01*
X89785583Y-68494129D01*
X89803307Y-68510193D01*
X89819371Y-68527917D01*
X89833621Y-68547130D01*
X89845918Y-68567647D01*
X89856146Y-68589271D01*
X89864204Y-68611793D01*
X89870016Y-68634997D01*
X89873526Y-68658658D01*
X89874700Y-68682550D01*
X89874700Y-69595050D01*
X89873526Y-69618942D01*
X89870016Y-69642603D01*
X89864204Y-69665807D01*
X89856146Y-69688329D01*
X89845918Y-69709953D01*
X89833621Y-69730470D01*
X89819371Y-69749683D01*
X89803307Y-69767407D01*
X89785583Y-69783471D01*
X89766370Y-69797721D01*
X89745853Y-69810018D01*
X89724229Y-69820246D01*
X89701707Y-69828304D01*
X89678503Y-69834116D01*
X89654842Y-69837626D01*
X89630950Y-69838800D01*
X89143450Y-69838800D01*
X89119558Y-69837626D01*
X89095897Y-69834116D01*
X89072693Y-69828304D01*
X89050171Y-69820246D01*
X89028547Y-69810018D01*
X89008030Y-69797721D01*
X88988817Y-69783471D01*
X88971093Y-69767407D01*
X88955029Y-69749683D01*
X88940779Y-69730470D01*
X88928482Y-69709953D01*
X88918254Y-69688329D01*
X88910196Y-69665807D01*
X88904384Y-69642603D01*
X88900874Y-69618942D01*
X88899700Y-69595050D01*
X88899700Y-68682550D01*
X88900874Y-68658658D01*
X88904384Y-68634997D01*
X88910196Y-68611793D01*
X88918254Y-68589271D01*
X88928482Y-68567647D01*
X88940779Y-68547130D01*
X88955029Y-68527917D01*
X88971093Y-68510193D01*
X88988817Y-68494129D01*
X89008030Y-68479879D01*
X89028547Y-68467582D01*
X89050171Y-68457354D01*
X89072693Y-68449296D01*
X89095897Y-68443484D01*
X89119558Y-68439974D01*
X89143450Y-68438800D01*
X89630950Y-68438800D01*
X89654842Y-68439974D01*
X89654842Y-68439974D01*
G37*
D11*
X89387200Y-69138800D03*
G04 #@! TD*
D10*
G04 #@! TO.C,C10*
G36*
X91555242Y-70421174D02*
X91578903Y-70424684D01*
X91602107Y-70430496D01*
X91624629Y-70438554D01*
X91646253Y-70448782D01*
X91666770Y-70461079D01*
X91685983Y-70475329D01*
X91703707Y-70491393D01*
X91719771Y-70509117D01*
X91734021Y-70528330D01*
X91746318Y-70548847D01*
X91756546Y-70570471D01*
X91764604Y-70592993D01*
X91770416Y-70616197D01*
X91773926Y-70639858D01*
X91775100Y-70663750D01*
X91775100Y-71576250D01*
X91773926Y-71600142D01*
X91770416Y-71623803D01*
X91764604Y-71647007D01*
X91756546Y-71669529D01*
X91746318Y-71691153D01*
X91734021Y-71711670D01*
X91719771Y-71730883D01*
X91703707Y-71748607D01*
X91685983Y-71764671D01*
X91666770Y-71778921D01*
X91646253Y-71791218D01*
X91624629Y-71801446D01*
X91602107Y-71809504D01*
X91578903Y-71815316D01*
X91555242Y-71818826D01*
X91531350Y-71820000D01*
X91043850Y-71820000D01*
X91019958Y-71818826D01*
X90996297Y-71815316D01*
X90973093Y-71809504D01*
X90950571Y-71801446D01*
X90928947Y-71791218D01*
X90908430Y-71778921D01*
X90889217Y-71764671D01*
X90871493Y-71748607D01*
X90855429Y-71730883D01*
X90841179Y-71711670D01*
X90828882Y-71691153D01*
X90818654Y-71669529D01*
X90810596Y-71647007D01*
X90804784Y-71623803D01*
X90801274Y-71600142D01*
X90800100Y-71576250D01*
X90800100Y-70663750D01*
X90801274Y-70639858D01*
X90804784Y-70616197D01*
X90810596Y-70592993D01*
X90818654Y-70570471D01*
X90828882Y-70548847D01*
X90841179Y-70528330D01*
X90855429Y-70509117D01*
X90871493Y-70491393D01*
X90889217Y-70475329D01*
X90908430Y-70461079D01*
X90928947Y-70448782D01*
X90950571Y-70438554D01*
X90973093Y-70430496D01*
X90996297Y-70424684D01*
X91019958Y-70421174D01*
X91043850Y-70420000D01*
X91531350Y-70420000D01*
X91555242Y-70421174D01*
X91555242Y-70421174D01*
G37*
D11*
X91287600Y-71120000D03*
D10*
G36*
X89680242Y-70421174D02*
X89703903Y-70424684D01*
X89727107Y-70430496D01*
X89749629Y-70438554D01*
X89771253Y-70448782D01*
X89791770Y-70461079D01*
X89810983Y-70475329D01*
X89828707Y-70491393D01*
X89844771Y-70509117D01*
X89859021Y-70528330D01*
X89871318Y-70548847D01*
X89881546Y-70570471D01*
X89889604Y-70592993D01*
X89895416Y-70616197D01*
X89898926Y-70639858D01*
X89900100Y-70663750D01*
X89900100Y-71576250D01*
X89898926Y-71600142D01*
X89895416Y-71623803D01*
X89889604Y-71647007D01*
X89881546Y-71669529D01*
X89871318Y-71691153D01*
X89859021Y-71711670D01*
X89844771Y-71730883D01*
X89828707Y-71748607D01*
X89810983Y-71764671D01*
X89791770Y-71778921D01*
X89771253Y-71791218D01*
X89749629Y-71801446D01*
X89727107Y-71809504D01*
X89703903Y-71815316D01*
X89680242Y-71818826D01*
X89656350Y-71820000D01*
X89168850Y-71820000D01*
X89144958Y-71818826D01*
X89121297Y-71815316D01*
X89098093Y-71809504D01*
X89075571Y-71801446D01*
X89053947Y-71791218D01*
X89033430Y-71778921D01*
X89014217Y-71764671D01*
X88996493Y-71748607D01*
X88980429Y-71730883D01*
X88966179Y-71711670D01*
X88953882Y-71691153D01*
X88943654Y-71669529D01*
X88935596Y-71647007D01*
X88929784Y-71623803D01*
X88926274Y-71600142D01*
X88925100Y-71576250D01*
X88925100Y-70663750D01*
X88926274Y-70639858D01*
X88929784Y-70616197D01*
X88935596Y-70592993D01*
X88943654Y-70570471D01*
X88953882Y-70548847D01*
X88966179Y-70528330D01*
X88980429Y-70509117D01*
X88996493Y-70491393D01*
X89014217Y-70475329D01*
X89033430Y-70461079D01*
X89053947Y-70448782D01*
X89075571Y-70438554D01*
X89098093Y-70430496D01*
X89121297Y-70424684D01*
X89144958Y-70421174D01*
X89168850Y-70420000D01*
X89656350Y-70420000D01*
X89680242Y-70421174D01*
X89680242Y-70421174D01*
G37*
D11*
X89412600Y-71120000D03*
G04 #@! TD*
D10*
G04 #@! TO.C,C11*
G36*
X100371342Y-73367574D02*
X100395003Y-73371084D01*
X100418207Y-73376896D01*
X100440729Y-73384954D01*
X100462353Y-73395182D01*
X100482870Y-73407479D01*
X100502083Y-73421729D01*
X100519807Y-73437793D01*
X100535871Y-73455517D01*
X100550121Y-73474730D01*
X100562418Y-73495247D01*
X100572646Y-73516871D01*
X100580704Y-73539393D01*
X100586516Y-73562597D01*
X100590026Y-73586258D01*
X100591200Y-73610150D01*
X100591200Y-74522650D01*
X100590026Y-74546542D01*
X100586516Y-74570203D01*
X100580704Y-74593407D01*
X100572646Y-74615929D01*
X100562418Y-74637553D01*
X100550121Y-74658070D01*
X100535871Y-74677283D01*
X100519807Y-74695007D01*
X100502083Y-74711071D01*
X100482870Y-74725321D01*
X100462353Y-74737618D01*
X100440729Y-74747846D01*
X100418207Y-74755904D01*
X100395003Y-74761716D01*
X100371342Y-74765226D01*
X100347450Y-74766400D01*
X99859950Y-74766400D01*
X99836058Y-74765226D01*
X99812397Y-74761716D01*
X99789193Y-74755904D01*
X99766671Y-74747846D01*
X99745047Y-74737618D01*
X99724530Y-74725321D01*
X99705317Y-74711071D01*
X99687593Y-74695007D01*
X99671529Y-74677283D01*
X99657279Y-74658070D01*
X99644982Y-74637553D01*
X99634754Y-74615929D01*
X99626696Y-74593407D01*
X99620884Y-74570203D01*
X99617374Y-74546542D01*
X99616200Y-74522650D01*
X99616200Y-73610150D01*
X99617374Y-73586258D01*
X99620884Y-73562597D01*
X99626696Y-73539393D01*
X99634754Y-73516871D01*
X99644982Y-73495247D01*
X99657279Y-73474730D01*
X99671529Y-73455517D01*
X99687593Y-73437793D01*
X99705317Y-73421729D01*
X99724530Y-73407479D01*
X99745047Y-73395182D01*
X99766671Y-73384954D01*
X99789193Y-73376896D01*
X99812397Y-73371084D01*
X99836058Y-73367574D01*
X99859950Y-73366400D01*
X100347450Y-73366400D01*
X100371342Y-73367574D01*
X100371342Y-73367574D01*
G37*
D11*
X100103700Y-74066400D03*
D10*
G36*
X102246342Y-73367574D02*
X102270003Y-73371084D01*
X102293207Y-73376896D01*
X102315729Y-73384954D01*
X102337353Y-73395182D01*
X102357870Y-73407479D01*
X102377083Y-73421729D01*
X102394807Y-73437793D01*
X102410871Y-73455517D01*
X102425121Y-73474730D01*
X102437418Y-73495247D01*
X102447646Y-73516871D01*
X102455704Y-73539393D01*
X102461516Y-73562597D01*
X102465026Y-73586258D01*
X102466200Y-73610150D01*
X102466200Y-74522650D01*
X102465026Y-74546542D01*
X102461516Y-74570203D01*
X102455704Y-74593407D01*
X102447646Y-74615929D01*
X102437418Y-74637553D01*
X102425121Y-74658070D01*
X102410871Y-74677283D01*
X102394807Y-74695007D01*
X102377083Y-74711071D01*
X102357870Y-74725321D01*
X102337353Y-74737618D01*
X102315729Y-74747846D01*
X102293207Y-74755904D01*
X102270003Y-74761716D01*
X102246342Y-74765226D01*
X102222450Y-74766400D01*
X101734950Y-74766400D01*
X101711058Y-74765226D01*
X101687397Y-74761716D01*
X101664193Y-74755904D01*
X101641671Y-74747846D01*
X101620047Y-74737618D01*
X101599530Y-74725321D01*
X101580317Y-74711071D01*
X101562593Y-74695007D01*
X101546529Y-74677283D01*
X101532279Y-74658070D01*
X101519982Y-74637553D01*
X101509754Y-74615929D01*
X101501696Y-74593407D01*
X101495884Y-74570203D01*
X101492374Y-74546542D01*
X101491200Y-74522650D01*
X101491200Y-73610150D01*
X101492374Y-73586258D01*
X101495884Y-73562597D01*
X101501696Y-73539393D01*
X101509754Y-73516871D01*
X101519982Y-73495247D01*
X101532279Y-73474730D01*
X101546529Y-73455517D01*
X101562593Y-73437793D01*
X101580317Y-73421729D01*
X101599530Y-73407479D01*
X101620047Y-73395182D01*
X101641671Y-73384954D01*
X101664193Y-73376896D01*
X101687397Y-73371084D01*
X101711058Y-73367574D01*
X101734950Y-73366400D01*
X102222450Y-73366400D01*
X102246342Y-73367574D01*
X102246342Y-73367574D01*
G37*
D11*
X101978700Y-74066400D03*
G04 #@! TD*
D10*
G04 #@! TO.C,C12*
G36*
X89654842Y-82105174D02*
X89678503Y-82108684D01*
X89701707Y-82114496D01*
X89724229Y-82122554D01*
X89745853Y-82132782D01*
X89766370Y-82145079D01*
X89785583Y-82159329D01*
X89803307Y-82175393D01*
X89819371Y-82193117D01*
X89833621Y-82212330D01*
X89845918Y-82232847D01*
X89856146Y-82254471D01*
X89864204Y-82276993D01*
X89870016Y-82300197D01*
X89873526Y-82323858D01*
X89874700Y-82347750D01*
X89874700Y-83260250D01*
X89873526Y-83284142D01*
X89870016Y-83307803D01*
X89864204Y-83331007D01*
X89856146Y-83353529D01*
X89845918Y-83375153D01*
X89833621Y-83395670D01*
X89819371Y-83414883D01*
X89803307Y-83432607D01*
X89785583Y-83448671D01*
X89766370Y-83462921D01*
X89745853Y-83475218D01*
X89724229Y-83485446D01*
X89701707Y-83493504D01*
X89678503Y-83499316D01*
X89654842Y-83502826D01*
X89630950Y-83504000D01*
X89143450Y-83504000D01*
X89119558Y-83502826D01*
X89095897Y-83499316D01*
X89072693Y-83493504D01*
X89050171Y-83485446D01*
X89028547Y-83475218D01*
X89008030Y-83462921D01*
X88988817Y-83448671D01*
X88971093Y-83432607D01*
X88955029Y-83414883D01*
X88940779Y-83395670D01*
X88928482Y-83375153D01*
X88918254Y-83353529D01*
X88910196Y-83331007D01*
X88904384Y-83307803D01*
X88900874Y-83284142D01*
X88899700Y-83260250D01*
X88899700Y-82347750D01*
X88900874Y-82323858D01*
X88904384Y-82300197D01*
X88910196Y-82276993D01*
X88918254Y-82254471D01*
X88928482Y-82232847D01*
X88940779Y-82212330D01*
X88955029Y-82193117D01*
X88971093Y-82175393D01*
X88988817Y-82159329D01*
X89008030Y-82145079D01*
X89028547Y-82132782D01*
X89050171Y-82122554D01*
X89072693Y-82114496D01*
X89095897Y-82108684D01*
X89119558Y-82105174D01*
X89143450Y-82104000D01*
X89630950Y-82104000D01*
X89654842Y-82105174D01*
X89654842Y-82105174D01*
G37*
D11*
X89387200Y-82804000D03*
D10*
G36*
X91529842Y-82105174D02*
X91553503Y-82108684D01*
X91576707Y-82114496D01*
X91599229Y-82122554D01*
X91620853Y-82132782D01*
X91641370Y-82145079D01*
X91660583Y-82159329D01*
X91678307Y-82175393D01*
X91694371Y-82193117D01*
X91708621Y-82212330D01*
X91720918Y-82232847D01*
X91731146Y-82254471D01*
X91739204Y-82276993D01*
X91745016Y-82300197D01*
X91748526Y-82323858D01*
X91749700Y-82347750D01*
X91749700Y-83260250D01*
X91748526Y-83284142D01*
X91745016Y-83307803D01*
X91739204Y-83331007D01*
X91731146Y-83353529D01*
X91720918Y-83375153D01*
X91708621Y-83395670D01*
X91694371Y-83414883D01*
X91678307Y-83432607D01*
X91660583Y-83448671D01*
X91641370Y-83462921D01*
X91620853Y-83475218D01*
X91599229Y-83485446D01*
X91576707Y-83493504D01*
X91553503Y-83499316D01*
X91529842Y-83502826D01*
X91505950Y-83504000D01*
X91018450Y-83504000D01*
X90994558Y-83502826D01*
X90970897Y-83499316D01*
X90947693Y-83493504D01*
X90925171Y-83485446D01*
X90903547Y-83475218D01*
X90883030Y-83462921D01*
X90863817Y-83448671D01*
X90846093Y-83432607D01*
X90830029Y-83414883D01*
X90815779Y-83395670D01*
X90803482Y-83375153D01*
X90793254Y-83353529D01*
X90785196Y-83331007D01*
X90779384Y-83307803D01*
X90775874Y-83284142D01*
X90774700Y-83260250D01*
X90774700Y-82347750D01*
X90775874Y-82323858D01*
X90779384Y-82300197D01*
X90785196Y-82276993D01*
X90793254Y-82254471D01*
X90803482Y-82232847D01*
X90815779Y-82212330D01*
X90830029Y-82193117D01*
X90846093Y-82175393D01*
X90863817Y-82159329D01*
X90883030Y-82145079D01*
X90903547Y-82132782D01*
X90925171Y-82122554D01*
X90947693Y-82114496D01*
X90970897Y-82108684D01*
X90994558Y-82105174D01*
X91018450Y-82104000D01*
X91505950Y-82104000D01*
X91529842Y-82105174D01*
X91529842Y-82105174D01*
G37*
D11*
X91262200Y-82804000D03*
G04 #@! TD*
D10*
G04 #@! TO.C,C13*
G36*
X91626842Y-80098574D02*
X91650503Y-80102084D01*
X91673707Y-80107896D01*
X91696229Y-80115954D01*
X91717853Y-80126182D01*
X91738370Y-80138479D01*
X91757583Y-80152729D01*
X91775307Y-80168793D01*
X91791371Y-80186517D01*
X91805621Y-80205730D01*
X91817918Y-80226247D01*
X91828146Y-80247871D01*
X91836204Y-80270393D01*
X91842016Y-80293597D01*
X91845526Y-80317258D01*
X91846700Y-80341150D01*
X91846700Y-81253650D01*
X91845526Y-81277542D01*
X91842016Y-81301203D01*
X91836204Y-81324407D01*
X91828146Y-81346929D01*
X91817918Y-81368553D01*
X91805621Y-81389070D01*
X91791371Y-81408283D01*
X91775307Y-81426007D01*
X91757583Y-81442071D01*
X91738370Y-81456321D01*
X91717853Y-81468618D01*
X91696229Y-81478846D01*
X91673707Y-81486904D01*
X91650503Y-81492716D01*
X91626842Y-81496226D01*
X91602950Y-81497400D01*
X91115450Y-81497400D01*
X91091558Y-81496226D01*
X91067897Y-81492716D01*
X91044693Y-81486904D01*
X91022171Y-81478846D01*
X91000547Y-81468618D01*
X90980030Y-81456321D01*
X90960817Y-81442071D01*
X90943093Y-81426007D01*
X90927029Y-81408283D01*
X90912779Y-81389070D01*
X90900482Y-81368553D01*
X90890254Y-81346929D01*
X90882196Y-81324407D01*
X90876384Y-81301203D01*
X90872874Y-81277542D01*
X90871700Y-81253650D01*
X90871700Y-80341150D01*
X90872874Y-80317258D01*
X90876384Y-80293597D01*
X90882196Y-80270393D01*
X90890254Y-80247871D01*
X90900482Y-80226247D01*
X90912779Y-80205730D01*
X90927029Y-80186517D01*
X90943093Y-80168793D01*
X90960817Y-80152729D01*
X90980030Y-80138479D01*
X91000547Y-80126182D01*
X91022171Y-80115954D01*
X91044693Y-80107896D01*
X91067897Y-80102084D01*
X91091558Y-80098574D01*
X91115450Y-80097400D01*
X91602950Y-80097400D01*
X91626842Y-80098574D01*
X91626842Y-80098574D01*
G37*
D11*
X91359200Y-80797400D03*
D10*
G36*
X89751842Y-80098574D02*
X89775503Y-80102084D01*
X89798707Y-80107896D01*
X89821229Y-80115954D01*
X89842853Y-80126182D01*
X89863370Y-80138479D01*
X89882583Y-80152729D01*
X89900307Y-80168793D01*
X89916371Y-80186517D01*
X89930621Y-80205730D01*
X89942918Y-80226247D01*
X89953146Y-80247871D01*
X89961204Y-80270393D01*
X89967016Y-80293597D01*
X89970526Y-80317258D01*
X89971700Y-80341150D01*
X89971700Y-81253650D01*
X89970526Y-81277542D01*
X89967016Y-81301203D01*
X89961204Y-81324407D01*
X89953146Y-81346929D01*
X89942918Y-81368553D01*
X89930621Y-81389070D01*
X89916371Y-81408283D01*
X89900307Y-81426007D01*
X89882583Y-81442071D01*
X89863370Y-81456321D01*
X89842853Y-81468618D01*
X89821229Y-81478846D01*
X89798707Y-81486904D01*
X89775503Y-81492716D01*
X89751842Y-81496226D01*
X89727950Y-81497400D01*
X89240450Y-81497400D01*
X89216558Y-81496226D01*
X89192897Y-81492716D01*
X89169693Y-81486904D01*
X89147171Y-81478846D01*
X89125547Y-81468618D01*
X89105030Y-81456321D01*
X89085817Y-81442071D01*
X89068093Y-81426007D01*
X89052029Y-81408283D01*
X89037779Y-81389070D01*
X89025482Y-81368553D01*
X89015254Y-81346929D01*
X89007196Y-81324407D01*
X89001384Y-81301203D01*
X88997874Y-81277542D01*
X88996700Y-81253650D01*
X88996700Y-80341150D01*
X88997874Y-80317258D01*
X89001384Y-80293597D01*
X89007196Y-80270393D01*
X89015254Y-80247871D01*
X89025482Y-80226247D01*
X89037779Y-80205730D01*
X89052029Y-80186517D01*
X89068093Y-80168793D01*
X89085817Y-80152729D01*
X89105030Y-80138479D01*
X89125547Y-80126182D01*
X89147171Y-80115954D01*
X89169693Y-80107896D01*
X89192897Y-80102084D01*
X89216558Y-80098574D01*
X89240450Y-80097400D01*
X89727950Y-80097400D01*
X89751842Y-80098574D01*
X89751842Y-80098574D01*
G37*
D11*
X89484200Y-80797400D03*
G04 #@! TD*
D10*
G04 #@! TO.C,C14*
G36*
X78753642Y-103364974D02*
X78777303Y-103368484D01*
X78800507Y-103374296D01*
X78823029Y-103382354D01*
X78844653Y-103392582D01*
X78865170Y-103404879D01*
X78884383Y-103419129D01*
X78902107Y-103435193D01*
X78918171Y-103452917D01*
X78932421Y-103472130D01*
X78944718Y-103492647D01*
X78954946Y-103514271D01*
X78963004Y-103536793D01*
X78968816Y-103559997D01*
X78972326Y-103583658D01*
X78973500Y-103607550D01*
X78973500Y-104520050D01*
X78972326Y-104543942D01*
X78968816Y-104567603D01*
X78963004Y-104590807D01*
X78954946Y-104613329D01*
X78944718Y-104634953D01*
X78932421Y-104655470D01*
X78918171Y-104674683D01*
X78902107Y-104692407D01*
X78884383Y-104708471D01*
X78865170Y-104722721D01*
X78844653Y-104735018D01*
X78823029Y-104745246D01*
X78800507Y-104753304D01*
X78777303Y-104759116D01*
X78753642Y-104762626D01*
X78729750Y-104763800D01*
X78242250Y-104763800D01*
X78218358Y-104762626D01*
X78194697Y-104759116D01*
X78171493Y-104753304D01*
X78148971Y-104745246D01*
X78127347Y-104735018D01*
X78106830Y-104722721D01*
X78087617Y-104708471D01*
X78069893Y-104692407D01*
X78053829Y-104674683D01*
X78039579Y-104655470D01*
X78027282Y-104634953D01*
X78017054Y-104613329D01*
X78008996Y-104590807D01*
X78003184Y-104567603D01*
X77999674Y-104543942D01*
X77998500Y-104520050D01*
X77998500Y-103607550D01*
X77999674Y-103583658D01*
X78003184Y-103559997D01*
X78008996Y-103536793D01*
X78017054Y-103514271D01*
X78027282Y-103492647D01*
X78039579Y-103472130D01*
X78053829Y-103452917D01*
X78069893Y-103435193D01*
X78087617Y-103419129D01*
X78106830Y-103404879D01*
X78127347Y-103392582D01*
X78148971Y-103382354D01*
X78171493Y-103374296D01*
X78194697Y-103368484D01*
X78218358Y-103364974D01*
X78242250Y-103363800D01*
X78729750Y-103363800D01*
X78753642Y-103364974D01*
X78753642Y-103364974D01*
G37*
D11*
X78486000Y-104063800D03*
D10*
G36*
X80628642Y-103364974D02*
X80652303Y-103368484D01*
X80675507Y-103374296D01*
X80698029Y-103382354D01*
X80719653Y-103392582D01*
X80740170Y-103404879D01*
X80759383Y-103419129D01*
X80777107Y-103435193D01*
X80793171Y-103452917D01*
X80807421Y-103472130D01*
X80819718Y-103492647D01*
X80829946Y-103514271D01*
X80838004Y-103536793D01*
X80843816Y-103559997D01*
X80847326Y-103583658D01*
X80848500Y-103607550D01*
X80848500Y-104520050D01*
X80847326Y-104543942D01*
X80843816Y-104567603D01*
X80838004Y-104590807D01*
X80829946Y-104613329D01*
X80819718Y-104634953D01*
X80807421Y-104655470D01*
X80793171Y-104674683D01*
X80777107Y-104692407D01*
X80759383Y-104708471D01*
X80740170Y-104722721D01*
X80719653Y-104735018D01*
X80698029Y-104745246D01*
X80675507Y-104753304D01*
X80652303Y-104759116D01*
X80628642Y-104762626D01*
X80604750Y-104763800D01*
X80117250Y-104763800D01*
X80093358Y-104762626D01*
X80069697Y-104759116D01*
X80046493Y-104753304D01*
X80023971Y-104745246D01*
X80002347Y-104735018D01*
X79981830Y-104722721D01*
X79962617Y-104708471D01*
X79944893Y-104692407D01*
X79928829Y-104674683D01*
X79914579Y-104655470D01*
X79902282Y-104634953D01*
X79892054Y-104613329D01*
X79883996Y-104590807D01*
X79878184Y-104567603D01*
X79874674Y-104543942D01*
X79873500Y-104520050D01*
X79873500Y-103607550D01*
X79874674Y-103583658D01*
X79878184Y-103559997D01*
X79883996Y-103536793D01*
X79892054Y-103514271D01*
X79902282Y-103492647D01*
X79914579Y-103472130D01*
X79928829Y-103452917D01*
X79944893Y-103435193D01*
X79962617Y-103419129D01*
X79981830Y-103404879D01*
X80002347Y-103392582D01*
X80023971Y-103382354D01*
X80046493Y-103374296D01*
X80069697Y-103368484D01*
X80093358Y-103364974D01*
X80117250Y-103363800D01*
X80604750Y-103363800D01*
X80628642Y-103364974D01*
X80628642Y-103364974D01*
G37*
D11*
X80361000Y-104063800D03*
G04 #@! TD*
D10*
G04 #@! TO.C,C15*
G36*
X80628642Y-101383774D02*
X80652303Y-101387284D01*
X80675507Y-101393096D01*
X80698029Y-101401154D01*
X80719653Y-101411382D01*
X80740170Y-101423679D01*
X80759383Y-101437929D01*
X80777107Y-101453993D01*
X80793171Y-101471717D01*
X80807421Y-101490930D01*
X80819718Y-101511447D01*
X80829946Y-101533071D01*
X80838004Y-101555593D01*
X80843816Y-101578797D01*
X80847326Y-101602458D01*
X80848500Y-101626350D01*
X80848500Y-102538850D01*
X80847326Y-102562742D01*
X80843816Y-102586403D01*
X80838004Y-102609607D01*
X80829946Y-102632129D01*
X80819718Y-102653753D01*
X80807421Y-102674270D01*
X80793171Y-102693483D01*
X80777107Y-102711207D01*
X80759383Y-102727271D01*
X80740170Y-102741521D01*
X80719653Y-102753818D01*
X80698029Y-102764046D01*
X80675507Y-102772104D01*
X80652303Y-102777916D01*
X80628642Y-102781426D01*
X80604750Y-102782600D01*
X80117250Y-102782600D01*
X80093358Y-102781426D01*
X80069697Y-102777916D01*
X80046493Y-102772104D01*
X80023971Y-102764046D01*
X80002347Y-102753818D01*
X79981830Y-102741521D01*
X79962617Y-102727271D01*
X79944893Y-102711207D01*
X79928829Y-102693483D01*
X79914579Y-102674270D01*
X79902282Y-102653753D01*
X79892054Y-102632129D01*
X79883996Y-102609607D01*
X79878184Y-102586403D01*
X79874674Y-102562742D01*
X79873500Y-102538850D01*
X79873500Y-101626350D01*
X79874674Y-101602458D01*
X79878184Y-101578797D01*
X79883996Y-101555593D01*
X79892054Y-101533071D01*
X79902282Y-101511447D01*
X79914579Y-101490930D01*
X79928829Y-101471717D01*
X79944893Y-101453993D01*
X79962617Y-101437929D01*
X79981830Y-101423679D01*
X80002347Y-101411382D01*
X80023971Y-101401154D01*
X80046493Y-101393096D01*
X80069697Y-101387284D01*
X80093358Y-101383774D01*
X80117250Y-101382600D01*
X80604750Y-101382600D01*
X80628642Y-101383774D01*
X80628642Y-101383774D01*
G37*
D11*
X80361000Y-102082600D03*
D10*
G36*
X78753642Y-101383774D02*
X78777303Y-101387284D01*
X78800507Y-101393096D01*
X78823029Y-101401154D01*
X78844653Y-101411382D01*
X78865170Y-101423679D01*
X78884383Y-101437929D01*
X78902107Y-101453993D01*
X78918171Y-101471717D01*
X78932421Y-101490930D01*
X78944718Y-101511447D01*
X78954946Y-101533071D01*
X78963004Y-101555593D01*
X78968816Y-101578797D01*
X78972326Y-101602458D01*
X78973500Y-101626350D01*
X78973500Y-102538850D01*
X78972326Y-102562742D01*
X78968816Y-102586403D01*
X78963004Y-102609607D01*
X78954946Y-102632129D01*
X78944718Y-102653753D01*
X78932421Y-102674270D01*
X78918171Y-102693483D01*
X78902107Y-102711207D01*
X78884383Y-102727271D01*
X78865170Y-102741521D01*
X78844653Y-102753818D01*
X78823029Y-102764046D01*
X78800507Y-102772104D01*
X78777303Y-102777916D01*
X78753642Y-102781426D01*
X78729750Y-102782600D01*
X78242250Y-102782600D01*
X78218358Y-102781426D01*
X78194697Y-102777916D01*
X78171493Y-102772104D01*
X78148971Y-102764046D01*
X78127347Y-102753818D01*
X78106830Y-102741521D01*
X78087617Y-102727271D01*
X78069893Y-102711207D01*
X78053829Y-102693483D01*
X78039579Y-102674270D01*
X78027282Y-102653753D01*
X78017054Y-102632129D01*
X78008996Y-102609607D01*
X78003184Y-102586403D01*
X77999674Y-102562742D01*
X77998500Y-102538850D01*
X77998500Y-101626350D01*
X77999674Y-101602458D01*
X78003184Y-101578797D01*
X78008996Y-101555593D01*
X78017054Y-101533071D01*
X78027282Y-101511447D01*
X78039579Y-101490930D01*
X78053829Y-101471717D01*
X78069893Y-101453993D01*
X78087617Y-101437929D01*
X78106830Y-101423679D01*
X78127347Y-101411382D01*
X78148971Y-101401154D01*
X78171493Y-101393096D01*
X78194697Y-101387284D01*
X78218358Y-101383774D01*
X78242250Y-101382600D01*
X78729750Y-101382600D01*
X78753642Y-101383774D01*
X78753642Y-101383774D01*
G37*
D11*
X78486000Y-102082600D03*
G04 #@! TD*
D10*
G04 #@! TO.C,C16*
G36*
X92058642Y-102171174D02*
X92082303Y-102174684D01*
X92105507Y-102180496D01*
X92128029Y-102188554D01*
X92149653Y-102198782D01*
X92170170Y-102211079D01*
X92189383Y-102225329D01*
X92207107Y-102241393D01*
X92223171Y-102259117D01*
X92237421Y-102278330D01*
X92249718Y-102298847D01*
X92259946Y-102320471D01*
X92268004Y-102342993D01*
X92273816Y-102366197D01*
X92277326Y-102389858D01*
X92278500Y-102413750D01*
X92278500Y-103326250D01*
X92277326Y-103350142D01*
X92273816Y-103373803D01*
X92268004Y-103397007D01*
X92259946Y-103419529D01*
X92249718Y-103441153D01*
X92237421Y-103461670D01*
X92223171Y-103480883D01*
X92207107Y-103498607D01*
X92189383Y-103514671D01*
X92170170Y-103528921D01*
X92149653Y-103541218D01*
X92128029Y-103551446D01*
X92105507Y-103559504D01*
X92082303Y-103565316D01*
X92058642Y-103568826D01*
X92034750Y-103570000D01*
X91547250Y-103570000D01*
X91523358Y-103568826D01*
X91499697Y-103565316D01*
X91476493Y-103559504D01*
X91453971Y-103551446D01*
X91432347Y-103541218D01*
X91411830Y-103528921D01*
X91392617Y-103514671D01*
X91374893Y-103498607D01*
X91358829Y-103480883D01*
X91344579Y-103461670D01*
X91332282Y-103441153D01*
X91322054Y-103419529D01*
X91313996Y-103397007D01*
X91308184Y-103373803D01*
X91304674Y-103350142D01*
X91303500Y-103326250D01*
X91303500Y-102413750D01*
X91304674Y-102389858D01*
X91308184Y-102366197D01*
X91313996Y-102342993D01*
X91322054Y-102320471D01*
X91332282Y-102298847D01*
X91344579Y-102278330D01*
X91358829Y-102259117D01*
X91374893Y-102241393D01*
X91392617Y-102225329D01*
X91411830Y-102211079D01*
X91432347Y-102198782D01*
X91453971Y-102188554D01*
X91476493Y-102180496D01*
X91499697Y-102174684D01*
X91523358Y-102171174D01*
X91547250Y-102170000D01*
X92034750Y-102170000D01*
X92058642Y-102171174D01*
X92058642Y-102171174D01*
G37*
D11*
X91791000Y-102870000D03*
D10*
G36*
X90183642Y-102171174D02*
X90207303Y-102174684D01*
X90230507Y-102180496D01*
X90253029Y-102188554D01*
X90274653Y-102198782D01*
X90295170Y-102211079D01*
X90314383Y-102225329D01*
X90332107Y-102241393D01*
X90348171Y-102259117D01*
X90362421Y-102278330D01*
X90374718Y-102298847D01*
X90384946Y-102320471D01*
X90393004Y-102342993D01*
X90398816Y-102366197D01*
X90402326Y-102389858D01*
X90403500Y-102413750D01*
X90403500Y-103326250D01*
X90402326Y-103350142D01*
X90398816Y-103373803D01*
X90393004Y-103397007D01*
X90384946Y-103419529D01*
X90374718Y-103441153D01*
X90362421Y-103461670D01*
X90348171Y-103480883D01*
X90332107Y-103498607D01*
X90314383Y-103514671D01*
X90295170Y-103528921D01*
X90274653Y-103541218D01*
X90253029Y-103551446D01*
X90230507Y-103559504D01*
X90207303Y-103565316D01*
X90183642Y-103568826D01*
X90159750Y-103570000D01*
X89672250Y-103570000D01*
X89648358Y-103568826D01*
X89624697Y-103565316D01*
X89601493Y-103559504D01*
X89578971Y-103551446D01*
X89557347Y-103541218D01*
X89536830Y-103528921D01*
X89517617Y-103514671D01*
X89499893Y-103498607D01*
X89483829Y-103480883D01*
X89469579Y-103461670D01*
X89457282Y-103441153D01*
X89447054Y-103419529D01*
X89438996Y-103397007D01*
X89433184Y-103373803D01*
X89429674Y-103350142D01*
X89428500Y-103326250D01*
X89428500Y-102413750D01*
X89429674Y-102389858D01*
X89433184Y-102366197D01*
X89438996Y-102342993D01*
X89447054Y-102320471D01*
X89457282Y-102298847D01*
X89469579Y-102278330D01*
X89483829Y-102259117D01*
X89499893Y-102241393D01*
X89517617Y-102225329D01*
X89536830Y-102211079D01*
X89557347Y-102198782D01*
X89578971Y-102188554D01*
X89601493Y-102180496D01*
X89624697Y-102174684D01*
X89648358Y-102171174D01*
X89672250Y-102170000D01*
X90159750Y-102170000D01*
X90183642Y-102171174D01*
X90183642Y-102171174D01*
G37*
D11*
X89916000Y-102870000D03*
G04 #@! TD*
D10*
G04 #@! TO.C,C17*
G36*
X90188242Y-104203174D02*
X90211903Y-104206684D01*
X90235107Y-104212496D01*
X90257629Y-104220554D01*
X90279253Y-104230782D01*
X90299770Y-104243079D01*
X90318983Y-104257329D01*
X90336707Y-104273393D01*
X90352771Y-104291117D01*
X90367021Y-104310330D01*
X90379318Y-104330847D01*
X90389546Y-104352471D01*
X90397604Y-104374993D01*
X90403416Y-104398197D01*
X90406926Y-104421858D01*
X90408100Y-104445750D01*
X90408100Y-105358250D01*
X90406926Y-105382142D01*
X90403416Y-105405803D01*
X90397604Y-105429007D01*
X90389546Y-105451529D01*
X90379318Y-105473153D01*
X90367021Y-105493670D01*
X90352771Y-105512883D01*
X90336707Y-105530607D01*
X90318983Y-105546671D01*
X90299770Y-105560921D01*
X90279253Y-105573218D01*
X90257629Y-105583446D01*
X90235107Y-105591504D01*
X90211903Y-105597316D01*
X90188242Y-105600826D01*
X90164350Y-105602000D01*
X89676850Y-105602000D01*
X89652958Y-105600826D01*
X89629297Y-105597316D01*
X89606093Y-105591504D01*
X89583571Y-105583446D01*
X89561947Y-105573218D01*
X89541430Y-105560921D01*
X89522217Y-105546671D01*
X89504493Y-105530607D01*
X89488429Y-105512883D01*
X89474179Y-105493670D01*
X89461882Y-105473153D01*
X89451654Y-105451529D01*
X89443596Y-105429007D01*
X89437784Y-105405803D01*
X89434274Y-105382142D01*
X89433100Y-105358250D01*
X89433100Y-104445750D01*
X89434274Y-104421858D01*
X89437784Y-104398197D01*
X89443596Y-104374993D01*
X89451654Y-104352471D01*
X89461882Y-104330847D01*
X89474179Y-104310330D01*
X89488429Y-104291117D01*
X89504493Y-104273393D01*
X89522217Y-104257329D01*
X89541430Y-104243079D01*
X89561947Y-104230782D01*
X89583571Y-104220554D01*
X89606093Y-104212496D01*
X89629297Y-104206684D01*
X89652958Y-104203174D01*
X89676850Y-104202000D01*
X90164350Y-104202000D01*
X90188242Y-104203174D01*
X90188242Y-104203174D01*
G37*
D11*
X89920600Y-104902000D03*
D10*
G36*
X92063242Y-104203174D02*
X92086903Y-104206684D01*
X92110107Y-104212496D01*
X92132629Y-104220554D01*
X92154253Y-104230782D01*
X92174770Y-104243079D01*
X92193983Y-104257329D01*
X92211707Y-104273393D01*
X92227771Y-104291117D01*
X92242021Y-104310330D01*
X92254318Y-104330847D01*
X92264546Y-104352471D01*
X92272604Y-104374993D01*
X92278416Y-104398197D01*
X92281926Y-104421858D01*
X92283100Y-104445750D01*
X92283100Y-105358250D01*
X92281926Y-105382142D01*
X92278416Y-105405803D01*
X92272604Y-105429007D01*
X92264546Y-105451529D01*
X92254318Y-105473153D01*
X92242021Y-105493670D01*
X92227771Y-105512883D01*
X92211707Y-105530607D01*
X92193983Y-105546671D01*
X92174770Y-105560921D01*
X92154253Y-105573218D01*
X92132629Y-105583446D01*
X92110107Y-105591504D01*
X92086903Y-105597316D01*
X92063242Y-105600826D01*
X92039350Y-105602000D01*
X91551850Y-105602000D01*
X91527958Y-105600826D01*
X91504297Y-105597316D01*
X91481093Y-105591504D01*
X91458571Y-105583446D01*
X91436947Y-105573218D01*
X91416430Y-105560921D01*
X91397217Y-105546671D01*
X91379493Y-105530607D01*
X91363429Y-105512883D01*
X91349179Y-105493670D01*
X91336882Y-105473153D01*
X91326654Y-105451529D01*
X91318596Y-105429007D01*
X91312784Y-105405803D01*
X91309274Y-105382142D01*
X91308100Y-105358250D01*
X91308100Y-104445750D01*
X91309274Y-104421858D01*
X91312784Y-104398197D01*
X91318596Y-104374993D01*
X91326654Y-104352471D01*
X91336882Y-104330847D01*
X91349179Y-104310330D01*
X91363429Y-104291117D01*
X91379493Y-104273393D01*
X91397217Y-104257329D01*
X91416430Y-104243079D01*
X91436947Y-104230782D01*
X91458571Y-104220554D01*
X91481093Y-104212496D01*
X91504297Y-104206684D01*
X91527958Y-104203174D01*
X91551850Y-104202000D01*
X92039350Y-104202000D01*
X92063242Y-104203174D01*
X92063242Y-104203174D01*
G37*
D11*
X91795600Y-104902000D03*
G04 #@! TD*
D10*
G04 #@! TO.C,C18*
G36*
X92058642Y-106235174D02*
X92082303Y-106238684D01*
X92105507Y-106244496D01*
X92128029Y-106252554D01*
X92149653Y-106262782D01*
X92170170Y-106275079D01*
X92189383Y-106289329D01*
X92207107Y-106305393D01*
X92223171Y-106323117D01*
X92237421Y-106342330D01*
X92249718Y-106362847D01*
X92259946Y-106384471D01*
X92268004Y-106406993D01*
X92273816Y-106430197D01*
X92277326Y-106453858D01*
X92278500Y-106477750D01*
X92278500Y-107390250D01*
X92277326Y-107414142D01*
X92273816Y-107437803D01*
X92268004Y-107461007D01*
X92259946Y-107483529D01*
X92249718Y-107505153D01*
X92237421Y-107525670D01*
X92223171Y-107544883D01*
X92207107Y-107562607D01*
X92189383Y-107578671D01*
X92170170Y-107592921D01*
X92149653Y-107605218D01*
X92128029Y-107615446D01*
X92105507Y-107623504D01*
X92082303Y-107629316D01*
X92058642Y-107632826D01*
X92034750Y-107634000D01*
X91547250Y-107634000D01*
X91523358Y-107632826D01*
X91499697Y-107629316D01*
X91476493Y-107623504D01*
X91453971Y-107615446D01*
X91432347Y-107605218D01*
X91411830Y-107592921D01*
X91392617Y-107578671D01*
X91374893Y-107562607D01*
X91358829Y-107544883D01*
X91344579Y-107525670D01*
X91332282Y-107505153D01*
X91322054Y-107483529D01*
X91313996Y-107461007D01*
X91308184Y-107437803D01*
X91304674Y-107414142D01*
X91303500Y-107390250D01*
X91303500Y-106477750D01*
X91304674Y-106453858D01*
X91308184Y-106430197D01*
X91313996Y-106406993D01*
X91322054Y-106384471D01*
X91332282Y-106362847D01*
X91344579Y-106342330D01*
X91358829Y-106323117D01*
X91374893Y-106305393D01*
X91392617Y-106289329D01*
X91411830Y-106275079D01*
X91432347Y-106262782D01*
X91453971Y-106252554D01*
X91476493Y-106244496D01*
X91499697Y-106238684D01*
X91523358Y-106235174D01*
X91547250Y-106234000D01*
X92034750Y-106234000D01*
X92058642Y-106235174D01*
X92058642Y-106235174D01*
G37*
D11*
X91791000Y-106934000D03*
D10*
G36*
X90183642Y-106235174D02*
X90207303Y-106238684D01*
X90230507Y-106244496D01*
X90253029Y-106252554D01*
X90274653Y-106262782D01*
X90295170Y-106275079D01*
X90314383Y-106289329D01*
X90332107Y-106305393D01*
X90348171Y-106323117D01*
X90362421Y-106342330D01*
X90374718Y-106362847D01*
X90384946Y-106384471D01*
X90393004Y-106406993D01*
X90398816Y-106430197D01*
X90402326Y-106453858D01*
X90403500Y-106477750D01*
X90403500Y-107390250D01*
X90402326Y-107414142D01*
X90398816Y-107437803D01*
X90393004Y-107461007D01*
X90384946Y-107483529D01*
X90374718Y-107505153D01*
X90362421Y-107525670D01*
X90348171Y-107544883D01*
X90332107Y-107562607D01*
X90314383Y-107578671D01*
X90295170Y-107592921D01*
X90274653Y-107605218D01*
X90253029Y-107615446D01*
X90230507Y-107623504D01*
X90207303Y-107629316D01*
X90183642Y-107632826D01*
X90159750Y-107634000D01*
X89672250Y-107634000D01*
X89648358Y-107632826D01*
X89624697Y-107629316D01*
X89601493Y-107623504D01*
X89578971Y-107615446D01*
X89557347Y-107605218D01*
X89536830Y-107592921D01*
X89517617Y-107578671D01*
X89499893Y-107562607D01*
X89483829Y-107544883D01*
X89469579Y-107525670D01*
X89457282Y-107505153D01*
X89447054Y-107483529D01*
X89438996Y-107461007D01*
X89433184Y-107437803D01*
X89429674Y-107414142D01*
X89428500Y-107390250D01*
X89428500Y-106477750D01*
X89429674Y-106453858D01*
X89433184Y-106430197D01*
X89438996Y-106406993D01*
X89447054Y-106384471D01*
X89457282Y-106362847D01*
X89469579Y-106342330D01*
X89483829Y-106323117D01*
X89499893Y-106305393D01*
X89517617Y-106289329D01*
X89536830Y-106275079D01*
X89557347Y-106262782D01*
X89578971Y-106252554D01*
X89601493Y-106244496D01*
X89624697Y-106238684D01*
X89648358Y-106235174D01*
X89672250Y-106234000D01*
X90159750Y-106234000D01*
X90183642Y-106235174D01*
X90183642Y-106235174D01*
G37*
D11*
X89916000Y-106934000D03*
G04 #@! TD*
D10*
G04 #@! TO.C,D1*
G36*
X103602704Y-80406204D02*
X103626973Y-80409804D01*
X103650771Y-80415765D01*
X103673871Y-80424030D01*
X103696049Y-80434520D01*
X103717093Y-80447133D01*
X103736798Y-80461747D01*
X103754977Y-80478223D01*
X103771453Y-80496402D01*
X103786067Y-80516107D01*
X103798680Y-80537151D01*
X103809170Y-80559329D01*
X103817435Y-80582429D01*
X103823396Y-80606227D01*
X103826996Y-80630496D01*
X103828200Y-80655000D01*
X103828200Y-81905000D01*
X103826996Y-81929504D01*
X103823396Y-81953773D01*
X103817435Y-81977571D01*
X103809170Y-82000671D01*
X103798680Y-82022849D01*
X103786067Y-82043893D01*
X103771453Y-82063598D01*
X103754977Y-82081777D01*
X103736798Y-82098253D01*
X103717093Y-82112867D01*
X103696049Y-82125480D01*
X103673871Y-82135970D01*
X103650771Y-82144235D01*
X103626973Y-82150196D01*
X103602704Y-82153796D01*
X103578200Y-82155000D01*
X102828200Y-82155000D01*
X102803696Y-82153796D01*
X102779427Y-82150196D01*
X102755629Y-82144235D01*
X102732529Y-82135970D01*
X102710351Y-82125480D01*
X102689307Y-82112867D01*
X102669602Y-82098253D01*
X102651423Y-82081777D01*
X102634947Y-82063598D01*
X102620333Y-82043893D01*
X102607720Y-82022849D01*
X102597230Y-82000671D01*
X102588965Y-81977571D01*
X102583004Y-81953773D01*
X102579404Y-81929504D01*
X102578200Y-81905000D01*
X102578200Y-80655000D01*
X102579404Y-80630496D01*
X102583004Y-80606227D01*
X102588965Y-80582429D01*
X102597230Y-80559329D01*
X102607720Y-80537151D01*
X102620333Y-80516107D01*
X102634947Y-80496402D01*
X102651423Y-80478223D01*
X102669602Y-80461747D01*
X102689307Y-80447133D01*
X102710351Y-80434520D01*
X102732529Y-80424030D01*
X102755629Y-80415765D01*
X102779427Y-80409804D01*
X102803696Y-80406204D01*
X102828200Y-80405000D01*
X103578200Y-80405000D01*
X103602704Y-80406204D01*
X103602704Y-80406204D01*
G37*
D12*
X103203200Y-81280000D03*
D10*
G36*
X100802704Y-80406204D02*
X100826973Y-80409804D01*
X100850771Y-80415765D01*
X100873871Y-80424030D01*
X100896049Y-80434520D01*
X100917093Y-80447133D01*
X100936798Y-80461747D01*
X100954977Y-80478223D01*
X100971453Y-80496402D01*
X100986067Y-80516107D01*
X100998680Y-80537151D01*
X101009170Y-80559329D01*
X101017435Y-80582429D01*
X101023396Y-80606227D01*
X101026996Y-80630496D01*
X101028200Y-80655000D01*
X101028200Y-81905000D01*
X101026996Y-81929504D01*
X101023396Y-81953773D01*
X101017435Y-81977571D01*
X101009170Y-82000671D01*
X100998680Y-82022849D01*
X100986067Y-82043893D01*
X100971453Y-82063598D01*
X100954977Y-82081777D01*
X100936798Y-82098253D01*
X100917093Y-82112867D01*
X100896049Y-82125480D01*
X100873871Y-82135970D01*
X100850771Y-82144235D01*
X100826973Y-82150196D01*
X100802704Y-82153796D01*
X100778200Y-82155000D01*
X100028200Y-82155000D01*
X100003696Y-82153796D01*
X99979427Y-82150196D01*
X99955629Y-82144235D01*
X99932529Y-82135970D01*
X99910351Y-82125480D01*
X99889307Y-82112867D01*
X99869602Y-82098253D01*
X99851423Y-82081777D01*
X99834947Y-82063598D01*
X99820333Y-82043893D01*
X99807720Y-82022849D01*
X99797230Y-82000671D01*
X99788965Y-81977571D01*
X99783004Y-81953773D01*
X99779404Y-81929504D01*
X99778200Y-81905000D01*
X99778200Y-80655000D01*
X99779404Y-80630496D01*
X99783004Y-80606227D01*
X99788965Y-80582429D01*
X99797230Y-80559329D01*
X99807720Y-80537151D01*
X99820333Y-80516107D01*
X99834947Y-80496402D01*
X99851423Y-80478223D01*
X99869602Y-80461747D01*
X99889307Y-80447133D01*
X99910351Y-80434520D01*
X99932529Y-80424030D01*
X99955629Y-80415765D01*
X99979427Y-80409804D01*
X100003696Y-80406204D01*
X100028200Y-80405000D01*
X100778200Y-80405000D01*
X100802704Y-80406204D01*
X100802704Y-80406204D01*
G37*
D12*
X100403200Y-81280000D03*
G04 #@! TD*
D13*
G04 #@! TO.C,D2*
X94920800Y-82143600D03*
X98220800Y-82143600D03*
G04 #@! TD*
D10*
G04 #@! TO.C,R1*
G36*
X78779042Y-105346174D02*
X78802703Y-105349684D01*
X78825907Y-105355496D01*
X78848429Y-105363554D01*
X78870053Y-105373782D01*
X78890570Y-105386079D01*
X78909783Y-105400329D01*
X78927507Y-105416393D01*
X78943571Y-105434117D01*
X78957821Y-105453330D01*
X78970118Y-105473847D01*
X78980346Y-105495471D01*
X78988404Y-105517993D01*
X78994216Y-105541197D01*
X78997726Y-105564858D01*
X78998900Y-105588750D01*
X78998900Y-106501250D01*
X78997726Y-106525142D01*
X78994216Y-106548803D01*
X78988404Y-106572007D01*
X78980346Y-106594529D01*
X78970118Y-106616153D01*
X78957821Y-106636670D01*
X78943571Y-106655883D01*
X78927507Y-106673607D01*
X78909783Y-106689671D01*
X78890570Y-106703921D01*
X78870053Y-106716218D01*
X78848429Y-106726446D01*
X78825907Y-106734504D01*
X78802703Y-106740316D01*
X78779042Y-106743826D01*
X78755150Y-106745000D01*
X78267650Y-106745000D01*
X78243758Y-106743826D01*
X78220097Y-106740316D01*
X78196893Y-106734504D01*
X78174371Y-106726446D01*
X78152747Y-106716218D01*
X78132230Y-106703921D01*
X78113017Y-106689671D01*
X78095293Y-106673607D01*
X78079229Y-106655883D01*
X78064979Y-106636670D01*
X78052682Y-106616153D01*
X78042454Y-106594529D01*
X78034396Y-106572007D01*
X78028584Y-106548803D01*
X78025074Y-106525142D01*
X78023900Y-106501250D01*
X78023900Y-105588750D01*
X78025074Y-105564858D01*
X78028584Y-105541197D01*
X78034396Y-105517993D01*
X78042454Y-105495471D01*
X78052682Y-105473847D01*
X78064979Y-105453330D01*
X78079229Y-105434117D01*
X78095293Y-105416393D01*
X78113017Y-105400329D01*
X78132230Y-105386079D01*
X78152747Y-105373782D01*
X78174371Y-105363554D01*
X78196893Y-105355496D01*
X78220097Y-105349684D01*
X78243758Y-105346174D01*
X78267650Y-105345000D01*
X78755150Y-105345000D01*
X78779042Y-105346174D01*
X78779042Y-105346174D01*
G37*
D11*
X78511400Y-106045000D03*
D10*
G36*
X80654042Y-105346174D02*
X80677703Y-105349684D01*
X80700907Y-105355496D01*
X80723429Y-105363554D01*
X80745053Y-105373782D01*
X80765570Y-105386079D01*
X80784783Y-105400329D01*
X80802507Y-105416393D01*
X80818571Y-105434117D01*
X80832821Y-105453330D01*
X80845118Y-105473847D01*
X80855346Y-105495471D01*
X80863404Y-105517993D01*
X80869216Y-105541197D01*
X80872726Y-105564858D01*
X80873900Y-105588750D01*
X80873900Y-106501250D01*
X80872726Y-106525142D01*
X80869216Y-106548803D01*
X80863404Y-106572007D01*
X80855346Y-106594529D01*
X80845118Y-106616153D01*
X80832821Y-106636670D01*
X80818571Y-106655883D01*
X80802507Y-106673607D01*
X80784783Y-106689671D01*
X80765570Y-106703921D01*
X80745053Y-106716218D01*
X80723429Y-106726446D01*
X80700907Y-106734504D01*
X80677703Y-106740316D01*
X80654042Y-106743826D01*
X80630150Y-106745000D01*
X80142650Y-106745000D01*
X80118758Y-106743826D01*
X80095097Y-106740316D01*
X80071893Y-106734504D01*
X80049371Y-106726446D01*
X80027747Y-106716218D01*
X80007230Y-106703921D01*
X79988017Y-106689671D01*
X79970293Y-106673607D01*
X79954229Y-106655883D01*
X79939979Y-106636670D01*
X79927682Y-106616153D01*
X79917454Y-106594529D01*
X79909396Y-106572007D01*
X79903584Y-106548803D01*
X79900074Y-106525142D01*
X79898900Y-106501250D01*
X79898900Y-105588750D01*
X79900074Y-105564858D01*
X79903584Y-105541197D01*
X79909396Y-105517993D01*
X79917454Y-105495471D01*
X79927682Y-105473847D01*
X79939979Y-105453330D01*
X79954229Y-105434117D01*
X79970293Y-105416393D01*
X79988017Y-105400329D01*
X80007230Y-105386079D01*
X80027747Y-105373782D01*
X80049371Y-105363554D01*
X80071893Y-105355496D01*
X80095097Y-105349684D01*
X80118758Y-105346174D01*
X80142650Y-105345000D01*
X80630150Y-105345000D01*
X80654042Y-105346174D01*
X80654042Y-105346174D01*
G37*
D11*
X80386400Y-106045000D03*
G04 #@! TD*
D10*
G04 #@! TO.C,R2*
G36*
X80656342Y-107301974D02*
X80680003Y-107305484D01*
X80703207Y-107311296D01*
X80725729Y-107319354D01*
X80747353Y-107329582D01*
X80767870Y-107341879D01*
X80787083Y-107356129D01*
X80804807Y-107372193D01*
X80820871Y-107389917D01*
X80835121Y-107409130D01*
X80847418Y-107429647D01*
X80857646Y-107451271D01*
X80865704Y-107473793D01*
X80871516Y-107496997D01*
X80875026Y-107520658D01*
X80876200Y-107544550D01*
X80876200Y-108457050D01*
X80875026Y-108480942D01*
X80871516Y-108504603D01*
X80865704Y-108527807D01*
X80857646Y-108550329D01*
X80847418Y-108571953D01*
X80835121Y-108592470D01*
X80820871Y-108611683D01*
X80804807Y-108629407D01*
X80787083Y-108645471D01*
X80767870Y-108659721D01*
X80747353Y-108672018D01*
X80725729Y-108682246D01*
X80703207Y-108690304D01*
X80680003Y-108696116D01*
X80656342Y-108699626D01*
X80632450Y-108700800D01*
X80144950Y-108700800D01*
X80121058Y-108699626D01*
X80097397Y-108696116D01*
X80074193Y-108690304D01*
X80051671Y-108682246D01*
X80030047Y-108672018D01*
X80009530Y-108659721D01*
X79990317Y-108645471D01*
X79972593Y-108629407D01*
X79956529Y-108611683D01*
X79942279Y-108592470D01*
X79929982Y-108571953D01*
X79919754Y-108550329D01*
X79911696Y-108527807D01*
X79905884Y-108504603D01*
X79902374Y-108480942D01*
X79901200Y-108457050D01*
X79901200Y-107544550D01*
X79902374Y-107520658D01*
X79905884Y-107496997D01*
X79911696Y-107473793D01*
X79919754Y-107451271D01*
X79929982Y-107429647D01*
X79942279Y-107409130D01*
X79956529Y-107389917D01*
X79972593Y-107372193D01*
X79990317Y-107356129D01*
X80009530Y-107341879D01*
X80030047Y-107329582D01*
X80051671Y-107319354D01*
X80074193Y-107311296D01*
X80097397Y-107305484D01*
X80121058Y-107301974D01*
X80144950Y-107300800D01*
X80632450Y-107300800D01*
X80656342Y-107301974D01*
X80656342Y-107301974D01*
G37*
D11*
X80388700Y-108000800D03*
D10*
G36*
X78781342Y-107301974D02*
X78805003Y-107305484D01*
X78828207Y-107311296D01*
X78850729Y-107319354D01*
X78872353Y-107329582D01*
X78892870Y-107341879D01*
X78912083Y-107356129D01*
X78929807Y-107372193D01*
X78945871Y-107389917D01*
X78960121Y-107409130D01*
X78972418Y-107429647D01*
X78982646Y-107451271D01*
X78990704Y-107473793D01*
X78996516Y-107496997D01*
X79000026Y-107520658D01*
X79001200Y-107544550D01*
X79001200Y-108457050D01*
X79000026Y-108480942D01*
X78996516Y-108504603D01*
X78990704Y-108527807D01*
X78982646Y-108550329D01*
X78972418Y-108571953D01*
X78960121Y-108592470D01*
X78945871Y-108611683D01*
X78929807Y-108629407D01*
X78912083Y-108645471D01*
X78892870Y-108659721D01*
X78872353Y-108672018D01*
X78850729Y-108682246D01*
X78828207Y-108690304D01*
X78805003Y-108696116D01*
X78781342Y-108699626D01*
X78757450Y-108700800D01*
X78269950Y-108700800D01*
X78246058Y-108699626D01*
X78222397Y-108696116D01*
X78199193Y-108690304D01*
X78176671Y-108682246D01*
X78155047Y-108672018D01*
X78134530Y-108659721D01*
X78115317Y-108645471D01*
X78097593Y-108629407D01*
X78081529Y-108611683D01*
X78067279Y-108592470D01*
X78054982Y-108571953D01*
X78044754Y-108550329D01*
X78036696Y-108527807D01*
X78030884Y-108504603D01*
X78027374Y-108480942D01*
X78026200Y-108457050D01*
X78026200Y-107544550D01*
X78027374Y-107520658D01*
X78030884Y-107496997D01*
X78036696Y-107473793D01*
X78044754Y-107451271D01*
X78054982Y-107429647D01*
X78067279Y-107409130D01*
X78081529Y-107389917D01*
X78097593Y-107372193D01*
X78115317Y-107356129D01*
X78134530Y-107341879D01*
X78155047Y-107329582D01*
X78176671Y-107319354D01*
X78199193Y-107311296D01*
X78222397Y-107305484D01*
X78246058Y-107301974D01*
X78269950Y-107300800D01*
X78757450Y-107300800D01*
X78781342Y-107301974D01*
X78781342Y-107301974D01*
G37*
D11*
X78513700Y-108000800D03*
G04 #@! TD*
D10*
G04 #@! TO.C,R3*
G36*
X111859142Y-106750174D02*
X111882803Y-106753684D01*
X111906007Y-106759496D01*
X111928529Y-106767554D01*
X111950153Y-106777782D01*
X111970670Y-106790079D01*
X111989883Y-106804329D01*
X112007607Y-106820393D01*
X112023671Y-106838117D01*
X112037921Y-106857330D01*
X112050218Y-106877847D01*
X112060446Y-106899471D01*
X112068504Y-106921993D01*
X112074316Y-106945197D01*
X112077826Y-106968858D01*
X112079000Y-106992750D01*
X112079000Y-107480250D01*
X112077826Y-107504142D01*
X112074316Y-107527803D01*
X112068504Y-107551007D01*
X112060446Y-107573529D01*
X112050218Y-107595153D01*
X112037921Y-107615670D01*
X112023671Y-107634883D01*
X112007607Y-107652607D01*
X111989883Y-107668671D01*
X111970670Y-107682921D01*
X111950153Y-107695218D01*
X111928529Y-107705446D01*
X111906007Y-107713504D01*
X111882803Y-107719316D01*
X111859142Y-107722826D01*
X111835250Y-107724000D01*
X110922750Y-107724000D01*
X110898858Y-107722826D01*
X110875197Y-107719316D01*
X110851993Y-107713504D01*
X110829471Y-107705446D01*
X110807847Y-107695218D01*
X110787330Y-107682921D01*
X110768117Y-107668671D01*
X110750393Y-107652607D01*
X110734329Y-107634883D01*
X110720079Y-107615670D01*
X110707782Y-107595153D01*
X110697554Y-107573529D01*
X110689496Y-107551007D01*
X110683684Y-107527803D01*
X110680174Y-107504142D01*
X110679000Y-107480250D01*
X110679000Y-106992750D01*
X110680174Y-106968858D01*
X110683684Y-106945197D01*
X110689496Y-106921993D01*
X110697554Y-106899471D01*
X110707782Y-106877847D01*
X110720079Y-106857330D01*
X110734329Y-106838117D01*
X110750393Y-106820393D01*
X110768117Y-106804329D01*
X110787330Y-106790079D01*
X110807847Y-106777782D01*
X110829471Y-106767554D01*
X110851993Y-106759496D01*
X110875197Y-106753684D01*
X110898858Y-106750174D01*
X110922750Y-106749000D01*
X111835250Y-106749000D01*
X111859142Y-106750174D01*
X111859142Y-106750174D01*
G37*
D11*
X111379000Y-107236500D03*
D10*
G36*
X111859142Y-104875174D02*
X111882803Y-104878684D01*
X111906007Y-104884496D01*
X111928529Y-104892554D01*
X111950153Y-104902782D01*
X111970670Y-104915079D01*
X111989883Y-104929329D01*
X112007607Y-104945393D01*
X112023671Y-104963117D01*
X112037921Y-104982330D01*
X112050218Y-105002847D01*
X112060446Y-105024471D01*
X112068504Y-105046993D01*
X112074316Y-105070197D01*
X112077826Y-105093858D01*
X112079000Y-105117750D01*
X112079000Y-105605250D01*
X112077826Y-105629142D01*
X112074316Y-105652803D01*
X112068504Y-105676007D01*
X112060446Y-105698529D01*
X112050218Y-105720153D01*
X112037921Y-105740670D01*
X112023671Y-105759883D01*
X112007607Y-105777607D01*
X111989883Y-105793671D01*
X111970670Y-105807921D01*
X111950153Y-105820218D01*
X111928529Y-105830446D01*
X111906007Y-105838504D01*
X111882803Y-105844316D01*
X111859142Y-105847826D01*
X111835250Y-105849000D01*
X110922750Y-105849000D01*
X110898858Y-105847826D01*
X110875197Y-105844316D01*
X110851993Y-105838504D01*
X110829471Y-105830446D01*
X110807847Y-105820218D01*
X110787330Y-105807921D01*
X110768117Y-105793671D01*
X110750393Y-105777607D01*
X110734329Y-105759883D01*
X110720079Y-105740670D01*
X110707782Y-105720153D01*
X110697554Y-105698529D01*
X110689496Y-105676007D01*
X110683684Y-105652803D01*
X110680174Y-105629142D01*
X110679000Y-105605250D01*
X110679000Y-105117750D01*
X110680174Y-105093858D01*
X110683684Y-105070197D01*
X110689496Y-105046993D01*
X110697554Y-105024471D01*
X110707782Y-105002847D01*
X110720079Y-104982330D01*
X110734329Y-104963117D01*
X110750393Y-104945393D01*
X110768117Y-104929329D01*
X110787330Y-104915079D01*
X110807847Y-104902782D01*
X110829471Y-104892554D01*
X110851993Y-104884496D01*
X110875197Y-104878684D01*
X110898858Y-104875174D01*
X110922750Y-104874000D01*
X111835250Y-104874000D01*
X111859142Y-104875174D01*
X111859142Y-104875174D01*
G37*
D11*
X111379000Y-105361500D03*
G04 #@! TD*
D10*
G04 #@! TO.C,R4*
G36*
X109192142Y-104875174D02*
X109215803Y-104878684D01*
X109239007Y-104884496D01*
X109261529Y-104892554D01*
X109283153Y-104902782D01*
X109303670Y-104915079D01*
X109322883Y-104929329D01*
X109340607Y-104945393D01*
X109356671Y-104963117D01*
X109370921Y-104982330D01*
X109383218Y-105002847D01*
X109393446Y-105024471D01*
X109401504Y-105046993D01*
X109407316Y-105070197D01*
X109410826Y-105093858D01*
X109412000Y-105117750D01*
X109412000Y-105605250D01*
X109410826Y-105629142D01*
X109407316Y-105652803D01*
X109401504Y-105676007D01*
X109393446Y-105698529D01*
X109383218Y-105720153D01*
X109370921Y-105740670D01*
X109356671Y-105759883D01*
X109340607Y-105777607D01*
X109322883Y-105793671D01*
X109303670Y-105807921D01*
X109283153Y-105820218D01*
X109261529Y-105830446D01*
X109239007Y-105838504D01*
X109215803Y-105844316D01*
X109192142Y-105847826D01*
X109168250Y-105849000D01*
X108255750Y-105849000D01*
X108231858Y-105847826D01*
X108208197Y-105844316D01*
X108184993Y-105838504D01*
X108162471Y-105830446D01*
X108140847Y-105820218D01*
X108120330Y-105807921D01*
X108101117Y-105793671D01*
X108083393Y-105777607D01*
X108067329Y-105759883D01*
X108053079Y-105740670D01*
X108040782Y-105720153D01*
X108030554Y-105698529D01*
X108022496Y-105676007D01*
X108016684Y-105652803D01*
X108013174Y-105629142D01*
X108012000Y-105605250D01*
X108012000Y-105117750D01*
X108013174Y-105093858D01*
X108016684Y-105070197D01*
X108022496Y-105046993D01*
X108030554Y-105024471D01*
X108040782Y-105002847D01*
X108053079Y-104982330D01*
X108067329Y-104963117D01*
X108083393Y-104945393D01*
X108101117Y-104929329D01*
X108120330Y-104915079D01*
X108140847Y-104902782D01*
X108162471Y-104892554D01*
X108184993Y-104884496D01*
X108208197Y-104878684D01*
X108231858Y-104875174D01*
X108255750Y-104874000D01*
X109168250Y-104874000D01*
X109192142Y-104875174D01*
X109192142Y-104875174D01*
G37*
D11*
X108712000Y-105361500D03*
D10*
G36*
X109192142Y-106750174D02*
X109215803Y-106753684D01*
X109239007Y-106759496D01*
X109261529Y-106767554D01*
X109283153Y-106777782D01*
X109303670Y-106790079D01*
X109322883Y-106804329D01*
X109340607Y-106820393D01*
X109356671Y-106838117D01*
X109370921Y-106857330D01*
X109383218Y-106877847D01*
X109393446Y-106899471D01*
X109401504Y-106921993D01*
X109407316Y-106945197D01*
X109410826Y-106968858D01*
X109412000Y-106992750D01*
X109412000Y-107480250D01*
X109410826Y-107504142D01*
X109407316Y-107527803D01*
X109401504Y-107551007D01*
X109393446Y-107573529D01*
X109383218Y-107595153D01*
X109370921Y-107615670D01*
X109356671Y-107634883D01*
X109340607Y-107652607D01*
X109322883Y-107668671D01*
X109303670Y-107682921D01*
X109283153Y-107695218D01*
X109261529Y-107705446D01*
X109239007Y-107713504D01*
X109215803Y-107719316D01*
X109192142Y-107722826D01*
X109168250Y-107724000D01*
X108255750Y-107724000D01*
X108231858Y-107722826D01*
X108208197Y-107719316D01*
X108184993Y-107713504D01*
X108162471Y-107705446D01*
X108140847Y-107695218D01*
X108120330Y-107682921D01*
X108101117Y-107668671D01*
X108083393Y-107652607D01*
X108067329Y-107634883D01*
X108053079Y-107615670D01*
X108040782Y-107595153D01*
X108030554Y-107573529D01*
X108022496Y-107551007D01*
X108016684Y-107527803D01*
X108013174Y-107504142D01*
X108012000Y-107480250D01*
X108012000Y-106992750D01*
X108013174Y-106968858D01*
X108016684Y-106945197D01*
X108022496Y-106921993D01*
X108030554Y-106899471D01*
X108040782Y-106877847D01*
X108053079Y-106857330D01*
X108067329Y-106838117D01*
X108083393Y-106820393D01*
X108101117Y-106804329D01*
X108120330Y-106790079D01*
X108140847Y-106777782D01*
X108162471Y-106767554D01*
X108184993Y-106759496D01*
X108208197Y-106753684D01*
X108231858Y-106750174D01*
X108255750Y-106749000D01*
X109168250Y-106749000D01*
X109192142Y-106750174D01*
X109192142Y-106750174D01*
G37*
D11*
X108712000Y-107236500D03*
G04 #@! TD*
D10*
G04 #@! TO.C,R5*
G36*
X103183842Y-83679974D02*
X103207503Y-83683484D01*
X103230707Y-83689296D01*
X103253229Y-83697354D01*
X103274853Y-83707582D01*
X103295370Y-83719879D01*
X103314583Y-83734129D01*
X103332307Y-83750193D01*
X103348371Y-83767917D01*
X103362621Y-83787130D01*
X103374918Y-83807647D01*
X103385146Y-83829271D01*
X103393204Y-83851793D01*
X103399016Y-83874997D01*
X103402526Y-83898658D01*
X103403700Y-83922550D01*
X103403700Y-84835050D01*
X103402526Y-84858942D01*
X103399016Y-84882603D01*
X103393204Y-84905807D01*
X103385146Y-84928329D01*
X103374918Y-84949953D01*
X103362621Y-84970470D01*
X103348371Y-84989683D01*
X103332307Y-85007407D01*
X103314583Y-85023471D01*
X103295370Y-85037721D01*
X103274853Y-85050018D01*
X103253229Y-85060246D01*
X103230707Y-85068304D01*
X103207503Y-85074116D01*
X103183842Y-85077626D01*
X103159950Y-85078800D01*
X102672450Y-85078800D01*
X102648558Y-85077626D01*
X102624897Y-85074116D01*
X102601693Y-85068304D01*
X102579171Y-85060246D01*
X102557547Y-85050018D01*
X102537030Y-85037721D01*
X102517817Y-85023471D01*
X102500093Y-85007407D01*
X102484029Y-84989683D01*
X102469779Y-84970470D01*
X102457482Y-84949953D01*
X102447254Y-84928329D01*
X102439196Y-84905807D01*
X102433384Y-84882603D01*
X102429874Y-84858942D01*
X102428700Y-84835050D01*
X102428700Y-83922550D01*
X102429874Y-83898658D01*
X102433384Y-83874997D01*
X102439196Y-83851793D01*
X102447254Y-83829271D01*
X102457482Y-83807647D01*
X102469779Y-83787130D01*
X102484029Y-83767917D01*
X102500093Y-83750193D01*
X102517817Y-83734129D01*
X102537030Y-83719879D01*
X102557547Y-83707582D01*
X102579171Y-83697354D01*
X102601693Y-83689296D01*
X102624897Y-83683484D01*
X102648558Y-83679974D01*
X102672450Y-83678800D01*
X103159950Y-83678800D01*
X103183842Y-83679974D01*
X103183842Y-83679974D01*
G37*
D11*
X102916200Y-84378800D03*
D10*
G36*
X101308842Y-83679974D02*
X101332503Y-83683484D01*
X101355707Y-83689296D01*
X101378229Y-83697354D01*
X101399853Y-83707582D01*
X101420370Y-83719879D01*
X101439583Y-83734129D01*
X101457307Y-83750193D01*
X101473371Y-83767917D01*
X101487621Y-83787130D01*
X101499918Y-83807647D01*
X101510146Y-83829271D01*
X101518204Y-83851793D01*
X101524016Y-83874997D01*
X101527526Y-83898658D01*
X101528700Y-83922550D01*
X101528700Y-84835050D01*
X101527526Y-84858942D01*
X101524016Y-84882603D01*
X101518204Y-84905807D01*
X101510146Y-84928329D01*
X101499918Y-84949953D01*
X101487621Y-84970470D01*
X101473371Y-84989683D01*
X101457307Y-85007407D01*
X101439583Y-85023471D01*
X101420370Y-85037721D01*
X101399853Y-85050018D01*
X101378229Y-85060246D01*
X101355707Y-85068304D01*
X101332503Y-85074116D01*
X101308842Y-85077626D01*
X101284950Y-85078800D01*
X100797450Y-85078800D01*
X100773558Y-85077626D01*
X100749897Y-85074116D01*
X100726693Y-85068304D01*
X100704171Y-85060246D01*
X100682547Y-85050018D01*
X100662030Y-85037721D01*
X100642817Y-85023471D01*
X100625093Y-85007407D01*
X100609029Y-84989683D01*
X100594779Y-84970470D01*
X100582482Y-84949953D01*
X100572254Y-84928329D01*
X100564196Y-84905807D01*
X100558384Y-84882603D01*
X100554874Y-84858942D01*
X100553700Y-84835050D01*
X100553700Y-83922550D01*
X100554874Y-83898658D01*
X100558384Y-83874997D01*
X100564196Y-83851793D01*
X100572254Y-83829271D01*
X100582482Y-83807647D01*
X100594779Y-83787130D01*
X100609029Y-83767917D01*
X100625093Y-83750193D01*
X100642817Y-83734129D01*
X100662030Y-83719879D01*
X100682547Y-83707582D01*
X100704171Y-83697354D01*
X100726693Y-83689296D01*
X100749897Y-83683484D01*
X100773558Y-83679974D01*
X100797450Y-83678800D01*
X101284950Y-83678800D01*
X101308842Y-83679974D01*
X101308842Y-83679974D01*
G37*
D11*
X101041200Y-84378800D03*
G04 #@! TD*
D10*
G04 #@! TO.C,R6*
G36*
X98600342Y-78987974D02*
X98624003Y-78991484D01*
X98647207Y-78997296D01*
X98669729Y-79005354D01*
X98691353Y-79015582D01*
X98711870Y-79027879D01*
X98731083Y-79042129D01*
X98748807Y-79058193D01*
X98764871Y-79075917D01*
X98779121Y-79095130D01*
X98791418Y-79115647D01*
X98801646Y-79137271D01*
X98809704Y-79159793D01*
X98815516Y-79182997D01*
X98819026Y-79206658D01*
X98820200Y-79230550D01*
X98820200Y-79718050D01*
X98819026Y-79741942D01*
X98815516Y-79765603D01*
X98809704Y-79788807D01*
X98801646Y-79811329D01*
X98791418Y-79832953D01*
X98779121Y-79853470D01*
X98764871Y-79872683D01*
X98748807Y-79890407D01*
X98731083Y-79906471D01*
X98711870Y-79920721D01*
X98691353Y-79933018D01*
X98669729Y-79943246D01*
X98647207Y-79951304D01*
X98624003Y-79957116D01*
X98600342Y-79960626D01*
X98576450Y-79961800D01*
X97663950Y-79961800D01*
X97640058Y-79960626D01*
X97616397Y-79957116D01*
X97593193Y-79951304D01*
X97570671Y-79943246D01*
X97549047Y-79933018D01*
X97528530Y-79920721D01*
X97509317Y-79906471D01*
X97491593Y-79890407D01*
X97475529Y-79872683D01*
X97461279Y-79853470D01*
X97448982Y-79832953D01*
X97438754Y-79811329D01*
X97430696Y-79788807D01*
X97424884Y-79765603D01*
X97421374Y-79741942D01*
X97420200Y-79718050D01*
X97420200Y-79230550D01*
X97421374Y-79206658D01*
X97424884Y-79182997D01*
X97430696Y-79159793D01*
X97438754Y-79137271D01*
X97448982Y-79115647D01*
X97461279Y-79095130D01*
X97475529Y-79075917D01*
X97491593Y-79058193D01*
X97509317Y-79042129D01*
X97528530Y-79027879D01*
X97549047Y-79015582D01*
X97570671Y-79005354D01*
X97593193Y-78997296D01*
X97616397Y-78991484D01*
X97640058Y-78987974D01*
X97663950Y-78986800D01*
X98576450Y-78986800D01*
X98600342Y-78987974D01*
X98600342Y-78987974D01*
G37*
D11*
X98120200Y-79474300D03*
D10*
G36*
X98600342Y-77112974D02*
X98624003Y-77116484D01*
X98647207Y-77122296D01*
X98669729Y-77130354D01*
X98691353Y-77140582D01*
X98711870Y-77152879D01*
X98731083Y-77167129D01*
X98748807Y-77183193D01*
X98764871Y-77200917D01*
X98779121Y-77220130D01*
X98791418Y-77240647D01*
X98801646Y-77262271D01*
X98809704Y-77284793D01*
X98815516Y-77307997D01*
X98819026Y-77331658D01*
X98820200Y-77355550D01*
X98820200Y-77843050D01*
X98819026Y-77866942D01*
X98815516Y-77890603D01*
X98809704Y-77913807D01*
X98801646Y-77936329D01*
X98791418Y-77957953D01*
X98779121Y-77978470D01*
X98764871Y-77997683D01*
X98748807Y-78015407D01*
X98731083Y-78031471D01*
X98711870Y-78045721D01*
X98691353Y-78058018D01*
X98669729Y-78068246D01*
X98647207Y-78076304D01*
X98624003Y-78082116D01*
X98600342Y-78085626D01*
X98576450Y-78086800D01*
X97663950Y-78086800D01*
X97640058Y-78085626D01*
X97616397Y-78082116D01*
X97593193Y-78076304D01*
X97570671Y-78068246D01*
X97549047Y-78058018D01*
X97528530Y-78045721D01*
X97509317Y-78031471D01*
X97491593Y-78015407D01*
X97475529Y-77997683D01*
X97461279Y-77978470D01*
X97448982Y-77957953D01*
X97438754Y-77936329D01*
X97430696Y-77913807D01*
X97424884Y-77890603D01*
X97421374Y-77866942D01*
X97420200Y-77843050D01*
X97420200Y-77355550D01*
X97421374Y-77331658D01*
X97424884Y-77307997D01*
X97430696Y-77284793D01*
X97438754Y-77262271D01*
X97448982Y-77240647D01*
X97461279Y-77220130D01*
X97475529Y-77200917D01*
X97491593Y-77183193D01*
X97509317Y-77167129D01*
X97528530Y-77152879D01*
X97549047Y-77140582D01*
X97570671Y-77130354D01*
X97593193Y-77122296D01*
X97616397Y-77116484D01*
X97640058Y-77112974D01*
X97663950Y-77111800D01*
X98576450Y-77111800D01*
X98600342Y-77112974D01*
X98600342Y-77112974D01*
G37*
D11*
X98120200Y-77599300D03*
G04 #@! TD*
D10*
G04 #@! TO.C,R7*
G36*
X107515742Y-73556974D02*
X107539403Y-73560484D01*
X107562607Y-73566296D01*
X107585129Y-73574354D01*
X107606753Y-73584582D01*
X107627270Y-73596879D01*
X107646483Y-73611129D01*
X107664207Y-73627193D01*
X107680271Y-73644917D01*
X107694521Y-73664130D01*
X107706818Y-73684647D01*
X107717046Y-73706271D01*
X107725104Y-73728793D01*
X107730916Y-73751997D01*
X107734426Y-73775658D01*
X107735600Y-73799550D01*
X107735600Y-74287050D01*
X107734426Y-74310942D01*
X107730916Y-74334603D01*
X107725104Y-74357807D01*
X107717046Y-74380329D01*
X107706818Y-74401953D01*
X107694521Y-74422470D01*
X107680271Y-74441683D01*
X107664207Y-74459407D01*
X107646483Y-74475471D01*
X107627270Y-74489721D01*
X107606753Y-74502018D01*
X107585129Y-74512246D01*
X107562607Y-74520304D01*
X107539403Y-74526116D01*
X107515742Y-74529626D01*
X107491850Y-74530800D01*
X106579350Y-74530800D01*
X106555458Y-74529626D01*
X106531797Y-74526116D01*
X106508593Y-74520304D01*
X106486071Y-74512246D01*
X106464447Y-74502018D01*
X106443930Y-74489721D01*
X106424717Y-74475471D01*
X106406993Y-74459407D01*
X106390929Y-74441683D01*
X106376679Y-74422470D01*
X106364382Y-74401953D01*
X106354154Y-74380329D01*
X106346096Y-74357807D01*
X106340284Y-74334603D01*
X106336774Y-74310942D01*
X106335600Y-74287050D01*
X106335600Y-73799550D01*
X106336774Y-73775658D01*
X106340284Y-73751997D01*
X106346096Y-73728793D01*
X106354154Y-73706271D01*
X106364382Y-73684647D01*
X106376679Y-73664130D01*
X106390929Y-73644917D01*
X106406993Y-73627193D01*
X106424717Y-73611129D01*
X106443930Y-73596879D01*
X106464447Y-73584582D01*
X106486071Y-73574354D01*
X106508593Y-73566296D01*
X106531797Y-73560484D01*
X106555458Y-73556974D01*
X106579350Y-73555800D01*
X107491850Y-73555800D01*
X107515742Y-73556974D01*
X107515742Y-73556974D01*
G37*
D11*
X107035600Y-74043300D03*
D10*
G36*
X107515742Y-75431974D02*
X107539403Y-75435484D01*
X107562607Y-75441296D01*
X107585129Y-75449354D01*
X107606753Y-75459582D01*
X107627270Y-75471879D01*
X107646483Y-75486129D01*
X107664207Y-75502193D01*
X107680271Y-75519917D01*
X107694521Y-75539130D01*
X107706818Y-75559647D01*
X107717046Y-75581271D01*
X107725104Y-75603793D01*
X107730916Y-75626997D01*
X107734426Y-75650658D01*
X107735600Y-75674550D01*
X107735600Y-76162050D01*
X107734426Y-76185942D01*
X107730916Y-76209603D01*
X107725104Y-76232807D01*
X107717046Y-76255329D01*
X107706818Y-76276953D01*
X107694521Y-76297470D01*
X107680271Y-76316683D01*
X107664207Y-76334407D01*
X107646483Y-76350471D01*
X107627270Y-76364721D01*
X107606753Y-76377018D01*
X107585129Y-76387246D01*
X107562607Y-76395304D01*
X107539403Y-76401116D01*
X107515742Y-76404626D01*
X107491850Y-76405800D01*
X106579350Y-76405800D01*
X106555458Y-76404626D01*
X106531797Y-76401116D01*
X106508593Y-76395304D01*
X106486071Y-76387246D01*
X106464447Y-76377018D01*
X106443930Y-76364721D01*
X106424717Y-76350471D01*
X106406993Y-76334407D01*
X106390929Y-76316683D01*
X106376679Y-76297470D01*
X106364382Y-76276953D01*
X106354154Y-76255329D01*
X106346096Y-76232807D01*
X106340284Y-76209603D01*
X106336774Y-76185942D01*
X106335600Y-76162050D01*
X106335600Y-75674550D01*
X106336774Y-75650658D01*
X106340284Y-75626997D01*
X106346096Y-75603793D01*
X106354154Y-75581271D01*
X106364382Y-75559647D01*
X106376679Y-75539130D01*
X106390929Y-75519917D01*
X106406993Y-75502193D01*
X106424717Y-75486129D01*
X106443930Y-75471879D01*
X106464447Y-75459582D01*
X106486071Y-75449354D01*
X106508593Y-75441296D01*
X106531797Y-75435484D01*
X106555458Y-75431974D01*
X106579350Y-75430800D01*
X107491850Y-75430800D01*
X107515742Y-75431974D01*
X107515742Y-75431974D01*
G37*
D11*
X107035600Y-75918300D03*
G04 #@! TD*
D10*
G04 #@! TO.C,R8*
G36*
X114399142Y-104826674D02*
X114422803Y-104830184D01*
X114446007Y-104835996D01*
X114468529Y-104844054D01*
X114490153Y-104854282D01*
X114510670Y-104866579D01*
X114529883Y-104880829D01*
X114547607Y-104896893D01*
X114563671Y-104914617D01*
X114577921Y-104933830D01*
X114590218Y-104954347D01*
X114600446Y-104975971D01*
X114608504Y-104998493D01*
X114614316Y-105021697D01*
X114617826Y-105045358D01*
X114619000Y-105069250D01*
X114619000Y-105556750D01*
X114617826Y-105580642D01*
X114614316Y-105604303D01*
X114608504Y-105627507D01*
X114600446Y-105650029D01*
X114590218Y-105671653D01*
X114577921Y-105692170D01*
X114563671Y-105711383D01*
X114547607Y-105729107D01*
X114529883Y-105745171D01*
X114510670Y-105759421D01*
X114490153Y-105771718D01*
X114468529Y-105781946D01*
X114446007Y-105790004D01*
X114422803Y-105795816D01*
X114399142Y-105799326D01*
X114375250Y-105800500D01*
X113462750Y-105800500D01*
X113438858Y-105799326D01*
X113415197Y-105795816D01*
X113391993Y-105790004D01*
X113369471Y-105781946D01*
X113347847Y-105771718D01*
X113327330Y-105759421D01*
X113308117Y-105745171D01*
X113290393Y-105729107D01*
X113274329Y-105711383D01*
X113260079Y-105692170D01*
X113247782Y-105671653D01*
X113237554Y-105650029D01*
X113229496Y-105627507D01*
X113223684Y-105604303D01*
X113220174Y-105580642D01*
X113219000Y-105556750D01*
X113219000Y-105069250D01*
X113220174Y-105045358D01*
X113223684Y-105021697D01*
X113229496Y-104998493D01*
X113237554Y-104975971D01*
X113247782Y-104954347D01*
X113260079Y-104933830D01*
X113274329Y-104914617D01*
X113290393Y-104896893D01*
X113308117Y-104880829D01*
X113327330Y-104866579D01*
X113347847Y-104854282D01*
X113369471Y-104844054D01*
X113391993Y-104835996D01*
X113415197Y-104830184D01*
X113438858Y-104826674D01*
X113462750Y-104825500D01*
X114375250Y-104825500D01*
X114399142Y-104826674D01*
X114399142Y-104826674D01*
G37*
D11*
X113919000Y-105313000D03*
D10*
G36*
X114399142Y-106701674D02*
X114422803Y-106705184D01*
X114446007Y-106710996D01*
X114468529Y-106719054D01*
X114490153Y-106729282D01*
X114510670Y-106741579D01*
X114529883Y-106755829D01*
X114547607Y-106771893D01*
X114563671Y-106789617D01*
X114577921Y-106808830D01*
X114590218Y-106829347D01*
X114600446Y-106850971D01*
X114608504Y-106873493D01*
X114614316Y-106896697D01*
X114617826Y-106920358D01*
X114619000Y-106944250D01*
X114619000Y-107431750D01*
X114617826Y-107455642D01*
X114614316Y-107479303D01*
X114608504Y-107502507D01*
X114600446Y-107525029D01*
X114590218Y-107546653D01*
X114577921Y-107567170D01*
X114563671Y-107586383D01*
X114547607Y-107604107D01*
X114529883Y-107620171D01*
X114510670Y-107634421D01*
X114490153Y-107646718D01*
X114468529Y-107656946D01*
X114446007Y-107665004D01*
X114422803Y-107670816D01*
X114399142Y-107674326D01*
X114375250Y-107675500D01*
X113462750Y-107675500D01*
X113438858Y-107674326D01*
X113415197Y-107670816D01*
X113391993Y-107665004D01*
X113369471Y-107656946D01*
X113347847Y-107646718D01*
X113327330Y-107634421D01*
X113308117Y-107620171D01*
X113290393Y-107604107D01*
X113274329Y-107586383D01*
X113260079Y-107567170D01*
X113247782Y-107546653D01*
X113237554Y-107525029D01*
X113229496Y-107502507D01*
X113223684Y-107479303D01*
X113220174Y-107455642D01*
X113219000Y-107431750D01*
X113219000Y-106944250D01*
X113220174Y-106920358D01*
X113223684Y-106896697D01*
X113229496Y-106873493D01*
X113237554Y-106850971D01*
X113247782Y-106829347D01*
X113260079Y-106808830D01*
X113274329Y-106789617D01*
X113290393Y-106771893D01*
X113308117Y-106755829D01*
X113327330Y-106741579D01*
X113347847Y-106729282D01*
X113369471Y-106719054D01*
X113391993Y-106710996D01*
X113415197Y-106705184D01*
X113438858Y-106701674D01*
X113462750Y-106700500D01*
X114375250Y-106700500D01*
X114399142Y-106701674D01*
X114399142Y-106701674D01*
G37*
D11*
X113919000Y-107188000D03*
G04 #@! TD*
D10*
G04 #@! TO.C,R9*
G36*
X116939142Y-106701674D02*
X116962803Y-106705184D01*
X116986007Y-106710996D01*
X117008529Y-106719054D01*
X117030153Y-106729282D01*
X117050670Y-106741579D01*
X117069883Y-106755829D01*
X117087607Y-106771893D01*
X117103671Y-106789617D01*
X117117921Y-106808830D01*
X117130218Y-106829347D01*
X117140446Y-106850971D01*
X117148504Y-106873493D01*
X117154316Y-106896697D01*
X117157826Y-106920358D01*
X117159000Y-106944250D01*
X117159000Y-107431750D01*
X117157826Y-107455642D01*
X117154316Y-107479303D01*
X117148504Y-107502507D01*
X117140446Y-107525029D01*
X117130218Y-107546653D01*
X117117921Y-107567170D01*
X117103671Y-107586383D01*
X117087607Y-107604107D01*
X117069883Y-107620171D01*
X117050670Y-107634421D01*
X117030153Y-107646718D01*
X117008529Y-107656946D01*
X116986007Y-107665004D01*
X116962803Y-107670816D01*
X116939142Y-107674326D01*
X116915250Y-107675500D01*
X116002750Y-107675500D01*
X115978858Y-107674326D01*
X115955197Y-107670816D01*
X115931993Y-107665004D01*
X115909471Y-107656946D01*
X115887847Y-107646718D01*
X115867330Y-107634421D01*
X115848117Y-107620171D01*
X115830393Y-107604107D01*
X115814329Y-107586383D01*
X115800079Y-107567170D01*
X115787782Y-107546653D01*
X115777554Y-107525029D01*
X115769496Y-107502507D01*
X115763684Y-107479303D01*
X115760174Y-107455642D01*
X115759000Y-107431750D01*
X115759000Y-106944250D01*
X115760174Y-106920358D01*
X115763684Y-106896697D01*
X115769496Y-106873493D01*
X115777554Y-106850971D01*
X115787782Y-106829347D01*
X115800079Y-106808830D01*
X115814329Y-106789617D01*
X115830393Y-106771893D01*
X115848117Y-106755829D01*
X115867330Y-106741579D01*
X115887847Y-106729282D01*
X115909471Y-106719054D01*
X115931993Y-106710996D01*
X115955197Y-106705184D01*
X115978858Y-106701674D01*
X116002750Y-106700500D01*
X116915250Y-106700500D01*
X116939142Y-106701674D01*
X116939142Y-106701674D01*
G37*
D11*
X116459000Y-107188000D03*
D10*
G36*
X116939142Y-104826674D02*
X116962803Y-104830184D01*
X116986007Y-104835996D01*
X117008529Y-104844054D01*
X117030153Y-104854282D01*
X117050670Y-104866579D01*
X117069883Y-104880829D01*
X117087607Y-104896893D01*
X117103671Y-104914617D01*
X117117921Y-104933830D01*
X117130218Y-104954347D01*
X117140446Y-104975971D01*
X117148504Y-104998493D01*
X117154316Y-105021697D01*
X117157826Y-105045358D01*
X117159000Y-105069250D01*
X117159000Y-105556750D01*
X117157826Y-105580642D01*
X117154316Y-105604303D01*
X117148504Y-105627507D01*
X117140446Y-105650029D01*
X117130218Y-105671653D01*
X117117921Y-105692170D01*
X117103671Y-105711383D01*
X117087607Y-105729107D01*
X117069883Y-105745171D01*
X117050670Y-105759421D01*
X117030153Y-105771718D01*
X117008529Y-105781946D01*
X116986007Y-105790004D01*
X116962803Y-105795816D01*
X116939142Y-105799326D01*
X116915250Y-105800500D01*
X116002750Y-105800500D01*
X115978858Y-105799326D01*
X115955197Y-105795816D01*
X115931993Y-105790004D01*
X115909471Y-105781946D01*
X115887847Y-105771718D01*
X115867330Y-105759421D01*
X115848117Y-105745171D01*
X115830393Y-105729107D01*
X115814329Y-105711383D01*
X115800079Y-105692170D01*
X115787782Y-105671653D01*
X115777554Y-105650029D01*
X115769496Y-105627507D01*
X115763684Y-105604303D01*
X115760174Y-105580642D01*
X115759000Y-105556750D01*
X115759000Y-105069250D01*
X115760174Y-105045358D01*
X115763684Y-105021697D01*
X115769496Y-104998493D01*
X115777554Y-104975971D01*
X115787782Y-104954347D01*
X115800079Y-104933830D01*
X115814329Y-104914617D01*
X115830393Y-104896893D01*
X115848117Y-104880829D01*
X115867330Y-104866579D01*
X115887847Y-104854282D01*
X115909471Y-104844054D01*
X115931993Y-104835996D01*
X115955197Y-104830184D01*
X115978858Y-104826674D01*
X116002750Y-104825500D01*
X116915250Y-104825500D01*
X116939142Y-104826674D01*
X116939142Y-104826674D01*
G37*
D11*
X116459000Y-105313000D03*
G04 #@! TD*
D10*
G04 #@! TO.C,R10*
G36*
X96238142Y-104083174D02*
X96261803Y-104086684D01*
X96285007Y-104092496D01*
X96307529Y-104100554D01*
X96329153Y-104110782D01*
X96349670Y-104123079D01*
X96368883Y-104137329D01*
X96386607Y-104153393D01*
X96402671Y-104171117D01*
X96416921Y-104190330D01*
X96429218Y-104210847D01*
X96439446Y-104232471D01*
X96447504Y-104254993D01*
X96453316Y-104278197D01*
X96456826Y-104301858D01*
X96458000Y-104325750D01*
X96458000Y-104813250D01*
X96456826Y-104837142D01*
X96453316Y-104860803D01*
X96447504Y-104884007D01*
X96439446Y-104906529D01*
X96429218Y-104928153D01*
X96416921Y-104948670D01*
X96402671Y-104967883D01*
X96386607Y-104985607D01*
X96368883Y-105001671D01*
X96349670Y-105015921D01*
X96329153Y-105028218D01*
X96307529Y-105038446D01*
X96285007Y-105046504D01*
X96261803Y-105052316D01*
X96238142Y-105055826D01*
X96214250Y-105057000D01*
X95301750Y-105057000D01*
X95277858Y-105055826D01*
X95254197Y-105052316D01*
X95230993Y-105046504D01*
X95208471Y-105038446D01*
X95186847Y-105028218D01*
X95166330Y-105015921D01*
X95147117Y-105001671D01*
X95129393Y-104985607D01*
X95113329Y-104967883D01*
X95099079Y-104948670D01*
X95086782Y-104928153D01*
X95076554Y-104906529D01*
X95068496Y-104884007D01*
X95062684Y-104860803D01*
X95059174Y-104837142D01*
X95058000Y-104813250D01*
X95058000Y-104325750D01*
X95059174Y-104301858D01*
X95062684Y-104278197D01*
X95068496Y-104254993D01*
X95076554Y-104232471D01*
X95086782Y-104210847D01*
X95099079Y-104190330D01*
X95113329Y-104171117D01*
X95129393Y-104153393D01*
X95147117Y-104137329D01*
X95166330Y-104123079D01*
X95186847Y-104110782D01*
X95208471Y-104100554D01*
X95230993Y-104092496D01*
X95254197Y-104086684D01*
X95277858Y-104083174D01*
X95301750Y-104082000D01*
X96214250Y-104082000D01*
X96238142Y-104083174D01*
X96238142Y-104083174D01*
G37*
D11*
X95758000Y-104569500D03*
D10*
G36*
X96238142Y-102208174D02*
X96261803Y-102211684D01*
X96285007Y-102217496D01*
X96307529Y-102225554D01*
X96329153Y-102235782D01*
X96349670Y-102248079D01*
X96368883Y-102262329D01*
X96386607Y-102278393D01*
X96402671Y-102296117D01*
X96416921Y-102315330D01*
X96429218Y-102335847D01*
X96439446Y-102357471D01*
X96447504Y-102379993D01*
X96453316Y-102403197D01*
X96456826Y-102426858D01*
X96458000Y-102450750D01*
X96458000Y-102938250D01*
X96456826Y-102962142D01*
X96453316Y-102985803D01*
X96447504Y-103009007D01*
X96439446Y-103031529D01*
X96429218Y-103053153D01*
X96416921Y-103073670D01*
X96402671Y-103092883D01*
X96386607Y-103110607D01*
X96368883Y-103126671D01*
X96349670Y-103140921D01*
X96329153Y-103153218D01*
X96307529Y-103163446D01*
X96285007Y-103171504D01*
X96261803Y-103177316D01*
X96238142Y-103180826D01*
X96214250Y-103182000D01*
X95301750Y-103182000D01*
X95277858Y-103180826D01*
X95254197Y-103177316D01*
X95230993Y-103171504D01*
X95208471Y-103163446D01*
X95186847Y-103153218D01*
X95166330Y-103140921D01*
X95147117Y-103126671D01*
X95129393Y-103110607D01*
X95113329Y-103092883D01*
X95099079Y-103073670D01*
X95086782Y-103053153D01*
X95076554Y-103031529D01*
X95068496Y-103009007D01*
X95062684Y-102985803D01*
X95059174Y-102962142D01*
X95058000Y-102938250D01*
X95058000Y-102450750D01*
X95059174Y-102426858D01*
X95062684Y-102403197D01*
X95068496Y-102379993D01*
X95076554Y-102357471D01*
X95086782Y-102335847D01*
X95099079Y-102315330D01*
X95113329Y-102296117D01*
X95129393Y-102278393D01*
X95147117Y-102262329D01*
X95166330Y-102248079D01*
X95186847Y-102235782D01*
X95208471Y-102225554D01*
X95230993Y-102217496D01*
X95254197Y-102211684D01*
X95277858Y-102208174D01*
X95301750Y-102207000D01*
X96214250Y-102207000D01*
X96238142Y-102208174D01*
X96238142Y-102208174D01*
G37*
D11*
X95758000Y-102694500D03*
G04 #@! TD*
D10*
G04 #@! TO.C,R11*
G36*
X85824142Y-100702674D02*
X85847803Y-100706184D01*
X85871007Y-100711996D01*
X85893529Y-100720054D01*
X85915153Y-100730282D01*
X85935670Y-100742579D01*
X85954883Y-100756829D01*
X85972607Y-100772893D01*
X85988671Y-100790617D01*
X86002921Y-100809830D01*
X86015218Y-100830347D01*
X86025446Y-100851971D01*
X86033504Y-100874493D01*
X86039316Y-100897697D01*
X86042826Y-100921358D01*
X86044000Y-100945250D01*
X86044000Y-101432750D01*
X86042826Y-101456642D01*
X86039316Y-101480303D01*
X86033504Y-101503507D01*
X86025446Y-101526029D01*
X86015218Y-101547653D01*
X86002921Y-101568170D01*
X85988671Y-101587383D01*
X85972607Y-101605107D01*
X85954883Y-101621171D01*
X85935670Y-101635421D01*
X85915153Y-101647718D01*
X85893529Y-101657946D01*
X85871007Y-101666004D01*
X85847803Y-101671816D01*
X85824142Y-101675326D01*
X85800250Y-101676500D01*
X84887750Y-101676500D01*
X84863858Y-101675326D01*
X84840197Y-101671816D01*
X84816993Y-101666004D01*
X84794471Y-101657946D01*
X84772847Y-101647718D01*
X84752330Y-101635421D01*
X84733117Y-101621171D01*
X84715393Y-101605107D01*
X84699329Y-101587383D01*
X84685079Y-101568170D01*
X84672782Y-101547653D01*
X84662554Y-101526029D01*
X84654496Y-101503507D01*
X84648684Y-101480303D01*
X84645174Y-101456642D01*
X84644000Y-101432750D01*
X84644000Y-100945250D01*
X84645174Y-100921358D01*
X84648684Y-100897697D01*
X84654496Y-100874493D01*
X84662554Y-100851971D01*
X84672782Y-100830347D01*
X84685079Y-100809830D01*
X84699329Y-100790617D01*
X84715393Y-100772893D01*
X84733117Y-100756829D01*
X84752330Y-100742579D01*
X84772847Y-100730282D01*
X84794471Y-100720054D01*
X84816993Y-100711996D01*
X84840197Y-100706184D01*
X84863858Y-100702674D01*
X84887750Y-100701500D01*
X85800250Y-100701500D01*
X85824142Y-100702674D01*
X85824142Y-100702674D01*
G37*
D11*
X85344000Y-101189000D03*
D10*
G36*
X85824142Y-98827674D02*
X85847803Y-98831184D01*
X85871007Y-98836996D01*
X85893529Y-98845054D01*
X85915153Y-98855282D01*
X85935670Y-98867579D01*
X85954883Y-98881829D01*
X85972607Y-98897893D01*
X85988671Y-98915617D01*
X86002921Y-98934830D01*
X86015218Y-98955347D01*
X86025446Y-98976971D01*
X86033504Y-98999493D01*
X86039316Y-99022697D01*
X86042826Y-99046358D01*
X86044000Y-99070250D01*
X86044000Y-99557750D01*
X86042826Y-99581642D01*
X86039316Y-99605303D01*
X86033504Y-99628507D01*
X86025446Y-99651029D01*
X86015218Y-99672653D01*
X86002921Y-99693170D01*
X85988671Y-99712383D01*
X85972607Y-99730107D01*
X85954883Y-99746171D01*
X85935670Y-99760421D01*
X85915153Y-99772718D01*
X85893529Y-99782946D01*
X85871007Y-99791004D01*
X85847803Y-99796816D01*
X85824142Y-99800326D01*
X85800250Y-99801500D01*
X84887750Y-99801500D01*
X84863858Y-99800326D01*
X84840197Y-99796816D01*
X84816993Y-99791004D01*
X84794471Y-99782946D01*
X84772847Y-99772718D01*
X84752330Y-99760421D01*
X84733117Y-99746171D01*
X84715393Y-99730107D01*
X84699329Y-99712383D01*
X84685079Y-99693170D01*
X84672782Y-99672653D01*
X84662554Y-99651029D01*
X84654496Y-99628507D01*
X84648684Y-99605303D01*
X84645174Y-99581642D01*
X84644000Y-99557750D01*
X84644000Y-99070250D01*
X84645174Y-99046358D01*
X84648684Y-99022697D01*
X84654496Y-98999493D01*
X84662554Y-98976971D01*
X84672782Y-98955347D01*
X84685079Y-98934830D01*
X84699329Y-98915617D01*
X84715393Y-98897893D01*
X84733117Y-98881829D01*
X84752330Y-98867579D01*
X84772847Y-98855282D01*
X84794471Y-98845054D01*
X84816993Y-98836996D01*
X84840197Y-98831184D01*
X84863858Y-98827674D01*
X84887750Y-98826500D01*
X85800250Y-98826500D01*
X85824142Y-98827674D01*
X85824142Y-98827674D01*
G37*
D11*
X85344000Y-99314000D03*
G04 #@! TD*
D10*
G04 #@! TO.C,R12*
G36*
X100500642Y-68541574D02*
X100524303Y-68545084D01*
X100547507Y-68550896D01*
X100570029Y-68558954D01*
X100591653Y-68569182D01*
X100612170Y-68581479D01*
X100631383Y-68595729D01*
X100649107Y-68611793D01*
X100665171Y-68629517D01*
X100679421Y-68648730D01*
X100691718Y-68669247D01*
X100701946Y-68690871D01*
X100710004Y-68713393D01*
X100715816Y-68736597D01*
X100719326Y-68760258D01*
X100720500Y-68784150D01*
X100720500Y-69696650D01*
X100719326Y-69720542D01*
X100715816Y-69744203D01*
X100710004Y-69767407D01*
X100701946Y-69789929D01*
X100691718Y-69811553D01*
X100679421Y-69832070D01*
X100665171Y-69851283D01*
X100649107Y-69869007D01*
X100631383Y-69885071D01*
X100612170Y-69899321D01*
X100591653Y-69911618D01*
X100570029Y-69921846D01*
X100547507Y-69929904D01*
X100524303Y-69935716D01*
X100500642Y-69939226D01*
X100476750Y-69940400D01*
X99989250Y-69940400D01*
X99965358Y-69939226D01*
X99941697Y-69935716D01*
X99918493Y-69929904D01*
X99895971Y-69921846D01*
X99874347Y-69911618D01*
X99853830Y-69899321D01*
X99834617Y-69885071D01*
X99816893Y-69869007D01*
X99800829Y-69851283D01*
X99786579Y-69832070D01*
X99774282Y-69811553D01*
X99764054Y-69789929D01*
X99755996Y-69767407D01*
X99750184Y-69744203D01*
X99746674Y-69720542D01*
X99745500Y-69696650D01*
X99745500Y-68784150D01*
X99746674Y-68760258D01*
X99750184Y-68736597D01*
X99755996Y-68713393D01*
X99764054Y-68690871D01*
X99774282Y-68669247D01*
X99786579Y-68648730D01*
X99800829Y-68629517D01*
X99816893Y-68611793D01*
X99834617Y-68595729D01*
X99853830Y-68581479D01*
X99874347Y-68569182D01*
X99895971Y-68558954D01*
X99918493Y-68550896D01*
X99941697Y-68545084D01*
X99965358Y-68541574D01*
X99989250Y-68540400D01*
X100476750Y-68540400D01*
X100500642Y-68541574D01*
X100500642Y-68541574D01*
G37*
D11*
X100233000Y-69240400D03*
D10*
G36*
X102375642Y-68541574D02*
X102399303Y-68545084D01*
X102422507Y-68550896D01*
X102445029Y-68558954D01*
X102466653Y-68569182D01*
X102487170Y-68581479D01*
X102506383Y-68595729D01*
X102524107Y-68611793D01*
X102540171Y-68629517D01*
X102554421Y-68648730D01*
X102566718Y-68669247D01*
X102576946Y-68690871D01*
X102585004Y-68713393D01*
X102590816Y-68736597D01*
X102594326Y-68760258D01*
X102595500Y-68784150D01*
X102595500Y-69696650D01*
X102594326Y-69720542D01*
X102590816Y-69744203D01*
X102585004Y-69767407D01*
X102576946Y-69789929D01*
X102566718Y-69811553D01*
X102554421Y-69832070D01*
X102540171Y-69851283D01*
X102524107Y-69869007D01*
X102506383Y-69885071D01*
X102487170Y-69899321D01*
X102466653Y-69911618D01*
X102445029Y-69921846D01*
X102422507Y-69929904D01*
X102399303Y-69935716D01*
X102375642Y-69939226D01*
X102351750Y-69940400D01*
X101864250Y-69940400D01*
X101840358Y-69939226D01*
X101816697Y-69935716D01*
X101793493Y-69929904D01*
X101770971Y-69921846D01*
X101749347Y-69911618D01*
X101728830Y-69899321D01*
X101709617Y-69885071D01*
X101691893Y-69869007D01*
X101675829Y-69851283D01*
X101661579Y-69832070D01*
X101649282Y-69811553D01*
X101639054Y-69789929D01*
X101630996Y-69767407D01*
X101625184Y-69744203D01*
X101621674Y-69720542D01*
X101620500Y-69696650D01*
X101620500Y-68784150D01*
X101621674Y-68760258D01*
X101625184Y-68736597D01*
X101630996Y-68713393D01*
X101639054Y-68690871D01*
X101649282Y-68669247D01*
X101661579Y-68648730D01*
X101675829Y-68629517D01*
X101691893Y-68611793D01*
X101709617Y-68595729D01*
X101728830Y-68581479D01*
X101749347Y-68569182D01*
X101770971Y-68558954D01*
X101793493Y-68550896D01*
X101816697Y-68545084D01*
X101840358Y-68541574D01*
X101864250Y-68540400D01*
X102351750Y-68540400D01*
X102375642Y-68541574D01*
X102375642Y-68541574D01*
G37*
D11*
X102108000Y-69240400D03*
G04 #@! TD*
D10*
G04 #@! TO.C,R13*
G36*
X100399042Y-70827574D02*
X100422703Y-70831084D01*
X100445907Y-70836896D01*
X100468429Y-70844954D01*
X100490053Y-70855182D01*
X100510570Y-70867479D01*
X100529783Y-70881729D01*
X100547507Y-70897793D01*
X100563571Y-70915517D01*
X100577821Y-70934730D01*
X100590118Y-70955247D01*
X100600346Y-70976871D01*
X100608404Y-70999393D01*
X100614216Y-71022597D01*
X100617726Y-71046258D01*
X100618900Y-71070150D01*
X100618900Y-71982650D01*
X100617726Y-72006542D01*
X100614216Y-72030203D01*
X100608404Y-72053407D01*
X100600346Y-72075929D01*
X100590118Y-72097553D01*
X100577821Y-72118070D01*
X100563571Y-72137283D01*
X100547507Y-72155007D01*
X100529783Y-72171071D01*
X100510570Y-72185321D01*
X100490053Y-72197618D01*
X100468429Y-72207846D01*
X100445907Y-72215904D01*
X100422703Y-72221716D01*
X100399042Y-72225226D01*
X100375150Y-72226400D01*
X99887650Y-72226400D01*
X99863758Y-72225226D01*
X99840097Y-72221716D01*
X99816893Y-72215904D01*
X99794371Y-72207846D01*
X99772747Y-72197618D01*
X99752230Y-72185321D01*
X99733017Y-72171071D01*
X99715293Y-72155007D01*
X99699229Y-72137283D01*
X99684979Y-72118070D01*
X99672682Y-72097553D01*
X99662454Y-72075929D01*
X99654396Y-72053407D01*
X99648584Y-72030203D01*
X99645074Y-72006542D01*
X99643900Y-71982650D01*
X99643900Y-71070150D01*
X99645074Y-71046258D01*
X99648584Y-71022597D01*
X99654396Y-70999393D01*
X99662454Y-70976871D01*
X99672682Y-70955247D01*
X99684979Y-70934730D01*
X99699229Y-70915517D01*
X99715293Y-70897793D01*
X99733017Y-70881729D01*
X99752230Y-70867479D01*
X99772747Y-70855182D01*
X99794371Y-70844954D01*
X99816893Y-70836896D01*
X99840097Y-70831084D01*
X99863758Y-70827574D01*
X99887650Y-70826400D01*
X100375150Y-70826400D01*
X100399042Y-70827574D01*
X100399042Y-70827574D01*
G37*
D11*
X100131400Y-71526400D03*
D10*
G36*
X102274042Y-70827574D02*
X102297703Y-70831084D01*
X102320907Y-70836896D01*
X102343429Y-70844954D01*
X102365053Y-70855182D01*
X102385570Y-70867479D01*
X102404783Y-70881729D01*
X102422507Y-70897793D01*
X102438571Y-70915517D01*
X102452821Y-70934730D01*
X102465118Y-70955247D01*
X102475346Y-70976871D01*
X102483404Y-70999393D01*
X102489216Y-71022597D01*
X102492726Y-71046258D01*
X102493900Y-71070150D01*
X102493900Y-71982650D01*
X102492726Y-72006542D01*
X102489216Y-72030203D01*
X102483404Y-72053407D01*
X102475346Y-72075929D01*
X102465118Y-72097553D01*
X102452821Y-72118070D01*
X102438571Y-72137283D01*
X102422507Y-72155007D01*
X102404783Y-72171071D01*
X102385570Y-72185321D01*
X102365053Y-72197618D01*
X102343429Y-72207846D01*
X102320907Y-72215904D01*
X102297703Y-72221716D01*
X102274042Y-72225226D01*
X102250150Y-72226400D01*
X101762650Y-72226400D01*
X101738758Y-72225226D01*
X101715097Y-72221716D01*
X101691893Y-72215904D01*
X101669371Y-72207846D01*
X101647747Y-72197618D01*
X101627230Y-72185321D01*
X101608017Y-72171071D01*
X101590293Y-72155007D01*
X101574229Y-72137283D01*
X101559979Y-72118070D01*
X101547682Y-72097553D01*
X101537454Y-72075929D01*
X101529396Y-72053407D01*
X101523584Y-72030203D01*
X101520074Y-72006542D01*
X101518900Y-71982650D01*
X101518900Y-71070150D01*
X101520074Y-71046258D01*
X101523584Y-71022597D01*
X101529396Y-70999393D01*
X101537454Y-70976871D01*
X101547682Y-70955247D01*
X101559979Y-70934730D01*
X101574229Y-70915517D01*
X101590293Y-70897793D01*
X101608017Y-70881729D01*
X101627230Y-70867479D01*
X101647747Y-70855182D01*
X101669371Y-70844954D01*
X101691893Y-70836896D01*
X101715097Y-70831084D01*
X101738758Y-70827574D01*
X101762650Y-70826400D01*
X102250150Y-70826400D01*
X102274042Y-70827574D01*
X102274042Y-70827574D01*
G37*
D11*
X102006400Y-71526400D03*
G04 #@! TD*
D14*
G04 #@! TO.C,U1*
X79650000Y-88250000D03*
X79650000Y-88750000D03*
X79650000Y-89250000D03*
X79650000Y-89750000D03*
X79650000Y-90250000D03*
X79650000Y-90750000D03*
X79650000Y-91250000D03*
X79650000Y-91750000D03*
X79650000Y-92250000D03*
X79650000Y-92750000D03*
X79650000Y-93250000D03*
X79650000Y-93750000D03*
D15*
X81250000Y-95350000D03*
X81750000Y-95350000D03*
X82250000Y-95350000D03*
X82750000Y-95350000D03*
X83250000Y-95350000D03*
X83750000Y-95350000D03*
X84250000Y-95350000D03*
X84750000Y-95350000D03*
X85250000Y-95350000D03*
X85750000Y-95350000D03*
X86250000Y-95350000D03*
X86750000Y-95350000D03*
D14*
X88350000Y-93750000D03*
X88350000Y-93250000D03*
X88350000Y-92750000D03*
X88350000Y-92250000D03*
X88350000Y-91750000D03*
X88350000Y-91250000D03*
X88350000Y-90750000D03*
X88350000Y-90250000D03*
X88350000Y-89750000D03*
X88350000Y-89250000D03*
X88350000Y-88750000D03*
X88350000Y-88250000D03*
D15*
X86750000Y-86650000D03*
X86250000Y-86650000D03*
X85750000Y-86650000D03*
X85250000Y-86650000D03*
X84750000Y-86650000D03*
X84250000Y-86650000D03*
X83750000Y-86650000D03*
X83250000Y-86650000D03*
X82750000Y-86650000D03*
X82250000Y-86650000D03*
X81750000Y-86650000D03*
X81250000Y-86650000D03*
G04 #@! TD*
D16*
G04 #@! TO.C,U2*
X106400000Y-87000000D03*
X106400000Y-89000000D03*
X106400000Y-91000000D03*
X106400000Y-93000000D03*
X106400000Y-95000000D03*
X106400000Y-97000000D03*
X106400000Y-99000000D03*
X106400000Y-101000000D03*
D17*
X109000000Y-102500000D03*
X111000000Y-102500000D03*
X113000000Y-102500000D03*
X115000000Y-102500000D03*
X117000000Y-102500000D03*
X119000000Y-102500000D03*
D16*
X121600000Y-101000000D03*
X121600000Y-99000000D03*
X121600000Y-97000000D03*
X121600000Y-95000000D03*
X121600000Y-93000000D03*
X121600000Y-91000000D03*
X121600000Y-89000000D03*
X121600000Y-87000000D03*
G04 #@! TD*
D18*
G04 #@! TO.C,U3*
X102002643Y-76276721D03*
X101052643Y-76276721D03*
X100102643Y-76276721D03*
X100102643Y-78476721D03*
X102002643Y-78476721D03*
G04 #@! TD*
D19*
G04 #@! TO.C,U4*
X89230200Y-78747600D03*
X90500200Y-78747600D03*
X91770200Y-78747600D03*
X93040200Y-78747600D03*
X93040200Y-73347600D03*
X91770200Y-73347600D03*
X90500200Y-73347600D03*
X89230200Y-73347600D03*
G04 #@! TD*
D20*
G04 #@! TO.C,U5*
X82591000Y-105927000D03*
X83241000Y-105927000D03*
X83891000Y-105927000D03*
X84541000Y-105927000D03*
X84541000Y-103877000D03*
X83891000Y-103877000D03*
X83241000Y-103877000D03*
X82591000Y-103877000D03*
G04 #@! TD*
D21*
G04 #@! TO.C,U6*
X86359500Y-104652000D03*
X86359500Y-105152000D03*
X87884500Y-104652000D03*
X87884500Y-105152000D03*
X86359500Y-105652000D03*
X87884500Y-105652000D03*
X86359500Y-104152000D03*
X87884500Y-104152000D03*
D22*
X86872000Y-105664500D03*
X87372000Y-105664500D03*
X87372000Y-104139500D03*
X86872000Y-104139500D03*
G04 #@! TD*
D23*
G04 #@! TO.C,Q1*
X98181200Y-69467600D03*
X96281200Y-69467600D03*
X97231200Y-72467600D03*
G04 #@! TD*
D24*
G04 #@! TO.C,Q2*
X98576000Y-102682000D03*
X98576000Y-104582000D03*
X101576000Y-103632000D03*
G04 #@! TD*
G04 #@! TO.C,Q3*
X79727800Y-99253000D03*
X82727800Y-98303000D03*
X82727800Y-100203000D03*
G04 #@! TD*
D23*
G04 #@! TO.C,Q4*
X83794600Y-71423400D03*
X84744600Y-74423400D03*
X82844600Y-74423400D03*
G04 #@! TD*
D10*
G04 #@! TO.C,R14*
G36*
X83101642Y-76237774D02*
X83125303Y-76241284D01*
X83148507Y-76247096D01*
X83171029Y-76255154D01*
X83192653Y-76265382D01*
X83213170Y-76277679D01*
X83232383Y-76291929D01*
X83250107Y-76307993D01*
X83266171Y-76325717D01*
X83280421Y-76344930D01*
X83292718Y-76365447D01*
X83302946Y-76387071D01*
X83311004Y-76409593D01*
X83316816Y-76432797D01*
X83320326Y-76456458D01*
X83321500Y-76480350D01*
X83321500Y-77392850D01*
X83320326Y-77416742D01*
X83316816Y-77440403D01*
X83311004Y-77463607D01*
X83302946Y-77486129D01*
X83292718Y-77507753D01*
X83280421Y-77528270D01*
X83266171Y-77547483D01*
X83250107Y-77565207D01*
X83232383Y-77581271D01*
X83213170Y-77595521D01*
X83192653Y-77607818D01*
X83171029Y-77618046D01*
X83148507Y-77626104D01*
X83125303Y-77631916D01*
X83101642Y-77635426D01*
X83077750Y-77636600D01*
X82590250Y-77636600D01*
X82566358Y-77635426D01*
X82542697Y-77631916D01*
X82519493Y-77626104D01*
X82496971Y-77618046D01*
X82475347Y-77607818D01*
X82454830Y-77595521D01*
X82435617Y-77581271D01*
X82417893Y-77565207D01*
X82401829Y-77547483D01*
X82387579Y-77528270D01*
X82375282Y-77507753D01*
X82365054Y-77486129D01*
X82356996Y-77463607D01*
X82351184Y-77440403D01*
X82347674Y-77416742D01*
X82346500Y-77392850D01*
X82346500Y-76480350D01*
X82347674Y-76456458D01*
X82351184Y-76432797D01*
X82356996Y-76409593D01*
X82365054Y-76387071D01*
X82375282Y-76365447D01*
X82387579Y-76344930D01*
X82401829Y-76325717D01*
X82417893Y-76307993D01*
X82435617Y-76291929D01*
X82454830Y-76277679D01*
X82475347Y-76265382D01*
X82496971Y-76255154D01*
X82519493Y-76247096D01*
X82542697Y-76241284D01*
X82566358Y-76237774D01*
X82590250Y-76236600D01*
X83077750Y-76236600D01*
X83101642Y-76237774D01*
X83101642Y-76237774D01*
G37*
D11*
X82834000Y-76936600D03*
D10*
G36*
X84976642Y-76237774D02*
X85000303Y-76241284D01*
X85023507Y-76247096D01*
X85046029Y-76255154D01*
X85067653Y-76265382D01*
X85088170Y-76277679D01*
X85107383Y-76291929D01*
X85125107Y-76307993D01*
X85141171Y-76325717D01*
X85155421Y-76344930D01*
X85167718Y-76365447D01*
X85177946Y-76387071D01*
X85186004Y-76409593D01*
X85191816Y-76432797D01*
X85195326Y-76456458D01*
X85196500Y-76480350D01*
X85196500Y-77392850D01*
X85195326Y-77416742D01*
X85191816Y-77440403D01*
X85186004Y-77463607D01*
X85177946Y-77486129D01*
X85167718Y-77507753D01*
X85155421Y-77528270D01*
X85141171Y-77547483D01*
X85125107Y-77565207D01*
X85107383Y-77581271D01*
X85088170Y-77595521D01*
X85067653Y-77607818D01*
X85046029Y-77618046D01*
X85023507Y-77626104D01*
X85000303Y-77631916D01*
X84976642Y-77635426D01*
X84952750Y-77636600D01*
X84465250Y-77636600D01*
X84441358Y-77635426D01*
X84417697Y-77631916D01*
X84394493Y-77626104D01*
X84371971Y-77618046D01*
X84350347Y-77607818D01*
X84329830Y-77595521D01*
X84310617Y-77581271D01*
X84292893Y-77565207D01*
X84276829Y-77547483D01*
X84262579Y-77528270D01*
X84250282Y-77507753D01*
X84240054Y-77486129D01*
X84231996Y-77463607D01*
X84226184Y-77440403D01*
X84222674Y-77416742D01*
X84221500Y-77392850D01*
X84221500Y-76480350D01*
X84222674Y-76456458D01*
X84226184Y-76432797D01*
X84231996Y-76409593D01*
X84240054Y-76387071D01*
X84250282Y-76365447D01*
X84262579Y-76344930D01*
X84276829Y-76325717D01*
X84292893Y-76307993D01*
X84310617Y-76291929D01*
X84329830Y-76277679D01*
X84350347Y-76265382D01*
X84371971Y-76255154D01*
X84394493Y-76247096D01*
X84417697Y-76241284D01*
X84441358Y-76237774D01*
X84465250Y-76236600D01*
X84952750Y-76236600D01*
X84976642Y-76237774D01*
X84976642Y-76237774D01*
G37*
D11*
X84709000Y-76936600D03*
G04 #@! TD*
D10*
G04 #@! TO.C,R15*
G36*
X119910942Y-106648574D02*
X119934603Y-106652084D01*
X119957807Y-106657896D01*
X119980329Y-106665954D01*
X120001953Y-106676182D01*
X120022470Y-106688479D01*
X120041683Y-106702729D01*
X120059407Y-106718793D01*
X120075471Y-106736517D01*
X120089721Y-106755730D01*
X120102018Y-106776247D01*
X120112246Y-106797871D01*
X120120304Y-106820393D01*
X120126116Y-106843597D01*
X120129626Y-106867258D01*
X120130800Y-106891150D01*
X120130800Y-107378650D01*
X120129626Y-107402542D01*
X120126116Y-107426203D01*
X120120304Y-107449407D01*
X120112246Y-107471929D01*
X120102018Y-107493553D01*
X120089721Y-107514070D01*
X120075471Y-107533283D01*
X120059407Y-107551007D01*
X120041683Y-107567071D01*
X120022470Y-107581321D01*
X120001953Y-107593618D01*
X119980329Y-107603846D01*
X119957807Y-107611904D01*
X119934603Y-107617716D01*
X119910942Y-107621226D01*
X119887050Y-107622400D01*
X118974550Y-107622400D01*
X118950658Y-107621226D01*
X118926997Y-107617716D01*
X118903793Y-107611904D01*
X118881271Y-107603846D01*
X118859647Y-107593618D01*
X118839130Y-107581321D01*
X118819917Y-107567071D01*
X118802193Y-107551007D01*
X118786129Y-107533283D01*
X118771879Y-107514070D01*
X118759582Y-107493553D01*
X118749354Y-107471929D01*
X118741296Y-107449407D01*
X118735484Y-107426203D01*
X118731974Y-107402542D01*
X118730800Y-107378650D01*
X118730800Y-106891150D01*
X118731974Y-106867258D01*
X118735484Y-106843597D01*
X118741296Y-106820393D01*
X118749354Y-106797871D01*
X118759582Y-106776247D01*
X118771879Y-106755730D01*
X118786129Y-106736517D01*
X118802193Y-106718793D01*
X118819917Y-106702729D01*
X118839130Y-106688479D01*
X118859647Y-106676182D01*
X118881271Y-106665954D01*
X118903793Y-106657896D01*
X118926997Y-106652084D01*
X118950658Y-106648574D01*
X118974550Y-106647400D01*
X119887050Y-106647400D01*
X119910942Y-106648574D01*
X119910942Y-106648574D01*
G37*
D11*
X119430800Y-107134900D03*
D10*
G36*
X119910942Y-104773574D02*
X119934603Y-104777084D01*
X119957807Y-104782896D01*
X119980329Y-104790954D01*
X120001953Y-104801182D01*
X120022470Y-104813479D01*
X120041683Y-104827729D01*
X120059407Y-104843793D01*
X120075471Y-104861517D01*
X120089721Y-104880730D01*
X120102018Y-104901247D01*
X120112246Y-104922871D01*
X120120304Y-104945393D01*
X120126116Y-104968597D01*
X120129626Y-104992258D01*
X120130800Y-105016150D01*
X120130800Y-105503650D01*
X120129626Y-105527542D01*
X120126116Y-105551203D01*
X120120304Y-105574407D01*
X120112246Y-105596929D01*
X120102018Y-105618553D01*
X120089721Y-105639070D01*
X120075471Y-105658283D01*
X120059407Y-105676007D01*
X120041683Y-105692071D01*
X120022470Y-105706321D01*
X120001953Y-105718618D01*
X119980329Y-105728846D01*
X119957807Y-105736904D01*
X119934603Y-105742716D01*
X119910942Y-105746226D01*
X119887050Y-105747400D01*
X118974550Y-105747400D01*
X118950658Y-105746226D01*
X118926997Y-105742716D01*
X118903793Y-105736904D01*
X118881271Y-105728846D01*
X118859647Y-105718618D01*
X118839130Y-105706321D01*
X118819917Y-105692071D01*
X118802193Y-105676007D01*
X118786129Y-105658283D01*
X118771879Y-105639070D01*
X118759582Y-105618553D01*
X118749354Y-105596929D01*
X118741296Y-105574407D01*
X118735484Y-105551203D01*
X118731974Y-105527542D01*
X118730800Y-105503650D01*
X118730800Y-105016150D01*
X118731974Y-104992258D01*
X118735484Y-104968597D01*
X118741296Y-104945393D01*
X118749354Y-104922871D01*
X118759582Y-104901247D01*
X118771879Y-104880730D01*
X118786129Y-104861517D01*
X118802193Y-104843793D01*
X118819917Y-104827729D01*
X118839130Y-104813479D01*
X118859647Y-104801182D01*
X118881271Y-104790954D01*
X118903793Y-104782896D01*
X118926997Y-104777084D01*
X118950658Y-104773574D01*
X118974550Y-104772400D01*
X119887050Y-104772400D01*
X119910942Y-104773574D01*
X119910942Y-104773574D01*
G37*
D11*
X119430800Y-105259900D03*
G04 #@! TD*
D25*
G04 #@! TO.C,8Mhz1*
X81516800Y-80772000D03*
X73016800Y-80772000D03*
G04 #@! TD*
M02*
