  0
SECTION
  2
HEADER
  9
$ANGBASE
  50
0.0
  9
$ANGDIR
  70
  1
  9
$MEASUREMENT
  70
0
  0
ENDSEC
  0
SECTION
  2
TABLES
  0
TABLE
  2
LTYPE
  70
4
  0
LTYPE
  5
40F
  2
CONTINUOUS
  70
0
  3
Solid line
  72
65
  73
0
  40
0.0
  0
LTYPE
  5
410
  2
DASHDOT
 70
0
  3
Dash Dot ____ _ ____ _
 72
65
 73
4
 40
2.0
 49
1.25
 49
-0.25
 49
0.25
 49
-0.25
  0
LTYPE
  5
411
  2
DASHED
 70
0
  3
Dashed __ __ __ __ __
 72
65
 73
2
 40
0.75
 49
0.5
 49
-0.25
  0
LTYPE
  5
43B
  2
DOTTED
 70
0
  3
Dotted .  .  .  .
 72
65
 73
2
 40
0.2
 49
0.0
 49
-0.2
  0
ENDTAB
  0
TABLE
  2
STYLE
  70
4
  0
STYLE
  2
KICAD
  70
0
  40
0
  41
1
  42
1
  50
0
  71
0
  3
isocp.shx
  0
STYLE
  2
KICADB
  70
0
  40
0
  41
1
  42
1
  50
0
  71
0
  3
isocp.shx
  0
STYLE
  2
KICADI
  70
0
  40
0
  41
1
  42
1
  50
15
  71
0
  3
isocp.shx
  0
STYLE
  2
KICADBI
  70
0
  40
0
  41
1
  42
1
  50
15
  71
0
  3
isocp.shx
  0
ENDTAB
  0
TABLE
  2
LAYER
  70
30
  0
LAYER
  2
BLACK
  70
0
  62
7
  6
CONTINUOUS
  0
LAYER
  2
GRAY1
  70
0
  62
251
  6
CONTINUOUS
  0
LAYER
  2
GRAY2
  70
0
  62
8
  6
CONTINUOUS
  0
LAYER
  2
GRAY3
  70
0
  62
9
  6
CONTINUOUS
  0
LAYER
  2
WHITE
  70
0
  62
7
  6
CONTINUOUS
  0
LAYER
  2
LYELLOW
  70
0
  62
51
  6
CONTINUOUS
  0
LAYER
  2
BLUE1
  70
0
  62
178
  6
CONTINUOUS
  0
LAYER
  2
GREEN1
  70
0
  62
98
  6
CONTINUOUS
  0
LAYER
  2
CYAN1
  70
0
  62
138
  6
CONTINUOUS
  0
LAYER
  2
RED1
  70
0
  62
18
  6
CONTINUOUS
  0
LAYER
  2
MAGENTA1
  70
0
  62
228
  6
CONTINUOUS
  0
LAYER
  2
BROWN1
  70
0
  62
58
  6
CONTINUOUS
  0
LAYER
  2
BLUE2
  70
0
  62
5
  6
CONTINUOUS
  0
LAYER
  2
GREEN2
  70
0
  62
3
  6
CONTINUOUS
  0
LAYER
  2
CYAN2
  70
0
  62
4
  6
CONTINUOUS
  0
LAYER
  2
RED2
  70
0
  62
1
  6
CONTINUOUS
  0
LAYER
  2
MAGENTA2
  70
0
  62
6
  6
CONTINUOUS
  0
LAYER
  2
BROWN2
  70
0
  62
54
  6
CONTINUOUS
  0
LAYER
  2
BLUE3
  70
0
  62
171
  6
CONTINUOUS
  0
LAYER
  2
GREEN3
  70
0
  62
91
  6
CONTINUOUS
  0
LAYER
  2
CYAN3
  70
0
  62
131
  6
CONTINUOUS
  0
LAYER
  2
RED3
  70
0
  62
11
  6
CONTINUOUS
  0
LAYER
  2
MAGENTA3
  70
0
  62
221
  6
CONTINUOUS
  0
LAYER
  2
YELLOW3
  70
0
  62
2
  6
CONTINUOUS
  0
LAYER
  2
BLUE4
  70
0
  62
5
  6
CONTINUOUS
  0
LAYER
  2
GREEN4
  70
0
  62
3
  6
CONTINUOUS
  0
LAYER
  2
CYAN4
  70
0
  62
4
  6
CONTINUOUS
  0
LAYER
  2
RED4
  70
0
  62
1
  6
CONTINUOUS
  0
LAYER
  2
MAGENTA4
  70
0
  62
6
  6
CONTINUOUS
  0
LAYER
  2
YELLOW4
  70
0
  62
2
  6
CONTINUOUS
  0
ENDTAB
  0
ENDSEC
  0
SECTION
  2
ENTITIES
0
LINE
8
BLACK
6
CONTINUOUS
10
114.007
20
-66.925
11
114.013
21
-66.925
0
LINE
8
BLACK
6
CONTINUOUS
10
114.013
20
-66.925
11
114.019
21
-66.9273
0
LINE
8
BLACK
6
CONTINUOUS
10
114.019
20
-66.9273
11
114.026
21
-66.9284
0
LINE
8
BLACK
6
CONTINUOUS
10
114.026
20
-66.9284
11
114.032
21
-66.9318
0
LINE
8
BLACK
6
CONTINUOUS
10
114.032
20
-66.9318
11
114.038
21
-66.934
0
LINE
8
BLACK
6
CONTINUOUS
10
114.038
20
-66.934
11
114.043
21
-66.9383
0
LINE
8
BLACK
6
CONTINUOUS
10
114.043
20
-66.9383
11
114.049
21
-66.9417
0
LINE
8
BLACK
6
CONTINUOUS
10
114.049
20
-66.9417
11
114.053
21
-66.9468
0
LINE
8
BLACK
6
CONTINUOUS
10
114.053
20
-66.9468
11
114.058
21
-66.951
0
LINE
8
BLACK
6
CONTINUOUS
10
114.058
20
-66.951
11
114.062
21
-66.9568
0
LINE
8
BLACK
6
CONTINUOUS
10
114.062
20
-66.9568
11
114.066
21
-66.9619
0
LINE
8
BLACK
6
CONTINUOUS
10
114.066
20
-66.9619
11
114.068
21
-66.9682
0
LINE
8
BLACK
6
CONTINUOUS
10
114.068
20
-66.9682
11
114.072
21
-66.974
0
LINE
8
BLACK
6
CONTINUOUS
10
114.072
20
-66.974
11
114.073
21
-66.9805
0
LINE
8
BLACK
6
CONTINUOUS
10
114.073
20
-66.9805
11
114.075
21
-66.9868
0
LINE
8
BLACK
6
CONTINUOUS
10
114.075
20
-66.9868
11
114.075
21
-66.9934
0
LINE
8
BLACK
6
CONTINUOUS
10
114.075
20
-66.9934
11
114.075
21
-66.9934
0
LINE
8
BLACK
6
CONTINUOUS
10
114.075
20
-66.9934
11
114.075
21
-76.925
0
LINE
8
BLACK
6
CONTINUOUS
10
114.075
20
-76.925
11
124.007
21
-76.925
0
LINE
8
BLACK
6
CONTINUOUS
10
124.007
20
-76.925
11
124.007
21
-76.925
0
LINE
8
BLACK
6
CONTINUOUS
10
124.007
20
-76.925
11
124.013
21
-76.925
0
LINE
8
BLACK
6
CONTINUOUS
10
124.013
20
-76.925
11
124.019
21
-76.9273
0
LINE
8
BLACK
6
CONTINUOUS
10
124.019
20
-76.9273
11
124.026
21
-76.9284
0
LINE
8
BLACK
6
CONTINUOUS
10
124.026
20
-76.9284
11
124.032
21
-76.9318
0
LINE
8
BLACK
6
CONTINUOUS
10
124.032
20
-76.9318
11
124.038
21
-76.934
0
LINE
8
BLACK
6
CONTINUOUS
10
124.038
20
-76.934
11
124.043
21
-76.9383
0
LINE
8
BLACK
6
CONTINUOUS
10
124.043
20
-76.9383
11
124.049
21
-76.9417
0
LINE
8
BLACK
6
CONTINUOUS
10
124.049
20
-76.9417
11
124.053
21
-76.9468
0
LINE
8
BLACK
6
CONTINUOUS
10
124.053
20
-76.9468
11
124.058
21
-76.951
0
LINE
8
BLACK
6
CONTINUOUS
10
124.058
20
-76.951
11
124.062
21
-76.9568
0
LINE
8
BLACK
6
CONTINUOUS
10
124.062
20
-76.9568
11
124.066
21
-76.9619
0
LINE
8
BLACK
6
CONTINUOUS
10
124.066
20
-76.9619
11
124.068
21
-76.9682
0
LINE
8
BLACK
6
CONTINUOUS
10
124.068
20
-76.9682
11
124.072
21
-76.974
0
LINE
8
BLACK
6
CONTINUOUS
10
124.072
20
-76.974
11
124.073
21
-76.9805
0
LINE
8
BLACK
6
CONTINUOUS
10
124.073
20
-76.9805
11
124.075
21
-76.9868
0
LINE
8
BLACK
6
CONTINUOUS
10
124.075
20
-76.9868
11
124.075
21
-76.9934
0
LINE
8
BLACK
6
CONTINUOUS
10
124.075
20
-76.9934
11
124.075
21
-76.9934
0
LINE
8
BLACK
6
CONTINUOUS
10
124.075
20
-76.9934
11
124.075
21
-109.007
0
LINE
8
BLACK
6
CONTINUOUS
10
124.075
20
-109.007
11
124.075
21
-109.007
0
LINE
8
BLACK
6
CONTINUOUS
10
124.075
20
-109.007
11
124.075
21
-109.013
0
LINE
8
BLACK
6
CONTINUOUS
10
124.075
20
-109.013
11
124.073
21
-109.019
0
LINE
8
BLACK
6
CONTINUOUS
10
124.073
20
-109.019
11
124.072
21
-109.026
0
LINE
8
BLACK
6
CONTINUOUS
10
124.072
20
-109.026
11
124.068
21
-109.032
0
LINE
8
BLACK
6
CONTINUOUS
10
124.068
20
-109.032
11
124.066
21
-109.038
0
LINE
8
BLACK
6
CONTINUOUS
10
124.066
20
-109.038
11
124.062
21
-109.043
0
LINE
8
BLACK
6
CONTINUOUS
10
124.062
20
-109.043
11
124.058
21
-109.049
0
LINE
8
BLACK
6
CONTINUOUS
10
124.058
20
-109.049
11
124.053
21
-109.053
0
LINE
8
BLACK
6
CONTINUOUS
10
124.053
20
-109.053
11
124.049
21
-109.058
0
LINE
8
BLACK
6
CONTINUOUS
10
124.049
20
-109.058
11
124.043
21
-109.062
0
LINE
8
BLACK
6
CONTINUOUS
10
124.043
20
-109.062
11
124.038
21
-109.066
0
LINE
8
BLACK
6
CONTINUOUS
10
124.038
20
-109.066
11
124.032
21
-109.068
0
LINE
8
BLACK
6
CONTINUOUS
10
124.032
20
-109.068
11
124.026
21
-109.072
0
LINE
8
BLACK
6
CONTINUOUS
10
124.026
20
-109.072
11
124.019
21
-109.073
0
LINE
8
BLACK
6
CONTINUOUS
10
124.019
20
-109.073
11
124.013
21
-109.075
0
LINE
8
BLACK
6
CONTINUOUS
10
124.013
20
-109.075
11
124.007
21
-109.075
0
LINE
8
BLACK
6
CONTINUOUS
10
124.007
20
-109.075
11
124.007
21
-109.075
0
LINE
8
BLACK
6
CONTINUOUS
10
124.007
20
-109.075
11
69.9934
21
-109.075
0
LINE
8
BLACK
6
CONTINUOUS
10
69.9934
20
-109.075
11
69.9934
21
-109.075
0
LINE
8
BLACK
6
CONTINUOUS
10
69.9934
20
-109.075
11
69.9868
21
-109.075
0
LINE
8
BLACK
6
CONTINUOUS
10
69.9868
20
-109.075
11
69.9805
21
-109.073
0
LINE
8
BLACK
6
CONTINUOUS
10
69.9805
20
-109.073
11
69.974
21
-109.072
0
LINE
8
BLACK
6
CONTINUOUS
10
69.974
20
-109.072
11
69.9682
21
-109.068
0
LINE
8
BLACK
6
CONTINUOUS
10
69.9682
20
-109.068
11
69.9619
21
-109.066
0
LINE
8
BLACK
6
CONTINUOUS
10
69.9619
20
-109.066
11
69.9568
21
-109.062
0
LINE
8
BLACK
6
CONTINUOUS
10
69.9568
20
-109.062
11
69.951
21
-109.058
0
LINE
8
BLACK
6
CONTINUOUS
10
69.951
20
-109.058
11
69.9468
21
-109.053
0
LINE
8
BLACK
6
CONTINUOUS
10
69.9468
20
-109.053
11
69.9417
21
-109.049
0
LINE
8
BLACK
6
CONTINUOUS
10
69.9417
20
-109.049
11
69.9383
21
-109.043
0
LINE
8
BLACK
6
CONTINUOUS
10
69.9383
20
-109.043
11
69.934
21
-109.038
0
LINE
8
BLACK
6
CONTINUOUS
10
69.934
20
-109.038
11
69.9318
21
-109.032
0
LINE
8
BLACK
6
CONTINUOUS
10
69.9318
20
-109.032
11
69.9284
21
-109.026
0
LINE
8
BLACK
6
CONTINUOUS
10
69.9284
20
-109.026
11
69.9273
21
-109.019
0
LINE
8
BLACK
6
CONTINUOUS
10
69.9273
20
-109.019
11
69.925
21
-109.013
0
LINE
8
BLACK
6
CONTINUOUS
10
69.925
20
-109.013
11
69.925
21
-109.007
0
LINE
8
BLACK
6
CONTINUOUS
10
69.925
20
-109.007
11
69.925
21
-109.007
0
LINE
8
BLACK
6
CONTINUOUS
10
69.925
20
-109.007
11
69.925
21
-76.9934
0
LINE
8
BLACK
6
CONTINUOUS
10
69.925
20
-76.9934
11
69.925
21
-76.9868
0
LINE
8
BLACK
6
CONTINUOUS
10
69.925
20
-76.9868
11
69.9273
21
-76.9805
0
LINE
8
BLACK
6
CONTINUOUS
10
69.9273
20
-76.9805
11
69.9284
21
-76.974
0
LINE
8
BLACK
6
CONTINUOUS
10
69.9284
20
-76.974
11
69.9318
21
-76.9682
0
LINE
8
BLACK
6
CONTINUOUS
10
69.9318
20
-76.9682
11
69.934
21
-76.9619
0
LINE
8
BLACK
6
CONTINUOUS
10
69.934
20
-76.9619
11
69.9383
21
-76.9568
0
LINE
8
BLACK
6
CONTINUOUS
10
69.9383
20
-76.9568
11
69.9417
21
-76.951
0
LINE
8
BLACK
6
CONTINUOUS
10
69.9417
20
-76.951
11
69.9468
21
-76.9468
0
LINE
8
BLACK
6
CONTINUOUS
10
69.9468
20
-76.9468
11
69.951
21
-76.9417
0
LINE
8
BLACK
6
CONTINUOUS
10
69.951
20
-76.9417
11
69.9568
21
-76.9383
0
LINE
8
BLACK
6
CONTINUOUS
10
69.9568
20
-76.9383
11
69.9619
21
-76.934
0
LINE
8
BLACK
6
CONTINUOUS
10
69.9619
20
-76.934
11
69.9682
21
-76.9318
0
LINE
8
BLACK
6
CONTINUOUS
10
69.9682
20
-76.9318
11
69.974
21
-76.9284
0
LINE
8
BLACK
6
CONTINUOUS
10
69.974
20
-76.9284
11
69.9805
21
-76.9273
0
LINE
8
BLACK
6
CONTINUOUS
10
69.9805
20
-76.9273
11
69.9868
21
-76.925
0
LINE
8
BLACK
6
CONTINUOUS
10
69.9868
20
-76.925
11
69.9934
21
-76.925
0
LINE
8
BLACK
6
CONTINUOUS
10
69.9934
20
-76.925
11
69.9934
21
-76.925
0
LINE
8
BLACK
6
CONTINUOUS
10
69.9934
20
-76.925
11
79.925
21
-76.925
0
LINE
8
BLACK
6
CONTINUOUS
10
79.925
20
-76.925
11
79.925
21
-66.9934
0
LINE
8
BLACK
6
CONTINUOUS
10
79.925
20
-66.9934
11
79.925
21
-66.9868
0
LINE
8
BLACK
6
CONTINUOUS
10
79.925
20
-66.9868
11
79.9273
21
-66.9805
0
LINE
8
BLACK
6
CONTINUOUS
10
79.9273
20
-66.9805
11
79.9284
21
-66.974
0
LINE
8
BLACK
6
CONTINUOUS
10
79.9284
20
-66.974
11
79.9318
21
-66.9682
0
LINE
8
BLACK
6
CONTINUOUS
10
79.9318
20
-66.9682
11
79.934
21
-66.9619
0
LINE
8
BLACK
6
CONTINUOUS
10
79.934
20
-66.9619
11
79.9383
21
-66.9568
0
LINE
8
BLACK
6
CONTINUOUS
10
79.9383
20
-66.9568
11
79.9417
21
-66.951
0
LINE
8
BLACK
6
CONTINUOUS
10
79.9417
20
-66.951
11
79.9468
21
-66.9468
0
LINE
8
BLACK
6
CONTINUOUS
10
79.9468
20
-66.9468
11
79.951
21
-66.9417
0
LINE
8
BLACK
6
CONTINUOUS
10
79.951
20
-66.9417
11
79.9568
21
-66.9383
0
LINE
8
BLACK
6
CONTINUOUS
10
79.9568
20
-66.9383
11
79.9619
21
-66.934
0
LINE
8
BLACK
6
CONTINUOUS
10
79.9619
20
-66.934
11
79.9682
21
-66.9318
0
LINE
8
BLACK
6
CONTINUOUS
10
79.9682
20
-66.9318
11
79.974
21
-66.9284
0
LINE
8
BLACK
6
CONTINUOUS
10
79.974
20
-66.9284
11
79.9805
21
-66.9273
0
LINE
8
BLACK
6
CONTINUOUS
10
79.9805
20
-66.9273
11
79.9868
21
-66.925
0
LINE
8
BLACK
6
CONTINUOUS
10
79.9868
20
-66.925
11
79.9934
21
-66.925
0
LINE
8
BLACK
6
CONTINUOUS
10
79.9934
20
-66.925
11
79.9934
21
-66.925
0
LINE
8
BLACK
6
CONTINUOUS
10
79.9934
20
-66.925
11
114.007
21
-66.925
0
LINE
8
BLACK
6
CONTINUOUS
10
114.007
20
-66.925
11
114.007
21
-66.925
0
LINE
8
BLACK
6
CONTINUOUS
10
80.075
20
-67.075
11
80.075
21
-77.0066
0
LINE
8
BLACK
6
CONTINUOUS
10
80.075
20
-77.0066
11
80.075
21
-77.0066
0
LINE
8
BLACK
6
CONTINUOUS
10
80.075
20
-77.0066
11
80.075
21
-77.0132
0
LINE
8
BLACK
6
CONTINUOUS
10
80.075
20
-77.0132
11
80.0727
21
-77.0195
0
LINE
8
BLACK
6
CONTINUOUS
10
80.0727
20
-77.0195
11
80.0716
21
-77.026
0
LINE
8
BLACK
6
CONTINUOUS
10
80.0716
20
-77.026
11
80.0682
21
-77.0318
0
LINE
8
BLACK
6
CONTINUOUS
10
80.0682
20
-77.0318
11
80.066
21
-77.0381
0
LINE
8
BLACK
6
CONTINUOUS
10
80.066
20
-77.0381
11
80.0617
21
-77.0432
0
LINE
8
BLACK
6
CONTINUOUS
10
80.0617
20
-77.0432
11
80.0583
21
-77.049
0
LINE
8
BLACK
6
CONTINUOUS
10
80.0583
20
-77.049
11
80.0532
21
-77.0532
0
LINE
8
BLACK
6
CONTINUOUS
10
80.0532
20
-77.0532
11
80.049
21
-77.0583
0
LINE
8
BLACK
6
CONTINUOUS
10
80.049
20
-77.0583
11
80.0432
21
-77.0617
0
LINE
8
BLACK
6
CONTINUOUS
10
80.0432
20
-77.0617
11
80.0381
21
-77.066
0
LINE
8
BLACK
6
CONTINUOUS
10
80.0381
20
-77.066
11
80.0318
21
-77.0682
0
LINE
8
BLACK
6
CONTINUOUS
10
80.0318
20
-77.0682
11
80.026
21
-77.0716
0
LINE
8
BLACK
6
CONTINUOUS
10
80.026
20
-77.0716
11
80.0195
21
-77.0727
0
LINE
8
BLACK
6
CONTINUOUS
10
80.0195
20
-77.0727
11
80.0132
21
-77.075
0
LINE
8
BLACK
6
CONTINUOUS
10
80.0132
20
-77.075
11
80.0066
21
-77.075
0
LINE
8
BLACK
6
CONTINUOUS
10
80.0066
20
-77.075
11
80.0066
21
-77.075
0
LINE
8
BLACK
6
CONTINUOUS
10
80.0066
20
-77.075
11
70.075
21
-77.075
0
LINE
8
BLACK
6
CONTINUOUS
10
70.075
20
-77.075
11
70.075
21
-108.925
0
LINE
8
BLACK
6
CONTINUOUS
10
70.075
20
-108.925
11
123.925
21
-108.925
0
LINE
8
BLACK
6
CONTINUOUS
10
123.925
20
-108.925
11
123.925
21
-77.075
0
LINE
8
BLACK
6
CONTINUOUS
10
123.925
20
-77.075
11
113.993
21
-77.075
0
LINE
8
BLACK
6
CONTINUOUS
10
113.993
20
-77.075
11
113.993
21
-77.075
0
LINE
8
BLACK
6
CONTINUOUS
10
113.993
20
-77.075
11
113.987
21
-77.075
0
LINE
8
BLACK
6
CONTINUOUS
10
113.987
20
-77.075
11
113.981
21
-77.0727
0
LINE
8
BLACK
6
CONTINUOUS
10
113.981
20
-77.0727
11
113.974
21
-77.0716
0
LINE
8
BLACK
6
CONTINUOUS
10
113.974
20
-77.0716
11
113.968
21
-77.0682
0
LINE
8
BLACK
6
CONTINUOUS
10
113.968
20
-77.0682
11
113.962
21
-77.066
0
LINE
8
BLACK
6
CONTINUOUS
10
113.962
20
-77.066
11
113.957
21
-77.0617
0
LINE
8
BLACK
6
CONTINUOUS
10
113.957
20
-77.0617
11
113.951
21
-77.0583
0
LINE
8
BLACK
6
CONTINUOUS
10
113.951
20
-77.0583
11
113.947
21
-77.0532
0
LINE
8
BLACK
6
CONTINUOUS
10
113.947
20
-77.0532
11
113.942
21
-77.049
0
LINE
8
BLACK
6
CONTINUOUS
10
113.942
20
-77.049
11
113.938
21
-77.0432
0
LINE
8
BLACK
6
CONTINUOUS
10
113.938
20
-77.0432
11
113.934
21
-77.0381
0
LINE
8
BLACK
6
CONTINUOUS
10
113.934
20
-77.0381
11
113.932
21
-77.0318
0
LINE
8
BLACK
6
CONTINUOUS
10
113.932
20
-77.0318
11
113.928
21
-77.026
0
LINE
8
BLACK
6
CONTINUOUS
10
113.928
20
-77.026
11
113.927
21
-77.0195
0
LINE
8
BLACK
6
CONTINUOUS
10
113.927
20
-77.0195
11
113.925
21
-77.0132
0
LINE
8
BLACK
6
CONTINUOUS
10
113.925
20
-77.0132
11
113.925
21
-76.9868
0
LINE
8
BLACK
6
CONTINUOUS
10
113.925
20
-76.9868
11
113.925
21
-67.075
0
LINE
8
BLACK
6
CONTINUOUS
10
113.925
20
-67.075
11
80.075
21
-67.075
0
LINE
8
BLACK
6
CONTINUOUS
10
103.007
20
-86.925
11
103.013
21
-86.925
0
LINE
8
BLACK
6
CONTINUOUS
10
103.013
20
-86.925
11
103.019
21
-86.9273
0
LINE
8
BLACK
6
CONTINUOUS
10
103.019
20
-86.9273
11
103.026
21
-86.9284
0
LINE
8
BLACK
6
CONTINUOUS
10
103.026
20
-86.9284
11
103.032
21
-86.9318
0
LINE
8
BLACK
6
CONTINUOUS
10
103.032
20
-86.9318
11
103.038
21
-86.934
0
LINE
8
BLACK
6
CONTINUOUS
10
103.038
20
-86.934
11
103.043
21
-86.9383
0
LINE
8
BLACK
6
CONTINUOUS
10
103.043
20
-86.9383
11
103.049
21
-86.9417
0
LINE
8
BLACK
6
CONTINUOUS
10
103.049
20
-86.9417
11
103.053
21
-86.9468
0
LINE
8
BLACK
6
CONTINUOUS
10
103.053
20
-86.9468
11
103.058
21
-86.951
0
LINE
8
BLACK
6
CONTINUOUS
10
103.058
20
-86.951
11
103.062
21
-86.9568
0
LINE
8
BLACK
6
CONTINUOUS
10
103.062
20
-86.9568
11
103.066
21
-86.9619
0
LINE
8
BLACK
6
CONTINUOUS
10
103.066
20
-86.9619
11
103.068
21
-86.9682
0
LINE
8
BLACK
6
CONTINUOUS
10
103.068
20
-86.9682
11
103.072
21
-86.974
0
LINE
8
BLACK
6
CONTINUOUS
10
103.072
20
-86.974
11
103.073
21
-86.9805
0
LINE
8
BLACK
6
CONTINUOUS
10
103.073
20
-86.9805
11
103.075
21
-86.9868
0
LINE
8
BLACK
6
CONTINUOUS
10
103.075
20
-86.9868
11
103.075
21
-86.9934
0
LINE
8
BLACK
6
CONTINUOUS
10
103.075
20
-86.9934
11
103.075
21
-86.9934
0
LINE
8
BLACK
6
CONTINUOUS
10
103.075
20
-86.9934
11
103.075
21
-100.007
0
LINE
8
BLACK
6
CONTINUOUS
10
103.075
20
-100.007
11
103.075
21
-100.007
0
LINE
8
BLACK
6
CONTINUOUS
10
103.075
20
-100.007
11
103.075
21
-100.013
0
LINE
8
BLACK
6
CONTINUOUS
10
103.075
20
-100.013
11
103.073
21
-100.019
0
LINE
8
BLACK
6
CONTINUOUS
10
103.073
20
-100.019
11
103.072
21
-100.026
0
LINE
8
BLACK
6
CONTINUOUS
10
103.072
20
-100.026
11
103.068
21
-100.032
0
LINE
8
BLACK
6
CONTINUOUS
10
103.068
20
-100.032
11
103.066
21
-100.038
0
LINE
8
BLACK
6
CONTINUOUS
10
103.066
20
-100.038
11
103.062
21
-100.043
0
LINE
8
BLACK
6
CONTINUOUS
10
103.062
20
-100.043
11
103.058
21
-100.049
0
LINE
8
BLACK
6
CONTINUOUS
10
103.058
20
-100.049
11
103.053
21
-100.053
0
LINE
8
BLACK
6
CONTINUOUS
10
103.053
20
-100.053
11
103.049
21
-100.058
0
LINE
8
BLACK
6
CONTINUOUS
10
103.049
20
-100.058
11
103.043
21
-100.062
0
LINE
8
BLACK
6
CONTINUOUS
10
103.043
20
-100.062
11
103.038
21
-100.066
0
LINE
8
BLACK
6
CONTINUOUS
10
103.038
20
-100.066
11
103.032
21
-100.068
0
LINE
8
BLACK
6
CONTINUOUS
10
103.032
20
-100.068
11
103.026
21
-100.072
0
LINE
8
BLACK
6
CONTINUOUS
10
103.026
20
-100.072
11
103.019
21
-100.073
0
LINE
8
BLACK
6
CONTINUOUS
10
103.019
20
-100.073
11
103.013
21
-100.075
0
LINE
8
BLACK
6
CONTINUOUS
10
103.013
20
-100.075
11
103.007
21
-100.075
0
LINE
8
BLACK
6
CONTINUOUS
10
103.007
20
-100.075
11
103.007
21
-100.075
0
LINE
8
BLACK
6
CONTINUOUS
10
103.007
20
-100.075
11
90.9934
21
-100.075
0
LINE
8
BLACK
6
CONTINUOUS
10
90.9934
20
-100.075
11
90.9934
21
-100.075
0
LINE
8
BLACK
6
CONTINUOUS
10
90.9934
20
-100.075
11
90.9868
21
-100.075
0
LINE
8
BLACK
6
CONTINUOUS
10
90.9868
20
-100.075
11
90.9805
21
-100.073
0
LINE
8
BLACK
6
CONTINUOUS
10
90.9805
20
-100.073
11
90.974
21
-100.072
0
LINE
8
BLACK
6
CONTINUOUS
10
90.974
20
-100.072
11
90.9682
21
-100.068
0
LINE
8
BLACK
6
CONTINUOUS
10
90.9682
20
-100.068
11
90.9619
21
-100.066
0
LINE
8
BLACK
6
CONTINUOUS
10
90.9619
20
-100.066
11
90.9568
21
-100.062
0
LINE
8
BLACK
6
CONTINUOUS
10
90.9568
20
-100.062
11
90.951
21
-100.058
0
LINE
8
BLACK
6
CONTINUOUS
10
90.951
20
-100.058
11
90.9468
21
-100.053
0
LINE
8
BLACK
6
CONTINUOUS
10
90.9468
20
-100.053
11
90.9417
21
-100.049
0
LINE
8
BLACK
6
CONTINUOUS
10
90.9417
20
-100.049
11
90.9383
21
-100.043
0
LINE
8
BLACK
6
CONTINUOUS
10
90.9383
20
-100.043
11
90.934
21
-100.038
0
LINE
8
BLACK
6
CONTINUOUS
10
90.934
20
-100.038
11
90.9318
21
-100.032
0
LINE
8
BLACK
6
CONTINUOUS
10
90.9318
20
-100.032
11
90.9284
21
-100.026
0
LINE
8
BLACK
6
CONTINUOUS
10
90.9284
20
-100.026
11
90.9273
21
-100.019
0
LINE
8
BLACK
6
CONTINUOUS
10
90.9273
20
-100.019
11
90.925
21
-100.013
0
LINE
8
BLACK
6
CONTINUOUS
10
90.925
20
-100.013
11
90.925
21
-99.9868
0
LINE
8
BLACK
6
CONTINUOUS
10
90.925
20
-99.9868
11
90.925
21
-86.9934
0
LINE
8
BLACK
6
CONTINUOUS
10
90.925
20
-86.9934
11
90.925
21
-86.9934
0
LINE
8
BLACK
6
CONTINUOUS
10
90.925
20
-86.9934
11
90.925
21
-86.9868
0
LINE
8
BLACK
6
CONTINUOUS
10
90.925
20
-86.9868
11
90.9273
21
-86.9805
0
LINE
8
BLACK
6
CONTINUOUS
10
90.9273
20
-86.9805
11
90.9284
21
-86.974
0
LINE
8
BLACK
6
CONTINUOUS
10
90.9284
20
-86.974
11
90.9318
21
-86.9682
0
LINE
8
BLACK
6
CONTINUOUS
10
90.9318
20
-86.9682
11
90.934
21
-86.9619
0
LINE
8
BLACK
6
CONTINUOUS
10
90.934
20
-86.9619
11
90.9383
21
-86.9568
0
LINE
8
BLACK
6
CONTINUOUS
10
90.9383
20
-86.9568
11
90.9417
21
-86.951
0
LINE
8
BLACK
6
CONTINUOUS
10
90.9417
20
-86.951
11
90.9468
21
-86.9468
0
LINE
8
BLACK
6
CONTINUOUS
10
90.9468
20
-86.9468
11
90.951
21
-86.9417
0
LINE
8
BLACK
6
CONTINUOUS
10
90.951
20
-86.9417
11
90.9568
21
-86.9383
0
LINE
8
BLACK
6
CONTINUOUS
10
90.9568
20
-86.9383
11
90.9619
21
-86.934
0
LINE
8
BLACK
6
CONTINUOUS
10
90.9619
20
-86.934
11
90.9682
21
-86.9318
0
LINE
8
BLACK
6
CONTINUOUS
10
90.9682
20
-86.9318
11
90.974
21
-86.9284
0
LINE
8
BLACK
6
CONTINUOUS
10
90.974
20
-86.9284
11
90.9805
21
-86.9273
0
LINE
8
BLACK
6
CONTINUOUS
10
90.9805
20
-86.9273
11
90.9868
21
-86.925
0
LINE
8
BLACK
6
CONTINUOUS
10
90.9868
20
-86.925
11
90.9934
21
-86.925
0
LINE
8
BLACK
6
CONTINUOUS
10
90.9934
20
-86.925
11
90.9934
21
-86.925
0
LINE
8
BLACK
6
CONTINUOUS
10
90.9934
20
-86.925
11
103.007
21
-86.925
0
LINE
8
BLACK
6
CONTINUOUS
10
103.007
20
-86.925
11
103.007
21
-86.925
0
LINE
8
BLACK
6
CONTINUOUS
10
91.075
20
-87.075
11
91.075
21
-99.925
0
LINE
8
BLACK
6
CONTINUOUS
10
91.075
20
-99.925
11
102.925
21
-99.925
0
LINE
8
BLACK
6
CONTINUOUS
10
102.925
20
-99.925
11
102.925
21
-87.075
0
LINE
8
BLACK
6
CONTINUOUS
10
102.925
20
-87.075
11
91.075
21
-87.075
  0
ENDSEC
  0
EOF
