  0
SECTION
  2
HEADER
  9
$ANGBASE
  50
0.0
  9
$ANGDIR
  70
  1
  9
$MEASUREMENT
  70
0
  0
ENDSEC
  0
SECTION
  2
TABLES
  0
TABLE
  2
LTYPE
  70
4
  0
LTYPE
  5
40F
  2
CONTINUOUS
  70
0
  3
Solid line
  72
65
  73
0
  40
0.0
  0
LTYPE
  5
410
  2
DASHDOT
 70
0
  3
Dash Dot ____ _ ____ _
 72
65
 73
4
 40
2.0
 49
1.25
 49
-0.25
 49
0.25
 49
-0.25
  0
LTYPE
  5
411
  2
DASHED
 70
0
  3
Dashed __ __ __ __ __
 72
65
 73
2
 40
0.75
 49
0.5
 49
-0.25
  0
LTYPE
  5
43B
  2
DOTTED
 70
0
  3
Dotted .  .  .  .
 72
65
 73
2
 40
0.2
 49
0.0
 49
-0.2
  0
ENDTAB
  0
TABLE
  2
STYLE
  70
4
  0
STYLE
  2
KICAD
  70
0
  40
0
  41
1
  42
1
  50
0
  71
0
  3
isocp.shx
  0
STYLE
  2
KICADB
  70
0
  40
0
  41
1
  42
1
  50
0
  71
0
  3
isocp.shx
  0
STYLE
  2
KICADI
  70
0
  40
0
  41
1
  42
1
  50
15
  71
0
  3
isocp.shx
  0
STYLE
  2
KICADBI
  70
0
  40
0
  41
1
  42
1
  50
15
  71
0
  3
isocp.shx
  0
ENDTAB
  0
TABLE
  2
LAYER
  70
30
  0
LAYER
  2
BLACK
  70
0
  62
7
  6
CONTINUOUS
  0
LAYER
  2
GRAY1
  70
0
  62
251
  6
CONTINUOUS
  0
LAYER
  2
GRAY2
  70
0
  62
8
  6
CONTINUOUS
  0
LAYER
  2
GRAY3
  70
0
  62
9
  6
CONTINUOUS
  0
LAYER
  2
WHITE
  70
0
  62
7
  6
CONTINUOUS
  0
LAYER
  2
LYELLOW
  70
0
  62
51
  6
CONTINUOUS
  0
LAYER
  2
BLUE1
  70
0
  62
178
  6
CONTINUOUS
  0
LAYER
  2
GREEN1
  70
0
  62
98
  6
CONTINUOUS
  0
LAYER
  2
CYAN1
  70
0
  62
138
  6
CONTINUOUS
  0
LAYER
  2
RED1
  70
0
  62
18
  6
CONTINUOUS
  0
LAYER
  2
MAGENTA1
  70
0
  62
228
  6
CONTINUOUS
  0
LAYER
  2
BROWN1
  70
0
  62
58
  6
CONTINUOUS
  0
LAYER
  2
BLUE2
  70
0
  62
5
  6
CONTINUOUS
  0
LAYER
  2
GREEN2
  70
0
  62
3
  6
CONTINUOUS
  0
LAYER
  2
CYAN2
  70
0
  62
4
  6
CONTINUOUS
  0
LAYER
  2
RED2
  70
0
  62
1
  6
CONTINUOUS
  0
LAYER
  2
MAGENTA2
  70
0
  62
6
  6
CONTINUOUS
  0
LAYER
  2
BROWN2
  70
0
  62
54
  6
CONTINUOUS
  0
LAYER
  2
BLUE3
  70
0
  62
171
  6
CONTINUOUS
  0
LAYER
  2
GREEN3
  70
0
  62
91
  6
CONTINUOUS
  0
LAYER
  2
CYAN3
  70
0
  62
131
  6
CONTINUOUS
  0
LAYER
  2
RED3
  70
0
  62
11
  6
CONTINUOUS
  0
LAYER
  2
MAGENTA3
  70
0
  62
221
  6
CONTINUOUS
  0
LAYER
  2
YELLOW3
  70
0
  62
2
  6
CONTINUOUS
  0
LAYER
  2
BLUE4
  70
0
  62
5
  6
CONTINUOUS
  0
LAYER
  2
GREEN4
  70
0
  62
3
  6
CONTINUOUS
  0
LAYER
  2
CYAN4
  70
0
  62
4
  6
CONTINUOUS
  0
LAYER
  2
RED4
  70
0
  62
1
  6
CONTINUOUS
  0
LAYER
  2
MAGENTA4
  70
0
  62
6
  6
CONTINUOUS
  0
LAYER
  2
YELLOW4
  70
0
  62
2
  6
CONTINUOUS
  0
ENDTAB
  0
ENDSEC
  0
SECTION
  2
ENTITIES
0
LINE
8
BLACK
6
CONTINUOUS
10
80.7158
20
-107.316
11
80.7891
21
-107.358
0
LINE
8
BLACK
6
CONTINUOUS
10
80.7891
20
-107.358
11
80.8435
21
-107.423
0
LINE
8
BLACK
6
CONTINUOUS
10
80.8435
20
-107.423
11
80.8762
21
-107.545
0
LINE
8
BLACK
6
CONTINUOUS
10
80.8762
20
-107.545
11
80.8762
21
-108.457
0
LINE
8
BLACK
6
CONTINUOUS
10
80.8762
20
-108.457
11
80.8615
21
-108.54
0
LINE
8
BLACK
6
CONTINUOUS
10
80.8615
20
-108.54
11
80.8192
21
-108.614
0
LINE
8
BLACK
6
CONTINUOUS
10
80.8192
20
-108.614
11
80.7543
21
-108.668
0
LINE
8
BLACK
6
CONTINUOUS
10
80.7543
20
-108.668
11
80.6324
21
-108.701
0
LINE
8
BLACK
6
CONTINUOUS
10
80.6324
20
-108.701
11
80.1449
21
-108.701
0
LINE
8
BLACK
6
CONTINUOUS
10
80.1449
20
-108.701
11
80.0616
21
-108.686
0
LINE
8
BLACK
6
CONTINUOUS
10
80.0616
20
-108.686
11
79.9883
21
-108.644
0
LINE
8
BLACK
6
CONTINUOUS
10
79.9883
20
-108.644
11
79.9339
21
-108.579
0
LINE
8
BLACK
6
CONTINUOUS
10
79.9339
20
-108.579
11
79.9012
21
-108.457
0
LINE
8
BLACK
6
CONTINUOUS
10
79.9012
20
-108.457
11
79.9012
21
-107.545
0
LINE
8
BLACK
6
CONTINUOUS
10
79.9012
20
-107.545
11
79.9159
21
-107.461
0
LINE
8
BLACK
6
CONTINUOUS
10
79.9159
20
-107.461
11
79.9582
21
-107.388
0
LINE
8
BLACK
6
CONTINUOUS
10
79.9582
20
-107.388
11
80.0231
21
-107.333
0
LINE
8
BLACK
6
CONTINUOUS
10
80.0231
20
-107.333
11
80.1449
21
-107.301
0
LINE
8
BLACK
6
CONTINUOUS
10
80.1449
20
-107.301
11
80.6324
21
-107.301
0
LINE
8
BLACK
6
CONTINUOUS
10
80.6324
20
-107.301
11
80.7158
21
-107.316
0
LINE
8
BLACK
6
CONTINUOUS
10
78.8408
20
-107.316
11
78.9141
21
-107.358
0
LINE
8
BLACK
6
CONTINUOUS
10
78.9141
20
-107.358
11
78.9685
21
-107.423
0
LINE
8
BLACK
6
CONTINUOUS
10
78.9685
20
-107.423
11
79.0012
21
-107.545
0
LINE
8
BLACK
6
CONTINUOUS
10
79.0012
20
-107.545
11
79.0012
21
-108.457
0
LINE
8
BLACK
6
CONTINUOUS
10
79.0012
20
-108.457
11
78.9865
21
-108.54
0
LINE
8
BLACK
6
CONTINUOUS
10
78.9865
20
-108.54
11
78.9442
21
-108.614
0
LINE
8
BLACK
6
CONTINUOUS
10
78.9442
20
-108.614
11
78.8793
21
-108.668
0
LINE
8
BLACK
6
CONTINUOUS
10
78.8793
20
-108.668
11
78.7574
21
-108.701
0
LINE
8
BLACK
6
CONTINUOUS
10
78.7574
20
-108.701
11
78.2699
21
-108.701
0
LINE
8
BLACK
6
CONTINUOUS
10
78.2699
20
-108.701
11
78.1866
21
-108.686
0
LINE
8
BLACK
6
CONTINUOUS
10
78.1866
20
-108.686
11
78.1133
21
-108.644
0
LINE
8
BLACK
6
CONTINUOUS
10
78.1133
20
-108.644
11
78.0589
21
-108.579
0
LINE
8
BLACK
6
CONTINUOUS
10
78.0589
20
-108.579
11
78.0262
21
-108.457
0
LINE
8
BLACK
6
CONTINUOUS
10
78.0262
20
-108.457
11
78.0262
21
-107.545
0
LINE
8
BLACK
6
CONTINUOUS
10
78.0262
20
-107.545
11
78.0409
21
-107.461
0
LINE
8
BLACK
6
CONTINUOUS
10
78.0409
20
-107.461
11
78.0832
21
-107.388
0
LINE
8
BLACK
6
CONTINUOUS
10
78.0832
20
-107.388
11
78.1481
21
-107.333
0
LINE
8
BLACK
6
CONTINUOUS
10
78.1481
20
-107.333
11
78.2699
21
-107.301
0
LINE
8
BLACK
6
CONTINUOUS
10
78.2699
20
-107.301
11
78.7574
21
-107.301
0
LINE
8
BLACK
6
CONTINUOUS
10
78.7574
20
-107.301
11
78.8408
21
-107.316
0
LINE
8
BLACK
6
CONTINUOUS
10
109.252
20
-106.764
11
109.325
21
-106.806
0
LINE
8
BLACK
6
CONTINUOUS
10
109.325
20
-106.806
11
109.379
21
-106.871
0
LINE
8
BLACK
6
CONTINUOUS
10
109.379
20
-106.871
11
109.412
21
-106.993
0
LINE
8
BLACK
6
CONTINUOUS
10
109.412
20
-106.993
11
109.412
21
-107.48
0
LINE
8
BLACK
6
CONTINUOUS
10
109.412
20
-107.48
11
109.397
21
-107.564
0
LINE
8
BLACK
6
CONTINUOUS
10
109.397
20
-107.564
11
109.355
21
-107.637
0
LINE
8
BLACK
6
CONTINUOUS
10
109.355
20
-107.637
11
109.29
21
-107.691
0
LINE
8
BLACK
6
CONTINUOUS
10
109.29
20
-107.691
11
109.168
21
-107.724
0
LINE
8
BLACK
6
CONTINUOUS
10
109.168
20
-107.724
11
108.256
21
-107.724
0
LINE
8
BLACK
6
CONTINUOUS
10
108.256
20
-107.724
11
108.172
21
-107.709
0
LINE
8
BLACK
6
CONTINUOUS
10
108.172
20
-107.709
11
108.099
21
-107.667
0
LINE
8
BLACK
6
CONTINUOUS
10
108.099
20
-107.667
11
108.045
21
-107.602
0
LINE
8
BLACK
6
CONTINUOUS
10
108.045
20
-107.602
11
108.012
21
-107.48
0
LINE
8
BLACK
6
CONTINUOUS
10
108.012
20
-107.48
11
108.012
21
-106.993
0
LINE
8
BLACK
6
CONTINUOUS
10
108.012
20
-106.993
11
108.027
21
-106.909
0
LINE
8
BLACK
6
CONTINUOUS
10
108.027
20
-106.909
11
108.069
21
-106.836
0
LINE
8
BLACK
6
CONTINUOUS
10
108.069
20
-106.836
11
108.134
21
-106.782
0
LINE
8
BLACK
6
CONTINUOUS
10
108.134
20
-106.782
11
108.256
21
-106.749
0
LINE
8
BLACK
6
CONTINUOUS
10
108.256
20
-106.749
11
109.168
21
-106.749
0
LINE
8
BLACK
6
CONTINUOUS
10
109.168
20
-106.749
11
109.252
21
-106.764
0
LINE
8
BLACK
6
CONTINUOUS
10
111.919
20
-106.764
11
111.992
21
-106.806
0
LINE
8
BLACK
6
CONTINUOUS
10
111.992
20
-106.806
11
112.046
21
-106.871
0
LINE
8
BLACK
6
CONTINUOUS
10
112.046
20
-106.871
11
112.079
21
-106.993
0
LINE
8
BLACK
6
CONTINUOUS
10
112.079
20
-106.993
11
112.079
21
-107.48
0
LINE
8
BLACK
6
CONTINUOUS
10
112.079
20
-107.48
11
112.064
21
-107.564
0
LINE
8
BLACK
6
CONTINUOUS
10
112.064
20
-107.564
11
112.022
21
-107.637
0
LINE
8
BLACK
6
CONTINUOUS
10
112.022
20
-107.637
11
111.957
21
-107.691
0
LINE
8
BLACK
6
CONTINUOUS
10
111.957
20
-107.691
11
111.835
21
-107.724
0
LINE
8
BLACK
6
CONTINUOUS
10
111.835
20
-107.724
11
110.923
21
-107.724
0
LINE
8
BLACK
6
CONTINUOUS
10
110.923
20
-107.724
11
110.839
21
-107.709
0
LINE
8
BLACK
6
CONTINUOUS
10
110.839
20
-107.709
11
110.766
21
-107.667
0
LINE
8
BLACK
6
CONTINUOUS
10
110.766
20
-107.667
11
110.712
21
-107.602
0
LINE
8
BLACK
6
CONTINUOUS
10
110.712
20
-107.602
11
110.679
21
-107.48
0
LINE
8
BLACK
6
CONTINUOUS
10
110.679
20
-107.48
11
110.679
21
-106.993
0
LINE
8
BLACK
6
CONTINUOUS
10
110.679
20
-106.993
11
110.694
21
-106.909
0
LINE
8
BLACK
6
CONTINUOUS
10
110.694
20
-106.909
11
110.736
21
-106.836
0
LINE
8
BLACK
6
CONTINUOUS
10
110.736
20
-106.836
11
110.801
21
-106.782
0
LINE
8
BLACK
6
CONTINUOUS
10
110.801
20
-106.782
11
110.923
21
-106.749
0
LINE
8
BLACK
6
CONTINUOUS
10
110.923
20
-106.749
11
111.835
21
-106.749
0
LINE
8
BLACK
6
CONTINUOUS
10
111.835
20
-106.749
11
111.919
21
-106.764
0
LINE
8
BLACK
6
CONTINUOUS
10
114.459
20
-106.715
11
114.532
21
-106.758
0
LINE
8
BLACK
6
CONTINUOUS
10
114.532
20
-106.758
11
114.586
21
-106.822
0
LINE
8
BLACK
6
CONTINUOUS
10
114.586
20
-106.822
11
114.619
21
-106.944
0
LINE
8
BLACK
6
CONTINUOUS
10
114.619
20
-106.944
11
114.619
21
-107.432
0
LINE
8
BLACK
6
CONTINUOUS
10
114.619
20
-107.432
11
114.604
21
-107.515
0
LINE
8
BLACK
6
CONTINUOUS
10
114.604
20
-107.515
11
114.562
21
-107.588
0
LINE
8
BLACK
6
CONTINUOUS
10
114.562
20
-107.588
11
114.497
21
-107.643
0
LINE
8
BLACK
6
CONTINUOUS
10
114.497
20
-107.643
11
114.375
21
-107.675
0
LINE
8
BLACK
6
CONTINUOUS
10
114.375
20
-107.675
11
113.463
21
-107.675
0
LINE
8
BLACK
6
CONTINUOUS
10
113.463
20
-107.675
11
113.379
21
-107.661
0
LINE
8
BLACK
6
CONTINUOUS
10
113.379
20
-107.661
11
113.306
21
-107.618
0
LINE
8
BLACK
6
CONTINUOUS
10
113.306
20
-107.618
11
113.252
21
-107.554
0
LINE
8
BLACK
6
CONTINUOUS
10
113.252
20
-107.554
11
113.219
21
-107.432
0
LINE
8
BLACK
6
CONTINUOUS
10
113.219
20
-107.432
11
113.219
21
-106.944
0
LINE
8
BLACK
6
CONTINUOUS
10
113.219
20
-106.944
11
113.234
21
-106.861
0
LINE
8
BLACK
6
CONTINUOUS
10
113.234
20
-106.861
11
113.276
21
-106.788
0
LINE
8
BLACK
6
CONTINUOUS
10
113.276
20
-106.788
11
113.341
21
-106.733
0
LINE
8
BLACK
6
CONTINUOUS
10
113.341
20
-106.733
11
113.463
21
-106.7
0
LINE
8
BLACK
6
CONTINUOUS
10
113.463
20
-106.7
11
114.375
21
-106.7
0
LINE
8
BLACK
6
CONTINUOUS
10
114.375
20
-106.7
11
114.459
21
-106.715
0
LINE
8
BLACK
6
CONTINUOUS
10
116.999
20
-106.715
11
117.072
21
-106.758
0
LINE
8
BLACK
6
CONTINUOUS
10
117.072
20
-106.758
11
117.126
21
-106.822
0
LINE
8
BLACK
6
CONTINUOUS
10
117.126
20
-106.822
11
117.159
21
-106.944
0
LINE
8
BLACK
6
CONTINUOUS
10
117.159
20
-106.944
11
117.159
21
-107.432
0
LINE
8
BLACK
6
CONTINUOUS
10
117.159
20
-107.432
11
117.144
21
-107.515
0
LINE
8
BLACK
6
CONTINUOUS
10
117.144
20
-107.515
11
117.102
21
-107.588
0
LINE
8
BLACK
6
CONTINUOUS
10
117.102
20
-107.588
11
117.037
21
-107.643
0
LINE
8
BLACK
6
CONTINUOUS
10
117.037
20
-107.643
11
116.915
21
-107.675
0
LINE
8
BLACK
6
CONTINUOUS
10
116.915
20
-107.675
11
116.003
21
-107.675
0
LINE
8
BLACK
6
CONTINUOUS
10
116.003
20
-107.675
11
115.919
21
-107.661
0
LINE
8
BLACK
6
CONTINUOUS
10
115.919
20
-107.661
11
115.846
21
-107.618
0
LINE
8
BLACK
6
CONTINUOUS
10
115.846
20
-107.618
11
115.792
21
-107.554
0
LINE
8
BLACK
6
CONTINUOUS
10
115.792
20
-107.554
11
115.759
21
-107.432
0
LINE
8
BLACK
6
CONTINUOUS
10
115.759
20
-107.432
11
115.759
21
-106.944
0
LINE
8
BLACK
6
CONTINUOUS
10
115.759
20
-106.944
11
115.774
21
-106.861
0
LINE
8
BLACK
6
CONTINUOUS
10
115.774
20
-106.861
11
115.816
21
-106.788
0
LINE
8
BLACK
6
CONTINUOUS
10
115.816
20
-106.788
11
115.881
21
-106.733
0
LINE
8
BLACK
6
CONTINUOUS
10
115.881
20
-106.733
11
116.003
21
-106.7
0
LINE
8
BLACK
6
CONTINUOUS
10
116.003
20
-106.7
11
116.915
21
-106.7
0
LINE
8
BLACK
6
CONTINUOUS
10
116.915
20
-106.7
11
116.999
21
-106.715
0
LINE
8
BLACK
6
CONTINUOUS
10
106.585
20
-106.715
11
106.658
21
-106.758
0
LINE
8
BLACK
6
CONTINUOUS
10
106.658
20
-106.758
11
106.712
21
-106.822
0
LINE
8
BLACK
6
CONTINUOUS
10
106.712
20
-106.822
11
106.745
21
-106.944
0
LINE
8
BLACK
6
CONTINUOUS
10
106.745
20
-106.944
11
106.745
21
-107.432
0
LINE
8
BLACK
6
CONTINUOUS
10
106.745
20
-107.432
11
106.73
21
-107.515
0
LINE
8
BLACK
6
CONTINUOUS
10
106.73
20
-107.515
11
106.688
21
-107.588
0
LINE
8
BLACK
6
CONTINUOUS
10
106.688
20
-107.588
11
106.623
21
-107.643
0
LINE
8
BLACK
6
CONTINUOUS
10
106.623
20
-107.643
11
106.501
21
-107.675
0
LINE
8
BLACK
6
CONTINUOUS
10
106.501
20
-107.675
11
105.589
21
-107.675
0
LINE
8
BLACK
6
CONTINUOUS
10
105.589
20
-107.675
11
105.505
21
-107.661
0
LINE
8
BLACK
6
CONTINUOUS
10
105.505
20
-107.661
11
105.432
21
-107.618
0
LINE
8
BLACK
6
CONTINUOUS
10
105.432
20
-107.618
11
105.378
21
-107.554
0
LINE
8
BLACK
6
CONTINUOUS
10
105.378
20
-107.554
11
105.345
21
-107.432
0
LINE
8
BLACK
6
CONTINUOUS
10
105.345
20
-107.432
11
105.345
21
-106.944
0
LINE
8
BLACK
6
CONTINUOUS
10
105.345
20
-106.944
11
105.36
21
-106.861
0
LINE
8
BLACK
6
CONTINUOUS
10
105.36
20
-106.861
11
105.402
21
-106.788
0
LINE
8
BLACK
6
CONTINUOUS
10
105.402
20
-106.788
11
105.467
21
-106.733
0
LINE
8
BLACK
6
CONTINUOUS
10
105.467
20
-106.733
11
105.589
21
-106.7
0
LINE
8
BLACK
6
CONTINUOUS
10
105.589
20
-106.7
11
106.501
21
-106.7
0
LINE
8
BLACK
6
CONTINUOUS
10
106.501
20
-106.7
11
106.585
21
-106.715
0
LINE
8
BLACK
6
CONTINUOUS
10
92.1181
20
-106.249
11
92.1914
21
-106.291
0
LINE
8
BLACK
6
CONTINUOUS
10
92.1914
20
-106.291
11
92.2458
21
-106.356
0
LINE
8
BLACK
6
CONTINUOUS
10
92.2458
20
-106.356
11
92.2785
21
-106.478
0
LINE
8
BLACK
6
CONTINUOUS
10
92.2785
20
-106.478
11
92.2785
21
-107.39
0
LINE
8
BLACK
6
CONTINUOUS
10
92.2785
20
-107.39
11
92.2638
21
-107.474
0
LINE
8
BLACK
6
CONTINUOUS
10
92.2638
20
-107.474
11
92.2215
21
-107.547
0
LINE
8
BLACK
6
CONTINUOUS
10
92.2215
20
-107.547
11
92.1566
21
-107.601
0
LINE
8
BLACK
6
CONTINUOUS
10
92.1566
20
-107.601
11
92.0348
21
-107.634
0
LINE
8
BLACK
6
CONTINUOUS
10
92.0348
20
-107.634
11
91.5472
21
-107.634
0
LINE
8
BLACK
6
CONTINUOUS
10
91.5472
20
-107.634
11
91.4639
21
-107.619
0
LINE
8
BLACK
6
CONTINUOUS
10
91.4639
20
-107.619
11
91.3906
21
-107.577
0
LINE
8
BLACK
6
CONTINUOUS
10
91.3906
20
-107.577
11
91.3362
21
-107.512
0
LINE
8
BLACK
6
CONTINUOUS
10
91.3362
20
-107.512
11
91.3035
21
-107.39
0
LINE
8
BLACK
6
CONTINUOUS
10
91.3035
20
-107.39
11
91.3035
21
-106.478
0
LINE
8
BLACK
6
CONTINUOUS
10
91.3035
20
-106.478
11
91.3182
21
-106.394
0
LINE
8
BLACK
6
CONTINUOUS
10
91.3182
20
-106.394
11
91.3605
21
-106.321
0
LINE
8
BLACK
6
CONTINUOUS
10
91.3605
20
-106.321
11
91.4254
21
-106.267
0
LINE
8
BLACK
6
CONTINUOUS
10
91.4254
20
-106.267
11
91.5472
21
-106.234
0
LINE
8
BLACK
6
CONTINUOUS
10
91.5472
20
-106.234
11
92.0348
21
-106.234
0
LINE
8
BLACK
6
CONTINUOUS
10
92.0348
20
-106.234
11
92.1181
21
-106.249
0
LINE
8
BLACK
6
CONTINUOUS
10
90.2431
20
-106.249
11
90.3164
21
-106.291
0
LINE
8
BLACK
6
CONTINUOUS
10
90.3164
20
-106.291
11
90.3708
21
-106.356
0
LINE
8
BLACK
6
CONTINUOUS
10
90.3708
20
-106.356
11
90.4035
21
-106.478
0
LINE
8
BLACK
6
CONTINUOUS
10
90.4035
20
-106.478
11
90.4035
21
-107.39
0
LINE
8
BLACK
6
CONTINUOUS
10
90.4035
20
-107.39
11
90.3888
21
-107.474
0
LINE
8
BLACK
6
CONTINUOUS
10
90.3888
20
-107.474
11
90.3465
21
-107.547
0
LINE
8
BLACK
6
CONTINUOUS
10
90.3465
20
-107.547
11
90.2816
21
-107.601
0
LINE
8
BLACK
6
CONTINUOUS
10
90.2816
20
-107.601
11
90.1598
21
-107.634
0
LINE
8
BLACK
6
CONTINUOUS
10
90.1598
20
-107.634
11
89.6722
21
-107.634
0
LINE
8
BLACK
6
CONTINUOUS
10
89.6722
20
-107.634
11
89.5889
21
-107.619
0
LINE
8
BLACK
6
CONTINUOUS
10
89.5889
20
-107.619
11
89.5156
21
-107.577
0
LINE
8
BLACK
6
CONTINUOUS
10
89.5156
20
-107.577
11
89.4612
21
-107.512
0
LINE
8
BLACK
6
CONTINUOUS
10
89.4612
20
-107.512
11
89.4285
21
-107.39
0
LINE
8
BLACK
6
CONTINUOUS
10
89.4285
20
-107.39
11
89.4285
21
-106.478
0
LINE
8
BLACK
6
CONTINUOUS
10
89.4285
20
-106.478
11
89.4432
21
-106.394
0
LINE
8
BLACK
6
CONTINUOUS
10
89.4432
20
-106.394
11
89.4855
21
-106.321
0
LINE
8
BLACK
6
CONTINUOUS
10
89.4855
20
-106.321
11
89.5504
21
-106.267
0
LINE
8
BLACK
6
CONTINUOUS
10
89.5504
20
-106.267
11
89.6722
21
-106.234
0
LINE
8
BLACK
6
CONTINUOUS
10
89.6722
20
-106.234
11
90.1598
21
-106.234
0
LINE
8
BLACK
6
CONTINUOUS
10
90.1598
20
-106.234
11
90.2431
21
-106.249
0
LINE
8
BLACK
6
CONTINUOUS
10
119.97
20
-106.662
11
120.044
21
-106.704
0
LINE
8
BLACK
6
CONTINUOUS
10
120.044
20
-106.704
11
120.098
21
-106.769
0
LINE
8
BLACK
6
CONTINUOUS
10
120.098
20
-106.769
11
120.131
21
-106.891
0
LINE
8
BLACK
6
CONTINUOUS
10
120.131
20
-106.891
11
120.131
21
-107.379
0
LINE
8
BLACK
6
CONTINUOUS
10
120.131
20
-107.379
11
120.116
21
-107.462
0
LINE
8
BLACK
6
CONTINUOUS
10
120.116
20
-107.462
11
120.074
21
-107.535
0
LINE
8
BLACK
6
CONTINUOUS
10
120.074
20
-107.535
11
120.009
21
-107.59
0
LINE
8
BLACK
6
CONTINUOUS
10
120.009
20
-107.59
11
119.887
21
-107.622
0
LINE
8
BLACK
6
CONTINUOUS
10
119.887
20
-107.622
11
118.975
21
-107.622
0
LINE
8
BLACK
6
CONTINUOUS
10
118.975
20
-107.622
11
118.891
21
-107.608
0
LINE
8
BLACK
6
CONTINUOUS
10
118.891
20
-107.608
11
118.818
21
-107.565
0
LINE
8
BLACK
6
CONTINUOUS
10
118.818
20
-107.565
11
118.763
21
-107.501
0
LINE
8
BLACK
6
CONTINUOUS
10
118.763
20
-107.501
11
118.731
21
-107.379
0
LINE
8
BLACK
6
CONTINUOUS
10
118.731
20
-107.379
11
118.731
21
-106.891
0
LINE
8
BLACK
6
CONTINUOUS
10
118.731
20
-106.891
11
118.745
21
-106.808
0
LINE
8
BLACK
6
CONTINUOUS
10
118.745
20
-106.808
11
118.788
21
-106.734
0
LINE
8
BLACK
6
CONTINUOUS
10
118.788
20
-106.734
11
118.853
21
-106.68
0
LINE
8
BLACK
6
CONTINUOUS
10
118.853
20
-106.68
11
118.975
21
-106.647
0
LINE
8
BLACK
6
CONTINUOUS
10
118.975
20
-106.647
11
119.887
21
-106.647
0
LINE
8
BLACK
6
CONTINUOUS
10
119.887
20
-106.647
11
119.97
21
-106.662
0
LINE
8
BLACK
6
CONTINUOUS
10
78.8385
20
-105.36
11
78.9118
21
-105.402
0
LINE
8
BLACK
6
CONTINUOUS
10
78.9118
20
-105.402
11
78.9662
21
-105.467
0
LINE
8
BLACK
6
CONTINUOUS
10
78.9662
20
-105.467
11
78.9989
21
-105.589
0
LINE
8
BLACK
6
CONTINUOUS
10
78.9989
20
-105.589
11
78.9989
21
-106.501
0
LINE
8
BLACK
6
CONTINUOUS
10
78.9989
20
-106.501
11
78.9842
21
-106.585
0
LINE
8
BLACK
6
CONTINUOUS
10
78.9842
20
-106.585
11
78.9419
21
-106.658
0
LINE
8
BLACK
6
CONTINUOUS
10
78.9419
20
-106.658
11
78.877
21
-106.712
0
LINE
8
BLACK
6
CONTINUOUS
10
78.877
20
-106.712
11
78.7552
21
-106.745
0
LINE
8
BLACK
6
CONTINUOUS
10
78.7552
20
-106.745
11
78.2677
21
-106.745
0
LINE
8
BLACK
6
CONTINUOUS
10
78.2677
20
-106.745
11
78.1843
21
-106.73
0
LINE
8
BLACK
6
CONTINUOUS
10
78.1843
20
-106.73
11
78.111
21
-106.688
0
LINE
8
BLACK
6
CONTINUOUS
10
78.111
20
-106.688
11
78.0566
21
-106.623
0
LINE
8
BLACK
6
CONTINUOUS
10
78.0566
20
-106.623
11
78.0239
21
-106.501
0
LINE
8
BLACK
6
CONTINUOUS
10
78.0239
20
-106.501
11
78.0239
21
-105.589
0
LINE
8
BLACK
6
CONTINUOUS
10
78.0239
20
-105.589
11
78.0386
21
-105.505
0
LINE
8
BLACK
6
CONTINUOUS
10
78.0386
20
-105.505
11
78.0809
21
-105.432
0
LINE
8
BLACK
6
CONTINUOUS
10
78.0809
20
-105.432
11
78.1458
21
-105.378
0
LINE
8
BLACK
6
CONTINUOUS
10
78.1458
20
-105.378
11
78.2677
21
-105.345
0
LINE
8
BLACK
6
CONTINUOUS
10
78.2677
20
-105.345
11
78.7552
21
-105.345
0
LINE
8
BLACK
6
CONTINUOUS
10
78.7552
20
-105.345
11
78.8385
21
-105.36
0
LINE
8
BLACK
6
CONTINUOUS
10
80.7135
20
-105.36
11
80.7868
21
-105.402
0
LINE
8
BLACK
6
CONTINUOUS
10
80.7868
20
-105.402
11
80.8412
21
-105.467
0
LINE
8
BLACK
6
CONTINUOUS
10
80.8412
20
-105.467
11
80.8739
21
-105.589
0
LINE
8
BLACK
6
CONTINUOUS
10
80.8739
20
-105.589
11
80.8739
21
-106.501
0
LINE
8
BLACK
6
CONTINUOUS
10
80.8739
20
-106.501
11
80.8592
21
-106.585
0
LINE
8
BLACK
6
CONTINUOUS
10
80.8592
20
-106.585
11
80.8169
21
-106.658
0
LINE
8
BLACK
6
CONTINUOUS
10
80.8169
20
-106.658
11
80.752
21
-106.712
0
LINE
8
BLACK
6
CONTINUOUS
10
80.752
20
-106.712
11
80.6302
21
-106.745
0
LINE
8
BLACK
6
CONTINUOUS
10
80.6302
20
-106.745
11
80.1427
21
-106.745
0
LINE
8
BLACK
6
CONTINUOUS
10
80.1427
20
-106.745
11
80.0593
21
-106.73
0
LINE
8
BLACK
6
CONTINUOUS
10
80.0593
20
-106.73
11
79.986
21
-106.688
0
LINE
8
BLACK
6
CONTINUOUS
10
79.986
20
-106.688
11
79.9316
21
-106.623
0
LINE
8
BLACK
6
CONTINUOUS
10
79.9316
20
-106.623
11
79.8989
21
-106.501
0
LINE
8
BLACK
6
CONTINUOUS
10
79.8989
20
-106.501
11
79.8989
21
-105.589
0
LINE
8
BLACK
6
CONTINUOUS
10
79.8989
20
-105.589
11
79.9136
21
-105.505
0
LINE
8
BLACK
6
CONTINUOUS
10
79.9136
20
-105.505
11
79.9559
21
-105.432
0
LINE
8
BLACK
6
CONTINUOUS
10
79.9559
20
-105.432
11
80.0208
21
-105.378
0
LINE
8
BLACK
6
CONTINUOUS
10
80.0208
20
-105.378
11
80.1427
21
-105.345
0
LINE
8
BLACK
6
CONTINUOUS
10
80.1427
20
-105.345
11
80.6302
21
-105.345
0
LINE
8
BLACK
6
CONTINUOUS
10
80.6302
20
-105.345
11
80.7135
21
-105.36
0
LINE
8
BLACK
6
CONTINUOUS
10
84.066
20
-106.177
11
83.716
21
-106.177
0
LINE
8
BLACK
6
CONTINUOUS
10
83.716
20
-106.177
11
83.716
21
-105.677
0
LINE
8
BLACK
6
CONTINUOUS
10
83.716
20
-105.677
11
84.066
21
-105.677
0
LINE
8
BLACK
6
CONTINUOUS
10
84.066
20
-105.677
11
84.066
21
-106.177
0
LINE
8
BLACK
6
CONTINUOUS
10
83.416
20
-106.177
11
83.066
21
-106.177
0
LINE
8
BLACK
6
CONTINUOUS
10
83.066
20
-106.177
11
83.066
21
-105.677
0
LINE
8
BLACK
6
CONTINUOUS
10
83.066
20
-105.677
11
83.416
21
-105.677
0
LINE
8
BLACK
6
CONTINUOUS
10
83.416
20
-105.677
11
83.416
21
-106.177
0
LINE
8
BLACK
6
CONTINUOUS
10
82.766
20
-106.177
11
82.416
21
-106.177
0
LINE
8
BLACK
6
CONTINUOUS
10
82.416
20
-106.177
11
82.416
21
-105.677
0
LINE
8
BLACK
6
CONTINUOUS
10
82.416
20
-105.677
11
82.766
21
-105.677
0
LINE
8
BLACK
6
CONTINUOUS
10
82.766
20
-105.677
11
82.766
21
-106.177
0
LINE
8
BLACK
6
CONTINUOUS
10
84.716
20
-106.177
11
84.366
21
-106.177
0
LINE
8
BLACK
6
CONTINUOUS
10
84.366
20
-106.177
11
84.366
21
-105.677
0
LINE
8
BLACK
6
CONTINUOUS
10
84.366
20
-105.677
11
84.716
21
-105.677
0
LINE
8
BLACK
6
CONTINUOUS
10
84.716
20
-105.677
11
84.716
21
-106.177
0
LINE
8
BLACK
6
CONTINUOUS
10
87.547
20
-105.852
11
87.197
21
-105.852
0
LINE
8
BLACK
6
CONTINUOUS
10
87.197
20
-105.852
11
87.197
21
-105.477
0
LINE
8
BLACK
6
CONTINUOUS
10
87.197
20
-105.477
11
87.547
21
-105.477
0
LINE
8
BLACK
6
CONTINUOUS
10
87.547
20
-105.477
11
87.547
21
-105.852
0
LINE
8
BLACK
6
CONTINUOUS
10
87.047
20
-105.852
11
86.697
21
-105.852
0
LINE
8
BLACK
6
CONTINUOUS
10
86.697
20
-105.852
11
86.697
21
-105.477
0
LINE
8
BLACK
6
CONTINUOUS
10
86.697
20
-105.477
11
87.047
21
-105.477
0
LINE
8
BLACK
6
CONTINUOUS
10
87.047
20
-105.477
11
87.047
21
-105.852
0
LINE
8
BLACK
6
CONTINUOUS
10
109.252
20
-104.889
11
109.325
21
-104.931
0
LINE
8
BLACK
6
CONTINUOUS
10
109.325
20
-104.931
11
109.379
21
-104.996
0
LINE
8
BLACK
6
CONTINUOUS
10
109.379
20
-104.996
11
109.412
21
-105.118
0
LINE
8
BLACK
6
CONTINUOUS
10
109.412
20
-105.118
11
109.412
21
-105.605
0
LINE
8
BLACK
6
CONTINUOUS
10
109.412
20
-105.605
11
109.397
21
-105.689
0
LINE
8
BLACK
6
CONTINUOUS
10
109.397
20
-105.689
11
109.355
21
-105.762
0
LINE
8
BLACK
6
CONTINUOUS
10
109.355
20
-105.762
11
109.29
21
-105.816
0
LINE
8
BLACK
6
CONTINUOUS
10
109.29
20
-105.816
11
109.168
21
-105.849
0
LINE
8
BLACK
6
CONTINUOUS
10
109.168
20
-105.849
11
108.256
21
-105.849
0
LINE
8
BLACK
6
CONTINUOUS
10
108.256
20
-105.849
11
108.172
21
-105.834
0
LINE
8
BLACK
6
CONTINUOUS
10
108.172
20
-105.834
11
108.099
21
-105.792
0
LINE
8
BLACK
6
CONTINUOUS
10
108.099
20
-105.792
11
108.045
21
-105.727
0
LINE
8
BLACK
6
CONTINUOUS
10
108.045
20
-105.727
11
108.012
21
-105.605
0
LINE
8
BLACK
6
CONTINUOUS
10
108.012
20
-105.605
11
108.012
21
-105.118
0
LINE
8
BLACK
6
CONTINUOUS
10
108.012
20
-105.118
11
108.027
21
-105.034
0
LINE
8
BLACK
6
CONTINUOUS
10
108.027
20
-105.034
11
108.069
21
-104.961
0
LINE
8
BLACK
6
CONTINUOUS
10
108.069
20
-104.961
11
108.134
21
-104.907
0
LINE
8
BLACK
6
CONTINUOUS
10
108.134
20
-104.907
11
108.256
21
-104.874
0
LINE
8
BLACK
6
CONTINUOUS
10
108.256
20
-104.874
11
109.168
21
-104.874
0
LINE
8
BLACK
6
CONTINUOUS
10
109.168
20
-104.874
11
109.252
21
-104.889
0
LINE
8
BLACK
6
CONTINUOUS
10
111.919
20
-104.889
11
111.992
21
-104.931
0
LINE
8
BLACK
6
CONTINUOUS
10
111.992
20
-104.931
11
112.046
21
-104.996
0
LINE
8
BLACK
6
CONTINUOUS
10
112.046
20
-104.996
11
112.079
21
-105.118
0
LINE
8
BLACK
6
CONTINUOUS
10
112.079
20
-105.118
11
112.079
21
-105.605
0
LINE
8
BLACK
6
CONTINUOUS
10
112.079
20
-105.605
11
112.064
21
-105.689
0
LINE
8
BLACK
6
CONTINUOUS
10
112.064
20
-105.689
11
112.022
21
-105.762
0
LINE
8
BLACK
6
CONTINUOUS
10
112.022
20
-105.762
11
111.957
21
-105.816
0
LINE
8
BLACK
6
CONTINUOUS
10
111.957
20
-105.816
11
111.835
21
-105.849
0
LINE
8
BLACK
6
CONTINUOUS
10
111.835
20
-105.849
11
110.923
21
-105.849
0
LINE
8
BLACK
6
CONTINUOUS
10
110.923
20
-105.849
11
110.839
21
-105.834
0
LINE
8
BLACK
6
CONTINUOUS
10
110.839
20
-105.834
11
110.766
21
-105.792
0
LINE
8
BLACK
6
CONTINUOUS
10
110.766
20
-105.792
11
110.712
21
-105.727
0
LINE
8
BLACK
6
CONTINUOUS
10
110.712
20
-105.727
11
110.679
21
-105.605
0
LINE
8
BLACK
6
CONTINUOUS
10
110.679
20
-105.605
11
110.679
21
-105.118
0
LINE
8
BLACK
6
CONTINUOUS
10
110.679
20
-105.118
11
110.694
21
-105.034
0
LINE
8
BLACK
6
CONTINUOUS
10
110.694
20
-105.034
11
110.736
21
-104.961
0
LINE
8
BLACK
6
CONTINUOUS
10
110.736
20
-104.961
11
110.801
21
-104.907
0
LINE
8
BLACK
6
CONTINUOUS
10
110.801
20
-104.907
11
110.923
21
-104.874
0
LINE
8
BLACK
6
CONTINUOUS
10
110.923
20
-104.874
11
111.835
21
-104.874
0
LINE
8
BLACK
6
CONTINUOUS
10
111.835
20
-104.874
11
111.919
21
-104.889
0
LINE
8
BLACK
6
CONTINUOUS
10
88.072
20
-105.827
11
87.697
21
-105.827
0
LINE
8
BLACK
6
CONTINUOUS
10
87.697
20
-105.827
11
87.697
21
-105.477
0
LINE
8
BLACK
6
CONTINUOUS
10
87.697
20
-105.477
11
88.072
21
-105.477
0
LINE
8
BLACK
6
CONTINUOUS
10
88.072
20
-105.477
11
88.072
21
-105.827
0
LINE
8
BLACK
6
CONTINUOUS
10
86.547
20
-105.827
11
86.172
21
-105.827
0
LINE
8
BLACK
6
CONTINUOUS
10
86.172
20
-105.827
11
86.172
21
-105.477
0
LINE
8
BLACK
6
CONTINUOUS
10
86.172
20
-105.477
11
86.547
21
-105.477
0
LINE
8
BLACK
6
CONTINUOUS
10
86.547
20
-105.477
11
86.547
21
-105.827
0
LINE
8
BLACK
6
CONTINUOUS
10
106.585
20
-104.84
11
106.658
21
-104.883
0
LINE
8
BLACK
6
CONTINUOUS
10
106.658
20
-104.883
11
106.712
21
-104.947
0
LINE
8
BLACK
6
CONTINUOUS
10
106.712
20
-104.947
11
106.745
21
-105.069
0
LINE
8
BLACK
6
CONTINUOUS
10
106.745
20
-105.069
11
106.745
21
-105.557
0
LINE
8
BLACK
6
CONTINUOUS
10
106.745
20
-105.557
11
106.73
21
-105.64
0
LINE
8
BLACK
6
CONTINUOUS
10
106.73
20
-105.64
11
106.688
21
-105.713
0
LINE
8
BLACK
6
CONTINUOUS
10
106.688
20
-105.713
11
106.623
21
-105.768
0
LINE
8
BLACK
6
CONTINUOUS
10
106.623
20
-105.768
11
106.501
21
-105.8
0
LINE
8
BLACK
6
CONTINUOUS
10
106.501
20
-105.8
11
105.589
21
-105.8
0
LINE
8
BLACK
6
CONTINUOUS
10
105.589
20
-105.8
11
105.505
21
-105.786
0
LINE
8
BLACK
6
CONTINUOUS
10
105.505
20
-105.786
11
105.432
21
-105.743
0
LINE
8
BLACK
6
CONTINUOUS
10
105.432
20
-105.743
11
105.378
21
-105.679
0
LINE
8
BLACK
6
CONTINUOUS
10
105.378
20
-105.679
11
105.345
21
-105.557
0
LINE
8
BLACK
6
CONTINUOUS
10
105.345
20
-105.557
11
105.345
21
-105.069
0
LINE
8
BLACK
6
CONTINUOUS
10
105.345
20
-105.069
11
105.36
21
-104.986
0
LINE
8
BLACK
6
CONTINUOUS
10
105.36
20
-104.986
11
105.402
21
-104.913
0
LINE
8
BLACK
6
CONTINUOUS
10
105.402
20
-104.913
11
105.467
21
-104.858
0
LINE
8
BLACK
6
CONTINUOUS
10
105.467
20
-104.858
11
105.589
21
-104.825
0
LINE
8
BLACK
6
CONTINUOUS
10
105.589
20
-104.825
11
106.501
21
-104.825
0
LINE
8
BLACK
6
CONTINUOUS
10
106.501
20
-104.825
11
106.585
21
-104.84
0
LINE
8
BLACK
6
CONTINUOUS
10
116.999
20
-104.84
11
117.072
21
-104.883
0
LINE
8
BLACK
6
CONTINUOUS
10
117.072
20
-104.883
11
117.126
21
-104.947
0
LINE
8
BLACK
6
CONTINUOUS
10
117.126
20
-104.947
11
117.159
21
-105.069
0
LINE
8
BLACK
6
CONTINUOUS
10
117.159
20
-105.069
11
117.159
21
-105.557
0
LINE
8
BLACK
6
CONTINUOUS
10
117.159
20
-105.557
11
117.144
21
-105.64
0
LINE
8
BLACK
6
CONTINUOUS
10
117.144
20
-105.64
11
117.102
21
-105.713
0
LINE
8
BLACK
6
CONTINUOUS
10
117.102
20
-105.713
11
117.037
21
-105.768
0
LINE
8
BLACK
6
CONTINUOUS
10
117.037
20
-105.768
11
116.915
21
-105.8
0
LINE
8
BLACK
6
CONTINUOUS
10
116.915
20
-105.8
11
116.003
21
-105.8
0
LINE
8
BLACK
6
CONTINUOUS
10
116.003
20
-105.8
11
115.919
21
-105.786
0
LINE
8
BLACK
6
CONTINUOUS
10
115.919
20
-105.786
11
115.846
21
-105.743
0
LINE
8
BLACK
6
CONTINUOUS
10
115.846
20
-105.743
11
115.792
21
-105.679
0
LINE
8
BLACK
6
CONTINUOUS
10
115.792
20
-105.679
11
115.759
21
-105.557
0
LINE
8
BLACK
6
CONTINUOUS
10
115.759
20
-105.557
11
115.759
21
-105.069
0
LINE
8
BLACK
6
CONTINUOUS
10
115.759
20
-105.069
11
115.774
21
-104.986
0
LINE
8
BLACK
6
CONTINUOUS
10
115.774
20
-104.986
11
115.816
21
-104.913
0
LINE
8
BLACK
6
CONTINUOUS
10
115.816
20
-104.913
11
115.881
21
-104.858
0
LINE
8
BLACK
6
CONTINUOUS
10
115.881
20
-104.858
11
116.003
21
-104.825
0
LINE
8
BLACK
6
CONTINUOUS
10
116.003
20
-104.825
11
116.915
21
-104.825
0
LINE
8
BLACK
6
CONTINUOUS
10
116.915
20
-104.825
11
116.999
21
-104.84
0
LINE
8
BLACK
6
CONTINUOUS
10
114.459
20
-104.84
11
114.532
21
-104.883
0
LINE
8
BLACK
6
CONTINUOUS
10
114.532
20
-104.883
11
114.586
21
-104.947
0
LINE
8
BLACK
6
CONTINUOUS
10
114.586
20
-104.947
11
114.619
21
-105.069
0
LINE
8
BLACK
6
CONTINUOUS
10
114.619
20
-105.069
11
114.619
21
-105.557
0
LINE
8
BLACK
6
CONTINUOUS
10
114.619
20
-105.557
11
114.604
21
-105.64
0
LINE
8
BLACK
6
CONTINUOUS
10
114.604
20
-105.64
11
114.562
21
-105.713
0
LINE
8
BLACK
6
CONTINUOUS
10
114.562
20
-105.713
11
114.497
21
-105.768
0
LINE
8
BLACK
6
CONTINUOUS
10
114.497
20
-105.768
11
114.375
21
-105.8
0
LINE
8
BLACK
6
CONTINUOUS
10
114.375
20
-105.8
11
113.463
21
-105.8
0
LINE
8
BLACK
6
CONTINUOUS
10
113.463
20
-105.8
11
113.379
21
-105.786
0
LINE
8
BLACK
6
CONTINUOUS
10
113.379
20
-105.786
11
113.306
21
-105.743
0
LINE
8
BLACK
6
CONTINUOUS
10
113.306
20
-105.743
11
113.252
21
-105.679
0
LINE
8
BLACK
6
CONTINUOUS
10
113.252
20
-105.679
11
113.219
21
-105.557
0
LINE
8
BLACK
6
CONTINUOUS
10
113.219
20
-105.557
11
113.219
21
-105.069
0
LINE
8
BLACK
6
CONTINUOUS
10
113.219
20
-105.069
11
113.234
21
-104.986
0
LINE
8
BLACK
6
CONTINUOUS
10
113.234
20
-104.986
11
113.276
21
-104.913
0
LINE
8
BLACK
6
CONTINUOUS
10
113.276
20
-104.913
11
113.341
21
-104.858
0
LINE
8
BLACK
6
CONTINUOUS
10
113.341
20
-104.858
11
113.463
21
-104.825
0
LINE
8
BLACK
6
CONTINUOUS
10
113.463
20
-104.825
11
114.375
21
-104.825
0
LINE
8
BLACK
6
CONTINUOUS
10
114.375
20
-104.825
11
114.459
21
-104.84
0
LINE
8
BLACK
6
CONTINUOUS
10
119.97
20
-104.787
11
120.044
21
-104.829
0
LINE
8
BLACK
6
CONTINUOUS
10
120.044
20
-104.829
11
120.098
21
-104.894
0
LINE
8
BLACK
6
CONTINUOUS
10
120.098
20
-104.894
11
120.131
21
-105.016
0
LINE
8
BLACK
6
CONTINUOUS
10
120.131
20
-105.016
11
120.131
21
-105.504
0
LINE
8
BLACK
6
CONTINUOUS
10
120.131
20
-105.504
11
120.116
21
-105.587
0
LINE
8
BLACK
6
CONTINUOUS
10
120.116
20
-105.587
11
120.074
21
-105.66
0
LINE
8
BLACK
6
CONTINUOUS
10
120.074
20
-105.66
11
120.009
21
-105.715
0
LINE
8
BLACK
6
CONTINUOUS
10
120.009
20
-105.715
11
119.887
21
-105.747
0
LINE
8
BLACK
6
CONTINUOUS
10
119.887
20
-105.747
11
118.975
21
-105.747
0
LINE
8
BLACK
6
CONTINUOUS
10
118.975
20
-105.747
11
118.891
21
-105.733
0
LINE
8
BLACK
6
CONTINUOUS
10
118.891
20
-105.733
11
118.818
21
-105.69
0
LINE
8
BLACK
6
CONTINUOUS
10
118.818
20
-105.69
11
118.763
21
-105.626
0
LINE
8
BLACK
6
CONTINUOUS
10
118.763
20
-105.626
11
118.731
21
-105.504
0
LINE
8
BLACK
6
CONTINUOUS
10
118.731
20
-105.504
11
118.731
21
-105.016
0
LINE
8
BLACK
6
CONTINUOUS
10
118.731
20
-105.016
11
118.745
21
-104.933
0
LINE
8
BLACK
6
CONTINUOUS
10
118.745
20
-104.933
11
118.788
21
-104.859
0
LINE
8
BLACK
6
CONTINUOUS
10
118.788
20
-104.859
11
118.853
21
-104.805
0
LINE
8
BLACK
6
CONTINUOUS
10
118.853
20
-104.805
11
118.975
21
-104.772
0
LINE
8
BLACK
6
CONTINUOUS
10
118.975
20
-104.772
11
119.887
21
-104.772
0
LINE
8
BLACK
6
CONTINUOUS
10
119.887
20
-104.772
11
119.97
21
-104.787
0
LINE
8
BLACK
6
CONTINUOUS
10
90.2477
20
-104.217
11
90.321
21
-104.259
0
LINE
8
BLACK
6
CONTINUOUS
10
90.321
20
-104.259
11
90.3754
21
-104.324
0
LINE
8
BLACK
6
CONTINUOUS
10
90.3754
20
-104.324
11
90.4081
21
-104.446
0
LINE
8
BLACK
6
CONTINUOUS
10
90.4081
20
-104.446
11
90.4081
21
-105.358
0
LINE
8
BLACK
6
CONTINUOUS
10
90.4081
20
-105.358
11
90.3934
21
-105.442
0
LINE
8
BLACK
6
CONTINUOUS
10
90.3934
20
-105.442
11
90.3511
21
-105.515
0
LINE
8
BLACK
6
CONTINUOUS
10
90.3511
20
-105.515
11
90.2862
21
-105.569
0
LINE
8
BLACK
6
CONTINUOUS
10
90.2862
20
-105.569
11
90.1643
21
-105.602
0
LINE
8
BLACK
6
CONTINUOUS
10
90.1643
20
-105.602
11
89.6769
21
-105.602
0
LINE
8
BLACK
6
CONTINUOUS
10
89.6769
20
-105.602
11
89.5935
21
-105.587
0
LINE
8
BLACK
6
CONTINUOUS
10
89.5935
20
-105.587
11
89.5202
21
-105.545
0
LINE
8
BLACK
6
CONTINUOUS
10
89.5202
20
-105.545
11
89.4658
21
-105.48
0
LINE
8
BLACK
6
CONTINUOUS
10
89.4658
20
-105.48
11
89.4331
21
-105.358
0
LINE
8
BLACK
6
CONTINUOUS
10
89.4331
20
-105.358
11
89.4331
21
-104.446
0
LINE
8
BLACK
6
CONTINUOUS
10
89.4331
20
-104.446
11
89.4478
21
-104.362
0
LINE
8
BLACK
6
CONTINUOUS
10
89.4478
20
-104.362
11
89.4901
21
-104.289
0
LINE
8
BLACK
6
CONTINUOUS
10
89.4901
20
-104.289
11
89.555
21
-104.235
0
LINE
8
BLACK
6
CONTINUOUS
10
89.555
20
-104.235
11
89.6769
21
-104.202
0
LINE
8
BLACK
6
CONTINUOUS
10
89.6769
20
-104.202
11
90.1643
21
-104.202
0
LINE
8
BLACK
6
CONTINUOUS
10
90.1643
20
-104.202
11
90.2477
21
-104.217
0
LINE
8
BLACK
6
CONTINUOUS
10
92.1227
20
-104.217
11
92.196
21
-104.259
0
LINE
8
BLACK
6
CONTINUOUS
10
92.196
20
-104.259
11
92.2504
21
-104.324
0
LINE
8
BLACK
6
CONTINUOUS
10
92.2504
20
-104.324
11
92.2831
21
-104.446
0
LINE
8
BLACK
6
CONTINUOUS
10
92.2831
20
-104.446
11
92.2831
21
-105.358
0
LINE
8
BLACK
6
CONTINUOUS
10
92.2831
20
-105.358
11
92.2684
21
-105.442
0
LINE
8
BLACK
6
CONTINUOUS
10
92.2684
20
-105.442
11
92.2261
21
-105.515
0
LINE
8
BLACK
6
CONTINUOUS
10
92.2261
20
-105.515
11
92.1612
21
-105.569
0
LINE
8
BLACK
6
CONTINUOUS
10
92.1612
20
-105.569
11
92.0393
21
-105.602
0
LINE
8
BLACK
6
CONTINUOUS
10
92.0393
20
-105.602
11
91.5519
21
-105.602
0
LINE
8
BLACK
6
CONTINUOUS
10
91.5519
20
-105.602
11
91.4685
21
-105.587
0
LINE
8
BLACK
6
CONTINUOUS
10
91.4685
20
-105.587
11
91.3952
21
-105.545
0
LINE
8
BLACK
6
CONTINUOUS
10
91.3952
20
-105.545
11
91.3408
21
-105.48
0
LINE
8
BLACK
6
CONTINUOUS
10
91.3408
20
-105.48
11
91.3081
21
-105.358
0
LINE
8
BLACK
6
CONTINUOUS
10
91.3081
20
-105.358
11
91.3081
21
-104.446
0
LINE
8
BLACK
6
CONTINUOUS
10
91.3081
20
-104.446
11
91.3228
21
-104.362
0
LINE
8
BLACK
6
CONTINUOUS
10
91.3228
20
-104.362
11
91.3651
21
-104.289
0
LINE
8
BLACK
6
CONTINUOUS
10
91.3651
20
-104.289
11
91.43
21
-104.235
0
LINE
8
BLACK
6
CONTINUOUS
10
91.43
20
-104.235
11
91.5519
21
-104.202
0
LINE
8
BLACK
6
CONTINUOUS
10
91.5519
20
-104.202
11
92.0393
21
-104.202
0
LINE
8
BLACK
6
CONTINUOUS
10
92.0393
20
-104.202
11
92.1227
21
-104.217
0
LINE
8
BLACK
6
CONTINUOUS
10
88.072
20
-105.327
11
87.697
21
-105.327
0
LINE
8
BLACK
6
CONTINUOUS
10
87.697
20
-105.327
11
87.697
21
-104.977
0
LINE
8
BLACK
6
CONTINUOUS
10
87.697
20
-104.977
11
88.072
21
-104.977
0
LINE
8
BLACK
6
CONTINUOUS
10
88.072
20
-104.977
11
88.072
21
-105.327
0
LINE
8
BLACK
6
CONTINUOUS
10
86.547
20
-105.327
11
86.172
21
-105.327
0
LINE
8
BLACK
6
CONTINUOUS
10
86.172
20
-105.327
11
86.172
21
-104.977
0
LINE
8
BLACK
6
CONTINUOUS
10
86.172
20
-104.977
11
86.547
21
-104.977
0
LINE
8
BLACK
6
CONTINUOUS
10
86.547
20
-104.977
11
86.547
21
-105.327
0
LINE
8
BLACK
6
CONTINUOUS
10
96.2976
20
-104.097
11
96.3709
21
-104.139
0
LINE
8
BLACK
6
CONTINUOUS
10
96.3709
20
-104.139
11
96.4253
21
-104.204
0
LINE
8
BLACK
6
CONTINUOUS
10
96.4253
20
-104.204
11
96.458
21
-104.326
0
LINE
8
BLACK
6
CONTINUOUS
10
96.458
20
-104.326
11
96.458
21
-104.813
0
LINE
8
BLACK
6
CONTINUOUS
10
96.458
20
-104.813
11
96.4433
21
-104.897
0
LINE
8
BLACK
6
CONTINUOUS
10
96.4433
20
-104.897
11
96.401
21
-104.97
0
LINE
8
BLACK
6
CONTINUOUS
10
96.401
20
-104.97
11
96.3361
21
-105.024
0
LINE
8
BLACK
6
CONTINUOUS
10
96.3361
20
-105.024
11
96.2142
21
-105.057
0
LINE
8
BLACK
6
CONTINUOUS
10
96.2142
20
-105.057
11
95.3017
21
-105.057
0
LINE
8
BLACK
6
CONTINUOUS
10
95.3017
20
-105.057
11
95.2184
21
-105.042
0
LINE
8
BLACK
6
CONTINUOUS
10
95.2184
20
-105.042
11
95.1451
21
-105
0
LINE
8
BLACK
6
CONTINUOUS
10
95.1451
20
-105
11
95.0907
21
-104.935
0
LINE
8
BLACK
6
CONTINUOUS
10
95.0907
20
-104.935
11
95.058
21
-104.813
0
LINE
8
BLACK
6
CONTINUOUS
10
95.058
20
-104.813
11
95.058
21
-104.326
0
LINE
8
BLACK
6
CONTINUOUS
10
95.058
20
-104.326
11
95.0727
21
-104.242
0
LINE
8
BLACK
6
CONTINUOUS
10
95.0727
20
-104.242
11
95.115
21
-104.169
0
LINE
8
BLACK
6
CONTINUOUS
10
95.115
20
-104.169
11
95.1799
21
-104.115
0
LINE
8
BLACK
6
CONTINUOUS
10
95.1799
20
-104.115
11
95.3017
21
-104.082
0
LINE
8
BLACK
6
CONTINUOUS
10
95.3017
20
-104.082
11
96.2142
21
-104.082
0
LINE
8
BLACK
6
CONTINUOUS
10
96.2142
20
-104.082
11
96.2976
21
-104.097
0
LINE
8
BLACK
6
CONTINUOUS
10
99.526
20
-104.982
11
97.626
21
-104.982
0
LINE
8
BLACK
6
CONTINUOUS
10
97.626
20
-104.982
11
97.626
21
-104.182
0
LINE
8
BLACK
6
CONTINUOUS
10
97.626
20
-104.182
11
99.526
21
-104.182
0
LINE
8
BLACK
6
CONTINUOUS
10
99.526
20
-104.182
11
99.526
21
-104.982
0
LINE
8
BLACK
6
CONTINUOUS
10
86.547
20
-104.827
11
86.172
21
-104.827
0
LINE
8
BLACK
6
CONTINUOUS
10
86.172
20
-104.827
11
86.172
21
-104.477
0
LINE
8
BLACK
6
CONTINUOUS
10
86.172
20
-104.477
11
86.547
21
-104.477
0
LINE
8
BLACK
6
CONTINUOUS
10
86.547
20
-104.477
11
86.547
21
-104.827
0
LINE
8
BLACK
6
CONTINUOUS
10
88.072
20
-104.827
11
87.697
21
-104.827
0
LINE
8
BLACK
6
CONTINUOUS
10
87.697
20
-104.827
11
87.697
21
-104.477
0
LINE
8
BLACK
6
CONTINUOUS
10
87.697
20
-104.477
11
88.072
21
-104.477
0
LINE
8
BLACK
6
CONTINUOUS
10
88.072
20
-104.477
11
88.072
21
-104.827
0
LINE
8
BLACK
6
CONTINUOUS
10
78.8131
20
-103.378
11
78.8864
21
-103.421
0
LINE
8
BLACK
6
CONTINUOUS
10
78.8864
20
-103.421
11
78.9408
21
-103.486
0
LINE
8
BLACK
6
CONTINUOUS
10
78.9408
20
-103.486
11
78.9735
21
-103.608
0
LINE
8
BLACK
6
CONTINUOUS
10
78.9735
20
-103.608
11
78.9735
21
-104.52
0
LINE
8
BLACK
6
CONTINUOUS
10
78.9735
20
-104.52
11
78.9588
21
-104.603
0
LINE
8
BLACK
6
CONTINUOUS
10
78.9588
20
-104.603
11
78.9165
21
-104.677
0
LINE
8
BLACK
6
CONTINUOUS
10
78.9165
20
-104.677
11
78.8516
21
-104.731
0
LINE
8
BLACK
6
CONTINUOUS
10
78.8516
20
-104.731
11
78.7297
21
-104.764
0
LINE
8
BLACK
6
CONTINUOUS
10
78.7297
20
-104.764
11
78.2422
21
-104.764
0
LINE
8
BLACK
6
CONTINUOUS
10
78.2422
20
-104.764
11
78.1589
21
-104.749
0
LINE
8
BLACK
6
CONTINUOUS
10
78.1589
20
-104.749
11
78.0856
21
-104.707
0
LINE
8
BLACK
6
CONTINUOUS
10
78.0856
20
-104.707
11
78.0312
21
-104.642
0
LINE
8
BLACK
6
CONTINUOUS
10
78.0312
20
-104.642
11
77.9985
21
-104.52
0
LINE
8
BLACK
6
CONTINUOUS
10
77.9985
20
-104.52
11
77.9985
21
-103.608
0
LINE
8
BLACK
6
CONTINUOUS
10
77.9985
20
-103.608
11
78.0132
21
-103.524
0
LINE
8
BLACK
6
CONTINUOUS
10
78.0132
20
-103.524
11
78.0555
21
-103.451
0
LINE
8
BLACK
6
CONTINUOUS
10
78.0555
20
-103.451
11
78.1204
21
-103.396
0
LINE
8
BLACK
6
CONTINUOUS
10
78.1204
20
-103.396
11
78.2422
21
-103.364
0
LINE
8
BLACK
6
CONTINUOUS
10
78.2422
20
-103.364
11
78.7297
21
-103.364
0
LINE
8
BLACK
6
CONTINUOUS
10
78.7297
20
-103.364
11
78.8131
21
-103.378
0
LINE
8
BLACK
6
CONTINUOUS
10
80.6881
20
-103.378
11
80.7614
21
-103.421
0
LINE
8
BLACK
6
CONTINUOUS
10
80.7614
20
-103.421
11
80.8158
21
-103.486
0
LINE
8
BLACK
6
CONTINUOUS
10
80.8158
20
-103.486
11
80.8485
21
-103.608
0
LINE
8
BLACK
6
CONTINUOUS
10
80.8485
20
-103.608
11
80.8485
21
-104.52
0
LINE
8
BLACK
6
CONTINUOUS
10
80.8485
20
-104.52
11
80.8338
21
-104.603
0
LINE
8
BLACK
6
CONTINUOUS
10
80.8338
20
-104.603
11
80.7915
21
-104.677
0
LINE
8
BLACK
6
CONTINUOUS
10
80.7915
20
-104.677
11
80.7266
21
-104.731
0
LINE
8
BLACK
6
CONTINUOUS
10
80.7266
20
-104.731
11
80.6047
21
-104.764
0
LINE
8
BLACK
6
CONTINUOUS
10
80.6047
20
-104.764
11
80.1172
21
-104.764
0
LINE
8
BLACK
6
CONTINUOUS
10
80.1172
20
-104.764
11
80.0339
21
-104.749
0
LINE
8
BLACK
6
CONTINUOUS
10
80.0339
20
-104.749
11
79.9606
21
-104.707
0
LINE
8
BLACK
6
CONTINUOUS
10
79.9606
20
-104.707
11
79.9062
21
-104.642
0
LINE
8
BLACK
6
CONTINUOUS
10
79.9062
20
-104.642
11
79.8735
21
-104.52
0
LINE
8
BLACK
6
CONTINUOUS
10
79.8735
20
-104.52
11
79.8735
21
-103.608
0
LINE
8
BLACK
6
CONTINUOUS
10
79.8735
20
-103.608
11
79.8882
21
-103.524
0
LINE
8
BLACK
6
CONTINUOUS
10
79.8882
20
-103.524
11
79.9305
21
-103.451
0
LINE
8
BLACK
6
CONTINUOUS
10
79.9305
20
-103.451
11
79.9954
21
-103.396
0
LINE
8
BLACK
6
CONTINUOUS
10
79.9954
20
-103.396
11
80.1172
21
-103.364
0
LINE
8
BLACK
6
CONTINUOUS
10
80.1172
20
-103.364
11
80.6047
21
-103.364
0
LINE
8
BLACK
6
CONTINUOUS
10
80.6047
20
-103.364
11
80.6881
21
-103.378
0
LINE
8
BLACK
6
CONTINUOUS
10
86.547
20
-104.327
11
86.172
21
-104.327
0
LINE
8
BLACK
6
CONTINUOUS
10
86.172
20
-104.327
11
86.172
21
-103.977
0
LINE
8
BLACK
6
CONTINUOUS
10
86.172
20
-103.977
11
86.547
21
-103.977
0
LINE
8
BLACK
6
CONTINUOUS
10
86.547
20
-103.977
11
86.547
21
-104.327
0
LINE
8
BLACK
6
CONTINUOUS
10
87.047
20
-104.327
11
86.697
21
-104.327
0
LINE
8
BLACK
6
CONTINUOUS
10
86.697
20
-104.327
11
86.697
21
-103.952
0
LINE
8
BLACK
6
CONTINUOUS
10
86.697
20
-103.952
11
87.047
21
-103.952
0
LINE
8
BLACK
6
CONTINUOUS
10
87.047
20
-103.952
11
87.047
21
-104.327
0
LINE
8
BLACK
6
CONTINUOUS
10
88.072
20
-104.327
11
87.697
21
-104.327
0
LINE
8
BLACK
6
CONTINUOUS
10
87.697
20
-104.327
11
87.697
21
-103.977
0
LINE
8
BLACK
6
CONTINUOUS
10
87.697
20
-103.977
11
88.072
21
-103.977
0
LINE
8
BLACK
6
CONTINUOUS
10
88.072
20
-103.977
11
88.072
21
-104.327
0
LINE
8
BLACK
6
CONTINUOUS
10
87.547
20
-104.327
11
87.197
21
-104.327
0
LINE
8
BLACK
6
CONTINUOUS
10
87.197
20
-104.327
11
87.197
21
-103.952
0
LINE
8
BLACK
6
CONTINUOUS
10
87.197
20
-103.952
11
87.547
21
-103.952
0
LINE
8
BLACK
6
CONTINUOUS
10
87.547
20
-103.952
11
87.547
21
-104.327
0
LINE
8
BLACK
6
CONTINUOUS
10
83.416
20
-104.127
11
83.066
21
-104.127
0
LINE
8
BLACK
6
CONTINUOUS
10
83.066
20
-104.127
11
83.066
21
-103.627
0
LINE
8
BLACK
6
CONTINUOUS
10
83.066
20
-103.627
11
83.416
21
-103.627
0
LINE
8
BLACK
6
CONTINUOUS
10
83.416
20
-103.627
11
83.416
21
-104.127
0
LINE
8
BLACK
6
CONTINUOUS
10
82.766
20
-104.127
11
82.416
21
-104.127
0
LINE
8
BLACK
6
CONTINUOUS
10
82.416
20
-104.127
11
82.416
21
-103.627
0
LINE
8
BLACK
6
CONTINUOUS
10
82.416
20
-103.627
11
82.766
21
-103.627
0
LINE
8
BLACK
6
CONTINUOUS
10
82.766
20
-103.627
11
82.766
21
-104.127
0
LINE
8
BLACK
6
CONTINUOUS
10
84.716
20
-104.127
11
84.366
21
-104.127
0
LINE
8
BLACK
6
CONTINUOUS
10
84.366
20
-104.127
11
84.366
21
-103.627
0
LINE
8
BLACK
6
CONTINUOUS
10
84.366
20
-103.627
11
84.716
21
-103.627
0
LINE
8
BLACK
6
CONTINUOUS
10
84.716
20
-103.627
11
84.716
21
-104.127
0
LINE
8
BLACK
6
CONTINUOUS
10
84.066
20
-104.127
11
83.716
21
-104.127
0
LINE
8
BLACK
6
CONTINUOUS
10
83.716
20
-104.127
11
83.716
21
-103.627
0
LINE
8
BLACK
6
CONTINUOUS
10
83.716
20
-103.627
11
84.066
21
-103.627
0
LINE
8
BLACK
6
CONTINUOUS
10
84.066
20
-103.627
11
84.066
21
-104.127
0
LINE
8
BLACK
6
CONTINUOUS
10
102.526
20
-104.032
11
100.626
21
-104.032
0
LINE
8
BLACK
6
CONTINUOUS
10
100.626
20
-104.032
11
100.626
21
-103.232
0
LINE
8
BLACK
6
CONTINUOUS
10
100.626
20
-103.232
11
102.526
21
-103.232
0
LINE
8
BLACK
6
CONTINUOUS
10
102.526
20
-103.232
11
102.526
21
-104.032
0
LINE
8
BLACK
6
CONTINUOUS
10
92.1181
20
-102.185
11
92.1914
21
-102.227
0
LINE
8
BLACK
6
CONTINUOUS
10
92.1914
20
-102.227
11
92.2458
21
-102.292
0
LINE
8
BLACK
6
CONTINUOUS
10
92.2458
20
-102.292
11
92.2785
21
-102.414
0
LINE
8
BLACK
6
CONTINUOUS
10
92.2785
20
-102.414
11
92.2785
21
-103.326
0
LINE
8
BLACK
6
CONTINUOUS
10
92.2785
20
-103.326
11
92.2638
21
-103.41
0
LINE
8
BLACK
6
CONTINUOUS
10
92.2638
20
-103.41
11
92.2215
21
-103.483
0
LINE
8
BLACK
6
CONTINUOUS
10
92.2215
20
-103.483
11
92.1566
21
-103.537
0
LINE
8
BLACK
6
CONTINUOUS
10
92.1566
20
-103.537
11
92.0348
21
-103.57
0
LINE
8
BLACK
6
CONTINUOUS
10
92.0348
20
-103.57
11
91.5472
21
-103.57
0
LINE
8
BLACK
6
CONTINUOUS
10
91.5472
20
-103.57
11
91.4639
21
-103.555
0
LINE
8
BLACK
6
CONTINUOUS
10
91.4639
20
-103.555
11
91.3906
21
-103.513
0
LINE
8
BLACK
6
CONTINUOUS
10
91.3906
20
-103.513
11
91.3362
21
-103.448
0
LINE
8
BLACK
6
CONTINUOUS
10
91.3362
20
-103.448
11
91.3035
21
-103.326
0
LINE
8
BLACK
6
CONTINUOUS
10
91.3035
20
-103.326
11
91.3035
21
-102.414
0
LINE
8
BLACK
6
CONTINUOUS
10
91.3035
20
-102.414
11
91.3182
21
-102.33
0
LINE
8
BLACK
6
CONTINUOUS
10
91.3182
20
-102.33
11
91.3605
21
-102.257
0
LINE
8
BLACK
6
CONTINUOUS
10
91.3605
20
-102.257
11
91.4254
21
-102.203
0
LINE
8
BLACK
6
CONTINUOUS
10
91.4254
20
-102.203
11
91.5472
21
-102.17
0
LINE
8
BLACK
6
CONTINUOUS
10
91.5472
20
-102.17
11
92.0348
21
-102.17
0
LINE
8
BLACK
6
CONTINUOUS
10
92.0348
20
-102.17
11
92.1181
21
-102.185
0
LINE
8
BLACK
6
CONTINUOUS
10
90.2431
20
-102.185
11
90.3164
21
-102.227
0
LINE
8
BLACK
6
CONTINUOUS
10
90.3164
20
-102.227
11
90.3708
21
-102.292
0
LINE
8
BLACK
6
CONTINUOUS
10
90.3708
20
-102.292
11
90.4035
21
-102.414
0
LINE
8
BLACK
6
CONTINUOUS
10
90.4035
20
-102.414
11
90.4035
21
-103.326
0
LINE
8
BLACK
6
CONTINUOUS
10
90.4035
20
-103.326
11
90.3888
21
-103.41
0
LINE
8
BLACK
6
CONTINUOUS
10
90.3888
20
-103.41
11
90.3465
21
-103.483
0
LINE
8
BLACK
6
CONTINUOUS
10
90.3465
20
-103.483
11
90.2816
21
-103.537
0
LINE
8
BLACK
6
CONTINUOUS
10
90.2816
20
-103.537
11
90.1598
21
-103.57
0
LINE
8
BLACK
6
CONTINUOUS
10
90.1598
20
-103.57
11
89.6722
21
-103.57
0
LINE
8
BLACK
6
CONTINUOUS
10
89.6722
20
-103.57
11
89.5889
21
-103.555
0
LINE
8
BLACK
6
CONTINUOUS
10
89.5889
20
-103.555
11
89.5156
21
-103.513
0
LINE
8
BLACK
6
CONTINUOUS
10
89.5156
20
-103.513
11
89.4612
21
-103.448
0
LINE
8
BLACK
6
CONTINUOUS
10
89.4612
20
-103.448
11
89.4285
21
-103.326
0
LINE
8
BLACK
6
CONTINUOUS
10
89.4285
20
-103.326
11
89.4285
21
-102.414
0
LINE
8
BLACK
6
CONTINUOUS
10
89.4285
20
-102.414
11
89.4432
21
-102.33
0
LINE
8
BLACK
6
CONTINUOUS
10
89.4432
20
-102.33
11
89.4855
21
-102.257
0
LINE
8
BLACK
6
CONTINUOUS
10
89.4855
20
-102.257
11
89.5504
21
-102.203
0
LINE
8
BLACK
6
CONTINUOUS
10
89.5504
20
-102.203
11
89.6722
21
-102.17
0
LINE
8
BLACK
6
CONTINUOUS
10
89.6722
20
-102.17
11
90.1598
21
-102.17
0
LINE
8
BLACK
6
CONTINUOUS
10
90.1598
20
-102.17
11
90.2431
21
-102.185
0
LINE
8
BLACK
6
CONTINUOUS
10
109.5
20
-103.4
11
108.5
21
-103.4
0
LINE
8
BLACK
6
CONTINUOUS
10
108.5
20
-103.4
11
108.5
21
-101.6
0
LINE
8
BLACK
6
CONTINUOUS
10
108.5
20
-101.6
11
109.5
21
-101.6
0
LINE
8
BLACK
6
CONTINUOUS
10
109.5
20
-101.6
11
109.5
21
-103.4
0
LINE
8
BLACK
6
CONTINUOUS
10
119.5
20
-103.4
11
118.5
21
-103.4
0
LINE
8
BLACK
6
CONTINUOUS
10
118.5
20
-103.4
11
118.5
21
-101.6
0
LINE
8
BLACK
6
CONTINUOUS
10
118.5
20
-101.6
11
119.5
21
-101.6
0
LINE
8
BLACK
6
CONTINUOUS
10
119.5
20
-101.6
11
119.5
21
-103.4
0
LINE
8
BLACK
6
CONTINUOUS
10
117.5
20
-103.4
11
116.5
21
-103.4
0
LINE
8
BLACK
6
CONTINUOUS
10
116.5
20
-103.4
11
116.5
21
-101.6
0
LINE
8
BLACK
6
CONTINUOUS
10
116.5
20
-101.6
11
117.5
21
-101.6
0
LINE
8
BLACK
6
CONTINUOUS
10
117.5
20
-101.6
11
117.5
21
-103.4
0
LINE
8
BLACK
6
CONTINUOUS
10
115.5
20
-103.4
11
114.5
21
-103.4
0
LINE
8
BLACK
6
CONTINUOUS
10
114.5
20
-103.4
11
114.5
21
-101.6
0
LINE
8
BLACK
6
CONTINUOUS
10
114.5
20
-101.6
11
115.5
21
-101.6
0
LINE
8
BLACK
6
CONTINUOUS
10
115.5
20
-101.6
11
115.5
21
-103.4
0
LINE
8
BLACK
6
CONTINUOUS
10
113.5
20
-103.4
11
112.5
21
-103.4
0
LINE
8
BLACK
6
CONTINUOUS
10
112.5
20
-103.4
11
112.5
21
-101.6
0
LINE
8
BLACK
6
CONTINUOUS
10
112.5
20
-101.6
11
113.5
21
-101.6
0
LINE
8
BLACK
6
CONTINUOUS
10
113.5
20
-101.6
11
113.5
21
-103.4
0
LINE
8
BLACK
6
CONTINUOUS
10
111.5
20
-103.4
11
110.5
21
-103.4
0
LINE
8
BLACK
6
CONTINUOUS
10
110.5
20
-103.4
11
110.5
21
-101.6
0
LINE
8
BLACK
6
CONTINUOUS
10
110.5
20
-101.6
11
111.5
21
-101.6
0
LINE
8
BLACK
6
CONTINUOUS
10
111.5
20
-101.6
11
111.5
21
-103.4
0
LINE
8
BLACK
6
CONTINUOUS
10
96.2976
20
-102.222
11
96.3709
21
-102.264
0
LINE
8
BLACK
6
CONTINUOUS
10
96.3709
20
-102.264
11
96.4253
21
-102.329
0
LINE
8
BLACK
6
CONTINUOUS
10
96.4253
20
-102.329
11
96.458
21
-102.451
0
LINE
8
BLACK
6
CONTINUOUS
10
96.458
20
-102.451
11
96.458
21
-102.938
0
LINE
8
BLACK
6
CONTINUOUS
10
96.458
20
-102.938
11
96.4433
21
-103.022
0
LINE
8
BLACK
6
CONTINUOUS
10
96.4433
20
-103.022
11
96.401
21
-103.095
0
LINE
8
BLACK
6
CONTINUOUS
10
96.401
20
-103.095
11
96.3361
21
-103.149
0
LINE
8
BLACK
6
CONTINUOUS
10
96.3361
20
-103.149
11
96.2142
21
-103.182
0
LINE
8
BLACK
6
CONTINUOUS
10
96.2142
20
-103.182
11
95.3017
21
-103.182
0
LINE
8
BLACK
6
CONTINUOUS
10
95.3017
20
-103.182
11
95.2184
21
-103.167
0
LINE
8
BLACK
6
CONTINUOUS
10
95.2184
20
-103.167
11
95.1451
21
-103.125
0
LINE
8
BLACK
6
CONTINUOUS
10
95.1451
20
-103.125
11
95.0907
21
-103.06
0
LINE
8
BLACK
6
CONTINUOUS
10
95.0907
20
-103.06
11
95.058
21
-102.938
0
LINE
8
BLACK
6
CONTINUOUS
10
95.058
20
-102.938
11
95.058
21
-102.451
0
LINE
8
BLACK
6
CONTINUOUS
10
95.058
20
-102.451
11
95.0727
21
-102.367
0
LINE
8
BLACK
6
CONTINUOUS
10
95.0727
20
-102.367
11
95.115
21
-102.294
0
LINE
8
BLACK
6
CONTINUOUS
10
95.115
20
-102.294
11
95.1799
21
-102.24
0
LINE
8
BLACK
6
CONTINUOUS
10
95.1799
20
-102.24
11
95.3017
21
-102.207
0
LINE
8
BLACK
6
CONTINUOUS
10
95.3017
20
-102.207
11
96.2142
21
-102.207
0
LINE
8
BLACK
6
CONTINUOUS
10
96.2142
20
-102.207
11
96.2976
21
-102.222
0
LINE
8
BLACK
6
CONTINUOUS
10
99.526
20
-103.082
11
97.626
21
-103.082
0
LINE
8
BLACK
6
CONTINUOUS
10
97.626
20
-103.082
11
97.626
21
-102.282
0
LINE
8
BLACK
6
CONTINUOUS
10
97.626
20
-102.282
11
99.526
21
-102.282
0
LINE
8
BLACK
6
CONTINUOUS
10
99.526
20
-102.282
11
99.526
21
-103.082
0
LINE
8
BLACK
6
CONTINUOUS
10
80.6881
20
-101.397
11
80.7614
21
-101.44
0
LINE
8
BLACK
6
CONTINUOUS
10
80.7614
20
-101.44
11
80.8158
21
-101.504
0
LINE
8
BLACK
6
CONTINUOUS
10
80.8158
20
-101.504
11
80.8485
21
-101.626
0
LINE
8
BLACK
6
CONTINUOUS
10
80.8485
20
-101.626
11
80.8485
21
-102.539
0
LINE
8
BLACK
6
CONTINUOUS
10
80.8485
20
-102.539
11
80.8338
21
-102.622
0
LINE
8
BLACK
6
CONTINUOUS
10
80.8338
20
-102.622
11
80.7915
21
-102.696
0
LINE
8
BLACK
6
CONTINUOUS
10
80.7915
20
-102.696
11
80.7266
21
-102.75
0
LINE
8
BLACK
6
CONTINUOUS
10
80.7266
20
-102.75
11
80.6047
21
-102.783
0
LINE
8
BLACK
6
CONTINUOUS
10
80.6047
20
-102.783
11
80.1172
21
-102.783
0
LINE
8
BLACK
6
CONTINUOUS
10
80.1172
20
-102.783
11
80.0339
21
-102.768
0
LINE
8
BLACK
6
CONTINUOUS
10
80.0339
20
-102.768
11
79.9606
21
-102.726
0
LINE
8
BLACK
6
CONTINUOUS
10
79.9606
20
-102.726
11
79.9062
21
-102.661
0
LINE
8
BLACK
6
CONTINUOUS
10
79.9062
20
-102.661
11
79.8735
21
-102.539
0
LINE
8
BLACK
6
CONTINUOUS
10
79.8735
20
-102.539
11
79.8735
21
-101.626
0
LINE
8
BLACK
6
CONTINUOUS
10
79.8735
20
-101.626
11
79.8882
21
-101.543
0
LINE
8
BLACK
6
CONTINUOUS
10
79.8882
20
-101.543
11
79.9305
21
-101.47
0
LINE
8
BLACK
6
CONTINUOUS
10
79.9305
20
-101.47
11
79.9954
21
-101.415
0
LINE
8
BLACK
6
CONTINUOUS
10
79.9954
20
-101.415
11
80.1172
21
-101.383
0
LINE
8
BLACK
6
CONTINUOUS
10
80.1172
20
-101.383
11
80.6047
21
-101.383
0
LINE
8
BLACK
6
CONTINUOUS
10
80.6047
20
-101.383
11
80.6881
21
-101.397
0
LINE
8
BLACK
6
CONTINUOUS
10
78.8131
20
-101.397
11
78.8864
21
-101.44
0
LINE
8
BLACK
6
CONTINUOUS
10
78.8864
20
-101.44
11
78.9408
21
-101.504
0
LINE
8
BLACK
6
CONTINUOUS
10
78.9408
20
-101.504
11
78.9735
21
-101.626
0
LINE
8
BLACK
6
CONTINUOUS
10
78.9735
20
-101.626
11
78.9735
21
-102.539
0
LINE
8
BLACK
6
CONTINUOUS
10
78.9735
20
-102.539
11
78.9588
21
-102.622
0
LINE
8
BLACK
6
CONTINUOUS
10
78.9588
20
-102.622
11
78.9165
21
-102.696
0
LINE
8
BLACK
6
CONTINUOUS
10
78.9165
20
-102.696
11
78.8516
21
-102.75
0
LINE
8
BLACK
6
CONTINUOUS
10
78.8516
20
-102.75
11
78.7297
21
-102.783
0
LINE
8
BLACK
6
CONTINUOUS
10
78.7297
20
-102.783
11
78.2422
21
-102.783
0
LINE
8
BLACK
6
CONTINUOUS
10
78.2422
20
-102.783
11
78.1589
21
-102.768
0
LINE
8
BLACK
6
CONTINUOUS
10
78.1589
20
-102.768
11
78.0856
21
-102.726
0
LINE
8
BLACK
6
CONTINUOUS
10
78.0856
20
-102.726
11
78.0312
21
-102.661
0
LINE
8
BLACK
6
CONTINUOUS
10
78.0312
20
-102.661
11
77.9985
21
-102.539
0
LINE
8
BLACK
6
CONTINUOUS
10
77.9985
20
-102.539
11
77.9985
21
-101.626
0
LINE
8
BLACK
6
CONTINUOUS
10
77.9985
20
-101.626
11
78.0132
21
-101.543
0
LINE
8
BLACK
6
CONTINUOUS
10
78.0132
20
-101.543
11
78.0555
21
-101.47
0
LINE
8
BLACK
6
CONTINUOUS
10
78.0555
20
-101.47
11
78.1204
21
-101.415
0
LINE
8
BLACK
6
CONTINUOUS
10
78.1204
20
-101.415
11
78.2422
21
-101.383
0
LINE
8
BLACK
6
CONTINUOUS
10
78.2422
20
-101.383
11
78.7297
21
-101.383
0
LINE
8
BLACK
6
CONTINUOUS
10
78.7297
20
-101.383
11
78.8131
21
-101.397
0
LINE
8
BLACK
6
CONTINUOUS
10
85.8836
20
-100.716
11
85.9569
21
-100.759
0
LINE
8
BLACK
6
CONTINUOUS
10
85.9569
20
-100.759
11
86.0113
21
-100.823
0
LINE
8
BLACK
6
CONTINUOUS
10
86.0113
20
-100.823
11
86.044
21
-100.945
0
LINE
8
BLACK
6
CONTINUOUS
10
86.044
20
-100.945
11
86.044
21
-101.433
0
LINE
8
BLACK
6
CONTINUOUS
10
86.044
20
-101.433
11
86.0293
21
-101.516
0
LINE
8
BLACK
6
CONTINUOUS
10
86.0293
20
-101.516
11
85.987
21
-101.589
0
LINE
8
BLACK
6
CONTINUOUS
10
85.987
20
-101.589
11
85.9221
21
-101.644
0
LINE
8
BLACK
6
CONTINUOUS
10
85.9221
20
-101.644
11
85.8002
21
-101.676
0
LINE
8
BLACK
6
CONTINUOUS
10
85.8002
20
-101.676
11
84.8877
21
-101.676
0
LINE
8
BLACK
6
CONTINUOUS
10
84.8877
20
-101.676
11
84.8044
21
-101.662
0
LINE
8
BLACK
6
CONTINUOUS
10
84.8044
20
-101.662
11
84.7311
21
-101.619
0
LINE
8
BLACK
6
CONTINUOUS
10
84.7311
20
-101.619
11
84.6767
21
-101.555
0
LINE
8
BLACK
6
CONTINUOUS
10
84.6767
20
-101.555
11
84.644
21
-101.433
0
LINE
8
BLACK
6
CONTINUOUS
10
84.644
20
-101.433
11
84.644
21
-100.945
0
LINE
8
BLACK
6
CONTINUOUS
10
84.644
20
-100.945
11
84.6587
21
-100.862
0
LINE
8
BLACK
6
CONTINUOUS
10
84.6587
20
-100.862
11
84.701
21
-100.789
0
LINE
8
BLACK
6
CONTINUOUS
10
84.701
20
-100.789
11
84.7659
21
-100.734
0
LINE
8
BLACK
6
CONTINUOUS
10
84.7659
20
-100.734
11
84.8877
21
-100.701
0
LINE
8
BLACK
6
CONTINUOUS
10
84.8877
20
-100.701
11
85.8002
21
-100.701
0
LINE
8
BLACK
6
CONTINUOUS
10
85.8002
20
-100.701
11
85.8836
21
-100.716
0
LINE
8
BLACK
6
CONTINUOUS
10
122.85
20
-101.5
11
120.35
21
-101.5
0
LINE
8
BLACK
6
CONTINUOUS
10
120.35
20
-101.5
11
120.35
21
-100.5
0
LINE
8
BLACK
6
CONTINUOUS
10
120.35
20
-100.5
11
122.85
21
-100.5
0
LINE
8
BLACK
6
CONTINUOUS
10
122.85
20
-100.5
11
122.85
21
-101.5
0
LINE
8
BLACK
6
CONTINUOUS
10
107.65
20
-101.5
11
105.15
21
-101.5
0
LINE
8
BLACK
6
CONTINUOUS
10
105.15
20
-101.5
11
105.15
21
-100.5
0
LINE
8
BLACK
6
CONTINUOUS
10
105.15
20
-100.5
11
107.65
21
-100.5
0
LINE
8
BLACK
6
CONTINUOUS
10
107.65
20
-100.5
11
107.65
21
-101.5
0
LINE
8
BLACK
6
CONTINUOUS
10
83.6778
20
-100.603
11
81.7778
21
-100.603
0
LINE
8
BLACK
6
CONTINUOUS
10
81.7778
20
-100.603
11
81.7778
21
-99.803
0
LINE
8
BLACK
6
CONTINUOUS
10
81.7778
20
-99.803
11
83.6778
21
-99.803
0
LINE
8
BLACK
6
CONTINUOUS
10
83.6778
20
-99.803
11
83.6778
21
-100.603
0
LINE
8
BLACK
6
CONTINUOUS
10
85.8836
20
-98.8412
11
85.9569
21
-98.8835
0
LINE
8
BLACK
6
CONTINUOUS
10
85.9569
20
-98.8835
11
86.0113
21
-98.9484
0
LINE
8
BLACK
6
CONTINUOUS
10
86.0113
20
-98.9484
11
86.044
21
-99.0703
0
LINE
8
BLACK
6
CONTINUOUS
10
86.044
20
-99.0703
11
86.044
21
-99.5577
0
LINE
8
BLACK
6
CONTINUOUS
10
86.044
20
-99.5577
11
86.0293
21
-99.6411
0
LINE
8
BLACK
6
CONTINUOUS
10
86.0293
20
-99.6411
11
85.987
21
-99.7144
0
LINE
8
BLACK
6
CONTINUOUS
10
85.987
20
-99.7144
11
85.9221
21
-99.7688
0
LINE
8
BLACK
6
CONTINUOUS
10
85.9221
20
-99.7688
11
85.8002
21
-99.8015
0
LINE
8
BLACK
6
CONTINUOUS
10
85.8002
20
-99.8015
11
84.8877
21
-99.8015
0
LINE
8
BLACK
6
CONTINUOUS
10
84.8877
20
-99.8015
11
84.8044
21
-99.7868
0
LINE
8
BLACK
6
CONTINUOUS
10
84.8044
20
-99.7868
11
84.7311
21
-99.7445
0
LINE
8
BLACK
6
CONTINUOUS
10
84.7311
20
-99.7445
11
84.6767
21
-99.6796
0
LINE
8
BLACK
6
CONTINUOUS
10
84.6767
20
-99.6796
11
84.644
21
-99.5577
0
LINE
8
BLACK
6
CONTINUOUS
10
84.644
20
-99.5577
11
84.644
21
-99.0703
0
LINE
8
BLACK
6
CONTINUOUS
10
84.644
20
-99.0703
11
84.6587
21
-98.9869
0
LINE
8
BLACK
6
CONTINUOUS
10
84.6587
20
-98.9869
11
84.701
21
-98.9136
0
LINE
8
BLACK
6
CONTINUOUS
10
84.701
20
-98.9136
11
84.7659
21
-98.8592
0
LINE
8
BLACK
6
CONTINUOUS
10
84.7659
20
-98.8592
11
84.8877
21
-98.8265
0
LINE
8
BLACK
6
CONTINUOUS
10
84.8877
20
-98.8265
11
85.8002
21
-98.8265
0
LINE
8
BLACK
6
CONTINUOUS
10
85.8002
20
-98.8265
11
85.8836
21
-98.8412
0
LINE
8
BLACK
6
CONTINUOUS
10
80.6778
20
-99.653
11
78.7778
21
-99.653
0
LINE
8
BLACK
6
CONTINUOUS
10
78.7778
20
-99.653
11
78.7778
21
-98.853
0
LINE
8
BLACK
6
CONTINUOUS
10
78.7778
20
-98.853
11
80.6778
21
-98.853
0
LINE
8
BLACK
6
CONTINUOUS
10
80.6778
20
-98.853
11
80.6778
21
-99.653
0
LINE
8
BLACK
6
CONTINUOUS
10
122.85
20
-99.5
11
120.35
21
-99.5
0
LINE
8
BLACK
6
CONTINUOUS
10
120.35
20
-99.5
11
120.35
21
-98.5
0
LINE
8
BLACK
6
CONTINUOUS
10
120.35
20
-98.5
11
122.85
21
-98.5
0
LINE
8
BLACK
6
CONTINUOUS
10
122.85
20
-98.5
11
122.85
21
-99.5
0
LINE
8
BLACK
6
CONTINUOUS
10
107.65
20
-99.5
11
105.15
21
-99.5
0
LINE
8
BLACK
6
CONTINUOUS
10
105.15
20
-99.5
11
105.15
21
-98.5
0
LINE
8
BLACK
6
CONTINUOUS
10
105.15
20
-98.5
11
107.65
21
-98.5
0
LINE
8
BLACK
6
CONTINUOUS
10
107.65
20
-98.5
11
107.65
21
-99.5
0
LINE
8
BLACK
6
CONTINUOUS
10
83.6778
20
-98.703
11
81.7778
21
-98.703
0
LINE
8
BLACK
6
CONTINUOUS
10
81.7778
20
-98.703
11
81.7778
21
-97.903
0
LINE
8
BLACK
6
CONTINUOUS
10
81.7778
20
-97.903
11
83.6778
21
-97.903
0
LINE
8
BLACK
6
CONTINUOUS
10
83.6778
20
-97.903
11
83.6778
21
-98.703
0
LINE
8
BLACK
6
CONTINUOUS
10
89.0701
20
-96.5967
11
89.1434
21
-96.639
0
LINE
8
BLACK
6
CONTINUOUS
10
89.1434
20
-96.639
11
89.1978
21
-96.7039
0
LINE
8
BLACK
6
CONTINUOUS
10
89.1978
20
-96.7039
11
89.2305
21
-96.8257
0
LINE
8
BLACK
6
CONTINUOUS
10
89.2305
20
-96.8257
11
89.2305
21
-97.7382
0
LINE
8
BLACK
6
CONTINUOUS
10
89.2305
20
-97.7382
11
89.2158
21
-97.8216
0
LINE
8
BLACK
6
CONTINUOUS
10
89.2158
20
-97.8216
11
89.1735
21
-97.8949
0
LINE
8
BLACK
6
CONTINUOUS
10
89.1735
20
-97.8949
11
89.1086
21
-97.9493
0
LINE
8
BLACK
6
CONTINUOUS
10
89.1086
20
-97.9493
11
88.9868
21
-97.982
0
LINE
8
BLACK
6
CONTINUOUS
10
88.9868
20
-97.982
11
88.4992
21
-97.982
0
LINE
8
BLACK
6
CONTINUOUS
10
88.4992
20
-97.982
11
88.4159
21
-97.9673
0
LINE
8
BLACK
6
CONTINUOUS
10
88.4159
20
-97.9673
11
88.3426
21
-97.925
0
LINE
8
BLACK
6
CONTINUOUS
10
88.3426
20
-97.925
11
88.2882
21
-97.8601
0
LINE
8
BLACK
6
CONTINUOUS
10
88.2882
20
-97.8601
11
88.2555
21
-97.7382
0
LINE
8
BLACK
6
CONTINUOUS
10
88.2555
20
-97.7382
11
88.2555
21
-96.8257
0
LINE
8
BLACK
6
CONTINUOUS
10
88.2555
20
-96.8257
11
88.2702
21
-96.7424
0
LINE
8
BLACK
6
CONTINUOUS
10
88.2702
20
-96.7424
11
88.3125
21
-96.6691
0
LINE
8
BLACK
6
CONTINUOUS
10
88.3125
20
-96.6691
11
88.3774
21
-96.6147
0
LINE
8
BLACK
6
CONTINUOUS
10
88.3774
20
-96.6147
11
88.4992
21
-96.582
0
LINE
8
BLACK
6
CONTINUOUS
10
88.4992
20
-96.582
11
88.9868
21
-96.582
0
LINE
8
BLACK
6
CONTINUOUS
10
88.9868
20
-96.582
11
89.0701
21
-96.5967
0
LINE
8
BLACK
6
CONTINUOUS
10
87.1951
20
-96.5967
11
87.2684
21
-96.639
0
LINE
8
BLACK
6
CONTINUOUS
10
87.2684
20
-96.639
11
87.3228
21
-96.7039
0
LINE
8
BLACK
6
CONTINUOUS
10
87.3228
20
-96.7039
11
87.3555
21
-96.8257
0
LINE
8
BLACK
6
CONTINUOUS
10
87.3555
20
-96.8257
11
87.3555
21
-97.7382
0
LINE
8
BLACK
6
CONTINUOUS
10
87.3555
20
-97.7382
11
87.3408
21
-97.8216
0
LINE
8
BLACK
6
CONTINUOUS
10
87.3408
20
-97.8216
11
87.2985
21
-97.8949
0
LINE
8
BLACK
6
CONTINUOUS
10
87.2985
20
-97.8949
11
87.2336
21
-97.9493
0
LINE
8
BLACK
6
CONTINUOUS
10
87.2336
20
-97.9493
11
87.1118
21
-97.982
0
LINE
8
BLACK
6
CONTINUOUS
10
87.1118
20
-97.982
11
86.6242
21
-97.982
0
LINE
8
BLACK
6
CONTINUOUS
10
86.6242
20
-97.982
11
86.5409
21
-97.9673
0
LINE
8
BLACK
6
CONTINUOUS
10
86.5409
20
-97.9673
11
86.4676
21
-97.925
0
LINE
8
BLACK
6
CONTINUOUS
10
86.4676
20
-97.925
11
86.4132
21
-97.8601
0
LINE
8
BLACK
6
CONTINUOUS
10
86.4132
20
-97.8601
11
86.3805
21
-97.7382
0
LINE
8
BLACK
6
CONTINUOUS
10
86.3805
20
-97.7382
11
86.3805
21
-96.8257
0
LINE
8
BLACK
6
CONTINUOUS
10
86.3805
20
-96.8257
11
86.3952
21
-96.7424
0
LINE
8
BLACK
6
CONTINUOUS
10
86.3952
20
-96.7424
11
86.4375
21
-96.6691
0
LINE
8
BLACK
6
CONTINUOUS
10
86.4375
20
-96.6691
11
86.5024
21
-96.6147
0
LINE
8
BLACK
6
CONTINUOUS
10
86.5024
20
-96.6147
11
86.6242
21
-96.582
0
LINE
8
BLACK
6
CONTINUOUS
10
86.6242
20
-96.582
11
87.1118
21
-96.582
0
LINE
8
BLACK
6
CONTINUOUS
10
87.1118
20
-96.582
11
87.1951
21
-96.5967
0
LINE
8
BLACK
6
CONTINUOUS
10
107.65
20
-97.5
11
105.15
21
-97.5
0
LINE
8
BLACK
6
CONTINUOUS
10
105.15
20
-97.5
11
105.15
21
-96.5
0
LINE
8
BLACK
6
CONTINUOUS
10
105.15
20
-96.5
11
107.65
21
-96.5
0
LINE
8
BLACK
6
CONTINUOUS
10
107.65
20
-96.5
11
107.65
21
-97.5
0
LINE
8
BLACK
6
CONTINUOUS
10
122.85
20
-97.5
11
120.35
21
-97.5
0
LINE
8
BLACK
6
CONTINUOUS
10
120.35
20
-97.5
11
120.35
21
-96.5
0
LINE
8
BLACK
6
CONTINUOUS
10
120.35
20
-96.5
11
122.85
21
-96.5
0
LINE
8
BLACK
6
CONTINUOUS
10
122.85
20
-96.5
11
122.85
21
-97.5
0
LINE
8
BLACK
6
CONTINUOUS
10
77.5431
20
-94.6917
11
77.6164
21
-94.734
0
LINE
8
BLACK
6
CONTINUOUS
10
77.6164
20
-94.734
11
77.6708
21
-94.7989
0
LINE
8
BLACK
6
CONTINUOUS
10
77.6708
20
-94.7989
11
77.7035
21
-94.9207
0
LINE
8
BLACK
6
CONTINUOUS
10
77.7035
20
-94.9207
11
77.7035
21
-95.8332
0
LINE
8
BLACK
6
CONTINUOUS
10
77.7035
20
-95.8332
11
77.6888
21
-95.9166
0
LINE
8
BLACK
6
CONTINUOUS
10
77.6888
20
-95.9166
11
77.6465
21
-95.9899
0
LINE
8
BLACK
6
CONTINUOUS
10
77.6465
20
-95.9899
11
77.5816
21
-96.0443
0
LINE
8
BLACK
6
CONTINUOUS
10
77.5816
20
-96.0443
11
77.4597
21
-96.077
0
LINE
8
BLACK
6
CONTINUOUS
10
77.4597
20
-96.077
11
76.9723
21
-96.077
0
LINE
8
BLACK
6
CONTINUOUS
10
76.9723
20
-96.077
11
76.8889
21
-96.0623
0
LINE
8
BLACK
6
CONTINUOUS
10
76.8889
20
-96.0623
11
76.8156
21
-96.02
0
LINE
8
BLACK
6
CONTINUOUS
10
76.8156
20
-96.02
11
76.7612
21
-95.9551
0
LINE
8
BLACK
6
CONTINUOUS
10
76.7612
20
-95.9551
11
76.7285
21
-95.8332
0
LINE
8
BLACK
6
CONTINUOUS
10
76.7285
20
-95.8332
11
76.7285
21
-94.9207
0
LINE
8
BLACK
6
CONTINUOUS
10
76.7285
20
-94.9207
11
76.7432
21
-94.8374
0
LINE
8
BLACK
6
CONTINUOUS
10
76.7432
20
-94.8374
11
76.7855
21
-94.7641
0
LINE
8
BLACK
6
CONTINUOUS
10
76.7855
20
-94.7641
11
76.8504
21
-94.7097
0
LINE
8
BLACK
6
CONTINUOUS
10
76.8504
20
-94.7097
11
76.9723
21
-94.677
0
LINE
8
BLACK
6
CONTINUOUS
10
76.9723
20
-94.677
11
77.4597
21
-94.677
0
LINE
8
BLACK
6
CONTINUOUS
10
77.4597
20
-94.677
11
77.5431
21
-94.6917
0
LINE
8
BLACK
6
CONTINUOUS
10
75.6681
20
-94.6917
11
75.7414
21
-94.734
0
LINE
8
BLACK
6
CONTINUOUS
10
75.7414
20
-94.734
11
75.7958
21
-94.7989
0
LINE
8
BLACK
6
CONTINUOUS
10
75.7958
20
-94.7989
11
75.8285
21
-94.9207
0
LINE
8
BLACK
6
CONTINUOUS
10
75.8285
20
-94.9207
11
75.8285
21
-95.8332
0
LINE
8
BLACK
6
CONTINUOUS
10
75.8285
20
-95.8332
11
75.8138
21
-95.9166
0
LINE
8
BLACK
6
CONTINUOUS
10
75.8138
20
-95.9166
11
75.7715
21
-95.9899
0
LINE
8
BLACK
6
CONTINUOUS
10
75.7715
20
-95.9899
11
75.7066
21
-96.0443
0
LINE
8
BLACK
6
CONTINUOUS
10
75.7066
20
-96.0443
11
75.5847
21
-96.077
0
LINE
8
BLACK
6
CONTINUOUS
10
75.5847
20
-96.077
11
75.0973
21
-96.077
0
LINE
8
BLACK
6
CONTINUOUS
10
75.0973
20
-96.077
11
75.0139
21
-96.0623
0
LINE
8
BLACK
6
CONTINUOUS
10
75.0139
20
-96.0623
11
74.9406
21
-96.02
0
LINE
8
BLACK
6
CONTINUOUS
10
74.9406
20
-96.02
11
74.8862
21
-95.9551
0
LINE
8
BLACK
6
CONTINUOUS
10
74.8862
20
-95.9551
11
74.8535
21
-95.8332
0
LINE
8
BLACK
6
CONTINUOUS
10
74.8535
20
-95.8332
11
74.8535
21
-94.9207
0
LINE
8
BLACK
6
CONTINUOUS
10
74.8535
20
-94.9207
11
74.8682
21
-94.8374
0
LINE
8
BLACK
6
CONTINUOUS
10
74.8682
20
-94.8374
11
74.9105
21
-94.7641
0
LINE
8
BLACK
6
CONTINUOUS
10
74.9105
20
-94.7641
11
74.9754
21
-94.7097
0
LINE
8
BLACK
6
CONTINUOUS
10
74.9754
20
-94.7097
11
75.0973
21
-94.677
0
LINE
8
BLACK
6
CONTINUOUS
10
75.0973
20
-94.677
11
75.5847
21
-94.677
0
LINE
8
BLACK
6
CONTINUOUS
10
75.5847
20
-94.677
11
75.6681
21
-94.6917
0
LINE
8
BLACK
6
CONTINUOUS
10
86.875
20
-96
11
86.625
21
-96
0
LINE
8
BLACK
6
CONTINUOUS
10
86.625
20
-96
11
86.625
21
-94.7
0
LINE
8
BLACK
6
CONTINUOUS
10
86.625
20
-94.7
11
86.875
21
-94.7
0
LINE
8
BLACK
6
CONTINUOUS
10
86.875
20
-94.7
11
86.875
21
-96
0
LINE
8
BLACK
6
CONTINUOUS
10
86.375
20
-96
11
86.125
21
-96
0
LINE
8
BLACK
6
CONTINUOUS
10
86.125
20
-96
11
86.125
21
-94.7
0
LINE
8
BLACK
6
CONTINUOUS
10
86.125
20
-94.7
11
86.375
21
-94.7
0
LINE
8
BLACK
6
CONTINUOUS
10
86.375
20
-94.7
11
86.375
21
-96
0
LINE
8
BLACK
6
CONTINUOUS
10
85.875
20
-96
11
85.625
21
-96
0
LINE
8
BLACK
6
CONTINUOUS
10
85.625
20
-96
11
85.625
21
-94.7
0
LINE
8
BLACK
6
CONTINUOUS
10
85.625
20
-94.7
11
85.875
21
-94.7
0
LINE
8
BLACK
6
CONTINUOUS
10
85.875
20
-94.7
11
85.875
21
-96
0
LINE
8
BLACK
6
CONTINUOUS
10
85.375
20
-96
11
85.125
21
-96
0
LINE
8
BLACK
6
CONTINUOUS
10
85.125
20
-96
11
85.125
21
-94.7
0
LINE
8
BLACK
6
CONTINUOUS
10
85.125
20
-94.7
11
85.375
21
-94.7
0
LINE
8
BLACK
6
CONTINUOUS
10
85.375
20
-94.7
11
85.375
21
-96
0
LINE
8
BLACK
6
CONTINUOUS
10
84.875
20
-96
11
84.625
21
-96
0
LINE
8
BLACK
6
CONTINUOUS
10
84.625
20
-96
11
84.625
21
-94.7
0
LINE
8
BLACK
6
CONTINUOUS
10
84.625
20
-94.7
11
84.875
21
-94.7
0
LINE
8
BLACK
6
CONTINUOUS
10
84.875
20
-94.7
11
84.875
21
-96
0
LINE
8
BLACK
6
CONTINUOUS
10
84.375
20
-96
11
84.125
21
-96
0
LINE
8
BLACK
6
CONTINUOUS
10
84.125
20
-96
11
84.125
21
-94.7
0
LINE
8
BLACK
6
CONTINUOUS
10
84.125
20
-94.7
11
84.375
21
-94.7
0
LINE
8
BLACK
6
CONTINUOUS
10
84.375
20
-94.7
11
84.375
21
-96
0
LINE
8
BLACK
6
CONTINUOUS
10
83.875
20
-96
11
83.625
21
-96
0
LINE
8
BLACK
6
CONTINUOUS
10
83.625
20
-96
11
83.625
21
-94.7
0
LINE
8
BLACK
6
CONTINUOUS
10
83.625
20
-94.7
11
83.875
21
-94.7
0
LINE
8
BLACK
6
CONTINUOUS
10
83.875
20
-94.7
11
83.875
21
-96
0
LINE
8
BLACK
6
CONTINUOUS
10
83.375
20
-96
11
83.125
21
-96
0
LINE
8
BLACK
6
CONTINUOUS
10
83.125
20
-96
11
83.125
21
-94.7
0
LINE
8
BLACK
6
CONTINUOUS
10
83.125
20
-94.7
11
83.375
21
-94.7
0
LINE
8
BLACK
6
CONTINUOUS
10
83.375
20
-94.7
11
83.375
21
-96
0
LINE
8
BLACK
6
CONTINUOUS
10
82.875
20
-96
11
82.625
21
-96
0
LINE
8
BLACK
6
CONTINUOUS
10
82.625
20
-96
11
82.625
21
-94.7
0
LINE
8
BLACK
6
CONTINUOUS
10
82.625
20
-94.7
11
82.875
21
-94.7
0
LINE
8
BLACK
6
CONTINUOUS
10
82.875
20
-94.7
11
82.875
21
-96
0
LINE
8
BLACK
6
CONTINUOUS
10
81.875
20
-96
11
81.625
21
-96
0
LINE
8
BLACK
6
CONTINUOUS
10
81.625
20
-96
11
81.625
21
-94.7
0
LINE
8
BLACK
6
CONTINUOUS
10
81.625
20
-94.7
11
81.875
21
-94.7
0
LINE
8
BLACK
6
CONTINUOUS
10
81.875
20
-94.7
11
81.875
21
-96
0
LINE
8
BLACK
6
CONTINUOUS
10
81.375
20
-96
11
81.125
21
-96
0
LINE
8
BLACK
6
CONTINUOUS
10
81.125
20
-96
11
81.125
21
-94.7
0
LINE
8
BLACK
6
CONTINUOUS
10
81.125
20
-94.7
11
81.375
21
-94.7
0
LINE
8
BLACK
6
CONTINUOUS
10
81.375
20
-94.7
11
81.375
21
-96
0
LINE
8
BLACK
6
CONTINUOUS
10
82.375
20
-96
11
82.125
21
-96
0
LINE
8
BLACK
6
CONTINUOUS
10
82.125
20
-96
11
82.125
21
-94.7
0
LINE
8
BLACK
6
CONTINUOUS
10
82.125
20
-94.7
11
82.375
21
-94.7
0
LINE
8
BLACK
6
CONTINUOUS
10
82.375
20
-94.7
11
82.375
21
-96
0
LINE
8
BLACK
6
CONTINUOUS
10
122.85
20
-95.5
11
120.35
21
-95.5
0
LINE
8
BLACK
6
CONTINUOUS
10
120.35
20
-95.5
11
120.35
21
-94.5
0
LINE
8
BLACK
6
CONTINUOUS
10
120.35
20
-94.5
11
122.85
21
-94.5
0
LINE
8
BLACK
6
CONTINUOUS
10
122.85
20
-94.5
11
122.85
21
-95.5
0
LINE
8
BLACK
6
CONTINUOUS
10
107.65
20
-95.5
11
105.15
21
-95.5
0
LINE
8
BLACK
6
CONTINUOUS
10
105.15
20
-95.5
11
105.15
21
-94.5
0
LINE
8
BLACK
6
CONTINUOUS
10
105.15
20
-94.5
11
107.65
21
-94.5
0
LINE
8
BLACK
6
CONTINUOUS
10
107.65
20
-94.5
11
107.65
21
-95.5
0
LINE
8
BLACK
6
CONTINUOUS
10
75.6681
20
-92.5835
11
75.7414
21
-92.6258
0
LINE
8
BLACK
6
CONTINUOUS
10
75.7414
20
-92.6258
11
75.7958
21
-92.6907
0
LINE
8
BLACK
6
CONTINUOUS
10
75.7958
20
-92.6907
11
75.8285
21
-92.8126
0
LINE
8
BLACK
6
CONTINUOUS
10
75.8285
20
-92.8126
11
75.8285
21
-93.725
0
LINE
8
BLACK
6
CONTINUOUS
10
75.8285
20
-93.725
11
75.8138
21
-93.8084
0
LINE
8
BLACK
6
CONTINUOUS
10
75.8138
20
-93.8084
11
75.7715
21
-93.8817
0
LINE
8
BLACK
6
CONTINUOUS
10
75.7715
20
-93.8817
11
75.7066
21
-93.9361
0
LINE
8
BLACK
6
CONTINUOUS
10
75.7066
20
-93.9361
11
75.5847
21
-93.9688
0
LINE
8
BLACK
6
CONTINUOUS
10
75.5847
20
-93.9688
11
75.0973
21
-93.9688
0
LINE
8
BLACK
6
CONTINUOUS
10
75.0973
20
-93.9688
11
75.0139
21
-93.9541
0
LINE
8
BLACK
6
CONTINUOUS
10
75.0139
20
-93.9541
11
74.9406
21
-93.9118
0
LINE
8
BLACK
6
CONTINUOUS
10
74.9406
20
-93.9118
11
74.8862
21
-93.8469
0
LINE
8
BLACK
6
CONTINUOUS
10
74.8862
20
-93.8469
11
74.8535
21
-93.725
0
LINE
8
BLACK
6
CONTINUOUS
10
74.8535
20
-93.725
11
74.8535
21
-92.8126
0
LINE
8
BLACK
6
CONTINUOUS
10
74.8535
20
-92.8126
11
74.8682
21
-92.7292
0
LINE
8
BLACK
6
CONTINUOUS
10
74.8682
20
-92.7292
11
74.9105
21
-92.6559
0
LINE
8
BLACK
6
CONTINUOUS
10
74.9105
20
-92.6559
11
74.9754
21
-92.6015
0
LINE
8
BLACK
6
CONTINUOUS
10
74.9754
20
-92.6015
11
75.0973
21
-92.5688
0
LINE
8
BLACK
6
CONTINUOUS
10
75.0973
20
-92.5688
11
75.5847
21
-92.5688
0
LINE
8
BLACK
6
CONTINUOUS
10
75.5847
20
-92.5688
11
75.6681
21
-92.5835
0
LINE
8
BLACK
6
CONTINUOUS
10
77.5431
20
-92.5835
11
77.6164
21
-92.6258
0
LINE
8
BLACK
6
CONTINUOUS
10
77.6164
20
-92.6258
11
77.6708
21
-92.6907
0
LINE
8
BLACK
6
CONTINUOUS
10
77.6708
20
-92.6907
11
77.7035
21
-92.8126
0
LINE
8
BLACK
6
CONTINUOUS
10
77.7035
20
-92.8126
11
77.7035
21
-93.725
0
LINE
8
BLACK
6
CONTINUOUS
10
77.7035
20
-93.725
11
77.6888
21
-93.8084
0
LINE
8
BLACK
6
CONTINUOUS
10
77.6888
20
-93.8084
11
77.6465
21
-93.8817
0
LINE
8
BLACK
6
CONTINUOUS
10
77.6465
20
-93.8817
11
77.5816
21
-93.9361
0
LINE
8
BLACK
6
CONTINUOUS
10
77.5816
20
-93.9361
11
77.4597
21
-93.9688
0
LINE
8
BLACK
6
CONTINUOUS
10
77.4597
20
-93.9688
11
76.9723
21
-93.9688
0
LINE
8
BLACK
6
CONTINUOUS
10
76.9723
20
-93.9688
11
76.8889
21
-93.9541
0
LINE
8
BLACK
6
CONTINUOUS
10
76.8889
20
-93.9541
11
76.8156
21
-93.9118
0
LINE
8
BLACK
6
CONTINUOUS
10
76.8156
20
-93.9118
11
76.7612
21
-93.8469
0
LINE
8
BLACK
6
CONTINUOUS
10
76.7612
20
-93.8469
11
76.7285
21
-93.725
0
LINE
8
BLACK
6
CONTINUOUS
10
76.7285
20
-93.725
11
76.7285
21
-92.8126
0
LINE
8
BLACK
6
CONTINUOUS
10
76.7285
20
-92.8126
11
76.7432
21
-92.7292
0
LINE
8
BLACK
6
CONTINUOUS
10
76.7432
20
-92.7292
11
76.7855
21
-92.6559
0
LINE
8
BLACK
6
CONTINUOUS
10
76.7855
20
-92.6559
11
76.8504
21
-92.6015
0
LINE
8
BLACK
6
CONTINUOUS
10
76.8504
20
-92.6015
11
76.9723
21
-92.5688
0
LINE
8
BLACK
6
CONTINUOUS
10
76.9723
20
-92.5688
11
77.4597
21
-92.5688
0
LINE
8
BLACK
6
CONTINUOUS
10
77.4597
20
-92.5688
11
77.5431
21
-92.5835
0
LINE
8
BLACK
6
CONTINUOUS
10
80.3
20
-93.875
11
79
21
-93.875
0
LINE
8
BLACK
6
CONTINUOUS
10
79
20
-93.875
11
79
21
-93.625
0
LINE
8
BLACK
6
CONTINUOUS
10
79
20
-93.625
11
80.3
21
-93.625
0
LINE
8
BLACK
6
CONTINUOUS
10
80.3
20
-93.625
11
80.3
21
-93.875
0
LINE
8
BLACK
6
CONTINUOUS
10
89
20
-93.875
11
87.7
21
-93.875
0
LINE
8
BLACK
6
CONTINUOUS
10
87.7
20
-93.875
11
87.7
21
-93.625
0
LINE
8
BLACK
6
CONTINUOUS
10
87.7
20
-93.625
11
89
21
-93.625
0
LINE
8
BLACK
6
CONTINUOUS
10
89
20
-93.625
11
89
21
-93.875
0
LINE
8
BLACK
6
CONTINUOUS
10
122.85
20
-93.5
11
120.35
21
-93.5
0
LINE
8
BLACK
6
CONTINUOUS
10
120.35
20
-93.5
11
120.35
21
-92.5
0
LINE
8
BLACK
6
CONTINUOUS
10
120.35
20
-92.5
11
122.85
21
-92.5
0
LINE
8
BLACK
6
CONTINUOUS
10
122.85
20
-92.5
11
122.85
21
-93.5
0
LINE
8
BLACK
6
CONTINUOUS
10
107.65
20
-93.5
11
105.15
21
-93.5
0
LINE
8
BLACK
6
CONTINUOUS
10
105.15
20
-93.5
11
105.15
21
-92.5
0
LINE
8
BLACK
6
CONTINUOUS
10
105.15
20
-92.5
11
107.65
21
-92.5
0
LINE
8
BLACK
6
CONTINUOUS
10
107.65
20
-92.5
11
107.65
21
-93.5
0
LINE
8
BLACK
6
CONTINUOUS
10
89
20
-93.375
11
87.7
21
-93.375
0
LINE
8
BLACK
6
CONTINUOUS
10
87.7
20
-93.375
11
87.7
21
-93.125
0
LINE
8
BLACK
6
CONTINUOUS
10
87.7
20
-93.125
11
89
21
-93.125
0
LINE
8
BLACK
6
CONTINUOUS
10
89
20
-93.125
11
89
21
-93.375
0
LINE
8
BLACK
6
CONTINUOUS
10
80.3
20
-93.375
11
79
21
-93.375
0
LINE
8
BLACK
6
CONTINUOUS
10
79
20
-93.375
11
79
21
-93.125
0
LINE
8
BLACK
6
CONTINUOUS
10
79
20
-93.125
11
80.3
21
-93.125
0
LINE
8
BLACK
6
CONTINUOUS
10
80.3
20
-93.125
11
80.3
21
-93.375
0
LINE
8
BLACK
6
CONTINUOUS
10
80.3
20
-92.875
11
79
21
-92.875
0
LINE
8
BLACK
6
CONTINUOUS
10
79
20
-92.875
11
79
21
-92.625
0
LINE
8
BLACK
6
CONTINUOUS
10
79
20
-92.625
11
80.3
21
-92.625
0
LINE
8
BLACK
6
CONTINUOUS
10
80.3
20
-92.625
11
80.3
21
-92.875
0
LINE
8
BLACK
6
CONTINUOUS
10
89
20
-92.875
11
87.7
21
-92.875
0
LINE
8
BLACK
6
CONTINUOUS
10
87.7
20
-92.875
11
87.7
21
-92.625
0
LINE
8
BLACK
6
CONTINUOUS
10
87.7
20
-92.625
11
89
21
-92.625
0
LINE
8
BLACK
6
CONTINUOUS
10
89
20
-92.625
11
89
21
-92.875
0
LINE
8
BLACK
6
CONTINUOUS
10
80.3
20
-92.375
11
79
21
-92.375
0
LINE
8
BLACK
6
CONTINUOUS
10
79
20
-92.375
11
79
21
-92.125
0
LINE
8
BLACK
6
CONTINUOUS
10
79
20
-92.125
11
80.3
21
-92.125
0
LINE
8
BLACK
6
CONTINUOUS
10
80.3
20
-92.125
11
80.3
21
-92.375
0
LINE
8
BLACK
6
CONTINUOUS
10
89
20
-92.375
11
87.7
21
-92.375
0
LINE
8
BLACK
6
CONTINUOUS
10
87.7
20
-92.375
11
87.7
21
-92.125
0
LINE
8
BLACK
6
CONTINUOUS
10
87.7
20
-92.125
11
89
21
-92.125
0
LINE
8
BLACK
6
CONTINUOUS
10
89
20
-92.125
11
89
21
-92.375
0
LINE
8
BLACK
6
CONTINUOUS
10
75.6681
20
-90.5007
11
75.7414
21
-90.543
0
LINE
8
BLACK
6
CONTINUOUS
10
75.7414
20
-90.543
11
75.7958
21
-90.6079
0
LINE
8
BLACK
6
CONTINUOUS
10
75.7958
20
-90.6079
11
75.8285
21
-90.7297
0
LINE
8
BLACK
6
CONTINUOUS
10
75.8285
20
-90.7297
11
75.8285
21
-91.6422
0
LINE
8
BLACK
6
CONTINUOUS
10
75.8285
20
-91.6422
11
75.8138
21
-91.7256
0
LINE
8
BLACK
6
CONTINUOUS
10
75.8138
20
-91.7256
11
75.7715
21
-91.7989
0
LINE
8
BLACK
6
CONTINUOUS
10
75.7715
20
-91.7989
11
75.7066
21
-91.8533
0
LINE
8
BLACK
6
CONTINUOUS
10
75.7066
20
-91.8533
11
75.5847
21
-91.886
0
LINE
8
BLACK
6
CONTINUOUS
10
75.5847
20
-91.886
11
75.0973
21
-91.886
0
LINE
8
BLACK
6
CONTINUOUS
10
75.0973
20
-91.886
11
75.0139
21
-91.8713
0
LINE
8
BLACK
6
CONTINUOUS
10
75.0139
20
-91.8713
11
74.9406
21
-91.829
0
LINE
8
BLACK
6
CONTINUOUS
10
74.9406
20
-91.829
11
74.8862
21
-91.7641
0
LINE
8
BLACK
6
CONTINUOUS
10
74.8862
20
-91.7641
11
74.8535
21
-91.6422
0
LINE
8
BLACK
6
CONTINUOUS
10
74.8535
20
-91.6422
11
74.8535
21
-90.7297
0
LINE
8
BLACK
6
CONTINUOUS
10
74.8535
20
-90.7297
11
74.8682
21
-90.6464
0
LINE
8
BLACK
6
CONTINUOUS
10
74.8682
20
-90.6464
11
74.9105
21
-90.5731
0
LINE
8
BLACK
6
CONTINUOUS
10
74.9105
20
-90.5731
11
74.9754
21
-90.5187
0
LINE
8
BLACK
6
CONTINUOUS
10
74.9754
20
-90.5187
11
75.0973
21
-90.486
0
LINE
8
BLACK
6
CONTINUOUS
10
75.0973
20
-90.486
11
75.5847
21
-90.486
0
LINE
8
BLACK
6
CONTINUOUS
10
75.5847
20
-90.486
11
75.6681
21
-90.5007
0
LINE
8
BLACK
6
CONTINUOUS
10
77.5431
20
-90.5007
11
77.6164
21
-90.543
0
LINE
8
BLACK
6
CONTINUOUS
10
77.6164
20
-90.543
11
77.6708
21
-90.6079
0
LINE
8
BLACK
6
CONTINUOUS
10
77.6708
20
-90.6079
11
77.7035
21
-90.7297
0
LINE
8
BLACK
6
CONTINUOUS
10
77.7035
20
-90.7297
11
77.7035
21
-91.6422
0
LINE
8
BLACK
6
CONTINUOUS
10
77.7035
20
-91.6422
11
77.6888
21
-91.7256
0
LINE
8
BLACK
6
CONTINUOUS
10
77.6888
20
-91.7256
11
77.6465
21
-91.7989
0
LINE
8
BLACK
6
CONTINUOUS
10
77.6465
20
-91.7989
11
77.5816
21
-91.8533
0
LINE
8
BLACK
6
CONTINUOUS
10
77.5816
20
-91.8533
11
77.4597
21
-91.886
0
LINE
8
BLACK
6
CONTINUOUS
10
77.4597
20
-91.886
11
76.9723
21
-91.886
0
LINE
8
BLACK
6
CONTINUOUS
10
76.9723
20
-91.886
11
76.8889
21
-91.8713
0
LINE
8
BLACK
6
CONTINUOUS
10
76.8889
20
-91.8713
11
76.8156
21
-91.829
0
LINE
8
BLACK
6
CONTINUOUS
10
76.8156
20
-91.829
11
76.7612
21
-91.7641
0
LINE
8
BLACK
6
CONTINUOUS
10
76.7612
20
-91.7641
11
76.7285
21
-91.6422
0
LINE
8
BLACK
6
CONTINUOUS
10
76.7285
20
-91.6422
11
76.7285
21
-90.7297
0
LINE
8
BLACK
6
CONTINUOUS
10
76.7285
20
-90.7297
11
76.7432
21
-90.6464
0
LINE
8
BLACK
6
CONTINUOUS
10
76.7432
20
-90.6464
11
76.7855
21
-90.5731
0
LINE
8
BLACK
6
CONTINUOUS
10
76.7855
20
-90.5731
11
76.8504
21
-90.5187
0
LINE
8
BLACK
6
CONTINUOUS
10
76.8504
20
-90.5187
11
76.9723
21
-90.486
0
LINE
8
BLACK
6
CONTINUOUS
10
76.9723
20
-90.486
11
77.4597
21
-90.486
0
LINE
8
BLACK
6
CONTINUOUS
10
77.4597
20
-90.486
11
77.5431
21
-90.5007
0
LINE
8
BLACK
6
CONTINUOUS
10
89
20
-91.875
11
87.7
21
-91.875
0
LINE
8
BLACK
6
CONTINUOUS
10
87.7
20
-91.875
11
87.7
21
-91.625
0
LINE
8
BLACK
6
CONTINUOUS
10
87.7
20
-91.625
11
89
21
-91.625
0
LINE
8
BLACK
6
CONTINUOUS
10
89
20
-91.625
11
89
21
-91.875
0
LINE
8
BLACK
6
CONTINUOUS
10
80.3
20
-91.875
11
79
21
-91.875
0
LINE
8
BLACK
6
CONTINUOUS
10
79
20
-91.875
11
79
21
-91.625
0
LINE
8
BLACK
6
CONTINUOUS
10
79
20
-91.625
11
80.3
21
-91.625
0
LINE
8
BLACK
6
CONTINUOUS
10
80.3
20
-91.625
11
80.3
21
-91.875
0
LINE
8
BLACK
6
CONTINUOUS
10
107.65
20
-91.5
11
105.15
21
-91.5
0
LINE
8
BLACK
6
CONTINUOUS
10
105.15
20
-91.5
11
105.15
21
-90.5
0
LINE
8
BLACK
6
CONTINUOUS
10
105.15
20
-90.5
11
107.65
21
-90.5
0
LINE
8
BLACK
6
CONTINUOUS
10
107.65
20
-90.5
11
107.65
21
-91.5
0
LINE
8
BLACK
6
CONTINUOUS
10
122.85
20
-91.5
11
120.35
21
-91.5
0
LINE
8
BLACK
6
CONTINUOUS
10
120.35
20
-91.5
11
120.35
21
-90.5
0
LINE
8
BLACK
6
CONTINUOUS
10
120.35
20
-90.5
11
122.85
21
-90.5
0
LINE
8
BLACK
6
CONTINUOUS
10
122.85
20
-90.5
11
122.85
21
-91.5
0
LINE
8
BLACK
6
CONTINUOUS
10
89
20
-91.375
11
87.7
21
-91.375
0
LINE
8
BLACK
6
CONTINUOUS
10
87.7
20
-91.375
11
87.7
21
-91.125
0
LINE
8
BLACK
6
CONTINUOUS
10
87.7
20
-91.125
11
89
21
-91.125
0
LINE
8
BLACK
6
CONTINUOUS
10
89
20
-91.125
11
89
21
-91.375
0
LINE
8
BLACK
6
CONTINUOUS
10
80.3
20
-91.375
11
79
21
-91.375
0
LINE
8
BLACK
6
CONTINUOUS
10
79
20
-91.375
11
79
21
-91.125
0
LINE
8
BLACK
6
CONTINUOUS
10
79
20
-91.125
11
80.3
21
-91.125
0
LINE
8
BLACK
6
CONTINUOUS
10
80.3
20
-91.125
11
80.3
21
-91.375
0
LINE
8
BLACK
6
CONTINUOUS
10
80.3
20
-90.875
11
79
21
-90.875
0
LINE
8
BLACK
6
CONTINUOUS
10
79
20
-90.875
11
79
21
-90.625
0
LINE
8
BLACK
6
CONTINUOUS
10
79
20
-90.625
11
80.3
21
-90.625
0
LINE
8
BLACK
6
CONTINUOUS
10
80.3
20
-90.625
11
80.3
21
-90.875
0
LINE
8
BLACK
6
CONTINUOUS
10
89
20
-90.875
11
87.7
21
-90.875
0
LINE
8
BLACK
6
CONTINUOUS
10
87.7
20
-90.875
11
87.7
21
-90.625
0
LINE
8
BLACK
6
CONTINUOUS
10
87.7
20
-90.625
11
89
21
-90.625
0
LINE
8
BLACK
6
CONTINUOUS
10
89
20
-90.625
11
89
21
-90.875
0
LINE
8
BLACK
6
CONTINUOUS
10
80.3
20
-90.375
11
79
21
-90.375
0
LINE
8
BLACK
6
CONTINUOUS
10
79
20
-90.375
11
79
21
-90.125
0
LINE
8
BLACK
6
CONTINUOUS
10
79
20
-90.125
11
80.3
21
-90.125
0
LINE
8
BLACK
6
CONTINUOUS
10
80.3
20
-90.125
11
80.3
21
-90.375
0
LINE
8
BLACK
6
CONTINUOUS
10
89
20
-90.375
11
87.7
21
-90.375
0
LINE
8
BLACK
6
CONTINUOUS
10
87.7
20
-90.375
11
87.7
21
-90.125
0
LINE
8
BLACK
6
CONTINUOUS
10
87.7
20
-90.125
11
89
21
-90.125
0
LINE
8
BLACK
6
CONTINUOUS
10
89
20
-90.125
11
89
21
-90.375
0
LINE
8
BLACK
6
CONTINUOUS
10
75.6381
20
-88.4941
11
75.7114
21
-88.5364
0
LINE
8
BLACK
6
CONTINUOUS
10
75.7114
20
-88.5364
11
75.7658
21
-88.6013
0
LINE
8
BLACK
6
CONTINUOUS
10
75.7658
20
-88.6013
11
75.7985
21
-88.7231
0
LINE
8
BLACK
6
CONTINUOUS
10
75.7985
20
-88.7231
11
75.7985
21
-89.6356
0
LINE
8
BLACK
6
CONTINUOUS
10
75.7985
20
-89.6356
11
75.7838
21
-89.719
0
LINE
8
BLACK
6
CONTINUOUS
10
75.7838
20
-89.719
11
75.7415
21
-89.7923
0
LINE
8
BLACK
6
CONTINUOUS
10
75.7415
20
-89.7923
11
75.6766
21
-89.8467
0
LINE
8
BLACK
6
CONTINUOUS
10
75.6766
20
-89.8467
11
75.5547
21
-89.8794
0
LINE
8
BLACK
6
CONTINUOUS
10
75.5547
20
-89.8794
11
75.0673
21
-89.8794
0
LINE
8
BLACK
6
CONTINUOUS
10
75.0673
20
-89.8794
11
74.9839
21
-89.8647
0
LINE
8
BLACK
6
CONTINUOUS
10
74.9839
20
-89.8647
11
74.9106
21
-89.8224
0
LINE
8
BLACK
6
CONTINUOUS
10
74.9106
20
-89.8224
11
74.8562
21
-89.7575
0
LINE
8
BLACK
6
CONTINUOUS
10
74.8562
20
-89.7575
11
74.8235
21
-89.6356
0
LINE
8
BLACK
6
CONTINUOUS
10
74.8235
20
-89.6356
11
74.8235
21
-88.7231
0
LINE
8
BLACK
6
CONTINUOUS
10
74.8235
20
-88.7231
11
74.8382
21
-88.6398
0
LINE
8
BLACK
6
CONTINUOUS
10
74.8382
20
-88.6398
11
74.8805
21
-88.5665
0
LINE
8
BLACK
6
CONTINUOUS
10
74.8805
20
-88.5665
11
74.9454
21
-88.5121
0
LINE
8
BLACK
6
CONTINUOUS
10
74.9454
20
-88.5121
11
75.0673
21
-88.4794
0
LINE
8
BLACK
6
CONTINUOUS
10
75.0673
20
-88.4794
11
75.5547
21
-88.4794
0
LINE
8
BLACK
6
CONTINUOUS
10
75.5547
20
-88.4794
11
75.6381
21
-88.4941
0
LINE
8
BLACK
6
CONTINUOUS
10
77.5131
20
-88.4941
11
77.5864
21
-88.5364
0
LINE
8
BLACK
6
CONTINUOUS
10
77.5864
20
-88.5364
11
77.6408
21
-88.6013
0
LINE
8
BLACK
6
CONTINUOUS
10
77.6408
20
-88.6013
11
77.6735
21
-88.7231
0
LINE
8
BLACK
6
CONTINUOUS
10
77.6735
20
-88.7231
11
77.6735
21
-89.6356
0
LINE
8
BLACK
6
CONTINUOUS
10
77.6735
20
-89.6356
11
77.6588
21
-89.719
0
LINE
8
BLACK
6
CONTINUOUS
10
77.6588
20
-89.719
11
77.6165
21
-89.7923
0
LINE
8
BLACK
6
CONTINUOUS
10
77.6165
20
-89.7923
11
77.5516
21
-89.8467
0
LINE
8
BLACK
6
CONTINUOUS
10
77.5516
20
-89.8467
11
77.4297
21
-89.8794
0
LINE
8
BLACK
6
CONTINUOUS
10
77.4297
20
-89.8794
11
76.9423
21
-89.8794
0
LINE
8
BLACK
6
CONTINUOUS
10
76.9423
20
-89.8794
11
76.8589
21
-89.8647
0
LINE
8
BLACK
6
CONTINUOUS
10
76.8589
20
-89.8647
11
76.7856
21
-89.8224
0
LINE
8
BLACK
6
CONTINUOUS
10
76.7856
20
-89.8224
11
76.7312
21
-89.7575
0
LINE
8
BLACK
6
CONTINUOUS
10
76.7312
20
-89.7575
11
76.6985
21
-89.6356
0
LINE
8
BLACK
6
CONTINUOUS
10
76.6985
20
-89.6356
11
76.6985
21
-88.7231
0
LINE
8
BLACK
6
CONTINUOUS
10
76.6985
20
-88.7231
11
76.7132
21
-88.6398
0
LINE
8
BLACK
6
CONTINUOUS
10
76.7132
20
-88.6398
11
76.7555
21
-88.5665
0
LINE
8
BLACK
6
CONTINUOUS
10
76.7555
20
-88.5665
11
76.8204
21
-88.5121
0
LINE
8
BLACK
6
CONTINUOUS
10
76.8204
20
-88.5121
11
76.9423
21
-88.4794
0
LINE
8
BLACK
6
CONTINUOUS
10
76.9423
20
-88.4794
11
77.4297
21
-88.4794
0
LINE
8
BLACK
6
CONTINUOUS
10
77.4297
20
-88.4794
11
77.5131
21
-88.4941
0
LINE
8
BLACK
6
CONTINUOUS
10
80.3
20
-89.875
11
79
21
-89.875
0
LINE
8
BLACK
6
CONTINUOUS
10
79
20
-89.875
11
79
21
-89.625
0
LINE
8
BLACK
6
CONTINUOUS
10
79
20
-89.625
11
80.3
21
-89.625
0
LINE
8
BLACK
6
CONTINUOUS
10
80.3
20
-89.625
11
80.3
21
-89.875
0
LINE
8
BLACK
6
CONTINUOUS
10
89
20
-89.875
11
87.7
21
-89.875
0
LINE
8
BLACK
6
CONTINUOUS
10
87.7
20
-89.875
11
87.7
21
-89.625
0
LINE
8
BLACK
6
CONTINUOUS
10
87.7
20
-89.625
11
89
21
-89.625
0
LINE
8
BLACK
6
CONTINUOUS
10
89
20
-89.625
11
89
21
-89.875
0
LINE
8
BLACK
6
CONTINUOUS
10
122.85
20
-89.5
11
120.35
21
-89.5
0
LINE
8
BLACK
6
CONTINUOUS
10
120.35
20
-89.5
11
120.35
21
-88.5
0
LINE
8
BLACK
6
CONTINUOUS
10
120.35
20
-88.5
11
122.85
21
-88.5
0
LINE
8
BLACK
6
CONTINUOUS
10
122.85
20
-88.5
11
122.85
21
-89.5
0
LINE
8
BLACK
6
CONTINUOUS
10
107.65
20
-89.5
11
105.15
21
-89.5
0
LINE
8
BLACK
6
CONTINUOUS
10
105.15
20
-89.5
11
105.15
21
-88.5
0
LINE
8
BLACK
6
CONTINUOUS
10
105.15
20
-88.5
11
107.65
21
-88.5
0
LINE
8
BLACK
6
CONTINUOUS
10
107.65
20
-88.5
11
107.65
21
-89.5
0
LINE
8
BLACK
6
CONTINUOUS
10
80.3
20
-89.375
11
79
21
-89.375
0
LINE
8
BLACK
6
CONTINUOUS
10
79
20
-89.375
11
79
21
-89.125
0
LINE
8
BLACK
6
CONTINUOUS
10
79
20
-89.125
11
80.3
21
-89.125
0
LINE
8
BLACK
6
CONTINUOUS
10
80.3
20
-89.125
11
80.3
21
-89.375
0
LINE
8
BLACK
6
CONTINUOUS
10
89
20
-89.375
11
87.7
21
-89.375
0
LINE
8
BLACK
6
CONTINUOUS
10
87.7
20
-89.375
11
87.7
21
-89.125
0
LINE
8
BLACK
6
CONTINUOUS
10
87.7
20
-89.125
11
89
21
-89.125
0
LINE
8
BLACK
6
CONTINUOUS
10
89
20
-89.125
11
89
21
-89.375
0
LINE
8
BLACK
6
CONTINUOUS
10
80.3
20
-88.875
11
79
21
-88.875
0
LINE
8
BLACK
6
CONTINUOUS
10
79
20
-88.875
11
79
21
-88.625
0
LINE
8
BLACK
6
CONTINUOUS
10
79
20
-88.625
11
80.3
21
-88.625
0
LINE
8
BLACK
6
CONTINUOUS
10
80.3
20
-88.625
11
80.3
21
-88.875
0
LINE
8
BLACK
6
CONTINUOUS
10
89
20
-88.875
11
87.7
21
-88.875
0
LINE
8
BLACK
6
CONTINUOUS
10
87.7
20
-88.875
11
87.7
21
-88.625
0
LINE
8
BLACK
6
CONTINUOUS
10
87.7
20
-88.625
11
89
21
-88.625
0
LINE
8
BLACK
6
CONTINUOUS
10
89
20
-88.625
11
89
21
-88.875
0
LINE
8
BLACK
6
CONTINUOUS
10
89
20
-88.375
11
87.7
21
-88.375
0
LINE
8
BLACK
6
CONTINUOUS
10
87.7
20
-88.375
11
87.7
21
-88.125
0
LINE
8
BLACK
6
CONTINUOUS
10
87.7
20
-88.125
11
89
21
-88.125
0
LINE
8
BLACK
6
CONTINUOUS
10
89
20
-88.125
11
89
21
-88.375
0
LINE
8
BLACK
6
CONTINUOUS
10
80.3
20
-88.375
11
79
21
-88.375
0
LINE
8
BLACK
6
CONTINUOUS
10
79
20
-88.375
11
79
21
-88.125
0
LINE
8
BLACK
6
CONTINUOUS
10
79
20
-88.125
11
80.3
21
-88.125
0
LINE
8
BLACK
6
CONTINUOUS
10
80.3
20
-88.125
11
80.3
21
-88.375
0
LINE
8
BLACK
6
CONTINUOUS
10
77.4877
20
-86.4367
11
77.561
21
-86.479
0
LINE
8
BLACK
6
CONTINUOUS
10
77.561
20
-86.479
11
77.6154
21
-86.5439
0
LINE
8
BLACK
6
CONTINUOUS
10
77.6154
20
-86.5439
11
77.6481
21
-86.6658
0
LINE
8
BLACK
6
CONTINUOUS
10
77.6481
20
-86.6658
11
77.6481
21
-87.5782
0
LINE
8
BLACK
6
CONTINUOUS
10
77.6481
20
-87.5782
11
77.6334
21
-87.6616
0
LINE
8
BLACK
6
CONTINUOUS
10
77.6334
20
-87.6616
11
77.5911
21
-87.7349
0
LINE
8
BLACK
6
CONTINUOUS
10
77.5911
20
-87.7349
11
77.5262
21
-87.7893
0
LINE
8
BLACK
6
CONTINUOUS
10
77.5262
20
-87.7893
11
77.4043
21
-87.822
0
LINE
8
BLACK
6
CONTINUOUS
10
77.4043
20
-87.822
11
76.9168
21
-87.822
0
LINE
8
BLACK
6
CONTINUOUS
10
76.9168
20
-87.822
11
76.8335
21
-87.8073
0
LINE
8
BLACK
6
CONTINUOUS
10
76.8335
20
-87.8073
11
76.7602
21
-87.765
0
LINE
8
BLACK
6
CONTINUOUS
10
76.7602
20
-87.765
11
76.7058
21
-87.7001
0
LINE
8
BLACK
6
CONTINUOUS
10
76.7058
20
-87.7001
11
76.6731
21
-87.5782
0
LINE
8
BLACK
6
CONTINUOUS
10
76.6731
20
-87.5782
11
76.6731
21
-86.6658
0
LINE
8
BLACK
6
CONTINUOUS
10
76.6731
20
-86.6658
11
76.6878
21
-86.5824
0
LINE
8
BLACK
6
CONTINUOUS
10
76.6878
20
-86.5824
11
76.7301
21
-86.5091
0
LINE
8
BLACK
6
CONTINUOUS
10
76.7301
20
-86.5091
11
76.795
21
-86.4547
0
LINE
8
BLACK
6
CONTINUOUS
10
76.795
20
-86.4547
11
76.9168
21
-86.422
0
LINE
8
BLACK
6
CONTINUOUS
10
76.9168
20
-86.422
11
77.4043
21
-86.422
0
LINE
8
BLACK
6
CONTINUOUS
10
77.4043
20
-86.422
11
77.4877
21
-86.4367
0
LINE
8
BLACK
6
CONTINUOUS
10
75.6127
20
-86.4367
11
75.686
21
-86.479
0
LINE
8
BLACK
6
CONTINUOUS
10
75.686
20
-86.479
11
75.7404
21
-86.5439
0
LINE
8
BLACK
6
CONTINUOUS
10
75.7404
20
-86.5439
11
75.7731
21
-86.6658
0
LINE
8
BLACK
6
CONTINUOUS
10
75.7731
20
-86.6658
11
75.7731
21
-87.5782
0
LINE
8
BLACK
6
CONTINUOUS
10
75.7731
20
-87.5782
11
75.7584
21
-87.6616
0
LINE
8
BLACK
6
CONTINUOUS
10
75.7584
20
-87.6616
11
75.7161
21
-87.7349
0
LINE
8
BLACK
6
CONTINUOUS
10
75.7161
20
-87.7349
11
75.6512
21
-87.7893
0
LINE
8
BLACK
6
CONTINUOUS
10
75.6512
20
-87.7893
11
75.5293
21
-87.822
0
LINE
8
BLACK
6
CONTINUOUS
10
75.5293
20
-87.822
11
75.0418
21
-87.822
0
LINE
8
BLACK
6
CONTINUOUS
10
75.0418
20
-87.822
11
74.9585
21
-87.8073
0
LINE
8
BLACK
6
CONTINUOUS
10
74.9585
20
-87.8073
11
74.8852
21
-87.765
0
LINE
8
BLACK
6
CONTINUOUS
10
74.8852
20
-87.765
11
74.8308
21
-87.7001
0
LINE
8
BLACK
6
CONTINUOUS
10
74.8308
20
-87.7001
11
74.7981
21
-87.5782
0
LINE
8
BLACK
6
CONTINUOUS
10
74.7981
20
-87.5782
11
74.7981
21
-86.6658
0
LINE
8
BLACK
6
CONTINUOUS
10
74.7981
20
-86.6658
11
74.8128
21
-86.5824
0
LINE
8
BLACK
6
CONTINUOUS
10
74.8128
20
-86.5824
11
74.8551
21
-86.5091
0
LINE
8
BLACK
6
CONTINUOUS
10
74.8551
20
-86.5091
11
74.92
21
-86.4547
0
LINE
8
BLACK
6
CONTINUOUS
10
74.92
20
-86.4547
11
75.0418
21
-86.422
0
LINE
8
BLACK
6
CONTINUOUS
10
75.0418
20
-86.422
11
75.5293
21
-86.422
0
LINE
8
BLACK
6
CONTINUOUS
10
75.5293
20
-86.422
11
75.6127
21
-86.4367
0
LINE
8
BLACK
6
CONTINUOUS
10
107.65
20
-87.5
11
105.15
21
-87.5
0
LINE
8
BLACK
6
CONTINUOUS
10
105.15
20
-87.5
11
105.15
21
-86.5
0
LINE
8
BLACK
6
CONTINUOUS
10
105.15
20
-86.5
11
107.65
21
-86.5
0
LINE
8
BLACK
6
CONTINUOUS
10
107.65
20
-86.5
11
107.65
21
-87.5
0
LINE
8
BLACK
6
CONTINUOUS
10
122.85
20
-87.5
11
120.35
21
-87.5
0
LINE
8
BLACK
6
CONTINUOUS
10
120.35
20
-87.5
11
120.35
21
-86.5
0
LINE
8
BLACK
6
CONTINUOUS
10
120.35
20
-86.5
11
122.85
21
-86.5
0
LINE
8
BLACK
6
CONTINUOUS
10
122.85
20
-86.5
11
122.85
21
-87.5
0
LINE
8
BLACK
6
CONTINUOUS
10
86.875
20
-87.3
11
86.625
21
-87.3
0
LINE
8
BLACK
6
CONTINUOUS
10
86.625
20
-87.3
11
86.625
21
-86
0
LINE
8
BLACK
6
CONTINUOUS
10
86.625
20
-86
11
86.875
21
-86
0
LINE
8
BLACK
6
CONTINUOUS
10
86.875
20
-86
11
86.875
21
-87.3
0
LINE
8
BLACK
6
CONTINUOUS
10
86.375
20
-87.3
11
86.125
21
-87.3
0
LINE
8
BLACK
6
CONTINUOUS
10
86.125
20
-87.3
11
86.125
21
-86
0
LINE
8
BLACK
6
CONTINUOUS
10
86.125
20
-86
11
86.375
21
-86
0
LINE
8
BLACK
6
CONTINUOUS
10
86.375
20
-86
11
86.375
21
-87.3
0
LINE
8
BLACK
6
CONTINUOUS
10
85.875
20
-87.3
11
85.625
21
-87.3
0
LINE
8
BLACK
6
CONTINUOUS
10
85.625
20
-87.3
11
85.625
21
-86
0
LINE
8
BLACK
6
CONTINUOUS
10
85.625
20
-86
11
85.875
21
-86
0
LINE
8
BLACK
6
CONTINUOUS
10
85.875
20
-86
11
85.875
21
-87.3
0
LINE
8
BLACK
6
CONTINUOUS
10
85.375
20
-87.3
11
85.125
21
-87.3
0
LINE
8
BLACK
6
CONTINUOUS
10
85.125
20
-87.3
11
85.125
21
-86
0
LINE
8
BLACK
6
CONTINUOUS
10
85.125
20
-86
11
85.375
21
-86
0
LINE
8
BLACK
6
CONTINUOUS
10
85.375
20
-86
11
85.375
21
-87.3
0
LINE
8
BLACK
6
CONTINUOUS
10
84.875
20
-87.3
11
84.625
21
-87.3
0
LINE
8
BLACK
6
CONTINUOUS
10
84.625
20
-87.3
11
84.625
21
-86
0
LINE
8
BLACK
6
CONTINUOUS
10
84.625
20
-86
11
84.875
21
-86
0
LINE
8
BLACK
6
CONTINUOUS
10
84.875
20
-86
11
84.875
21
-87.3
0
LINE
8
BLACK
6
CONTINUOUS
10
83.875
20
-87.3
11
83.625
21
-87.3
0
LINE
8
BLACK
6
CONTINUOUS
10
83.625
20
-87.3
11
83.625
21
-86
0
LINE
8
BLACK
6
CONTINUOUS
10
83.625
20
-86
11
83.875
21
-86
0
LINE
8
BLACK
6
CONTINUOUS
10
83.875
20
-86
11
83.875
21
-87.3
0
LINE
8
BLACK
6
CONTINUOUS
10
83.375
20
-87.3
11
83.125
21
-87.3
0
LINE
8
BLACK
6
CONTINUOUS
10
83.125
20
-87.3
11
83.125
21
-86
0
LINE
8
BLACK
6
CONTINUOUS
10
83.125
20
-86
11
83.375
21
-86
0
LINE
8
BLACK
6
CONTINUOUS
10
83.375
20
-86
11
83.375
21
-87.3
0
LINE
8
BLACK
6
CONTINUOUS
10
82.875
20
-87.3
11
82.625
21
-87.3
0
LINE
8
BLACK
6
CONTINUOUS
10
82.625
20
-87.3
11
82.625
21
-86
0
LINE
8
BLACK
6
CONTINUOUS
10
82.625
20
-86
11
82.875
21
-86
0
LINE
8
BLACK
6
CONTINUOUS
10
82.875
20
-86
11
82.875
21
-87.3
0
LINE
8
BLACK
6
CONTINUOUS
10
82.375
20
-87.3
11
82.125
21
-87.3
0
LINE
8
BLACK
6
CONTINUOUS
10
82.125
20
-87.3
11
82.125
21
-86
0
LINE
8
BLACK
6
CONTINUOUS
10
82.125
20
-86
11
82.375
21
-86
0
LINE
8
BLACK
6
CONTINUOUS
10
82.375
20
-86
11
82.375
21
-87.3
0
LINE
8
BLACK
6
CONTINUOUS
10
81.875
20
-87.3
11
81.625
21
-87.3
0
LINE
8
BLACK
6
CONTINUOUS
10
81.625
20
-87.3
11
81.625
21
-86
0
LINE
8
BLACK
6
CONTINUOUS
10
81.625
20
-86
11
81.875
21
-86
0
LINE
8
BLACK
6
CONTINUOUS
10
81.875
20
-86
11
81.875
21
-87.3
0
LINE
8
BLACK
6
CONTINUOUS
10
84.375
20
-87.3
11
84.125
21
-87.3
0
LINE
8
BLACK
6
CONTINUOUS
10
84.125
20
-87.3
11
84.125
21
-86
0
LINE
8
BLACK
6
CONTINUOUS
10
84.125
20
-86
11
84.375
21
-86
0
LINE
8
BLACK
6
CONTINUOUS
10
84.375
20
-86
11
84.375
21
-87.3
0
LINE
8
BLACK
6
CONTINUOUS
10
81.375
20
-87.3
11
81.125
21
-87.3
0
LINE
8
BLACK
6
CONTINUOUS
10
81.125
20
-87.3
11
81.125
21
-86
0
LINE
8
BLACK
6
CONTINUOUS
10
81.125
20
-86
11
81.375
21
-86
0
LINE
8
BLACK
6
CONTINUOUS
10
81.375
20
-86
11
81.375
21
-87.3
0
LINE
8
BLACK
6
CONTINUOUS
10
89.4396
20
-86.1412
11
89.5129
21
-86.1835
0
LINE
8
BLACK
6
CONTINUOUS
10
89.5129
20
-86.1835
11
89.5673
21
-86.2484
0
LINE
8
BLACK
6
CONTINUOUS
10
89.5673
20
-86.2484
11
89.6
21
-86.3702
0
LINE
8
BLACK
6
CONTINUOUS
10
89.6
20
-86.3702
11
89.6
21
-86.8577
0
LINE
8
BLACK
6
CONTINUOUS
10
89.6
20
-86.8577
11
89.5853
21
-86.9411
0
LINE
8
BLACK
6
CONTINUOUS
10
89.5853
20
-86.9411
11
89.543
21
-87.0144
0
LINE
8
BLACK
6
CONTINUOUS
10
89.543
20
-87.0144
11
89.4781
21
-87.0688
0
LINE
8
BLACK
6
CONTINUOUS
10
89.4781
20
-87.0688
11
89.3563
21
-87.1015
0
LINE
8
BLACK
6
CONTINUOUS
10
89.3563
20
-87.1015
11
88.4437
21
-87.1015
0
LINE
8
BLACK
6
CONTINUOUS
10
88.4437
20
-87.1015
11
88.3604
21
-87.0868
0
LINE
8
BLACK
6
CONTINUOUS
10
88.3604
20
-87.0868
11
88.2871
21
-87.0445
0
LINE
8
BLACK
6
CONTINUOUS
10
88.2871
20
-87.0445
11
88.2327
21
-86.9796
0
LINE
8
BLACK
6
CONTINUOUS
10
88.2327
20
-86.9796
11
88.2
21
-86.8577
0
LINE
8
BLACK
6
CONTINUOUS
10
88.2
20
-86.8577
11
88.2
21
-86.3702
0
LINE
8
BLACK
6
CONTINUOUS
10
88.2
20
-86.3702
11
88.2147
21
-86.2869
0
LINE
8
BLACK
6
CONTINUOUS
10
88.2147
20
-86.2869
11
88.257
21
-86.2136
0
LINE
8
BLACK
6
CONTINUOUS
10
88.257
20
-86.2136
11
88.3219
21
-86.1592
0
LINE
8
BLACK
6
CONTINUOUS
10
88.3219
20
-86.1592
11
88.4437
21
-86.1265
0
LINE
8
BLACK
6
CONTINUOUS
10
88.4437
20
-86.1265
11
89.3563
21
-86.1265
0
LINE
8
BLACK
6
CONTINUOUS
10
89.3563
20
-86.1265
11
89.4396
21
-86.1412
0
LINE
8
BLACK
6
CONTINUOUS
10
89.4396
20
-84.2662
11
89.5129
21
-84.3085
0
LINE
8
BLACK
6
CONTINUOUS
10
89.5129
20
-84.3085
11
89.5673
21
-84.3734
0
LINE
8
BLACK
6
CONTINUOUS
10
89.5673
20
-84.3734
11
89.6
21
-84.4952
0
LINE
8
BLACK
6
CONTINUOUS
10
89.6
20
-84.4952
11
89.6
21
-84.9827
0
LINE
8
BLACK
6
CONTINUOUS
10
89.6
20
-84.9827
11
89.5853
21
-85.0661
0
LINE
8
BLACK
6
CONTINUOUS
10
89.5853
20
-85.0661
11
89.543
21
-85.1394
0
LINE
8
BLACK
6
CONTINUOUS
10
89.543
20
-85.1394
11
89.4781
21
-85.1938
0
LINE
8
BLACK
6
CONTINUOUS
10
89.4781
20
-85.1938
11
89.3563
21
-85.2265
0
LINE
8
BLACK
6
CONTINUOUS
10
89.3563
20
-85.2265
11
88.4437
21
-85.2265
0
LINE
8
BLACK
6
CONTINUOUS
10
88.4437
20
-85.2265
11
88.3604
21
-85.2118
0
LINE
8
BLACK
6
CONTINUOUS
10
88.3604
20
-85.2118
11
88.2871
21
-85.1695
0
LINE
8
BLACK
6
CONTINUOUS
10
88.2871
20
-85.1695
11
88.2327
21
-85.1046
0
LINE
8
BLACK
6
CONTINUOUS
10
88.2327
20
-85.1046
11
88.2
21
-84.9827
0
LINE
8
BLACK
6
CONTINUOUS
10
88.2
20
-84.9827
11
88.2
21
-84.4952
0
LINE
8
BLACK
6
CONTINUOUS
10
88.2
20
-84.4952
11
88.2147
21
-84.4119
0
LINE
8
BLACK
6
CONTINUOUS
10
88.2147
20
-84.4119
11
88.257
21
-84.3386
0
LINE
8
BLACK
6
CONTINUOUS
10
88.257
20
-84.3386
11
88.3219
21
-84.2842
0
LINE
8
BLACK
6
CONTINUOUS
10
88.3219
20
-84.2842
11
88.4437
21
-84.2515
0
LINE
8
BLACK
6
CONTINUOUS
10
88.4437
20
-84.2515
11
89.3563
21
-84.2515
0
LINE
8
BLACK
6
CONTINUOUS
10
89.3563
20
-84.2515
11
89.4396
21
-84.2662
0
LINE
8
BLACK
6
CONTINUOUS
10
103.243
20
-83.6935
11
103.317
21
-83.7358
0
LINE
8
BLACK
6
CONTINUOUS
10
103.317
20
-83.7358
11
103.371
21
-83.8007
0
LINE
8
BLACK
6
CONTINUOUS
10
103.371
20
-83.8007
11
103.404
21
-83.9226
0
LINE
8
BLACK
6
CONTINUOUS
10
103.404
20
-83.9226
11
103.404
21
-84.835
0
LINE
8
BLACK
6
CONTINUOUS
10
103.404
20
-84.835
11
103.389
21
-84.9184
0
LINE
8
BLACK
6
CONTINUOUS
10
103.389
20
-84.9184
11
103.347
21
-84.9917
0
LINE
8
BLACK
6
CONTINUOUS
10
103.347
20
-84.9917
11
103.282
21
-85.0461
0
LINE
8
BLACK
6
CONTINUOUS
10
103.282
20
-85.0461
11
103.16
21
-85.0788
0
LINE
8
BLACK
6
CONTINUOUS
10
103.16
20
-85.0788
11
102.672
21
-85.0788
0
LINE
8
BLACK
6
CONTINUOUS
10
102.672
20
-85.0788
11
102.589
21
-85.0641
0
LINE
8
BLACK
6
CONTINUOUS
10
102.589
20
-85.0641
11
102.516
21
-85.0218
0
LINE
8
BLACK
6
CONTINUOUS
10
102.516
20
-85.0218
11
102.461
21
-84.9569
0
LINE
8
BLACK
6
CONTINUOUS
10
102.461
20
-84.9569
11
102.429
21
-84.835
0
LINE
8
BLACK
6
CONTINUOUS
10
102.429
20
-84.835
11
102.429
21
-83.9226
0
LINE
8
BLACK
6
CONTINUOUS
10
102.429
20
-83.9226
11
102.443
21
-83.8392
0
LINE
8
BLACK
6
CONTINUOUS
10
102.443
20
-83.8392
11
102.486
21
-83.7659
0
LINE
8
BLACK
6
CONTINUOUS
10
102.486
20
-83.7659
11
102.551
21
-83.7115
0
LINE
8
BLACK
6
CONTINUOUS
10
102.551
20
-83.7115
11
102.672
21
-83.6788
0
LINE
8
BLACK
6
CONTINUOUS
10
102.672
20
-83.6788
11
103.16
21
-83.6788
0
LINE
8
BLACK
6
CONTINUOUS
10
103.16
20
-83.6788
11
103.243
21
-83.6935
0
LINE
8
BLACK
6
CONTINUOUS
10
101.368
20
-83.6935
11
101.442
21
-83.7358
0
LINE
8
BLACK
6
CONTINUOUS
10
101.442
20
-83.7358
11
101.496
21
-83.8007
0
LINE
8
BLACK
6
CONTINUOUS
10
101.496
20
-83.8007
11
101.529
21
-83.9226
0
LINE
8
BLACK
6
CONTINUOUS
10
101.529
20
-83.9226
11
101.529
21
-84.835
0
LINE
8
BLACK
6
CONTINUOUS
10
101.529
20
-84.835
11
101.514
21
-84.9184
0
LINE
8
BLACK
6
CONTINUOUS
10
101.514
20
-84.9184
11
101.472
21
-84.9917
0
LINE
8
BLACK
6
CONTINUOUS
10
101.472
20
-84.9917
11
101.407
21
-85.0461
0
LINE
8
BLACK
6
CONTINUOUS
10
101.407
20
-85.0461
11
101.285
21
-85.0788
0
LINE
8
BLACK
6
CONTINUOUS
10
101.285
20
-85.0788
11
100.797
21
-85.0788
0
LINE
8
BLACK
6
CONTINUOUS
10
100.797
20
-85.0788
11
100.714
21
-85.0641
0
LINE
8
BLACK
6
CONTINUOUS
10
100.714
20
-85.0641
11
100.641
21
-85.0218
0
LINE
8
BLACK
6
CONTINUOUS
10
100.641
20
-85.0218
11
100.586
21
-84.9569
0
LINE
8
BLACK
6
CONTINUOUS
10
100.586
20
-84.9569
11
100.554
21
-84.835
0
LINE
8
BLACK
6
CONTINUOUS
10
100.554
20
-84.835
11
100.554
21
-83.9226
0
LINE
8
BLACK
6
CONTINUOUS
10
100.554
20
-83.9226
11
100.568
21
-83.8392
0
LINE
8
BLACK
6
CONTINUOUS
10
100.568
20
-83.8392
11
100.611
21
-83.7659
0
LINE
8
BLACK
6
CONTINUOUS
10
100.611
20
-83.7659
11
100.676
21
-83.7115
0
LINE
8
BLACK
6
CONTINUOUS
10
100.676
20
-83.7115
11
100.797
21
-83.6788
0
LINE
8
BLACK
6
CONTINUOUS
10
100.797
20
-83.6788
11
101.285
21
-83.6788
0
LINE
8
BLACK
6
CONTINUOUS
10
101.285
20
-83.6788
11
101.368
21
-83.6935
0
LINE
8
BLACK
6
CONTINUOUS
10
89.7143
20
-82.1187
11
89.7876
21
-82.161
0
LINE
8
BLACK
6
CONTINUOUS
10
89.7876
20
-82.161
11
89.842
21
-82.2259
0
LINE
8
BLACK
6
CONTINUOUS
10
89.842
20
-82.2259
11
89.8747
21
-82.3477
0
LINE
8
BLACK
6
CONTINUOUS
10
89.8747
20
-82.3477
11
89.8747
21
-83.2602
0
LINE
8
BLACK
6
CONTINUOUS
10
89.8747
20
-83.2602
11
89.86
21
-83.3436
0
LINE
8
BLACK
6
CONTINUOUS
10
89.86
20
-83.3436
11
89.8177
21
-83.4169
0
LINE
8
BLACK
6
CONTINUOUS
10
89.8177
20
-83.4169
11
89.7528
21
-83.4713
0
LINE
8
BLACK
6
CONTINUOUS
10
89.7528
20
-83.4713
11
89.6309
21
-83.504
0
LINE
8
BLACK
6
CONTINUOUS
10
89.6309
20
-83.504
11
89.1435
21
-83.504
0
LINE
8
BLACK
6
CONTINUOUS
10
89.1435
20
-83.504
11
89.0601
21
-83.4893
0
LINE
8
BLACK
6
CONTINUOUS
10
89.0601
20
-83.4893
11
88.9868
21
-83.447
0
LINE
8
BLACK
6
CONTINUOUS
10
88.9868
20
-83.447
11
88.9324
21
-83.3821
0
LINE
8
BLACK
6
CONTINUOUS
10
88.9324
20
-83.3821
11
88.8997
21
-83.2602
0
LINE
8
BLACK
6
CONTINUOUS
10
88.8997
20
-83.2602
11
88.8997
21
-82.3477
0
LINE
8
BLACK
6
CONTINUOUS
10
88.8997
20
-82.3477
11
88.9144
21
-82.2644
0
LINE
8
BLACK
6
CONTINUOUS
10
88.9144
20
-82.2644
11
88.9567
21
-82.1911
0
LINE
8
BLACK
6
CONTINUOUS
10
88.9567
20
-82.1911
11
89.0216
21
-82.1367
0
LINE
8
BLACK
6
CONTINUOUS
10
89.0216
20
-82.1367
11
89.1435
21
-82.104
0
LINE
8
BLACK
6
CONTINUOUS
10
89.1435
20
-82.104
11
89.6309
21
-82.104
0
LINE
8
BLACK
6
CONTINUOUS
10
89.6309
20
-82.104
11
89.7143
21
-82.1187
0
LINE
8
BLACK
6
CONTINUOUS
10
91.5893
20
-82.1187
11
91.6626
21
-82.161
0
LINE
8
BLACK
6
CONTINUOUS
10
91.6626
20
-82.161
11
91.717
21
-82.2259
0
LINE
8
BLACK
6
CONTINUOUS
10
91.717
20
-82.2259
11
91.7497
21
-82.3477
0
LINE
8
BLACK
6
CONTINUOUS
10
91.7497
20
-82.3477
11
91.7497
21
-83.2602
0
LINE
8
BLACK
6
CONTINUOUS
10
91.7497
20
-83.2602
11
91.735
21
-83.3436
0
LINE
8
BLACK
6
CONTINUOUS
10
91.735
20
-83.3436
11
91.6927
21
-83.4169
0
LINE
8
BLACK
6
CONTINUOUS
10
91.6927
20
-83.4169
11
91.6278
21
-83.4713
0
LINE
8
BLACK
6
CONTINUOUS
10
91.6278
20
-83.4713
11
91.5059
21
-83.504
0
LINE
8
BLACK
6
CONTINUOUS
10
91.5059
20
-83.504
11
91.0185
21
-83.504
0
LINE
8
BLACK
6
CONTINUOUS
10
91.0185
20
-83.504
11
90.9351
21
-83.4893
0
LINE
8
BLACK
6
CONTINUOUS
10
90.9351
20
-83.4893
11
90.8618
21
-83.447
0
LINE
8
BLACK
6
CONTINUOUS
10
90.8618
20
-83.447
11
90.8074
21
-83.3821
0
LINE
8
BLACK
6
CONTINUOUS
10
90.8074
20
-83.3821
11
90.7747
21
-83.2602
0
LINE
8
BLACK
6
CONTINUOUS
10
90.7747
20
-83.2602
11
90.7747
21
-82.3477
0
LINE
8
BLACK
6
CONTINUOUS
10
90.7747
20
-82.3477
11
90.7894
21
-82.2644
0
LINE
8
BLACK
6
CONTINUOUS
10
90.7894
20
-82.2644
11
90.8317
21
-82.1911
0
LINE
8
BLACK
6
CONTINUOUS
10
90.8317
20
-82.1911
11
90.8966
21
-82.1367
0
LINE
8
BLACK
6
CONTINUOUS
10
90.8966
20
-82.1367
11
91.0185
21
-82.104
0
LINE
8
BLACK
6
CONTINUOUS
10
91.0185
20
-82.104
11
91.5059
21
-82.104
0
LINE
8
BLACK
6
CONTINUOUS
10
91.5059
20
-82.104
11
91.5893
21
-82.1187
0
LINE
8
BLACK
6
CONTINUOUS
10
95.3708
20
-82.7436
11
94.4708
21
-82.7436
0
LINE
8
BLACK
6
CONTINUOUS
10
94.4708
20
-82.7436
11
94.4708
21
-81.5436
0
LINE
8
BLACK
6
CONTINUOUS
10
94.4708
20
-81.5436
11
95.3708
21
-81.5436
0
LINE
8
BLACK
6
CONTINUOUS
10
95.3708
20
-81.5436
11
95.3708
21
-82.7436
0
LINE
8
BLACK
6
CONTINUOUS
10
98.6708
20
-82.7436
11
97.7708
21
-82.7436
0
LINE
8
BLACK
6
CONTINUOUS
10
97.7708
20
-82.7436
11
97.7708
21
-81.5436
0
LINE
8
BLACK
6
CONTINUOUS
10
97.7708
20
-81.5436
11
98.6708
21
-81.5436
0
LINE
8
BLACK
6
CONTINUOUS
10
98.6708
20
-81.5436
11
98.6708
21
-82.7436
0
LINE
8
BLACK
6
CONTINUOUS
10
103.664
20
-80.4201
11
103.739
21
-80.4635
0
LINE
8
BLACK
6
CONTINUOUS
10
103.739
20
-80.4635
11
103.795
21
-80.53
0
LINE
8
BLACK
6
CONTINUOUS
10
103.795
20
-80.53
11
103.828
21
-80.655
0
LINE
8
BLACK
6
CONTINUOUS
10
103.828
20
-80.655
11
103.828
21
-81.905
0
LINE
8
BLACK
6
CONTINUOUS
10
103.828
20
-81.905
11
103.813
21
-81.9905
0
LINE
8
BLACK
6
CONTINUOUS
10
103.813
20
-81.9905
11
103.77
21
-82.0657
0
LINE
8
BLACK
6
CONTINUOUS
10
103.77
20
-82.0657
11
103.703
21
-82.1215
0
LINE
8
BLACK
6
CONTINUOUS
10
103.703
20
-82.1215
11
103.578
21
-82.155
0
LINE
8
BLACK
6
CONTINUOUS
10
103.578
20
-82.155
11
102.828
21
-82.155
0
LINE
8
BLACK
6
CONTINUOUS
10
102.828
20
-82.155
11
102.743
21
-82.1399
0
LINE
8
BLACK
6
CONTINUOUS
10
102.743
20
-82.1399
11
102.668
21
-82.0965
0
LINE
8
BLACK
6
CONTINUOUS
10
102.668
20
-82.0965
11
102.612
21
-82.03
0
LINE
8
BLACK
6
CONTINUOUS
10
102.612
20
-82.03
11
102.578
21
-81.905
0
LINE
8
BLACK
6
CONTINUOUS
10
102.578
20
-81.905
11
102.578
21
-80.655
0
LINE
8
BLACK
6
CONTINUOUS
10
102.578
20
-80.655
11
102.593
21
-80.5695
0
LINE
8
BLACK
6
CONTINUOUS
10
102.593
20
-80.5695
11
102.637
21
-80.4943
0
LINE
8
BLACK
6
CONTINUOUS
10
102.637
20
-80.4943
11
102.703
21
-80.4385
0
LINE
8
BLACK
6
CONTINUOUS
10
102.703
20
-80.4385
11
102.828
21
-80.405
0
LINE
8
BLACK
6
CONTINUOUS
10
102.828
20
-80.405
11
103.578
21
-80.405
0
LINE
8
BLACK
6
CONTINUOUS
10
103.578
20
-80.405
11
103.664
21
-80.4201
0
LINE
8
BLACK
6
CONTINUOUS
10
100.864
20
-80.4201
11
100.939
21
-80.4635
0
LINE
8
BLACK
6
CONTINUOUS
10
100.939
20
-80.4635
11
100.995
21
-80.53
0
LINE
8
BLACK
6
CONTINUOUS
10
100.995
20
-80.53
11
101.028
21
-80.655
0
LINE
8
BLACK
6
CONTINUOUS
10
101.028
20
-80.655
11
101.028
21
-81.905
0
LINE
8
BLACK
6
CONTINUOUS
10
101.028
20
-81.905
11
101.013
21
-81.9905
0
LINE
8
BLACK
6
CONTINUOUS
10
101.013
20
-81.9905
11
100.97
21
-82.0657
0
LINE
8
BLACK
6
CONTINUOUS
10
100.97
20
-82.0657
11
100.903
21
-82.1215
0
LINE
8
BLACK
6
CONTINUOUS
10
100.903
20
-82.1215
11
100.778
21
-82.155
0
LINE
8
BLACK
6
CONTINUOUS
10
100.778
20
-82.155
11
100.028
21
-82.155
0
LINE
8
BLACK
6
CONTINUOUS
10
100.028
20
-82.155
11
99.9427
21
-82.1399
0
LINE
8
BLACK
6
CONTINUOUS
10
99.9427
20
-82.1399
11
99.8675
21
-82.0965
0
LINE
8
BLACK
6
CONTINUOUS
10
99.8675
20
-82.0965
11
99.8117
21
-82.03
0
LINE
8
BLACK
6
CONTINUOUS
10
99.8117
20
-82.03
11
99.7782
21
-81.905
0
LINE
8
BLACK
6
CONTINUOUS
10
99.7782
20
-81.905
11
99.7782
21
-80.655
0
LINE
8
BLACK
6
CONTINUOUS
10
99.7782
20
-80.655
11
99.7933
21
-80.5695
0
LINE
8
BLACK
6
CONTINUOUS
10
99.7933
20
-80.5695
11
99.8367
21
-80.4943
0
LINE
8
BLACK
6
CONTINUOUS
10
99.8367
20
-80.4943
11
99.9032
21
-80.4385
0
LINE
8
BLACK
6
CONTINUOUS
10
99.9032
20
-80.4385
11
100.028
21
-80.405
0
LINE
8
BLACK
6
CONTINUOUS
10
100.028
20
-80.405
11
100.778
21
-80.405
0
LINE
8
BLACK
6
CONTINUOUS
10
100.778
20
-80.405
11
100.864
21
-80.4201
0
LINE
8
BLACK
6
CONTINUOUS
10
83.7668
20
-81.772
11
79.2668
21
-81.772
0
LINE
8
BLACK
6
CONTINUOUS
10
79.2668
20
-81.772
11
79.2668
21
-79.772
0
LINE
8
BLACK
6
CONTINUOUS
10
79.2668
20
-79.772
11
83.7668
21
-79.772
0
LINE
8
BLACK
6
CONTINUOUS
10
83.7668
20
-79.772
11
83.7668
21
-81.772
0
LINE
8
BLACK
6
CONTINUOUS
10
75.2668
20
-81.772
11
70.7668
21
-81.772
0
LINE
8
BLACK
6
CONTINUOUS
10
70.7668
20
-81.772
11
70.7668
21
-79.772
0
LINE
8
BLACK
6
CONTINUOUS
10
70.7668
20
-79.772
11
75.2668
21
-79.772
0
LINE
8
BLACK
6
CONTINUOUS
10
75.2668
20
-79.772
11
75.2668
21
-81.772
0
LINE
8
BLACK
6
CONTINUOUS
10
91.6863
20
-80.1121
11
91.7596
21
-80.1544
0
LINE
8
BLACK
6
CONTINUOUS
10
91.7596
20
-80.1544
11
91.814
21
-80.2193
0
LINE
8
BLACK
6
CONTINUOUS
10
91.814
20
-80.2193
11
91.8467
21
-80.3411
0
LINE
8
BLACK
6
CONTINUOUS
10
91.8467
20
-80.3411
11
91.8467
21
-81.2536
0
LINE
8
BLACK
6
CONTINUOUS
10
91.8467
20
-81.2536
11
91.832
21
-81.337
0
LINE
8
BLACK
6
CONTINUOUS
10
91.832
20
-81.337
11
91.7897
21
-81.4103
0
LINE
8
BLACK
6
CONTINUOUS
10
91.7897
20
-81.4103
11
91.7248
21
-81.4647
0
LINE
8
BLACK
6
CONTINUOUS
10
91.7248
20
-81.4647
11
91.6029
21
-81.4974
0
LINE
8
BLACK
6
CONTINUOUS
10
91.6029
20
-81.4974
11
91.1154
21
-81.4974
0
LINE
8
BLACK
6
CONTINUOUS
10
91.1154
20
-81.4974
11
91.0321
21
-81.4827
0
LINE
8
BLACK
6
CONTINUOUS
10
91.0321
20
-81.4827
11
90.9588
21
-81.4404
0
LINE
8
BLACK
6
CONTINUOUS
10
90.9588
20
-81.4404
11
90.9044
21
-81.3755
0
LINE
8
BLACK
6
CONTINUOUS
10
90.9044
20
-81.3755
11
90.8717
21
-81.2536
0
LINE
8
BLACK
6
CONTINUOUS
10
90.8717
20
-81.2536
11
90.8717
21
-80.3411
0
LINE
8
BLACK
6
CONTINUOUS
10
90.8717
20
-80.3411
11
90.8864
21
-80.2578
0
LINE
8
BLACK
6
CONTINUOUS
10
90.8864
20
-80.2578
11
90.9287
21
-80.1845
0
LINE
8
BLACK
6
CONTINUOUS
10
90.9287
20
-80.1845
11
90.9936
21
-80.1301
0
LINE
8
BLACK
6
CONTINUOUS
10
90.9936
20
-80.1301
11
91.1154
21
-80.0974
0
LINE
8
BLACK
6
CONTINUOUS
10
91.1154
20
-80.0974
11
91.6029
21
-80.0974
0
LINE
8
BLACK
6
CONTINUOUS
10
91.6029
20
-80.0974
11
91.6863
21
-80.1121
0
LINE
8
BLACK
6
CONTINUOUS
10
89.8113
20
-80.1121
11
89.8846
21
-80.1544
0
LINE
8
BLACK
6
CONTINUOUS
10
89.8846
20
-80.1544
11
89.939
21
-80.2193
0
LINE
8
BLACK
6
CONTINUOUS
10
89.939
20
-80.2193
11
89.9717
21
-80.3411
0
LINE
8
BLACK
6
CONTINUOUS
10
89.9717
20
-80.3411
11
89.9717
21
-81.2536
0
LINE
8
BLACK
6
CONTINUOUS
10
89.9717
20
-81.2536
11
89.957
21
-81.337
0
LINE
8
BLACK
6
CONTINUOUS
10
89.957
20
-81.337
11
89.9147
21
-81.4103
0
LINE
8
BLACK
6
CONTINUOUS
10
89.9147
20
-81.4103
11
89.8498
21
-81.4647
0
LINE
8
BLACK
6
CONTINUOUS
10
89.8498
20
-81.4647
11
89.7279
21
-81.4974
0
LINE
8
BLACK
6
CONTINUOUS
10
89.7279
20
-81.4974
11
89.2404
21
-81.4974
0
LINE
8
BLACK
6
CONTINUOUS
10
89.2404
20
-81.4974
11
89.1571
21
-81.4827
0
LINE
8
BLACK
6
CONTINUOUS
10
89.1571
20
-81.4827
11
89.0838
21
-81.4404
0
LINE
8
BLACK
6
CONTINUOUS
10
89.0838
20
-81.4404
11
89.0294
21
-81.3755
0
LINE
8
BLACK
6
CONTINUOUS
10
89.0294
20
-81.3755
11
88.9967
21
-81.2536
0
LINE
8
BLACK
6
CONTINUOUS
10
88.9967
20
-81.2536
11
88.9967
21
-80.3411
0
LINE
8
BLACK
6
CONTINUOUS
10
88.9967
20
-80.3411
11
89.0114
21
-80.2578
0
LINE
8
BLACK
6
CONTINUOUS
10
89.0114
20
-80.2578
11
89.0537
21
-80.1845
0
LINE
8
BLACK
6
CONTINUOUS
10
89.0537
20
-80.1845
11
89.1186
21
-80.1301
0
LINE
8
BLACK
6
CONTINUOUS
10
89.1186
20
-80.1301
11
89.2404
21
-80.0974
0
LINE
8
BLACK
6
CONTINUOUS
10
89.2404
20
-80.0974
11
89.7279
21
-80.0974
0
LINE
8
BLACK
6
CONTINUOUS
10
89.7279
20
-80.0974
11
89.8113
21
-80.1121
0
LINE
8
BLACK
6
CONTINUOUS
10
98.6598
20
-79.0015
11
98.7331
21
-79.0438
0
LINE
8
BLACK
6
CONTINUOUS
10
98.7331
20
-79.0438
11
98.7875
21
-79.1087
0
LINE
8
BLACK
6
CONTINUOUS
10
98.7875
20
-79.1087
11
98.8202
21
-79.2305
0
LINE
8
BLACK
6
CONTINUOUS
10
98.8202
20
-79.2305
11
98.8202
21
-79.718
0
LINE
8
BLACK
6
CONTINUOUS
10
98.8202
20
-79.718
11
98.8055
21
-79.8014
0
LINE
8
BLACK
6
CONTINUOUS
10
98.8055
20
-79.8014
11
98.7632
21
-79.8747
0
LINE
8
BLACK
6
CONTINUOUS
10
98.7632
20
-79.8747
11
98.6983
21
-79.9291
0
LINE
8
BLACK
6
CONTINUOUS
10
98.6983
20
-79.9291
11
98.5764
21
-79.9618
0
LINE
8
BLACK
6
CONTINUOUS
10
98.5764
20
-79.9618
11
97.6639
21
-79.9618
0
LINE
8
BLACK
6
CONTINUOUS
10
97.6639
20
-79.9618
11
97.5806
21
-79.9471
0
LINE
8
BLACK
6
CONTINUOUS
10
97.5806
20
-79.9471
11
97.5073
21
-79.9048
0
LINE
8
BLACK
6
CONTINUOUS
10
97.5073
20
-79.9048
11
97.4529
21
-79.8399
0
LINE
8
BLACK
6
CONTINUOUS
10
97.4529
20
-79.8399
11
97.4202
21
-79.718
0
LINE
8
BLACK
6
CONTINUOUS
10
97.4202
20
-79.718
11
97.4202
21
-79.2305
0
LINE
8
BLACK
6
CONTINUOUS
10
97.4202
20
-79.2305
11
97.4349
21
-79.1472
0
LINE
8
BLACK
6
CONTINUOUS
10
97.4349
20
-79.1472
11
97.4772
21
-79.0739
0
LINE
8
BLACK
6
CONTINUOUS
10
97.4772
20
-79.0739
11
97.5421
21
-79.0195
0
LINE
8
BLACK
6
CONTINUOUS
10
97.5421
20
-79.0195
11
97.6639
21
-78.9868
0
LINE
8
BLACK
6
CONTINUOUS
10
97.6639
20
-78.9868
11
98.5764
21
-78.9868
0
LINE
8
BLACK
6
CONTINUOUS
10
98.5764
20
-78.9868
11
98.6598
21
-79.0015
0
LINE
8
BLACK
6
CONTINUOUS
10
90.8002
20
-79.5226
11
90.2002
21
-79.5226
0
LINE
8
BLACK
6
CONTINUOUS
10
90.2002
20
-79.5226
11
90.2002
21
-77.9726
0
LINE
8
BLACK
6
CONTINUOUS
10
90.2002
20
-77.9726
11
90.8002
21
-77.9726
0
LINE
8
BLACK
6
CONTINUOUS
10
90.8002
20
-77.9726
11
90.8002
21
-79.5226
0
LINE
8
BLACK
6
CONTINUOUS
10
92.0702
20
-79.5226
11
91.4702
21
-79.5226
0
LINE
8
BLACK
6
CONTINUOUS
10
91.4702
20
-79.5226
11
91.4702
21
-77.9726
0
LINE
8
BLACK
6
CONTINUOUS
10
91.4702
20
-77.9726
11
92.0702
21
-77.9726
0
LINE
8
BLACK
6
CONTINUOUS
10
92.0702
20
-77.9726
11
92.0702
21
-79.5226
0
LINE
8
BLACK
6
CONTINUOUS
10
93.3402
20
-79.5226
11
92.7402
21
-79.5226
0
LINE
8
BLACK
6
CONTINUOUS
10
92.7402
20
-79.5226
11
92.7402
21
-77.9726
0
LINE
8
BLACK
6
CONTINUOUS
10
92.7402
20
-77.9726
11
93.3402
21
-77.9726
0
LINE
8
BLACK
6
CONTINUOUS
10
93.3402
20
-77.9726
11
93.3402
21
-79.5226
0
LINE
8
BLACK
6
CONTINUOUS
10
89.5302
20
-79.5226
11
88.9302
21
-79.5226
0
LINE
8
BLACK
6
CONTINUOUS
10
88.9302
20
-79.5226
11
88.9302
21
-77.9726
0
LINE
8
BLACK
6
CONTINUOUS
10
88.9302
20
-77.9726
11
89.5302
21
-77.9726
0
LINE
8
BLACK
6
CONTINUOUS
10
89.5302
20
-77.9726
11
89.5302
21
-79.5226
0
LINE
8
BLACK
6
CONTINUOUS
10
100.428
20
-79.0067
11
99.7776
21
-79.0067
0
LINE
8
BLACK
6
CONTINUOUS
10
99.7776
20
-79.0067
11
99.7776
21
-77.9467
0
LINE
8
BLACK
6
CONTINUOUS
10
99.7776
20
-77.9467
11
100.428
21
-77.9467
0
LINE
8
BLACK
6
CONTINUOUS
10
100.428
20
-77.9467
11
100.428
21
-79.0067
0
LINE
8
BLACK
6
CONTINUOUS
10
102.328
20
-79.0067
11
101.678
21
-79.0067
0
LINE
8
BLACK
6
CONTINUOUS
10
101.678
20
-79.0067
11
101.678
21
-77.9467
0
LINE
8
BLACK
6
CONTINUOUS
10
101.678
20
-77.9467
11
102.328
21
-77.9467
0
LINE
8
BLACK
6
CONTINUOUS
10
102.328
20
-77.9467
11
102.328
21
-79.0067
0
LINE
8
BLACK
6
CONTINUOUS
10
98.6598
20
-77.1265
11
98.7331
21
-77.1688
0
LINE
8
BLACK
6
CONTINUOUS
10
98.7331
20
-77.1688
11
98.7875
21
-77.2337
0
LINE
8
BLACK
6
CONTINUOUS
10
98.7875
20
-77.2337
11
98.8202
21
-77.3555
0
LINE
8
BLACK
6
CONTINUOUS
10
98.8202
20
-77.3555
11
98.8202
21
-77.843
0
LINE
8
BLACK
6
CONTINUOUS
10
98.8202
20
-77.843
11
98.8055
21
-77.9264
0
LINE
8
BLACK
6
CONTINUOUS
10
98.8055
20
-77.9264
11
98.7632
21
-77.9997
0
LINE
8
BLACK
6
CONTINUOUS
10
98.7632
20
-77.9997
11
98.6983
21
-78.0541
0
LINE
8
BLACK
6
CONTINUOUS
10
98.6983
20
-78.0541
11
98.5764
21
-78.0868
0
LINE
8
BLACK
6
CONTINUOUS
10
98.5764
20
-78.0868
11
97.6639
21
-78.0868
0
LINE
8
BLACK
6
CONTINUOUS
10
97.6639
20
-78.0868
11
97.5806
21
-78.0721
0
LINE
8
BLACK
6
CONTINUOUS
10
97.5806
20
-78.0721
11
97.5073
21
-78.0298
0
LINE
8
BLACK
6
CONTINUOUS
10
97.5073
20
-78.0298
11
97.4529
21
-77.9649
0
LINE
8
BLACK
6
CONTINUOUS
10
97.4529
20
-77.9649
11
97.4202
21
-77.843
0
LINE
8
BLACK
6
CONTINUOUS
10
97.4202
20
-77.843
11
97.4202
21
-77.3555
0
LINE
8
BLACK
6
CONTINUOUS
10
97.4202
20
-77.3555
11
97.4349
21
-77.2722
0
LINE
8
BLACK
6
CONTINUOUS
10
97.4349
20
-77.2722
11
97.4772
21
-77.1989
0
LINE
8
BLACK
6
CONTINUOUS
10
97.4772
20
-77.1989
11
97.5421
21
-77.1445
0
LINE
8
BLACK
6
CONTINUOUS
10
97.5421
20
-77.1445
11
97.6639
21
-77.1118
0
LINE
8
BLACK
6
CONTINUOUS
10
97.6639
20
-77.1118
11
98.5764
21
-77.1118
0
LINE
8
BLACK
6
CONTINUOUS
10
98.5764
20
-77.1118
11
98.6598
21
-77.1265
0
LINE
8
BLACK
6
CONTINUOUS
10
85.0361
20
-76.2513
11
85.1094
21
-76.2936
0
LINE
8
BLACK
6
CONTINUOUS
10
85.1094
20
-76.2936
11
85.1638
21
-76.3585
0
LINE
8
BLACK
6
CONTINUOUS
10
85.1638
20
-76.3585
11
85.1965
21
-76.4804
0
LINE
8
BLACK
6
CONTINUOUS
10
85.1965
20
-76.4804
11
85.1965
21
-77.3928
0
LINE
8
BLACK
6
CONTINUOUS
10
85.1965
20
-77.3928
11
85.1818
21
-77.4762
0
LINE
8
BLACK
6
CONTINUOUS
10
85.1818
20
-77.4762
11
85.1395
21
-77.5495
0
LINE
8
BLACK
6
CONTINUOUS
10
85.1395
20
-77.5495
11
85.0746
21
-77.6039
0
LINE
8
BLACK
6
CONTINUOUS
10
85.0746
20
-77.6039
11
84.9527
21
-77.6366
0
LINE
8
BLACK
6
CONTINUOUS
10
84.9527
20
-77.6366
11
84.4652
21
-77.6366
0
LINE
8
BLACK
6
CONTINUOUS
10
84.4652
20
-77.6366
11
84.3819
21
-77.6219
0
LINE
8
BLACK
6
CONTINUOUS
10
84.3819
20
-77.6219
11
84.3086
21
-77.5796
0
LINE
8
BLACK
6
CONTINUOUS
10
84.3086
20
-77.5796
11
84.2542
21
-77.5147
0
LINE
8
BLACK
6
CONTINUOUS
10
84.2542
20
-77.5147
11
84.2215
21
-77.3928
0
LINE
8
BLACK
6
CONTINUOUS
10
84.2215
20
-77.3928
11
84.2215
21
-76.4804
0
LINE
8
BLACK
6
CONTINUOUS
10
84.2215
20
-76.4804
11
84.2362
21
-76.397
0
LINE
8
BLACK
6
CONTINUOUS
10
84.2362
20
-76.397
11
84.2785
21
-76.3237
0
LINE
8
BLACK
6
CONTINUOUS
10
84.2785
20
-76.3237
11
84.3434
21
-76.2693
0
LINE
8
BLACK
6
CONTINUOUS
10
84.3434
20
-76.2693
11
84.4652
21
-76.2366
0
LINE
8
BLACK
6
CONTINUOUS
10
84.4652
20
-76.2366
11
84.9527
21
-76.2366
0
LINE
8
BLACK
6
CONTINUOUS
10
84.9527
20
-76.2366
11
85.0361
21
-76.2513
0
LINE
8
BLACK
6
CONTINUOUS
10
83.1611
20
-76.2513
11
83.2344
21
-76.2936
0
LINE
8
BLACK
6
CONTINUOUS
10
83.2344
20
-76.2936
11
83.2888
21
-76.3585
0
LINE
8
BLACK
6
CONTINUOUS
10
83.2888
20
-76.3585
11
83.3215
21
-76.4804
0
LINE
8
BLACK
6
CONTINUOUS
10
83.3215
20
-76.4804
11
83.3215
21
-77.3928
0
LINE
8
BLACK
6
CONTINUOUS
10
83.3215
20
-77.3928
11
83.3068
21
-77.4762
0
LINE
8
BLACK
6
CONTINUOUS
10
83.3068
20
-77.4762
11
83.2645
21
-77.5495
0
LINE
8
BLACK
6
CONTINUOUS
10
83.2645
20
-77.5495
11
83.1996
21
-77.6039
0
LINE
8
BLACK
6
CONTINUOUS
10
83.1996
20
-77.6039
11
83.0777
21
-77.6366
0
LINE
8
BLACK
6
CONTINUOUS
10
83.0777
20
-77.6366
11
82.5902
21
-77.6366
0
LINE
8
BLACK
6
CONTINUOUS
10
82.5902
20
-77.6366
11
82.5069
21
-77.6219
0
LINE
8
BLACK
6
CONTINUOUS
10
82.5069
20
-77.6219
11
82.4336
21
-77.5796
0
LINE
8
BLACK
6
CONTINUOUS
10
82.4336
20
-77.5796
11
82.3792
21
-77.5147
0
LINE
8
BLACK
6
CONTINUOUS
10
82.3792
20
-77.5147
11
82.3465
21
-77.3928
0
LINE
8
BLACK
6
CONTINUOUS
10
82.3465
20
-77.3928
11
82.3465
21
-76.4804
0
LINE
8
BLACK
6
CONTINUOUS
10
82.3465
20
-76.4804
11
82.3612
21
-76.397
0
LINE
8
BLACK
6
CONTINUOUS
10
82.3612
20
-76.397
11
82.4035
21
-76.3237
0
LINE
8
BLACK
6
CONTINUOUS
10
82.4035
20
-76.3237
11
82.4684
21
-76.2693
0
LINE
8
BLACK
6
CONTINUOUS
10
82.4684
20
-76.2693
11
82.5902
21
-76.2366
0
LINE
8
BLACK
6
CONTINUOUS
10
82.5902
20
-76.2366
11
83.0777
21
-76.2366
0
LINE
8
BLACK
6
CONTINUOUS
10
83.0777
20
-76.2366
11
83.1611
21
-76.2513
0
LINE
8
BLACK
6
CONTINUOUS
10
100.428
20
-76.8067
11
99.7776
21
-76.8067
0
LINE
8
BLACK
6
CONTINUOUS
10
99.7776
20
-76.8067
11
99.7776
21
-75.7467
0
LINE
8
BLACK
6
CONTINUOUS
10
99.7776
20
-75.7467
11
100.428
21
-75.7467
0
LINE
8
BLACK
6
CONTINUOUS
10
100.428
20
-75.7467
11
100.428
21
-76.8067
0
LINE
8
BLACK
6
CONTINUOUS
10
101.378
20
-76.8067
11
100.728
21
-76.8067
0
LINE
8
BLACK
6
CONTINUOUS
10
100.728
20
-76.8067
11
100.728
21
-75.7467
0
LINE
8
BLACK
6
CONTINUOUS
10
100.728
20
-75.7467
11
101.378
21
-75.7467
0
LINE
8
BLACK
6
CONTINUOUS
10
101.378
20
-75.7467
11
101.378
21
-76.8067
0
LINE
8
BLACK
6
CONTINUOUS
10
102.328
20
-76.8067
11
101.678
21
-76.8067
0
LINE
8
BLACK
6
CONTINUOUS
10
101.678
20
-76.8067
11
101.678
21
-75.7467
0
LINE
8
BLACK
6
CONTINUOUS
10
101.678
20
-75.7467
11
102.328
21
-75.7467
0
LINE
8
BLACK
6
CONTINUOUS
10
102.328
20
-75.7467
11
102.328
21
-76.8067
0
LINE
8
BLACK
6
CONTINUOUS
10
107.575
20
-75.4455
11
107.649
21
-75.4878
0
LINE
8
BLACK
6
CONTINUOUS
10
107.649
20
-75.4878
11
107.703
21
-75.5527
0
LINE
8
BLACK
6
CONTINUOUS
10
107.703
20
-75.5527
11
107.736
21
-75.6745
0
LINE
8
BLACK
6
CONTINUOUS
10
107.736
20
-75.6745
11
107.736
21
-76.162
0
LINE
8
BLACK
6
CONTINUOUS
10
107.736
20
-76.162
11
107.721
21
-76.2454
0
LINE
8
BLACK
6
CONTINUOUS
10
107.721
20
-76.2454
11
107.679
21
-76.3187
0
LINE
8
BLACK
6
CONTINUOUS
10
107.679
20
-76.3187
11
107.614
21
-76.3731
0
LINE
8
BLACK
6
CONTINUOUS
10
107.614
20
-76.3731
11
107.492
21
-76.4058
0
LINE
8
BLACK
6
CONTINUOUS
10
107.492
20
-76.4058
11
106.579
21
-76.4058
0
LINE
8
BLACK
6
CONTINUOUS
10
106.579
20
-76.4058
11
106.496
21
-76.3911
0
LINE
8
BLACK
6
CONTINUOUS
10
106.496
20
-76.3911
11
106.423
21
-76.3488
0
LINE
8
BLACK
6
CONTINUOUS
10
106.423
20
-76.3488
11
106.368
21
-76.2839
0
LINE
8
BLACK
6
CONTINUOUS
10
106.368
20
-76.2839
11
106.336
21
-76.162
0
LINE
8
BLACK
6
CONTINUOUS
10
106.336
20
-76.162
11
106.336
21
-75.6745
0
LINE
8
BLACK
6
CONTINUOUS
10
106.336
20
-75.6745
11
106.35
21
-75.5912
0
LINE
8
BLACK
6
CONTINUOUS
10
106.35
20
-75.5912
11
106.393
21
-75.5179
0
LINE
8
BLACK
6
CONTINUOUS
10
106.393
20
-75.5179
11
106.457
21
-75.4635
0
LINE
8
BLACK
6
CONTINUOUS
10
106.457
20
-75.4635
11
106.579
21
-75.4308
0
LINE
8
BLACK
6
CONTINUOUS
10
106.579
20
-75.4308
11
107.492
21
-75.4308
0
LINE
8
BLACK
6
CONTINUOUS
10
107.492
20
-75.4308
11
107.575
21
-75.4455
0
LINE
8
BLACK
6
CONTINUOUS
10
83.2446
20
-75.3734
11
82.4446
21
-75.3734
0
LINE
8
BLACK
6
CONTINUOUS
10
82.4446
20
-75.3734
11
82.4446
21
-73.4734
0
LINE
8
BLACK
6
CONTINUOUS
10
82.4446
20
-73.4734
11
83.2446
21
-73.4734
0
LINE
8
BLACK
6
CONTINUOUS
10
83.2446
20
-73.4734
11
83.2446
21
-75.3734
0
LINE
8
BLACK
6
CONTINUOUS
10
85.1446
20
-75.3734
11
84.3446
21
-75.3734
0
LINE
8
BLACK
6
CONTINUOUS
10
84.3446
20
-75.3734
11
84.3446
21
-73.4734
0
LINE
8
BLACK
6
CONTINUOUS
10
84.3446
20
-73.4734
11
85.1446
21
-73.4734
0
LINE
8
BLACK
6
CONTINUOUS
10
85.1446
20
-73.4734
11
85.1446
21
-75.3734
0
LINE
8
BLACK
6
CONTINUOUS
10
102.306
20
-73.3811
11
102.379
21
-73.4234
0
LINE
8
BLACK
6
CONTINUOUS
10
102.379
20
-73.4234
11
102.434
21
-73.4883
0
LINE
8
BLACK
6
CONTINUOUS
10
102.434
20
-73.4883
11
102.466
21
-73.6101
0
LINE
8
BLACK
6
CONTINUOUS
10
102.466
20
-73.6101
11
102.466
21
-74.5226
0
LINE
8
BLACK
6
CONTINUOUS
10
102.466
20
-74.5226
11
102.451
21
-74.606
0
LINE
8
BLACK
6
CONTINUOUS
10
102.451
20
-74.606
11
102.409
21
-74.6793
0
LINE
8
BLACK
6
CONTINUOUS
10
102.409
20
-74.6793
11
102.344
21
-74.7337
0
LINE
8
BLACK
6
CONTINUOUS
10
102.344
20
-74.7337
11
102.222
21
-74.7664
0
LINE
8
BLACK
6
CONTINUOUS
10
102.222
20
-74.7664
11
101.735
21
-74.7664
0
LINE
8
BLACK
6
CONTINUOUS
10
101.735
20
-74.7664
11
101.652
21
-74.7517
0
LINE
8
BLACK
6
CONTINUOUS
10
101.652
20
-74.7517
11
101.578
21
-74.7094
0
LINE
8
BLACK
6
CONTINUOUS
10
101.578
20
-74.7094
11
101.524
21
-74.6445
0
LINE
8
BLACK
6
CONTINUOUS
10
101.524
20
-74.6445
11
101.491
21
-74.5226
0
LINE
8
BLACK
6
CONTINUOUS
10
101.491
20
-74.5226
11
101.491
21
-73.6101
0
LINE
8
BLACK
6
CONTINUOUS
10
101.491
20
-73.6101
11
101.506
21
-73.5268
0
LINE
8
BLACK
6
CONTINUOUS
10
101.506
20
-73.5268
11
101.548
21
-73.4535
0
LINE
8
BLACK
6
CONTINUOUS
10
101.548
20
-73.4535
11
101.613
21
-73.3991
0
LINE
8
BLACK
6
CONTINUOUS
10
101.613
20
-73.3991
11
101.735
21
-73.3664
0
LINE
8
BLACK
6
CONTINUOUS
10
101.735
20
-73.3664
11
102.222
21
-73.3664
0
LINE
8
BLACK
6
CONTINUOUS
10
102.222
20
-73.3664
11
102.306
21
-73.3811
0
LINE
8
BLACK
6
CONTINUOUS
10
100.431
20
-73.3811
11
100.504
21
-73.4234
0
LINE
8
BLACK
6
CONTINUOUS
10
100.504
20
-73.4234
11
100.559
21
-73.4883
0
LINE
8
BLACK
6
CONTINUOUS
10
100.559
20
-73.4883
11
100.591
21
-73.6101
0
LINE
8
BLACK
6
CONTINUOUS
10
100.591
20
-73.6101
11
100.591
21
-74.5226
0
LINE
8
BLACK
6
CONTINUOUS
10
100.591
20
-74.5226
11
100.576
21
-74.606
0
LINE
8
BLACK
6
CONTINUOUS
10
100.576
20
-74.606
11
100.534
21
-74.6793
0
LINE
8
BLACK
6
CONTINUOUS
10
100.534
20
-74.6793
11
100.469
21
-74.7337
0
LINE
8
BLACK
6
CONTINUOUS
10
100.469
20
-74.7337
11
100.347
21
-74.7664
0
LINE
8
BLACK
6
CONTINUOUS
10
100.347
20
-74.7664
11
99.8599
21
-74.7664
0
LINE
8
BLACK
6
CONTINUOUS
10
99.8599
20
-74.7664
11
99.7766
21
-74.7517
0
LINE
8
BLACK
6
CONTINUOUS
10
99.7766
20
-74.7517
11
99.7033
21
-74.7094
0
LINE
8
BLACK
6
CONTINUOUS
10
99.7033
20
-74.7094
11
99.6489
21
-74.6445
0
LINE
8
BLACK
6
CONTINUOUS
10
99.6489
20
-74.6445
11
99.6162
21
-74.5226
0
LINE
8
BLACK
6
CONTINUOUS
10
99.6162
20
-74.5226
11
99.6162
21
-73.6101
0
LINE
8
BLACK
6
CONTINUOUS
10
99.6162
20
-73.6101
11
99.6309
21
-73.5268
0
LINE
8
BLACK
6
CONTINUOUS
10
99.6309
20
-73.5268
11
99.6732
21
-73.4535
0
LINE
8
BLACK
6
CONTINUOUS
10
99.6732
20
-73.4535
11
99.7381
21
-73.3991
0
LINE
8
BLACK
6
CONTINUOUS
10
99.7381
20
-73.3991
11
99.8599
21
-73.3664
0
LINE
8
BLACK
6
CONTINUOUS
10
99.8599
20
-73.3664
11
100.347
21
-73.3664
0
LINE
8
BLACK
6
CONTINUOUS
10
100.347
20
-73.3664
11
100.431
21
-73.3811
0
LINE
8
BLACK
6
CONTINUOUS
10
107.575
20
-73.5705
11
107.649
21
-73.6128
0
LINE
8
BLACK
6
CONTINUOUS
10
107.649
20
-73.6128
11
107.703
21
-73.6777
0
LINE
8
BLACK
6
CONTINUOUS
10
107.703
20
-73.6777
11
107.736
21
-73.7995
0
LINE
8
BLACK
6
CONTINUOUS
10
107.736
20
-73.7995
11
107.736
21
-74.287
0
LINE
8
BLACK
6
CONTINUOUS
10
107.736
20
-74.287
11
107.721
21
-74.3704
0
LINE
8
BLACK
6
CONTINUOUS
10
107.721
20
-74.3704
11
107.679
21
-74.4437
0
LINE
8
BLACK
6
CONTINUOUS
10
107.679
20
-74.4437
11
107.614
21
-74.4981
0
LINE
8
BLACK
6
CONTINUOUS
10
107.614
20
-74.4981
11
107.492
21
-74.5308
0
LINE
8
BLACK
6
CONTINUOUS
10
107.492
20
-74.5308
11
106.579
21
-74.5308
0
LINE
8
BLACK
6
CONTINUOUS
10
106.579
20
-74.5308
11
106.496
21
-74.5161
0
LINE
8
BLACK
6
CONTINUOUS
10
106.496
20
-74.5161
11
106.423
21
-74.4738
0
LINE
8
BLACK
6
CONTINUOUS
10
106.423
20
-74.4738
11
106.368
21
-74.4089
0
LINE
8
BLACK
6
CONTINUOUS
10
106.368
20
-74.4089
11
106.336
21
-74.287
0
LINE
8
BLACK
6
CONTINUOUS
10
106.336
20
-74.287
11
106.336
21
-73.7995
0
LINE
8
BLACK
6
CONTINUOUS
10
106.336
20
-73.7995
11
106.35
21
-73.7162
0
LINE
8
BLACK
6
CONTINUOUS
10
106.35
20
-73.7162
11
106.393
21
-73.6429
0
LINE
8
BLACK
6
CONTINUOUS
10
106.393
20
-73.6429
11
106.457
21
-73.5885
0
LINE
8
BLACK
6
CONTINUOUS
10
106.457
20
-73.5885
11
106.579
21
-73.5558
0
LINE
8
BLACK
6
CONTINUOUS
10
106.579
20
-73.5558
11
107.492
21
-73.5558
0
LINE
8
BLACK
6
CONTINUOUS
10
107.492
20
-73.5558
11
107.575
21
-73.5705
0
LINE
8
BLACK
6
CONTINUOUS
10
89.5302
20
-74.1226
11
88.9302
21
-74.1226
0
LINE
8
BLACK
6
CONTINUOUS
10
88.9302
20
-74.1226
11
88.9302
21
-72.5726
0
LINE
8
BLACK
6
CONTINUOUS
10
88.9302
20
-72.5726
11
89.5302
21
-72.5726
0
LINE
8
BLACK
6
CONTINUOUS
10
89.5302
20
-72.5726
11
89.5302
21
-74.1226
0
LINE
8
BLACK
6
CONTINUOUS
10
90.8002
20
-74.1226
11
90.2002
21
-74.1226
0
LINE
8
BLACK
6
CONTINUOUS
10
90.2002
20
-74.1226
11
90.2002
21
-72.5726
0
LINE
8
BLACK
6
CONTINUOUS
10
90.2002
20
-72.5726
11
90.8002
21
-72.5726
0
LINE
8
BLACK
6
CONTINUOUS
10
90.8002
20
-72.5726
11
90.8002
21
-74.1226
0
LINE
8
BLACK
6
CONTINUOUS
10
92.0702
20
-74.1226
11
91.4702
21
-74.1226
0
LINE
8
BLACK
6
CONTINUOUS
10
91.4702
20
-74.1226
11
91.4702
21
-72.5726
0
LINE
8
BLACK
6
CONTINUOUS
10
91.4702
20
-72.5726
11
92.0702
21
-72.5726
0
LINE
8
BLACK
6
CONTINUOUS
10
92.0702
20
-72.5726
11
92.0702
21
-74.1226
0
LINE
8
BLACK
6
CONTINUOUS
10
93.3402
20
-74.1226
11
92.7402
21
-74.1226
0
LINE
8
BLACK
6
CONTINUOUS
10
92.7402
20
-74.1226
11
92.7402
21
-72.5726
0
LINE
8
BLACK
6
CONTINUOUS
10
92.7402
20
-72.5726
11
93.3402
21
-72.5726
0
LINE
8
BLACK
6
CONTINUOUS
10
93.3402
20
-72.5726
11
93.3402
21
-74.1226
0
LINE
8
BLACK
6
CONTINUOUS
10
97.6312
20
-73.4176
11
96.8312
21
-73.4176
0
LINE
8
BLACK
6
CONTINUOUS
10
96.8312
20
-73.4176
11
96.8312
21
-71.5176
0
LINE
8
BLACK
6
CONTINUOUS
10
96.8312
20
-71.5176
11
97.6312
21
-71.5176
0
LINE
8
BLACK
6
CONTINUOUS
10
97.6312
20
-71.5176
11
97.6312
21
-73.4176
0
LINE
8
BLACK
6
CONTINUOUS
10
84.1946
20
-72.3734
11
83.3946
21
-72.3734
0
LINE
8
BLACK
6
CONTINUOUS
10
83.3946
20
-72.3734
11
83.3946
21
-70.4734
0
LINE
8
BLACK
6
CONTINUOUS
10
83.3946
20
-70.4734
11
84.1946
21
-70.4734
0
LINE
8
BLACK
6
CONTINUOUS
10
84.1946
20
-70.4734
11
84.1946
21
-72.3734
0
LINE
8
BLACK
6
CONTINUOUS
10
102.334
20
-70.8411
11
102.407
21
-70.8834
0
LINE
8
BLACK
6
CONTINUOUS
10
102.407
20
-70.8834
11
102.461
21
-70.9483
0
LINE
8
BLACK
6
CONTINUOUS
10
102.461
20
-70.9483
11
102.494
21
-71.0701
0
LINE
8
BLACK
6
CONTINUOUS
10
102.494
20
-71.0701
11
102.494
21
-71.9826
0
LINE
8
BLACK
6
CONTINUOUS
10
102.494
20
-71.9826
11
102.479
21
-72.066
0
LINE
8
BLACK
6
CONTINUOUS
10
102.479
20
-72.066
11
102.437
21
-72.1393
0
LINE
8
BLACK
6
CONTINUOUS
10
102.437
20
-72.1393
11
102.372
21
-72.1937
0
LINE
8
BLACK
6
CONTINUOUS
10
102.372
20
-72.1937
11
102.25
21
-72.2264
0
LINE
8
BLACK
6
CONTINUOUS
10
102.25
20
-72.2264
11
101.763
21
-72.2264
0
LINE
8
BLACK
6
CONTINUOUS
10
101.763
20
-72.2264
11
101.679
21
-72.2117
0
LINE
8
BLACK
6
CONTINUOUS
10
101.679
20
-72.2117
11
101.606
21
-72.1694
0
LINE
8
BLACK
6
CONTINUOUS
10
101.606
20
-72.1694
11
101.552
21
-72.1045
0
LINE
8
BLACK
6
CONTINUOUS
10
101.552
20
-72.1045
11
101.519
21
-71.9826
0
LINE
8
BLACK
6
CONTINUOUS
10
101.519
20
-71.9826
11
101.519
21
-71.0701
0
LINE
8
BLACK
6
CONTINUOUS
10
101.519
20
-71.0701
11
101.534
21
-70.9868
0
LINE
8
BLACK
6
CONTINUOUS
10
101.534
20
-70.9868
11
101.576
21
-70.9135
0
LINE
8
BLACK
6
CONTINUOUS
10
101.576
20
-70.9135
11
101.641
21
-70.8591
0
LINE
8
BLACK
6
CONTINUOUS
10
101.641
20
-70.8591
11
101.763
21
-70.8264
0
LINE
8
BLACK
6
CONTINUOUS
10
101.763
20
-70.8264
11
102.25
21
-70.8264
0
LINE
8
BLACK
6
CONTINUOUS
10
102.25
20
-70.8264
11
102.334
21
-70.8411
0
LINE
8
BLACK
6
CONTINUOUS
10
100.459
20
-70.8411
11
100.532
21
-70.8834
0
LINE
8
BLACK
6
CONTINUOUS
10
100.532
20
-70.8834
11
100.586
21
-70.9483
0
LINE
8
BLACK
6
CONTINUOUS
10
100.586
20
-70.9483
11
100.619
21
-71.0701
0
LINE
8
BLACK
6
CONTINUOUS
10
100.619
20
-71.0701
11
100.619
21
-71.9826
0
LINE
8
BLACK
6
CONTINUOUS
10
100.619
20
-71.9826
11
100.604
21
-72.066
0
LINE
8
BLACK
6
CONTINUOUS
10
100.604
20
-72.066
11
100.562
21
-72.1393
0
LINE
8
BLACK
6
CONTINUOUS
10
100.562
20
-72.1393
11
100.497
21
-72.1937
0
LINE
8
BLACK
6
CONTINUOUS
10
100.497
20
-72.1937
11
100.375
21
-72.2264
0
LINE
8
BLACK
6
CONTINUOUS
10
100.375
20
-72.2264
11
99.8876
21
-72.2264
0
LINE
8
BLACK
6
CONTINUOUS
10
99.8876
20
-72.2264
11
99.8043
21
-72.2117
0
LINE
8
BLACK
6
CONTINUOUS
10
99.8043
20
-72.2117
11
99.731
21
-72.1694
0
LINE
8
BLACK
6
CONTINUOUS
10
99.731
20
-72.1694
11
99.6766
21
-72.1045
0
LINE
8
BLACK
6
CONTINUOUS
10
99.6766
20
-72.1045
11
99.6439
21
-71.9826
0
LINE
8
BLACK
6
CONTINUOUS
10
99.6439
20
-71.9826
11
99.6439
21
-71.0701
0
LINE
8
BLACK
6
CONTINUOUS
10
99.6439
20
-71.0701
11
99.6586
21
-70.9868
0
LINE
8
BLACK
6
CONTINUOUS
10
99.6586
20
-70.9868
11
99.7009
21
-70.9135
0
LINE
8
BLACK
6
CONTINUOUS
10
99.7009
20
-70.9135
11
99.7658
21
-70.8591
0
LINE
8
BLACK
6
CONTINUOUS
10
99.7658
20
-70.8591
11
99.8876
21
-70.8264
0
LINE
8
BLACK
6
CONTINUOUS
10
99.8876
20
-70.8264
11
100.375
21
-70.8264
0
LINE
8
BLACK
6
CONTINUOUS
10
100.375
20
-70.8264
11
100.459
21
-70.8411
0
LINE
8
BLACK
6
CONTINUOUS
10
91.6147
20
-70.4347
11
91.688
21
-70.477
0
LINE
8
BLACK
6
CONTINUOUS
10
91.688
20
-70.477
11
91.7424
21
-70.5419
0
LINE
8
BLACK
6
CONTINUOUS
10
91.7424
20
-70.5419
11
91.7751
21
-70.6637
0
LINE
8
BLACK
6
CONTINUOUS
10
91.7751
20
-70.6637
11
91.7751
21
-71.5763
0
LINE
8
BLACK
6
CONTINUOUS
10
91.7751
20
-71.5763
11
91.7604
21
-71.6596
0
LINE
8
BLACK
6
CONTINUOUS
10
91.7604
20
-71.6596
11
91.7181
21
-71.7329
0
LINE
8
BLACK
6
CONTINUOUS
10
91.7181
20
-71.7329
11
91.6532
21
-71.7873
0
LINE
8
BLACK
6
CONTINUOUS
10
91.6532
20
-71.7873
11
91.5313
21
-71.82
0
LINE
8
BLACK
6
CONTINUOUS
10
91.5313
20
-71.82
11
91.0438
21
-71.82
0
LINE
8
BLACK
6
CONTINUOUS
10
91.0438
20
-71.82
11
90.9605
21
-71.8053
0
LINE
8
BLACK
6
CONTINUOUS
10
90.9605
20
-71.8053
11
90.8872
21
-71.763
0
LINE
8
BLACK
6
CONTINUOUS
10
90.8872
20
-71.763
11
90.8328
21
-71.6981
0
LINE
8
BLACK
6
CONTINUOUS
10
90.8328
20
-71.6981
11
90.8001
21
-71.5763
0
LINE
8
BLACK
6
CONTINUOUS
10
90.8001
20
-71.5763
11
90.8001
21
-70.6637
0
LINE
8
BLACK
6
CONTINUOUS
10
90.8001
20
-70.6637
11
90.8148
21
-70.5804
0
LINE
8
BLACK
6
CONTINUOUS
10
90.8148
20
-70.5804
11
90.8571
21
-70.5071
0
LINE
8
BLACK
6
CONTINUOUS
10
90.8571
20
-70.5071
11
90.922
21
-70.4527
0
LINE
8
BLACK
6
CONTINUOUS
10
90.922
20
-70.4527
11
91.0438
21
-70.42
0
LINE
8
BLACK
6
CONTINUOUS
10
91.0438
20
-70.42
11
91.5313
21
-70.42
0
LINE
8
BLACK
6
CONTINUOUS
10
91.5313
20
-70.42
11
91.6147
21
-70.4347
0
LINE
8
BLACK
6
CONTINUOUS
10
89.7397
20
-70.4347
11
89.813
21
-70.477
0
LINE
8
BLACK
6
CONTINUOUS
10
89.813
20
-70.477
11
89.8674
21
-70.5419
0
LINE
8
BLACK
6
CONTINUOUS
10
89.8674
20
-70.5419
11
89.9001
21
-70.6637
0
LINE
8
BLACK
6
CONTINUOUS
10
89.9001
20
-70.6637
11
89.9001
21
-71.5763
0
LINE
8
BLACK
6
CONTINUOUS
10
89.9001
20
-71.5763
11
89.8854
21
-71.6596
0
LINE
8
BLACK
6
CONTINUOUS
10
89.8854
20
-71.6596
11
89.8431
21
-71.7329
0
LINE
8
BLACK
6
CONTINUOUS
10
89.8431
20
-71.7329
11
89.7782
21
-71.7873
0
LINE
8
BLACK
6
CONTINUOUS
10
89.7782
20
-71.7873
11
89.6563
21
-71.82
0
LINE
8
BLACK
6
CONTINUOUS
10
89.6563
20
-71.82
11
89.1688
21
-71.82
0
LINE
8
BLACK
6
CONTINUOUS
10
89.1688
20
-71.82
11
89.0855
21
-71.8053
0
LINE
8
BLACK
6
CONTINUOUS
10
89.0855
20
-71.8053
11
89.0122
21
-71.763
0
LINE
8
BLACK
6
CONTINUOUS
10
89.0122
20
-71.763
11
88.9578
21
-71.6981
0
LINE
8
BLACK
6
CONTINUOUS
10
88.9578
20
-71.6981
11
88.9251
21
-71.5763
0
LINE
8
BLACK
6
CONTINUOUS
10
88.9251
20
-71.5763
11
88.9251
21
-70.6637
0
LINE
8
BLACK
6
CONTINUOUS
10
88.9251
20
-70.6637
11
88.9398
21
-70.5804
0
LINE
8
BLACK
6
CONTINUOUS
10
88.9398
20
-70.5804
11
88.9821
21
-70.5071
0
LINE
8
BLACK
6
CONTINUOUS
10
88.9821
20
-70.5071
11
89.047
21
-70.4527
0
LINE
8
BLACK
6
CONTINUOUS
10
89.047
20
-70.4527
11
89.1688
21
-70.42
0
LINE
8
BLACK
6
CONTINUOUS
10
89.1688
20
-70.42
11
89.6563
21
-70.42
0
LINE
8
BLACK
6
CONTINUOUS
10
89.6563
20
-70.42
11
89.7397
21
-70.4347
0
LINE
8
BLACK
6
CONTINUOUS
10
96.6812
20
-70.4176
11
95.8812
21
-70.4176
0
LINE
8
BLACK
6
CONTINUOUS
10
95.8812
20
-70.4176
11
95.8812
21
-68.5176
0
LINE
8
BLACK
6
CONTINUOUS
10
95.8812
20
-68.5176
11
96.6812
21
-68.5176
0
LINE
8
BLACK
6
CONTINUOUS
10
96.6812
20
-68.5176
11
96.6812
21
-70.4176
0
LINE
8
BLACK
6
CONTINUOUS
10
98.5812
20
-70.4176
11
97.7812
21
-70.4176
0
LINE
8
BLACK
6
CONTINUOUS
10
97.7812
20
-70.4176
11
97.7812
21
-68.5176
0
LINE
8
BLACK
6
CONTINUOUS
10
97.7812
20
-68.5176
11
98.5812
21
-68.5176
0
LINE
8
BLACK
6
CONTINUOUS
10
98.5812
20
-68.5176
11
98.5812
21
-70.4176
0
LINE
8
BLACK
6
CONTINUOUS
10
100.56
20
-68.5551
11
100.633
21
-68.5974
0
LINE
8
BLACK
6
CONTINUOUS
10
100.633
20
-68.5974
11
100.688
21
-68.6623
0
LINE
8
BLACK
6
CONTINUOUS
10
100.688
20
-68.6623
11
100.721
21
-68.7841
0
LINE
8
BLACK
6
CONTINUOUS
10
100.721
20
-68.7841
11
100.721
21
-69.6966
0
LINE
8
BLACK
6
CONTINUOUS
10
100.721
20
-69.6966
11
100.706
21
-69.78
0
LINE
8
BLACK
6
CONTINUOUS
10
100.706
20
-69.78
11
100.663
21
-69.8533
0
LINE
8
BLACK
6
CONTINUOUS
10
100.663
20
-69.8533
11
100.599
21
-69.9077
0
LINE
8
BLACK
6
CONTINUOUS
10
100.599
20
-69.9077
11
100.477
21
-69.9404
0
LINE
8
BLACK
6
CONTINUOUS
10
100.477
20
-69.9404
11
99.9892
21
-69.9404
0
LINE
8
BLACK
6
CONTINUOUS
10
99.9892
20
-69.9404
11
99.9059
21
-69.9257
0
LINE
8
BLACK
6
CONTINUOUS
10
99.9059
20
-69.9257
11
99.8326
21
-69.8834
0
LINE
8
BLACK
6
CONTINUOUS
10
99.8326
20
-69.8834
11
99.7782
21
-69.8185
0
LINE
8
BLACK
6
CONTINUOUS
10
99.7782
20
-69.8185
11
99.7455
21
-69.6966
0
LINE
8
BLACK
6
CONTINUOUS
10
99.7455
20
-69.6966
11
99.7455
21
-68.7841
0
LINE
8
BLACK
6
CONTINUOUS
10
99.7455
20
-68.7841
11
99.7602
21
-68.7008
0
LINE
8
BLACK
6
CONTINUOUS
10
99.7602
20
-68.7008
11
99.8025
21
-68.6275
0
LINE
8
BLACK
6
CONTINUOUS
10
99.8025
20
-68.6275
11
99.8674
21
-68.5731
0
LINE
8
BLACK
6
CONTINUOUS
10
99.8674
20
-68.5731
11
99.9892
21
-68.5404
0
LINE
8
BLACK
6
CONTINUOUS
10
99.9892
20
-68.5404
11
100.477
21
-68.5404
0
LINE
8
BLACK
6
CONTINUOUS
10
100.477
20
-68.5404
11
100.56
21
-68.5551
0
LINE
8
BLACK
6
CONTINUOUS
10
102.435
20
-68.5551
11
102.508
21
-68.5974
0
LINE
8
BLACK
6
CONTINUOUS
10
102.508
20
-68.5974
11
102.563
21
-68.6623
0
LINE
8
BLACK
6
CONTINUOUS
10
102.563
20
-68.6623
11
102.596
21
-68.7841
0
LINE
8
BLACK
6
CONTINUOUS
10
102.596
20
-68.7841
11
102.596
21
-69.6966
0
LINE
8
BLACK
6
CONTINUOUS
10
102.596
20
-69.6966
11
102.581
21
-69.78
0
LINE
8
BLACK
6
CONTINUOUS
10
102.581
20
-69.78
11
102.538
21
-69.8533
0
LINE
8
BLACK
6
CONTINUOUS
10
102.538
20
-69.8533
11
102.474
21
-69.9077
0
LINE
8
BLACK
6
CONTINUOUS
10
102.474
20
-69.9077
11
102.352
21
-69.9404
0
LINE
8
BLACK
6
CONTINUOUS
10
102.352
20
-69.9404
11
101.864
21
-69.9404
0
LINE
8
BLACK
6
CONTINUOUS
10
101.864
20
-69.9404
11
101.781
21
-69.9257
0
LINE
8
BLACK
6
CONTINUOUS
10
101.781
20
-69.9257
11
101.708
21
-69.8834
0
LINE
8
BLACK
6
CONTINUOUS
10
101.708
20
-69.8834
11
101.653
21
-69.8185
0
LINE
8
BLACK
6
CONTINUOUS
10
101.653
20
-69.8185
11
101.62
21
-69.6966
0
LINE
8
BLACK
6
CONTINUOUS
10
101.62
20
-69.6966
11
101.62
21
-68.7841
0
LINE
8
BLACK
6
CONTINUOUS
10
101.62
20
-68.7841
11
101.635
21
-68.7008
0
LINE
8
BLACK
6
CONTINUOUS
10
101.635
20
-68.7008
11
101.678
21
-68.6275
0
LINE
8
BLACK
6
CONTINUOUS
10
101.678
20
-68.6275
11
101.742
21
-68.5731
0
LINE
8
BLACK
6
CONTINUOUS
10
101.742
20
-68.5731
11
101.864
21
-68.5404
0
LINE
8
BLACK
6
CONTINUOUS
10
101.864
20
-68.5404
11
102.352
21
-68.5404
0
LINE
8
BLACK
6
CONTINUOUS
10
102.352
20
-68.5404
11
102.435
21
-68.5551
0
LINE
8
BLACK
6
CONTINUOUS
10
91.5893
20
-68.4535
11
91.6626
21
-68.4958
0
LINE
8
BLACK
6
CONTINUOUS
10
91.6626
20
-68.4958
11
91.717
21
-68.5607
0
LINE
8
BLACK
6
CONTINUOUS
10
91.717
20
-68.5607
11
91.7497
21
-68.6825
0
LINE
8
BLACK
6
CONTINUOUS
10
91.7497
20
-68.6825
11
91.7497
21
-69.5951
0
LINE
8
BLACK
6
CONTINUOUS
10
91.7497
20
-69.5951
11
91.735
21
-69.6784
0
LINE
8
BLACK
6
CONTINUOUS
10
91.735
20
-69.6784
11
91.6927
21
-69.7517
0
LINE
8
BLACK
6
CONTINUOUS
10
91.6927
20
-69.7517
11
91.6278
21
-69.8061
0
LINE
8
BLACK
6
CONTINUOUS
10
91.6278
20
-69.8061
11
91.5059
21
-69.8388
0
LINE
8
BLACK
6
CONTINUOUS
10
91.5059
20
-69.8388
11
91.0185
21
-69.8388
0
LINE
8
BLACK
6
CONTINUOUS
10
91.0185
20
-69.8388
11
90.9351
21
-69.8241
0
LINE
8
BLACK
6
CONTINUOUS
10
90.9351
20
-69.8241
11
90.8618
21
-69.7818
0
LINE
8
BLACK
6
CONTINUOUS
10
90.8618
20
-69.7818
11
90.8074
21
-69.7169
0
LINE
8
BLACK
6
CONTINUOUS
10
90.8074
20
-69.7169
11
90.7747
21
-69.5951
0
LINE
8
BLACK
6
CONTINUOUS
10
90.7747
20
-69.5951
11
90.7747
21
-68.6825
0
LINE
8
BLACK
6
CONTINUOUS
10
90.7747
20
-68.6825
11
90.7894
21
-68.5992
0
LINE
8
BLACK
6
CONTINUOUS
10
90.7894
20
-68.5992
11
90.8317
21
-68.5259
0
LINE
8
BLACK
6
CONTINUOUS
10
90.8317
20
-68.5259
11
90.8966
21
-68.4715
0
LINE
8
BLACK
6
CONTINUOUS
10
90.8966
20
-68.4715
11
91.0185
21
-68.4388
0
LINE
8
BLACK
6
CONTINUOUS
10
91.0185
20
-68.4388
11
91.5059
21
-68.4388
0
LINE
8
BLACK
6
CONTINUOUS
10
91.5059
20
-68.4388
11
91.5893
21
-68.4535
0
LINE
8
BLACK
6
CONTINUOUS
10
89.7143
20
-68.4535
11
89.7876
21
-68.4958
0
LINE
8
BLACK
6
CONTINUOUS
10
89.7876
20
-68.4958
11
89.842
21
-68.5607
0
LINE
8
BLACK
6
CONTINUOUS
10
89.842
20
-68.5607
11
89.8747
21
-68.6825
0
LINE
8
BLACK
6
CONTINUOUS
10
89.8747
20
-68.6825
11
89.8747
21
-69.5951
0
LINE
8
BLACK
6
CONTINUOUS
10
89.8747
20
-69.5951
11
89.86
21
-69.6784
0
LINE
8
BLACK
6
CONTINUOUS
10
89.86
20
-69.6784
11
89.8177
21
-69.7517
0
LINE
8
BLACK
6
CONTINUOUS
10
89.8177
20
-69.7517
11
89.7528
21
-69.8061
0
LINE
8
BLACK
6
CONTINUOUS
10
89.7528
20
-69.8061
11
89.6309
21
-69.8388
0
LINE
8
BLACK
6
CONTINUOUS
10
89.6309
20
-69.8388
11
89.1435
21
-69.8388
0
LINE
8
BLACK
6
CONTINUOUS
10
89.1435
20
-69.8388
11
89.0601
21
-69.8241
0
LINE
8
BLACK
6
CONTINUOUS
10
89.0601
20
-69.8241
11
88.9868
21
-69.7818
0
LINE
8
BLACK
6
CONTINUOUS
10
88.9868
20
-69.7818
11
88.9324
21
-69.7169
0
LINE
8
BLACK
6
CONTINUOUS
10
88.9324
20
-69.7169
11
88.8997
21
-69.5951
0
LINE
8
BLACK
6
CONTINUOUS
10
88.8997
20
-69.5951
11
88.8997
21
-68.6825
0
LINE
8
BLACK
6
CONTINUOUS
10
88.8997
20
-68.6825
11
88.9144
21
-68.5992
0
LINE
8
BLACK
6
CONTINUOUS
10
88.9144
20
-68.5992
11
88.9567
21
-68.5259
0
LINE
8
BLACK
6
CONTINUOUS
10
88.9567
20
-68.5259
11
89.0216
21
-68.4715
0
LINE
8
BLACK
6
CONTINUOUS
10
89.0216
20
-68.4715
11
89.1435
21
-68.4388
0
LINE
8
BLACK
6
CONTINUOUS
10
89.1435
20
-68.4388
11
89.6309
21
-68.4388
0
LINE
8
BLACK
6
CONTINUOUS
10
89.6309
20
-68.4388
11
89.7143
21
-68.4535
  0
ENDSEC
  0
EOF
