G04 #@! TF.GenerationSoftware,KiCad,Pcbnew,5.0.2-bee76a0~70~ubuntu18.04.1*
G04 #@! TF.CreationDate,2019-11-03T21:10:50+01:00*
G04 #@! TF.ProjectId,puzzlebox,70757a7a-6c65-4626-9f78-2e6b69636164,rev?*
G04 #@! TF.SameCoordinates,Original*
G04 #@! TF.FileFunction,Soldermask,Bot*
G04 #@! TF.FilePolarity,Negative*
%FSLAX46Y46*%
G04 Gerber Fmt 4.6, Leading zero omitted, Abs format (unit mm)*
G04 Created by KiCad (PCBNEW 5.0.2-bee76a0~70~ubuntu18.04.1) date So 03 Nov 2019 21:10:50 CET*
%MOMM*%
%LPD*%
G01*
G04 APERTURE LIST*
%ADD10C,0.100000*%
G04 APERTURE END LIST*
D10*
G36*
X97166521Y-106572043D02*
X97284334Y-106607781D01*
X97392911Y-106665817D01*
X97464716Y-106724746D01*
X97485075Y-106738349D01*
X97507713Y-106747726D01*
X97531747Y-106752507D01*
X97556251Y-106752507D01*
X97580285Y-106747727D01*
X97602924Y-106738350D01*
X97623284Y-106724746D01*
X97695089Y-106665817D01*
X97803666Y-106607781D01*
X97921479Y-106572043D01*
X98013296Y-106563000D01*
X98074704Y-106563000D01*
X98166521Y-106572043D01*
X98284334Y-106607781D01*
X98392911Y-106665817D01*
X98464716Y-106724746D01*
X98485075Y-106738349D01*
X98507713Y-106747726D01*
X98531747Y-106752507D01*
X98556251Y-106752507D01*
X98580285Y-106747727D01*
X98602924Y-106738350D01*
X98623284Y-106724746D01*
X98695089Y-106665817D01*
X98803666Y-106607781D01*
X98921479Y-106572043D01*
X99013296Y-106563000D01*
X99074704Y-106563000D01*
X99166521Y-106572043D01*
X99257724Y-106599709D01*
X99281748Y-106604488D01*
X99306252Y-106604488D01*
X99330285Y-106599708D01*
X99352924Y-106590330D01*
X99373299Y-106576716D01*
X99387015Y-106563000D01*
X100669000Y-106563000D01*
X100669000Y-107813000D01*
X99386884Y-107813000D01*
X99382388Y-107807522D01*
X99363446Y-107791976D01*
X99341835Y-107780425D01*
X99318386Y-107773312D01*
X99294000Y-107770910D01*
X99269614Y-107773312D01*
X99257734Y-107776288D01*
X99166521Y-107803957D01*
X99074704Y-107813000D01*
X99013296Y-107813000D01*
X98921479Y-107803957D01*
X98803666Y-107768219D01*
X98695089Y-107710183D01*
X98623284Y-107651254D01*
X98602925Y-107637651D01*
X98580287Y-107628274D01*
X98556253Y-107623493D01*
X98531749Y-107623493D01*
X98507715Y-107628273D01*
X98485076Y-107637650D01*
X98464716Y-107651254D01*
X98392911Y-107710183D01*
X98284334Y-107768219D01*
X98166521Y-107803957D01*
X98074704Y-107813000D01*
X98013296Y-107813000D01*
X97921479Y-107803957D01*
X97803666Y-107768219D01*
X97695089Y-107710183D01*
X97623284Y-107651254D01*
X97602925Y-107637651D01*
X97580287Y-107628274D01*
X97556253Y-107623493D01*
X97531749Y-107623493D01*
X97507715Y-107628273D01*
X97485076Y-107637650D01*
X97464716Y-107651254D01*
X97392911Y-107710183D01*
X97284334Y-107768219D01*
X97166521Y-107803957D01*
X97074704Y-107813000D01*
X97013296Y-107813000D01*
X96921479Y-107803957D01*
X96803666Y-107768219D01*
X96695089Y-107710183D01*
X96599920Y-107632080D01*
X96521817Y-107536911D01*
X96463781Y-107428334D01*
X96428043Y-107310521D01*
X96415976Y-107188000D01*
X96428043Y-107065479D01*
X96463781Y-106947666D01*
X96521817Y-106839089D01*
X96599920Y-106743920D01*
X96695089Y-106665817D01*
X96803666Y-106607781D01*
X96921479Y-106572043D01*
X97013296Y-106563000D01*
X97074704Y-106563000D01*
X97166521Y-106572043D01*
X97166521Y-106572043D01*
G37*
G36*
X75644375Y-105035200D02*
X75745836Y-105045193D01*
X75877787Y-105085220D01*
X75943763Y-105105233D01*
X76126172Y-105202733D01*
X76286054Y-105333946D01*
X76417267Y-105493828D01*
X76514767Y-105676237D01*
X76514767Y-105676238D01*
X76574807Y-105874164D01*
X76595080Y-106080000D01*
X76574807Y-106285836D01*
X76534780Y-106417787D01*
X76514767Y-106483763D01*
X76417267Y-106666172D01*
X76286054Y-106826054D01*
X76126172Y-106957267D01*
X75943763Y-107054767D01*
X75877787Y-107074780D01*
X75745836Y-107114807D01*
X75668707Y-107122403D01*
X75591580Y-107130000D01*
X75488420Y-107130000D01*
X75411293Y-107122403D01*
X75334164Y-107114807D01*
X75202213Y-107074780D01*
X75136237Y-107054767D01*
X74953828Y-106957267D01*
X74793946Y-106826054D01*
X74662733Y-106666172D01*
X74565233Y-106483763D01*
X74545220Y-106417787D01*
X74505193Y-106285836D01*
X74484920Y-106080000D01*
X74505193Y-105874164D01*
X74565233Y-105676238D01*
X74565233Y-105676237D01*
X74662733Y-105493828D01*
X74793946Y-105333946D01*
X74953828Y-105202733D01*
X75136237Y-105105233D01*
X75202213Y-105085220D01*
X75334164Y-105045193D01*
X75435625Y-105035200D01*
X75488420Y-105030000D01*
X75591580Y-105030000D01*
X75644375Y-105035200D01*
X75644375Y-105035200D01*
G37*
G36*
X73104375Y-105035200D02*
X73205836Y-105045193D01*
X73337787Y-105085220D01*
X73403763Y-105105233D01*
X73586172Y-105202733D01*
X73746054Y-105333946D01*
X73877267Y-105493828D01*
X73974767Y-105676237D01*
X73974767Y-105676238D01*
X74034807Y-105874164D01*
X74055080Y-106080000D01*
X74034807Y-106285836D01*
X73994780Y-106417787D01*
X73974767Y-106483763D01*
X73877267Y-106666172D01*
X73746054Y-106826054D01*
X73586172Y-106957267D01*
X73403763Y-107054767D01*
X73337787Y-107074780D01*
X73205836Y-107114807D01*
X73128707Y-107122403D01*
X73051580Y-107130000D01*
X72948420Y-107130000D01*
X72871293Y-107122403D01*
X72794164Y-107114807D01*
X72662213Y-107074780D01*
X72596237Y-107054767D01*
X72413828Y-106957267D01*
X72253946Y-106826054D01*
X72122733Y-106666172D01*
X72025233Y-106483763D01*
X72005220Y-106417787D01*
X71965193Y-106285836D01*
X71944920Y-106080000D01*
X71965193Y-105874164D01*
X72025233Y-105676238D01*
X72025233Y-105676237D01*
X72122733Y-105493828D01*
X72253946Y-105333946D01*
X72413828Y-105202733D01*
X72596237Y-105105233D01*
X72662213Y-105085220D01*
X72794164Y-105045193D01*
X72895625Y-105035200D01*
X72948420Y-105030000D01*
X73051580Y-105030000D01*
X73104375Y-105035200D01*
X73104375Y-105035200D01*
G37*
G36*
X91663026Y-102909915D02*
X91881412Y-103000373D01*
X92077958Y-103131701D01*
X92245099Y-103298842D01*
X92376427Y-103495388D01*
X92466885Y-103713774D01*
X92513000Y-103945609D01*
X92513000Y-104181991D01*
X92466885Y-104413826D01*
X92376427Y-104632212D01*
X92245099Y-104828758D01*
X92077958Y-104995899D01*
X91881412Y-105127227D01*
X91663026Y-105217685D01*
X91431191Y-105263800D01*
X91194809Y-105263800D01*
X90962974Y-105217685D01*
X90744588Y-105127227D01*
X90548042Y-104995899D01*
X90380901Y-104828758D01*
X90249573Y-104632212D01*
X90159115Y-104413826D01*
X90113000Y-104181991D01*
X90113000Y-103945609D01*
X90159115Y-103713774D01*
X90249573Y-103495388D01*
X90380901Y-103298842D01*
X90548042Y-103131701D01*
X90744588Y-103000373D01*
X90962974Y-102909915D01*
X91194809Y-102863800D01*
X91431191Y-102863800D01*
X91663026Y-102909915D01*
X91663026Y-102909915D01*
G37*
G36*
X95092026Y-102732115D02*
X95310412Y-102822573D01*
X95506958Y-102953901D01*
X95674099Y-103121042D01*
X95805427Y-103317588D01*
X95895885Y-103535974D01*
X95942000Y-103767809D01*
X95942000Y-104004191D01*
X95895885Y-104236026D01*
X95805427Y-104454412D01*
X95674099Y-104650958D01*
X95506958Y-104818099D01*
X95310412Y-104949427D01*
X95092026Y-105039885D01*
X94860191Y-105086000D01*
X94623809Y-105086000D01*
X94391974Y-105039885D01*
X94173588Y-104949427D01*
X93977042Y-104818099D01*
X93809901Y-104650958D01*
X93678573Y-104454412D01*
X93588115Y-104236026D01*
X93542000Y-104004191D01*
X93542000Y-103767809D01*
X93588115Y-103535974D01*
X93678573Y-103317588D01*
X93809901Y-103121042D01*
X93977042Y-102953901D01*
X94173588Y-102822573D01*
X94391974Y-102732115D01*
X94623809Y-102686000D01*
X94860191Y-102686000D01*
X95092026Y-102732115D01*
X95092026Y-102732115D01*
G37*
G36*
X102077026Y-102706715D02*
X102295412Y-102797173D01*
X102491958Y-102928501D01*
X102659099Y-103095642D01*
X102790427Y-103292188D01*
X102880885Y-103510574D01*
X102927000Y-103742409D01*
X102927000Y-103978791D01*
X102880885Y-104210626D01*
X102790427Y-104429012D01*
X102659099Y-104625558D01*
X102491958Y-104792699D01*
X102295412Y-104924027D01*
X102077026Y-105014485D01*
X101845191Y-105060600D01*
X101608809Y-105060600D01*
X101376974Y-105014485D01*
X101158588Y-104924027D01*
X100962042Y-104792699D01*
X100794901Y-104625558D01*
X100663573Y-104429012D01*
X100573115Y-104210626D01*
X100527000Y-103978791D01*
X100527000Y-103742409D01*
X100573115Y-103510574D01*
X100663573Y-103292188D01*
X100794901Y-103095642D01*
X100962042Y-102928501D01*
X101158588Y-102797173D01*
X101376974Y-102706715D01*
X101608809Y-102660600D01*
X101845191Y-102660600D01*
X102077026Y-102706715D01*
X102077026Y-102706715D01*
G37*
G36*
X98571826Y-102681315D02*
X98790212Y-102771773D01*
X98986758Y-102903101D01*
X99153899Y-103070242D01*
X99285227Y-103266788D01*
X99375685Y-103485174D01*
X99421800Y-103717009D01*
X99421800Y-103953391D01*
X99375685Y-104185226D01*
X99285227Y-104403612D01*
X99153899Y-104600158D01*
X98986758Y-104767299D01*
X98790212Y-104898627D01*
X98571826Y-104989085D01*
X98339991Y-105035200D01*
X98103609Y-105035200D01*
X97871774Y-104989085D01*
X97653388Y-104898627D01*
X97456842Y-104767299D01*
X97289701Y-104600158D01*
X97158373Y-104403612D01*
X97067915Y-104185226D01*
X97021800Y-103953391D01*
X97021800Y-103717009D01*
X97067915Y-103485174D01*
X97158373Y-103266788D01*
X97289701Y-103070242D01*
X97456842Y-102903101D01*
X97653388Y-102771773D01*
X97871774Y-102681315D01*
X98103609Y-102635200D01*
X98339991Y-102635200D01*
X98571826Y-102681315D01*
X98571826Y-102681315D01*
G37*
G36*
X73128707Y-102497596D02*
X73205836Y-102505193D01*
X73337787Y-102545220D01*
X73403763Y-102565233D01*
X73586172Y-102662733D01*
X73746054Y-102793946D01*
X73877267Y-102953828D01*
X73974767Y-103136237D01*
X73974767Y-103136238D01*
X74034807Y-103334164D01*
X74055080Y-103540000D01*
X74034807Y-103745836D01*
X74028141Y-103767810D01*
X73974767Y-103943763D01*
X73877267Y-104126172D01*
X73746054Y-104286054D01*
X73586172Y-104417267D01*
X73403763Y-104514767D01*
X73337787Y-104534780D01*
X73205836Y-104574807D01*
X73128707Y-104582403D01*
X73051580Y-104590000D01*
X72948420Y-104590000D01*
X72871293Y-104582403D01*
X72794164Y-104574807D01*
X72662213Y-104534780D01*
X72596237Y-104514767D01*
X72413828Y-104417267D01*
X72253946Y-104286054D01*
X72122733Y-104126172D01*
X72025233Y-103943763D01*
X71971859Y-103767810D01*
X71965193Y-103745836D01*
X71944920Y-103540000D01*
X71965193Y-103334164D01*
X72025233Y-103136238D01*
X72025233Y-103136237D01*
X72122733Y-102953828D01*
X72253946Y-102793946D01*
X72413828Y-102662733D01*
X72596237Y-102565233D01*
X72662213Y-102545220D01*
X72794164Y-102505193D01*
X72871293Y-102497597D01*
X72948420Y-102490000D01*
X73051580Y-102490000D01*
X73128707Y-102497596D01*
X73128707Y-102497596D01*
G37*
G36*
X75668707Y-102497596D02*
X75745836Y-102505193D01*
X75877787Y-102545220D01*
X75943763Y-102565233D01*
X76126172Y-102662733D01*
X76286054Y-102793946D01*
X76417267Y-102953828D01*
X76514767Y-103136237D01*
X76514767Y-103136238D01*
X76574807Y-103334164D01*
X76595080Y-103540000D01*
X76574807Y-103745836D01*
X76568141Y-103767810D01*
X76514767Y-103943763D01*
X76417267Y-104126172D01*
X76286054Y-104286054D01*
X76126172Y-104417267D01*
X75943763Y-104514767D01*
X75877787Y-104534780D01*
X75745836Y-104574807D01*
X75668707Y-104582403D01*
X75591580Y-104590000D01*
X75488420Y-104590000D01*
X75411293Y-104582403D01*
X75334164Y-104574807D01*
X75202213Y-104534780D01*
X75136237Y-104514767D01*
X74953828Y-104417267D01*
X74793946Y-104286054D01*
X74662733Y-104126172D01*
X74565233Y-103943763D01*
X74511859Y-103767810D01*
X74505193Y-103745836D01*
X74484920Y-103540000D01*
X74505193Y-103334164D01*
X74565233Y-103136238D01*
X74565233Y-103136237D01*
X74662733Y-102953828D01*
X74793946Y-102793946D01*
X74953828Y-102662733D01*
X75136237Y-102565233D01*
X75202213Y-102545220D01*
X75334164Y-102505193D01*
X75411293Y-102497597D01*
X75488420Y-102490000D01*
X75591580Y-102490000D01*
X75668707Y-102497596D01*
X75668707Y-102497596D01*
G37*
G36*
X75668707Y-99957596D02*
X75745836Y-99965193D01*
X75877787Y-100005220D01*
X75943763Y-100025233D01*
X76126172Y-100122733D01*
X76286054Y-100253946D01*
X76417267Y-100413828D01*
X76514767Y-100596237D01*
X76514767Y-100596238D01*
X76574807Y-100794164D01*
X76595080Y-101000000D01*
X76574807Y-101205836D01*
X76534780Y-101337787D01*
X76514767Y-101403763D01*
X76417267Y-101586172D01*
X76286054Y-101746054D01*
X76126172Y-101877267D01*
X75943763Y-101974767D01*
X75877787Y-101994780D01*
X75745836Y-102034807D01*
X75668707Y-102042404D01*
X75591580Y-102050000D01*
X75488420Y-102050000D01*
X75411293Y-102042403D01*
X75334164Y-102034807D01*
X75202213Y-101994780D01*
X75136237Y-101974767D01*
X74953828Y-101877267D01*
X74793946Y-101746054D01*
X74662733Y-101586172D01*
X74565233Y-101403763D01*
X74545220Y-101337787D01*
X74505193Y-101205836D01*
X74484920Y-101000000D01*
X74505193Y-100794164D01*
X74565233Y-100596238D01*
X74565233Y-100596237D01*
X74662733Y-100413828D01*
X74793946Y-100253946D01*
X74953828Y-100122733D01*
X75136237Y-100025233D01*
X75202213Y-100005220D01*
X75334164Y-99965193D01*
X75411293Y-99957596D01*
X75488420Y-99950000D01*
X75591580Y-99950000D01*
X75668707Y-99957596D01*
X75668707Y-99957596D01*
G37*
G36*
X74050000Y-102050000D02*
X71950000Y-102050000D01*
X71950000Y-99950000D01*
X74050000Y-99950000D01*
X74050000Y-102050000D01*
X74050000Y-102050000D01*
G37*
G36*
X81960226Y-99430115D02*
X82178612Y-99520573D01*
X82375158Y-99651901D01*
X82542299Y-99819042D01*
X82673627Y-100015588D01*
X82764085Y-100233974D01*
X82810200Y-100465809D01*
X82810200Y-100702191D01*
X82764085Y-100934026D01*
X82673627Y-101152412D01*
X82542299Y-101348958D01*
X82375158Y-101516099D01*
X82178612Y-101647427D01*
X81960226Y-101737885D01*
X81728391Y-101784000D01*
X81492009Y-101784000D01*
X81260174Y-101737885D01*
X81041788Y-101647427D01*
X80845242Y-101516099D01*
X80678101Y-101348958D01*
X80546773Y-101152412D01*
X80456315Y-100934026D01*
X80410200Y-100702191D01*
X80410200Y-100465809D01*
X80456315Y-100233974D01*
X80546773Y-100015588D01*
X80678101Y-99819042D01*
X80845242Y-99651901D01*
X81041788Y-99520573D01*
X81260174Y-99430115D01*
X81492009Y-99384000D01*
X81728391Y-99384000D01*
X81960226Y-99430115D01*
X81960226Y-99430115D01*
G37*
G36*
X85059026Y-99430115D02*
X85277412Y-99520573D01*
X85473958Y-99651901D01*
X85641099Y-99819042D01*
X85772427Y-100015588D01*
X85862885Y-100233974D01*
X85909000Y-100465809D01*
X85909000Y-100702191D01*
X85862885Y-100934026D01*
X85772427Y-101152412D01*
X85641099Y-101348958D01*
X85473958Y-101516099D01*
X85277412Y-101647427D01*
X85059026Y-101737885D01*
X84827191Y-101784000D01*
X84590809Y-101784000D01*
X84358974Y-101737885D01*
X84140588Y-101647427D01*
X83944042Y-101516099D01*
X83776901Y-101348958D01*
X83645573Y-101152412D01*
X83555115Y-100934026D01*
X83509000Y-100702191D01*
X83509000Y-100465809D01*
X83555115Y-100233974D01*
X83645573Y-100015588D01*
X83776901Y-99819042D01*
X83944042Y-99651901D01*
X84140588Y-99520573D01*
X84358974Y-99430115D01*
X84590809Y-99384000D01*
X84827191Y-99384000D01*
X85059026Y-99430115D01*
X85059026Y-99430115D01*
G37*
G36*
X88284826Y-99379315D02*
X88503212Y-99469773D01*
X88699758Y-99601101D01*
X88866899Y-99768242D01*
X88998227Y-99964788D01*
X89088685Y-100183174D01*
X89134800Y-100415009D01*
X89134800Y-100651391D01*
X89088685Y-100883226D01*
X88998227Y-101101612D01*
X88866899Y-101298158D01*
X88699758Y-101465299D01*
X88503212Y-101596627D01*
X88284826Y-101687085D01*
X88052991Y-101733200D01*
X87816609Y-101733200D01*
X87584774Y-101687085D01*
X87366388Y-101596627D01*
X87169842Y-101465299D01*
X87002701Y-101298158D01*
X86871373Y-101101612D01*
X86780915Y-100883226D01*
X86734800Y-100651391D01*
X86734800Y-100415009D01*
X86780915Y-100183174D01*
X86871373Y-99964788D01*
X87002701Y-99768242D01*
X87169842Y-99601101D01*
X87366388Y-99469773D01*
X87584774Y-99379315D01*
X87816609Y-99333200D01*
X88052991Y-99333200D01*
X88284826Y-99379315D01*
X88284826Y-99379315D01*
G37*
G36*
X90692200Y-97677200D02*
X89292200Y-97677200D01*
X89292200Y-96277200D01*
X90692200Y-96277200D01*
X90692200Y-97677200D01*
X90692200Y-97677200D01*
G37*
G36*
X104713000Y-97575600D02*
X103313000Y-97575600D01*
X103313000Y-96175600D01*
X104713000Y-96175600D01*
X104713000Y-97575600D01*
X104713000Y-97575600D01*
G37*
G36*
X71615435Y-93296218D02*
X71651720Y-93301600D01*
X72477600Y-93301600D01*
X72477600Y-95051600D01*
X70727600Y-95051600D01*
X70727600Y-93301600D01*
X71553480Y-93301600D01*
X71577866Y-93299198D01*
X71601315Y-93292085D01*
X71603124Y-93291118D01*
X71615435Y-93296218D01*
X71615435Y-93296218D01*
G37*
G36*
X117164626Y-92673715D02*
X117383012Y-92764173D01*
X117579558Y-92895501D01*
X117746699Y-93062642D01*
X117878027Y-93259188D01*
X117968485Y-93477574D01*
X118014600Y-93709409D01*
X118014600Y-93945791D01*
X117968485Y-94177626D01*
X117878027Y-94396012D01*
X117746699Y-94592558D01*
X117579558Y-94759699D01*
X117383012Y-94891027D01*
X117164626Y-94981485D01*
X116932791Y-95027600D01*
X116696409Y-95027600D01*
X116464574Y-94981485D01*
X116246188Y-94891027D01*
X116049642Y-94759699D01*
X115882501Y-94592558D01*
X115751173Y-94396012D01*
X115660715Y-94177626D01*
X115614600Y-93945791D01*
X115614600Y-93709409D01*
X115660715Y-93477574D01*
X115751173Y-93259188D01*
X115882501Y-93062642D01*
X116049642Y-92895501D01*
X116246188Y-92764173D01*
X116464574Y-92673715D01*
X116696409Y-92627600D01*
X116932791Y-92627600D01*
X117164626Y-92673715D01*
X117164626Y-92673715D01*
G37*
G36*
X71615435Y-91296218D02*
X71639468Y-91300998D01*
X71692264Y-91306198D01*
X71774130Y-91314261D01*
X71884089Y-91347617D01*
X71939069Y-91364295D01*
X71989737Y-91391378D01*
X72091076Y-91445544D01*
X72224312Y-91554888D01*
X72333656Y-91688124D01*
X72387822Y-91789463D01*
X72414905Y-91840131D01*
X72431583Y-91895111D01*
X72464939Y-92005070D01*
X72481833Y-92176600D01*
X72464939Y-92348130D01*
X72431583Y-92458089D01*
X72414905Y-92513069D01*
X72387822Y-92563737D01*
X72333656Y-92665076D01*
X72224312Y-92798312D01*
X72091076Y-92907656D01*
X71989737Y-92961822D01*
X71939069Y-92988905D01*
X71884089Y-93005583D01*
X71774130Y-93038939D01*
X71692264Y-93047002D01*
X71639468Y-93052202D01*
X71615434Y-93056983D01*
X71603124Y-93062082D01*
X71601315Y-93061115D01*
X71565732Y-93052202D01*
X71512936Y-93047002D01*
X71431070Y-93038939D01*
X71321111Y-93005583D01*
X71266131Y-92988905D01*
X71215463Y-92961822D01*
X71114124Y-92907656D01*
X70980888Y-92798312D01*
X70871544Y-92665076D01*
X70817378Y-92563737D01*
X70790295Y-92513069D01*
X70773617Y-92458089D01*
X70740261Y-92348130D01*
X70723367Y-92176600D01*
X70740261Y-92005070D01*
X70773617Y-91895111D01*
X70790295Y-91840131D01*
X70817378Y-91789463D01*
X70871544Y-91688124D01*
X70980888Y-91554888D01*
X71114124Y-91445544D01*
X71215463Y-91391378D01*
X71266131Y-91364295D01*
X71321111Y-91347617D01*
X71431070Y-91314261D01*
X71512936Y-91306198D01*
X71565732Y-91300998D01*
X71589766Y-91296217D01*
X71602600Y-91290901D01*
X71615435Y-91296218D01*
X71615435Y-91296218D01*
G37*
G36*
X90692200Y-92140000D02*
X89292200Y-92140000D01*
X89292200Y-90740000D01*
X90692200Y-90740000D01*
X90692200Y-92140000D01*
X90692200Y-92140000D01*
G37*
G36*
X104763800Y-92013000D02*
X103363800Y-92013000D01*
X103363800Y-90613000D01*
X104763800Y-90613000D01*
X104763800Y-92013000D01*
X104763800Y-92013000D01*
G37*
G36*
X117113826Y-89574915D02*
X117332212Y-89665373D01*
X117528758Y-89796701D01*
X117695899Y-89963842D01*
X117827227Y-90160388D01*
X117917685Y-90378774D01*
X117963800Y-90610609D01*
X117963800Y-90846991D01*
X117917685Y-91078826D01*
X117827227Y-91297212D01*
X117695899Y-91493758D01*
X117528758Y-91660899D01*
X117332212Y-91792227D01*
X117113826Y-91882685D01*
X116881991Y-91928800D01*
X116645609Y-91928800D01*
X116413774Y-91882685D01*
X116195388Y-91792227D01*
X115998842Y-91660899D01*
X115831701Y-91493758D01*
X115700373Y-91297212D01*
X115609915Y-91078826D01*
X115563800Y-90846991D01*
X115563800Y-90610609D01*
X115609915Y-90378774D01*
X115700373Y-90160388D01*
X115831701Y-89963842D01*
X115998842Y-89796701D01*
X116195388Y-89665373D01*
X116413774Y-89574915D01*
X116645609Y-89528800D01*
X116881991Y-89528800D01*
X117113826Y-89574915D01*
X117113826Y-89574915D01*
G37*
G36*
X71615435Y-89296218D02*
X71639468Y-89300998D01*
X71692265Y-89306198D01*
X71774130Y-89314261D01*
X71884089Y-89347617D01*
X71939069Y-89364295D01*
X71989737Y-89391378D01*
X72091076Y-89445544D01*
X72224312Y-89554888D01*
X72333656Y-89688124D01*
X72387822Y-89789463D01*
X72414905Y-89840131D01*
X72414905Y-89840132D01*
X72464939Y-90005070D01*
X72481833Y-90176600D01*
X72464939Y-90348130D01*
X72455643Y-90378773D01*
X72414905Y-90513069D01*
X72387822Y-90563737D01*
X72333656Y-90665076D01*
X72224312Y-90798312D01*
X72091076Y-90907656D01*
X71989737Y-90961822D01*
X71939069Y-90988905D01*
X71884089Y-91005583D01*
X71774130Y-91038939D01*
X71692264Y-91047002D01*
X71639468Y-91052202D01*
X71615434Y-91056983D01*
X71602600Y-91062299D01*
X71589765Y-91056982D01*
X71565732Y-91052202D01*
X71512936Y-91047002D01*
X71431070Y-91038939D01*
X71321111Y-91005583D01*
X71266131Y-90988905D01*
X71215463Y-90961822D01*
X71114124Y-90907656D01*
X70980888Y-90798312D01*
X70871544Y-90665076D01*
X70817378Y-90563737D01*
X70790295Y-90513069D01*
X70749557Y-90378773D01*
X70740261Y-90348130D01*
X70723367Y-90176600D01*
X70740261Y-90005070D01*
X70790295Y-89840132D01*
X70790295Y-89840131D01*
X70817378Y-89789463D01*
X70871544Y-89688124D01*
X70980888Y-89554888D01*
X71114124Y-89445544D01*
X71215463Y-89391378D01*
X71266131Y-89364295D01*
X71321111Y-89347617D01*
X71431070Y-89314261D01*
X71512935Y-89306198D01*
X71565732Y-89300998D01*
X71589766Y-89296217D01*
X71602600Y-89290901D01*
X71615435Y-89296218D01*
X71615435Y-89296218D01*
G37*
G36*
X71688429Y-87305820D02*
X71774130Y-87314261D01*
X71884089Y-87347617D01*
X71939069Y-87364295D01*
X71989737Y-87391378D01*
X72091076Y-87445544D01*
X72224312Y-87554888D01*
X72333656Y-87688124D01*
X72387822Y-87789463D01*
X72414905Y-87840131D01*
X72414905Y-87840132D01*
X72464939Y-88005070D01*
X72481833Y-88176600D01*
X72464939Y-88348130D01*
X72431583Y-88458089D01*
X72414905Y-88513069D01*
X72387822Y-88563737D01*
X72333656Y-88665076D01*
X72224312Y-88798312D01*
X72091076Y-88907656D01*
X71989737Y-88961822D01*
X71939069Y-88988905D01*
X71884089Y-89005583D01*
X71774130Y-89038939D01*
X71692264Y-89047002D01*
X71639468Y-89052202D01*
X71615434Y-89056983D01*
X71602600Y-89062299D01*
X71589765Y-89056982D01*
X71565732Y-89052202D01*
X71512936Y-89047002D01*
X71431070Y-89038939D01*
X71321111Y-89005583D01*
X71266131Y-88988905D01*
X71215463Y-88961822D01*
X71114124Y-88907656D01*
X70980888Y-88798312D01*
X70871544Y-88665076D01*
X70817378Y-88563737D01*
X70790295Y-88513069D01*
X70773617Y-88458089D01*
X70740261Y-88348130D01*
X70723367Y-88176600D01*
X70740261Y-88005070D01*
X70790295Y-87840132D01*
X70790295Y-87840131D01*
X70817378Y-87789463D01*
X70871544Y-87688124D01*
X70980888Y-87554888D01*
X71114124Y-87445544D01*
X71215463Y-87391378D01*
X71266131Y-87364295D01*
X71321111Y-87347617D01*
X71431070Y-87314261D01*
X71516771Y-87305820D01*
X71559620Y-87301600D01*
X71645580Y-87301600D01*
X71688429Y-87305820D01*
X71688429Y-87305820D01*
G37*
G36*
X117037626Y-86399915D02*
X117256012Y-86490373D01*
X117452558Y-86621701D01*
X117619699Y-86788842D01*
X117751027Y-86985388D01*
X117841485Y-87203774D01*
X117887600Y-87435609D01*
X117887600Y-87671991D01*
X117841485Y-87903826D01*
X117751027Y-88122212D01*
X117619699Y-88318758D01*
X117452558Y-88485899D01*
X117256012Y-88617227D01*
X117037626Y-88707685D01*
X116805791Y-88753800D01*
X116569409Y-88753800D01*
X116337574Y-88707685D01*
X116119188Y-88617227D01*
X115922642Y-88485899D01*
X115755501Y-88318758D01*
X115624173Y-88122212D01*
X115533715Y-87903826D01*
X115487600Y-87671991D01*
X115487600Y-87435609D01*
X115533715Y-87203774D01*
X115624173Y-86985388D01*
X115755501Y-86788842D01*
X115922642Y-86621701D01*
X116119188Y-86490373D01*
X116337574Y-86399915D01*
X116569409Y-86353800D01*
X116805791Y-86353800D01*
X117037626Y-86399915D01*
X117037626Y-86399915D01*
G37*
G36*
X95661612Y-84380478D02*
X95680554Y-84396024D01*
X95702165Y-84407575D01*
X95725614Y-84414688D01*
X95750000Y-84417090D01*
X95774386Y-84414688D01*
X95786266Y-84411712D01*
X95877479Y-84384043D01*
X95969296Y-84375000D01*
X96030704Y-84375000D01*
X96122521Y-84384043D01*
X96240334Y-84419781D01*
X96348911Y-84477817D01*
X96420716Y-84536746D01*
X96441075Y-84550349D01*
X96463713Y-84559726D01*
X96487747Y-84564507D01*
X96512251Y-84564507D01*
X96536285Y-84559727D01*
X96558924Y-84550350D01*
X96579284Y-84536746D01*
X96651089Y-84477817D01*
X96759666Y-84419781D01*
X96877479Y-84384043D01*
X96969296Y-84375000D01*
X97030704Y-84375000D01*
X97122521Y-84384043D01*
X97240334Y-84419781D01*
X97348911Y-84477817D01*
X97420716Y-84536746D01*
X97441075Y-84550349D01*
X97463713Y-84559726D01*
X97487747Y-84564507D01*
X97512251Y-84564507D01*
X97536285Y-84559727D01*
X97558924Y-84550350D01*
X97579284Y-84536746D01*
X97651089Y-84477817D01*
X97759666Y-84419781D01*
X97877479Y-84384043D01*
X97969296Y-84375000D01*
X98030704Y-84375000D01*
X98122521Y-84384043D01*
X98240334Y-84419781D01*
X98348911Y-84477817D01*
X98444080Y-84555920D01*
X98522183Y-84651089D01*
X98580219Y-84759666D01*
X98615957Y-84877479D01*
X98628024Y-85000000D01*
X98615957Y-85122521D01*
X98580219Y-85240334D01*
X98522183Y-85348911D01*
X98444080Y-85444080D01*
X98348911Y-85522183D01*
X98240334Y-85580219D01*
X98122521Y-85615957D01*
X98030704Y-85625000D01*
X97969296Y-85625000D01*
X97877479Y-85615957D01*
X97759666Y-85580219D01*
X97651089Y-85522183D01*
X97579284Y-85463254D01*
X97558925Y-85449651D01*
X97536287Y-85440274D01*
X97512253Y-85435493D01*
X97487749Y-85435493D01*
X97463715Y-85440273D01*
X97441076Y-85449650D01*
X97420716Y-85463254D01*
X97348911Y-85522183D01*
X97240334Y-85580219D01*
X97122521Y-85615957D01*
X97030704Y-85625000D01*
X96969296Y-85625000D01*
X96877479Y-85615957D01*
X96759666Y-85580219D01*
X96651089Y-85522183D01*
X96579284Y-85463254D01*
X96558925Y-85449651D01*
X96536287Y-85440274D01*
X96512253Y-85435493D01*
X96487749Y-85435493D01*
X96463715Y-85440273D01*
X96441076Y-85449650D01*
X96420716Y-85463254D01*
X96348911Y-85522183D01*
X96240334Y-85580219D01*
X96122521Y-85615957D01*
X96030704Y-85625000D01*
X95969296Y-85625000D01*
X95877479Y-85615957D01*
X95786276Y-85588291D01*
X95762252Y-85583512D01*
X95737748Y-85583512D01*
X95713715Y-85588292D01*
X95691076Y-85597670D01*
X95670701Y-85611284D01*
X95656985Y-85625000D01*
X94375000Y-85625000D01*
X94375000Y-84375000D01*
X95657116Y-84375000D01*
X95661612Y-84380478D01*
X95661612Y-84380478D01*
G37*
G36*
X106656307Y-69264796D02*
X106733436Y-69272393D01*
X106865387Y-69312420D01*
X106931363Y-69332433D01*
X107113772Y-69429933D01*
X107273654Y-69561146D01*
X107404867Y-69721028D01*
X107502367Y-69903437D01*
X107502367Y-69903438D01*
X107562407Y-70101364D01*
X107582680Y-70307200D01*
X107562407Y-70513036D01*
X107522380Y-70644987D01*
X107502367Y-70710963D01*
X107404867Y-70893372D01*
X107273654Y-71053254D01*
X107113772Y-71184467D01*
X106931363Y-71281967D01*
X106865387Y-71301980D01*
X106733436Y-71342007D01*
X106656307Y-71349604D01*
X106579180Y-71357200D01*
X106476020Y-71357200D01*
X106398893Y-71349604D01*
X106321764Y-71342007D01*
X106189813Y-71301980D01*
X106123837Y-71281967D01*
X105941428Y-71184467D01*
X105781546Y-71053254D01*
X105650333Y-70893372D01*
X105552833Y-70710963D01*
X105532820Y-70644987D01*
X105492793Y-70513036D01*
X105472520Y-70307200D01*
X105492793Y-70101364D01*
X105552833Y-69903438D01*
X105552833Y-69903437D01*
X105650333Y-69721028D01*
X105781546Y-69561146D01*
X105941428Y-69429933D01*
X106123837Y-69332433D01*
X106189813Y-69312420D01*
X106321764Y-69272393D01*
X106398893Y-69264796D01*
X106476020Y-69257200D01*
X106579180Y-69257200D01*
X106656307Y-69264796D01*
X106656307Y-69264796D01*
G37*
G36*
X110117600Y-71357200D02*
X108017600Y-71357200D01*
X108017600Y-69257200D01*
X110117600Y-69257200D01*
X110117600Y-71357200D01*
X110117600Y-71357200D01*
G37*
G36*
X84532412Y-68112878D02*
X84551354Y-68128424D01*
X84572965Y-68139975D01*
X84596414Y-68147088D01*
X84620800Y-68149490D01*
X84645186Y-68147088D01*
X84657066Y-68144112D01*
X84748279Y-68116443D01*
X84840096Y-68107400D01*
X84901504Y-68107400D01*
X84993321Y-68116443D01*
X85111134Y-68152181D01*
X85219711Y-68210217D01*
X85291516Y-68269146D01*
X85311875Y-68282749D01*
X85334513Y-68292126D01*
X85358547Y-68296907D01*
X85383051Y-68296907D01*
X85407085Y-68292127D01*
X85429724Y-68282750D01*
X85450084Y-68269146D01*
X85521889Y-68210217D01*
X85630466Y-68152181D01*
X85748279Y-68116443D01*
X85840096Y-68107400D01*
X85901504Y-68107400D01*
X85993321Y-68116443D01*
X86111134Y-68152181D01*
X86219711Y-68210217D01*
X86314880Y-68288320D01*
X86392983Y-68383489D01*
X86451019Y-68492066D01*
X86486757Y-68609879D01*
X86498824Y-68732400D01*
X86486757Y-68854921D01*
X86451019Y-68972734D01*
X86392983Y-69081311D01*
X86314880Y-69176480D01*
X86219711Y-69254583D01*
X86111134Y-69312619D01*
X85993321Y-69348357D01*
X85901504Y-69357400D01*
X85840096Y-69357400D01*
X85748279Y-69348357D01*
X85630466Y-69312619D01*
X85521889Y-69254583D01*
X85450084Y-69195654D01*
X85429725Y-69182051D01*
X85407087Y-69172674D01*
X85383053Y-69167893D01*
X85358549Y-69167893D01*
X85334515Y-69172673D01*
X85311876Y-69182050D01*
X85291516Y-69195654D01*
X85219711Y-69254583D01*
X85111134Y-69312619D01*
X84993321Y-69348357D01*
X84901504Y-69357400D01*
X84840096Y-69357400D01*
X84748279Y-69348357D01*
X84657076Y-69320691D01*
X84633052Y-69315912D01*
X84608548Y-69315912D01*
X84584515Y-69320692D01*
X84561876Y-69330070D01*
X84541501Y-69343684D01*
X84527785Y-69357400D01*
X83245800Y-69357400D01*
X83245800Y-68107400D01*
X84527916Y-68107400D01*
X84532412Y-68112878D01*
X84532412Y-68112878D01*
G37*
M02*
