M48
;DRILL file {KiCad 5.0.2-bee76a0~70~ubuntu18.04.1} date So 03 Nov 2019 21:10:53 CET
;FORMAT={-:-/ absolute / inch / decimal}
FMAT,2
INCH,TZ
T1C0.0118
T2C0.0197
T3C0.0315
T4C0.0394
%
G90
G05
T1
X3.04Y-3.59
X3.08Y-3.615
X3.09Y-3.45
X3.1119Y-3.7473
X3.17Y-3.755
X3.1844Y-3.6524
X3.186Y-3.466
X3.212Y-3.5678
X3.219Y-3.337
X3.225Y-3.852
X3.225Y-4.039
X3.2487Y-3.5239
X3.253Y-3.6957
X3.256Y-3.3553
X3.2567Y-3.6283
X3.26Y-4.13
X3.288Y-3.599
X3.29Y-4.13
X3.309Y-3.818
X3.3189Y-3.4644
X3.335Y-3.029
X3.35Y-3.47
X3.37Y-4.16
X3.3833Y-3.805
X3.386Y-3.704
X3.395Y-3.458
X3.3997Y-3.6054
X3.4011Y-4.0488
X3.415Y-3.892
X3.426Y-3.668
X3.427Y-3.494
X3.43Y-3.638
X3.44Y-3.713
X3.495Y-3.72
X3.5407Y-3.745
X3.56Y-3.7
X3.729Y-4.003
X3.9422Y-2.816
X4.175Y-4.07
X4.593Y-3.447
X4.598Y-3.574
T2
X3.302Y-2.706
X3.3414Y-2.706
X3.3807Y-2.706
X3.7402Y-3.3465
X3.7795Y-3.3465
X3.8189Y-3.3465
X3.8583Y-3.3465
X3.8206Y-4.22
X3.86Y-4.22
X3.8994Y-4.22
X3.9387Y-4.22
T3
X2.819Y-3.4715
X2.819Y-3.5503
X2.819Y-3.629
X2.819Y-3.7077
T4
X4.194Y-2.768
X4.294Y-2.768
X2.874Y-3.9764
X2.874Y-4.0764
X2.874Y-4.1764
X2.974Y-3.9764
X2.974Y-4.0764
X2.974Y-4.1764
T0
M30
