G04 #@! TF.GenerationSoftware,KiCad,Pcbnew,5.0.2-bee76a0~70~ubuntu18.04.1*
G04 #@! TF.CreationDate,2019-11-03T21:10:50+01:00*
G04 #@! TF.ProjectId,puzzlebox,70757a7a-6c65-4626-9f78-2e6b69636164,rev?*
G04 #@! TF.SameCoordinates,Original*
G04 #@! TF.FileFunction,Legend,Bot*
G04 #@! TF.FilePolarity,Positive*
%FSLAX46Y46*%
G04 Gerber Fmt 4.6, Leading zero omitted, Abs format (unit mm)*
G04 Created by KiCad (PCBNEW 5.0.2-bee76a0~70~ubuntu18.04.1) date So 03 Nov 2019 21:10:50 CET*
%MOMM*%
%LPD*%
G01*
G04 APERTURE LIST*
%ADD10C,0.300000*%
%ADD11C,0.250000*%
%ADD12C,0.120000*%
%ADD13C,0.150000*%
G04 APERTURE END LIST*
D10*
X94916371Y-77991171D02*
X94916371Y-76491171D01*
X95416371Y-77562600D01*
X95916371Y-76491171D01*
X95916371Y-77991171D01*
X97273514Y-77991171D02*
X97273514Y-77205457D01*
X97202085Y-77062600D01*
X97059228Y-76991171D01*
X96773514Y-76991171D01*
X96630657Y-77062600D01*
X97273514Y-77919742D02*
X97130657Y-77991171D01*
X96773514Y-77991171D01*
X96630657Y-77919742D01*
X96559228Y-77776885D01*
X96559228Y-77634028D01*
X96630657Y-77491171D01*
X96773514Y-77419742D01*
X97130657Y-77419742D01*
X97273514Y-77348314D01*
X98630657Y-77991171D02*
X98630657Y-76491171D01*
X98630657Y-77919742D02*
X98487800Y-77991171D01*
X98202085Y-77991171D01*
X98059228Y-77919742D01*
X97987800Y-77848314D01*
X97916371Y-77705457D01*
X97916371Y-77276885D01*
X97987800Y-77134028D01*
X98059228Y-77062600D01*
X98202085Y-76991171D01*
X98487800Y-76991171D01*
X98630657Y-77062600D01*
X99916371Y-77919742D02*
X99773514Y-77991171D01*
X99487800Y-77991171D01*
X99344942Y-77919742D01*
X99273514Y-77776885D01*
X99273514Y-77205457D01*
X99344942Y-77062600D01*
X99487800Y-76991171D01*
X99773514Y-76991171D01*
X99916371Y-77062600D01*
X99987800Y-77205457D01*
X99987800Y-77348314D01*
X99273514Y-77491171D01*
X101773514Y-77991171D02*
X101773514Y-76491171D01*
X101773514Y-77062600D02*
X101916371Y-76991171D01*
X102202085Y-76991171D01*
X102344942Y-77062600D01*
X102416371Y-77134028D01*
X102487800Y-77276885D01*
X102487800Y-77705457D01*
X102416371Y-77848314D01*
X102344942Y-77919742D01*
X102202085Y-77991171D01*
X101916371Y-77991171D01*
X101773514Y-77919742D01*
X102987800Y-76991171D02*
X103344942Y-77991171D01*
X103702085Y-76991171D02*
X103344942Y-77991171D01*
X103202085Y-78348314D01*
X103130657Y-78419742D01*
X102987800Y-78491171D01*
X89523514Y-80112600D02*
X90237800Y-80112600D01*
X89380657Y-80541171D02*
X89880657Y-79041171D01*
X90380657Y-80541171D01*
X91094942Y-80541171D02*
X90952085Y-80469742D01*
X90880657Y-80326885D01*
X90880657Y-79041171D01*
X92237800Y-80469742D02*
X92094942Y-80541171D01*
X91809228Y-80541171D01*
X91666371Y-80469742D01*
X91594942Y-80326885D01*
X91594942Y-79755457D01*
X91666371Y-79612600D01*
X91809228Y-79541171D01*
X92094942Y-79541171D01*
X92237800Y-79612600D01*
X92309228Y-79755457D01*
X92309228Y-79898314D01*
X91594942Y-80041171D01*
X92809228Y-80541171D02*
X93594942Y-79541171D01*
X92809228Y-79541171D02*
X93594942Y-80541171D01*
X94809228Y-80541171D02*
X94809228Y-79755457D01*
X94737800Y-79612600D01*
X94594942Y-79541171D01*
X94309228Y-79541171D01*
X94166371Y-79612600D01*
X94809228Y-80469742D02*
X94666371Y-80541171D01*
X94309228Y-80541171D01*
X94166371Y-80469742D01*
X94094942Y-80326885D01*
X94094942Y-80184028D01*
X94166371Y-80041171D01*
X94309228Y-79969742D01*
X94666371Y-79969742D01*
X94809228Y-79898314D01*
X95523514Y-79541171D02*
X95523514Y-80541171D01*
X95523514Y-79684028D02*
X95594942Y-79612600D01*
X95737800Y-79541171D01*
X95952085Y-79541171D01*
X96094942Y-79612600D01*
X96166371Y-79755457D01*
X96166371Y-80541171D01*
X97523514Y-80541171D02*
X97523514Y-79041171D01*
X97523514Y-80469742D02*
X97380657Y-80541171D01*
X97094942Y-80541171D01*
X96952085Y-80469742D01*
X96880657Y-80398314D01*
X96809228Y-80255457D01*
X96809228Y-79826885D01*
X96880657Y-79684028D01*
X96952085Y-79612600D01*
X97094942Y-79541171D01*
X97380657Y-79541171D01*
X97523514Y-79612600D01*
X98809228Y-80469742D02*
X98666371Y-80541171D01*
X98380657Y-80541171D01*
X98237800Y-80469742D01*
X98166371Y-80326885D01*
X98166371Y-79755457D01*
X98237800Y-79612600D01*
X98380657Y-79541171D01*
X98666371Y-79541171D01*
X98809228Y-79612600D01*
X98880657Y-79755457D01*
X98880657Y-79898314D01*
X98166371Y-80041171D01*
X99523514Y-80541171D02*
X99523514Y-79541171D01*
X99523514Y-79826885D02*
X99594942Y-79684028D01*
X99666371Y-79612600D01*
X99809228Y-79541171D01*
X99952085Y-79541171D01*
X101594942Y-79041171D02*
X101594942Y-80255457D01*
X101666371Y-80398314D01*
X101737800Y-80469742D01*
X101880657Y-80541171D01*
X102166371Y-80541171D01*
X102309228Y-80469742D01*
X102380657Y-80398314D01*
X102452085Y-80255457D01*
X102452085Y-79041171D01*
X103380657Y-80541171D02*
X103237800Y-80469742D01*
X103166371Y-80326885D01*
X103166371Y-79041171D01*
X103952085Y-80541171D02*
X103952085Y-79041171D01*
X103952085Y-79612600D02*
X104094942Y-79541171D01*
X104380657Y-79541171D01*
X104523514Y-79612600D01*
X104594942Y-79684028D01*
X104666371Y-79826885D01*
X104666371Y-80255457D01*
X104594942Y-80398314D01*
X104523514Y-80469742D01*
X104380657Y-80541171D01*
X104094942Y-80541171D01*
X103952085Y-80469742D01*
X105309228Y-80541171D02*
X105309228Y-79541171D01*
X105309228Y-79826885D02*
X105380657Y-79684028D01*
X105452085Y-79612600D01*
X105594942Y-79541171D01*
X105737800Y-79541171D01*
X106237800Y-80541171D02*
X106237800Y-79541171D01*
X106237800Y-79041171D02*
X106166371Y-79112600D01*
X106237800Y-79184028D01*
X106309228Y-79112600D01*
X106237800Y-79041171D01*
X106237800Y-79184028D01*
X107594942Y-80469742D02*
X107452085Y-80541171D01*
X107166371Y-80541171D01*
X107023514Y-80469742D01*
X106952085Y-80398314D01*
X106880657Y-80255457D01*
X106880657Y-79826885D01*
X106952085Y-79684028D01*
X107023514Y-79612600D01*
X107166371Y-79541171D01*
X107452085Y-79541171D01*
X107594942Y-79612600D01*
X108237800Y-80541171D02*
X108237800Y-79041171D01*
X108880657Y-80541171D02*
X108880657Y-79755457D01*
X108809228Y-79612600D01*
X108666371Y-79541171D01*
X108452085Y-79541171D01*
X108309228Y-79612600D01*
X108237800Y-79684028D01*
X90748885Y-75608571D02*
X90748885Y-74108571D01*
X91320314Y-74108571D01*
X91463171Y-74180000D01*
X91534600Y-74251428D01*
X91606028Y-74394285D01*
X91606028Y-74608571D01*
X91534600Y-74751428D01*
X91463171Y-74822857D01*
X91320314Y-74894285D01*
X90748885Y-74894285D01*
X92891742Y-74608571D02*
X92891742Y-75608571D01*
X92248885Y-74608571D02*
X92248885Y-75394285D01*
X92320314Y-75537142D01*
X92463171Y-75608571D01*
X92677457Y-75608571D01*
X92820314Y-75537142D01*
X92891742Y-75465714D01*
X93463171Y-74608571D02*
X94248885Y-74608571D01*
X93463171Y-75608571D01*
X94248885Y-75608571D01*
X94677457Y-74608571D02*
X95463171Y-74608571D01*
X94677457Y-75608571D01*
X95463171Y-75608571D01*
X96248885Y-75608571D02*
X96106028Y-75537142D01*
X96034600Y-75394285D01*
X96034600Y-74108571D01*
X97391742Y-75537142D02*
X97248885Y-75608571D01*
X96963171Y-75608571D01*
X96820314Y-75537142D01*
X96748885Y-75394285D01*
X96748885Y-74822857D01*
X96820314Y-74680000D01*
X96963171Y-74608571D01*
X97248885Y-74608571D01*
X97391742Y-74680000D01*
X97463171Y-74822857D01*
X97463171Y-74965714D01*
X96748885Y-75108571D01*
X98106028Y-75608571D02*
X98106028Y-74108571D01*
X98106028Y-74680000D02*
X98248885Y-74608571D01*
X98534600Y-74608571D01*
X98677457Y-74680000D01*
X98748885Y-74751428D01*
X98820314Y-74894285D01*
X98820314Y-75322857D01*
X98748885Y-75465714D01*
X98677457Y-75537142D01*
X98534600Y-75608571D01*
X98248885Y-75608571D01*
X98106028Y-75537142D01*
X99677457Y-75608571D02*
X99534600Y-75537142D01*
X99463171Y-75465714D01*
X99391742Y-75322857D01*
X99391742Y-74894285D01*
X99463171Y-74751428D01*
X99534600Y-74680000D01*
X99677457Y-74608571D01*
X99891742Y-74608571D01*
X100034600Y-74680000D01*
X100106028Y-74751428D01*
X100177457Y-74894285D01*
X100177457Y-75322857D01*
X100106028Y-75465714D01*
X100034600Y-75537142D01*
X99891742Y-75608571D01*
X99677457Y-75608571D01*
X100677457Y-75608571D02*
X101463171Y-74608571D01*
X100677457Y-74608571D02*
X101463171Y-75608571D01*
X102963171Y-74108571D02*
X103463171Y-75608571D01*
X103963171Y-74108571D01*
X104391742Y-74251428D02*
X104463171Y-74180000D01*
X104606028Y-74108571D01*
X104963171Y-74108571D01*
X105106028Y-74180000D01*
X105177457Y-74251428D01*
X105248885Y-74394285D01*
X105248885Y-74537142D01*
X105177457Y-74751428D01*
X104320314Y-75608571D01*
X105248885Y-75608571D01*
X105891742Y-75465714D02*
X105963171Y-75537142D01*
X105891742Y-75608571D01*
X105820314Y-75537142D01*
X105891742Y-75465714D01*
X105891742Y-75608571D01*
X106891742Y-74108571D02*
X107034599Y-74108571D01*
X107177457Y-74180000D01*
X107248885Y-74251428D01*
X107320314Y-74394285D01*
X107391742Y-74680000D01*
X107391742Y-75037142D01*
X107320314Y-75322857D01*
X107248885Y-75465714D01*
X107177457Y-75537142D01*
X107034599Y-75608571D01*
X106891742Y-75608571D01*
X106748885Y-75537142D01*
X106677457Y-75465714D01*
X106606028Y-75322857D01*
X106534599Y-75037142D01*
X106534599Y-74680000D01*
X106606028Y-74394285D01*
X106677457Y-74251428D01*
X106748885Y-74180000D01*
X106891742Y-74108571D01*
D11*
X92103485Y-101481000D02*
X92198723Y-101433380D01*
X92341580Y-101433380D01*
X92484438Y-101481000D01*
X92579676Y-101576238D01*
X92627295Y-101671476D01*
X92674914Y-101861952D01*
X92674914Y-102004809D01*
X92627295Y-102195285D01*
X92579676Y-102290523D01*
X92484438Y-102385761D01*
X92341580Y-102433380D01*
X92246342Y-102433380D01*
X92103485Y-102385761D01*
X92055866Y-102338142D01*
X92055866Y-102004809D01*
X92246342Y-102004809D01*
X91627295Y-102433380D02*
X91627295Y-101433380D01*
X91246342Y-101433380D01*
X91151104Y-101481000D01*
X91103485Y-101528619D01*
X91055866Y-101623857D01*
X91055866Y-101766714D01*
X91103485Y-101861952D01*
X91151104Y-101909571D01*
X91246342Y-101957190D01*
X91627295Y-101957190D01*
X90436819Y-101433380D02*
X90341580Y-101433380D01*
X90246342Y-101481000D01*
X90198723Y-101528619D01*
X90151104Y-101623857D01*
X90103485Y-101814333D01*
X90103485Y-102052428D01*
X90151104Y-102242904D01*
X90198723Y-102338142D01*
X90246342Y-102385761D01*
X90341580Y-102433380D01*
X90436819Y-102433380D01*
X90532057Y-102385761D01*
X90579676Y-102338142D01*
X90627295Y-102242904D01*
X90674914Y-102052428D01*
X90674914Y-101814333D01*
X90627295Y-101623857D01*
X90579676Y-101528619D01*
X90532057Y-101481000D01*
X90436819Y-101433380D01*
D10*
X111683942Y-94526800D02*
X111541085Y-94598228D01*
X111326800Y-94598228D01*
X111112514Y-94526800D01*
X110969657Y-94383942D01*
X110898228Y-94241085D01*
X110826800Y-93955371D01*
X110826800Y-93741085D01*
X110898228Y-93455371D01*
X110969657Y-93312514D01*
X111112514Y-93169657D01*
X111326800Y-93098228D01*
X111469657Y-93098228D01*
X111683942Y-93169657D01*
X111755371Y-93241085D01*
X111755371Y-93741085D01*
X111469657Y-93741085D01*
X112398228Y-93098228D02*
X112398228Y-94598228D01*
X113255371Y-93098228D01*
X113255371Y-94598228D01*
X113969657Y-93098228D02*
X113969657Y-94598228D01*
X114326800Y-94598228D01*
X114541085Y-94526800D01*
X114683942Y-94383942D01*
X114755371Y-94241085D01*
X114826800Y-93955371D01*
X114826800Y-93741085D01*
X114755371Y-93455371D01*
X114683942Y-93312514D01*
X114541085Y-93169657D01*
X114326800Y-93098228D01*
X113969657Y-93098228D01*
X81444400Y-103174942D02*
X81372971Y-103032085D01*
X81372971Y-102817800D01*
X81444400Y-102603514D01*
X81587257Y-102460657D01*
X81730114Y-102389228D01*
X82015828Y-102317800D01*
X82230114Y-102317800D01*
X82515828Y-102389228D01*
X82658685Y-102460657D01*
X82801542Y-102603514D01*
X82872971Y-102817800D01*
X82872971Y-102960657D01*
X82801542Y-103174942D01*
X82730114Y-103246371D01*
X82230114Y-103246371D01*
X82230114Y-102960657D01*
X82872971Y-103889228D02*
X81372971Y-103889228D01*
X82872971Y-104746371D01*
X81372971Y-104746371D01*
X82872971Y-105460657D02*
X81372971Y-105460657D01*
X81372971Y-105817800D01*
X81444400Y-106032085D01*
X81587257Y-106174942D01*
X81730114Y-106246371D01*
X82015828Y-106317800D01*
X82230114Y-106317800D01*
X82515828Y-106246371D01*
X82658685Y-106174942D01*
X82801542Y-106032085D01*
X82872971Y-105817800D01*
X82872971Y-105460657D01*
D11*
X102666704Y-101303200D02*
X102761942Y-101255580D01*
X102904800Y-101255580D01*
X103047657Y-101303200D01*
X103142895Y-101398438D01*
X103190514Y-101493676D01*
X103238133Y-101684152D01*
X103238133Y-101827009D01*
X103190514Y-102017485D01*
X103142895Y-102112723D01*
X103047657Y-102207961D01*
X102904800Y-102255580D01*
X102809561Y-102255580D01*
X102666704Y-102207961D01*
X102619085Y-102160342D01*
X102619085Y-101827009D01*
X102809561Y-101827009D01*
X102190514Y-102255580D02*
X102190514Y-101255580D01*
X101619085Y-102255580D01*
X101619085Y-101255580D01*
X101142895Y-102255580D02*
X101142895Y-101255580D01*
X100904800Y-101255580D01*
X100761942Y-101303200D01*
X100666704Y-101398438D01*
X100619085Y-101493676D01*
X100571466Y-101684152D01*
X100571466Y-101827009D01*
X100619085Y-102017485D01*
X100666704Y-102112723D01*
X100761942Y-102207961D01*
X100904800Y-102255580D01*
X101142895Y-102255580D01*
D10*
X88211742Y-102166171D02*
X88283171Y-102380457D01*
X88283171Y-102737600D01*
X88211742Y-102880457D01*
X88140314Y-102951885D01*
X87997457Y-103023314D01*
X87854600Y-103023314D01*
X87711742Y-102951885D01*
X87640314Y-102880457D01*
X87568885Y-102737600D01*
X87497457Y-102451885D01*
X87426028Y-102309028D01*
X87354600Y-102237600D01*
X87211742Y-102166171D01*
X87068885Y-102166171D01*
X86926028Y-102237600D01*
X86854600Y-102309028D01*
X86783171Y-102451885D01*
X86783171Y-102809028D01*
X86854600Y-103023314D01*
X88283171Y-103666171D02*
X86783171Y-103666171D01*
X86783171Y-104023314D01*
X86854600Y-104237600D01*
X86997457Y-104380457D01*
X87140314Y-104451885D01*
X87426028Y-104523314D01*
X87640314Y-104523314D01*
X87926028Y-104451885D01*
X88068885Y-104380457D01*
X88211742Y-104237600D01*
X88283171Y-104023314D01*
X88283171Y-103666171D01*
X87854600Y-105094742D02*
X87854600Y-105809028D01*
X88283171Y-104951885D02*
X86783171Y-105451885D01*
X88283171Y-105951885D01*
X85493942Y-102176485D02*
X85565371Y-102390771D01*
X85565371Y-102747914D01*
X85493942Y-102890771D01*
X85422514Y-102962200D01*
X85279657Y-103033628D01*
X85136800Y-103033628D01*
X84993942Y-102962200D01*
X84922514Y-102890771D01*
X84851085Y-102747914D01*
X84779657Y-102462200D01*
X84708228Y-102319342D01*
X84636800Y-102247914D01*
X84493942Y-102176485D01*
X84351085Y-102176485D01*
X84208228Y-102247914D01*
X84136800Y-102319342D01*
X84065371Y-102462200D01*
X84065371Y-102819342D01*
X84136800Y-103033628D01*
X85422514Y-104533628D02*
X85493942Y-104462200D01*
X85565371Y-104247914D01*
X85565371Y-104105057D01*
X85493942Y-103890771D01*
X85351085Y-103747914D01*
X85208228Y-103676485D01*
X84922514Y-103605057D01*
X84708228Y-103605057D01*
X84422514Y-103676485D01*
X84279657Y-103747914D01*
X84136800Y-103890771D01*
X84065371Y-104105057D01*
X84065371Y-104247914D01*
X84136800Y-104462200D01*
X84208228Y-104533628D01*
X85565371Y-105890771D02*
X85565371Y-105176485D01*
X84065371Y-105176485D01*
D11*
X95980095Y-101357180D02*
X95408666Y-101357180D01*
X95694380Y-102357180D02*
X95694380Y-101357180D01*
X95170571Y-101357180D02*
X94503904Y-102357180D01*
X94503904Y-101357180D02*
X95170571Y-102357180D01*
X94170571Y-101452419D02*
X94122952Y-101404800D01*
X94027714Y-101357180D01*
X93789619Y-101357180D01*
X93694380Y-101404800D01*
X93646761Y-101452419D01*
X93599142Y-101547657D01*
X93599142Y-101642895D01*
X93646761Y-101785752D01*
X94218190Y-102357180D01*
X93599142Y-102357180D01*
X98991657Y-102153980D02*
X99324990Y-101677790D01*
X99563085Y-102153980D02*
X99563085Y-101153980D01*
X99182133Y-101153980D01*
X99086895Y-101201600D01*
X99039276Y-101249219D01*
X98991657Y-101344457D01*
X98991657Y-101487314D01*
X99039276Y-101582552D01*
X99086895Y-101630171D01*
X99182133Y-101677790D01*
X99563085Y-101677790D01*
X98658323Y-101153980D02*
X97991657Y-102153980D01*
X97991657Y-101153980D02*
X98658323Y-102153980D01*
X97658323Y-101249219D02*
X97610704Y-101201600D01*
X97515466Y-101153980D01*
X97277371Y-101153980D01*
X97182133Y-101201600D01*
X97134514Y-101249219D01*
X97086895Y-101344457D01*
X97086895Y-101439695D01*
X97134514Y-101582552D01*
X97705942Y-102153980D01*
X97086895Y-102153980D01*
D10*
X111020457Y-91550228D02*
X111877600Y-91550228D01*
X111449028Y-90050228D02*
X111449028Y-91550228D01*
X112234742Y-91550228D02*
X113234742Y-90050228D01*
X113234742Y-91550228D02*
X112234742Y-90050228D01*
X113663314Y-91550228D02*
X114591885Y-91550228D01*
X114091885Y-90978800D01*
X114306171Y-90978800D01*
X114449028Y-90907371D01*
X114520457Y-90835942D01*
X114591885Y-90693085D01*
X114591885Y-90335942D01*
X114520457Y-90193085D01*
X114449028Y-90121657D01*
X114306171Y-90050228D01*
X113877600Y-90050228D01*
X113734742Y-90121657D01*
X113663314Y-90193085D01*
X111862514Y-86773628D02*
X111362514Y-87487914D01*
X111005371Y-86773628D02*
X111005371Y-88273628D01*
X111576800Y-88273628D01*
X111719657Y-88202200D01*
X111791085Y-88130771D01*
X111862514Y-87987914D01*
X111862514Y-87773628D01*
X111791085Y-87630771D01*
X111719657Y-87559342D01*
X111576800Y-87487914D01*
X111005371Y-87487914D01*
X112362514Y-88273628D02*
X113362514Y-86773628D01*
X113362514Y-88273628D02*
X112362514Y-86773628D01*
X113791085Y-88273628D02*
X114719657Y-88273628D01*
X114219657Y-87702200D01*
X114433942Y-87702200D01*
X114576800Y-87630771D01*
X114648228Y-87559342D01*
X114719657Y-87416485D01*
X114719657Y-87059342D01*
X114648228Y-86916485D01*
X114576800Y-86845057D01*
X114433942Y-86773628D01*
X114005371Y-86773628D01*
X113862514Y-86845057D01*
X113791085Y-86916485D01*
D12*
G04 #@! TO.C,REF\002A\002A*
X103363800Y-92013000D02*
X104763800Y-92013000D01*
X104763800Y-92013000D02*
X104763800Y-90613000D01*
X104763800Y-90613000D02*
X103363800Y-90613000D01*
X103363800Y-90613000D02*
X103363800Y-92013000D01*
X103313000Y-97575600D02*
X104713000Y-97575600D01*
X104713000Y-97575600D02*
X104713000Y-96175600D01*
X104713000Y-96175600D02*
X103313000Y-96175600D01*
X103313000Y-96175600D02*
X103313000Y-97575600D01*
X89292200Y-97677200D02*
X90692200Y-97677200D01*
X90692200Y-97677200D02*
X90692200Y-96277200D01*
X90692200Y-96277200D02*
X89292200Y-96277200D01*
X89292200Y-96277200D02*
X89292200Y-97677200D01*
X118014600Y-93827600D02*
G75*
G03X118014600Y-93827600I-1200000J0D01*
G01*
X102927000Y-103860600D02*
G75*
G03X102927000Y-103860600I-1200000J0D01*
G01*
G04 #@! TO.C,TP1*
X95942000Y-103886000D02*
G75*
G03X95942000Y-103886000I-1200000J0D01*
G01*
G04 #@! TO.C,TP2*
X99421800Y-103835200D02*
G75*
G03X99421800Y-103835200I-1200000J0D01*
G01*
G04 #@! TO.C,TP3*
X117887600Y-87553800D02*
G75*
G03X117887600Y-87553800I-1200000J0D01*
G01*
G04 #@! TO.C,TP4*
X117963800Y-90728800D02*
G75*
G03X117963800Y-90728800I-1200000J0D01*
G01*
G04 #@! TO.C,TP5*
X85909000Y-100584000D02*
G75*
G03X85909000Y-100584000I-1200000J0D01*
G01*
G04 #@! TO.C,TP6*
X89134800Y-100533200D02*
G75*
G03X89134800Y-100533200I-1200000J0D01*
G01*
G04 #@! TO.C,REF\002A\002A*
X82810200Y-100584000D02*
G75*
G03X82810200Y-100584000I-1200000J0D01*
G01*
G04 #@! TO.C,TP7*
X92513000Y-104063800D02*
G75*
G03X92513000Y-104063800I-1200000J0D01*
G01*
G04 #@! TO.C,REF\002A\002A*
X89292200Y-90740000D02*
X89292200Y-92140000D01*
X90692200Y-90740000D02*
X89292200Y-90740000D01*
X90692200Y-92140000D02*
X90692200Y-90740000D01*
X89292200Y-92140000D02*
X90692200Y-92140000D01*
D13*
X98793133Y-92324180D02*
X99126466Y-91847990D01*
X99364561Y-92324180D02*
X99364561Y-91324180D01*
X98983609Y-91324180D01*
X98888371Y-91371800D01*
X98840752Y-91419419D01*
X98793133Y-91514657D01*
X98793133Y-91657514D01*
X98840752Y-91752752D01*
X98888371Y-91800371D01*
X98983609Y-91847990D01*
X99364561Y-91847990D01*
X98364561Y-91800371D02*
X98031228Y-91800371D01*
X97888371Y-92324180D02*
X98364561Y-92324180D01*
X98364561Y-91324180D01*
X97888371Y-91324180D01*
X97126466Y-91800371D02*
X97459800Y-91800371D01*
X97459800Y-92324180D02*
X97459800Y-91324180D01*
X96983609Y-91324180D01*
X96459800Y-91324180D02*
X96459800Y-91562276D01*
X96697895Y-91467038D02*
X96459800Y-91562276D01*
X96221704Y-91467038D01*
X96602657Y-91752752D02*
X96459800Y-91562276D01*
X96316942Y-91752752D01*
X95697895Y-91324180D02*
X95697895Y-91562276D01*
X95935990Y-91467038D02*
X95697895Y-91562276D01*
X95459800Y-91467038D01*
X95840752Y-91752752D02*
X95697895Y-91562276D01*
X95555038Y-91752752D01*
X98716933Y-96083380D02*
X99050266Y-95607190D01*
X99288361Y-96083380D02*
X99288361Y-95083380D01*
X98907409Y-95083380D01*
X98812171Y-95131000D01*
X98764552Y-95178619D01*
X98716933Y-95273857D01*
X98716933Y-95416714D01*
X98764552Y-95511952D01*
X98812171Y-95559571D01*
X98907409Y-95607190D01*
X99288361Y-95607190D01*
X98288361Y-95559571D02*
X97955028Y-95559571D01*
X97812171Y-96083380D02*
X98288361Y-96083380D01*
X98288361Y-95083380D01*
X97812171Y-95083380D01*
X97050266Y-95559571D02*
X97383600Y-95559571D01*
X97383600Y-96083380D02*
X97383600Y-95083380D01*
X96907409Y-95083380D01*
X96383600Y-95083380D02*
X96383600Y-95321476D01*
X96621695Y-95226238D02*
X96383600Y-95321476D01*
X96145504Y-95226238D01*
X96526457Y-95511952D02*
X96383600Y-95321476D01*
X96240742Y-95511952D01*
X95621695Y-95083380D02*
X95621695Y-95321476D01*
X95859790Y-95226238D02*
X95621695Y-95321476D01*
X95383600Y-95226238D01*
X95764552Y-95511952D02*
X95621695Y-95321476D01*
X95478838Y-95511952D01*
X95008533Y-97505780D02*
X95341866Y-97029590D01*
X95579961Y-97505780D02*
X95579961Y-96505780D01*
X95199009Y-96505780D01*
X95103771Y-96553400D01*
X95056152Y-96601019D01*
X95008533Y-96696257D01*
X95008533Y-96839114D01*
X95056152Y-96934352D01*
X95103771Y-96981971D01*
X95199009Y-97029590D01*
X95579961Y-97029590D01*
X94579961Y-96981971D02*
X94246628Y-96981971D01*
X94103771Y-97505780D02*
X94579961Y-97505780D01*
X94579961Y-96505780D01*
X94103771Y-96505780D01*
X93341866Y-96981971D02*
X93675200Y-96981971D01*
X93675200Y-97505780D02*
X93675200Y-96505780D01*
X93199009Y-96505780D01*
X92675200Y-96505780D02*
X92675200Y-96743876D01*
X92913295Y-96648638D02*
X92675200Y-96743876D01*
X92437104Y-96648638D01*
X92818057Y-96934352D02*
X92675200Y-96743876D01*
X92532342Y-96934352D01*
X91913295Y-96505780D02*
X91913295Y-96743876D01*
X92151390Y-96648638D02*
X91913295Y-96743876D01*
X91675200Y-96648638D01*
X92056152Y-96934352D02*
X91913295Y-96743876D01*
X91770438Y-96934352D01*
X112542580Y-111468066D02*
X112066390Y-111134733D01*
X112542580Y-110896638D02*
X111542580Y-110896638D01*
X111542580Y-111277590D01*
X111590200Y-111372828D01*
X111637819Y-111420447D01*
X111733057Y-111468066D01*
X111875914Y-111468066D01*
X111971152Y-111420447D01*
X112018771Y-111372828D01*
X112066390Y-111277590D01*
X112066390Y-110896638D01*
X112018771Y-111896638D02*
X112018771Y-112229971D01*
X112542580Y-112372828D02*
X112542580Y-111896638D01*
X111542580Y-111896638D01*
X111542580Y-112372828D01*
X112018771Y-113134733D02*
X112018771Y-112801400D01*
X112542580Y-112801400D02*
X111542580Y-112801400D01*
X111542580Y-113277590D01*
X111542580Y-113801400D02*
X111780676Y-113801400D01*
X111685438Y-113563304D02*
X111780676Y-113801400D01*
X111685438Y-114039495D01*
X111971152Y-113658542D02*
X111780676Y-113801400D01*
X111971152Y-113944257D01*
X111542580Y-114563304D02*
X111780676Y-114563304D01*
X111685438Y-114325209D02*
X111780676Y-114563304D01*
X111685438Y-114801400D01*
X111971152Y-114420447D02*
X111780676Y-114563304D01*
X111971152Y-114706161D01*
X102984133Y-110764580D02*
X103317466Y-110288390D01*
X103555561Y-110764580D02*
X103555561Y-109764580D01*
X103174609Y-109764580D01*
X103079371Y-109812200D01*
X103031752Y-109859819D01*
X102984133Y-109955057D01*
X102984133Y-110097914D01*
X103031752Y-110193152D01*
X103079371Y-110240771D01*
X103174609Y-110288390D01*
X103555561Y-110288390D01*
X102555561Y-110240771D02*
X102222228Y-110240771D01*
X102079371Y-110764580D02*
X102555561Y-110764580D01*
X102555561Y-109764580D01*
X102079371Y-109764580D01*
X101317466Y-110240771D02*
X101650800Y-110240771D01*
X101650800Y-110764580D02*
X101650800Y-109764580D01*
X101174609Y-109764580D01*
X100650800Y-109764580D02*
X100650800Y-110002676D01*
X100888895Y-109907438D02*
X100650800Y-110002676D01*
X100412704Y-109907438D01*
X100793657Y-110193152D02*
X100650800Y-110002676D01*
X100507942Y-110193152D01*
X99888895Y-109764580D02*
X99888895Y-110002676D01*
X100126990Y-109907438D02*
X99888895Y-110002676D01*
X99650800Y-109907438D01*
X100031752Y-110193152D02*
X99888895Y-110002676D01*
X99746038Y-110193152D01*
G04 #@! TO.C,TP1*
X94429104Y-112304580D02*
X93857676Y-112304580D01*
X94143390Y-113304580D02*
X94143390Y-112304580D01*
X93524342Y-113304580D02*
X93524342Y-112304580D01*
X93143390Y-112304580D01*
X93048152Y-112352200D01*
X93000533Y-112399819D01*
X92952914Y-112495057D01*
X92952914Y-112637914D01*
X93000533Y-112733152D01*
X93048152Y-112780771D01*
X93143390Y-112828390D01*
X93524342Y-112828390D01*
X92000533Y-113304580D02*
X92571961Y-113304580D01*
X92286247Y-113304580D02*
X92286247Y-112304580D01*
X92381485Y-112447438D01*
X92476723Y-112542676D01*
X92571961Y-112590295D01*
G04 #@! TO.C,TP2*
X98239104Y-110704380D02*
X97667676Y-110704380D01*
X97953390Y-111704380D02*
X97953390Y-110704380D01*
X97334342Y-111704380D02*
X97334342Y-110704380D01*
X96953390Y-110704380D01*
X96858152Y-110752000D01*
X96810533Y-110799619D01*
X96762914Y-110894857D01*
X96762914Y-111037714D01*
X96810533Y-111132952D01*
X96858152Y-111180571D01*
X96953390Y-111228190D01*
X97334342Y-111228190D01*
X96381961Y-110799619D02*
X96334342Y-110752000D01*
X96239104Y-110704380D01*
X96001009Y-110704380D01*
X95905771Y-110752000D01*
X95858152Y-110799619D01*
X95810533Y-110894857D01*
X95810533Y-110990095D01*
X95858152Y-111132952D01*
X96429580Y-111704380D01*
X95810533Y-111704380D01*
G04 #@! TO.C,TP3*
X131049780Y-85555295D02*
X131049780Y-86126723D01*
X132049780Y-85841009D02*
X131049780Y-85841009D01*
X132049780Y-86460057D02*
X131049780Y-86460057D01*
X131049780Y-86841009D01*
X131097400Y-86936247D01*
X131145019Y-86983866D01*
X131240257Y-87031485D01*
X131383114Y-87031485D01*
X131478352Y-86983866D01*
X131525971Y-86936247D01*
X131573590Y-86841009D01*
X131573590Y-86460057D01*
X131049780Y-87364819D02*
X131049780Y-87983866D01*
X131430733Y-87650533D01*
X131430733Y-87793390D01*
X131478352Y-87888628D01*
X131525971Y-87936247D01*
X131621209Y-87983866D01*
X131859304Y-87983866D01*
X131954542Y-87936247D01*
X132002161Y-87888628D01*
X132049780Y-87793390D01*
X132049780Y-87507676D01*
X132002161Y-87412438D01*
X131954542Y-87364819D01*
G04 #@! TO.C,TP4*
X131684780Y-91295695D02*
X131684780Y-91867123D01*
X132684780Y-91581409D02*
X131684780Y-91581409D01*
X132684780Y-92200457D02*
X131684780Y-92200457D01*
X131684780Y-92581409D01*
X131732400Y-92676647D01*
X131780019Y-92724266D01*
X131875257Y-92771885D01*
X132018114Y-92771885D01*
X132113352Y-92724266D01*
X132160971Y-92676647D01*
X132208590Y-92581409D01*
X132208590Y-92200457D01*
X132018114Y-93629028D02*
X132684780Y-93629028D01*
X131637161Y-93390933D02*
X132351447Y-93152838D01*
X132351447Y-93771885D01*
G04 #@! TO.C,TP5*
X87215504Y-124902980D02*
X86644076Y-124902980D01*
X86929790Y-125902980D02*
X86929790Y-124902980D01*
X86310742Y-125902980D02*
X86310742Y-124902980D01*
X85929790Y-124902980D01*
X85834552Y-124950600D01*
X85786933Y-124998219D01*
X85739314Y-125093457D01*
X85739314Y-125236314D01*
X85786933Y-125331552D01*
X85834552Y-125379171D01*
X85929790Y-125426790D01*
X86310742Y-125426790D01*
X84834552Y-124902980D02*
X85310742Y-124902980D01*
X85358361Y-125379171D01*
X85310742Y-125331552D01*
X85215504Y-125283933D01*
X84977409Y-125283933D01*
X84882171Y-125331552D01*
X84834552Y-125379171D01*
X84786933Y-125474409D01*
X84786933Y-125712504D01*
X84834552Y-125807742D01*
X84882171Y-125855361D01*
X84977409Y-125902980D01*
X85215504Y-125902980D01*
X85310742Y-125855361D01*
X85358361Y-125807742D01*
G04 #@! TO.C,TP6*
X89882504Y-111085380D02*
X89311076Y-111085380D01*
X89596790Y-112085380D02*
X89596790Y-111085380D01*
X88977742Y-112085380D02*
X88977742Y-111085380D01*
X88596790Y-111085380D01*
X88501552Y-111133000D01*
X88453933Y-111180619D01*
X88406314Y-111275857D01*
X88406314Y-111418714D01*
X88453933Y-111513952D01*
X88501552Y-111561571D01*
X88596790Y-111609190D01*
X88977742Y-111609190D01*
X87549171Y-111085380D02*
X87739647Y-111085380D01*
X87834885Y-111133000D01*
X87882504Y-111180619D01*
X87977742Y-111323476D01*
X88025361Y-111513952D01*
X88025361Y-111894904D01*
X87977742Y-111990142D01*
X87930123Y-112037761D01*
X87834885Y-112085380D01*
X87644409Y-112085380D01*
X87549171Y-112037761D01*
X87501552Y-111990142D01*
X87453933Y-111894904D01*
X87453933Y-111656809D01*
X87501552Y-111561571D01*
X87549171Y-111513952D01*
X87644409Y-111466333D01*
X87834885Y-111466333D01*
X87930123Y-111513952D01*
X87977742Y-111561571D01*
X88025361Y-111656809D01*
G04 #@! TO.C,REF\002A\002A*
X67525733Y-103195380D02*
X67859066Y-102719190D01*
X68097161Y-103195380D02*
X68097161Y-102195380D01*
X67716209Y-102195380D01*
X67620971Y-102243000D01*
X67573352Y-102290619D01*
X67525733Y-102385857D01*
X67525733Y-102528714D01*
X67573352Y-102623952D01*
X67620971Y-102671571D01*
X67716209Y-102719190D01*
X68097161Y-102719190D01*
X67097161Y-102671571D02*
X66763828Y-102671571D01*
X66620971Y-103195380D02*
X67097161Y-103195380D01*
X67097161Y-102195380D01*
X66620971Y-102195380D01*
X65859066Y-102671571D02*
X66192400Y-102671571D01*
X66192400Y-103195380D02*
X66192400Y-102195380D01*
X65716209Y-102195380D01*
X65192400Y-102195380D02*
X65192400Y-102433476D01*
X65430495Y-102338238D02*
X65192400Y-102433476D01*
X64954304Y-102338238D01*
X65335257Y-102623952D02*
X65192400Y-102433476D01*
X65049542Y-102623952D01*
X64430495Y-102195380D02*
X64430495Y-102433476D01*
X64668590Y-102338238D02*
X64430495Y-102433476D01*
X64192400Y-102338238D01*
X64573352Y-102623952D02*
X64430495Y-102433476D01*
X64287638Y-102623952D01*
G04 #@! TO.C,TP7*
X90365104Y-114336580D02*
X89793676Y-114336580D01*
X90079390Y-115336580D02*
X90079390Y-114336580D01*
X89460342Y-115336580D02*
X89460342Y-114336580D01*
X89079390Y-114336580D01*
X88984152Y-114384200D01*
X88936533Y-114431819D01*
X88888914Y-114527057D01*
X88888914Y-114669914D01*
X88936533Y-114765152D01*
X88984152Y-114812771D01*
X89079390Y-114860390D01*
X89460342Y-114860390D01*
X88555580Y-114336580D02*
X87888914Y-114336580D01*
X88317485Y-115336580D01*
G04 #@! TO.C,REF\002A\002A*
X95008533Y-91968580D02*
X95341866Y-91492390D01*
X95579961Y-91968580D02*
X95579961Y-90968580D01*
X95199009Y-90968580D01*
X95103771Y-91016200D01*
X95056152Y-91063819D01*
X95008533Y-91159057D01*
X95008533Y-91301914D01*
X95056152Y-91397152D01*
X95103771Y-91444771D01*
X95199009Y-91492390D01*
X95579961Y-91492390D01*
X94579961Y-91444771D02*
X94246628Y-91444771D01*
X94103771Y-91968580D02*
X94579961Y-91968580D01*
X94579961Y-90968580D01*
X94103771Y-90968580D01*
X93341866Y-91444771D02*
X93675200Y-91444771D01*
X93675200Y-91968580D02*
X93675200Y-90968580D01*
X93199009Y-90968580D01*
X92675200Y-90968580D02*
X92675200Y-91206676D01*
X92913295Y-91111438D02*
X92675200Y-91206676D01*
X92437104Y-91111438D01*
X92818057Y-91397152D02*
X92675200Y-91206676D01*
X92532342Y-91397152D01*
X91913295Y-90968580D02*
X91913295Y-91206676D01*
X92151390Y-91111438D02*
X91913295Y-91206676D01*
X91675200Y-91111438D01*
X92056152Y-91397152D02*
X91913295Y-91206676D01*
X91770438Y-91397152D01*
G04 #@! TD*
M02*
