G04 #@! TF.GenerationSoftware,KiCad,Pcbnew,5.0.2-bee76a0~70~ubuntu18.04.1*
G04 #@! TF.CreationDate,2019-11-03T21:10:50+01:00*
G04 #@! TF.ProjectId,puzzlebox,70757a7a-6c65-4626-9f78-2e6b69636164,rev?*
G04 #@! TF.SameCoordinates,Original*
G04 #@! TF.FileFunction,Copper,L2,Bot*
G04 #@! TF.FilePolarity,Positive*
%FSLAX46Y46*%
G04 Gerber Fmt 4.6, Leading zero omitted, Abs format (unit mm)*
G04 Created by KiCad (PCBNEW 5.0.2-bee76a0~70~ubuntu18.04.1) date So 03 Nov 2019 21:10:50 CET*
%MOMM*%
%LPD*%
G01*
G04 APERTURE LIST*
G04 #@! TA.AperFunction,SMDPad,CuDef*
%ADD10R,1.000000X1.000000*%
G04 #@! TD*
G04 #@! TA.AperFunction,BGAPad,CuDef*
%ADD11C,2.000000*%
G04 #@! TD*
G04 #@! TA.AperFunction,ComponentPad*
%ADD12R,0.850000X0.850000*%
G04 #@! TD*
G04 #@! TA.AperFunction,ComponentPad*
%ADD13O,0.850000X0.850000*%
G04 #@! TD*
G04 #@! TA.AperFunction,ComponentPad*
%ADD14R,1.700000X1.700000*%
G04 #@! TD*
G04 #@! TA.AperFunction,ComponentPad*
%ADD15O,1.700000X1.700000*%
G04 #@! TD*
G04 #@! TA.AperFunction,ComponentPad*
%ADD16R,1.350000X1.350000*%
G04 #@! TD*
G04 #@! TA.AperFunction,ComponentPad*
%ADD17O,1.350000X1.350000*%
G04 #@! TD*
G04 #@! TA.AperFunction,ViaPad*
%ADD18C,0.600000*%
G04 #@! TD*
G04 #@! TA.AperFunction,Conductor*
%ADD19C,0.127000*%
G04 #@! TD*
G04 APERTURE END LIST*
D10*
G04 #@! TO.P,REF\002A\002A,1*
G04 #@! TO.N,N/C*
X104063800Y-91313000D03*
G04 #@! TD*
G04 #@! TO.P,REF\002A\002A,1*
G04 #@! TO.N,N/C*
X104013000Y-96875600D03*
G04 #@! TD*
G04 #@! TO.P,REF\002A\002A,1*
G04 #@! TO.N,N/C*
X89992200Y-96977200D03*
G04 #@! TD*
D11*
G04 #@! TO.P,REF\002A\002A,1*
G04 #@! TO.N,N/C*
X116814600Y-93827600D03*
G04 #@! TD*
G04 #@! TO.P,REF\002A\002A,1*
G04 #@! TO.N,N/C*
X101727000Y-103860600D03*
G04 #@! TD*
D12*
G04 #@! TO.P,J1,1*
G04 #@! TO.N,USB+*
X95000000Y-85000000D03*
D13*
G04 #@! TO.P,J1,2*
G04 #@! TO.N,USB_P*
X96000000Y-85000000D03*
G04 #@! TO.P,J1,3*
G04 #@! TO.N,USB_N*
X97000000Y-85000000D03*
G04 #@! TO.P,J1,4*
G04 #@! TO.N,GND*
X98000000Y-85000000D03*
G04 #@! TD*
D12*
G04 #@! TO.P,J2,1*
G04 #@! TO.N,VSS_1*
X83870800Y-68732400D03*
D13*
G04 #@! TO.P,J2,2*
G04 #@! TO.N,SERVO_PWM*
X84870800Y-68732400D03*
G04 #@! TO.P,J2,3*
G04 #@! TO.N,GND*
X85870800Y-68732400D03*
G04 #@! TD*
D14*
G04 #@! TO.P,J3,1*
G04 #@! TO.N,NRST*
X73000000Y-101000000D03*
D15*
G04 #@! TO.P,J3,2*
G04 #@! TO.N,USART1_RX*
X75540000Y-101000000D03*
G04 #@! TO.P,J3,3*
G04 #@! TO.N,USART1_TX*
X73000000Y-103540000D03*
G04 #@! TO.P,J3,4*
G04 #@! TO.N,boot0*
X75540000Y-103540000D03*
G04 #@! TO.P,J3,5*
G04 #@! TO.N,boot1*
X73000000Y-106080000D03*
G04 #@! TO.P,J3,6*
G04 #@! TO.N,VCC*
X75540000Y-106080000D03*
G04 #@! TD*
D13*
G04 #@! TO.P,J4,4*
G04 #@! TO.N,GND*
X97044000Y-107188000D03*
G04 #@! TO.P,J4,3*
G04 #@! TO.N,USART2_TX*
X98044000Y-107188000D03*
G04 #@! TO.P,J4,2*
G04 #@! TO.N,USART2_RX*
X99044000Y-107188000D03*
D12*
G04 #@! TO.P,J4,1*
G04 #@! TO.N,VCC_2*
X100044000Y-107188000D03*
G04 #@! TD*
D14*
G04 #@! TO.P,J5,1*
G04 #@! TO.N,GND*
X109067600Y-70307200D03*
D15*
G04 #@! TO.P,J5,2*
G04 #@! TO.N,BAT+*
X106527600Y-70307200D03*
G04 #@! TD*
D11*
G04 #@! TO.P,TP1,1*
G04 #@! TO.N,USART2_TX*
X94742000Y-103886000D03*
G04 #@! TD*
G04 #@! TO.P,TP2,1*
G04 #@! TO.N,USART2_RX*
X98221800Y-103835200D03*
G04 #@! TD*
G04 #@! TO.P,TP3,1*
G04 #@! TO.N,USART3_RX*
X116687600Y-87553800D03*
G04 #@! TD*
G04 #@! TO.P,TP4,1*
G04 #@! TO.N,USART3_TX*
X116763800Y-90728800D03*
G04 #@! TD*
G04 #@! TO.P,TP5,1*
G04 #@! TO.N,SCL1*
X84709000Y-100584000D03*
G04 #@! TD*
G04 #@! TO.P,TP6,1*
G04 #@! TO.N,SDA1*
X87934800Y-100533200D03*
G04 #@! TD*
G04 #@! TO.P,REF\002A\002A,1*
G04 #@! TO.N,N/C*
X81610200Y-100584000D03*
G04 #@! TD*
D16*
G04 #@! TO.P,J6,1*
G04 #@! TO.N,GND*
X71602600Y-94176600D03*
D17*
G04 #@! TO.P,J6,2*
G04 #@! TO.N,Net-(J6-Pad2)*
X71602600Y-92176600D03*
G04 #@! TO.P,J6,3*
G04 #@! TO.N,Net-(J6-Pad3)*
X71602600Y-90176600D03*
G04 #@! TO.P,J6,4*
G04 #@! TO.N,VCC*
X71602600Y-88176600D03*
G04 #@! TD*
D11*
G04 #@! TO.P,TP7,1*
G04 #@! TO.N,esp_flash*
X91313000Y-104063800D03*
G04 #@! TD*
D10*
G04 #@! TO.P,REF\002A\002A,1*
G04 #@! TO.N,GND*
X89992200Y-91440000D03*
G04 #@! TD*
D18*
G04 #@! TO.N,GND*
X87045800Y-88747600D03*
X82719043Y-92159957D03*
X87376000Y-94310200D03*
X86004400Y-94081600D03*
X82516771Y-89506574D03*
G04 #@! TO.N,NRST*
X77216000Y-91186000D03*
G04 #@! TO.N,VCC*
X78486000Y-87630000D03*
X78232000Y-91821000D03*
G04 #@! TO.N,VCC_2*
X106045000Y-103378000D03*
G04 #@! TO.N,VCC_1*
X81915000Y-102590600D03*
X81915000Y-97840800D03*
G04 #@! TO.N,SERVO_PWM*
X82626200Y-93870490D03*
G04 #@! TO.N,USART1_RX*
X81584806Y-90621217D03*
G04 #@! TO.N,USART1_TX*
X83515200Y-91414600D03*
G04 #@! TO.N,boot0*
X82702400Y-85224910D03*
G04 #@! TO.N,boot1*
X84048600Y-96977200D03*
G04 #@! TO.N,USART2_TX*
X79042015Y-95181710D03*
G04 #@! TO.N,USART2_RX*
X80518000Y-95377000D03*
G04 #@! TO.N,SCL1*
X82804000Y-104902000D03*
X86388509Y-102840657D03*
X84299491Y-87997025D03*
G04 #@! TO.N,SDA1*
X83566000Y-104902000D03*
X85598000Y-105664000D03*
X85089984Y-88138000D03*
G04 #@! TO.N,esp_reset*
X89933490Y-95123000D03*
X85936110Y-96647000D03*
G04 #@! TO.N,esp_enable*
X90424000Y-93980000D03*
X88773000Y-94488000D03*
G04 #@! TO.N,esp_flash*
X94716600Y-101676200D03*
G04 #@! TO.N,ENABLE1*
X86741000Y-98856800D03*
X86353333Y-91576439D03*
G04 #@! TO.N,SENS_BAT*
X100131400Y-71526400D03*
X80884916Y-92772116D03*
G04 #@! TO.N,USART3_RX*
X87020400Y-93167200D03*
X116662200Y-87553800D03*
G04 #@! TO.N,USART3_TX*
X87122000Y-92405200D03*
X116789200Y-90779600D03*
G04 #@! TO.N,ENABLE3*
X84709000Y-76936600D03*
X86233000Y-87833200D03*
G04 #@! TO.N,Net-(J6-Pad2)*
X81762600Y-84759800D03*
G04 #@! TO.N,Net-(J6-Pad3)*
X80924400Y-88036400D03*
G04 #@! TD*
D19*
G04 #@! TO.N,NRST*
X73000000Y-100964600D02*
X73000000Y-101000000D01*
X74752200Y-99212400D02*
X73000000Y-100964600D01*
X74752200Y-96266000D02*
X74752200Y-99212400D01*
X77216000Y-91186000D02*
X77216000Y-93802200D01*
X77216000Y-93802200D02*
X74752200Y-96266000D01*
G04 #@! TO.N,VCC*
X78054200Y-87198200D02*
X78486000Y-87630000D01*
X72161400Y-87198200D02*
X78054200Y-87198200D01*
X71323200Y-88081600D02*
X71323200Y-88036400D01*
X71323200Y-88036400D02*
X72161400Y-87198200D01*
X78486000Y-87630000D02*
X78486000Y-91567000D01*
X78486000Y-91567000D02*
X78232000Y-91821000D01*
G04 #@! TO.N,VCC_2*
X100044000Y-107188000D02*
X102235000Y-107188000D01*
X102235000Y-107188000D02*
X106045000Y-103378000D01*
G04 #@! TO.N,VCC_1*
X80162400Y-101884000D02*
X80162400Y-99593400D01*
X80162400Y-99593400D02*
X81915000Y-97840800D01*
X81915000Y-102590600D02*
X80869000Y-102590600D01*
X80869000Y-102590600D02*
X80162400Y-101884000D01*
G04 #@! TO.N,SERVO_PWM*
X82075308Y-90888038D02*
X80238600Y-92724746D01*
X80238600Y-92724746D02*
X80238600Y-93421200D01*
X83312000Y-86258400D02*
X81668913Y-87901487D01*
X81668913Y-87901487D02*
X81668913Y-89979380D01*
X81668913Y-89979380D02*
X82075308Y-90385775D01*
X82075308Y-90385775D02*
X82075308Y-90888038D01*
X83312000Y-76504800D02*
X83312000Y-86258400D01*
X80687890Y-93870490D02*
X82201936Y-93870490D01*
X84870800Y-74946000D02*
X83312000Y-76504800D01*
X84870800Y-68732400D02*
X84870800Y-74946000D01*
X82201936Y-93870490D02*
X82626200Y-93870490D01*
X80238600Y-93421200D02*
X80687890Y-93870490D01*
G04 #@! TO.N,USART1_RX*
X75540000Y-101000000D02*
X75540000Y-96666023D01*
X81284807Y-90921216D02*
X81584806Y-90621217D01*
X75540000Y-96666023D02*
X81284807Y-90921216D01*
G04 #@! TO.N,USART1_TX*
X73849999Y-104389999D02*
X73000000Y-103540000D01*
X74311200Y-104851200D02*
X73849999Y-104389999D01*
X75946000Y-104851200D02*
X74311200Y-104851200D01*
X83515200Y-94183200D02*
X83312011Y-94386389D01*
X78359011Y-94386389D02*
X75946000Y-96799400D01*
X76580501Y-100500559D02*
X76580501Y-104216699D01*
X83515200Y-91414600D02*
X83515200Y-94183200D01*
X83312011Y-94386389D02*
X78359011Y-94386389D01*
X76580501Y-104216699D02*
X75946000Y-104851200D01*
X75946000Y-96799400D02*
X75946000Y-99866058D01*
X75946000Y-99866058D02*
X76580501Y-100500559D01*
G04 #@! TO.N,boot0*
X82402401Y-85524909D02*
X82702400Y-85224910D01*
X75540000Y-103540000D02*
X74422000Y-102422000D01*
X81414902Y-88271842D02*
X81414902Y-86512408D01*
X81229200Y-88457544D02*
X81414902Y-88271842D01*
X81414902Y-86512408D02*
X82402401Y-85524909D01*
X75158600Y-96342200D02*
X81229200Y-90271600D01*
X75158600Y-99720400D02*
X75158600Y-96342200D01*
X74422000Y-102422000D02*
X74422000Y-100457000D01*
X81229200Y-90271600D02*
X81229200Y-88457544D01*
X74422000Y-100457000D02*
X75158600Y-99720400D01*
G04 #@! TO.N,boot1*
X82321400Y-94691200D02*
X84048600Y-96418400D01*
X76301600Y-96951800D02*
X78562200Y-94691200D01*
X78562200Y-94691200D02*
X82321400Y-94691200D01*
X74040501Y-107120501D02*
X76039441Y-107120501D01*
X76301600Y-99862433D02*
X76301600Y-96951800D01*
X73000000Y-106080000D02*
X74040501Y-107120501D01*
X84048600Y-96418400D02*
X84048600Y-96977200D01*
X76039441Y-107120501D02*
X76834512Y-106325430D01*
X76834512Y-106325430D02*
X76834512Y-100395345D01*
X76834512Y-100395345D02*
X76301600Y-99862433D01*
G04 #@! TO.N,USART2_TX*
X94742000Y-103886000D02*
X91186000Y-107442000D01*
X91186000Y-107442000D02*
X82677000Y-107442000D01*
X78742016Y-95481709D02*
X79042015Y-95181710D01*
X82677000Y-107442000D02*
X78742016Y-103507016D01*
X78742016Y-103507016D02*
X78742016Y-95481709D01*
X96139000Y-103886000D02*
X94742000Y-103886000D01*
X98044000Y-107188000D02*
X98044000Y-105791000D01*
X98044000Y-105791000D02*
X96139000Y-103886000D01*
G04 #@! TO.N,USART2_RX*
X99044000Y-107188000D02*
X99043999Y-104885999D01*
X96621600Y-102463600D02*
X94288424Y-102463600D01*
X79044800Y-96850200D02*
X80218001Y-95676999D01*
X90805000Y-107061000D02*
X82677000Y-107061000D01*
X94288424Y-102463600D02*
X93218000Y-103534024D01*
X82677000Y-107061000D02*
X79044800Y-103428800D01*
X93218000Y-104648000D02*
X90805000Y-107061000D01*
X93218000Y-103534024D02*
X93218000Y-104648000D01*
X79044800Y-103428800D02*
X79044800Y-96850200D01*
X80218001Y-95676999D02*
X80518000Y-95377000D01*
X98221800Y-104063800D02*
X98933000Y-104775000D01*
X98221800Y-103835200D02*
X98221800Y-104063800D01*
X99043999Y-104885999D02*
X98933000Y-104775000D01*
X98933000Y-104775000D02*
X96621600Y-102463600D01*
G04 #@! TO.N,SCL1*
X82804000Y-104902000D02*
X84865343Y-102840657D01*
X84865343Y-102840657D02*
X86388509Y-102840657D01*
X86388509Y-102263509D02*
X84709000Y-100584000D01*
X86388509Y-102840657D02*
X86388509Y-102263509D01*
X84299491Y-88592091D02*
X84299491Y-88421289D01*
X84709000Y-100584000D02*
X84709000Y-89001600D01*
X84709000Y-89001600D02*
X84299491Y-88592091D01*
X84299491Y-88421289D02*
X84299491Y-87997025D01*
G04 #@! TO.N,SDA1*
X86969600Y-104292400D02*
X85598000Y-105664000D01*
X85902800Y-103225600D02*
X86969600Y-104292400D01*
X84912200Y-103225600D02*
X85902800Y-103225600D01*
X83566000Y-104902000D02*
X83566000Y-104571800D01*
X83566000Y-104571800D02*
X84912200Y-103225600D01*
X87299800Y-100914200D02*
X87630000Y-100584000D01*
X85598000Y-105664000D02*
X87299800Y-103962200D01*
X87299800Y-103962200D02*
X87299800Y-100914200D01*
X85089984Y-88562264D02*
X85089984Y-88138000D01*
X85089984Y-98043984D02*
X85089984Y-88562264D01*
X87630000Y-100584000D02*
X85089984Y-98043984D01*
G04 #@! TO.N,esp_reset*
X87460110Y-95123000D02*
X86236109Y-96347001D01*
X86236109Y-96347001D02*
X85936110Y-96647000D01*
X89933490Y-95123000D02*
X87460110Y-95123000D01*
G04 #@! TO.N,esp_enable*
X90124001Y-93680001D02*
X89580999Y-93680001D01*
X90424000Y-93980000D02*
X90124001Y-93680001D01*
X89580999Y-93680001D02*
X88773000Y-94488000D01*
G04 #@! TO.N,esp_flash*
X92312999Y-103063801D02*
X92795599Y-103063801D01*
X91313000Y-104063800D02*
X92312999Y-103063801D01*
X93700600Y-101676200D02*
X94716600Y-101676200D01*
X91313000Y-104063800D02*
X93700600Y-101676200D01*
G04 #@! TO.N,ENABLE1*
X86053334Y-91876438D02*
X86353333Y-91576439D01*
X85445600Y-92484172D02*
X86053334Y-91876438D01*
X85445600Y-97561400D02*
X85445600Y-92484172D01*
X86741000Y-98856800D02*
X85445600Y-97561400D01*
G04 #@! TO.N,SENS_BAT*
X88823800Y-71526400D02*
X83718400Y-76631800D01*
X81940400Y-88163400D02*
X81940400Y-89866248D01*
X83718400Y-76631800D02*
X83718400Y-86385400D01*
X82354713Y-91302319D02*
X81184915Y-92472117D01*
X81940400Y-89866248D02*
X82354713Y-90280561D01*
X82354713Y-90280561D02*
X82354713Y-91302319D01*
X81184915Y-92472117D02*
X80884916Y-92772116D01*
X100131400Y-71526400D02*
X88823800Y-71526400D01*
X83718400Y-86385400D02*
X81940400Y-88163400D01*
G04 #@! TO.N,USART3_RX*
X116362201Y-87253801D02*
X116662200Y-87553800D01*
X86529899Y-92296759D02*
X89382600Y-89444058D01*
X89834999Y-85831401D02*
X114939801Y-85831401D01*
X114939801Y-85831401D02*
X116362201Y-87253801D01*
X89382600Y-86283800D02*
X89834999Y-85831401D01*
X89382600Y-89444058D02*
X89382600Y-86283800D01*
X86529899Y-92676699D02*
X86529899Y-92296759D01*
X87020400Y-93167200D02*
X86529899Y-92676699D01*
G04 #@! TO.N,USART3_TX*
X112207498Y-86197898D02*
X116489201Y-90479601D01*
X116489201Y-90479601D02*
X116789200Y-90779600D01*
X89951102Y-86197898D02*
X112207498Y-86197898D01*
X89662000Y-86487000D02*
X89951102Y-86197898D01*
X89662000Y-89865200D02*
X89662000Y-86487000D01*
X87122000Y-92405200D02*
X89662000Y-89865200D01*
G04 #@! TO.N,ENABLE3*
X86233000Y-87833200D02*
X85648800Y-87833200D01*
X84709000Y-86893400D02*
X84709000Y-76936600D01*
X85648800Y-87833200D02*
X84709000Y-86893400D01*
G04 #@! TO.N,Net-(J6-Pad2)*
X70434200Y-87172800D02*
X70434200Y-91008200D01*
X70942200Y-86664800D02*
X70434200Y-87172800D01*
X79433336Y-86664800D02*
X70942200Y-86664800D01*
X81762600Y-84759800D02*
X81338336Y-84759800D01*
X70434200Y-91008200D02*
X71602600Y-92176600D01*
X81338336Y-84759800D02*
X79433336Y-86664800D01*
G04 #@! TO.N,Net-(J6-Pad3)*
X71579446Y-86918811D02*
X79806811Y-86918811D01*
X79806811Y-86918811D02*
X80624401Y-87736401D01*
X70713600Y-89472000D02*
X70713600Y-87784657D01*
X70713600Y-87784657D02*
X71579446Y-86918811D01*
X71323200Y-90081600D02*
X70713600Y-89472000D01*
X80624401Y-87736401D02*
X80924400Y-88036400D01*
G04 #@! TD*
G04 #@! TO.N,GND*
G36*
X113734501Y-76973848D02*
X113729299Y-77000000D01*
X113749905Y-77103593D01*
X113808585Y-77191415D01*
X113896407Y-77250095D01*
X113973853Y-77265500D01*
X114000000Y-77270701D01*
X114026147Y-77265500D01*
X123734500Y-77265500D01*
X123734501Y-108734500D01*
X70265500Y-108734500D01*
X70265500Y-94509975D01*
X70356100Y-94509975D01*
X70356100Y-94965279D01*
X70443106Y-95175329D01*
X70603872Y-95336094D01*
X70813922Y-95423100D01*
X71269225Y-95423100D01*
X71412100Y-95280225D01*
X71412100Y-94367100D01*
X71793100Y-94367100D01*
X71793100Y-95280225D01*
X71935975Y-95423100D01*
X72391278Y-95423100D01*
X72601328Y-95336094D01*
X72762094Y-95175329D01*
X72849100Y-94965279D01*
X72849100Y-94509975D01*
X72706225Y-94367100D01*
X71793100Y-94367100D01*
X71412100Y-94367100D01*
X70498975Y-94367100D01*
X70356100Y-94509975D01*
X70265500Y-94509975D01*
X70265500Y-91200961D01*
X70272287Y-91205496D01*
X70834730Y-91767940D01*
X70787317Y-91838899D01*
X70720144Y-92176600D01*
X70787317Y-92514301D01*
X70978609Y-92800591D01*
X71172434Y-92930100D01*
X70813922Y-92930100D01*
X70603872Y-93017106D01*
X70443106Y-93177871D01*
X70356100Y-93387921D01*
X70356100Y-93843225D01*
X70498975Y-93986100D01*
X71412100Y-93986100D01*
X71412100Y-93966100D01*
X71793100Y-93966100D01*
X71793100Y-93986100D01*
X72706225Y-93986100D01*
X72849100Y-93843225D01*
X72849100Y-93387921D01*
X72762094Y-93177871D01*
X72601328Y-93017106D01*
X72391278Y-92930100D01*
X72032766Y-92930100D01*
X72226591Y-92800591D01*
X72417883Y-92514301D01*
X72485056Y-92176600D01*
X72417883Y-91838899D01*
X72226591Y-91552609D01*
X71940301Y-91361317D01*
X71687843Y-91311100D01*
X71517357Y-91311100D01*
X71264899Y-91361317D01*
X71193940Y-91408730D01*
X70688200Y-90902991D01*
X70688200Y-89805810D01*
X70776362Y-89893972D01*
X70720144Y-90176600D01*
X70787317Y-90514301D01*
X70978609Y-90800591D01*
X71264899Y-90991883D01*
X71517357Y-91042100D01*
X71687843Y-91042100D01*
X71940301Y-90991883D01*
X72226591Y-90800591D01*
X72417883Y-90514301D01*
X72485056Y-90176600D01*
X72417883Y-89838899D01*
X72226591Y-89552609D01*
X71940301Y-89361317D01*
X71687843Y-89311100D01*
X71517357Y-89311100D01*
X71264899Y-89361317D01*
X71083400Y-89482590D01*
X70967600Y-89366791D01*
X70967600Y-88784115D01*
X70978609Y-88800591D01*
X71264899Y-88991883D01*
X71517357Y-89042100D01*
X71687843Y-89042100D01*
X71940301Y-88991883D01*
X72226591Y-88800591D01*
X72417883Y-88514301D01*
X72485056Y-88176600D01*
X72417883Y-87838899D01*
X72226591Y-87552609D01*
X72190390Y-87528420D01*
X72266610Y-87452200D01*
X77948991Y-87452200D01*
X78005378Y-87508587D01*
X77995500Y-87532434D01*
X77995500Y-87727566D01*
X78070175Y-87907846D01*
X78208154Y-88045825D01*
X78232000Y-88055702D01*
X78232001Y-91330500D01*
X78134434Y-91330500D01*
X77954154Y-91405175D01*
X77816175Y-91543154D01*
X77741500Y-91723434D01*
X77741500Y-91918566D01*
X77816175Y-92098846D01*
X77954154Y-92236825D01*
X78134434Y-92311500D01*
X78329566Y-92311500D01*
X78509846Y-92236825D01*
X78647825Y-92098846D01*
X78722500Y-91918566D01*
X78722500Y-91723434D01*
X78708898Y-91690597D01*
X78725263Y-91666106D01*
X78740000Y-91592017D01*
X78740000Y-91592016D01*
X78744976Y-91567001D01*
X78740000Y-91541986D01*
X78740000Y-88055702D01*
X78763846Y-88045825D01*
X78901825Y-87907846D01*
X78976500Y-87727566D01*
X78976500Y-87532434D01*
X78901825Y-87352154D01*
X78763846Y-87214175D01*
X78663985Y-87172811D01*
X79701602Y-87172811D01*
X80443778Y-87914988D01*
X80433900Y-87938834D01*
X80433900Y-88133966D01*
X80508575Y-88314246D01*
X80646554Y-88452225D01*
X80826834Y-88526900D01*
X80975201Y-88526900D01*
X80975200Y-90166390D01*
X77470000Y-93671591D01*
X77470000Y-91611702D01*
X77493846Y-91601825D01*
X77631825Y-91463846D01*
X77706500Y-91283566D01*
X77706500Y-91088434D01*
X77631825Y-90908154D01*
X77493846Y-90770175D01*
X77313566Y-90695500D01*
X77118434Y-90695500D01*
X76938154Y-90770175D01*
X76800175Y-90908154D01*
X76725500Y-91088434D01*
X76725500Y-91283566D01*
X76800175Y-91463846D01*
X76938154Y-91601825D01*
X76962000Y-91611702D01*
X76962001Y-93696989D01*
X74590289Y-96068702D01*
X74569076Y-96082876D01*
X74517929Y-96159424D01*
X74512937Y-96166895D01*
X74493224Y-96266000D01*
X74498200Y-96291016D01*
X74498201Y-99107189D01*
X73649623Y-99955768D01*
X72150000Y-99955768D01*
X72075671Y-99970553D01*
X72012657Y-100012657D01*
X71970553Y-100075671D01*
X71955768Y-100150000D01*
X71955768Y-101850000D01*
X71970553Y-101924329D01*
X72012657Y-101987343D01*
X72075671Y-102029447D01*
X72150000Y-102044232D01*
X73850000Y-102044232D01*
X73924329Y-102029447D01*
X73987343Y-101987343D01*
X74029447Y-101924329D01*
X74044232Y-101850000D01*
X74044232Y-100279577D01*
X74904600Y-99419210D01*
X74904600Y-99615189D01*
X74260087Y-100259704D01*
X74238877Y-100273876D01*
X74209772Y-100317435D01*
X74182737Y-100357895D01*
X74163024Y-100457000D01*
X74168001Y-100482021D01*
X74168000Y-102396984D01*
X74163024Y-102422000D01*
X74168000Y-102447016D01*
X74182737Y-102521105D01*
X74238876Y-102605124D01*
X74260089Y-102619298D01*
X74645963Y-103005172D01*
X74559871Y-103134017D01*
X74479116Y-103540000D01*
X74559871Y-103945983D01*
X74789842Y-104290158D01*
X75134017Y-104520129D01*
X75437523Y-104580500D01*
X75642477Y-104580500D01*
X75910879Y-104527112D01*
X75840791Y-104597200D01*
X74416411Y-104597200D01*
X74047295Y-104228086D01*
X74047293Y-104228083D01*
X73894038Y-104074828D01*
X73980129Y-103945983D01*
X74060884Y-103540000D01*
X73980129Y-103134017D01*
X73750158Y-102789842D01*
X73405983Y-102559871D01*
X73102477Y-102499500D01*
X72897523Y-102499500D01*
X72594017Y-102559871D01*
X72249842Y-102789842D01*
X72019871Y-103134017D01*
X71939116Y-103540000D01*
X72019871Y-103945983D01*
X72249842Y-104290158D01*
X72594017Y-104520129D01*
X72897523Y-104580500D01*
X73102477Y-104580500D01*
X73405983Y-104520129D01*
X73534828Y-104434038D01*
X73688083Y-104587293D01*
X73688086Y-104587295D01*
X74113906Y-105013116D01*
X74128076Y-105034324D01*
X74149283Y-105048494D01*
X74149284Y-105048495D01*
X74212094Y-105090463D01*
X74311200Y-105110176D01*
X74336217Y-105105200D01*
X75126042Y-105105200D01*
X74789842Y-105329842D01*
X74559871Y-105674017D01*
X74479116Y-106080000D01*
X74559871Y-106485983D01*
X74789842Y-106830158D01*
X74844233Y-106866501D01*
X74145712Y-106866501D01*
X73894038Y-106614827D01*
X73980129Y-106485983D01*
X74060884Y-106080000D01*
X73980129Y-105674017D01*
X73750158Y-105329842D01*
X73405983Y-105099871D01*
X73102477Y-105039500D01*
X72897523Y-105039500D01*
X72594017Y-105099871D01*
X72249842Y-105329842D01*
X72019871Y-105674017D01*
X71939116Y-106080000D01*
X72019871Y-106485983D01*
X72249842Y-106830158D01*
X72594017Y-107060129D01*
X72897523Y-107120500D01*
X73102477Y-107120500D01*
X73405983Y-107060129D01*
X73534827Y-106974038D01*
X73843207Y-107282418D01*
X73857377Y-107303625D01*
X73941395Y-107359764D01*
X73998507Y-107371124D01*
X74040501Y-107379477D01*
X74065518Y-107374501D01*
X76014425Y-107374501D01*
X76039441Y-107379477D01*
X76064457Y-107374501D01*
X76064458Y-107374501D01*
X76138547Y-107359764D01*
X76222565Y-107303625D01*
X76236739Y-107282412D01*
X76996426Y-106522726D01*
X77017636Y-106508554D01*
X77073775Y-106424536D01*
X77088512Y-106350447D01*
X77088512Y-106350446D01*
X77093488Y-106325431D01*
X77088512Y-106300416D01*
X77088512Y-100420359D01*
X77093488Y-100395344D01*
X77086039Y-100357894D01*
X77073775Y-100296239D01*
X77017636Y-100212221D01*
X76996426Y-100198049D01*
X76555600Y-99757224D01*
X76555600Y-97057009D01*
X78567813Y-95044797D01*
X78551515Y-95084144D01*
X78551515Y-95279276D01*
X78559379Y-95298260D01*
X78558893Y-95298585D01*
X78528798Y-95343626D01*
X78502753Y-95382604D01*
X78483040Y-95481709D01*
X78488017Y-95506730D01*
X78488016Y-103482000D01*
X78483040Y-103507016D01*
X78488016Y-103532032D01*
X78502753Y-103606121D01*
X78558892Y-103690140D01*
X78580105Y-103704314D01*
X82479704Y-107603914D01*
X82493876Y-107625124D01*
X82577894Y-107681263D01*
X82677000Y-107700976D01*
X82702017Y-107696000D01*
X91160984Y-107696000D01*
X91186000Y-107700976D01*
X91211016Y-107696000D01*
X91211017Y-107696000D01*
X91285106Y-107681263D01*
X91369124Y-107625124D01*
X91383298Y-107603911D01*
X91458039Y-107529170D01*
X96107699Y-107529170D01*
X96309531Y-107861507D01*
X96623179Y-108091308D01*
X96702833Y-108124279D01*
X96853500Y-108020097D01*
X96853500Y-107378500D01*
X96208731Y-107378500D01*
X96107699Y-107529170D01*
X91458039Y-107529170D01*
X92140379Y-106846830D01*
X96107699Y-106846830D01*
X96208731Y-106997500D01*
X96853500Y-106997500D01*
X96853500Y-106355903D01*
X96702833Y-106251721D01*
X96623179Y-106284692D01*
X96309531Y-106514493D01*
X96107699Y-106846830D01*
X92140379Y-106846830D01*
X94084831Y-104902379D01*
X94505195Y-105076500D01*
X94978805Y-105076500D01*
X95416364Y-104895257D01*
X95751257Y-104560364D01*
X95925378Y-104140000D01*
X96033791Y-104140000D01*
X97790001Y-105896211D01*
X97790000Y-106533481D01*
X97778469Y-106514493D01*
X97464821Y-106284692D01*
X97385167Y-106251721D01*
X97234500Y-106355903D01*
X97234500Y-106997500D01*
X97254500Y-106997500D01*
X97254500Y-107378500D01*
X97234500Y-107378500D01*
X97234500Y-108020097D01*
X97385167Y-108124279D01*
X97464821Y-108091308D01*
X97778469Y-107861507D01*
X97831986Y-107773386D01*
X97983380Y-107803500D01*
X98104620Y-107803500D01*
X98284156Y-107767788D01*
X98487751Y-107631751D01*
X98544000Y-107547568D01*
X98600249Y-107631751D01*
X98803844Y-107767788D01*
X98983380Y-107803500D01*
X99104620Y-107803500D01*
X99284156Y-107767788D01*
X99435449Y-107666698D01*
X99439553Y-107687329D01*
X99481657Y-107750343D01*
X99544671Y-107792447D01*
X99619000Y-107807232D01*
X100469000Y-107807232D01*
X100543329Y-107792447D01*
X100606343Y-107750343D01*
X100648447Y-107687329D01*
X100663232Y-107613000D01*
X100663232Y-107442000D01*
X102209984Y-107442000D01*
X102235000Y-107446976D01*
X102260016Y-107442000D01*
X102260017Y-107442000D01*
X102334106Y-107427263D01*
X102418124Y-107371124D01*
X102432298Y-107349911D01*
X105923588Y-103858623D01*
X105947434Y-103868500D01*
X106142566Y-103868500D01*
X106322846Y-103793825D01*
X106460825Y-103655846D01*
X106535500Y-103475566D01*
X106535500Y-103280434D01*
X106460825Y-103100154D01*
X106322846Y-102962175D01*
X106142566Y-102887500D01*
X105947434Y-102887500D01*
X105767154Y-102962175D01*
X105629175Y-103100154D01*
X105554500Y-103280434D01*
X105554500Y-103475566D01*
X105564377Y-103499412D01*
X102129791Y-106934000D01*
X100663232Y-106934000D01*
X100663232Y-106763000D01*
X100648447Y-106688671D01*
X100606343Y-106625657D01*
X100543329Y-106583553D01*
X100469000Y-106568768D01*
X99619000Y-106568768D01*
X99544671Y-106583553D01*
X99481657Y-106625657D01*
X99439553Y-106688671D01*
X99435449Y-106709302D01*
X99297999Y-106617462D01*
X99297998Y-104911018D01*
X99302975Y-104885998D01*
X99283261Y-104786892D01*
X99241293Y-104724084D01*
X99227122Y-104702875D01*
X99205912Y-104688703D01*
X99130299Y-104613090D01*
X99130295Y-104613084D01*
X99128916Y-104611705D01*
X99231057Y-104509564D01*
X99412300Y-104072005D01*
X99412300Y-103623795D01*
X100536500Y-103623795D01*
X100536500Y-104097405D01*
X100717743Y-104534964D01*
X101052636Y-104869857D01*
X101490195Y-105051100D01*
X101963805Y-105051100D01*
X102401364Y-104869857D01*
X102736257Y-104534964D01*
X102917500Y-104097405D01*
X102917500Y-103623795D01*
X102736257Y-103186236D01*
X102401364Y-102851343D01*
X101963805Y-102670100D01*
X101490195Y-102670100D01*
X101052636Y-102851343D01*
X100717743Y-103186236D01*
X100536500Y-103623795D01*
X99412300Y-103623795D01*
X99412300Y-103598395D01*
X99231057Y-103160836D01*
X98896164Y-102825943D01*
X98458605Y-102644700D01*
X97984995Y-102644700D01*
X97547436Y-102825943D01*
X97445294Y-102928085D01*
X96818898Y-102301689D01*
X96804724Y-102280476D01*
X96720706Y-102224337D01*
X96646617Y-102209600D01*
X96646616Y-102209600D01*
X96621600Y-102204624D01*
X96596584Y-102209600D01*
X94313438Y-102209600D01*
X94288423Y-102204624D01*
X94263408Y-102209600D01*
X94263407Y-102209600D01*
X94189318Y-102224337D01*
X94105300Y-102280476D01*
X94091128Y-102301686D01*
X93056089Y-103336726D01*
X93034876Y-103350900D01*
X92996783Y-103407911D01*
X92978737Y-103434919D01*
X92959024Y-103534024D01*
X92964000Y-103559041D01*
X92964001Y-104542789D01*
X90699791Y-106807000D01*
X82782211Y-106807000D01*
X79298800Y-103323591D01*
X79298800Y-99593400D01*
X79903424Y-99593400D01*
X79908401Y-99618421D01*
X79908400Y-101858984D01*
X79903424Y-101884000D01*
X79908400Y-101909016D01*
X79923137Y-101983105D01*
X79979276Y-102067124D01*
X80000489Y-102081298D01*
X80671704Y-102752514D01*
X80685876Y-102773724D01*
X80769894Y-102829863D01*
X80843983Y-102844600D01*
X80843984Y-102844600D01*
X80868999Y-102849576D01*
X80894014Y-102844600D01*
X81489298Y-102844600D01*
X81499175Y-102868446D01*
X81637154Y-103006425D01*
X81817434Y-103081100D01*
X82012566Y-103081100D01*
X82192846Y-103006425D01*
X82330825Y-102868446D01*
X82405500Y-102688166D01*
X82405500Y-102493034D01*
X82330825Y-102312754D01*
X82192846Y-102174775D01*
X82012566Y-102100100D01*
X81817434Y-102100100D01*
X81637154Y-102174775D01*
X81499175Y-102312754D01*
X81489298Y-102336600D01*
X80974210Y-102336600D01*
X80416400Y-101778791D01*
X80416400Y-100347195D01*
X80419700Y-100347195D01*
X80419700Y-100820805D01*
X80600943Y-101258364D01*
X80935836Y-101593257D01*
X81373395Y-101774500D01*
X81847005Y-101774500D01*
X82284564Y-101593257D01*
X82619457Y-101258364D01*
X82800700Y-100820805D01*
X82800700Y-100347195D01*
X82619457Y-99909636D01*
X82284564Y-99574743D01*
X81847005Y-99393500D01*
X81373395Y-99393500D01*
X80935836Y-99574743D01*
X80600943Y-99909636D01*
X80419700Y-100347195D01*
X80416400Y-100347195D01*
X80416400Y-99698609D01*
X81793588Y-98321423D01*
X81817434Y-98331300D01*
X82012566Y-98331300D01*
X82192846Y-98256625D01*
X82330825Y-98118646D01*
X82405500Y-97938366D01*
X82405500Y-97743234D01*
X82330825Y-97562954D01*
X82192846Y-97424975D01*
X82012566Y-97350300D01*
X81817434Y-97350300D01*
X81637154Y-97424975D01*
X81499175Y-97562954D01*
X81424500Y-97743234D01*
X81424500Y-97938366D01*
X81434377Y-97962212D01*
X80000487Y-99396104D01*
X79979277Y-99410276D01*
X79965106Y-99431485D01*
X79923137Y-99494295D01*
X79903424Y-99593400D01*
X79298800Y-99593400D01*
X79298800Y-96955409D01*
X80396588Y-95857622D01*
X80420434Y-95867500D01*
X80615566Y-95867500D01*
X80795846Y-95792825D01*
X80933825Y-95654846D01*
X81008500Y-95474566D01*
X81008500Y-95279434D01*
X80933825Y-95099154D01*
X80795846Y-94961175D01*
X80757279Y-94945200D01*
X82216191Y-94945200D01*
X83794600Y-96523611D01*
X83794600Y-96551497D01*
X83770754Y-96561375D01*
X83632775Y-96699354D01*
X83558100Y-96879634D01*
X83558100Y-97074766D01*
X83632775Y-97255046D01*
X83770754Y-97393025D01*
X83951034Y-97467700D01*
X84146166Y-97467700D01*
X84326446Y-97393025D01*
X84455000Y-97264471D01*
X84455000Y-99400622D01*
X84034636Y-99574743D01*
X83699743Y-99909636D01*
X83518500Y-100347195D01*
X83518500Y-100820805D01*
X83699743Y-101258364D01*
X84034636Y-101593257D01*
X84472195Y-101774500D01*
X84945805Y-101774500D01*
X85366170Y-101600379D01*
X86134510Y-102368720D01*
X86134510Y-102414954D01*
X86110663Y-102424832D01*
X85972684Y-102562811D01*
X85962807Y-102586657D01*
X84890357Y-102586657D01*
X84865342Y-102581681D01*
X84840327Y-102586657D01*
X84840326Y-102586657D01*
X84766237Y-102601394D01*
X84682219Y-102657533D01*
X84668047Y-102678743D01*
X82925413Y-104421378D01*
X82901566Y-104411500D01*
X82706434Y-104411500D01*
X82526154Y-104486175D01*
X82388175Y-104624154D01*
X82313500Y-104804434D01*
X82313500Y-104999566D01*
X82388175Y-105179846D01*
X82526154Y-105317825D01*
X82706434Y-105392500D01*
X82901566Y-105392500D01*
X83081846Y-105317825D01*
X83185000Y-105214671D01*
X83288154Y-105317825D01*
X83468434Y-105392500D01*
X83663566Y-105392500D01*
X83843846Y-105317825D01*
X83981825Y-105179846D01*
X84056500Y-104999566D01*
X84056500Y-104804434D01*
X83981825Y-104624154D01*
X83927340Y-104569669D01*
X85017410Y-103479600D01*
X85797591Y-103479600D01*
X86610390Y-104292400D01*
X85833669Y-105069122D01*
X85719413Y-105183378D01*
X85695566Y-105173500D01*
X85500434Y-105173500D01*
X85320154Y-105248175D01*
X85182175Y-105386154D01*
X85107500Y-105566434D01*
X85107500Y-105761566D01*
X85182175Y-105941846D01*
X85320154Y-106079825D01*
X85500434Y-106154500D01*
X85695566Y-106154500D01*
X85875846Y-106079825D01*
X86013825Y-105941846D01*
X86088500Y-105761566D01*
X86088500Y-105566434D01*
X86078622Y-105542587D01*
X87131521Y-104489690D01*
X87152723Y-104475523D01*
X87166890Y-104454321D01*
X87461717Y-104159494D01*
X87482924Y-104145324D01*
X87514943Y-104097405D01*
X87539063Y-104061306D01*
X87544609Y-104033424D01*
X87553800Y-103987217D01*
X87553800Y-103987216D01*
X87558776Y-103962200D01*
X87553800Y-103937183D01*
X87553800Y-103826995D01*
X90122500Y-103826995D01*
X90122500Y-104300605D01*
X90303743Y-104738164D01*
X90638636Y-105073057D01*
X91076195Y-105254300D01*
X91549805Y-105254300D01*
X91987364Y-105073057D01*
X92322257Y-104738164D01*
X92503500Y-104300605D01*
X92503500Y-103826995D01*
X92329379Y-103406631D01*
X92418209Y-103317801D01*
X92820616Y-103317801D01*
X92894705Y-103303064D01*
X92978723Y-103246925D01*
X93034862Y-103162907D01*
X93054575Y-103063801D01*
X93034862Y-102964695D01*
X92978723Y-102880677D01*
X92904756Y-102831254D01*
X93805810Y-101930200D01*
X94290898Y-101930200D01*
X94300775Y-101954046D01*
X94438754Y-102092025D01*
X94619034Y-102166700D01*
X94814166Y-102166700D01*
X94994446Y-102092025D01*
X95132425Y-101954046D01*
X95207100Y-101773766D01*
X95207100Y-101578634D01*
X95132425Y-101398354D01*
X94994446Y-101260375D01*
X94814166Y-101185700D01*
X94619034Y-101185700D01*
X94438754Y-101260375D01*
X94300775Y-101398354D01*
X94290898Y-101422200D01*
X93725614Y-101422200D01*
X93700599Y-101417224D01*
X93675584Y-101422200D01*
X93675583Y-101422200D01*
X93601494Y-101436937D01*
X93517476Y-101493076D01*
X93503304Y-101514286D01*
X92151087Y-102866504D01*
X92129875Y-102880677D01*
X92115703Y-102901887D01*
X91970169Y-103047421D01*
X91549805Y-102873300D01*
X91076195Y-102873300D01*
X90638636Y-103054543D01*
X90303743Y-103389436D01*
X90122500Y-103826995D01*
X87553800Y-103826995D01*
X87553800Y-101663972D01*
X87697995Y-101723700D01*
X88171605Y-101723700D01*
X88609164Y-101542457D01*
X88944057Y-101207564D01*
X89125300Y-100770005D01*
X89125300Y-100296395D01*
X88944057Y-99858836D01*
X88609164Y-99523943D01*
X88171605Y-99342700D01*
X87697995Y-99342700D01*
X87260436Y-99523943D01*
X87094794Y-99689585D01*
X86752510Y-99347300D01*
X86838566Y-99347300D01*
X87018846Y-99272625D01*
X87156825Y-99134646D01*
X87231500Y-98954366D01*
X87231500Y-98759234D01*
X87156825Y-98578954D01*
X87018846Y-98440975D01*
X86838566Y-98366300D01*
X86643434Y-98366300D01*
X86619587Y-98376178D01*
X85699600Y-97456191D01*
X85699600Y-97079947D01*
X85838544Y-97137500D01*
X86033676Y-97137500D01*
X86213956Y-97062825D01*
X86351935Y-96924846D01*
X86426610Y-96744566D01*
X86426610Y-96549434D01*
X86416733Y-96525588D01*
X86433404Y-96508917D01*
X86433408Y-96508911D01*
X86465119Y-96477200D01*
X89297968Y-96477200D01*
X89297968Y-97477200D01*
X89312753Y-97551529D01*
X89354857Y-97614543D01*
X89417871Y-97656647D01*
X89492200Y-97671432D01*
X90492200Y-97671432D01*
X90566529Y-97656647D01*
X90629543Y-97614543D01*
X90671647Y-97551529D01*
X90686432Y-97477200D01*
X90686432Y-96477200D01*
X90671647Y-96402871D01*
X90629543Y-96339857D01*
X90566529Y-96297753D01*
X90492200Y-96282968D01*
X89492200Y-96282968D01*
X89417871Y-96297753D01*
X89354857Y-96339857D01*
X89312753Y-96402871D01*
X89297968Y-96477200D01*
X86465119Y-96477200D01*
X87565320Y-95377000D01*
X89507788Y-95377000D01*
X89517665Y-95400846D01*
X89655644Y-95538825D01*
X89835924Y-95613500D01*
X90031056Y-95613500D01*
X90211336Y-95538825D01*
X90349315Y-95400846D01*
X90423990Y-95220566D01*
X90423990Y-95025434D01*
X90349315Y-94845154D01*
X90211336Y-94707175D01*
X90031056Y-94632500D01*
X89835924Y-94632500D01*
X89655644Y-94707175D01*
X89517665Y-94845154D01*
X89507788Y-94869000D01*
X89085671Y-94869000D01*
X89188825Y-94765846D01*
X89263500Y-94585566D01*
X89263500Y-94390434D01*
X89253622Y-94366587D01*
X89686209Y-93934001D01*
X89933500Y-93934001D01*
X89933500Y-94077566D01*
X90008175Y-94257846D01*
X90146154Y-94395825D01*
X90326434Y-94470500D01*
X90521566Y-94470500D01*
X90701846Y-94395825D01*
X90734501Y-94363170D01*
X90734501Y-99973848D01*
X90729299Y-100000000D01*
X90749905Y-100103593D01*
X90808585Y-100191415D01*
X90896407Y-100250095D01*
X90973853Y-100265500D01*
X91000000Y-100270701D01*
X91026147Y-100265500D01*
X102973853Y-100265500D01*
X103000000Y-100270701D01*
X103026147Y-100265500D01*
X103103593Y-100250095D01*
X103191415Y-100191415D01*
X103250095Y-100103593D01*
X103270701Y-100000000D01*
X103265500Y-99973853D01*
X103265500Y-96375600D01*
X103318768Y-96375600D01*
X103318768Y-97375600D01*
X103333553Y-97449929D01*
X103375657Y-97512943D01*
X103438671Y-97555047D01*
X103513000Y-97569832D01*
X104513000Y-97569832D01*
X104587329Y-97555047D01*
X104650343Y-97512943D01*
X104692447Y-97449929D01*
X104707232Y-97375600D01*
X104707232Y-96375600D01*
X104692447Y-96301271D01*
X104650343Y-96238257D01*
X104587329Y-96196153D01*
X104513000Y-96181368D01*
X103513000Y-96181368D01*
X103438671Y-96196153D01*
X103375657Y-96238257D01*
X103333553Y-96301271D01*
X103318768Y-96375600D01*
X103265500Y-96375600D01*
X103265500Y-93590795D01*
X115624100Y-93590795D01*
X115624100Y-94064405D01*
X115805343Y-94501964D01*
X116140236Y-94836857D01*
X116577795Y-95018100D01*
X117051405Y-95018100D01*
X117488964Y-94836857D01*
X117823857Y-94501964D01*
X118005100Y-94064405D01*
X118005100Y-93590795D01*
X117823857Y-93153236D01*
X117488964Y-92818343D01*
X117051405Y-92637100D01*
X116577795Y-92637100D01*
X116140236Y-92818343D01*
X115805343Y-93153236D01*
X115624100Y-93590795D01*
X103265500Y-93590795D01*
X103265500Y-90813000D01*
X103369568Y-90813000D01*
X103369568Y-91813000D01*
X103384353Y-91887329D01*
X103426457Y-91950343D01*
X103489471Y-91992447D01*
X103563800Y-92007232D01*
X104563800Y-92007232D01*
X104638129Y-91992447D01*
X104701143Y-91950343D01*
X104743247Y-91887329D01*
X104758032Y-91813000D01*
X104758032Y-90813000D01*
X104743247Y-90738671D01*
X104701143Y-90675657D01*
X104638129Y-90633553D01*
X104563800Y-90618768D01*
X103563800Y-90618768D01*
X103489471Y-90633553D01*
X103426457Y-90675657D01*
X103384353Y-90738671D01*
X103369568Y-90813000D01*
X103265500Y-90813000D01*
X103265500Y-87026147D01*
X103270701Y-87000000D01*
X103250095Y-86896407D01*
X103191415Y-86808585D01*
X103103593Y-86749905D01*
X103083841Y-86745976D01*
X103000000Y-86729299D01*
X102973853Y-86734500D01*
X91026147Y-86734500D01*
X91000000Y-86729299D01*
X90916159Y-86745976D01*
X90896407Y-86749905D01*
X90808585Y-86808585D01*
X90749905Y-86896407D01*
X90729299Y-87000000D01*
X90734500Y-87026147D01*
X90734500Y-90421777D01*
X90605878Y-90368500D01*
X90325575Y-90368500D01*
X90182700Y-90511375D01*
X90182700Y-91249500D01*
X90202700Y-91249500D01*
X90202700Y-91630500D01*
X90182700Y-91630500D01*
X90182700Y-92368625D01*
X90325575Y-92511500D01*
X90605878Y-92511500D01*
X90734500Y-92458223D01*
X90734501Y-93596830D01*
X90701846Y-93564175D01*
X90521566Y-93489500D01*
X90326434Y-93489500D01*
X90307450Y-93497363D01*
X90307125Y-93496877D01*
X90223107Y-93440738D01*
X90149018Y-93426001D01*
X90149017Y-93426001D01*
X90124001Y-93421025D01*
X90098985Y-93426001D01*
X89606013Y-93426001D01*
X89580998Y-93421025D01*
X89555983Y-93426001D01*
X89555982Y-93426001D01*
X89481893Y-93440738D01*
X89397875Y-93496877D01*
X89383703Y-93518087D01*
X88894413Y-94007378D01*
X88870566Y-93997500D01*
X88675434Y-93997500D01*
X88495154Y-94072175D01*
X88357175Y-94210154D01*
X88282500Y-94390434D01*
X88282500Y-94585566D01*
X88357175Y-94765846D01*
X88460329Y-94869000D01*
X87485127Y-94869000D01*
X87460110Y-94864024D01*
X87435093Y-94869000D01*
X87361004Y-94883737D01*
X87276986Y-94939876D01*
X87262814Y-94961086D01*
X86074199Y-96149702D01*
X86074193Y-96149706D01*
X86057522Y-96166377D01*
X86033676Y-96156500D01*
X85838544Y-96156500D01*
X85699600Y-96214053D01*
X85699600Y-92589381D01*
X86231921Y-92057062D01*
X86255767Y-92066939D01*
X86400510Y-92066939D01*
X86367986Y-92099463D01*
X86346776Y-92113635D01*
X86332605Y-92134844D01*
X86290636Y-92197654D01*
X86270923Y-92296759D01*
X86275900Y-92321780D01*
X86275899Y-92651682D01*
X86270923Y-92676699D01*
X86275899Y-92701715D01*
X86290636Y-92775804D01*
X86346775Y-92859823D01*
X86367988Y-92873997D01*
X86539778Y-93045787D01*
X86529900Y-93069634D01*
X86529900Y-93264766D01*
X86604575Y-93445046D01*
X86742554Y-93583025D01*
X86922834Y-93657700D01*
X87117966Y-93657700D01*
X87298246Y-93583025D01*
X87436225Y-93445046D01*
X87510900Y-93264766D01*
X87510900Y-93069634D01*
X87436225Y-92889354D01*
X87377254Y-92830383D01*
X87399846Y-92821025D01*
X87537825Y-92683046D01*
X87612500Y-92502766D01*
X87612500Y-92307634D01*
X87602622Y-92283787D01*
X88113034Y-91773375D01*
X88920700Y-91773375D01*
X88920700Y-92053679D01*
X89007706Y-92263729D01*
X89168472Y-92424494D01*
X89378522Y-92511500D01*
X89658825Y-92511500D01*
X89801700Y-92368625D01*
X89801700Y-91630500D01*
X89063575Y-91630500D01*
X88920700Y-91773375D01*
X88113034Y-91773375D01*
X88920700Y-90965710D01*
X88920700Y-91106625D01*
X89063575Y-91249500D01*
X89801700Y-91249500D01*
X89801700Y-90511375D01*
X89658825Y-90368500D01*
X89517910Y-90368500D01*
X89823914Y-90062496D01*
X89845124Y-90048324D01*
X89901263Y-89964306D01*
X89916000Y-89890217D01*
X89916000Y-89890216D01*
X89920976Y-89865201D01*
X89916000Y-89840186D01*
X89916000Y-86592209D01*
X90056312Y-86451898D01*
X112102289Y-86451898D01*
X115739981Y-90089591D01*
X115573300Y-90491995D01*
X115573300Y-90965605D01*
X115754543Y-91403164D01*
X116089436Y-91738057D01*
X116526995Y-91919300D01*
X117000605Y-91919300D01*
X117438164Y-91738057D01*
X117773057Y-91403164D01*
X117954300Y-90965605D01*
X117954300Y-90491995D01*
X117773057Y-90054436D01*
X117438164Y-89719543D01*
X117000605Y-89538300D01*
X116526995Y-89538300D01*
X116089436Y-89719543D01*
X116088894Y-89720085D01*
X112454210Y-86085401D01*
X114834592Y-86085401D01*
X115663781Y-86914591D01*
X115497100Y-87316995D01*
X115497100Y-87790605D01*
X115678343Y-88228164D01*
X116013236Y-88563057D01*
X116450795Y-88744300D01*
X116924405Y-88744300D01*
X117361964Y-88563057D01*
X117696857Y-88228164D01*
X117878100Y-87790605D01*
X117878100Y-87316995D01*
X117696857Y-86879436D01*
X117361964Y-86544543D01*
X116924405Y-86363300D01*
X116450795Y-86363300D01*
X116013236Y-86544543D01*
X116012694Y-86545085D01*
X115137099Y-85669490D01*
X115122925Y-85648277D01*
X115038907Y-85592138D01*
X114964818Y-85577401D01*
X114964817Y-85577401D01*
X114939801Y-85572425D01*
X114914785Y-85577401D01*
X98792835Y-85577401D01*
X98936301Y-85341170D01*
X98835269Y-85190500D01*
X98190500Y-85190500D01*
X98190500Y-85210500D01*
X97809500Y-85210500D01*
X97809500Y-85190500D01*
X97789500Y-85190500D01*
X97789500Y-84809500D01*
X97809500Y-84809500D01*
X97809500Y-84167903D01*
X98190500Y-84167903D01*
X98190500Y-84809500D01*
X98835269Y-84809500D01*
X98936301Y-84658830D01*
X98734469Y-84326493D01*
X98420821Y-84096692D01*
X98341167Y-84063721D01*
X98190500Y-84167903D01*
X97809500Y-84167903D01*
X97658833Y-84063721D01*
X97579179Y-84096692D01*
X97265531Y-84326493D01*
X97212014Y-84414614D01*
X97060620Y-84384500D01*
X96939380Y-84384500D01*
X96759844Y-84420212D01*
X96556249Y-84556249D01*
X96500000Y-84640432D01*
X96443751Y-84556249D01*
X96240156Y-84420212D01*
X96060620Y-84384500D01*
X95939380Y-84384500D01*
X95759844Y-84420212D01*
X95608551Y-84521302D01*
X95604447Y-84500671D01*
X95562343Y-84437657D01*
X95499329Y-84395553D01*
X95425000Y-84380768D01*
X94575000Y-84380768D01*
X94500671Y-84395553D01*
X94437657Y-84437657D01*
X94395553Y-84500671D01*
X94380768Y-84575000D01*
X94380768Y-85425000D01*
X94395553Y-85499329D01*
X94437657Y-85562343D01*
X94460193Y-85577401D01*
X89860016Y-85577401D01*
X89834999Y-85572425D01*
X89809982Y-85577401D01*
X89735893Y-85592138D01*
X89651875Y-85648277D01*
X89637703Y-85669487D01*
X89220687Y-86086504D01*
X89199477Y-86100676D01*
X89185306Y-86121885D01*
X89143337Y-86184695D01*
X89123624Y-86283800D01*
X89128601Y-86308821D01*
X89128600Y-89338848D01*
X86843833Y-91623616D01*
X86843833Y-91478873D01*
X86769158Y-91298593D01*
X86631179Y-91160614D01*
X86450899Y-91085939D01*
X86255767Y-91085939D01*
X86075487Y-91160614D01*
X85937508Y-91298593D01*
X85862833Y-91478873D01*
X85862833Y-91674005D01*
X85872710Y-91697851D01*
X85343984Y-92226579D01*
X85343984Y-88563702D01*
X85367830Y-88553825D01*
X85505809Y-88415846D01*
X85580484Y-88235566D01*
X85580484Y-88078587D01*
X85648800Y-88092176D01*
X85673817Y-88087200D01*
X85807298Y-88087200D01*
X85817175Y-88111046D01*
X85955154Y-88249025D01*
X86135434Y-88323700D01*
X86330566Y-88323700D01*
X86510846Y-88249025D01*
X86648825Y-88111046D01*
X86723500Y-87930766D01*
X86723500Y-87735634D01*
X86648825Y-87555354D01*
X86510846Y-87417375D01*
X86330566Y-87342700D01*
X86135434Y-87342700D01*
X85955154Y-87417375D01*
X85817175Y-87555354D01*
X85807298Y-87579200D01*
X85754010Y-87579200D01*
X84963000Y-86788191D01*
X84963000Y-77362302D01*
X84986846Y-77352425D01*
X85124825Y-77214446D01*
X85199500Y-77034166D01*
X85199500Y-76839034D01*
X85124825Y-76658754D01*
X84986846Y-76520775D01*
X84806566Y-76446100D01*
X84611434Y-76446100D01*
X84431154Y-76520775D01*
X84293175Y-76658754D01*
X84218500Y-76839034D01*
X84218500Y-77034166D01*
X84293175Y-77214446D01*
X84431154Y-77352425D01*
X84455001Y-77362303D01*
X84455000Y-86868384D01*
X84450024Y-86893400D01*
X84455000Y-86918416D01*
X84469737Y-86992505D01*
X84525876Y-87076524D01*
X84547089Y-87090698D01*
X85103890Y-87647500D01*
X84992418Y-87647500D01*
X84812138Y-87722175D01*
X84744552Y-87789761D01*
X84715316Y-87719179D01*
X84577337Y-87581200D01*
X84397057Y-87506525D01*
X84201925Y-87506525D01*
X84021645Y-87581200D01*
X83883666Y-87719179D01*
X83808991Y-87899459D01*
X83808991Y-88094591D01*
X83883666Y-88274871D01*
X84021645Y-88412850D01*
X84045491Y-88422727D01*
X84045491Y-88567075D01*
X84040515Y-88592091D01*
X84045491Y-88617107D01*
X84060228Y-88691196D01*
X84116367Y-88775215D01*
X84137580Y-88789389D01*
X84455001Y-89106811D01*
X84455000Y-96689929D01*
X84326446Y-96561375D01*
X84302600Y-96551498D01*
X84302600Y-96443417D01*
X84307576Y-96418400D01*
X84287863Y-96319294D01*
X84245895Y-96256484D01*
X84245894Y-96256483D01*
X84231724Y-96235276D01*
X84210517Y-96221106D01*
X82629798Y-94640389D01*
X83286995Y-94640389D01*
X83312011Y-94645365D01*
X83337027Y-94640389D01*
X83337028Y-94640389D01*
X83411117Y-94625652D01*
X83495135Y-94569513D01*
X83509309Y-94548301D01*
X83677116Y-94380495D01*
X83698324Y-94366324D01*
X83754463Y-94282306D01*
X83769200Y-94208217D01*
X83774176Y-94183200D01*
X83769200Y-94158183D01*
X83769200Y-91840302D01*
X83793046Y-91830425D01*
X83931025Y-91692446D01*
X84005700Y-91512166D01*
X84005700Y-91317034D01*
X83931025Y-91136754D01*
X83793046Y-90998775D01*
X83612766Y-90924100D01*
X83417634Y-90924100D01*
X83237354Y-90998775D01*
X83099375Y-91136754D01*
X83024700Y-91317034D01*
X83024700Y-91512166D01*
X83099375Y-91692446D01*
X83237354Y-91830425D01*
X83261200Y-91840302D01*
X83261201Y-94077989D01*
X83206801Y-94132389D01*
X83048631Y-94132389D01*
X83116700Y-93968056D01*
X83116700Y-93772924D01*
X83042025Y-93592644D01*
X82904046Y-93454665D01*
X82723766Y-93379990D01*
X82528634Y-93379990D01*
X82348354Y-93454665D01*
X82210375Y-93592644D01*
X82200498Y-93616490D01*
X80793100Y-93616490D01*
X80492600Y-93315991D01*
X80492600Y-93073471D01*
X80607070Y-93187941D01*
X80787350Y-93262616D01*
X80982482Y-93262616D01*
X81162762Y-93187941D01*
X81300741Y-93049962D01*
X81375416Y-92869682D01*
X81375416Y-92674550D01*
X81365539Y-92650704D01*
X81382210Y-92634033D01*
X81382214Y-92634027D01*
X82516627Y-91499615D01*
X82537837Y-91485443D01*
X82593976Y-91401425D01*
X82608713Y-91327336D01*
X82608713Y-91327335D01*
X82613689Y-91302320D01*
X82608713Y-91277305D01*
X82608713Y-90305575D01*
X82613689Y-90280560D01*
X82605294Y-90238356D01*
X82593976Y-90181455D01*
X82537837Y-90097437D01*
X82516627Y-90083265D01*
X82194400Y-89761039D01*
X82194400Y-88268609D01*
X83880317Y-86582694D01*
X83901524Y-86568524D01*
X83918729Y-86542776D01*
X83957663Y-86484506D01*
X83964149Y-86451898D01*
X83972400Y-86410417D01*
X83977376Y-86385400D01*
X83972400Y-86360383D01*
X83972400Y-76737009D01*
X88929010Y-71780400D01*
X99705698Y-71780400D01*
X99715575Y-71804246D01*
X99853554Y-71942225D01*
X100033834Y-72016900D01*
X100228966Y-72016900D01*
X100409246Y-71942225D01*
X100547225Y-71804246D01*
X100621900Y-71623966D01*
X100621900Y-71428834D01*
X100547225Y-71248554D01*
X100409246Y-71110575D01*
X100228966Y-71035900D01*
X100033834Y-71035900D01*
X99853554Y-71110575D01*
X99715575Y-71248554D01*
X99705698Y-71272400D01*
X88848817Y-71272400D01*
X88823800Y-71267424D01*
X88798783Y-71272400D01*
X88724694Y-71287137D01*
X88640676Y-71343276D01*
X88626504Y-71364486D01*
X85124800Y-74866191D01*
X85124800Y-70307200D01*
X105466716Y-70307200D01*
X105547471Y-70713183D01*
X105777442Y-71057358D01*
X106121617Y-71287329D01*
X106425123Y-71347700D01*
X106630077Y-71347700D01*
X106933583Y-71287329D01*
X107277758Y-71057358D01*
X107507729Y-70713183D01*
X107522171Y-70640575D01*
X107646100Y-70640575D01*
X107646100Y-71270878D01*
X107733106Y-71480928D01*
X107893871Y-71641694D01*
X108103921Y-71728700D01*
X108734225Y-71728700D01*
X108877100Y-71585825D01*
X108877100Y-70497700D01*
X109258100Y-70497700D01*
X109258100Y-71585825D01*
X109400975Y-71728700D01*
X110031279Y-71728700D01*
X110241329Y-71641694D01*
X110402094Y-71480928D01*
X110489100Y-71270878D01*
X110489100Y-70640575D01*
X110346225Y-70497700D01*
X109258100Y-70497700D01*
X108877100Y-70497700D01*
X107788975Y-70497700D01*
X107646100Y-70640575D01*
X107522171Y-70640575D01*
X107588484Y-70307200D01*
X107507729Y-69901217D01*
X107277758Y-69557042D01*
X106958204Y-69343522D01*
X107646100Y-69343522D01*
X107646100Y-69973825D01*
X107788975Y-70116700D01*
X108877100Y-70116700D01*
X108877100Y-69028575D01*
X109258100Y-69028575D01*
X109258100Y-70116700D01*
X110346225Y-70116700D01*
X110489100Y-69973825D01*
X110489100Y-69343522D01*
X110402094Y-69133472D01*
X110241329Y-68972706D01*
X110031279Y-68885700D01*
X109400975Y-68885700D01*
X109258100Y-69028575D01*
X108877100Y-69028575D01*
X108734225Y-68885700D01*
X108103921Y-68885700D01*
X107893871Y-68972706D01*
X107733106Y-69133472D01*
X107646100Y-69343522D01*
X106958204Y-69343522D01*
X106933583Y-69327071D01*
X106630077Y-69266700D01*
X106425123Y-69266700D01*
X106121617Y-69327071D01*
X105777442Y-69557042D01*
X105547471Y-69901217D01*
X105466716Y-70307200D01*
X85124800Y-70307200D01*
X85124800Y-69386920D01*
X85136331Y-69405907D01*
X85449979Y-69635708D01*
X85529633Y-69668679D01*
X85680300Y-69564497D01*
X85680300Y-68922900D01*
X86061300Y-68922900D01*
X86061300Y-69564497D01*
X86211967Y-69668679D01*
X86291621Y-69635708D01*
X86605269Y-69405907D01*
X86807101Y-69073570D01*
X86706069Y-68922900D01*
X86061300Y-68922900D01*
X85680300Y-68922900D01*
X85660300Y-68922900D01*
X85660300Y-68541900D01*
X85680300Y-68541900D01*
X85680300Y-67900303D01*
X86061300Y-67900303D01*
X86061300Y-68541900D01*
X86706069Y-68541900D01*
X86807101Y-68391230D01*
X86605269Y-68058893D01*
X86291621Y-67829092D01*
X86211967Y-67796121D01*
X86061300Y-67900303D01*
X85680300Y-67900303D01*
X85529633Y-67796121D01*
X85449979Y-67829092D01*
X85136331Y-68058893D01*
X85082814Y-68147014D01*
X84931420Y-68116900D01*
X84810180Y-68116900D01*
X84630644Y-68152612D01*
X84479351Y-68253702D01*
X84475247Y-68233071D01*
X84433143Y-68170057D01*
X84370129Y-68127953D01*
X84295800Y-68113168D01*
X83445800Y-68113168D01*
X83371471Y-68127953D01*
X83308457Y-68170057D01*
X83266353Y-68233071D01*
X83251568Y-68307400D01*
X83251568Y-69157400D01*
X83266353Y-69231729D01*
X83308457Y-69294743D01*
X83371471Y-69336847D01*
X83445800Y-69351632D01*
X84295800Y-69351632D01*
X84370129Y-69336847D01*
X84433143Y-69294743D01*
X84475247Y-69231729D01*
X84479351Y-69211098D01*
X84616800Y-69302938D01*
X84616801Y-74840789D01*
X83150089Y-76307502D01*
X83128876Y-76321676D01*
X83081529Y-76392537D01*
X83072737Y-76405695D01*
X83053024Y-76504800D01*
X83058000Y-76529816D01*
X83058001Y-84886840D01*
X82980246Y-84809085D01*
X82799966Y-84734410D01*
X82604834Y-84734410D01*
X82424554Y-84809085D01*
X82286575Y-84947064D01*
X82211900Y-85127344D01*
X82211900Y-85322476D01*
X82221778Y-85346322D01*
X81252989Y-86315112D01*
X81231779Y-86329284D01*
X81217608Y-86350493D01*
X81175639Y-86413303D01*
X81155926Y-86512408D01*
X81160903Y-86537429D01*
X81160902Y-87603450D01*
X81021966Y-87545900D01*
X80826834Y-87545900D01*
X80802988Y-87555778D01*
X80004109Y-86756900D01*
X79989935Y-86735687D01*
X79905917Y-86679548D01*
X79831828Y-86664811D01*
X79831827Y-86664811D01*
X79806811Y-86659835D01*
X79795201Y-86662144D01*
X81383237Y-85074108D01*
X81484754Y-85175625D01*
X81665034Y-85250300D01*
X81860166Y-85250300D01*
X82040446Y-85175625D01*
X82178425Y-85037646D01*
X82253100Y-84857366D01*
X82253100Y-84662234D01*
X82178425Y-84481954D01*
X82040446Y-84343975D01*
X81860166Y-84269300D01*
X81665034Y-84269300D01*
X81484754Y-84343975D01*
X81346775Y-84481954D01*
X81338911Y-84500938D01*
X81338336Y-84500824D01*
X81313319Y-84505800D01*
X81239230Y-84520537D01*
X81155212Y-84576676D01*
X81141040Y-84597886D01*
X79328127Y-86410800D01*
X70967214Y-86410800D01*
X70942199Y-86405824D01*
X70917184Y-86410800D01*
X70917183Y-86410800D01*
X70843094Y-86425537D01*
X70759076Y-86481676D01*
X70744905Y-86502885D01*
X70272289Y-86975502D01*
X70265500Y-86980038D01*
X70265500Y-77265500D01*
X79973853Y-77265500D01*
X80000000Y-77270701D01*
X80026147Y-77265500D01*
X80103593Y-77250095D01*
X80191415Y-77191415D01*
X80250095Y-77103593D01*
X80270701Y-77000000D01*
X80265500Y-76973853D01*
X80265500Y-67265500D01*
X113734500Y-67265500D01*
X113734501Y-76973848D01*
X113734501Y-76973848D01*
G37*
X113734501Y-76973848D02*
X113729299Y-77000000D01*
X113749905Y-77103593D01*
X113808585Y-77191415D01*
X113896407Y-77250095D01*
X113973853Y-77265500D01*
X114000000Y-77270701D01*
X114026147Y-77265500D01*
X123734500Y-77265500D01*
X123734501Y-108734500D01*
X70265500Y-108734500D01*
X70265500Y-94509975D01*
X70356100Y-94509975D01*
X70356100Y-94965279D01*
X70443106Y-95175329D01*
X70603872Y-95336094D01*
X70813922Y-95423100D01*
X71269225Y-95423100D01*
X71412100Y-95280225D01*
X71412100Y-94367100D01*
X71793100Y-94367100D01*
X71793100Y-95280225D01*
X71935975Y-95423100D01*
X72391278Y-95423100D01*
X72601328Y-95336094D01*
X72762094Y-95175329D01*
X72849100Y-94965279D01*
X72849100Y-94509975D01*
X72706225Y-94367100D01*
X71793100Y-94367100D01*
X71412100Y-94367100D01*
X70498975Y-94367100D01*
X70356100Y-94509975D01*
X70265500Y-94509975D01*
X70265500Y-91200961D01*
X70272287Y-91205496D01*
X70834730Y-91767940D01*
X70787317Y-91838899D01*
X70720144Y-92176600D01*
X70787317Y-92514301D01*
X70978609Y-92800591D01*
X71172434Y-92930100D01*
X70813922Y-92930100D01*
X70603872Y-93017106D01*
X70443106Y-93177871D01*
X70356100Y-93387921D01*
X70356100Y-93843225D01*
X70498975Y-93986100D01*
X71412100Y-93986100D01*
X71412100Y-93966100D01*
X71793100Y-93966100D01*
X71793100Y-93986100D01*
X72706225Y-93986100D01*
X72849100Y-93843225D01*
X72849100Y-93387921D01*
X72762094Y-93177871D01*
X72601328Y-93017106D01*
X72391278Y-92930100D01*
X72032766Y-92930100D01*
X72226591Y-92800591D01*
X72417883Y-92514301D01*
X72485056Y-92176600D01*
X72417883Y-91838899D01*
X72226591Y-91552609D01*
X71940301Y-91361317D01*
X71687843Y-91311100D01*
X71517357Y-91311100D01*
X71264899Y-91361317D01*
X71193940Y-91408730D01*
X70688200Y-90902991D01*
X70688200Y-89805810D01*
X70776362Y-89893972D01*
X70720144Y-90176600D01*
X70787317Y-90514301D01*
X70978609Y-90800591D01*
X71264899Y-90991883D01*
X71517357Y-91042100D01*
X71687843Y-91042100D01*
X71940301Y-90991883D01*
X72226591Y-90800591D01*
X72417883Y-90514301D01*
X72485056Y-90176600D01*
X72417883Y-89838899D01*
X72226591Y-89552609D01*
X71940301Y-89361317D01*
X71687843Y-89311100D01*
X71517357Y-89311100D01*
X71264899Y-89361317D01*
X71083400Y-89482590D01*
X70967600Y-89366791D01*
X70967600Y-88784115D01*
X70978609Y-88800591D01*
X71264899Y-88991883D01*
X71517357Y-89042100D01*
X71687843Y-89042100D01*
X71940301Y-88991883D01*
X72226591Y-88800591D01*
X72417883Y-88514301D01*
X72485056Y-88176600D01*
X72417883Y-87838899D01*
X72226591Y-87552609D01*
X72190390Y-87528420D01*
X72266610Y-87452200D01*
X77948991Y-87452200D01*
X78005378Y-87508587D01*
X77995500Y-87532434D01*
X77995500Y-87727566D01*
X78070175Y-87907846D01*
X78208154Y-88045825D01*
X78232000Y-88055702D01*
X78232001Y-91330500D01*
X78134434Y-91330500D01*
X77954154Y-91405175D01*
X77816175Y-91543154D01*
X77741500Y-91723434D01*
X77741500Y-91918566D01*
X77816175Y-92098846D01*
X77954154Y-92236825D01*
X78134434Y-92311500D01*
X78329566Y-92311500D01*
X78509846Y-92236825D01*
X78647825Y-92098846D01*
X78722500Y-91918566D01*
X78722500Y-91723434D01*
X78708898Y-91690597D01*
X78725263Y-91666106D01*
X78740000Y-91592017D01*
X78740000Y-91592016D01*
X78744976Y-91567001D01*
X78740000Y-91541986D01*
X78740000Y-88055702D01*
X78763846Y-88045825D01*
X78901825Y-87907846D01*
X78976500Y-87727566D01*
X78976500Y-87532434D01*
X78901825Y-87352154D01*
X78763846Y-87214175D01*
X78663985Y-87172811D01*
X79701602Y-87172811D01*
X80443778Y-87914988D01*
X80433900Y-87938834D01*
X80433900Y-88133966D01*
X80508575Y-88314246D01*
X80646554Y-88452225D01*
X80826834Y-88526900D01*
X80975201Y-88526900D01*
X80975200Y-90166390D01*
X77470000Y-93671591D01*
X77470000Y-91611702D01*
X77493846Y-91601825D01*
X77631825Y-91463846D01*
X77706500Y-91283566D01*
X77706500Y-91088434D01*
X77631825Y-90908154D01*
X77493846Y-90770175D01*
X77313566Y-90695500D01*
X77118434Y-90695500D01*
X76938154Y-90770175D01*
X76800175Y-90908154D01*
X76725500Y-91088434D01*
X76725500Y-91283566D01*
X76800175Y-91463846D01*
X76938154Y-91601825D01*
X76962000Y-91611702D01*
X76962001Y-93696989D01*
X74590289Y-96068702D01*
X74569076Y-96082876D01*
X74517929Y-96159424D01*
X74512937Y-96166895D01*
X74493224Y-96266000D01*
X74498200Y-96291016D01*
X74498201Y-99107189D01*
X73649623Y-99955768D01*
X72150000Y-99955768D01*
X72075671Y-99970553D01*
X72012657Y-100012657D01*
X71970553Y-100075671D01*
X71955768Y-100150000D01*
X71955768Y-101850000D01*
X71970553Y-101924329D01*
X72012657Y-101987343D01*
X72075671Y-102029447D01*
X72150000Y-102044232D01*
X73850000Y-102044232D01*
X73924329Y-102029447D01*
X73987343Y-101987343D01*
X74029447Y-101924329D01*
X74044232Y-101850000D01*
X74044232Y-100279577D01*
X74904600Y-99419210D01*
X74904600Y-99615189D01*
X74260087Y-100259704D01*
X74238877Y-100273876D01*
X74209772Y-100317435D01*
X74182737Y-100357895D01*
X74163024Y-100457000D01*
X74168001Y-100482021D01*
X74168000Y-102396984D01*
X74163024Y-102422000D01*
X74168000Y-102447016D01*
X74182737Y-102521105D01*
X74238876Y-102605124D01*
X74260089Y-102619298D01*
X74645963Y-103005172D01*
X74559871Y-103134017D01*
X74479116Y-103540000D01*
X74559871Y-103945983D01*
X74789842Y-104290158D01*
X75134017Y-104520129D01*
X75437523Y-104580500D01*
X75642477Y-104580500D01*
X75910879Y-104527112D01*
X75840791Y-104597200D01*
X74416411Y-104597200D01*
X74047295Y-104228086D01*
X74047293Y-104228083D01*
X73894038Y-104074828D01*
X73980129Y-103945983D01*
X74060884Y-103540000D01*
X73980129Y-103134017D01*
X73750158Y-102789842D01*
X73405983Y-102559871D01*
X73102477Y-102499500D01*
X72897523Y-102499500D01*
X72594017Y-102559871D01*
X72249842Y-102789842D01*
X72019871Y-103134017D01*
X71939116Y-103540000D01*
X72019871Y-103945983D01*
X72249842Y-104290158D01*
X72594017Y-104520129D01*
X72897523Y-104580500D01*
X73102477Y-104580500D01*
X73405983Y-104520129D01*
X73534828Y-104434038D01*
X73688083Y-104587293D01*
X73688086Y-104587295D01*
X74113906Y-105013116D01*
X74128076Y-105034324D01*
X74149283Y-105048494D01*
X74149284Y-105048495D01*
X74212094Y-105090463D01*
X74311200Y-105110176D01*
X74336217Y-105105200D01*
X75126042Y-105105200D01*
X74789842Y-105329842D01*
X74559871Y-105674017D01*
X74479116Y-106080000D01*
X74559871Y-106485983D01*
X74789842Y-106830158D01*
X74844233Y-106866501D01*
X74145712Y-106866501D01*
X73894038Y-106614827D01*
X73980129Y-106485983D01*
X74060884Y-106080000D01*
X73980129Y-105674017D01*
X73750158Y-105329842D01*
X73405983Y-105099871D01*
X73102477Y-105039500D01*
X72897523Y-105039500D01*
X72594017Y-105099871D01*
X72249842Y-105329842D01*
X72019871Y-105674017D01*
X71939116Y-106080000D01*
X72019871Y-106485983D01*
X72249842Y-106830158D01*
X72594017Y-107060129D01*
X72897523Y-107120500D01*
X73102477Y-107120500D01*
X73405983Y-107060129D01*
X73534827Y-106974038D01*
X73843207Y-107282418D01*
X73857377Y-107303625D01*
X73941395Y-107359764D01*
X73998507Y-107371124D01*
X74040501Y-107379477D01*
X74065518Y-107374501D01*
X76014425Y-107374501D01*
X76039441Y-107379477D01*
X76064457Y-107374501D01*
X76064458Y-107374501D01*
X76138547Y-107359764D01*
X76222565Y-107303625D01*
X76236739Y-107282412D01*
X76996426Y-106522726D01*
X77017636Y-106508554D01*
X77073775Y-106424536D01*
X77088512Y-106350447D01*
X77088512Y-106350446D01*
X77093488Y-106325431D01*
X77088512Y-106300416D01*
X77088512Y-100420359D01*
X77093488Y-100395344D01*
X77086039Y-100357894D01*
X77073775Y-100296239D01*
X77017636Y-100212221D01*
X76996426Y-100198049D01*
X76555600Y-99757224D01*
X76555600Y-97057009D01*
X78567813Y-95044797D01*
X78551515Y-95084144D01*
X78551515Y-95279276D01*
X78559379Y-95298260D01*
X78558893Y-95298585D01*
X78528798Y-95343626D01*
X78502753Y-95382604D01*
X78483040Y-95481709D01*
X78488017Y-95506730D01*
X78488016Y-103482000D01*
X78483040Y-103507016D01*
X78488016Y-103532032D01*
X78502753Y-103606121D01*
X78558892Y-103690140D01*
X78580105Y-103704314D01*
X82479704Y-107603914D01*
X82493876Y-107625124D01*
X82577894Y-107681263D01*
X82677000Y-107700976D01*
X82702017Y-107696000D01*
X91160984Y-107696000D01*
X91186000Y-107700976D01*
X91211016Y-107696000D01*
X91211017Y-107696000D01*
X91285106Y-107681263D01*
X91369124Y-107625124D01*
X91383298Y-107603911D01*
X91458039Y-107529170D01*
X96107699Y-107529170D01*
X96309531Y-107861507D01*
X96623179Y-108091308D01*
X96702833Y-108124279D01*
X96853500Y-108020097D01*
X96853500Y-107378500D01*
X96208731Y-107378500D01*
X96107699Y-107529170D01*
X91458039Y-107529170D01*
X92140379Y-106846830D01*
X96107699Y-106846830D01*
X96208731Y-106997500D01*
X96853500Y-106997500D01*
X96853500Y-106355903D01*
X96702833Y-106251721D01*
X96623179Y-106284692D01*
X96309531Y-106514493D01*
X96107699Y-106846830D01*
X92140379Y-106846830D01*
X94084831Y-104902379D01*
X94505195Y-105076500D01*
X94978805Y-105076500D01*
X95416364Y-104895257D01*
X95751257Y-104560364D01*
X95925378Y-104140000D01*
X96033791Y-104140000D01*
X97790001Y-105896211D01*
X97790000Y-106533481D01*
X97778469Y-106514493D01*
X97464821Y-106284692D01*
X97385167Y-106251721D01*
X97234500Y-106355903D01*
X97234500Y-106997500D01*
X97254500Y-106997500D01*
X97254500Y-107378500D01*
X97234500Y-107378500D01*
X97234500Y-108020097D01*
X97385167Y-108124279D01*
X97464821Y-108091308D01*
X97778469Y-107861507D01*
X97831986Y-107773386D01*
X97983380Y-107803500D01*
X98104620Y-107803500D01*
X98284156Y-107767788D01*
X98487751Y-107631751D01*
X98544000Y-107547568D01*
X98600249Y-107631751D01*
X98803844Y-107767788D01*
X98983380Y-107803500D01*
X99104620Y-107803500D01*
X99284156Y-107767788D01*
X99435449Y-107666698D01*
X99439553Y-107687329D01*
X99481657Y-107750343D01*
X99544671Y-107792447D01*
X99619000Y-107807232D01*
X100469000Y-107807232D01*
X100543329Y-107792447D01*
X100606343Y-107750343D01*
X100648447Y-107687329D01*
X100663232Y-107613000D01*
X100663232Y-107442000D01*
X102209984Y-107442000D01*
X102235000Y-107446976D01*
X102260016Y-107442000D01*
X102260017Y-107442000D01*
X102334106Y-107427263D01*
X102418124Y-107371124D01*
X102432298Y-107349911D01*
X105923588Y-103858623D01*
X105947434Y-103868500D01*
X106142566Y-103868500D01*
X106322846Y-103793825D01*
X106460825Y-103655846D01*
X106535500Y-103475566D01*
X106535500Y-103280434D01*
X106460825Y-103100154D01*
X106322846Y-102962175D01*
X106142566Y-102887500D01*
X105947434Y-102887500D01*
X105767154Y-102962175D01*
X105629175Y-103100154D01*
X105554500Y-103280434D01*
X105554500Y-103475566D01*
X105564377Y-103499412D01*
X102129791Y-106934000D01*
X100663232Y-106934000D01*
X100663232Y-106763000D01*
X100648447Y-106688671D01*
X100606343Y-106625657D01*
X100543329Y-106583553D01*
X100469000Y-106568768D01*
X99619000Y-106568768D01*
X99544671Y-106583553D01*
X99481657Y-106625657D01*
X99439553Y-106688671D01*
X99435449Y-106709302D01*
X99297999Y-106617462D01*
X99297998Y-104911018D01*
X99302975Y-104885998D01*
X99283261Y-104786892D01*
X99241293Y-104724084D01*
X99227122Y-104702875D01*
X99205912Y-104688703D01*
X99130299Y-104613090D01*
X99130295Y-104613084D01*
X99128916Y-104611705D01*
X99231057Y-104509564D01*
X99412300Y-104072005D01*
X99412300Y-103623795D01*
X100536500Y-103623795D01*
X100536500Y-104097405D01*
X100717743Y-104534964D01*
X101052636Y-104869857D01*
X101490195Y-105051100D01*
X101963805Y-105051100D01*
X102401364Y-104869857D01*
X102736257Y-104534964D01*
X102917500Y-104097405D01*
X102917500Y-103623795D01*
X102736257Y-103186236D01*
X102401364Y-102851343D01*
X101963805Y-102670100D01*
X101490195Y-102670100D01*
X101052636Y-102851343D01*
X100717743Y-103186236D01*
X100536500Y-103623795D01*
X99412300Y-103623795D01*
X99412300Y-103598395D01*
X99231057Y-103160836D01*
X98896164Y-102825943D01*
X98458605Y-102644700D01*
X97984995Y-102644700D01*
X97547436Y-102825943D01*
X97445294Y-102928085D01*
X96818898Y-102301689D01*
X96804724Y-102280476D01*
X96720706Y-102224337D01*
X96646617Y-102209600D01*
X96646616Y-102209600D01*
X96621600Y-102204624D01*
X96596584Y-102209600D01*
X94313438Y-102209600D01*
X94288423Y-102204624D01*
X94263408Y-102209600D01*
X94263407Y-102209600D01*
X94189318Y-102224337D01*
X94105300Y-102280476D01*
X94091128Y-102301686D01*
X93056089Y-103336726D01*
X93034876Y-103350900D01*
X92996783Y-103407911D01*
X92978737Y-103434919D01*
X92959024Y-103534024D01*
X92964000Y-103559041D01*
X92964001Y-104542789D01*
X90699791Y-106807000D01*
X82782211Y-106807000D01*
X79298800Y-103323591D01*
X79298800Y-99593400D01*
X79903424Y-99593400D01*
X79908401Y-99618421D01*
X79908400Y-101858984D01*
X79903424Y-101884000D01*
X79908400Y-101909016D01*
X79923137Y-101983105D01*
X79979276Y-102067124D01*
X80000489Y-102081298D01*
X80671704Y-102752514D01*
X80685876Y-102773724D01*
X80769894Y-102829863D01*
X80843983Y-102844600D01*
X80843984Y-102844600D01*
X80868999Y-102849576D01*
X80894014Y-102844600D01*
X81489298Y-102844600D01*
X81499175Y-102868446D01*
X81637154Y-103006425D01*
X81817434Y-103081100D01*
X82012566Y-103081100D01*
X82192846Y-103006425D01*
X82330825Y-102868446D01*
X82405500Y-102688166D01*
X82405500Y-102493034D01*
X82330825Y-102312754D01*
X82192846Y-102174775D01*
X82012566Y-102100100D01*
X81817434Y-102100100D01*
X81637154Y-102174775D01*
X81499175Y-102312754D01*
X81489298Y-102336600D01*
X80974210Y-102336600D01*
X80416400Y-101778791D01*
X80416400Y-100347195D01*
X80419700Y-100347195D01*
X80419700Y-100820805D01*
X80600943Y-101258364D01*
X80935836Y-101593257D01*
X81373395Y-101774500D01*
X81847005Y-101774500D01*
X82284564Y-101593257D01*
X82619457Y-101258364D01*
X82800700Y-100820805D01*
X82800700Y-100347195D01*
X82619457Y-99909636D01*
X82284564Y-99574743D01*
X81847005Y-99393500D01*
X81373395Y-99393500D01*
X80935836Y-99574743D01*
X80600943Y-99909636D01*
X80419700Y-100347195D01*
X80416400Y-100347195D01*
X80416400Y-99698609D01*
X81793588Y-98321423D01*
X81817434Y-98331300D01*
X82012566Y-98331300D01*
X82192846Y-98256625D01*
X82330825Y-98118646D01*
X82405500Y-97938366D01*
X82405500Y-97743234D01*
X82330825Y-97562954D01*
X82192846Y-97424975D01*
X82012566Y-97350300D01*
X81817434Y-97350300D01*
X81637154Y-97424975D01*
X81499175Y-97562954D01*
X81424500Y-97743234D01*
X81424500Y-97938366D01*
X81434377Y-97962212D01*
X80000487Y-99396104D01*
X79979277Y-99410276D01*
X79965106Y-99431485D01*
X79923137Y-99494295D01*
X79903424Y-99593400D01*
X79298800Y-99593400D01*
X79298800Y-96955409D01*
X80396588Y-95857622D01*
X80420434Y-95867500D01*
X80615566Y-95867500D01*
X80795846Y-95792825D01*
X80933825Y-95654846D01*
X81008500Y-95474566D01*
X81008500Y-95279434D01*
X80933825Y-95099154D01*
X80795846Y-94961175D01*
X80757279Y-94945200D01*
X82216191Y-94945200D01*
X83794600Y-96523611D01*
X83794600Y-96551497D01*
X83770754Y-96561375D01*
X83632775Y-96699354D01*
X83558100Y-96879634D01*
X83558100Y-97074766D01*
X83632775Y-97255046D01*
X83770754Y-97393025D01*
X83951034Y-97467700D01*
X84146166Y-97467700D01*
X84326446Y-97393025D01*
X84455000Y-97264471D01*
X84455000Y-99400622D01*
X84034636Y-99574743D01*
X83699743Y-99909636D01*
X83518500Y-100347195D01*
X83518500Y-100820805D01*
X83699743Y-101258364D01*
X84034636Y-101593257D01*
X84472195Y-101774500D01*
X84945805Y-101774500D01*
X85366170Y-101600379D01*
X86134510Y-102368720D01*
X86134510Y-102414954D01*
X86110663Y-102424832D01*
X85972684Y-102562811D01*
X85962807Y-102586657D01*
X84890357Y-102586657D01*
X84865342Y-102581681D01*
X84840327Y-102586657D01*
X84840326Y-102586657D01*
X84766237Y-102601394D01*
X84682219Y-102657533D01*
X84668047Y-102678743D01*
X82925413Y-104421378D01*
X82901566Y-104411500D01*
X82706434Y-104411500D01*
X82526154Y-104486175D01*
X82388175Y-104624154D01*
X82313500Y-104804434D01*
X82313500Y-104999566D01*
X82388175Y-105179846D01*
X82526154Y-105317825D01*
X82706434Y-105392500D01*
X82901566Y-105392500D01*
X83081846Y-105317825D01*
X83185000Y-105214671D01*
X83288154Y-105317825D01*
X83468434Y-105392500D01*
X83663566Y-105392500D01*
X83843846Y-105317825D01*
X83981825Y-105179846D01*
X84056500Y-104999566D01*
X84056500Y-104804434D01*
X83981825Y-104624154D01*
X83927340Y-104569669D01*
X85017410Y-103479600D01*
X85797591Y-103479600D01*
X86610390Y-104292400D01*
X85833669Y-105069122D01*
X85719413Y-105183378D01*
X85695566Y-105173500D01*
X85500434Y-105173500D01*
X85320154Y-105248175D01*
X85182175Y-105386154D01*
X85107500Y-105566434D01*
X85107500Y-105761566D01*
X85182175Y-105941846D01*
X85320154Y-106079825D01*
X85500434Y-106154500D01*
X85695566Y-106154500D01*
X85875846Y-106079825D01*
X86013825Y-105941846D01*
X86088500Y-105761566D01*
X86088500Y-105566434D01*
X86078622Y-105542587D01*
X87131521Y-104489690D01*
X87152723Y-104475523D01*
X87166890Y-104454321D01*
X87461717Y-104159494D01*
X87482924Y-104145324D01*
X87514943Y-104097405D01*
X87539063Y-104061306D01*
X87544609Y-104033424D01*
X87553800Y-103987217D01*
X87553800Y-103987216D01*
X87558776Y-103962200D01*
X87553800Y-103937183D01*
X87553800Y-103826995D01*
X90122500Y-103826995D01*
X90122500Y-104300605D01*
X90303743Y-104738164D01*
X90638636Y-105073057D01*
X91076195Y-105254300D01*
X91549805Y-105254300D01*
X91987364Y-105073057D01*
X92322257Y-104738164D01*
X92503500Y-104300605D01*
X92503500Y-103826995D01*
X92329379Y-103406631D01*
X92418209Y-103317801D01*
X92820616Y-103317801D01*
X92894705Y-103303064D01*
X92978723Y-103246925D01*
X93034862Y-103162907D01*
X93054575Y-103063801D01*
X93034862Y-102964695D01*
X92978723Y-102880677D01*
X92904756Y-102831254D01*
X93805810Y-101930200D01*
X94290898Y-101930200D01*
X94300775Y-101954046D01*
X94438754Y-102092025D01*
X94619034Y-102166700D01*
X94814166Y-102166700D01*
X94994446Y-102092025D01*
X95132425Y-101954046D01*
X95207100Y-101773766D01*
X95207100Y-101578634D01*
X95132425Y-101398354D01*
X94994446Y-101260375D01*
X94814166Y-101185700D01*
X94619034Y-101185700D01*
X94438754Y-101260375D01*
X94300775Y-101398354D01*
X94290898Y-101422200D01*
X93725614Y-101422200D01*
X93700599Y-101417224D01*
X93675584Y-101422200D01*
X93675583Y-101422200D01*
X93601494Y-101436937D01*
X93517476Y-101493076D01*
X93503304Y-101514286D01*
X92151087Y-102866504D01*
X92129875Y-102880677D01*
X92115703Y-102901887D01*
X91970169Y-103047421D01*
X91549805Y-102873300D01*
X91076195Y-102873300D01*
X90638636Y-103054543D01*
X90303743Y-103389436D01*
X90122500Y-103826995D01*
X87553800Y-103826995D01*
X87553800Y-101663972D01*
X87697995Y-101723700D01*
X88171605Y-101723700D01*
X88609164Y-101542457D01*
X88944057Y-101207564D01*
X89125300Y-100770005D01*
X89125300Y-100296395D01*
X88944057Y-99858836D01*
X88609164Y-99523943D01*
X88171605Y-99342700D01*
X87697995Y-99342700D01*
X87260436Y-99523943D01*
X87094794Y-99689585D01*
X86752510Y-99347300D01*
X86838566Y-99347300D01*
X87018846Y-99272625D01*
X87156825Y-99134646D01*
X87231500Y-98954366D01*
X87231500Y-98759234D01*
X87156825Y-98578954D01*
X87018846Y-98440975D01*
X86838566Y-98366300D01*
X86643434Y-98366300D01*
X86619587Y-98376178D01*
X85699600Y-97456191D01*
X85699600Y-97079947D01*
X85838544Y-97137500D01*
X86033676Y-97137500D01*
X86213956Y-97062825D01*
X86351935Y-96924846D01*
X86426610Y-96744566D01*
X86426610Y-96549434D01*
X86416733Y-96525588D01*
X86433404Y-96508917D01*
X86433408Y-96508911D01*
X86465119Y-96477200D01*
X89297968Y-96477200D01*
X89297968Y-97477200D01*
X89312753Y-97551529D01*
X89354857Y-97614543D01*
X89417871Y-97656647D01*
X89492200Y-97671432D01*
X90492200Y-97671432D01*
X90566529Y-97656647D01*
X90629543Y-97614543D01*
X90671647Y-97551529D01*
X90686432Y-97477200D01*
X90686432Y-96477200D01*
X90671647Y-96402871D01*
X90629543Y-96339857D01*
X90566529Y-96297753D01*
X90492200Y-96282968D01*
X89492200Y-96282968D01*
X89417871Y-96297753D01*
X89354857Y-96339857D01*
X89312753Y-96402871D01*
X89297968Y-96477200D01*
X86465119Y-96477200D01*
X87565320Y-95377000D01*
X89507788Y-95377000D01*
X89517665Y-95400846D01*
X89655644Y-95538825D01*
X89835924Y-95613500D01*
X90031056Y-95613500D01*
X90211336Y-95538825D01*
X90349315Y-95400846D01*
X90423990Y-95220566D01*
X90423990Y-95025434D01*
X90349315Y-94845154D01*
X90211336Y-94707175D01*
X90031056Y-94632500D01*
X89835924Y-94632500D01*
X89655644Y-94707175D01*
X89517665Y-94845154D01*
X89507788Y-94869000D01*
X89085671Y-94869000D01*
X89188825Y-94765846D01*
X89263500Y-94585566D01*
X89263500Y-94390434D01*
X89253622Y-94366587D01*
X89686209Y-93934001D01*
X89933500Y-93934001D01*
X89933500Y-94077566D01*
X90008175Y-94257846D01*
X90146154Y-94395825D01*
X90326434Y-94470500D01*
X90521566Y-94470500D01*
X90701846Y-94395825D01*
X90734501Y-94363170D01*
X90734501Y-99973848D01*
X90729299Y-100000000D01*
X90749905Y-100103593D01*
X90808585Y-100191415D01*
X90896407Y-100250095D01*
X90973853Y-100265500D01*
X91000000Y-100270701D01*
X91026147Y-100265500D01*
X102973853Y-100265500D01*
X103000000Y-100270701D01*
X103026147Y-100265500D01*
X103103593Y-100250095D01*
X103191415Y-100191415D01*
X103250095Y-100103593D01*
X103270701Y-100000000D01*
X103265500Y-99973853D01*
X103265500Y-96375600D01*
X103318768Y-96375600D01*
X103318768Y-97375600D01*
X103333553Y-97449929D01*
X103375657Y-97512943D01*
X103438671Y-97555047D01*
X103513000Y-97569832D01*
X104513000Y-97569832D01*
X104587329Y-97555047D01*
X104650343Y-97512943D01*
X104692447Y-97449929D01*
X104707232Y-97375600D01*
X104707232Y-96375600D01*
X104692447Y-96301271D01*
X104650343Y-96238257D01*
X104587329Y-96196153D01*
X104513000Y-96181368D01*
X103513000Y-96181368D01*
X103438671Y-96196153D01*
X103375657Y-96238257D01*
X103333553Y-96301271D01*
X103318768Y-96375600D01*
X103265500Y-96375600D01*
X103265500Y-93590795D01*
X115624100Y-93590795D01*
X115624100Y-94064405D01*
X115805343Y-94501964D01*
X116140236Y-94836857D01*
X116577795Y-95018100D01*
X117051405Y-95018100D01*
X117488964Y-94836857D01*
X117823857Y-94501964D01*
X118005100Y-94064405D01*
X118005100Y-93590795D01*
X117823857Y-93153236D01*
X117488964Y-92818343D01*
X117051405Y-92637100D01*
X116577795Y-92637100D01*
X116140236Y-92818343D01*
X115805343Y-93153236D01*
X115624100Y-93590795D01*
X103265500Y-93590795D01*
X103265500Y-90813000D01*
X103369568Y-90813000D01*
X103369568Y-91813000D01*
X103384353Y-91887329D01*
X103426457Y-91950343D01*
X103489471Y-91992447D01*
X103563800Y-92007232D01*
X104563800Y-92007232D01*
X104638129Y-91992447D01*
X104701143Y-91950343D01*
X104743247Y-91887329D01*
X104758032Y-91813000D01*
X104758032Y-90813000D01*
X104743247Y-90738671D01*
X104701143Y-90675657D01*
X104638129Y-90633553D01*
X104563800Y-90618768D01*
X103563800Y-90618768D01*
X103489471Y-90633553D01*
X103426457Y-90675657D01*
X103384353Y-90738671D01*
X103369568Y-90813000D01*
X103265500Y-90813000D01*
X103265500Y-87026147D01*
X103270701Y-87000000D01*
X103250095Y-86896407D01*
X103191415Y-86808585D01*
X103103593Y-86749905D01*
X103083841Y-86745976D01*
X103000000Y-86729299D01*
X102973853Y-86734500D01*
X91026147Y-86734500D01*
X91000000Y-86729299D01*
X90916159Y-86745976D01*
X90896407Y-86749905D01*
X90808585Y-86808585D01*
X90749905Y-86896407D01*
X90729299Y-87000000D01*
X90734500Y-87026147D01*
X90734500Y-90421777D01*
X90605878Y-90368500D01*
X90325575Y-90368500D01*
X90182700Y-90511375D01*
X90182700Y-91249500D01*
X90202700Y-91249500D01*
X90202700Y-91630500D01*
X90182700Y-91630500D01*
X90182700Y-92368625D01*
X90325575Y-92511500D01*
X90605878Y-92511500D01*
X90734500Y-92458223D01*
X90734501Y-93596830D01*
X90701846Y-93564175D01*
X90521566Y-93489500D01*
X90326434Y-93489500D01*
X90307450Y-93497363D01*
X90307125Y-93496877D01*
X90223107Y-93440738D01*
X90149018Y-93426001D01*
X90149017Y-93426001D01*
X90124001Y-93421025D01*
X90098985Y-93426001D01*
X89606013Y-93426001D01*
X89580998Y-93421025D01*
X89555983Y-93426001D01*
X89555982Y-93426001D01*
X89481893Y-93440738D01*
X89397875Y-93496877D01*
X89383703Y-93518087D01*
X88894413Y-94007378D01*
X88870566Y-93997500D01*
X88675434Y-93997500D01*
X88495154Y-94072175D01*
X88357175Y-94210154D01*
X88282500Y-94390434D01*
X88282500Y-94585566D01*
X88357175Y-94765846D01*
X88460329Y-94869000D01*
X87485127Y-94869000D01*
X87460110Y-94864024D01*
X87435093Y-94869000D01*
X87361004Y-94883737D01*
X87276986Y-94939876D01*
X87262814Y-94961086D01*
X86074199Y-96149702D01*
X86074193Y-96149706D01*
X86057522Y-96166377D01*
X86033676Y-96156500D01*
X85838544Y-96156500D01*
X85699600Y-96214053D01*
X85699600Y-92589381D01*
X86231921Y-92057062D01*
X86255767Y-92066939D01*
X86400510Y-92066939D01*
X86367986Y-92099463D01*
X86346776Y-92113635D01*
X86332605Y-92134844D01*
X86290636Y-92197654D01*
X86270923Y-92296759D01*
X86275900Y-92321780D01*
X86275899Y-92651682D01*
X86270923Y-92676699D01*
X86275899Y-92701715D01*
X86290636Y-92775804D01*
X86346775Y-92859823D01*
X86367988Y-92873997D01*
X86539778Y-93045787D01*
X86529900Y-93069634D01*
X86529900Y-93264766D01*
X86604575Y-93445046D01*
X86742554Y-93583025D01*
X86922834Y-93657700D01*
X87117966Y-93657700D01*
X87298246Y-93583025D01*
X87436225Y-93445046D01*
X87510900Y-93264766D01*
X87510900Y-93069634D01*
X87436225Y-92889354D01*
X87377254Y-92830383D01*
X87399846Y-92821025D01*
X87537825Y-92683046D01*
X87612500Y-92502766D01*
X87612500Y-92307634D01*
X87602622Y-92283787D01*
X88113034Y-91773375D01*
X88920700Y-91773375D01*
X88920700Y-92053679D01*
X89007706Y-92263729D01*
X89168472Y-92424494D01*
X89378522Y-92511500D01*
X89658825Y-92511500D01*
X89801700Y-92368625D01*
X89801700Y-91630500D01*
X89063575Y-91630500D01*
X88920700Y-91773375D01*
X88113034Y-91773375D01*
X88920700Y-90965710D01*
X88920700Y-91106625D01*
X89063575Y-91249500D01*
X89801700Y-91249500D01*
X89801700Y-90511375D01*
X89658825Y-90368500D01*
X89517910Y-90368500D01*
X89823914Y-90062496D01*
X89845124Y-90048324D01*
X89901263Y-89964306D01*
X89916000Y-89890217D01*
X89916000Y-89890216D01*
X89920976Y-89865201D01*
X89916000Y-89840186D01*
X89916000Y-86592209D01*
X90056312Y-86451898D01*
X112102289Y-86451898D01*
X115739981Y-90089591D01*
X115573300Y-90491995D01*
X115573300Y-90965605D01*
X115754543Y-91403164D01*
X116089436Y-91738057D01*
X116526995Y-91919300D01*
X117000605Y-91919300D01*
X117438164Y-91738057D01*
X117773057Y-91403164D01*
X117954300Y-90965605D01*
X117954300Y-90491995D01*
X117773057Y-90054436D01*
X117438164Y-89719543D01*
X117000605Y-89538300D01*
X116526995Y-89538300D01*
X116089436Y-89719543D01*
X116088894Y-89720085D01*
X112454210Y-86085401D01*
X114834592Y-86085401D01*
X115663781Y-86914591D01*
X115497100Y-87316995D01*
X115497100Y-87790605D01*
X115678343Y-88228164D01*
X116013236Y-88563057D01*
X116450795Y-88744300D01*
X116924405Y-88744300D01*
X117361964Y-88563057D01*
X117696857Y-88228164D01*
X117878100Y-87790605D01*
X117878100Y-87316995D01*
X117696857Y-86879436D01*
X117361964Y-86544543D01*
X116924405Y-86363300D01*
X116450795Y-86363300D01*
X116013236Y-86544543D01*
X116012694Y-86545085D01*
X115137099Y-85669490D01*
X115122925Y-85648277D01*
X115038907Y-85592138D01*
X114964818Y-85577401D01*
X114964817Y-85577401D01*
X114939801Y-85572425D01*
X114914785Y-85577401D01*
X98792835Y-85577401D01*
X98936301Y-85341170D01*
X98835269Y-85190500D01*
X98190500Y-85190500D01*
X98190500Y-85210500D01*
X97809500Y-85210500D01*
X97809500Y-85190500D01*
X97789500Y-85190500D01*
X97789500Y-84809500D01*
X97809500Y-84809500D01*
X97809500Y-84167903D01*
X98190500Y-84167903D01*
X98190500Y-84809500D01*
X98835269Y-84809500D01*
X98936301Y-84658830D01*
X98734469Y-84326493D01*
X98420821Y-84096692D01*
X98341167Y-84063721D01*
X98190500Y-84167903D01*
X97809500Y-84167903D01*
X97658833Y-84063721D01*
X97579179Y-84096692D01*
X97265531Y-84326493D01*
X97212014Y-84414614D01*
X97060620Y-84384500D01*
X96939380Y-84384500D01*
X96759844Y-84420212D01*
X96556249Y-84556249D01*
X96500000Y-84640432D01*
X96443751Y-84556249D01*
X96240156Y-84420212D01*
X96060620Y-84384500D01*
X95939380Y-84384500D01*
X95759844Y-84420212D01*
X95608551Y-84521302D01*
X95604447Y-84500671D01*
X95562343Y-84437657D01*
X95499329Y-84395553D01*
X95425000Y-84380768D01*
X94575000Y-84380768D01*
X94500671Y-84395553D01*
X94437657Y-84437657D01*
X94395553Y-84500671D01*
X94380768Y-84575000D01*
X94380768Y-85425000D01*
X94395553Y-85499329D01*
X94437657Y-85562343D01*
X94460193Y-85577401D01*
X89860016Y-85577401D01*
X89834999Y-85572425D01*
X89809982Y-85577401D01*
X89735893Y-85592138D01*
X89651875Y-85648277D01*
X89637703Y-85669487D01*
X89220687Y-86086504D01*
X89199477Y-86100676D01*
X89185306Y-86121885D01*
X89143337Y-86184695D01*
X89123624Y-86283800D01*
X89128601Y-86308821D01*
X89128600Y-89338848D01*
X86843833Y-91623616D01*
X86843833Y-91478873D01*
X86769158Y-91298593D01*
X86631179Y-91160614D01*
X86450899Y-91085939D01*
X86255767Y-91085939D01*
X86075487Y-91160614D01*
X85937508Y-91298593D01*
X85862833Y-91478873D01*
X85862833Y-91674005D01*
X85872710Y-91697851D01*
X85343984Y-92226579D01*
X85343984Y-88563702D01*
X85367830Y-88553825D01*
X85505809Y-88415846D01*
X85580484Y-88235566D01*
X85580484Y-88078587D01*
X85648800Y-88092176D01*
X85673817Y-88087200D01*
X85807298Y-88087200D01*
X85817175Y-88111046D01*
X85955154Y-88249025D01*
X86135434Y-88323700D01*
X86330566Y-88323700D01*
X86510846Y-88249025D01*
X86648825Y-88111046D01*
X86723500Y-87930766D01*
X86723500Y-87735634D01*
X86648825Y-87555354D01*
X86510846Y-87417375D01*
X86330566Y-87342700D01*
X86135434Y-87342700D01*
X85955154Y-87417375D01*
X85817175Y-87555354D01*
X85807298Y-87579200D01*
X85754010Y-87579200D01*
X84963000Y-86788191D01*
X84963000Y-77362302D01*
X84986846Y-77352425D01*
X85124825Y-77214446D01*
X85199500Y-77034166D01*
X85199500Y-76839034D01*
X85124825Y-76658754D01*
X84986846Y-76520775D01*
X84806566Y-76446100D01*
X84611434Y-76446100D01*
X84431154Y-76520775D01*
X84293175Y-76658754D01*
X84218500Y-76839034D01*
X84218500Y-77034166D01*
X84293175Y-77214446D01*
X84431154Y-77352425D01*
X84455001Y-77362303D01*
X84455000Y-86868384D01*
X84450024Y-86893400D01*
X84455000Y-86918416D01*
X84469737Y-86992505D01*
X84525876Y-87076524D01*
X84547089Y-87090698D01*
X85103890Y-87647500D01*
X84992418Y-87647500D01*
X84812138Y-87722175D01*
X84744552Y-87789761D01*
X84715316Y-87719179D01*
X84577337Y-87581200D01*
X84397057Y-87506525D01*
X84201925Y-87506525D01*
X84021645Y-87581200D01*
X83883666Y-87719179D01*
X83808991Y-87899459D01*
X83808991Y-88094591D01*
X83883666Y-88274871D01*
X84021645Y-88412850D01*
X84045491Y-88422727D01*
X84045491Y-88567075D01*
X84040515Y-88592091D01*
X84045491Y-88617107D01*
X84060228Y-88691196D01*
X84116367Y-88775215D01*
X84137580Y-88789389D01*
X84455001Y-89106811D01*
X84455000Y-96689929D01*
X84326446Y-96561375D01*
X84302600Y-96551498D01*
X84302600Y-96443417D01*
X84307576Y-96418400D01*
X84287863Y-96319294D01*
X84245895Y-96256484D01*
X84245894Y-96256483D01*
X84231724Y-96235276D01*
X84210517Y-96221106D01*
X82629798Y-94640389D01*
X83286995Y-94640389D01*
X83312011Y-94645365D01*
X83337027Y-94640389D01*
X83337028Y-94640389D01*
X83411117Y-94625652D01*
X83495135Y-94569513D01*
X83509309Y-94548301D01*
X83677116Y-94380495D01*
X83698324Y-94366324D01*
X83754463Y-94282306D01*
X83769200Y-94208217D01*
X83774176Y-94183200D01*
X83769200Y-94158183D01*
X83769200Y-91840302D01*
X83793046Y-91830425D01*
X83931025Y-91692446D01*
X84005700Y-91512166D01*
X84005700Y-91317034D01*
X83931025Y-91136754D01*
X83793046Y-90998775D01*
X83612766Y-90924100D01*
X83417634Y-90924100D01*
X83237354Y-90998775D01*
X83099375Y-91136754D01*
X83024700Y-91317034D01*
X83024700Y-91512166D01*
X83099375Y-91692446D01*
X83237354Y-91830425D01*
X83261200Y-91840302D01*
X83261201Y-94077989D01*
X83206801Y-94132389D01*
X83048631Y-94132389D01*
X83116700Y-93968056D01*
X83116700Y-93772924D01*
X83042025Y-93592644D01*
X82904046Y-93454665D01*
X82723766Y-93379990D01*
X82528634Y-93379990D01*
X82348354Y-93454665D01*
X82210375Y-93592644D01*
X82200498Y-93616490D01*
X80793100Y-93616490D01*
X80492600Y-93315991D01*
X80492600Y-93073471D01*
X80607070Y-93187941D01*
X80787350Y-93262616D01*
X80982482Y-93262616D01*
X81162762Y-93187941D01*
X81300741Y-93049962D01*
X81375416Y-92869682D01*
X81375416Y-92674550D01*
X81365539Y-92650704D01*
X81382210Y-92634033D01*
X81382214Y-92634027D01*
X82516627Y-91499615D01*
X82537837Y-91485443D01*
X82593976Y-91401425D01*
X82608713Y-91327336D01*
X82608713Y-91327335D01*
X82613689Y-91302320D01*
X82608713Y-91277305D01*
X82608713Y-90305575D01*
X82613689Y-90280560D01*
X82605294Y-90238356D01*
X82593976Y-90181455D01*
X82537837Y-90097437D01*
X82516627Y-90083265D01*
X82194400Y-89761039D01*
X82194400Y-88268609D01*
X83880317Y-86582694D01*
X83901524Y-86568524D01*
X83918729Y-86542776D01*
X83957663Y-86484506D01*
X83964149Y-86451898D01*
X83972400Y-86410417D01*
X83977376Y-86385400D01*
X83972400Y-86360383D01*
X83972400Y-76737009D01*
X88929010Y-71780400D01*
X99705698Y-71780400D01*
X99715575Y-71804246D01*
X99853554Y-71942225D01*
X100033834Y-72016900D01*
X100228966Y-72016900D01*
X100409246Y-71942225D01*
X100547225Y-71804246D01*
X100621900Y-71623966D01*
X100621900Y-71428834D01*
X100547225Y-71248554D01*
X100409246Y-71110575D01*
X100228966Y-71035900D01*
X100033834Y-71035900D01*
X99853554Y-71110575D01*
X99715575Y-71248554D01*
X99705698Y-71272400D01*
X88848817Y-71272400D01*
X88823800Y-71267424D01*
X88798783Y-71272400D01*
X88724694Y-71287137D01*
X88640676Y-71343276D01*
X88626504Y-71364486D01*
X85124800Y-74866191D01*
X85124800Y-70307200D01*
X105466716Y-70307200D01*
X105547471Y-70713183D01*
X105777442Y-71057358D01*
X106121617Y-71287329D01*
X106425123Y-71347700D01*
X106630077Y-71347700D01*
X106933583Y-71287329D01*
X107277758Y-71057358D01*
X107507729Y-70713183D01*
X107522171Y-70640575D01*
X107646100Y-70640575D01*
X107646100Y-71270878D01*
X107733106Y-71480928D01*
X107893871Y-71641694D01*
X108103921Y-71728700D01*
X108734225Y-71728700D01*
X108877100Y-71585825D01*
X108877100Y-70497700D01*
X109258100Y-70497700D01*
X109258100Y-71585825D01*
X109400975Y-71728700D01*
X110031279Y-71728700D01*
X110241329Y-71641694D01*
X110402094Y-71480928D01*
X110489100Y-71270878D01*
X110489100Y-70640575D01*
X110346225Y-70497700D01*
X109258100Y-70497700D01*
X108877100Y-70497700D01*
X107788975Y-70497700D01*
X107646100Y-70640575D01*
X107522171Y-70640575D01*
X107588484Y-70307200D01*
X107507729Y-69901217D01*
X107277758Y-69557042D01*
X106958204Y-69343522D01*
X107646100Y-69343522D01*
X107646100Y-69973825D01*
X107788975Y-70116700D01*
X108877100Y-70116700D01*
X108877100Y-69028575D01*
X109258100Y-69028575D01*
X109258100Y-70116700D01*
X110346225Y-70116700D01*
X110489100Y-69973825D01*
X110489100Y-69343522D01*
X110402094Y-69133472D01*
X110241329Y-68972706D01*
X110031279Y-68885700D01*
X109400975Y-68885700D01*
X109258100Y-69028575D01*
X108877100Y-69028575D01*
X108734225Y-68885700D01*
X108103921Y-68885700D01*
X107893871Y-68972706D01*
X107733106Y-69133472D01*
X107646100Y-69343522D01*
X106958204Y-69343522D01*
X106933583Y-69327071D01*
X106630077Y-69266700D01*
X106425123Y-69266700D01*
X106121617Y-69327071D01*
X105777442Y-69557042D01*
X105547471Y-69901217D01*
X105466716Y-70307200D01*
X85124800Y-70307200D01*
X85124800Y-69386920D01*
X85136331Y-69405907D01*
X85449979Y-69635708D01*
X85529633Y-69668679D01*
X85680300Y-69564497D01*
X85680300Y-68922900D01*
X86061300Y-68922900D01*
X86061300Y-69564497D01*
X86211967Y-69668679D01*
X86291621Y-69635708D01*
X86605269Y-69405907D01*
X86807101Y-69073570D01*
X86706069Y-68922900D01*
X86061300Y-68922900D01*
X85680300Y-68922900D01*
X85660300Y-68922900D01*
X85660300Y-68541900D01*
X85680300Y-68541900D01*
X85680300Y-67900303D01*
X86061300Y-67900303D01*
X86061300Y-68541900D01*
X86706069Y-68541900D01*
X86807101Y-68391230D01*
X86605269Y-68058893D01*
X86291621Y-67829092D01*
X86211967Y-67796121D01*
X86061300Y-67900303D01*
X85680300Y-67900303D01*
X85529633Y-67796121D01*
X85449979Y-67829092D01*
X85136331Y-68058893D01*
X85082814Y-68147014D01*
X84931420Y-68116900D01*
X84810180Y-68116900D01*
X84630644Y-68152612D01*
X84479351Y-68253702D01*
X84475247Y-68233071D01*
X84433143Y-68170057D01*
X84370129Y-68127953D01*
X84295800Y-68113168D01*
X83445800Y-68113168D01*
X83371471Y-68127953D01*
X83308457Y-68170057D01*
X83266353Y-68233071D01*
X83251568Y-68307400D01*
X83251568Y-69157400D01*
X83266353Y-69231729D01*
X83308457Y-69294743D01*
X83371471Y-69336847D01*
X83445800Y-69351632D01*
X84295800Y-69351632D01*
X84370129Y-69336847D01*
X84433143Y-69294743D01*
X84475247Y-69231729D01*
X84479351Y-69211098D01*
X84616800Y-69302938D01*
X84616801Y-74840789D01*
X83150089Y-76307502D01*
X83128876Y-76321676D01*
X83081529Y-76392537D01*
X83072737Y-76405695D01*
X83053024Y-76504800D01*
X83058000Y-76529816D01*
X83058001Y-84886840D01*
X82980246Y-84809085D01*
X82799966Y-84734410D01*
X82604834Y-84734410D01*
X82424554Y-84809085D01*
X82286575Y-84947064D01*
X82211900Y-85127344D01*
X82211900Y-85322476D01*
X82221778Y-85346322D01*
X81252989Y-86315112D01*
X81231779Y-86329284D01*
X81217608Y-86350493D01*
X81175639Y-86413303D01*
X81155926Y-86512408D01*
X81160903Y-86537429D01*
X81160902Y-87603450D01*
X81021966Y-87545900D01*
X80826834Y-87545900D01*
X80802988Y-87555778D01*
X80004109Y-86756900D01*
X79989935Y-86735687D01*
X79905917Y-86679548D01*
X79831828Y-86664811D01*
X79831827Y-86664811D01*
X79806811Y-86659835D01*
X79795201Y-86662144D01*
X81383237Y-85074108D01*
X81484754Y-85175625D01*
X81665034Y-85250300D01*
X81860166Y-85250300D01*
X82040446Y-85175625D01*
X82178425Y-85037646D01*
X82253100Y-84857366D01*
X82253100Y-84662234D01*
X82178425Y-84481954D01*
X82040446Y-84343975D01*
X81860166Y-84269300D01*
X81665034Y-84269300D01*
X81484754Y-84343975D01*
X81346775Y-84481954D01*
X81338911Y-84500938D01*
X81338336Y-84500824D01*
X81313319Y-84505800D01*
X81239230Y-84520537D01*
X81155212Y-84576676D01*
X81141040Y-84597886D01*
X79328127Y-86410800D01*
X70967214Y-86410800D01*
X70942199Y-86405824D01*
X70917184Y-86410800D01*
X70917183Y-86410800D01*
X70843094Y-86425537D01*
X70759076Y-86481676D01*
X70744905Y-86502885D01*
X70272289Y-86975502D01*
X70265500Y-86980038D01*
X70265500Y-77265500D01*
X79973853Y-77265500D01*
X80000000Y-77270701D01*
X80026147Y-77265500D01*
X80103593Y-77250095D01*
X80191415Y-77191415D01*
X80250095Y-77103593D01*
X80270701Y-77000000D01*
X80265500Y-76973853D01*
X80265500Y-67265500D01*
X113734500Y-67265500D01*
X113734501Y-76973848D01*
G04 #@! TD*
M02*
