G04 #@! TF.GenerationSoftware,KiCad,Pcbnew,5.0.2-bee76a0~70~ubuntu18.04.1*
G04 #@! TF.CreationDate,2019-11-03T21:10:50+01:00*
G04 #@! TF.ProjectId,puzzlebox,70757a7a-6c65-4626-9f78-2e6b69636164,rev?*
G04 #@! TF.SameCoordinates,Original*
G04 #@! TF.FileFunction,Soldermask,Top*
G04 #@! TF.FilePolarity,Negative*
%FSLAX46Y46*%
G04 Gerber Fmt 4.6, Leading zero omitted, Abs format (unit mm)*
G04 Created by KiCad (PCBNEW 5.0.2-bee76a0~70~ubuntu18.04.1) date So 03 Nov 2019 21:10:50 CET*
%MOMM*%
%LPD*%
G01*
G04 APERTURE LIST*
%ADD10C,0.100000*%
G04 APERTURE END LIST*
D10*
G36*
X80821997Y-101188597D02*
X80874653Y-101204570D01*
X80923165Y-101230500D01*
X80965696Y-101265404D01*
X81000600Y-101307935D01*
X81026530Y-101356447D01*
X81042503Y-101409103D01*
X81048500Y-101469990D01*
X81048500Y-102695210D01*
X81042503Y-102756097D01*
X81026530Y-102808753D01*
X81000600Y-102857265D01*
X80965696Y-102899796D01*
X80923165Y-102934700D01*
X80870294Y-102962960D01*
X80849919Y-102976573D01*
X80832592Y-102993900D01*
X80818978Y-103014275D01*
X80809601Y-103036914D01*
X80804820Y-103060947D01*
X80804820Y-103085451D01*
X80809600Y-103109485D01*
X80818978Y-103132124D01*
X80832591Y-103152499D01*
X80849918Y-103169826D01*
X80870294Y-103183440D01*
X80923165Y-103211700D01*
X80965696Y-103246604D01*
X81000600Y-103289135D01*
X81026530Y-103337647D01*
X81042503Y-103390303D01*
X81048500Y-103451190D01*
X81048500Y-104676410D01*
X81042503Y-104737297D01*
X81026530Y-104789953D01*
X81000600Y-104838465D01*
X80965696Y-104880996D01*
X80923166Y-104915899D01*
X80881284Y-104938286D01*
X80860909Y-104951900D01*
X80843582Y-104969227D01*
X80829969Y-104989602D01*
X80820591Y-105012241D01*
X80815811Y-105036274D01*
X80815811Y-105060779D01*
X80820592Y-105084812D01*
X80829969Y-105107451D01*
X80843583Y-105127826D01*
X80860910Y-105145153D01*
X80881285Y-105158766D01*
X80896482Y-105165061D01*
X80948565Y-105192900D01*
X80991096Y-105227804D01*
X81026000Y-105270335D01*
X81051930Y-105318847D01*
X81067903Y-105371503D01*
X81073900Y-105432390D01*
X81073900Y-106657610D01*
X81067903Y-106718497D01*
X81051930Y-106771153D01*
X81026000Y-106819665D01*
X80991096Y-106862196D01*
X80948567Y-106897099D01*
X80920605Y-106912044D01*
X80900230Y-106925657D01*
X80882903Y-106942984D01*
X80869289Y-106963359D01*
X80859911Y-106985998D01*
X80855130Y-107010031D01*
X80855130Y-107034535D01*
X80859910Y-107058569D01*
X80869287Y-107081208D01*
X80882900Y-107101583D01*
X80900227Y-107118910D01*
X80920604Y-107132525D01*
X80950865Y-107148700D01*
X80993396Y-107183604D01*
X81028300Y-107226135D01*
X81054230Y-107274647D01*
X81070203Y-107327303D01*
X81076200Y-107388190D01*
X81076200Y-108613410D01*
X81070203Y-108674297D01*
X81054230Y-108726953D01*
X81028300Y-108775465D01*
X80993396Y-108817996D01*
X80950865Y-108852900D01*
X80902353Y-108878830D01*
X80849697Y-108894803D01*
X80788810Y-108900800D01*
X79988590Y-108900800D01*
X79927703Y-108894803D01*
X79875047Y-108878830D01*
X79826535Y-108852900D01*
X79784004Y-108817996D01*
X79749100Y-108775465D01*
X79723170Y-108726953D01*
X79707197Y-108674297D01*
X79701200Y-108613410D01*
X79701200Y-107388190D01*
X79707197Y-107327303D01*
X79723170Y-107274647D01*
X79749100Y-107226135D01*
X79784004Y-107183604D01*
X79826533Y-107148701D01*
X79854495Y-107133756D01*
X79874870Y-107120143D01*
X79892197Y-107102816D01*
X79905811Y-107082441D01*
X79915189Y-107059802D01*
X79919970Y-107035769D01*
X79919970Y-107011265D01*
X79915190Y-106987231D01*
X79905813Y-106964592D01*
X79892200Y-106944217D01*
X79874873Y-106926890D01*
X79854496Y-106913275D01*
X79824235Y-106897100D01*
X79781704Y-106862196D01*
X79746800Y-106819665D01*
X79720870Y-106771153D01*
X79704897Y-106718497D01*
X79698900Y-106657610D01*
X79698900Y-105432390D01*
X79704897Y-105371503D01*
X79720870Y-105318847D01*
X79746800Y-105270335D01*
X79781704Y-105227804D01*
X79824234Y-105192901D01*
X79866116Y-105170514D01*
X79886491Y-105156900D01*
X79903818Y-105139573D01*
X79917431Y-105119198D01*
X79926809Y-105096559D01*
X79931589Y-105072526D01*
X79931589Y-105048021D01*
X79926808Y-105023988D01*
X79917431Y-105001349D01*
X79903817Y-104980974D01*
X79886490Y-104963647D01*
X79866115Y-104950034D01*
X79850918Y-104943739D01*
X79798835Y-104915900D01*
X79756304Y-104880996D01*
X79721400Y-104838465D01*
X79695470Y-104789953D01*
X79679497Y-104737297D01*
X79673500Y-104676410D01*
X79673500Y-103451190D01*
X79679497Y-103390303D01*
X79695470Y-103337647D01*
X79721400Y-103289135D01*
X79756304Y-103246604D01*
X79798835Y-103211700D01*
X79851706Y-103183440D01*
X79872081Y-103169827D01*
X79889408Y-103152500D01*
X79903022Y-103132125D01*
X79912399Y-103109486D01*
X79917180Y-103085453D01*
X79917180Y-103060949D01*
X79912400Y-103036915D01*
X79903022Y-103014276D01*
X79889409Y-102993901D01*
X79872082Y-102976574D01*
X79851706Y-102962960D01*
X79798835Y-102934700D01*
X79756304Y-102899796D01*
X79721400Y-102857265D01*
X79695470Y-102808753D01*
X79679497Y-102756097D01*
X79673500Y-102695210D01*
X79673500Y-101469990D01*
X79679497Y-101409103D01*
X79695470Y-101356447D01*
X79721400Y-101307935D01*
X79756304Y-101265404D01*
X79798835Y-101230500D01*
X79847347Y-101204570D01*
X79900003Y-101188597D01*
X79960890Y-101182600D01*
X80761110Y-101182600D01*
X80821997Y-101188597D01*
X80821997Y-101188597D01*
G37*
G36*
X78946997Y-101188597D02*
X78999653Y-101204570D01*
X79048165Y-101230500D01*
X79090696Y-101265404D01*
X79125600Y-101307935D01*
X79151530Y-101356447D01*
X79167503Y-101409103D01*
X79173500Y-101469990D01*
X79173500Y-102695210D01*
X79167503Y-102756097D01*
X79151530Y-102808753D01*
X79125600Y-102857265D01*
X79090696Y-102899796D01*
X79048165Y-102934700D01*
X78995294Y-102962960D01*
X78974919Y-102976573D01*
X78957592Y-102993900D01*
X78943978Y-103014275D01*
X78934601Y-103036914D01*
X78929820Y-103060947D01*
X78929820Y-103085451D01*
X78934600Y-103109485D01*
X78943978Y-103132124D01*
X78957591Y-103152499D01*
X78974918Y-103169826D01*
X78995294Y-103183440D01*
X79048165Y-103211700D01*
X79090696Y-103246604D01*
X79125600Y-103289135D01*
X79151530Y-103337647D01*
X79167503Y-103390303D01*
X79173500Y-103451190D01*
X79173500Y-104676410D01*
X79167503Y-104737297D01*
X79151530Y-104789953D01*
X79125600Y-104838465D01*
X79090696Y-104880996D01*
X79048166Y-104915899D01*
X79006284Y-104938286D01*
X78985909Y-104951900D01*
X78968582Y-104969227D01*
X78954969Y-104989602D01*
X78945591Y-105012241D01*
X78940811Y-105036274D01*
X78940811Y-105060779D01*
X78945592Y-105084812D01*
X78954969Y-105107451D01*
X78968583Y-105127826D01*
X78985910Y-105145153D01*
X79006285Y-105158766D01*
X79021482Y-105165061D01*
X79073565Y-105192900D01*
X79116096Y-105227804D01*
X79151000Y-105270335D01*
X79176930Y-105318847D01*
X79192903Y-105371503D01*
X79198900Y-105432390D01*
X79198900Y-106657610D01*
X79192903Y-106718497D01*
X79176930Y-106771153D01*
X79151000Y-106819665D01*
X79116096Y-106862196D01*
X79073567Y-106897099D01*
X79045605Y-106912044D01*
X79025230Y-106925657D01*
X79007903Y-106942984D01*
X78994289Y-106963359D01*
X78984911Y-106985998D01*
X78980130Y-107010031D01*
X78980130Y-107034535D01*
X78984910Y-107058569D01*
X78994287Y-107081208D01*
X79007900Y-107101583D01*
X79025227Y-107118910D01*
X79045604Y-107132525D01*
X79075865Y-107148700D01*
X79118396Y-107183604D01*
X79153300Y-107226135D01*
X79179230Y-107274647D01*
X79195203Y-107327303D01*
X79201200Y-107388190D01*
X79201200Y-108613410D01*
X79195203Y-108674297D01*
X79179230Y-108726953D01*
X79153300Y-108775465D01*
X79118396Y-108817996D01*
X79075865Y-108852900D01*
X79027353Y-108878830D01*
X78974697Y-108894803D01*
X78913810Y-108900800D01*
X78113590Y-108900800D01*
X78052703Y-108894803D01*
X78000047Y-108878830D01*
X77951535Y-108852900D01*
X77909004Y-108817996D01*
X77874100Y-108775465D01*
X77848170Y-108726953D01*
X77832197Y-108674297D01*
X77826200Y-108613410D01*
X77826200Y-107388190D01*
X77832197Y-107327303D01*
X77848170Y-107274647D01*
X77874100Y-107226135D01*
X77909004Y-107183604D01*
X77951533Y-107148701D01*
X77979495Y-107133756D01*
X77999870Y-107120143D01*
X78017197Y-107102816D01*
X78030811Y-107082441D01*
X78040189Y-107059802D01*
X78044970Y-107035769D01*
X78044970Y-107011265D01*
X78040190Y-106987231D01*
X78030813Y-106964592D01*
X78017200Y-106944217D01*
X77999873Y-106926890D01*
X77979496Y-106913275D01*
X77949235Y-106897100D01*
X77906704Y-106862196D01*
X77871800Y-106819665D01*
X77845870Y-106771153D01*
X77829897Y-106718497D01*
X77823900Y-106657610D01*
X77823900Y-105432390D01*
X77829897Y-105371503D01*
X77845870Y-105318847D01*
X77871800Y-105270335D01*
X77906704Y-105227804D01*
X77949234Y-105192901D01*
X77991116Y-105170514D01*
X78011491Y-105156900D01*
X78028818Y-105139573D01*
X78042431Y-105119198D01*
X78051809Y-105096559D01*
X78056589Y-105072526D01*
X78056589Y-105048021D01*
X78051808Y-105023988D01*
X78042431Y-105001349D01*
X78028817Y-104980974D01*
X78011490Y-104963647D01*
X77991115Y-104950034D01*
X77975918Y-104943739D01*
X77923835Y-104915900D01*
X77881304Y-104880996D01*
X77846400Y-104838465D01*
X77820470Y-104789953D01*
X77804497Y-104737297D01*
X77798500Y-104676410D01*
X77798500Y-103451190D01*
X77804497Y-103390303D01*
X77820470Y-103337647D01*
X77846400Y-103289135D01*
X77881304Y-103246604D01*
X77923835Y-103211700D01*
X77976706Y-103183440D01*
X77997081Y-103169827D01*
X78014408Y-103152500D01*
X78028022Y-103132125D01*
X78037399Y-103109486D01*
X78042180Y-103085453D01*
X78042180Y-103060949D01*
X78037400Y-103036915D01*
X78028022Y-103014276D01*
X78014409Y-102993901D01*
X77997082Y-102976574D01*
X77976706Y-102962960D01*
X77923835Y-102934700D01*
X77881304Y-102899796D01*
X77846400Y-102857265D01*
X77820470Y-102808753D01*
X77804497Y-102756097D01*
X77798500Y-102695210D01*
X77798500Y-101469990D01*
X77804497Y-101409103D01*
X77820470Y-101356447D01*
X77846400Y-101307935D01*
X77881304Y-101265404D01*
X77923835Y-101230500D01*
X77972347Y-101204570D01*
X78025003Y-101188597D01*
X78085890Y-101182600D01*
X78886110Y-101182600D01*
X78946997Y-101188597D01*
X78946997Y-101188597D01*
G37*
G36*
X112052497Y-106554997D02*
X112105153Y-106570970D01*
X112153665Y-106596900D01*
X112196196Y-106631804D01*
X112231100Y-106674335D01*
X112257030Y-106722847D01*
X112273003Y-106775503D01*
X112279000Y-106836390D01*
X112279000Y-107636610D01*
X112273003Y-107697497D01*
X112257030Y-107750153D01*
X112231100Y-107798665D01*
X112196196Y-107841196D01*
X112153665Y-107876100D01*
X112105153Y-107902030D01*
X112052497Y-107918003D01*
X111991610Y-107924000D01*
X110766390Y-107924000D01*
X110705503Y-107918003D01*
X110652847Y-107902030D01*
X110604335Y-107876100D01*
X110561804Y-107841196D01*
X110526900Y-107798665D01*
X110500970Y-107750153D01*
X110484997Y-107697497D01*
X110479000Y-107636610D01*
X110479000Y-106836390D01*
X110484997Y-106775503D01*
X110500970Y-106722847D01*
X110526900Y-106674335D01*
X110561804Y-106631804D01*
X110604335Y-106596900D01*
X110652847Y-106570970D01*
X110705503Y-106554997D01*
X110766390Y-106549000D01*
X111991610Y-106549000D01*
X112052497Y-106554997D01*
X112052497Y-106554997D01*
G37*
G36*
X109385497Y-106554997D02*
X109438153Y-106570970D01*
X109486665Y-106596900D01*
X109529196Y-106631804D01*
X109564100Y-106674335D01*
X109590030Y-106722847D01*
X109606003Y-106775503D01*
X109612000Y-106836390D01*
X109612000Y-107636610D01*
X109606003Y-107697497D01*
X109590030Y-107750153D01*
X109564100Y-107798665D01*
X109529196Y-107841196D01*
X109486665Y-107876100D01*
X109438153Y-107902030D01*
X109385497Y-107918003D01*
X109324610Y-107924000D01*
X108099390Y-107924000D01*
X108038503Y-107918003D01*
X107985847Y-107902030D01*
X107937335Y-107876100D01*
X107894804Y-107841196D01*
X107859900Y-107798665D01*
X107833970Y-107750153D01*
X107817997Y-107697497D01*
X107812000Y-107636610D01*
X107812000Y-106836390D01*
X107817997Y-106775503D01*
X107833970Y-106722847D01*
X107859900Y-106674335D01*
X107894804Y-106631804D01*
X107937335Y-106596900D01*
X107985847Y-106570970D01*
X108038503Y-106554997D01*
X108099390Y-106549000D01*
X109324610Y-106549000D01*
X109385497Y-106554997D01*
X109385497Y-106554997D01*
G37*
G36*
X114592497Y-106506497D02*
X114645153Y-106522470D01*
X114693665Y-106548400D01*
X114736196Y-106583304D01*
X114771100Y-106625835D01*
X114797030Y-106674347D01*
X114813003Y-106727003D01*
X114819000Y-106787890D01*
X114819000Y-107588110D01*
X114813003Y-107648997D01*
X114797030Y-107701653D01*
X114771100Y-107750165D01*
X114736196Y-107792696D01*
X114693665Y-107827600D01*
X114645153Y-107853530D01*
X114592497Y-107869503D01*
X114531610Y-107875500D01*
X113306390Y-107875500D01*
X113245503Y-107869503D01*
X113192847Y-107853530D01*
X113144335Y-107827600D01*
X113101804Y-107792696D01*
X113066900Y-107750165D01*
X113040970Y-107701653D01*
X113024997Y-107648997D01*
X113019000Y-107588110D01*
X113019000Y-106787890D01*
X113024997Y-106727003D01*
X113040970Y-106674347D01*
X113066900Y-106625835D01*
X113101804Y-106583304D01*
X113144335Y-106548400D01*
X113192847Y-106522470D01*
X113245503Y-106506497D01*
X113306390Y-106500500D01*
X114531610Y-106500500D01*
X114592497Y-106506497D01*
X114592497Y-106506497D01*
G37*
G36*
X117132497Y-106506497D02*
X117185153Y-106522470D01*
X117233665Y-106548400D01*
X117276196Y-106583304D01*
X117311100Y-106625835D01*
X117337030Y-106674347D01*
X117353003Y-106727003D01*
X117359000Y-106787890D01*
X117359000Y-107588110D01*
X117353003Y-107648997D01*
X117337030Y-107701653D01*
X117311100Y-107750165D01*
X117276196Y-107792696D01*
X117233665Y-107827600D01*
X117185153Y-107853530D01*
X117132497Y-107869503D01*
X117071610Y-107875500D01*
X115846390Y-107875500D01*
X115785503Y-107869503D01*
X115732847Y-107853530D01*
X115684335Y-107827600D01*
X115641804Y-107792696D01*
X115606900Y-107750165D01*
X115580970Y-107701653D01*
X115564997Y-107648997D01*
X115559000Y-107588110D01*
X115559000Y-106787890D01*
X115564997Y-106727003D01*
X115580970Y-106674347D01*
X115606900Y-106625835D01*
X115641804Y-106583304D01*
X115684335Y-106548400D01*
X115732847Y-106522470D01*
X115785503Y-106506497D01*
X115846390Y-106500500D01*
X117071610Y-106500500D01*
X117132497Y-106506497D01*
X117132497Y-106506497D01*
G37*
G36*
X106718497Y-106506497D02*
X106771153Y-106522470D01*
X106819665Y-106548400D01*
X106862196Y-106583304D01*
X106897100Y-106625835D01*
X106923030Y-106674347D01*
X106939003Y-106727003D01*
X106945000Y-106787890D01*
X106945000Y-107588110D01*
X106939003Y-107648997D01*
X106923030Y-107701653D01*
X106897100Y-107750165D01*
X106862196Y-107792696D01*
X106819665Y-107827600D01*
X106771153Y-107853530D01*
X106718497Y-107869503D01*
X106657610Y-107875500D01*
X105432390Y-107875500D01*
X105371503Y-107869503D01*
X105318847Y-107853530D01*
X105270335Y-107827600D01*
X105227804Y-107792696D01*
X105192900Y-107750165D01*
X105166970Y-107701653D01*
X105150997Y-107648997D01*
X105145000Y-107588110D01*
X105145000Y-106787890D01*
X105150997Y-106727003D01*
X105166970Y-106674347D01*
X105192900Y-106625835D01*
X105227804Y-106583304D01*
X105270335Y-106548400D01*
X105318847Y-106522470D01*
X105371503Y-106506497D01*
X105432390Y-106500500D01*
X106657610Y-106500500D01*
X106718497Y-106506497D01*
X106718497Y-106506497D01*
G37*
G36*
X92251997Y-101975997D02*
X92304653Y-101991970D01*
X92353165Y-102017900D01*
X92395696Y-102052804D01*
X92430600Y-102095335D01*
X92456530Y-102143847D01*
X92472503Y-102196503D01*
X92478500Y-102257390D01*
X92478500Y-103482610D01*
X92472503Y-103543497D01*
X92456530Y-103596153D01*
X92430600Y-103644665D01*
X92395696Y-103687196D01*
X92353165Y-103722100D01*
X92304652Y-103748031D01*
X92246456Y-103765684D01*
X92223817Y-103775062D01*
X92203442Y-103788675D01*
X92186115Y-103806002D01*
X92172501Y-103826377D01*
X92163124Y-103849016D01*
X92158343Y-103873049D01*
X92158343Y-103897554D01*
X92163123Y-103921587D01*
X92172501Y-103944226D01*
X92186114Y-103964601D01*
X92203441Y-103981928D01*
X92223816Y-103995542D01*
X92246455Y-104004919D01*
X92309248Y-104023967D01*
X92357765Y-104049900D01*
X92400296Y-104084804D01*
X92435200Y-104127335D01*
X92461130Y-104175847D01*
X92477103Y-104228503D01*
X92483100Y-104289390D01*
X92483100Y-105514610D01*
X92477103Y-105575497D01*
X92461130Y-105628153D01*
X92435200Y-105676665D01*
X92400296Y-105719196D01*
X92357765Y-105754100D01*
X92309248Y-105780033D01*
X92246455Y-105799081D01*
X92223816Y-105808458D01*
X92203442Y-105822072D01*
X92186114Y-105839399D01*
X92172501Y-105859774D01*
X92163123Y-105882413D01*
X92158343Y-105906446D01*
X92158343Y-105930950D01*
X92163124Y-105954984D01*
X92172501Y-105977623D01*
X92186115Y-105997997D01*
X92203442Y-106015325D01*
X92223817Y-106028938D01*
X92246456Y-106038316D01*
X92304652Y-106055969D01*
X92353165Y-106081900D01*
X92395696Y-106116804D01*
X92430600Y-106159335D01*
X92456530Y-106207847D01*
X92472503Y-106260503D01*
X92478500Y-106321390D01*
X92478500Y-107546610D01*
X92472503Y-107607497D01*
X92456530Y-107660153D01*
X92430600Y-107708665D01*
X92395696Y-107751196D01*
X92353165Y-107786100D01*
X92304653Y-107812030D01*
X92251997Y-107828003D01*
X92191110Y-107834000D01*
X91390890Y-107834000D01*
X91330003Y-107828003D01*
X91277347Y-107812030D01*
X91228835Y-107786100D01*
X91186304Y-107751196D01*
X91151400Y-107708665D01*
X91125470Y-107660153D01*
X91109497Y-107607497D01*
X91103500Y-107546610D01*
X91103500Y-106321390D01*
X91109497Y-106260503D01*
X91125470Y-106207847D01*
X91151400Y-106159335D01*
X91186304Y-106116804D01*
X91228835Y-106081900D01*
X91277352Y-106055967D01*
X91340145Y-106036919D01*
X91362784Y-106027542D01*
X91383158Y-106013928D01*
X91400486Y-105996601D01*
X91414099Y-105976226D01*
X91423477Y-105953587D01*
X91428257Y-105929554D01*
X91428257Y-105905050D01*
X91423476Y-105881016D01*
X91414099Y-105858377D01*
X91400485Y-105838003D01*
X91383158Y-105820675D01*
X91362783Y-105807062D01*
X91340144Y-105797684D01*
X91281948Y-105780031D01*
X91233435Y-105754100D01*
X91190904Y-105719196D01*
X91156000Y-105676665D01*
X91130070Y-105628153D01*
X91114097Y-105575497D01*
X91108100Y-105514610D01*
X91108100Y-104289390D01*
X91114097Y-104228503D01*
X91130070Y-104175847D01*
X91156000Y-104127335D01*
X91190904Y-104084804D01*
X91233435Y-104049900D01*
X91281948Y-104023969D01*
X91340144Y-104006316D01*
X91362783Y-103996938D01*
X91383158Y-103983325D01*
X91400485Y-103965998D01*
X91414099Y-103945623D01*
X91423476Y-103922984D01*
X91428257Y-103898951D01*
X91428257Y-103874446D01*
X91423477Y-103850413D01*
X91414099Y-103827774D01*
X91400486Y-103807399D01*
X91383159Y-103790072D01*
X91362784Y-103776458D01*
X91340145Y-103767081D01*
X91277352Y-103748033D01*
X91228835Y-103722100D01*
X91186304Y-103687196D01*
X91151400Y-103644665D01*
X91125470Y-103596153D01*
X91109497Y-103543497D01*
X91103500Y-103482610D01*
X91103500Y-102257390D01*
X91109497Y-102196503D01*
X91125470Y-102143847D01*
X91151400Y-102095335D01*
X91186304Y-102052804D01*
X91228835Y-102017900D01*
X91277347Y-101991970D01*
X91330003Y-101975997D01*
X91390890Y-101970000D01*
X92191110Y-101970000D01*
X92251997Y-101975997D01*
X92251997Y-101975997D01*
G37*
G36*
X90376997Y-101975997D02*
X90429653Y-101991970D01*
X90478165Y-102017900D01*
X90520696Y-102052804D01*
X90555600Y-102095335D01*
X90581530Y-102143847D01*
X90597503Y-102196503D01*
X90603500Y-102257390D01*
X90603500Y-103482610D01*
X90597503Y-103543497D01*
X90581530Y-103596153D01*
X90555600Y-103644665D01*
X90520696Y-103687196D01*
X90478165Y-103722100D01*
X90429652Y-103748031D01*
X90371456Y-103765684D01*
X90348817Y-103775062D01*
X90328442Y-103788675D01*
X90311115Y-103806002D01*
X90297501Y-103826377D01*
X90288124Y-103849016D01*
X90283343Y-103873049D01*
X90283343Y-103897554D01*
X90288123Y-103921587D01*
X90297501Y-103944226D01*
X90311114Y-103964601D01*
X90328441Y-103981928D01*
X90348816Y-103995542D01*
X90371455Y-104004919D01*
X90434248Y-104023967D01*
X90482765Y-104049900D01*
X90525296Y-104084804D01*
X90560200Y-104127335D01*
X90586130Y-104175847D01*
X90602103Y-104228503D01*
X90608100Y-104289390D01*
X90608100Y-105514610D01*
X90602103Y-105575497D01*
X90586130Y-105628153D01*
X90560200Y-105676665D01*
X90525296Y-105719196D01*
X90482765Y-105754100D01*
X90434248Y-105780033D01*
X90371455Y-105799081D01*
X90348816Y-105808458D01*
X90328442Y-105822072D01*
X90311114Y-105839399D01*
X90297501Y-105859774D01*
X90288123Y-105882413D01*
X90283343Y-105906446D01*
X90283343Y-105930950D01*
X90288124Y-105954984D01*
X90297501Y-105977623D01*
X90311115Y-105997997D01*
X90328442Y-106015325D01*
X90348817Y-106028938D01*
X90371456Y-106038316D01*
X90429652Y-106055969D01*
X90478165Y-106081900D01*
X90520696Y-106116804D01*
X90555600Y-106159335D01*
X90581530Y-106207847D01*
X90597503Y-106260503D01*
X90603500Y-106321390D01*
X90603500Y-107546610D01*
X90597503Y-107607497D01*
X90581530Y-107660153D01*
X90555600Y-107708665D01*
X90520696Y-107751196D01*
X90478165Y-107786100D01*
X90429653Y-107812030D01*
X90376997Y-107828003D01*
X90316110Y-107834000D01*
X89515890Y-107834000D01*
X89455003Y-107828003D01*
X89402347Y-107812030D01*
X89353835Y-107786100D01*
X89311304Y-107751196D01*
X89276400Y-107708665D01*
X89250470Y-107660153D01*
X89234497Y-107607497D01*
X89228500Y-107546610D01*
X89228500Y-106321390D01*
X89234497Y-106260503D01*
X89250470Y-106207847D01*
X89276400Y-106159335D01*
X89311304Y-106116804D01*
X89353835Y-106081900D01*
X89402352Y-106055967D01*
X89465145Y-106036919D01*
X89487784Y-106027542D01*
X89508158Y-106013928D01*
X89525486Y-105996601D01*
X89539099Y-105976226D01*
X89548477Y-105953587D01*
X89553257Y-105929554D01*
X89553257Y-105905050D01*
X89548476Y-105881016D01*
X89539099Y-105858377D01*
X89525485Y-105838003D01*
X89508158Y-105820675D01*
X89487783Y-105807062D01*
X89465144Y-105797684D01*
X89406948Y-105780031D01*
X89358435Y-105754100D01*
X89315904Y-105719196D01*
X89281000Y-105676665D01*
X89255070Y-105628153D01*
X89239097Y-105575497D01*
X89233100Y-105514610D01*
X89233100Y-104289390D01*
X89239097Y-104228503D01*
X89255070Y-104175847D01*
X89281000Y-104127335D01*
X89315904Y-104084804D01*
X89358435Y-104049900D01*
X89406948Y-104023969D01*
X89465144Y-104006316D01*
X89487783Y-103996938D01*
X89508158Y-103983325D01*
X89525485Y-103965998D01*
X89539099Y-103945623D01*
X89548476Y-103922984D01*
X89553257Y-103898951D01*
X89553257Y-103874446D01*
X89548477Y-103850413D01*
X89539099Y-103827774D01*
X89525486Y-103807399D01*
X89508159Y-103790072D01*
X89487784Y-103776458D01*
X89465145Y-103767081D01*
X89402352Y-103748033D01*
X89353835Y-103722100D01*
X89311304Y-103687196D01*
X89276400Y-103644665D01*
X89250470Y-103596153D01*
X89234497Y-103543497D01*
X89228500Y-103482610D01*
X89228500Y-102257390D01*
X89234497Y-102196503D01*
X89250470Y-102143847D01*
X89276400Y-102095335D01*
X89311304Y-102052804D01*
X89353835Y-102017900D01*
X89402347Y-101991970D01*
X89455003Y-101975997D01*
X89515890Y-101970000D01*
X90316110Y-101970000D01*
X90376997Y-101975997D01*
X90376997Y-101975997D01*
G37*
G36*
X120104297Y-106453397D02*
X120156953Y-106469370D01*
X120205465Y-106495300D01*
X120247996Y-106530204D01*
X120282900Y-106572735D01*
X120308830Y-106621247D01*
X120324803Y-106673903D01*
X120330800Y-106734790D01*
X120330800Y-107535010D01*
X120324803Y-107595897D01*
X120308830Y-107648553D01*
X120282900Y-107697065D01*
X120247996Y-107739596D01*
X120205465Y-107774500D01*
X120156953Y-107800430D01*
X120104297Y-107816403D01*
X120043410Y-107822400D01*
X118818190Y-107822400D01*
X118757303Y-107816403D01*
X118704647Y-107800430D01*
X118656135Y-107774500D01*
X118613604Y-107739596D01*
X118578700Y-107697065D01*
X118552770Y-107648553D01*
X118536797Y-107595897D01*
X118530800Y-107535010D01*
X118530800Y-106734790D01*
X118536797Y-106673903D01*
X118552770Y-106621247D01*
X118578700Y-106572735D01*
X118613604Y-106530204D01*
X118656135Y-106495300D01*
X118704647Y-106469370D01*
X118757303Y-106453397D01*
X118818190Y-106447400D01*
X120043410Y-106447400D01*
X120104297Y-106453397D01*
X120104297Y-106453397D01*
G37*
G36*
X97166521Y-106572043D02*
X97284334Y-106607781D01*
X97392911Y-106665817D01*
X97464716Y-106724746D01*
X97485075Y-106738349D01*
X97507713Y-106747726D01*
X97531747Y-106752507D01*
X97556251Y-106752507D01*
X97580285Y-106747727D01*
X97602924Y-106738350D01*
X97623284Y-106724746D01*
X97695089Y-106665817D01*
X97803666Y-106607781D01*
X97921479Y-106572043D01*
X98013296Y-106563000D01*
X98074704Y-106563000D01*
X98166521Y-106572043D01*
X98284334Y-106607781D01*
X98392911Y-106665817D01*
X98464716Y-106724746D01*
X98485075Y-106738349D01*
X98507713Y-106747726D01*
X98531747Y-106752507D01*
X98556251Y-106752507D01*
X98580285Y-106747727D01*
X98602924Y-106738350D01*
X98623284Y-106724746D01*
X98695089Y-106665817D01*
X98803666Y-106607781D01*
X98921479Y-106572043D01*
X99013296Y-106563000D01*
X99074704Y-106563000D01*
X99166521Y-106572043D01*
X99257724Y-106599709D01*
X99281748Y-106604488D01*
X99306252Y-106604488D01*
X99330285Y-106599708D01*
X99352924Y-106590330D01*
X99373299Y-106576716D01*
X99387015Y-106563000D01*
X100669000Y-106563000D01*
X100669000Y-107813000D01*
X99386884Y-107813000D01*
X99382388Y-107807522D01*
X99363446Y-107791976D01*
X99341835Y-107780425D01*
X99318386Y-107773312D01*
X99294000Y-107770910D01*
X99269614Y-107773312D01*
X99257734Y-107776288D01*
X99166521Y-107803957D01*
X99074704Y-107813000D01*
X99013296Y-107813000D01*
X98921479Y-107803957D01*
X98803666Y-107768219D01*
X98695089Y-107710183D01*
X98623284Y-107651254D01*
X98602925Y-107637651D01*
X98580287Y-107628274D01*
X98556253Y-107623493D01*
X98531749Y-107623493D01*
X98507715Y-107628273D01*
X98485076Y-107637650D01*
X98464716Y-107651254D01*
X98392911Y-107710183D01*
X98284334Y-107768219D01*
X98166521Y-107803957D01*
X98074704Y-107813000D01*
X98013296Y-107813000D01*
X97921479Y-107803957D01*
X97803666Y-107768219D01*
X97695089Y-107710183D01*
X97623284Y-107651254D01*
X97602925Y-107637651D01*
X97580287Y-107628274D01*
X97556253Y-107623493D01*
X97531749Y-107623493D01*
X97507715Y-107628273D01*
X97485076Y-107637650D01*
X97464716Y-107651254D01*
X97392911Y-107710183D01*
X97284334Y-107768219D01*
X97166521Y-107803957D01*
X97074704Y-107813000D01*
X97013296Y-107813000D01*
X96921479Y-107803957D01*
X96803666Y-107768219D01*
X96695089Y-107710183D01*
X96599920Y-107632080D01*
X96521817Y-107536911D01*
X96463781Y-107428334D01*
X96428043Y-107310521D01*
X96415976Y-107188000D01*
X96428043Y-107065479D01*
X96463781Y-106947666D01*
X96521817Y-106839089D01*
X96599920Y-106743920D01*
X96695089Y-106665817D01*
X96803666Y-106607781D01*
X96921479Y-106572043D01*
X97013296Y-106563000D01*
X97074704Y-106563000D01*
X97166521Y-106572043D01*
X97166521Y-106572043D01*
G37*
G36*
X73128707Y-105037596D02*
X73205836Y-105045193D01*
X73330974Y-105083153D01*
X73403763Y-105105233D01*
X73586172Y-105202733D01*
X73746054Y-105333946D01*
X73877267Y-105493828D01*
X73974767Y-105676237D01*
X73974767Y-105676238D01*
X74034807Y-105874164D01*
X74055080Y-106080000D01*
X74034807Y-106285836D01*
X74007153Y-106377000D01*
X73974767Y-106483763D01*
X73877267Y-106666172D01*
X73746054Y-106826054D01*
X73586172Y-106957267D01*
X73403763Y-107054767D01*
X73337787Y-107074780D01*
X73205836Y-107114807D01*
X73151658Y-107120143D01*
X73051580Y-107130000D01*
X72948420Y-107130000D01*
X72848342Y-107120143D01*
X72794164Y-107114807D01*
X72662213Y-107074780D01*
X72596237Y-107054767D01*
X72413828Y-106957267D01*
X72253946Y-106826054D01*
X72122733Y-106666172D01*
X72025233Y-106483763D01*
X71992847Y-106377000D01*
X71965193Y-106285836D01*
X71944920Y-106080000D01*
X71965193Y-105874164D01*
X72025233Y-105676238D01*
X72025233Y-105676237D01*
X72122733Y-105493828D01*
X72253946Y-105333946D01*
X72413828Y-105202733D01*
X72596237Y-105105233D01*
X72669026Y-105083153D01*
X72794164Y-105045193D01*
X72871293Y-105037596D01*
X72948420Y-105030000D01*
X73051580Y-105030000D01*
X73128707Y-105037596D01*
X73128707Y-105037596D01*
G37*
G36*
X75668707Y-105037596D02*
X75745836Y-105045193D01*
X75870974Y-105083153D01*
X75943763Y-105105233D01*
X76126172Y-105202733D01*
X76286054Y-105333946D01*
X76417267Y-105493828D01*
X76514767Y-105676237D01*
X76514767Y-105676238D01*
X76574807Y-105874164D01*
X76595080Y-106080000D01*
X76574807Y-106285836D01*
X76547153Y-106377000D01*
X76514767Y-106483763D01*
X76417267Y-106666172D01*
X76286054Y-106826054D01*
X76126172Y-106957267D01*
X75943763Y-107054767D01*
X75877787Y-107074780D01*
X75745836Y-107114807D01*
X75691658Y-107120143D01*
X75591580Y-107130000D01*
X75488420Y-107130000D01*
X75388342Y-107120143D01*
X75334164Y-107114807D01*
X75202213Y-107074780D01*
X75136237Y-107054767D01*
X74953828Y-106957267D01*
X74793946Y-106826054D01*
X74662733Y-106666172D01*
X74565233Y-106483763D01*
X74532847Y-106377000D01*
X74505193Y-106285836D01*
X74484920Y-106080000D01*
X74505193Y-105874164D01*
X74565233Y-105676238D01*
X74565233Y-105676237D01*
X74662733Y-105493828D01*
X74793946Y-105333946D01*
X74953828Y-105202733D01*
X75136237Y-105105233D01*
X75209026Y-105083153D01*
X75334164Y-105045193D01*
X75411293Y-105037596D01*
X75488420Y-105030000D01*
X75591580Y-105030000D01*
X75668707Y-105037596D01*
X75668707Y-105037596D01*
G37*
G36*
X84916000Y-106377000D02*
X82216000Y-106377000D01*
X82216000Y-105477000D01*
X84916000Y-105477000D01*
X84916000Y-106377000D01*
X84916000Y-106377000D01*
G37*
G36*
X87802554Y-103755934D02*
X87824165Y-103767485D01*
X87847614Y-103774598D01*
X87872000Y-103777000D01*
X88272000Y-103777000D01*
X88272000Y-106027000D01*
X87872000Y-106027000D01*
X87847614Y-106029402D01*
X87824165Y-106036515D01*
X87802554Y-106048066D01*
X87797761Y-106052000D01*
X86446239Y-106052000D01*
X86441446Y-106048066D01*
X86419835Y-106036515D01*
X86396386Y-106029402D01*
X86372000Y-106027000D01*
X85972000Y-106027000D01*
X85972000Y-104652000D01*
X86747000Y-104652000D01*
X86747000Y-105152000D01*
X86749402Y-105176386D01*
X86756515Y-105199835D01*
X86768066Y-105221446D01*
X86783612Y-105240388D01*
X86802554Y-105255934D01*
X86824165Y-105267485D01*
X86847614Y-105274598D01*
X86872000Y-105277000D01*
X87372000Y-105277000D01*
X87396386Y-105274598D01*
X87419835Y-105267485D01*
X87441446Y-105255934D01*
X87460388Y-105240388D01*
X87475934Y-105221446D01*
X87487485Y-105199835D01*
X87494598Y-105176386D01*
X87497000Y-105152000D01*
X87497000Y-104652000D01*
X87494598Y-104627614D01*
X87487485Y-104604165D01*
X87475934Y-104582554D01*
X87460388Y-104563612D01*
X87441446Y-104548066D01*
X87419835Y-104536515D01*
X87396386Y-104529402D01*
X87372000Y-104527000D01*
X86872000Y-104527000D01*
X86847614Y-104529402D01*
X86824165Y-104536515D01*
X86802554Y-104548066D01*
X86783612Y-104563612D01*
X86768066Y-104582554D01*
X86756515Y-104604165D01*
X86749402Y-104627614D01*
X86747000Y-104652000D01*
X85972000Y-104652000D01*
X85972000Y-103777000D01*
X86372000Y-103777000D01*
X86396386Y-103774598D01*
X86419835Y-103767485D01*
X86441446Y-103755934D01*
X86446239Y-103752000D01*
X87797761Y-103752000D01*
X87802554Y-103755934D01*
X87802554Y-103755934D01*
G37*
G36*
X109385497Y-104679997D02*
X109438153Y-104695970D01*
X109486665Y-104721900D01*
X109529196Y-104756804D01*
X109564100Y-104799335D01*
X109590030Y-104847847D01*
X109606003Y-104900503D01*
X109612000Y-104961390D01*
X109612000Y-105761610D01*
X109606003Y-105822497D01*
X109590030Y-105875153D01*
X109564100Y-105923665D01*
X109529196Y-105966196D01*
X109486665Y-106001100D01*
X109438153Y-106027030D01*
X109385497Y-106043003D01*
X109324610Y-106049000D01*
X108099390Y-106049000D01*
X108038503Y-106043003D01*
X107985847Y-106027030D01*
X107937335Y-106001100D01*
X107894804Y-105966196D01*
X107859900Y-105923665D01*
X107833970Y-105875153D01*
X107817997Y-105822497D01*
X107812000Y-105761610D01*
X107812000Y-104961390D01*
X107817997Y-104900503D01*
X107833970Y-104847847D01*
X107859900Y-104799335D01*
X107894804Y-104756804D01*
X107937335Y-104721900D01*
X107985847Y-104695970D01*
X108038503Y-104679997D01*
X108099390Y-104674000D01*
X109324610Y-104674000D01*
X109385497Y-104679997D01*
X109385497Y-104679997D01*
G37*
G36*
X112052497Y-104679997D02*
X112105153Y-104695970D01*
X112153665Y-104721900D01*
X112196196Y-104756804D01*
X112231100Y-104799335D01*
X112257030Y-104847847D01*
X112273003Y-104900503D01*
X112279000Y-104961390D01*
X112279000Y-105761610D01*
X112273003Y-105822497D01*
X112257030Y-105875153D01*
X112231100Y-105923665D01*
X112196196Y-105966196D01*
X112153665Y-106001100D01*
X112105153Y-106027030D01*
X112052497Y-106043003D01*
X111991610Y-106049000D01*
X110766390Y-106049000D01*
X110705503Y-106043003D01*
X110652847Y-106027030D01*
X110604335Y-106001100D01*
X110561804Y-105966196D01*
X110526900Y-105923665D01*
X110500970Y-105875153D01*
X110484997Y-105822497D01*
X110479000Y-105761610D01*
X110479000Y-104961390D01*
X110484997Y-104900503D01*
X110500970Y-104847847D01*
X110526900Y-104799335D01*
X110561804Y-104756804D01*
X110604335Y-104721900D01*
X110652847Y-104695970D01*
X110705503Y-104679997D01*
X110766390Y-104674000D01*
X111991610Y-104674000D01*
X112052497Y-104679997D01*
X112052497Y-104679997D01*
G37*
G36*
X114592497Y-104631497D02*
X114645153Y-104647470D01*
X114693665Y-104673400D01*
X114736196Y-104708304D01*
X114771100Y-104750835D01*
X114797030Y-104799347D01*
X114813003Y-104852003D01*
X114819000Y-104912890D01*
X114819000Y-105713110D01*
X114813003Y-105773997D01*
X114797030Y-105826653D01*
X114771100Y-105875165D01*
X114736196Y-105917696D01*
X114693665Y-105952600D01*
X114645153Y-105978530D01*
X114592497Y-105994503D01*
X114531610Y-106000500D01*
X113306390Y-106000500D01*
X113245503Y-105994503D01*
X113192847Y-105978530D01*
X113144335Y-105952600D01*
X113101804Y-105917696D01*
X113066900Y-105875165D01*
X113040970Y-105826653D01*
X113024997Y-105773997D01*
X113019000Y-105713110D01*
X113019000Y-104912890D01*
X113024997Y-104852003D01*
X113040970Y-104799347D01*
X113066900Y-104750835D01*
X113101804Y-104708304D01*
X113144335Y-104673400D01*
X113192847Y-104647470D01*
X113245503Y-104631497D01*
X113306390Y-104625500D01*
X114531610Y-104625500D01*
X114592497Y-104631497D01*
X114592497Y-104631497D01*
G37*
G36*
X106718497Y-104631497D02*
X106771153Y-104647470D01*
X106819665Y-104673400D01*
X106862196Y-104708304D01*
X106897100Y-104750835D01*
X106923030Y-104799347D01*
X106939003Y-104852003D01*
X106945000Y-104912890D01*
X106945000Y-105713110D01*
X106939003Y-105773997D01*
X106923030Y-105826653D01*
X106897100Y-105875165D01*
X106862196Y-105917696D01*
X106819665Y-105952600D01*
X106771153Y-105978530D01*
X106718497Y-105994503D01*
X106657610Y-106000500D01*
X105432390Y-106000500D01*
X105371503Y-105994503D01*
X105318847Y-105978530D01*
X105270335Y-105952600D01*
X105227804Y-105917696D01*
X105192900Y-105875165D01*
X105166970Y-105826653D01*
X105150997Y-105773997D01*
X105145000Y-105713110D01*
X105145000Y-104912890D01*
X105150997Y-104852003D01*
X105166970Y-104799347D01*
X105192900Y-104750835D01*
X105227804Y-104708304D01*
X105270335Y-104673400D01*
X105318847Y-104647470D01*
X105371503Y-104631497D01*
X105432390Y-104625500D01*
X106657610Y-104625500D01*
X106718497Y-104631497D01*
X106718497Y-104631497D01*
G37*
G36*
X117132497Y-104631497D02*
X117185153Y-104647470D01*
X117233665Y-104673400D01*
X117276196Y-104708304D01*
X117311100Y-104750835D01*
X117337030Y-104799347D01*
X117353003Y-104852003D01*
X117359000Y-104912890D01*
X117359000Y-105713110D01*
X117353003Y-105773997D01*
X117337030Y-105826653D01*
X117311100Y-105875165D01*
X117276196Y-105917696D01*
X117233665Y-105952600D01*
X117185153Y-105978530D01*
X117132497Y-105994503D01*
X117071610Y-106000500D01*
X115846390Y-106000500D01*
X115785503Y-105994503D01*
X115732847Y-105978530D01*
X115684335Y-105952600D01*
X115641804Y-105917696D01*
X115606900Y-105875165D01*
X115580970Y-105826653D01*
X115564997Y-105773997D01*
X115559000Y-105713110D01*
X115559000Y-104912890D01*
X115564997Y-104852003D01*
X115580970Y-104799347D01*
X115606900Y-104750835D01*
X115641804Y-104708304D01*
X115684335Y-104673400D01*
X115732847Y-104647470D01*
X115785503Y-104631497D01*
X115846390Y-104625500D01*
X117071610Y-104625500D01*
X117132497Y-104631497D01*
X117132497Y-104631497D01*
G37*
G36*
X120104297Y-104578397D02*
X120156953Y-104594370D01*
X120205465Y-104620300D01*
X120247996Y-104655204D01*
X120282900Y-104697735D01*
X120308830Y-104746247D01*
X120324803Y-104798903D01*
X120330800Y-104859790D01*
X120330800Y-105660010D01*
X120324803Y-105720897D01*
X120308830Y-105773553D01*
X120282900Y-105822065D01*
X120247996Y-105864596D01*
X120205465Y-105899500D01*
X120156953Y-105925430D01*
X120104297Y-105941403D01*
X120043410Y-105947400D01*
X118818190Y-105947400D01*
X118757303Y-105941403D01*
X118704647Y-105925430D01*
X118656135Y-105899500D01*
X118613604Y-105864596D01*
X118578700Y-105822065D01*
X118552770Y-105773553D01*
X118536797Y-105720897D01*
X118530800Y-105660010D01*
X118530800Y-104859790D01*
X118536797Y-104798903D01*
X118552770Y-104746247D01*
X118578700Y-104697735D01*
X118613604Y-104655204D01*
X118656135Y-104620300D01*
X118704647Y-104594370D01*
X118757303Y-104578397D01*
X118818190Y-104572400D01*
X120043410Y-104572400D01*
X120104297Y-104578397D01*
X120104297Y-104578397D01*
G37*
G36*
X96431497Y-103887997D02*
X96484153Y-103903970D01*
X96532665Y-103929900D01*
X96575196Y-103964804D01*
X96610100Y-104007335D01*
X96636030Y-104055847D01*
X96652003Y-104108503D01*
X96658000Y-104169390D01*
X96658000Y-104969610D01*
X96652003Y-105030497D01*
X96636030Y-105083153D01*
X96610100Y-105131665D01*
X96575196Y-105174196D01*
X96532665Y-105209100D01*
X96484153Y-105235030D01*
X96431497Y-105251003D01*
X96370610Y-105257000D01*
X95145390Y-105257000D01*
X95084503Y-105251003D01*
X95031847Y-105235030D01*
X94983335Y-105209100D01*
X94940804Y-105174196D01*
X94905900Y-105131665D01*
X94879970Y-105083153D01*
X94863997Y-105030497D01*
X94858000Y-104969610D01*
X94858000Y-104169390D01*
X94863997Y-104108503D01*
X94879970Y-104055847D01*
X94905900Y-104007335D01*
X94940804Y-103964804D01*
X94983335Y-103929900D01*
X95031847Y-103903970D01*
X95084503Y-103887997D01*
X95145390Y-103882000D01*
X96370610Y-103882000D01*
X96431497Y-103887997D01*
X96431497Y-103887997D01*
G37*
G36*
X99726000Y-105182000D02*
X97426000Y-105182000D01*
X97426000Y-103982000D01*
X99726000Y-103982000D01*
X99726000Y-105182000D01*
X99726000Y-105182000D01*
G37*
G36*
X73128707Y-102497596D02*
X73205836Y-102505193D01*
X73337787Y-102545220D01*
X73403763Y-102565233D01*
X73586172Y-102662733D01*
X73746054Y-102793946D01*
X73877267Y-102953828D01*
X73974767Y-103136237D01*
X73989086Y-103183440D01*
X74034807Y-103334164D01*
X74055080Y-103540000D01*
X74034807Y-103745836D01*
X74021812Y-103788675D01*
X73974767Y-103943763D01*
X73877267Y-104126172D01*
X73746054Y-104286054D01*
X73586172Y-104417267D01*
X73403763Y-104514767D01*
X73363435Y-104527000D01*
X73205836Y-104574807D01*
X73128707Y-104582403D01*
X73051580Y-104590000D01*
X72948420Y-104590000D01*
X72871293Y-104582403D01*
X72794164Y-104574807D01*
X72636565Y-104527000D01*
X72596237Y-104514767D01*
X72413828Y-104417267D01*
X72253946Y-104286054D01*
X72122733Y-104126172D01*
X72025233Y-103943763D01*
X71978188Y-103788675D01*
X71965193Y-103745836D01*
X71944920Y-103540000D01*
X71965193Y-103334164D01*
X72010914Y-103183440D01*
X72025233Y-103136237D01*
X72122733Y-102953828D01*
X72253946Y-102793946D01*
X72413828Y-102662733D01*
X72596237Y-102565233D01*
X72662213Y-102545220D01*
X72794164Y-102505193D01*
X72871293Y-102497597D01*
X72948420Y-102490000D01*
X73051580Y-102490000D01*
X73128707Y-102497596D01*
X73128707Y-102497596D01*
G37*
G36*
X75668707Y-102497596D02*
X75745836Y-102505193D01*
X75877787Y-102545220D01*
X75943763Y-102565233D01*
X76126172Y-102662733D01*
X76286054Y-102793946D01*
X76417267Y-102953828D01*
X76514767Y-103136237D01*
X76529086Y-103183440D01*
X76574807Y-103334164D01*
X76595080Y-103540000D01*
X76574807Y-103745836D01*
X76561812Y-103788675D01*
X76514767Y-103943763D01*
X76417267Y-104126172D01*
X76286054Y-104286054D01*
X76126172Y-104417267D01*
X75943763Y-104514767D01*
X75903435Y-104527000D01*
X75745836Y-104574807D01*
X75668707Y-104582403D01*
X75591580Y-104590000D01*
X75488420Y-104590000D01*
X75411293Y-104582403D01*
X75334164Y-104574807D01*
X75176565Y-104527000D01*
X75136237Y-104514767D01*
X74953828Y-104417267D01*
X74793946Y-104286054D01*
X74662733Y-104126172D01*
X74565233Y-103943763D01*
X74518188Y-103788675D01*
X74505193Y-103745836D01*
X74484920Y-103540000D01*
X74505193Y-103334164D01*
X74550914Y-103183440D01*
X74565233Y-103136237D01*
X74662733Y-102953828D01*
X74793946Y-102793946D01*
X74953828Y-102662733D01*
X75136237Y-102565233D01*
X75202213Y-102545220D01*
X75334164Y-102505193D01*
X75411293Y-102497597D01*
X75488420Y-102490000D01*
X75591580Y-102490000D01*
X75668707Y-102497596D01*
X75668707Y-102497596D01*
G37*
G36*
X84916000Y-104327000D02*
X82216000Y-104327000D01*
X82216000Y-103427000D01*
X84916000Y-103427000D01*
X84916000Y-104327000D01*
X84916000Y-104327000D01*
G37*
G36*
X102726000Y-104232000D02*
X100426000Y-104232000D01*
X100426000Y-103032000D01*
X102726000Y-103032000D01*
X102726000Y-104232000D01*
X102726000Y-104232000D01*
G37*
G36*
X115700000Y-103600000D02*
X114300000Y-103600000D01*
X114300000Y-101400000D01*
X115700000Y-101400000D01*
X115700000Y-103600000D01*
X115700000Y-103600000D01*
G37*
G36*
X113700000Y-103600000D02*
X112300000Y-103600000D01*
X112300000Y-101400000D01*
X113700000Y-101400000D01*
X113700000Y-103600000D01*
X113700000Y-103600000D01*
G37*
G36*
X109700000Y-103600000D02*
X108300000Y-103600000D01*
X108300000Y-101400000D01*
X109700000Y-101400000D01*
X109700000Y-103600000D01*
X109700000Y-103600000D01*
G37*
G36*
X119700000Y-103600000D02*
X118300000Y-103600000D01*
X118300000Y-101400000D01*
X119700000Y-101400000D01*
X119700000Y-103600000D01*
X119700000Y-103600000D01*
G37*
G36*
X111700000Y-103600000D02*
X110300000Y-103600000D01*
X110300000Y-101400000D01*
X111700000Y-101400000D01*
X111700000Y-103600000D01*
X111700000Y-103600000D01*
G37*
G36*
X117700000Y-103600000D02*
X116300000Y-103600000D01*
X116300000Y-101400000D01*
X117700000Y-101400000D01*
X117700000Y-103600000D01*
X117700000Y-103600000D01*
G37*
G36*
X96431497Y-102012997D02*
X96484153Y-102028970D01*
X96532665Y-102054900D01*
X96575196Y-102089804D01*
X96610100Y-102132335D01*
X96636030Y-102180847D01*
X96652003Y-102233503D01*
X96658000Y-102294390D01*
X96658000Y-103094610D01*
X96652003Y-103155497D01*
X96636030Y-103208153D01*
X96610100Y-103256665D01*
X96575196Y-103299196D01*
X96532665Y-103334100D01*
X96484153Y-103360030D01*
X96431497Y-103376003D01*
X96370610Y-103382000D01*
X95145390Y-103382000D01*
X95084503Y-103376003D01*
X95031847Y-103360030D01*
X94983335Y-103334100D01*
X94940804Y-103299196D01*
X94905900Y-103256665D01*
X94879970Y-103208153D01*
X94863997Y-103155497D01*
X94858000Y-103094610D01*
X94858000Y-102294390D01*
X94863997Y-102233503D01*
X94879970Y-102180847D01*
X94905900Y-102132335D01*
X94940804Y-102089804D01*
X94983335Y-102054900D01*
X95031847Y-102028970D01*
X95084503Y-102012997D01*
X95145390Y-102007000D01*
X96370610Y-102007000D01*
X96431497Y-102012997D01*
X96431497Y-102012997D01*
G37*
G36*
X99726000Y-103282000D02*
X97426000Y-103282000D01*
X97426000Y-102082000D01*
X99726000Y-102082000D01*
X99726000Y-103282000D01*
X99726000Y-103282000D01*
G37*
G36*
X75668707Y-99957596D02*
X75745836Y-99965193D01*
X75877787Y-100005220D01*
X75943763Y-100025233D01*
X76126172Y-100122733D01*
X76286054Y-100253946D01*
X76417267Y-100413828D01*
X76514767Y-100596237D01*
X76532372Y-100654273D01*
X76574807Y-100794164D01*
X76595080Y-101000000D01*
X76574807Y-101205836D01*
X76534780Y-101337787D01*
X76514767Y-101403763D01*
X76417267Y-101586172D01*
X76286054Y-101746054D01*
X76126172Y-101877267D01*
X75943763Y-101974767D01*
X75887051Y-101991970D01*
X75745836Y-102034807D01*
X75668707Y-102042404D01*
X75591580Y-102050000D01*
X75488420Y-102050000D01*
X75411293Y-102042403D01*
X75334164Y-102034807D01*
X75192949Y-101991970D01*
X75136237Y-101974767D01*
X74953828Y-101877267D01*
X74793946Y-101746054D01*
X74662733Y-101586172D01*
X74565233Y-101403763D01*
X74545220Y-101337787D01*
X74505193Y-101205836D01*
X74484920Y-101000000D01*
X74505193Y-100794164D01*
X74547628Y-100654273D01*
X74565233Y-100596237D01*
X74662733Y-100413828D01*
X74793946Y-100253946D01*
X74953828Y-100122733D01*
X75136237Y-100025233D01*
X75202213Y-100005220D01*
X75334164Y-99965193D01*
X75411293Y-99957596D01*
X75488420Y-99950000D01*
X75591580Y-99950000D01*
X75668707Y-99957596D01*
X75668707Y-99957596D01*
G37*
G36*
X74050000Y-102050000D02*
X71950000Y-102050000D01*
X71950000Y-99950000D01*
X74050000Y-99950000D01*
X74050000Y-102050000D01*
X74050000Y-102050000D01*
G37*
G36*
X86017497Y-100507497D02*
X86070153Y-100523470D01*
X86118665Y-100549400D01*
X86161196Y-100584304D01*
X86196100Y-100626835D01*
X86222030Y-100675347D01*
X86238003Y-100728003D01*
X86244000Y-100788890D01*
X86244000Y-101589110D01*
X86238003Y-101649997D01*
X86222030Y-101702653D01*
X86196100Y-101751165D01*
X86161196Y-101793696D01*
X86118665Y-101828600D01*
X86070153Y-101854530D01*
X86017497Y-101870503D01*
X85956610Y-101876500D01*
X84731390Y-101876500D01*
X84670503Y-101870503D01*
X84617847Y-101854530D01*
X84569335Y-101828600D01*
X84526804Y-101793696D01*
X84491900Y-101751165D01*
X84465970Y-101702653D01*
X84449997Y-101649997D01*
X84444000Y-101589110D01*
X84444000Y-100788890D01*
X84449997Y-100728003D01*
X84465970Y-100675347D01*
X84491900Y-100626835D01*
X84526804Y-100584304D01*
X84569335Y-100549400D01*
X84617847Y-100523470D01*
X84670503Y-100507497D01*
X84731390Y-100501500D01*
X85956610Y-100501500D01*
X86017497Y-100507497D01*
X86017497Y-100507497D01*
G37*
G36*
X107850000Y-101700000D02*
X104950000Y-101700000D01*
X104950000Y-100300000D01*
X107850000Y-100300000D01*
X107850000Y-101700000D01*
X107850000Y-101700000D01*
G37*
G36*
X123050000Y-101700000D02*
X120150000Y-101700000D01*
X120150000Y-100300000D01*
X123050000Y-100300000D01*
X123050000Y-101700000D01*
X123050000Y-101700000D01*
G37*
G36*
X83877800Y-100803000D02*
X81577800Y-100803000D01*
X81577800Y-99603000D01*
X83877800Y-99603000D01*
X83877800Y-100803000D01*
X83877800Y-100803000D01*
G37*
G36*
X86017497Y-98632497D02*
X86070153Y-98648470D01*
X86118665Y-98674400D01*
X86161196Y-98709304D01*
X86196100Y-98751835D01*
X86222030Y-98800347D01*
X86238003Y-98853003D01*
X86244000Y-98913890D01*
X86244000Y-99714110D01*
X86238003Y-99774997D01*
X86222030Y-99827653D01*
X86196100Y-99876165D01*
X86161196Y-99918696D01*
X86118665Y-99953600D01*
X86070153Y-99979530D01*
X86017497Y-99995503D01*
X85956610Y-100001500D01*
X84731390Y-100001500D01*
X84670503Y-99995503D01*
X84617847Y-99979530D01*
X84569335Y-99953600D01*
X84526804Y-99918696D01*
X84491900Y-99876165D01*
X84465970Y-99827653D01*
X84449997Y-99774997D01*
X84444000Y-99714110D01*
X84444000Y-98913890D01*
X84449997Y-98853003D01*
X84465970Y-98800347D01*
X84491900Y-98751835D01*
X84526804Y-98709304D01*
X84569335Y-98674400D01*
X84617847Y-98648470D01*
X84670503Y-98632497D01*
X84731390Y-98626500D01*
X85956610Y-98626500D01*
X86017497Y-98632497D01*
X86017497Y-98632497D01*
G37*
G36*
X80877800Y-99853000D02*
X78577800Y-99853000D01*
X78577800Y-98653000D01*
X80877800Y-98653000D01*
X80877800Y-99853000D01*
X80877800Y-99853000D01*
G37*
G36*
X107850000Y-99700000D02*
X104950000Y-99700000D01*
X104950000Y-98300000D01*
X107850000Y-98300000D01*
X107850000Y-99700000D01*
X107850000Y-99700000D01*
G37*
G36*
X123050000Y-99700000D02*
X120150000Y-99700000D01*
X120150000Y-98300000D01*
X123050000Y-98300000D01*
X123050000Y-99700000D01*
X123050000Y-99700000D01*
G37*
G36*
X83877800Y-98903000D02*
X81577800Y-98903000D01*
X81577800Y-97703000D01*
X83877800Y-97703000D01*
X83877800Y-98903000D01*
X83877800Y-98903000D01*
G37*
G36*
X87075000Y-96257000D02*
X87077402Y-96281386D01*
X87084515Y-96304835D01*
X87096066Y-96326446D01*
X87111612Y-96345388D01*
X87130554Y-96360934D01*
X87152165Y-96372485D01*
X87175614Y-96379598D01*
X87200000Y-96382000D01*
X87268110Y-96382000D01*
X87328997Y-96387997D01*
X87381653Y-96403970D01*
X87430165Y-96429900D01*
X87472696Y-96464804D01*
X87507600Y-96507335D01*
X87533530Y-96555847D01*
X87549503Y-96608503D01*
X87555500Y-96669390D01*
X87555500Y-97894610D01*
X87549503Y-97955497D01*
X87533530Y-98008153D01*
X87507600Y-98056665D01*
X87472696Y-98099196D01*
X87430165Y-98134100D01*
X87381653Y-98160030D01*
X87328997Y-98176003D01*
X87268110Y-98182000D01*
X86467890Y-98182000D01*
X86407003Y-98176003D01*
X86354347Y-98160030D01*
X86305835Y-98134100D01*
X86263304Y-98099196D01*
X86228400Y-98056665D01*
X86202470Y-98008153D01*
X86186497Y-97955497D01*
X86180500Y-97894610D01*
X86180500Y-96669390D01*
X86186497Y-96608503D01*
X86202470Y-96555847D01*
X86228400Y-96507335D01*
X86263304Y-96464804D01*
X86314588Y-96422716D01*
X86316217Y-96421628D01*
X86333545Y-96404301D01*
X86347159Y-96383927D01*
X86356537Y-96361288D01*
X86361318Y-96337255D01*
X86361318Y-96312751D01*
X86356538Y-96288717D01*
X86347161Y-96266078D01*
X86333548Y-96245703D01*
X86316221Y-96228375D01*
X86295847Y-96214761D01*
X86273208Y-96205383D01*
X86249175Y-96200602D01*
X86236920Y-96200000D01*
X80925000Y-96200000D01*
X80925000Y-94500000D01*
X87075000Y-94500000D01*
X87075000Y-96257000D01*
X87075000Y-96257000D01*
G37*
G36*
X89203997Y-96387997D02*
X89256653Y-96403970D01*
X89305165Y-96429900D01*
X89347696Y-96464804D01*
X89382600Y-96507335D01*
X89408530Y-96555847D01*
X89424503Y-96608503D01*
X89430500Y-96669390D01*
X89430500Y-97894610D01*
X89424503Y-97955497D01*
X89408530Y-98008153D01*
X89382600Y-98056665D01*
X89347696Y-98099196D01*
X89305165Y-98134100D01*
X89256653Y-98160030D01*
X89203997Y-98176003D01*
X89143110Y-98182000D01*
X88342890Y-98182000D01*
X88282003Y-98176003D01*
X88229347Y-98160030D01*
X88180835Y-98134100D01*
X88138304Y-98099196D01*
X88103400Y-98056665D01*
X88077470Y-98008153D01*
X88061497Y-97955497D01*
X88055500Y-97894610D01*
X88055500Y-96669390D01*
X88061497Y-96608503D01*
X88077470Y-96555847D01*
X88103400Y-96507335D01*
X88138304Y-96464804D01*
X88180835Y-96429900D01*
X88229347Y-96403970D01*
X88282003Y-96387997D01*
X88342890Y-96382000D01*
X89143110Y-96382000D01*
X89203997Y-96387997D01*
X89203997Y-96387997D01*
G37*
G36*
X107850000Y-97700000D02*
X104950000Y-97700000D01*
X104950000Y-96300000D01*
X107850000Y-96300000D01*
X107850000Y-97700000D01*
X107850000Y-97700000D01*
G37*
G36*
X123050000Y-97700000D02*
X120150000Y-97700000D01*
X120150000Y-96300000D01*
X123050000Y-96300000D01*
X123050000Y-97700000D01*
X123050000Y-97700000D01*
G37*
G36*
X75801997Y-94482997D02*
X75854653Y-94498970D01*
X75903165Y-94524900D01*
X75945696Y-94559804D01*
X75980600Y-94602335D01*
X76006530Y-94650847D01*
X76022503Y-94703503D01*
X76028500Y-94764390D01*
X76028500Y-95989610D01*
X76022503Y-96050497D01*
X76006530Y-96103153D01*
X75980600Y-96151665D01*
X75945696Y-96194196D01*
X75903165Y-96229100D01*
X75854653Y-96255030D01*
X75801997Y-96271003D01*
X75741110Y-96277000D01*
X74940890Y-96277000D01*
X74880003Y-96271003D01*
X74827347Y-96255030D01*
X74778835Y-96229100D01*
X74736304Y-96194196D01*
X74701400Y-96151665D01*
X74675470Y-96103153D01*
X74659497Y-96050497D01*
X74653500Y-95989610D01*
X74653500Y-94764390D01*
X74659497Y-94703503D01*
X74675470Y-94650847D01*
X74701400Y-94602335D01*
X74736304Y-94559804D01*
X74778835Y-94524900D01*
X74827347Y-94498970D01*
X74880003Y-94482997D01*
X74940890Y-94477000D01*
X75741110Y-94477000D01*
X75801997Y-94482997D01*
X75801997Y-94482997D01*
G37*
G36*
X77676997Y-94482997D02*
X77729653Y-94498970D01*
X77778165Y-94524900D01*
X77820696Y-94559804D01*
X77855600Y-94602335D01*
X77881530Y-94650847D01*
X77897503Y-94703503D01*
X77903500Y-94764390D01*
X77903500Y-95989610D01*
X77897503Y-96050497D01*
X77881530Y-96103153D01*
X77855600Y-96151665D01*
X77820696Y-96194196D01*
X77778165Y-96229100D01*
X77729653Y-96255030D01*
X77676997Y-96271003D01*
X77616110Y-96277000D01*
X76815890Y-96277000D01*
X76755003Y-96271003D01*
X76702347Y-96255030D01*
X76653835Y-96229100D01*
X76611304Y-96194196D01*
X76576400Y-96151665D01*
X76550470Y-96103153D01*
X76534497Y-96050497D01*
X76528500Y-95989610D01*
X76528500Y-94764390D01*
X76534497Y-94703503D01*
X76550470Y-94650847D01*
X76576400Y-94602335D01*
X76611304Y-94559804D01*
X76653835Y-94524900D01*
X76702347Y-94498970D01*
X76755003Y-94482997D01*
X76815890Y-94477000D01*
X77616110Y-94477000D01*
X77676997Y-94482997D01*
X77676997Y-94482997D01*
G37*
G36*
X123050000Y-95700000D02*
X120150000Y-95700000D01*
X120150000Y-94300000D01*
X123050000Y-94300000D01*
X123050000Y-95700000D01*
X123050000Y-95700000D01*
G37*
G36*
X107850000Y-95700000D02*
X104950000Y-95700000D01*
X104950000Y-94300000D01*
X107850000Y-94300000D01*
X107850000Y-95700000D01*
X107850000Y-95700000D01*
G37*
G36*
X71615435Y-93296218D02*
X71651720Y-93301600D01*
X72477600Y-93301600D01*
X72477600Y-95051600D01*
X70727600Y-95051600D01*
X70727600Y-93301600D01*
X71553480Y-93301600D01*
X71577866Y-93299198D01*
X71601315Y-93292085D01*
X71603124Y-93291118D01*
X71615435Y-93296218D01*
X71615435Y-93296218D01*
G37*
G36*
X77676997Y-92374797D02*
X77729653Y-92390770D01*
X77778165Y-92416700D01*
X77820696Y-92451604D01*
X77855600Y-92494135D01*
X77881530Y-92542647D01*
X77897503Y-92595303D01*
X77903500Y-92656190D01*
X77903500Y-93881410D01*
X77897503Y-93942297D01*
X77881530Y-93994953D01*
X77855600Y-94043465D01*
X77820696Y-94085996D01*
X77778165Y-94120900D01*
X77729653Y-94146830D01*
X77676997Y-94162803D01*
X77616110Y-94168800D01*
X76815890Y-94168800D01*
X76755003Y-94162803D01*
X76702347Y-94146830D01*
X76653835Y-94120900D01*
X76611304Y-94085996D01*
X76576400Y-94043465D01*
X76550470Y-93994953D01*
X76534497Y-93942297D01*
X76528500Y-93881410D01*
X76528500Y-92656190D01*
X76534497Y-92595303D01*
X76550470Y-92542647D01*
X76576400Y-92494135D01*
X76611304Y-92451604D01*
X76653835Y-92416700D01*
X76702347Y-92390770D01*
X76755003Y-92374797D01*
X76815890Y-92368800D01*
X77616110Y-92368800D01*
X77676997Y-92374797D01*
X77676997Y-92374797D01*
G37*
G36*
X75801997Y-92374797D02*
X75854653Y-92390770D01*
X75903165Y-92416700D01*
X75945696Y-92451604D01*
X75980600Y-92494135D01*
X76006530Y-92542647D01*
X76022503Y-92595303D01*
X76028500Y-92656190D01*
X76028500Y-93881410D01*
X76022503Y-93942297D01*
X76006530Y-93994953D01*
X75980600Y-94043465D01*
X75945696Y-94085996D01*
X75903165Y-94120900D01*
X75854653Y-94146830D01*
X75801997Y-94162803D01*
X75741110Y-94168800D01*
X74940890Y-94168800D01*
X74880003Y-94162803D01*
X74827347Y-94146830D01*
X74778835Y-94120900D01*
X74736304Y-94085996D01*
X74701400Y-94043465D01*
X74675470Y-93994953D01*
X74659497Y-93942297D01*
X74653500Y-93881410D01*
X74653500Y-92656190D01*
X74659497Y-92595303D01*
X74675470Y-92542647D01*
X74701400Y-92494135D01*
X74736304Y-92451604D01*
X74778835Y-92416700D01*
X74827347Y-92390770D01*
X74880003Y-92374797D01*
X74940890Y-92368800D01*
X75741110Y-92368800D01*
X75801997Y-92374797D01*
X75801997Y-92374797D01*
G37*
G36*
X80500000Y-94075000D02*
X78800000Y-94075000D01*
X78800000Y-87925000D01*
X80500000Y-87925000D01*
X80500000Y-94075000D01*
X80500000Y-94075000D01*
G37*
G36*
X89200000Y-94075000D02*
X87500000Y-94075000D01*
X87500000Y-87925000D01*
X89200000Y-87925000D01*
X89200000Y-94075000D01*
X89200000Y-94075000D01*
G37*
G36*
X107850000Y-93700000D02*
X104950000Y-93700000D01*
X104950000Y-92300000D01*
X107850000Y-92300000D01*
X107850000Y-93700000D01*
X107850000Y-93700000D01*
G37*
G36*
X123050000Y-93700000D02*
X120150000Y-93700000D01*
X120150000Y-92300000D01*
X123050000Y-92300000D01*
X123050000Y-93700000D01*
X123050000Y-93700000D01*
G37*
G36*
X71615435Y-91296218D02*
X71639468Y-91300998D01*
X71692264Y-91306198D01*
X71774130Y-91314261D01*
X71884089Y-91347617D01*
X71939069Y-91364295D01*
X71989737Y-91391378D01*
X72091076Y-91445544D01*
X72224312Y-91554888D01*
X72333656Y-91688124D01*
X72387822Y-91789463D01*
X72414905Y-91840131D01*
X72425117Y-91873797D01*
X72464939Y-92005070D01*
X72481833Y-92176600D01*
X72464939Y-92348130D01*
X72456665Y-92375405D01*
X72414905Y-92513069D01*
X72410359Y-92521573D01*
X72333656Y-92665076D01*
X72224312Y-92798312D01*
X72091076Y-92907656D01*
X71989737Y-92961822D01*
X71939069Y-92988905D01*
X71884089Y-93005583D01*
X71774130Y-93038939D01*
X71692264Y-93047002D01*
X71639468Y-93052202D01*
X71615434Y-93056983D01*
X71603124Y-93062082D01*
X71601315Y-93061115D01*
X71565732Y-93052202D01*
X71512936Y-93047002D01*
X71431070Y-93038939D01*
X71321111Y-93005583D01*
X71266131Y-92988905D01*
X71215463Y-92961822D01*
X71114124Y-92907656D01*
X70980888Y-92798312D01*
X70871544Y-92665076D01*
X70794841Y-92521573D01*
X70790295Y-92513069D01*
X70748535Y-92375405D01*
X70740261Y-92348130D01*
X70723367Y-92176600D01*
X70740261Y-92005070D01*
X70780083Y-91873797D01*
X70790295Y-91840131D01*
X70817378Y-91789463D01*
X70871544Y-91688124D01*
X70980888Y-91554888D01*
X71114124Y-91445544D01*
X71215463Y-91391378D01*
X71266131Y-91364295D01*
X71321111Y-91347617D01*
X71431070Y-91314261D01*
X71512936Y-91306198D01*
X71565732Y-91300998D01*
X71589766Y-91296217D01*
X71602600Y-91290901D01*
X71615435Y-91296218D01*
X71615435Y-91296218D01*
G37*
G36*
X77646997Y-88285397D02*
X77699653Y-88301370D01*
X77748165Y-88327300D01*
X77790696Y-88362204D01*
X77825600Y-88404735D01*
X77851530Y-88453247D01*
X77867503Y-88505903D01*
X77873500Y-88566790D01*
X77873500Y-89792010D01*
X77867503Y-89852897D01*
X77851530Y-89905553D01*
X77825600Y-89954065D01*
X77790696Y-89996596D01*
X77748165Y-90031500D01*
X77699649Y-90057433D01*
X77696021Y-90058533D01*
X77673382Y-90067910D01*
X77653008Y-90081524D01*
X77635681Y-90098851D01*
X77622067Y-90119226D01*
X77612689Y-90141865D01*
X77607909Y-90165898D01*
X77607909Y-90190402D01*
X77612690Y-90214436D01*
X77622067Y-90237075D01*
X77635681Y-90257449D01*
X77653008Y-90274776D01*
X77673383Y-90288390D01*
X77696022Y-90297768D01*
X77729652Y-90307969D01*
X77778165Y-90333900D01*
X77820696Y-90368804D01*
X77855600Y-90411335D01*
X77881530Y-90459847D01*
X77897503Y-90512503D01*
X77903500Y-90573390D01*
X77903500Y-91798610D01*
X77897503Y-91859497D01*
X77881530Y-91912153D01*
X77855600Y-91960665D01*
X77820696Y-92003196D01*
X77778165Y-92038100D01*
X77729653Y-92064030D01*
X77676997Y-92080003D01*
X77616110Y-92086000D01*
X76815890Y-92086000D01*
X76755003Y-92080003D01*
X76702347Y-92064030D01*
X76653835Y-92038100D01*
X76611304Y-92003196D01*
X76576400Y-91960665D01*
X76550470Y-91912153D01*
X76534497Y-91859497D01*
X76528500Y-91798610D01*
X76528500Y-90573390D01*
X76534497Y-90512503D01*
X76550470Y-90459847D01*
X76576400Y-90411335D01*
X76611304Y-90368804D01*
X76653835Y-90333900D01*
X76702351Y-90307967D01*
X76705979Y-90306867D01*
X76728618Y-90297490D01*
X76748992Y-90283876D01*
X76766319Y-90266549D01*
X76779933Y-90246174D01*
X76789311Y-90223535D01*
X76794091Y-90199502D01*
X76794091Y-90174998D01*
X76789310Y-90150964D01*
X76779933Y-90128325D01*
X76766319Y-90107951D01*
X76748992Y-90090624D01*
X76728617Y-90077010D01*
X76705978Y-90067632D01*
X76672348Y-90057431D01*
X76623835Y-90031500D01*
X76581304Y-89996596D01*
X76546400Y-89954065D01*
X76520470Y-89905553D01*
X76504497Y-89852897D01*
X76498500Y-89792010D01*
X76498500Y-88566790D01*
X76504497Y-88505903D01*
X76520470Y-88453247D01*
X76546400Y-88404735D01*
X76581304Y-88362204D01*
X76623835Y-88327300D01*
X76672347Y-88301370D01*
X76725003Y-88285397D01*
X76785890Y-88279400D01*
X77586110Y-88279400D01*
X77646997Y-88285397D01*
X77646997Y-88285397D01*
G37*
G36*
X75771997Y-88285397D02*
X75824653Y-88301370D01*
X75873165Y-88327300D01*
X75915696Y-88362204D01*
X75950600Y-88404735D01*
X75976530Y-88453247D01*
X75992503Y-88505903D01*
X75998500Y-88566790D01*
X75998500Y-89792010D01*
X75992503Y-89852897D01*
X75976530Y-89905553D01*
X75950600Y-89954065D01*
X75915696Y-89996596D01*
X75873165Y-90031500D01*
X75824649Y-90057433D01*
X75821021Y-90058533D01*
X75798382Y-90067910D01*
X75778008Y-90081524D01*
X75760681Y-90098851D01*
X75747067Y-90119226D01*
X75737689Y-90141865D01*
X75732909Y-90165898D01*
X75732909Y-90190402D01*
X75737690Y-90214436D01*
X75747067Y-90237075D01*
X75760681Y-90257449D01*
X75778008Y-90274776D01*
X75798383Y-90288390D01*
X75821022Y-90297768D01*
X75854652Y-90307969D01*
X75903165Y-90333900D01*
X75945696Y-90368804D01*
X75980600Y-90411335D01*
X76006530Y-90459847D01*
X76022503Y-90512503D01*
X76028500Y-90573390D01*
X76028500Y-91798610D01*
X76022503Y-91859497D01*
X76006530Y-91912153D01*
X75980600Y-91960665D01*
X75945696Y-92003196D01*
X75903165Y-92038100D01*
X75854653Y-92064030D01*
X75801997Y-92080003D01*
X75741110Y-92086000D01*
X74940890Y-92086000D01*
X74880003Y-92080003D01*
X74827347Y-92064030D01*
X74778835Y-92038100D01*
X74736304Y-92003196D01*
X74701400Y-91960665D01*
X74675470Y-91912153D01*
X74659497Y-91859497D01*
X74653500Y-91798610D01*
X74653500Y-90573390D01*
X74659497Y-90512503D01*
X74675470Y-90459847D01*
X74701400Y-90411335D01*
X74736304Y-90368804D01*
X74778835Y-90333900D01*
X74827351Y-90307967D01*
X74830979Y-90306867D01*
X74853618Y-90297490D01*
X74873992Y-90283876D01*
X74891319Y-90266549D01*
X74904933Y-90246174D01*
X74914311Y-90223535D01*
X74919091Y-90199502D01*
X74919091Y-90174998D01*
X74914310Y-90150964D01*
X74904933Y-90128325D01*
X74891319Y-90107951D01*
X74873992Y-90090624D01*
X74853617Y-90077010D01*
X74830978Y-90067632D01*
X74797348Y-90057431D01*
X74748835Y-90031500D01*
X74706304Y-89996596D01*
X74671400Y-89954065D01*
X74645470Y-89905553D01*
X74629497Y-89852897D01*
X74623500Y-89792010D01*
X74623500Y-88566790D01*
X74629497Y-88505903D01*
X74645470Y-88453247D01*
X74671400Y-88404735D01*
X74706304Y-88362204D01*
X74748835Y-88327300D01*
X74797347Y-88301370D01*
X74850003Y-88285397D01*
X74910890Y-88279400D01*
X75711110Y-88279400D01*
X75771997Y-88285397D01*
X75771997Y-88285397D01*
G37*
G36*
X123050000Y-91700000D02*
X120150000Y-91700000D01*
X120150000Y-90300000D01*
X123050000Y-90300000D01*
X123050000Y-91700000D01*
X123050000Y-91700000D01*
G37*
G36*
X107850000Y-91700000D02*
X104950000Y-91700000D01*
X104950000Y-90300000D01*
X107850000Y-90300000D01*
X107850000Y-91700000D01*
X107850000Y-91700000D01*
G37*
G36*
X71615435Y-89296218D02*
X71639468Y-89300998D01*
X71692265Y-89306198D01*
X71774130Y-89314261D01*
X71884089Y-89347617D01*
X71939069Y-89364295D01*
X71989737Y-89391378D01*
X72091076Y-89445544D01*
X72224312Y-89554888D01*
X72333656Y-89688124D01*
X72387822Y-89789463D01*
X72414905Y-89840131D01*
X72423115Y-89867197D01*
X72464939Y-90005070D01*
X72481833Y-90176600D01*
X72464939Y-90348130D01*
X72441620Y-90425000D01*
X72414905Y-90513069D01*
X72388383Y-90562688D01*
X72333656Y-90665076D01*
X72224312Y-90798312D01*
X72091076Y-90907656D01*
X71989737Y-90961822D01*
X71939069Y-90988905D01*
X71884089Y-91005583D01*
X71774130Y-91038939D01*
X71692264Y-91047002D01*
X71639468Y-91052202D01*
X71615434Y-91056983D01*
X71602600Y-91062299D01*
X71589765Y-91056982D01*
X71565732Y-91052202D01*
X71512936Y-91047002D01*
X71431070Y-91038939D01*
X71321111Y-91005583D01*
X71266131Y-90988905D01*
X71215463Y-90961822D01*
X71114124Y-90907656D01*
X70980888Y-90798312D01*
X70871544Y-90665076D01*
X70816817Y-90562688D01*
X70790295Y-90513069D01*
X70763580Y-90425000D01*
X70740261Y-90348130D01*
X70723367Y-90176600D01*
X70740261Y-90005070D01*
X70782085Y-89867197D01*
X70790295Y-89840131D01*
X70817378Y-89789463D01*
X70871544Y-89688124D01*
X70980888Y-89554888D01*
X71114124Y-89445544D01*
X71215463Y-89391378D01*
X71266131Y-89364295D01*
X71321111Y-89347617D01*
X71431070Y-89314261D01*
X71512935Y-89306198D01*
X71565732Y-89300998D01*
X71589766Y-89296217D01*
X71602600Y-89290901D01*
X71615435Y-89296218D01*
X71615435Y-89296218D01*
G37*
G36*
X107850000Y-89700000D02*
X104950000Y-89700000D01*
X104950000Y-88300000D01*
X107850000Y-88300000D01*
X107850000Y-89700000D01*
X107850000Y-89700000D01*
G37*
G36*
X123050000Y-89700000D02*
X120150000Y-89700000D01*
X120150000Y-88300000D01*
X123050000Y-88300000D01*
X123050000Y-89700000D01*
X123050000Y-89700000D01*
G37*
G36*
X71688429Y-87305820D02*
X71774130Y-87314261D01*
X71884089Y-87347617D01*
X71939069Y-87364295D01*
X71989737Y-87391378D01*
X72091076Y-87445544D01*
X72224312Y-87554888D01*
X72333656Y-87688124D01*
X72364223Y-87745312D01*
X72414905Y-87840131D01*
X72414905Y-87840132D01*
X72464939Y-88005070D01*
X72481833Y-88176600D01*
X72464939Y-88348130D01*
X72433052Y-88453247D01*
X72414905Y-88513069D01*
X72391911Y-88556088D01*
X72333656Y-88665076D01*
X72224312Y-88798312D01*
X72091076Y-88907656D01*
X71989737Y-88961822D01*
X71939069Y-88988905D01*
X71884089Y-89005583D01*
X71774130Y-89038939D01*
X71692264Y-89047002D01*
X71639468Y-89052202D01*
X71615434Y-89056983D01*
X71602600Y-89062299D01*
X71589765Y-89056982D01*
X71565732Y-89052202D01*
X71512936Y-89047002D01*
X71431070Y-89038939D01*
X71321111Y-89005583D01*
X71266131Y-88988905D01*
X71215463Y-88961822D01*
X71114124Y-88907656D01*
X70980888Y-88798312D01*
X70871544Y-88665076D01*
X70813289Y-88556088D01*
X70790295Y-88513069D01*
X70772148Y-88453247D01*
X70740261Y-88348130D01*
X70723367Y-88176600D01*
X70740261Y-88005070D01*
X70790295Y-87840132D01*
X70790295Y-87840131D01*
X70840977Y-87745312D01*
X70871544Y-87688124D01*
X70980888Y-87554888D01*
X71114124Y-87445544D01*
X71215463Y-87391378D01*
X71266131Y-87364295D01*
X71321111Y-87347617D01*
X71431070Y-87314261D01*
X71516771Y-87305820D01*
X71559620Y-87301600D01*
X71645580Y-87301600D01*
X71688429Y-87305820D01*
X71688429Y-87305820D01*
G37*
G36*
X75746597Y-86227997D02*
X75799253Y-86243970D01*
X75847765Y-86269900D01*
X75890296Y-86304804D01*
X75925200Y-86347335D01*
X75951130Y-86395847D01*
X75967103Y-86448503D01*
X75973100Y-86509390D01*
X75973100Y-87734610D01*
X75967103Y-87795497D01*
X75951130Y-87848153D01*
X75925200Y-87896665D01*
X75890296Y-87939196D01*
X75847765Y-87974100D01*
X75799253Y-88000030D01*
X75746597Y-88016003D01*
X75685710Y-88022000D01*
X74885490Y-88022000D01*
X74824603Y-88016003D01*
X74771947Y-88000030D01*
X74723435Y-87974100D01*
X74680904Y-87939196D01*
X74646000Y-87896665D01*
X74620070Y-87848153D01*
X74604097Y-87795497D01*
X74598100Y-87734610D01*
X74598100Y-86509390D01*
X74604097Y-86448503D01*
X74620070Y-86395847D01*
X74646000Y-86347335D01*
X74680904Y-86304804D01*
X74723435Y-86269900D01*
X74771947Y-86243970D01*
X74824603Y-86227997D01*
X74885490Y-86222000D01*
X75685710Y-86222000D01*
X75746597Y-86227997D01*
X75746597Y-86227997D01*
G37*
G36*
X77621597Y-86227997D02*
X77674253Y-86243970D01*
X77722765Y-86269900D01*
X77765296Y-86304804D01*
X77800200Y-86347335D01*
X77826130Y-86395847D01*
X77842103Y-86448503D01*
X77848100Y-86509390D01*
X77848100Y-87734610D01*
X77842103Y-87795497D01*
X77826130Y-87848153D01*
X77800200Y-87896665D01*
X77765296Y-87939196D01*
X77722765Y-87974100D01*
X77674253Y-88000030D01*
X77621597Y-88016003D01*
X77560710Y-88022000D01*
X76760490Y-88022000D01*
X76699603Y-88016003D01*
X76646947Y-88000030D01*
X76598435Y-87974100D01*
X76555904Y-87939196D01*
X76521000Y-87896665D01*
X76495070Y-87848153D01*
X76479097Y-87795497D01*
X76473100Y-87734610D01*
X76473100Y-86509390D01*
X76479097Y-86448503D01*
X76495070Y-86395847D01*
X76521000Y-86347335D01*
X76555904Y-86304804D01*
X76598435Y-86269900D01*
X76646947Y-86243970D01*
X76699603Y-86227997D01*
X76760490Y-86222000D01*
X77560710Y-86222000D01*
X77621597Y-86227997D01*
X77621597Y-86227997D01*
G37*
G36*
X107850000Y-87700000D02*
X104950000Y-87700000D01*
X104950000Y-86300000D01*
X107850000Y-86300000D01*
X107850000Y-87700000D01*
X107850000Y-87700000D01*
G37*
G36*
X123050000Y-87700000D02*
X120150000Y-87700000D01*
X120150000Y-86300000D01*
X123050000Y-86300000D01*
X123050000Y-87700000D01*
X123050000Y-87700000D01*
G37*
G36*
X87075000Y-87500000D02*
X80925000Y-87500000D01*
X80925000Y-85800000D01*
X87075000Y-85800000D01*
X87075000Y-87500000D01*
X87075000Y-87500000D01*
G37*
G36*
X89573497Y-85932497D02*
X89626153Y-85948470D01*
X89674665Y-85974400D01*
X89717196Y-86009304D01*
X89752100Y-86051835D01*
X89778030Y-86100347D01*
X89794003Y-86153003D01*
X89800000Y-86213890D01*
X89800000Y-87014110D01*
X89794003Y-87074997D01*
X89778030Y-87127653D01*
X89752100Y-87176165D01*
X89717196Y-87218696D01*
X89674665Y-87253600D01*
X89626153Y-87279530D01*
X89573497Y-87295503D01*
X89512610Y-87301500D01*
X88287390Y-87301500D01*
X88226503Y-87295503D01*
X88173847Y-87279530D01*
X88125335Y-87253600D01*
X88082804Y-87218696D01*
X88047900Y-87176165D01*
X88021970Y-87127653D01*
X88005997Y-87074997D01*
X88000000Y-87014110D01*
X88000000Y-86213890D01*
X88005997Y-86153003D01*
X88021970Y-86100347D01*
X88047900Y-86051835D01*
X88082804Y-86009304D01*
X88125335Y-85974400D01*
X88173847Y-85948470D01*
X88226503Y-85932497D01*
X88287390Y-85926500D01*
X89512610Y-85926500D01*
X89573497Y-85932497D01*
X89573497Y-85932497D01*
G37*
G36*
X95661612Y-84380478D02*
X95680554Y-84396024D01*
X95702165Y-84407575D01*
X95725614Y-84414688D01*
X95750000Y-84417090D01*
X95774386Y-84414688D01*
X95786266Y-84411712D01*
X95877479Y-84384043D01*
X95969296Y-84375000D01*
X96030704Y-84375000D01*
X96122521Y-84384043D01*
X96240334Y-84419781D01*
X96348911Y-84477817D01*
X96420716Y-84536746D01*
X96441075Y-84550349D01*
X96463713Y-84559726D01*
X96487747Y-84564507D01*
X96512251Y-84564507D01*
X96536285Y-84559727D01*
X96558924Y-84550350D01*
X96579284Y-84536746D01*
X96651089Y-84477817D01*
X96759666Y-84419781D01*
X96877479Y-84384043D01*
X96969296Y-84375000D01*
X97030704Y-84375000D01*
X97122521Y-84384043D01*
X97240334Y-84419781D01*
X97348911Y-84477817D01*
X97420716Y-84536746D01*
X97441075Y-84550349D01*
X97463713Y-84559726D01*
X97487747Y-84564507D01*
X97512251Y-84564507D01*
X97536285Y-84559727D01*
X97558924Y-84550350D01*
X97579284Y-84536746D01*
X97651089Y-84477817D01*
X97759666Y-84419781D01*
X97877479Y-84384043D01*
X97969296Y-84375000D01*
X98030704Y-84375000D01*
X98122521Y-84384043D01*
X98240334Y-84419781D01*
X98348911Y-84477817D01*
X98444080Y-84555920D01*
X98522183Y-84651089D01*
X98580219Y-84759666D01*
X98615957Y-84877479D01*
X98628024Y-85000000D01*
X98615957Y-85122521D01*
X98580219Y-85240334D01*
X98522183Y-85348911D01*
X98444080Y-85444080D01*
X98348911Y-85522183D01*
X98240334Y-85580219D01*
X98122521Y-85615957D01*
X98030704Y-85625000D01*
X97969296Y-85625000D01*
X97877479Y-85615957D01*
X97759666Y-85580219D01*
X97651089Y-85522183D01*
X97579284Y-85463254D01*
X97558925Y-85449651D01*
X97536287Y-85440274D01*
X97512253Y-85435493D01*
X97487749Y-85435493D01*
X97463715Y-85440273D01*
X97441076Y-85449650D01*
X97420716Y-85463254D01*
X97348911Y-85522183D01*
X97240334Y-85580219D01*
X97122521Y-85615957D01*
X97030704Y-85625000D01*
X96969296Y-85625000D01*
X96877479Y-85615957D01*
X96759666Y-85580219D01*
X96651089Y-85522183D01*
X96579284Y-85463254D01*
X96558925Y-85449651D01*
X96536287Y-85440274D01*
X96512253Y-85435493D01*
X96487749Y-85435493D01*
X96463715Y-85440273D01*
X96441076Y-85449650D01*
X96420716Y-85463254D01*
X96348911Y-85522183D01*
X96240334Y-85580219D01*
X96122521Y-85615957D01*
X96030704Y-85625000D01*
X95969296Y-85625000D01*
X95877479Y-85615957D01*
X95786276Y-85588291D01*
X95762252Y-85583512D01*
X95737748Y-85583512D01*
X95713715Y-85588292D01*
X95691076Y-85597670D01*
X95670701Y-85611284D01*
X95656985Y-85625000D01*
X94375000Y-85625000D01*
X94375000Y-84375000D01*
X95657116Y-84375000D01*
X95661612Y-84380478D01*
X95661612Y-84380478D01*
G37*
G36*
X89573497Y-84057497D02*
X89626153Y-84073470D01*
X89674665Y-84099400D01*
X89717196Y-84134304D01*
X89752100Y-84176835D01*
X89778030Y-84225347D01*
X89794003Y-84278003D01*
X89800000Y-84338890D01*
X89800000Y-85139110D01*
X89794003Y-85199997D01*
X89778030Y-85252653D01*
X89752100Y-85301165D01*
X89717196Y-85343696D01*
X89674665Y-85378600D01*
X89626153Y-85404530D01*
X89573497Y-85420503D01*
X89512610Y-85426500D01*
X88287390Y-85426500D01*
X88226503Y-85420503D01*
X88173847Y-85404530D01*
X88125335Y-85378600D01*
X88082804Y-85343696D01*
X88047900Y-85301165D01*
X88021970Y-85252653D01*
X88005997Y-85199997D01*
X88000000Y-85139110D01*
X88000000Y-84338890D01*
X88005997Y-84278003D01*
X88021970Y-84225347D01*
X88047900Y-84176835D01*
X88082804Y-84134304D01*
X88125335Y-84099400D01*
X88173847Y-84073470D01*
X88226503Y-84057497D01*
X88287390Y-84051500D01*
X89512610Y-84051500D01*
X89573497Y-84057497D01*
X89573497Y-84057497D01*
G37*
G36*
X101502197Y-83484797D02*
X101554853Y-83500770D01*
X101603365Y-83526700D01*
X101645896Y-83561604D01*
X101680800Y-83604135D01*
X101706730Y-83652647D01*
X101722703Y-83705303D01*
X101728700Y-83766190D01*
X101728700Y-84991410D01*
X101722703Y-85052297D01*
X101706730Y-85104953D01*
X101680800Y-85153465D01*
X101645896Y-85195996D01*
X101603365Y-85230900D01*
X101554853Y-85256830D01*
X101502197Y-85272803D01*
X101441310Y-85278800D01*
X100641090Y-85278800D01*
X100580203Y-85272803D01*
X100527547Y-85256830D01*
X100479035Y-85230900D01*
X100436504Y-85195996D01*
X100401600Y-85153465D01*
X100375670Y-85104953D01*
X100359697Y-85052297D01*
X100353700Y-84991410D01*
X100353700Y-83766190D01*
X100359697Y-83705303D01*
X100375670Y-83652647D01*
X100401600Y-83604135D01*
X100436504Y-83561604D01*
X100479035Y-83526700D01*
X100527547Y-83500770D01*
X100580203Y-83484797D01*
X100641090Y-83478800D01*
X101441310Y-83478800D01*
X101502197Y-83484797D01*
X101502197Y-83484797D01*
G37*
G36*
X103377197Y-83484797D02*
X103429853Y-83500770D01*
X103478365Y-83526700D01*
X103520896Y-83561604D01*
X103555800Y-83604135D01*
X103581730Y-83652647D01*
X103597703Y-83705303D01*
X103603700Y-83766190D01*
X103603700Y-84991410D01*
X103597703Y-85052297D01*
X103581730Y-85104953D01*
X103555800Y-85153465D01*
X103520896Y-85195996D01*
X103478365Y-85230900D01*
X103429853Y-85256830D01*
X103377197Y-85272803D01*
X103316310Y-85278800D01*
X102516090Y-85278800D01*
X102455203Y-85272803D01*
X102402547Y-85256830D01*
X102354035Y-85230900D01*
X102311504Y-85195996D01*
X102276600Y-85153465D01*
X102250670Y-85104953D01*
X102234697Y-85052297D01*
X102228700Y-84991410D01*
X102228700Y-83766190D01*
X102234697Y-83705303D01*
X102250670Y-83652647D01*
X102276600Y-83604135D01*
X102311504Y-83561604D01*
X102354035Y-83526700D01*
X102402547Y-83500770D01*
X102455203Y-83484797D01*
X102516090Y-83478800D01*
X103316310Y-83478800D01*
X103377197Y-83484797D01*
X103377197Y-83484797D01*
G37*
G36*
X89730200Y-79772400D02*
X89732602Y-79796786D01*
X89739715Y-79820235D01*
X89751266Y-79841846D01*
X89766812Y-79860788D01*
X89785754Y-79876334D01*
X89807365Y-79887885D01*
X89830814Y-79894998D01*
X89855200Y-79897400D01*
X89875200Y-79897400D01*
X89899586Y-79894998D01*
X89923035Y-79887885D01*
X89944646Y-79876334D01*
X89963588Y-79860788D01*
X89979134Y-79841846D01*
X89990685Y-79820235D01*
X89997798Y-79796786D01*
X90000200Y-79772400D01*
X90000200Y-77772600D01*
X91000200Y-77772600D01*
X91000200Y-79772400D01*
X91002602Y-79796786D01*
X91009715Y-79820235D01*
X91021266Y-79841846D01*
X91036812Y-79860788D01*
X91055754Y-79876334D01*
X91077365Y-79887885D01*
X91100814Y-79894998D01*
X91125200Y-79897400D01*
X91145200Y-79897400D01*
X91169586Y-79894998D01*
X91193035Y-79887885D01*
X91214646Y-79876334D01*
X91233588Y-79860788D01*
X91249134Y-79841846D01*
X91260685Y-79820235D01*
X91267798Y-79796786D01*
X91270200Y-79772400D01*
X91270200Y-77772600D01*
X92270200Y-77772600D01*
X92270200Y-79722600D01*
X91999357Y-79722600D01*
X91974971Y-79725002D01*
X91951522Y-79732115D01*
X91929911Y-79743666D01*
X91910969Y-79759212D01*
X91895423Y-79778154D01*
X91883872Y-79799765D01*
X91876759Y-79823214D01*
X91874357Y-79847600D01*
X91876759Y-79871986D01*
X91883872Y-79895435D01*
X91895423Y-79917046D01*
X91920057Y-79944226D01*
X91963896Y-79980204D01*
X91998800Y-80022735D01*
X92024730Y-80071247D01*
X92040703Y-80123903D01*
X92046700Y-80184790D01*
X92046700Y-81410010D01*
X92040703Y-81470897D01*
X92024730Y-81523553D01*
X91998800Y-81572065D01*
X91963896Y-81614596D01*
X91921365Y-81649500D01*
X91872853Y-81675430D01*
X91818205Y-81692008D01*
X91798247Y-81695977D01*
X91775607Y-81705353D01*
X91755232Y-81718966D01*
X91737904Y-81736293D01*
X91724289Y-81756667D01*
X91714911Y-81779305D01*
X91710129Y-81803338D01*
X91710128Y-81827843D01*
X91714908Y-81851876D01*
X91724284Y-81874516D01*
X91737897Y-81894891D01*
X91755224Y-81912219D01*
X91775603Y-81925836D01*
X91824365Y-81951899D01*
X91866896Y-81986804D01*
X91901800Y-82029335D01*
X91927730Y-82077847D01*
X91943703Y-82130503D01*
X91949700Y-82191390D01*
X91949700Y-83416610D01*
X91943703Y-83477497D01*
X91927730Y-83530153D01*
X91901800Y-83578665D01*
X91866896Y-83621196D01*
X91824365Y-83656100D01*
X91775853Y-83682030D01*
X91723197Y-83698003D01*
X91662310Y-83704000D01*
X90862090Y-83704000D01*
X90801203Y-83698003D01*
X90748547Y-83682030D01*
X90700035Y-83656100D01*
X90657504Y-83621196D01*
X90622600Y-83578665D01*
X90596670Y-83530153D01*
X90580697Y-83477497D01*
X90574700Y-83416610D01*
X90574700Y-82191390D01*
X90580697Y-82130503D01*
X90596670Y-82077847D01*
X90622600Y-82029335D01*
X90657504Y-81986804D01*
X90700035Y-81951900D01*
X90748547Y-81925970D01*
X90803195Y-81909392D01*
X90823153Y-81905423D01*
X90845793Y-81896047D01*
X90866168Y-81882434D01*
X90883496Y-81865107D01*
X90897111Y-81844733D01*
X90906489Y-81822095D01*
X90911271Y-81798062D01*
X90911272Y-81773557D01*
X90906492Y-81749524D01*
X90897116Y-81726884D01*
X90883503Y-81706509D01*
X90866176Y-81689181D01*
X90845797Y-81675564D01*
X90797035Y-81649501D01*
X90754504Y-81614596D01*
X90719600Y-81572065D01*
X90693670Y-81523553D01*
X90677697Y-81470897D01*
X90671700Y-81410010D01*
X90671700Y-80184790D01*
X90677697Y-80123903D01*
X90693670Y-80071247D01*
X90719600Y-80022735D01*
X90754504Y-79980204D01*
X90798343Y-79944226D01*
X90815670Y-79926898D01*
X90829284Y-79906524D01*
X90838661Y-79883885D01*
X90843441Y-79859851D01*
X90843441Y-79835347D01*
X90838660Y-79811314D01*
X90829283Y-79788675D01*
X90815669Y-79768300D01*
X90798341Y-79750973D01*
X90777967Y-79737359D01*
X90755328Y-79727982D01*
X90719043Y-79722600D01*
X90124357Y-79722600D01*
X90099971Y-79725002D01*
X90076522Y-79732115D01*
X90054911Y-79743666D01*
X90035969Y-79759212D01*
X90020423Y-79778154D01*
X90008872Y-79799765D01*
X90001759Y-79823214D01*
X89999357Y-79847600D01*
X90001759Y-79871986D01*
X90008872Y-79895435D01*
X90020423Y-79917046D01*
X90045057Y-79944226D01*
X90088896Y-79980204D01*
X90123800Y-80022735D01*
X90149730Y-80071247D01*
X90165703Y-80123903D01*
X90171700Y-80184790D01*
X90171700Y-81410010D01*
X90165703Y-81470897D01*
X90149730Y-81523553D01*
X90123800Y-81572065D01*
X90088896Y-81614596D01*
X90046365Y-81649500D01*
X89997853Y-81675430D01*
X89943205Y-81692008D01*
X89923247Y-81695977D01*
X89900607Y-81705353D01*
X89880232Y-81718966D01*
X89862904Y-81736293D01*
X89849289Y-81756667D01*
X89839911Y-81779305D01*
X89835129Y-81803338D01*
X89835128Y-81827843D01*
X89839908Y-81851876D01*
X89849284Y-81874516D01*
X89862897Y-81894891D01*
X89880224Y-81912219D01*
X89900603Y-81925836D01*
X89949365Y-81951899D01*
X89991896Y-81986804D01*
X90026800Y-82029335D01*
X90052730Y-82077847D01*
X90068703Y-82130503D01*
X90074700Y-82191390D01*
X90074700Y-83416610D01*
X90068703Y-83477497D01*
X90052730Y-83530153D01*
X90026800Y-83578665D01*
X89991896Y-83621196D01*
X89949365Y-83656100D01*
X89900853Y-83682030D01*
X89848197Y-83698003D01*
X89787310Y-83704000D01*
X88987090Y-83704000D01*
X88926203Y-83698003D01*
X88873547Y-83682030D01*
X88825035Y-83656100D01*
X88782504Y-83621196D01*
X88747600Y-83578665D01*
X88721670Y-83530153D01*
X88705697Y-83477497D01*
X88699700Y-83416610D01*
X88699700Y-82191390D01*
X88705697Y-82130503D01*
X88721670Y-82077847D01*
X88747600Y-82029335D01*
X88782504Y-81986804D01*
X88825035Y-81951900D01*
X88873547Y-81925970D01*
X88928195Y-81909392D01*
X88948153Y-81905423D01*
X88970793Y-81896047D01*
X88991168Y-81882434D01*
X89008496Y-81865107D01*
X89022111Y-81844733D01*
X89031489Y-81822095D01*
X89036271Y-81798062D01*
X89036272Y-81773557D01*
X89031492Y-81749524D01*
X89022116Y-81726884D01*
X89008503Y-81706509D01*
X88991176Y-81689181D01*
X88970797Y-81675564D01*
X88922035Y-81649501D01*
X88879504Y-81614596D01*
X88844600Y-81572065D01*
X88818670Y-81523553D01*
X88802697Y-81470897D01*
X88796700Y-81410010D01*
X88796700Y-80184790D01*
X88802697Y-80123903D01*
X88818670Y-80071247D01*
X88844600Y-80022735D01*
X88879504Y-79980204D01*
X88923343Y-79944226D01*
X88940670Y-79926898D01*
X88954284Y-79906524D01*
X88963661Y-79883885D01*
X88968441Y-79859851D01*
X88968441Y-79835347D01*
X88963660Y-79811314D01*
X88954283Y-79788675D01*
X88940669Y-79768300D01*
X88923341Y-79750973D01*
X88902967Y-79737359D01*
X88880328Y-79727982D01*
X88844043Y-79722600D01*
X88730200Y-79722600D01*
X88730200Y-77772600D01*
X89730200Y-77772600D01*
X89730200Y-79772400D01*
X89730200Y-79772400D01*
G37*
G36*
X98870800Y-82943600D02*
X97570800Y-82943600D01*
X97570800Y-81343600D01*
X98870800Y-81343600D01*
X98870800Y-82943600D01*
X98870800Y-82943600D01*
G37*
G36*
X95570800Y-82943600D02*
X94270800Y-82943600D01*
X94270800Y-81343600D01*
X95570800Y-81343600D01*
X95570800Y-82943600D01*
X95570800Y-82943600D01*
G37*
G36*
X103822828Y-80210493D02*
X103870554Y-80224970D01*
X103914536Y-80248479D01*
X103953085Y-80280115D01*
X103984721Y-80318664D01*
X104008230Y-80362646D01*
X104022707Y-80410372D01*
X104028200Y-80466141D01*
X104028200Y-82093859D01*
X104022707Y-82149628D01*
X104008230Y-82197354D01*
X103984721Y-82241336D01*
X103953085Y-82279885D01*
X103914536Y-82311521D01*
X103870554Y-82335030D01*
X103822828Y-82349507D01*
X103767059Y-82355000D01*
X102639341Y-82355000D01*
X102583572Y-82349507D01*
X102535846Y-82335030D01*
X102491864Y-82311521D01*
X102453315Y-82279885D01*
X102421679Y-82241336D01*
X102398170Y-82197354D01*
X102383693Y-82149628D01*
X102378200Y-82093859D01*
X102378200Y-80466141D01*
X102383693Y-80410372D01*
X102398170Y-80362646D01*
X102421679Y-80318664D01*
X102453315Y-80280115D01*
X102491864Y-80248479D01*
X102535846Y-80224970D01*
X102583572Y-80210493D01*
X102639341Y-80205000D01*
X103767059Y-80205000D01*
X103822828Y-80210493D01*
X103822828Y-80210493D01*
G37*
G36*
X101022828Y-80210493D02*
X101070554Y-80224970D01*
X101114536Y-80248479D01*
X101153085Y-80280115D01*
X101184721Y-80318664D01*
X101208230Y-80362646D01*
X101222707Y-80410372D01*
X101228200Y-80466141D01*
X101228200Y-82093859D01*
X101222707Y-82149628D01*
X101208230Y-82197354D01*
X101184721Y-82241336D01*
X101153085Y-82279885D01*
X101114536Y-82311521D01*
X101070554Y-82335030D01*
X101022828Y-82349507D01*
X100967059Y-82355000D01*
X99839341Y-82355000D01*
X99783572Y-82349507D01*
X99735846Y-82335030D01*
X99691864Y-82311521D01*
X99653315Y-82279885D01*
X99621679Y-82241336D01*
X99598170Y-82197354D01*
X99583693Y-82149628D01*
X99578200Y-82093859D01*
X99578200Y-80466141D01*
X99583693Y-80410372D01*
X99598170Y-80362646D01*
X99621679Y-80318664D01*
X99653315Y-80280115D01*
X99691864Y-80248479D01*
X99735846Y-80224970D01*
X99783572Y-80210493D01*
X99839341Y-80205000D01*
X100967059Y-80205000D01*
X101022828Y-80210493D01*
X101022828Y-80210493D01*
G37*
G36*
X75466800Y-81972000D02*
X70566800Y-81972000D01*
X70566800Y-79572000D01*
X75466800Y-79572000D01*
X75466800Y-81972000D01*
X75466800Y-81972000D01*
G37*
G36*
X83966800Y-81972000D02*
X79066800Y-81972000D01*
X79066800Y-79572000D01*
X83966800Y-79572000D01*
X83966800Y-81972000D01*
X83966800Y-81972000D01*
G37*
G36*
X98793697Y-78792797D02*
X98846353Y-78808770D01*
X98894865Y-78834700D01*
X98937396Y-78869604D01*
X98972300Y-78912135D01*
X98998230Y-78960647D01*
X99014203Y-79013303D01*
X99020200Y-79074190D01*
X99020200Y-79874410D01*
X99014203Y-79935297D01*
X98998230Y-79987953D01*
X98972300Y-80036465D01*
X98937396Y-80078996D01*
X98894865Y-80113900D01*
X98846353Y-80139830D01*
X98793697Y-80155803D01*
X98732810Y-80161800D01*
X97507590Y-80161800D01*
X97446703Y-80155803D01*
X97394047Y-80139830D01*
X97345535Y-80113900D01*
X97303004Y-80078996D01*
X97268100Y-80036465D01*
X97242170Y-79987953D01*
X97226197Y-79935297D01*
X97220200Y-79874410D01*
X97220200Y-79074190D01*
X97226197Y-79013303D01*
X97242170Y-78960647D01*
X97268100Y-78912135D01*
X97303004Y-78869604D01*
X97345535Y-78834700D01*
X97394047Y-78808770D01*
X97446703Y-78792797D01*
X97507590Y-78786800D01*
X98732810Y-78786800D01*
X98793697Y-78792797D01*
X98793697Y-78792797D01*
G37*
G36*
X93540200Y-79722600D02*
X92540200Y-79722600D01*
X92540200Y-77772600D01*
X93540200Y-77772600D01*
X93540200Y-79722600D01*
X93540200Y-79722600D01*
G37*
G36*
X100627643Y-79206721D02*
X99577643Y-79206721D01*
X99577643Y-77746721D01*
X100627643Y-77746721D01*
X100627643Y-79206721D01*
X100627643Y-79206721D01*
G37*
G36*
X102527643Y-79206721D02*
X101477643Y-79206721D01*
X101477643Y-77746721D01*
X102527643Y-77746721D01*
X102527643Y-79206721D01*
X102527643Y-79206721D01*
G37*
G36*
X98793697Y-76917797D02*
X98846353Y-76933770D01*
X98894865Y-76959700D01*
X98937396Y-76994604D01*
X98972300Y-77037135D01*
X98998230Y-77085647D01*
X99014203Y-77138303D01*
X99020200Y-77199190D01*
X99020200Y-77999410D01*
X99014203Y-78060297D01*
X98998230Y-78112953D01*
X98972300Y-78161465D01*
X98937396Y-78203996D01*
X98894865Y-78238900D01*
X98846353Y-78264830D01*
X98793697Y-78280803D01*
X98732810Y-78286800D01*
X97507590Y-78286800D01*
X97446703Y-78280803D01*
X97394047Y-78264830D01*
X97345535Y-78238900D01*
X97303004Y-78203996D01*
X97268100Y-78161465D01*
X97242170Y-78112953D01*
X97226197Y-78060297D01*
X97220200Y-77999410D01*
X97220200Y-77199190D01*
X97226197Y-77138303D01*
X97242170Y-77085647D01*
X97268100Y-77037135D01*
X97303004Y-76994604D01*
X97345535Y-76959700D01*
X97394047Y-76933770D01*
X97446703Y-76917797D01*
X97507590Y-76911800D01*
X98732810Y-76911800D01*
X98793697Y-76917797D01*
X98793697Y-76917797D01*
G37*
G36*
X83294997Y-76042597D02*
X83347653Y-76058570D01*
X83396165Y-76084500D01*
X83438696Y-76119404D01*
X83473600Y-76161935D01*
X83499530Y-76210447D01*
X83515503Y-76263103D01*
X83521500Y-76323990D01*
X83521500Y-77549210D01*
X83515503Y-77610097D01*
X83499530Y-77662753D01*
X83473600Y-77711265D01*
X83438696Y-77753796D01*
X83396165Y-77788700D01*
X83347653Y-77814630D01*
X83294997Y-77830603D01*
X83234110Y-77836600D01*
X82433890Y-77836600D01*
X82373003Y-77830603D01*
X82320347Y-77814630D01*
X82271835Y-77788700D01*
X82229304Y-77753796D01*
X82194400Y-77711265D01*
X82168470Y-77662753D01*
X82152497Y-77610097D01*
X82146500Y-77549210D01*
X82146500Y-76323990D01*
X82152497Y-76263103D01*
X82168470Y-76210447D01*
X82194400Y-76161935D01*
X82229304Y-76119404D01*
X82271835Y-76084500D01*
X82320347Y-76058570D01*
X82373003Y-76042597D01*
X82433890Y-76036600D01*
X83234110Y-76036600D01*
X83294997Y-76042597D01*
X83294997Y-76042597D01*
G37*
G36*
X85169997Y-76042597D02*
X85222653Y-76058570D01*
X85271165Y-76084500D01*
X85313696Y-76119404D01*
X85348600Y-76161935D01*
X85374530Y-76210447D01*
X85390503Y-76263103D01*
X85396500Y-76323990D01*
X85396500Y-77549210D01*
X85390503Y-77610097D01*
X85374530Y-77662753D01*
X85348600Y-77711265D01*
X85313696Y-77753796D01*
X85271165Y-77788700D01*
X85222653Y-77814630D01*
X85169997Y-77830603D01*
X85109110Y-77836600D01*
X84308890Y-77836600D01*
X84248003Y-77830603D01*
X84195347Y-77814630D01*
X84146835Y-77788700D01*
X84104304Y-77753796D01*
X84069400Y-77711265D01*
X84043470Y-77662753D01*
X84027497Y-77610097D01*
X84021500Y-77549210D01*
X84021500Y-76323990D01*
X84027497Y-76263103D01*
X84043470Y-76210447D01*
X84069400Y-76161935D01*
X84104304Y-76119404D01*
X84146835Y-76084500D01*
X84195347Y-76058570D01*
X84248003Y-76042597D01*
X84308890Y-76036600D01*
X85109110Y-76036600D01*
X85169997Y-76042597D01*
X85169997Y-76042597D01*
G37*
G36*
X102527643Y-77006721D02*
X99577643Y-77006721D01*
X99577643Y-75546721D01*
X102527643Y-75546721D01*
X102527643Y-77006721D01*
X102527643Y-77006721D01*
G37*
G36*
X107709097Y-75236797D02*
X107761753Y-75252770D01*
X107810265Y-75278700D01*
X107852796Y-75313604D01*
X107887700Y-75356135D01*
X107913630Y-75404647D01*
X107929603Y-75457303D01*
X107935600Y-75518190D01*
X107935600Y-76318410D01*
X107929603Y-76379297D01*
X107913630Y-76431953D01*
X107887700Y-76480465D01*
X107852796Y-76522996D01*
X107810265Y-76557900D01*
X107761753Y-76583830D01*
X107709097Y-76599803D01*
X107648210Y-76605800D01*
X106422990Y-76605800D01*
X106362103Y-76599803D01*
X106309447Y-76583830D01*
X106260935Y-76557900D01*
X106218404Y-76522996D01*
X106183500Y-76480465D01*
X106157570Y-76431953D01*
X106141597Y-76379297D01*
X106135600Y-76318410D01*
X106135600Y-75518190D01*
X106141597Y-75457303D01*
X106157570Y-75404647D01*
X106183500Y-75356135D01*
X106218404Y-75313604D01*
X106260935Y-75278700D01*
X106309447Y-75252770D01*
X106362103Y-75236797D01*
X106422990Y-75230800D01*
X107648210Y-75230800D01*
X107709097Y-75236797D01*
X107709097Y-75236797D01*
G37*
G36*
X85344600Y-75573400D02*
X84144600Y-75573400D01*
X84144600Y-73273400D01*
X85344600Y-73273400D01*
X85344600Y-75573400D01*
X85344600Y-75573400D01*
G37*
G36*
X83444600Y-75573400D02*
X82244600Y-75573400D01*
X82244600Y-73273400D01*
X83444600Y-73273400D01*
X83444600Y-75573400D01*
X83444600Y-75573400D01*
G37*
G36*
X102439697Y-73172397D02*
X102492353Y-73188370D01*
X102540865Y-73214300D01*
X102583396Y-73249204D01*
X102618300Y-73291735D01*
X102644230Y-73340247D01*
X102660203Y-73392903D01*
X102666200Y-73453790D01*
X102666200Y-74679010D01*
X102660203Y-74739897D01*
X102644230Y-74792553D01*
X102618300Y-74841065D01*
X102583396Y-74883596D01*
X102540865Y-74918500D01*
X102492353Y-74944430D01*
X102439697Y-74960403D01*
X102378810Y-74966400D01*
X101578590Y-74966400D01*
X101517703Y-74960403D01*
X101465047Y-74944430D01*
X101416535Y-74918500D01*
X101374004Y-74883596D01*
X101339100Y-74841065D01*
X101313170Y-74792553D01*
X101297197Y-74739897D01*
X101291200Y-74679010D01*
X101291200Y-73453790D01*
X101297197Y-73392903D01*
X101313170Y-73340247D01*
X101339100Y-73291735D01*
X101374004Y-73249204D01*
X101416535Y-73214300D01*
X101465047Y-73188370D01*
X101517703Y-73172397D01*
X101578590Y-73166400D01*
X102378810Y-73166400D01*
X102439697Y-73172397D01*
X102439697Y-73172397D01*
G37*
G36*
X100564697Y-73172397D02*
X100617353Y-73188370D01*
X100665865Y-73214300D01*
X100708396Y-73249204D01*
X100743300Y-73291735D01*
X100769230Y-73340247D01*
X100785203Y-73392903D01*
X100791200Y-73453790D01*
X100791200Y-74679010D01*
X100785203Y-74739897D01*
X100769230Y-74792553D01*
X100743300Y-74841065D01*
X100708396Y-74883596D01*
X100665865Y-74918500D01*
X100617353Y-74944430D01*
X100564697Y-74960403D01*
X100503810Y-74966400D01*
X99703590Y-74966400D01*
X99642703Y-74960403D01*
X99590047Y-74944430D01*
X99541535Y-74918500D01*
X99499004Y-74883596D01*
X99464100Y-74841065D01*
X99438170Y-74792553D01*
X99422197Y-74739897D01*
X99416200Y-74679010D01*
X99416200Y-73453790D01*
X99422197Y-73392903D01*
X99438170Y-73340247D01*
X99464100Y-73291735D01*
X99499004Y-73249204D01*
X99541535Y-73214300D01*
X99590047Y-73188370D01*
X99642703Y-73172397D01*
X99703590Y-73166400D01*
X100503810Y-73166400D01*
X100564697Y-73172397D01*
X100564697Y-73172397D01*
G37*
G36*
X107709097Y-73361797D02*
X107761753Y-73377770D01*
X107810265Y-73403700D01*
X107852796Y-73438604D01*
X107887700Y-73481135D01*
X107913630Y-73529647D01*
X107929603Y-73582303D01*
X107935600Y-73643190D01*
X107935600Y-74443410D01*
X107929603Y-74504297D01*
X107913630Y-74556953D01*
X107887700Y-74605465D01*
X107852796Y-74647996D01*
X107810265Y-74682900D01*
X107761753Y-74708830D01*
X107709097Y-74724803D01*
X107648210Y-74730800D01*
X106422990Y-74730800D01*
X106362103Y-74724803D01*
X106309447Y-74708830D01*
X106260935Y-74682900D01*
X106218404Y-74647996D01*
X106183500Y-74605465D01*
X106157570Y-74556953D01*
X106141597Y-74504297D01*
X106135600Y-74443410D01*
X106135600Y-73643190D01*
X106141597Y-73582303D01*
X106157570Y-73529647D01*
X106183500Y-73481135D01*
X106218404Y-73438604D01*
X106260935Y-73403700D01*
X106309447Y-73377770D01*
X106362103Y-73361797D01*
X106422990Y-73355800D01*
X107648210Y-73355800D01*
X107709097Y-73361797D01*
X107709097Y-73361797D01*
G37*
G36*
X89730200Y-74322600D02*
X88730200Y-74322600D01*
X88730200Y-72372600D01*
X89730200Y-72372600D01*
X89730200Y-74322600D01*
X89730200Y-74322600D01*
G37*
G36*
X93540200Y-74322600D02*
X92540200Y-74322600D01*
X92540200Y-72372600D01*
X93540200Y-72372600D01*
X93540200Y-74322600D01*
X93540200Y-74322600D01*
G37*
G36*
X92270200Y-74322600D02*
X91270200Y-74322600D01*
X91270200Y-72372600D01*
X92270200Y-72372600D01*
X92270200Y-74322600D01*
X92270200Y-74322600D01*
G37*
G36*
X91000200Y-74322600D02*
X90000200Y-74322600D01*
X90000200Y-72372600D01*
X91000200Y-72372600D01*
X91000200Y-74322600D01*
X91000200Y-74322600D01*
G37*
G36*
X97831200Y-73617600D02*
X96631200Y-73617600D01*
X96631200Y-71317600D01*
X97831200Y-71317600D01*
X97831200Y-73617600D01*
X97831200Y-73617600D01*
G37*
G36*
X84394600Y-72573400D02*
X83194600Y-72573400D01*
X83194600Y-70273400D01*
X84394600Y-70273400D01*
X84394600Y-72573400D01*
X84394600Y-72573400D01*
G37*
G36*
X100592397Y-70632397D02*
X100645053Y-70648370D01*
X100693565Y-70674300D01*
X100736096Y-70709204D01*
X100771000Y-70751735D01*
X100796930Y-70800247D01*
X100812903Y-70852903D01*
X100818900Y-70913790D01*
X100818900Y-72139010D01*
X100812903Y-72199897D01*
X100796930Y-72252553D01*
X100771000Y-72301065D01*
X100736096Y-72343596D01*
X100693565Y-72378500D01*
X100645053Y-72404430D01*
X100592397Y-72420403D01*
X100531510Y-72426400D01*
X99731290Y-72426400D01*
X99670403Y-72420403D01*
X99617747Y-72404430D01*
X99569235Y-72378500D01*
X99526704Y-72343596D01*
X99491800Y-72301065D01*
X99465870Y-72252553D01*
X99449897Y-72199897D01*
X99443900Y-72139010D01*
X99443900Y-70913790D01*
X99449897Y-70852903D01*
X99465870Y-70800247D01*
X99491800Y-70751735D01*
X99526704Y-70709204D01*
X99569235Y-70674300D01*
X99617747Y-70648370D01*
X99670403Y-70632397D01*
X99731290Y-70626400D01*
X100531510Y-70626400D01*
X100592397Y-70632397D01*
X100592397Y-70632397D01*
G37*
G36*
X102467397Y-70632397D02*
X102520053Y-70648370D01*
X102568565Y-70674300D01*
X102611096Y-70709204D01*
X102646000Y-70751735D01*
X102671930Y-70800247D01*
X102687903Y-70852903D01*
X102693900Y-70913790D01*
X102693900Y-72139010D01*
X102687903Y-72199897D01*
X102671930Y-72252553D01*
X102646000Y-72301065D01*
X102611096Y-72343596D01*
X102568565Y-72378500D01*
X102520053Y-72404430D01*
X102467397Y-72420403D01*
X102406510Y-72426400D01*
X101606290Y-72426400D01*
X101545403Y-72420403D01*
X101492747Y-72404430D01*
X101444235Y-72378500D01*
X101401704Y-72343596D01*
X101366800Y-72301065D01*
X101340870Y-72252553D01*
X101324897Y-72199897D01*
X101318900Y-72139010D01*
X101318900Y-70913790D01*
X101324897Y-70852903D01*
X101340870Y-70800247D01*
X101366800Y-70751735D01*
X101401704Y-70709204D01*
X101444235Y-70674300D01*
X101492747Y-70648370D01*
X101545403Y-70632397D01*
X101606290Y-70626400D01*
X102406510Y-70626400D01*
X102467397Y-70632397D01*
X102467397Y-70632397D01*
G37*
G36*
X89848197Y-68244797D02*
X89900853Y-68260770D01*
X89949365Y-68286700D01*
X89991896Y-68321604D01*
X90026800Y-68364135D01*
X90052730Y-68412647D01*
X90068703Y-68465303D01*
X90074700Y-68526190D01*
X90074700Y-69751410D01*
X90068703Y-69812297D01*
X90052730Y-69864953D01*
X90026800Y-69913465D01*
X89991896Y-69955996D01*
X89949366Y-69990899D01*
X89907484Y-70013286D01*
X89887109Y-70026900D01*
X89869782Y-70044227D01*
X89856169Y-70064602D01*
X89846791Y-70087241D01*
X89842011Y-70111274D01*
X89842011Y-70135779D01*
X89846792Y-70159812D01*
X89856169Y-70182451D01*
X89869783Y-70202826D01*
X89887110Y-70220153D01*
X89907485Y-70233766D01*
X89922682Y-70240061D01*
X89974765Y-70267900D01*
X90017296Y-70302804D01*
X90052200Y-70345335D01*
X90078130Y-70393847D01*
X90094103Y-70446503D01*
X90100100Y-70507390D01*
X90100100Y-71732610D01*
X90094103Y-71793497D01*
X90078130Y-71846153D01*
X90052200Y-71894665D01*
X90017296Y-71937196D01*
X89974765Y-71972100D01*
X89926253Y-71998030D01*
X89873597Y-72014003D01*
X89812710Y-72020000D01*
X89012490Y-72020000D01*
X88951603Y-72014003D01*
X88898947Y-71998030D01*
X88850435Y-71972100D01*
X88807904Y-71937196D01*
X88773000Y-71894665D01*
X88747070Y-71846153D01*
X88731097Y-71793497D01*
X88725100Y-71732610D01*
X88725100Y-70507390D01*
X88731097Y-70446503D01*
X88747070Y-70393847D01*
X88773000Y-70345335D01*
X88807904Y-70302804D01*
X88850434Y-70267901D01*
X88892316Y-70245514D01*
X88912691Y-70231900D01*
X88930018Y-70214573D01*
X88943631Y-70194198D01*
X88953009Y-70171559D01*
X88957789Y-70147526D01*
X88957789Y-70123021D01*
X88953008Y-70098988D01*
X88943631Y-70076349D01*
X88930017Y-70055974D01*
X88912690Y-70038647D01*
X88892315Y-70025034D01*
X88877118Y-70018739D01*
X88825035Y-69990900D01*
X88782504Y-69955996D01*
X88747600Y-69913465D01*
X88721670Y-69864953D01*
X88705697Y-69812297D01*
X88699700Y-69751410D01*
X88699700Y-68526190D01*
X88705697Y-68465303D01*
X88721670Y-68412647D01*
X88747600Y-68364135D01*
X88782504Y-68321604D01*
X88825035Y-68286700D01*
X88873547Y-68260770D01*
X88926203Y-68244797D01*
X88987090Y-68238800D01*
X89787310Y-68238800D01*
X89848197Y-68244797D01*
X89848197Y-68244797D01*
G37*
G36*
X91723197Y-68244797D02*
X91775853Y-68260770D01*
X91824365Y-68286700D01*
X91866896Y-68321604D01*
X91901800Y-68364135D01*
X91927730Y-68412647D01*
X91943703Y-68465303D01*
X91949700Y-68526190D01*
X91949700Y-69751410D01*
X91943703Y-69812297D01*
X91927730Y-69864953D01*
X91901800Y-69913465D01*
X91866896Y-69955996D01*
X91824366Y-69990899D01*
X91782484Y-70013286D01*
X91762109Y-70026900D01*
X91744782Y-70044227D01*
X91731169Y-70064602D01*
X91721791Y-70087241D01*
X91717011Y-70111274D01*
X91717011Y-70135779D01*
X91721792Y-70159812D01*
X91731169Y-70182451D01*
X91744783Y-70202826D01*
X91762110Y-70220153D01*
X91782485Y-70233766D01*
X91797682Y-70240061D01*
X91849765Y-70267900D01*
X91892296Y-70302804D01*
X91927200Y-70345335D01*
X91953130Y-70393847D01*
X91969103Y-70446503D01*
X91975100Y-70507390D01*
X91975100Y-71732610D01*
X91969103Y-71793497D01*
X91953130Y-71846153D01*
X91927200Y-71894665D01*
X91892296Y-71937196D01*
X91849765Y-71972100D01*
X91801253Y-71998030D01*
X91748597Y-72014003D01*
X91687710Y-72020000D01*
X90887490Y-72020000D01*
X90826603Y-72014003D01*
X90773947Y-71998030D01*
X90725435Y-71972100D01*
X90682904Y-71937196D01*
X90648000Y-71894665D01*
X90622070Y-71846153D01*
X90606097Y-71793497D01*
X90600100Y-71732610D01*
X90600100Y-70507390D01*
X90606097Y-70446503D01*
X90622070Y-70393847D01*
X90648000Y-70345335D01*
X90682904Y-70302804D01*
X90725434Y-70267901D01*
X90767316Y-70245514D01*
X90787691Y-70231900D01*
X90805018Y-70214573D01*
X90818631Y-70194198D01*
X90828009Y-70171559D01*
X90832789Y-70147526D01*
X90832789Y-70123021D01*
X90828008Y-70098988D01*
X90818631Y-70076349D01*
X90805017Y-70055974D01*
X90787690Y-70038647D01*
X90767315Y-70025034D01*
X90752118Y-70018739D01*
X90700035Y-69990900D01*
X90657504Y-69955996D01*
X90622600Y-69913465D01*
X90596670Y-69864953D01*
X90580697Y-69812297D01*
X90574700Y-69751410D01*
X90574700Y-68526190D01*
X90580697Y-68465303D01*
X90596670Y-68412647D01*
X90622600Y-68364135D01*
X90657504Y-68321604D01*
X90700035Y-68286700D01*
X90748547Y-68260770D01*
X90801203Y-68244797D01*
X90862090Y-68238800D01*
X91662310Y-68238800D01*
X91723197Y-68244797D01*
X91723197Y-68244797D01*
G37*
G36*
X106656307Y-69264796D02*
X106733436Y-69272393D01*
X106865387Y-69312420D01*
X106931363Y-69332433D01*
X107113772Y-69429933D01*
X107273654Y-69561146D01*
X107404867Y-69721028D01*
X107502367Y-69903437D01*
X107502367Y-69903438D01*
X107562407Y-70101364D01*
X107582680Y-70307200D01*
X107562407Y-70513036D01*
X107526199Y-70632397D01*
X107502367Y-70710963D01*
X107404867Y-70893372D01*
X107273654Y-71053254D01*
X107113772Y-71184467D01*
X106931363Y-71281967D01*
X106865387Y-71301980D01*
X106733436Y-71342007D01*
X106656307Y-71349604D01*
X106579180Y-71357200D01*
X106476020Y-71357200D01*
X106398893Y-71349604D01*
X106321764Y-71342007D01*
X106189813Y-71301980D01*
X106123837Y-71281967D01*
X105941428Y-71184467D01*
X105781546Y-71053254D01*
X105650333Y-70893372D01*
X105552833Y-70710963D01*
X105529001Y-70632397D01*
X105492793Y-70513036D01*
X105472520Y-70307200D01*
X105492793Y-70101364D01*
X105552833Y-69903438D01*
X105552833Y-69903437D01*
X105650333Y-69721028D01*
X105781546Y-69561146D01*
X105941428Y-69429933D01*
X106123837Y-69332433D01*
X106189813Y-69312420D01*
X106321764Y-69272393D01*
X106398893Y-69264796D01*
X106476020Y-69257200D01*
X106579180Y-69257200D01*
X106656307Y-69264796D01*
X106656307Y-69264796D01*
G37*
G36*
X110117600Y-71357200D02*
X108017600Y-71357200D01*
X108017600Y-69257200D01*
X110117600Y-69257200D01*
X110117600Y-71357200D01*
X110117600Y-71357200D01*
G37*
G36*
X98781200Y-70617600D02*
X97581200Y-70617600D01*
X97581200Y-68317600D01*
X98781200Y-68317600D01*
X98781200Y-70617600D01*
X98781200Y-70617600D01*
G37*
G36*
X96881200Y-70617600D02*
X95681200Y-70617600D01*
X95681200Y-68317600D01*
X96881200Y-68317600D01*
X96881200Y-70617600D01*
X96881200Y-70617600D01*
G37*
G36*
X100693997Y-68346397D02*
X100746653Y-68362370D01*
X100795165Y-68388300D01*
X100837696Y-68423204D01*
X100872600Y-68465735D01*
X100898530Y-68514247D01*
X100914503Y-68566903D01*
X100920500Y-68627790D01*
X100920500Y-69853010D01*
X100914503Y-69913897D01*
X100898530Y-69966553D01*
X100872600Y-70015065D01*
X100837696Y-70057596D01*
X100795165Y-70092500D01*
X100746653Y-70118430D01*
X100693997Y-70134403D01*
X100633110Y-70140400D01*
X99832890Y-70140400D01*
X99772003Y-70134403D01*
X99719347Y-70118430D01*
X99670835Y-70092500D01*
X99628304Y-70057596D01*
X99593400Y-70015065D01*
X99567470Y-69966553D01*
X99551497Y-69913897D01*
X99545500Y-69853010D01*
X99545500Y-68627790D01*
X99551497Y-68566903D01*
X99567470Y-68514247D01*
X99593400Y-68465735D01*
X99628304Y-68423204D01*
X99670835Y-68388300D01*
X99719347Y-68362370D01*
X99772003Y-68346397D01*
X99832890Y-68340400D01*
X100633110Y-68340400D01*
X100693997Y-68346397D01*
X100693997Y-68346397D01*
G37*
G36*
X102568997Y-68346397D02*
X102621653Y-68362370D01*
X102670165Y-68388300D01*
X102712696Y-68423204D01*
X102747600Y-68465735D01*
X102773530Y-68514247D01*
X102789503Y-68566903D01*
X102795500Y-68627790D01*
X102795500Y-69853010D01*
X102789503Y-69913897D01*
X102773530Y-69966553D01*
X102747600Y-70015065D01*
X102712696Y-70057596D01*
X102670165Y-70092500D01*
X102621653Y-70118430D01*
X102568997Y-70134403D01*
X102508110Y-70140400D01*
X101707890Y-70140400D01*
X101647003Y-70134403D01*
X101594347Y-70118430D01*
X101545835Y-70092500D01*
X101503304Y-70057596D01*
X101468400Y-70015065D01*
X101442470Y-69966553D01*
X101426497Y-69913897D01*
X101420500Y-69853010D01*
X101420500Y-68627790D01*
X101426497Y-68566903D01*
X101442470Y-68514247D01*
X101468400Y-68465735D01*
X101503304Y-68423204D01*
X101545835Y-68388300D01*
X101594347Y-68362370D01*
X101647003Y-68346397D01*
X101707890Y-68340400D01*
X102508110Y-68340400D01*
X102568997Y-68346397D01*
X102568997Y-68346397D01*
G37*
G36*
X84532412Y-68112878D02*
X84551354Y-68128424D01*
X84572965Y-68139975D01*
X84596414Y-68147088D01*
X84620800Y-68149490D01*
X84645186Y-68147088D01*
X84657066Y-68144112D01*
X84748279Y-68116443D01*
X84840096Y-68107400D01*
X84901504Y-68107400D01*
X84993321Y-68116443D01*
X85111134Y-68152181D01*
X85219711Y-68210217D01*
X85291516Y-68269146D01*
X85311875Y-68282749D01*
X85334513Y-68292126D01*
X85358547Y-68296907D01*
X85383051Y-68296907D01*
X85407085Y-68292127D01*
X85429724Y-68282750D01*
X85450084Y-68269146D01*
X85521889Y-68210217D01*
X85630466Y-68152181D01*
X85748279Y-68116443D01*
X85840096Y-68107400D01*
X85901504Y-68107400D01*
X85993321Y-68116443D01*
X86111134Y-68152181D01*
X86219711Y-68210217D01*
X86314880Y-68288320D01*
X86392983Y-68383489D01*
X86451019Y-68492066D01*
X86486757Y-68609879D01*
X86498824Y-68732400D01*
X86486757Y-68854921D01*
X86451019Y-68972734D01*
X86392983Y-69081311D01*
X86314880Y-69176480D01*
X86219711Y-69254583D01*
X86111134Y-69312619D01*
X85993321Y-69348357D01*
X85901504Y-69357400D01*
X85840096Y-69357400D01*
X85748279Y-69348357D01*
X85630466Y-69312619D01*
X85521889Y-69254583D01*
X85450084Y-69195654D01*
X85429725Y-69182051D01*
X85407087Y-69172674D01*
X85383053Y-69167893D01*
X85358549Y-69167893D01*
X85334515Y-69172673D01*
X85311876Y-69182050D01*
X85291516Y-69195654D01*
X85219711Y-69254583D01*
X85111134Y-69312619D01*
X84993321Y-69348357D01*
X84901504Y-69357400D01*
X84840096Y-69357400D01*
X84748279Y-69348357D01*
X84657076Y-69320691D01*
X84633052Y-69315912D01*
X84608548Y-69315912D01*
X84584515Y-69320692D01*
X84561876Y-69330070D01*
X84541501Y-69343684D01*
X84527785Y-69357400D01*
X83245800Y-69357400D01*
X83245800Y-68107400D01*
X84527916Y-68107400D01*
X84532412Y-68112878D01*
X84532412Y-68112878D01*
G37*
M02*
